<svg xmlns="http://www.w3.org/2000/svg" fill="none" viewBox="0 0 37 31">
  <path d="M36.478 7.269c-1.7-.78-3.137-1.953-4.444-3.125C30.467 2.843 28.897 1.541 27.2.24c-.914-.78-2.354.521-1.438 1.432 1.7 1.43 3.398 2.733 4.968 4.164.784.65 1.437 1.172 2.22 1.823C18.575 7.788 7.726 18.33.148 29.527c-.654 1.042 1.047 2.082 1.7 1.042C8.642 20.415 18.314 10.785 31.123 9.743a12.985 12.985 0 00-4.314 6.378c-.393 1.172 1.568 1.694 1.83.522 1.047-3.514 3.921-6.38 7.449-7.419.914-.261 1.307-1.563.39-1.955z" fill="#DD6F6F"/>
</svg>
