<svg xmlns="http://www.w3.org/2000/svg" fill="none" viewBox="0 0 411 211">
  <circle opacity=".8" cx="87" cy="96" r="87" fill="#2E8C8D"/>
  <path d="M171.54 152.067H25.46a4.46 4.46 0 01-4.46-4.456V44.456a4.459 4.459 0 011.308-3.15A4.468 4.468 0 0125.46 40h146.08a4.467 4.467 0 014.46 4.456V147.61a4.46 4.46 0 01-4.46 4.456z" fill="#251A3F"/>
  <path d="M165.459 46.074H31.544a4.462 4.462 0 00-4.462 4.458v91.002a4.459 4.459 0 001.309 3.15 4.471 4.471 0 003.153 1.308H165.46a4.467 4.467 0 004.459-4.458V50.532a4.466 4.466 0 00-4.459-4.458z" fill="#fff"/>
  <path d="M117.77 88.781l-.247.445c2.198-5.412.199-12.082-3.723-16.163-3.921-4.081-9.373-5.947-14.742-6.687-3.985-.55-8.122-.534-11.911.925-5.488 2.111-9.68 7-13.18 12.085-1.602 2.327-3.176 4.978-3.016 7.886.148 2.698 1.75 4.987 3.064 7.276 1.313 2.29 2.409 5.129 1.467 7.627-.562 1.489-1.748 2.561-2.711 3.779-.963 1.218-1.755 2.864-1.29 4.392.376 1.236 1.508 2.049 2.672 2.32 1.164.271 2.372.094 3.55-.084l30.601-4.618a13.047 13.047 0 009.749-7.121 13.015 13.015 0 00-.283-12.062z" fill="#2F2E41"/>
  <path d="M95.01 107.751c8.262 0 14.961-6.691 14.961-14.946 0-8.254-6.699-14.945-14.961-14.945-8.263 0-14.961 6.691-14.961 14.945 0 8.255 6.698 14.946 14.96 14.946z" fill="#FFB9B9"/>
  <path d="M132.327 126.639a12.839 12.839 0 00-4.418-5.255 12.864 12.864 0 00-6.495-2.232l-4.17-.252.01.044-10.599-6.37c.26.298-17.241.923-17.241.923l-6.494 5.596-2.724.165a12.865 12.865 0 00-6.495 2.232 12.844 12.844 0 00-4.418 5.255l-8.843 19.353h17.626l.41-1.758c.444.541.875 1.092 1.293 1.652h61.402l-8.844-19.353z" fill="#8D2E72"/>
  <path d="M109.197 78.934c-.386-2.041-2.47-2.975-4.255-3.427a41.031 41.031 0 00-15.857-.87c-3.858.55-7.807 1.761-10.607 4.77-2.183 2.346-3.504 5.707-3.606 9.177-.06 2.022.302 4.127 1.309 5.83 1.007 1.703 2.724 2.938 4.497 2.895l.18.624c7.51-1.046 14.488-5.715 18.882-12.636a16.185 16.185 0 01-4.734 7.64 29.496 29.496 0 0012.734-9.803c.888-1.178 1.751-2.648 1.457-4.2z" fill="#2F2E41"/>
  <circle opacity=".8" cx="293.5" cy="167.5" r="43.5" fill="#F5BF56"/>
  <path fill="#fff" stroke="#DEDEDE" d="M297.5 14.236h112.321v163.566H297.5z"/>
  <path fill-rule="evenodd" clip-rule="evenodd" d="M310.737 90.48c3.647 0 6.603-2.811 6.603-6.278 0-3.467-2.956-6.278-6.603-6.278-3.648 0-6.604 2.81-6.604 6.278 0 3.467 2.956 6.278 6.604 6.278z" fill="#A29EAC"/>
  <rect x="321.303" y="81.094" width="81.094" height="4.491" rx="2.245" fill="#DEDEDE"/>
  <path fill-rule="evenodd" clip-rule="evenodd" d="M310.737 111.876c3.647 0 6.603-2.81 6.603-6.278 0-3.467-2.956-6.277-6.603-6.277-3.648 0-6.604 2.81-6.604 6.277 0 3.468 2.956 6.278 6.604 6.278z" fill="#A29EAC"/>
  <rect x="321.303" y="101.962" width="81.094" height="4.491" rx="2.245" fill="#DEDEDE"/>
  <path fill-rule="evenodd" clip-rule="evenodd" d="M310.737 132.744c3.647 0 6.603-2.811 6.603-6.278 0-3.467-2.956-6.278-6.603-6.278-3.648 0-6.604 2.811-6.604 6.278 0 3.467 2.956 6.278 6.604 6.278z" fill="#A29EAC"/>
  <rect x="321.303" y="122.83" width="81.094" height="4.491" rx="2.245" fill="#DEDEDE"/>
  <path fill-rule="evenodd" clip-rule="evenodd" d="M310.737 153.612c3.647 0 6.603-2.811 6.603-6.278 0-3.467-2.956-6.277-6.603-6.277-3.648 0-6.604 2.81-6.604 6.277s2.956 6.278 6.604 6.278z" fill="#A29EAC"/>
  <rect x="321.303" y="143.698" width="81.094" height="4.491" rx="2.245" fill="#DEDEDE"/>
  <rect x="303.246" y="21.27" width="77.924" height="8.981" rx="4.491" fill="#A29EAC"/>
  <rect x="303.246" y="34.213" width="101.17" height="5.547" rx="2.774" fill="#F1F1F1"/>
  <rect x="303.246" y="43.723" width="71.849" height="5.547" rx="2.774" fill="#F1F1F1"/>
  <path fill="#fff" stroke="#DEDEDE" d="M297.531.5h112.352v13.528H297.531z"/>
  <path stroke="#E2E2E2" d="M297.264 66.066H410.32"/>
  <path fill="#F9F9FA" stroke="#DEDEDE" d="M297.5 169.292h112.352V195.5H297.5z"/>
  <rect x="304.133" y="175.396" width="100.377" height="14" rx="7" fill="#DEDEDE"/>
  <path fill-rule="evenodd" clip-rule="evenodd" d="M181.96 111.744c.691.057 1.111-.527.982-1.366-.042-.273.02-.506.257-.943.169-.321.573-1.246.889-2.062 1.398-3.55 2.766-5.707 5.763-9.042.967-1.085 4.22-3.948 5.51-4.865 5.004-3.516 10.919-5.62 18.338-6.528 4.266-.517 9.325-.266 14.363.713 3.564.7 8.941 2.472 12.622 4.177 3.457 1.597 7.517 3.988 11.088 6.52 2.85 2.016 8.208 6.304 8.102 6.487-.065.104-.591 1.951-1.029 3.607-.255.963-1.118 3.573-1.209 3.65-.019.016-.054.13-.072.25-.014.108-.229.683-.475 1.273-.297.701-.424 1.143-.384 1.299.035.126.373.694.745 1.258 1.271 1.905 1.929 3.046 2.229 3.85.363.974.678 1.301 1.243 1.311.204.017.411-.018.467-.066.049-.041.302-.064.552-.063.68.03 1.458-.297 4.03-1.695 3.472-1.872 7.408-3.748 10.28-4.902 2.886-1.151 9.801-3.521 17.039-5.832 5.138-1.634 6.034-1.965 6.545-2.399.463-.392.376-1.069-.169-1.293-.133-.044-.231-.173-.352-.415-.318-.683-.99-1.727-1.847-2.879a46.922 46.922 0 01-1.128-1.54c-.143-.211-1.267-1.716-2.488-3.355-4.287-5.73-4.661-6.28-9.161-13.48-3.883-6.191-4.701-7.468-6.008-9.26-.821-1.121-.876-1.229-.729-1.296.08-.044.118-.112.084-.152-.036-.042-.114-.035-.17.012-.068.058-.166.013-.307-.153-.182-.215-2.093-3.704-3.012-5.503-.478-.94-.579-1.043-1.009-1.119-.585-.099-.846.195-1.292 1.464-.433 1.199-1.244 4.026-1.24 4.296.005.328-.157.334-.52-.009-.64-.589-3.83-2.754-5.335-3.617a64.55 64.55 0 00-2.841-1.514c-1.71-.855-6.467-2.892-7.794-3.335-1.57-.535-5.452-1.652-6.846-1.98-4.948-1.153-11.572-2-15.947-2.033-2.879-.03-6.788.36-10.017.983-1.027.204-1.937.334-2.037.302-.094-.04-.196-.023-.236.044-.038.068-.461.213-.94.334-1.443.344-5.097 1.447-6.246 1.871-.59.228-1.165.406-1.272.404-.11-.003-.216.038-.233.09-.01.044-.672.356-1.477.681-2.211.911-4.836 2.342-7.547 4.119-1.36.891-5.202 4.125-6.454 5.423-3.614 3.755-7.112 8.753-9.153 13.084-.288.602-.793 1.672-1.129 2.37-1.583 3.317-2.736 6.68-3.607 10.558-.648 2.866-.779 6.244-.397 10.578.081.906.124 1.083.347 1.347.211.248.336.31.635.341h-.001zm1.396-9.93c.522-2.662 1.677-5.758 3.463-9.23 1.238-2.419 3.621-6.198 5.139-8.163 2.763-3.564 6.285-6.517 10.78-9.009 6.866-3.814 13.237-5.828 21.307-6.74 8.215-.92 13.055-.9 18.279.09 4.097.769 6.873 1.563 11.373 3.239 3.893 1.452 5.738 2.24 9.793 4.206 3.784 1.83 4.189 2.081 7.936 4.905 2.696 2.03 3.116 2.3 3.503 2.294.348-.01.78-.482 1.02-1.15.255-.68 1.16-4.309 1.433-5.753.098-.5.184-.906.21-.904.012.001.381.592.81 1.32 1.367 2.313 6.961 11.364 8.308 13.43 1.497 2.296 2.886 4.257 5.526 7.792a167.367 167.367 0 012.859 3.935c.586.843 1.421 1.955 1.86 2.473l.804.948-3.781 1.256c-6.85 2.267-13.337 4.535-17.897 6.25-1.653.63-5.383 2.272-8.094 3.559-2.494 1.191-4.379 2.038-4.495 2.028-.087-.007-.118.112.437-1.558.569-1.716 1.564-5.164 1.84-6.381.108-.474.244-.958.312-1.075a.92.92 0 00.091-.467c-.052-.398-.686-1.358-1.379-2.075-.587-.622-6.991-5.932-9.487-7.882-5.502-4.291-11.638-7.896-17.055-10.039-5.984-2.365-10.549-3.473-16.286-3.932-4.338-.35-7.371-.214-11.624.527-6.048 1.053-10.765 2.82-15.167 5.673-4.952 3.212-9.691 8.442-11.87 13.103l-.399.864.112-1.203a36 36 0 01.339-2.331zm3.079-12.16c.259-.244.184.032-.222.732-.622 1.099-.65 1.123-.253.204.192-.46.414-.886.475-.937zm.261-.676c.054-.118.36-.78.688-1.486l.6-1.268.445-.08.456-.078-.326.5c-.258.397-.404.533-.705.694-.431.235-.536.406-.238.38.116-.003.205.003.202.041-.015.121-.819 1.36-.963 1.483-.194.165-.275.068-.159-.186zm2.087-4.182c.041-.034.332-.125.646-.19l.558-.128-.199.286c-.443.628-.513.711-.656.713-.083-.002-.327.088-.555.197l-.404.198.266-.498c.139-.271.295-.536.344-.578zm.832-1.524c.029-.037.376-.106.759-.157l.697-.09-.275.362c-.237.308-.334.378-.617.45-.182.037-.522.17-.747.28l-.43.208.272-.504c.152-.27.301-.516.341-.55zm.687-1.07c.192-.293.379-.561.414-.59.035-.03.447-.103.92-.162l.858-.11-.412.48c-.411.467-.418.473-1.16.664-.412.1-.791.217-.84.258-.192.163-.112-.022.22-.54zm1.212-1.752l.352-.44 1.073-.15c.897-.117 1.051-.12.96.029-.263.404-.6.593-1.336.763-.405.096-.893.236-1.079.31-.421.179-.417.056.03-.512zm1.202-1.65c.229-.278.293-.284 1.582-.377 1.191-.083 1.323-.078 1.175.084-.112.119-.507.229-1.296.364-.625.101-1.273.236-1.432.3-.352.13-.362.009-.028-.37h-.001zm1.305-1.628c.674-.82.534-.785 3.115-.657l.929.043-.546.394c-.519.368-.593.394-1.448.465-.498.043-1.253.147-1.685.228-.432.093-.775.124-.771.072.011-.045.194-.293.406-.545zm1.702-1.988l.324-.347.706.08c1.313.147 3.03.377 3.065.419.016.019-.08.1-.207.188-.172.11-.482.132-.968.094-.792-.067-2.486-.044-2.962.039-.37.065-.364-.037.041-.473h.001zm1.363-1.348l.401-.34 2.098.3c1.157.175 2.146.333 2.189.356.055.037.02.09-.068.13a9.677 9.677 0 00-.375.186c-.129.074-.386.066-.655-.015-.522-.151-2.752-.329-3.455-.278-.265.024-.498.03-.51.015-.011-.014.163-.173.376-.354h-.001zm1.367-1.276l.434-.368 2.426.46c1.336.26 2.43.485 2.428.51-.002.026-.144.11-.325.192-.268.12-.409.122-.687-.011-.396-.187-2.891-.436-3.955-.39a8.44 8.44 0 01-.733.004c-.011-.014.168-.191.411-.397h.001zm1.777-1.507l.483-.41.696.206c.383.129 1.343.419 2.133.664.797.24 1.606.493 1.805.561l.368.126-.313.148c-.256.133-.403.126-.77-.013-.693-.255-1.637-.444-3.323-.652a39.824 39.824 0 01-1.551-.206c-.006-.007.208-.2.471-.423h.001zm1.976-1.51c.114-.06.548.06 1.308.34 3.75 1.422 3.86 1.47 3.781 1.572-.165.212-.471.187-.969-.093-.792-.456-3.157-1.09-4.322-1.157l-.518-.038.272-.267c.147-.148.354-.311.448-.356zm1.332-.88c.387-.245.407-.25.845-.027.253.132 1.44.646 2.646 1.145 1.889.798 2.16.935 1.986 1.013-.246.101-.472.115-.549.024-.246-.29-3.392-1.424-4.754-1.71-.307-.07-.565-.136-.563-.162.001-.012.18-.152.389-.284zm1.591-.956c.267-.13.366-.098 2.004.654 1.878.856 3.659 1.698 3.695 1.74.018.02-.094.055-.233.09-.216.053-.457-.051-1.256-.517-.54-.314-1.137-.639-1.317-.71-.515-.219-2.915-.905-3.141-.902-.187.002-.199-.012-.126-.11.05-.065.219-.174.375-.245h-.001zm1.724-1.02l.721-.41.854.487c.461.264 1.358.748 1.982 1.077a80.04 80.04 0 011.945 1.058l.805.461-.35.104c-.189.056-.396.124-.441.138-.054.022-.4-.16-.772-.39-.691-.436-2.778-1.245-4.532-1.756-.521-.153-.939-.297-.937-.323.001-.024.328-.229.726-.446h-.001zm2.438-1.188l.872-.373.273.222c.319.263 4.699 3.275 4.826 3.311.15.05-.044.157-.433.247-.353.087-.396.063-.884-.342-.782-.657-3.263-1.83-4.889-2.319-.402-.124-.698-.25-.675-.294.028-.048.436-.253.911-.452h-.001zm2.234-.898l.551-.206 1.301.92c.711.502 1.937 1.374 2.727 1.928l1.423 1.005-.571.138c-.551.135-.583.126-.811-.143-.129-.152-.483-.47-.791-.71-.549-.435-3.797-2.458-4.122-2.575-.306-.11-.27-.152.293-.356zm1.901-.744l.392-.153.632.437c.689.475 5.192 3.49 5.363 3.593.068.039-.098.108-.385.162-.471.102-.516.092-.845-.211-.675-.616-1.943-1.492-3.682-2.534-.967-.581-1.789-1.073-1.82-1.095-.024-.028.133-.112.344-.199h.001zm44.765 51.031c.04-.118.153.015.234.276.05.173.038.172-.103.006-.096-.099-.156-.226-.131-.282zm-42.859-51.625c.357-.113.712-.187.788-.193.13-.002 2.035 1.151 3.462 2.09.731.488 2.899 2.118 2.931 2.212.014.044-.293.117-.682.161l-.709.091-.417-.396c-.626-.597-1.121-.985-2.008-1.554-.885-.567-2.927-1.7-3.494-1.92-.584-.243-.568-.292.13-.49l-.001-.001zm44.584 52.75c-1.384-2.319-1.301-2.08-1.003-2.963.07-.211.151-.353.18-.318.024.028.169.379.314.778.385 1.042 1.427 3.377 1.857 4.165.381.686.433 1.07.087.662-.093-.11-.747-1.161-1.436-2.324h.001zm.732-1.367a69.686 69.686 0 00-1.061-2.047c-.27-.474-.278-.527-.135-.946.084-.236.183-.428.209-.426.039.004.182.3.326.664.509 1.315 1.613 3.682 1.895 4.085.258.376.279.454.188.768a2.99 2.99 0 01-.135.376c-.035.029-.129-.153-1.287-2.474zm-42.766-52.12l.616-.154 1.906 1.307c1.769 1.234 4.485 3.315 4.482 3.438-.008.076-.998.167-1.057.098-.375-.442-1.612-1.508-2.403-2.062-.934-.67-2.767-1.752-3.671-2.186-.222-.11-.426-.21-.45-.237-.03-.022.23-.122.578-.204h-.001zm43.407 50.329c-.559-1.095-1.086-2.122-1.161-2.283-.117-.234-.115-.401.043-.844.104-.313.221-.568.252-.559.033-.004.196.416.368.912a172.79 172.79 0 001.669 4.562c.121.323.041.664-.087.371-.045-.094-.53-1.06-1.084-2.159zm.804-1.561c-.419-.986-.912-2.113-1.092-2.494l-.329-.697.233-.791c.118-.433.245-.79.263-.782.018-.004.205.634.405 1.404.34 1.269 1.115 3.711 1.425 4.484.129.304.065.929-.076.763-.034-.04-.409-.89-.829-1.887zm-42.302-49.22c.035-.03.31-.084.623-.136l.573-.093 2.717 2.14a524.23 524.23 0 003.228 2.515c.283.21.494.388.473.406-.021.018-.28.049-.584.07l-.551.037-.422-.497c-.627-.74-1.453-1.477-2.403-2.134-.865-.599-3.165-2.01-3.452-2.11-.201-.067-.266-.144-.203-.198h.001zm42.986 47.096c-.356-.98-.757-2.068-.888-2.407-.252-.605-.245-.611-.004-.426.18.145.283.319.403.73.086.296.405 1.259.697 2.152.486 1.454.63 1.974.477 1.794-.03-.035-.341-.863-.684-1.844l-.001.001zm-40.201-47.652c.236-.044.499-.041.597.004.551.272 6.074 4.654 6.484 5.137.035.042-.129.1-.37.113-.42.035-.44.027-.944-.484a32.37 32.37 0 00-1.024-.971c-.534-.474-3.714-2.78-4.577-3.31-.649-.4-.649-.4-.166-.489zm40.631 45.947c.08.037.382.351.675.697l.535.617-.197.369c-.1.204-.206.387-.227.405-.028.024-.245-.455-.486-1.061-.299-.731-.399-1.076-.3-1.027zm-38.838-46.229c.638-.103 1.236-.169 1.362-.144.082.024.331.206.551.412.62.59 3.49 3.064 4.472 3.872.495.4 1.03.837 1.192.985l.299.268-.703.026-.696.032-.24-.367c-.124-.204-.608-.746-1.065-1.2-.909-.916-2.811-2.335-4.295-3.215-.944-.554-1.054-.64-.877-.67v.001zm2.647-.296c.118-.1 1.052-.094 1.177 0 .994.751 6.325 5.497 6.322 5.62-.009.032-.281.061-.623.066l-.611-.007-.404-.548c-.701-.94-1.885-2.084-3.403-3.27-.785-.618-1.651-1.261-1.913-1.432-.556-.348-.599-.384-.545-.43zm2.485-.18c.746-.062 1.644-.054 1.698.01.111.13 3.646 3.74 4.716 4.805.565.57 1.033 1.051 1.03 1.09-.002.025-.248.03-.541.005l-.529-.05-1.162-1.356c-1.139-1.33-1.197-1.397-2.631-2.498-.804-.627-1.748-1.323-2.097-1.55a15.695 15.695 0 01-.66-.428c-.019-.008.066-.02.176-.03v.002zm2.948-.027c.028-.024.316-.02.649.008l.599.062.796.868c.438.474 1.471 1.522 2.29 2.336.822.8 1.756 1.779 2.079 2.16l.581.684-.672-.049-.669-.05-.351-.51c-.704-1.056-1.958-2.45-3.328-3.702a47.55 47.55 0 00-1.602-1.411c-.357-.256-.432-.344-.371-.396h-.001zm3.311.16l.824.063 1.529 1.804c1.549 1.826 3.43 4.282 3.332 4.365-.026.022-.192.01-.356-.03-.265-.073-.342-.136-.651-.613a44.574 44.574 0 00-1.21-1.636c-.736-.955-1.009-1.248-1.913-2.048a39.937 39.937 0 00-1.654-1.391c-.32-.25-.624-.482-.665-.517-.03-.035.31-.026.766.005l-.001-.002h-.001zm5.766 4.561c-.739-1.18-2.879-3.608-3.733-4.25-.182-.13-.142-.14.394-.11 1.132.073 1.114.065 1.738 1.057.525.827 2.199 3.39 2.88 4.39.177.267.372.577.426.698l.104.221-.724-.124-.295-.557a38.55 38.55 0 00-.791-1.325h.001zm2.214.998c-.509-1.018-1.793-2.912-2.972-4.386l-.572-.703.85.147.85.135.6 1.238c.33.683.993 2 1.475 2.932 1.109 2.15 1.031 1.931.743 1.927-.321-.013-.397-.117-.974-1.29zm1.973.716c-.382-1.01-1.625-3.304-2.457-4.537l-.577-.865.53.11c.462.094.541.146.65.388.077.147.592 1.076 1.167 2.063.568.992 1.305 2.281 1.628 2.886l.605 1.092-.612-.135c-.336-.073-.609-.127-.609-.127s-.146-.398-.326-.876h.001zm1.534-.98c-.499-.897-1.888-3.012-2.292-3.489-.182-.215-.318-.432-.307-.475.016-.048.177-.056.354-.014l.319.083.52.892c.288.49 1.166 1.934 1.943 3.201.776 1.266 1.452 2.356 1.479 2.417.04.062-.153.046-.423-.035l-.496-.15-.363-.892a16.391 16.391 0 00-.734-1.538zm2.874 2.184c-.431-1.096-1.204-2.472-2.391-4.235-.949-1.428-.988-1.503-.777-1.477.216.018.278.106 1.371 1.84 1.19 1.882 2.916 4.898 2.847 4.958-.055.046-.581-.126-.671-.218-.03-.035-.197-.427-.378-.867l-.001-.001zm1.856.578c-.615-1.581-1.363-2.814-3.177-5.303l-.504-.677.673.189.673.192.331.655a68.79 68.79 0 001.174 2.143c.952 1.686 2.086 3.933 2.016 3.992-.033.028-.743-.19-.801-.245-.012-.013-.182-.44-.386-.945h.001zm2 1.014a12.87 12.87 0 00-.459-1.157c-.352-.793-1.999-3.508-2.774-4.576l-.509-.697 1.707.528.331.811c.182.452.826 1.913 1.443 3.256a153.618 153.618 0 011.164 2.579c.035.099-.047.096-.285 0-.423-.162-.453-.197-.619-.744h.001zm1.839.697c-.34-1.173-1.305-3.277-2.795-6.1-.1-.189-.074-.186.382-.027l.492.177 1.366 3.322c.756 1.829 1.357 3.338 1.336 3.355-.026.023-.562-.117-.609-.159-.006-.006-.08-.264-.172-.567zm1.353-.885c-.404-1.12-1.504-3.37-2.135-4.369l-.245-.385.35.144c.347.144.347.144.631.83.161.374.658 1.462 1.106 2.427 1.114 2.392 1.619 3.533 1.621 3.663-.011.058-.17.037-.37-.043l-.367-.154-.178-.74c-.1-.402-.287-1.026-.413-1.373zm2.063 1.804a15.446 15.446 0 00-.57-1.597c-.251-.594-1.696-3.444-2.078-4.107-.073-.127-.016-.128.308 0 .217.09.446.217.505.286.05.074.777 1.646 1.613 3.503l1.525 3.366-.491-.2c-.269-.119-.501-.255-.517-.302-.022-.053-.147-.481-.295-.95zm2.095.97c-.46-1.382-1.808-4.22-2.57-5.426-.336-.525-.331-.587.043-.441.405.154.54.313.729.806.08.218.474 1.133.882 2.034.831 1.862 1.615 3.753 1.681 4.028.036.184.031.189-.194.108-.126-.05-.253-.132-.263-.183a46.072 46.072 0 01-.308-.927zm1.581.392c-.364-1.116-1.814-4.2-2.44-5.19l-.267-.427.649.305.644.296.844 1.947c1.053 2.435 2.009 4.808 1.96 4.85-.076.065-.889-.362-.954-.496a26.79 26.79 0 01-.435-1.285h-.001zm2.196 1.121c-.46-1.356-1.055-2.73-1.876-4.315-.282-.544-.544-1.048-.57-1.122-.054-.12.895.313 1.035.48.111.13 1.654 3.98 2.017 5.026.187.531.384 1.087.432 1.238l.094.266-.329-.137c-.188-.066-.343-.139-.362-.147-.01-.013-.207-.596-.441-1.289zm1.862 1.06c-.291-1.071-.816-2.42-1.664-4.234-.54-1.168-.549-1.221-.308-1.093.639.35.915.59 1.012.9.092.28.369 1.066 1.582 4.433l.535 1.497-.348-.17c-.191-.087-.393-.213-.445-.274-.06-.057-.22-.539-.364-1.06zm1.954 1.112c-.253-1.07-1.025-3.04-1.7-4.371-.22-.44-.369-.815-.336-.819.04-.01.259.126.484.292l.417.312.331 1.049c1.401 4.456 1.521 4.876 1.367 4.794-.277-.147-.308-.226-.564-1.256h.001zm1.494.753c-.199-.864-.557-2-.915-2.93-.332-.837-.599-1.56-.588-1.617-.007-.174.438.223.492.439.064.303 1.384 4.198 1.751 5.18l.329.848-.318-.204a2.82 2.82 0 01-.37-.257c-.031-.022-.196-.677-.381-1.459zm1.92 1.901c-.142-.461-.645-1.854-1.115-3.082-.818-2.125-.969-2.615-.763-2.371.053.062.195.12.325.117.217.005.245.066.816 1.79.677 2.016.872 2.516 1.553 3.935.271.556.516 1.071.537 1.15.036.113-.582-.279-1.06-.66a8.564 8.564 0 01-.292-.88l-.001.001zm2.109-.468l-.161-.458.251.381c.154.224.248.477.237.63l-.021.255-.076-.172a9.006 9.006 0 01-.23-.636zm-1.912-4.665c-.167-.368-.216-.648-.082-.476.099.117.376.974.3.885-.036-.03-.13-.21-.218-.41zm2.218 2.194c-.484-1.063-.493-1.268-.009-.265.175.361.387.74.476.845.081.096.141.262.125.356-.046.255-.102.16-.592-.935zm-.683-1.549c-.062-.172-.073-.27-.026-.214.047.056.14.25.202.422.062.173.076.27.028.214a1.974 1.974 0 01-.204-.421zm-.846-1.991c-.382-.886-.552-1.409-.369-1.194.075.09.92 2.332.861 2.262-.029-.02-.248-.501-.492-1.068zm1.335-.025c-.394-.843-.846-1.78-.992-2.094-.25-.49-.335-1.025-.156-1.012.039.003.251.55.492 1.213.49 1.403 1.41 3.344 1.784 3.786.194.229.241.355.192.492-.077.173-.083.166-.345-.337-.144-.283-.581-1.206-.975-2.048zm1.091.32c-.165-.347-.256-.567-.184-.496.213.223.742 1.154.723 1.275-.007.186-.185-.067-.54-.779h.001zm-.468-.944a.484.484 0 01.146.172c.021.067-.023.044-.104-.052-.083-.098-.099-.144-.042-.12z" fill="#443D5E"/>
  <path fill-rule="evenodd" clip-rule="evenodd" d="M199.424 85.277c.036-.03.277-.375.553-.777.285-.407.635-.823.805-.944.265-.19.283-.24.193-.388-.165-.266-.463-.154-.83.31-.352.455-.922 1.662-.828 1.773.028.033.079.05.107.027zm5.354-3.62c.092-.114.434-.581.772-1.036a12.56 12.56 0 011.313-1.492c.621-.587.7-.689.613-.792-.2-.236-.521-.012-1.271.897-.585.697-1.639 2.342-1.608 2.516.012.086.067.051.182-.094l-.001.001zm6.109-2.297c.012-.01.362-.497.77-1.067.517-.735.829-1.097 1.019-1.21.257-.145.265-.164.115-.299-.27-.248-.668.125-1.312 1.242a61.97 61.97 0 01-.637 1.099c-.073.11-.038.305.046.234h-.001zm2.892 1.422c.656-1.006 3.779-5.06 4.825-6.264.418-.474.402-.757-.029-.75-.328.006-.503.179-1.473 1.417-1.23 1.565-3.567 5.366-3.461 5.632.033.078.078.064.138-.035zm5.54-.132c.088-.076.491-.5.899-.943.404-.447 1.354-1.361 2.116-2.03.756-.666 1.391-1.262 1.409-1.312.016-.063-.033-.177-.108-.266-.246-.29-.483-.161-1.552.818a16.192 16.192 0 00-2.654 3.162c-.36.57-.414.828-.11.57zm5.351.634c.343-.621 3.109-2.99 7.002-5.982 1.763-1.354 1.834-1.438 1.558-1.762-.31-.367-.392-.31-3.392 2.234-1.521 1.289-3.095 2.684-3.501 3.088-1.242 1.253-1.983 2.287-1.807 2.495.04.047.095.013.139-.073h.001zm-1.214-2.481c.506-.429 1.424-1.516 1.389-1.627-.094-.266-.373-.218-.678.11-.627.676-1.23 1.957-.711 1.517zm6.355 1.818c.121-.15.818-.801 1.54-1.45 1.3-1.171 2.679-2.223 3.642-2.755.527-.302.64-.52.314-.624-.596-.182-4.056 2.632-5.404 4.404-.432.556-.5.91-.093.425h.001zm9.893 7.758c4.332 1.746 6.392 2.746 9.271 4.5 2.399 1.47 4.382 2.913 7.671 5.615 2.788 2.294 4.226 3.402 4.348 3.348.346-.138-1.935-2.591-4.541-4.906-1.954-1.731-2.849-2.422-4.836-3.744-3.598-2.392-7.135-4.168-10.918-5.476-2.622-.905-3.109-1.002-3.177-.622-.059.323.295.533 2.182 1.285zm-5.422-8.654c1.131-.948 2.016-1.614 2.943-2.187.301-.195.345-.256.297-.393-.036-.1-.146-.173-.319-.182-.235-.026-.366.06-1.329.829-.944.765-2.584 2.335-2.84 2.705-.045.074-.058.17-.028.204.028.033.57-.378 1.275-.976h.001zm2.958 1.18c.822-.697 1.975-1.439 2.613-1.682.525-.208.596-.28.41-.444-.251-.224-.961.116-2.109 1.017-1.032.814-1.83 1.6-1.743 1.703.03.035.406-.237.829-.595v.001zm29.526 35.158c.182.059.691-.123 2.207-.815a447.43 447.43 0 013.704-1.631 111.518 111.518 0 003.566-1.622c.697-.343 1.808-.855 2.469-1.154 1.79-.803 4.612-2.212 4.621-2.301.009-.127-.386-.077-1.332.166-1.079.285-1.789.542-4.778 1.723-5.286 2.093-9.314 3.999-10.391 4.913-.374.317-.399.623-.066.722v-.001zm-25.092-34.762c.524-.432.947-.733 1.173-.817.377-.143.459-.245.335-.392-.27-.317-1.119.154-1.838 1-.514.616-.601.75-.532.832.03.035.413-.242.862-.623zm3.79 1.591a8.23 8.23 0 00.487-.293c.164-.104.421-.18.554-.16.325.032.488-.154.34-.385-.259-.42-.847-.242-1.351.41-.325.416-.34.597-.03.428zM236.231 70.4c.586.086 1.696.249 2.468.345 5.408.702 9.789 1.848 17.147 4.486 4.166 1.494 5.367 1.817 4.649 1.25-.563-.438-2.441-1.52-3.532-2.021-2.992-1.385-4.363-1.837-8.599-2.87-4.992-1.22-7.537-1.654-10.749-1.83-2.105-.114-2.46-.098-2.581.11-.129.24.162.375 1.197.53zm15.757 14.513c1.949-1.652 3.595-2.906 4.131-3.145.506-.228.408-.75-.125-.607-.73.204-6.19 5.058-5.974 5.313.03.035.918-.67 1.968-1.56zm2.614.074c.225-.142.406-.32.412-.385.016-.19-.325-.199-.482-.005-.071.096-.201.251-.281.355-.23.303-.065.316.351.035zm18.36 13.188c3.321-1.198 4.352-1.538 6.789-2.24.718-.204.898-.284.962-.446.18-.461-.395-.58-1.533-.294-1.41.34-6.416 2.257-8.178 3.12-1.44.712-1.814.957-1.679 1.116.017.02 1.658-.539 3.64-1.256h-.001zm.389 2.195c1.715-.694 4.281-1.622 5.194-1.875.823-.232.991-.398.722-.716-.107-.126-.252-.145-.574-.075-1.025.206-4.287 1.615-5.759 2.483-.284.171-.608.362-.738.436-.12.066-.191.15-.161.185.036.042.63-.153 1.316-.438zm-4.303-3.812c.419-.011 3.594-1.314 4.919-2.02.807-.422.993-.652.77-.914-.17-.201-.216-.198-1.009.045-.526.161-.574.19-.438.28.157.103.481-.091-2.793 1.653-.868.463-1.582.867-1.587.904-.002.025.06.057.138.052zm6.168 5.173c1.242-.386 3.699-1.272 3.817-1.372a.354.354 0 00.111-.259c-.003-.367-.325-.33-1.391.122-1.002.433-2.996 1.385-3.143 1.51-.192.163.086.168.605-.001h.001zm2.75 1.701c1.522-.516 2.178-.907 1.961-1.163-.117-.138-.309-.057-1.726.668-1.423.732-1.517.928-.235.495zm-8.557-10.3c.357-.184.955-.502 1.346-.7 1.061-.542 1.128-.587 1.106-.713-.008-.066-.082-.167-.17-.213-.202-.126-.698.129-1.854.966-1.156.839-1.176.856-1.113.931.03.035.343-.087.685-.271zm16.226 15.206c.385.006 3.349-1.319 3.37-1.504.009-.16-.636-.09-1.672.17-1.7.433-2.35.803-2.039 1.17.071.084.232.16.341.164zm-20.906-29.472c1.001.423 2.309 1.024 2.898 1.344 1.517.805 1.605.658.294-.439-1.198-.991-3.863-2.44-4.616-2.504-.499-.04-.824.377-.533.692.07.082.951.487 1.957.906zm26.341 20.023c.825.679 1.051.831 1.133.762.084-.071-.005-.257-.408-.903-.575-.901-1.135-1.519-1.391-1.527-.309-.014-.456.135-.428.42.027.31.198.498 1.094 1.247zm-3.172-3.844c.078.066.34.318.577.555.507.485.677.449.363-.092-.967-1.629-3.296-4.953-5.988-8.516-1.761-2.346-1.862-2.451-2.182-2.252-.209.132-.228.433-.047.826.201.447 1.777 2.769 2.826 4.175.8 1.068 4.102 5.004 4.451 5.302v.002zm-96.408 4.733c.251.012.352-.049 2.282-1.376 2.223-1.54 3.524-2.345 5.183-3.206 6.179-3.208 10.232-4.778 13.591-5.285 2.228-.331 7.671-.314 9.617.031.401.066.58.055.589-.034.013-.18-1.688-.755-2.946-.994-1.978-.382-6.271-.568-7.965-.341-1.471.187-5.18 1.361-8.181 2.586-1.776.722-4.763 2.162-6.361 3.065-2.037 1.156-5.289 3.628-5.9 4.504-.386.54-.348 1.006.092 1.05h-.001zm21.883-39.049c.345-.068 1.483-.282 2.534-.474 1.051-.19 3.324-.62 5.063-.965 1.725-.346 3.711-.698 4.397-.77 1.974-.223 5.429-.42 8.115-.449 6.231-.08 8.173.08 12.439.979 1.232.26 6.424 1.8 8.926 2.65 2.628.886 2.954.964 3.168.737.288-.304-.056-.654-1.08-1.118-3.067-1.391-8.464-3.089-11.958-3.763-3.48-.672-5.795-.837-11.033-.791-4.743.04-6.949.2-10.61.758-.722.115-1.749.263-2.27.335-1.282.172-4.448.978-5.603 1.422-.996.382-2.496 1.094-2.725 1.288-.269.228.002.296.638.161h-.001z" fill="#443D5E"/>
  <circle opacity=".8" cx="256" cy="29" r="28" fill="#DD6F6F"/>
  <path d="M253.58 11c-1.876-.003-2.86 1.522-2.717 3.171.08 1.19.935 2.11 1.852 3.134.917 1.023 1.975 2.05 2.656 2.828.292.332.878.332 1.17 0 .662-.755 1.737-1.74 2.657-2.755.919-1.014 1.798-2.008 1.803-3.268.109-1.678-.79-3.108-2.778-3.097-.885.012-1.619.438-2.328.795-.823-.474-1.456-.823-2.315-.807zm-.012 1.568c.686.005 1.076.452 1.998.844.181.076.389.08.573.012.704-.315 1.447-.841 2.072-.844.903.064 1.211.808 1.23 1.53-.025.375-.869 1.621-1.401 2.216-.662.73-1.398 1.462-2.072 2.166-.676-.723-1.419-1.473-2.096-2.227-.848-.948-1.418-1.935-1.45-2.18-.137-.886.376-1.51 1.146-1.518zm3.899 8.263c-.261.767-.484 1.577-.719 2.363l-2.803-3.159c-.907-.805-2.365-.572-3.204.098-.925.77-1.553 2.076-.865 3.146 1.609 2.256 3.257 4.517 4.886 6.77-.77.012-1.489.4-1.962.93-.557.623-.776 1.542-.536 2.46-1.167-.062-2.059.48-2.645 1.115-.567.642-.791 1.505-.548 2.546-.945-.12-1.776.196-2.315.77-.822.998-1.031 2.467-.341 3.392 1.6 1.693 3.201 3.389 4.801 5.08 1.425 1.436 3.465 1.66 5.386 1.2 1.921-.462 3.816-1.57 5.337-2.963 1.386-1.279 3.057-2.953 3.9-5.092.842-2.14.736-4.78-1.304-7.48-1.183-1.352-2.388-2.703-3.583-4.051.504-1.744 1.031-3.497 1.462-4.995.337-1.48-.327-2.632-1.571-3.268-1.323-.534-2.85-.074-3.376 1.138zm2.803.257c.59.32.844.851.658 1.395-.404 1.36-.805 2.727-1.207 4.089l-1.767-2.008.914-3.048c.16-.45.81-.62 1.402-.428zm-7.336.159l10.358 11.715c1.779 2.354 1.777 4.21 1.097 5.937-.68 1.727-2.16 3.283-3.497 4.517-1.343 1.23-3.068 2.227-4.655 2.608-1.581.379-2.933.193-3.9-.772l-4.606-4.872c-.448-.477-.054-1.206.159-1.432.358-.39 1.12-.628 1.547-.355l2.717 2.73c.289.298.823.3 1.114.004.291-.295.283-.832-.017-1.118l-2.608-2.62c-.506-.51-.258-1.61.147-1.995.398-.48 1.41-.858 1.8-.427l2.647 2.985a.81.81 0 001.103.067c.306-.272.338-.8.067-1.107l-2.547-2.89c-.359-.676-.496-1.49.097-2.19.394-.415 1.124-.486 1.718-.098l3.071 3.476a.81.81 0 001.103.055c.303-.276.329-.803.055-1.108-3.396-4.035-5.851-7.71-8.64-11.825-.204-.44-.054-.894.317-1.2.445-.314.918-.394 1.353-.085z" fill="#fff"/>
</svg>
