<svg xmlns="http://www.w3.org/2000/svg" fill="none" viewBox="0 0 525 183">
  <path d="M57.355 47.069c2.673.14 5.294.808 7.712 1.965a20.426 20.426 0 016.378 4.778 20.53 20.53 0 013.274 22.502 20.426 20.426 0 01-4.753 6.398 20.308 20.308 0 01-14.703 5.227l.037-.729a19.597 19.597 0 0014.18-5.04 19.74 19.74 0 006.463-13.632A19.798 19.798 0 0070.906 54.3a19.655 19.655 0 00-13.589-6.502l.038-.73zm191.007 0c2.674.14 5.295.808 7.712 1.965a20.418 20.418 0 016.379 4.778 20.532 20.532 0 013.274 22.502 20.421 20.421 0 01-4.753 6.398 20.307 20.307 0 01-14.703 5.227l.037-.729a19.597 19.597 0 0014.179-5.04 19.743 19.743 0 006.464-13.632 19.8 19.8 0 00-5.038-14.238 19.655 19.655 0 00-13.588-6.502l.037-.73zm190.106 0c2.674.14 5.294.808 7.712 1.965a20.43 20.43 0 016.379 4.778 20.532 20.532 0 013.274 22.502 20.452 20.452 0 01-4.753 6.398 20.312 20.312 0 01-14.704 5.227l.038-.729a19.594 19.594 0 0014.178-5.04 19.734 19.734 0 006.464-13.632 19.794 19.794 0 00-5.037-14.238 19.655 19.655 0 00-13.588-6.502l.037-.73z" fill="#3F3D56"/>
  <path d="M122.039 163.919h-19.8a2.79 2.79 0 01-1.221-.277 2.795 2.795 0 01-.979-.78 2.732 2.732 0 01-.537-2.325 53.548 53.548 0 00-.31-25.02 2.761 2.761 0 011.281-3.065c7.173-4.162 14.832-4.035 22.764.379a2.796 2.796 0 011.428 2.007 87.604 87.604 0 01.151 26.678 2.786 2.786 0 01-.936 1.721 2.801 2.801 0 01-1.841.682z" fill="#2E8C8D"/>
  <path d="M112.789 144.771h-6.811a1.415 1.415 0 110-2.832h6.811a1.421 1.421 0 011.417 1.416c0 .375-.149.735-.415 1a1.425 1.425 0 01-1.002.416zm8.327 5.595h-15.139c-.377 0-.738-.15-1.004-.415a1.412 1.412 0 010-2.003 1.422 1.422 0 011.004-.414h15.139a1.42 1.42 0 011.417 1.416c0 .375-.149.734-.415 1a1.425 1.425 0 01-1.002.416z" fill="#fff"/>
  <path d="M84.106 139.602H20.814a6.414 6.414 0 01-4.522-1.87 6.377 6.377 0 01-1.876-4.509V94.356a6.377 6.377 0 011.876-4.508 6.415 6.415 0 014.522-1.87h63.292a6.415 6.415 0 014.522 1.87 6.377 6.377 0 011.876 4.508v38.867a6.377 6.377 0 01-1.876 4.509 6.414 6.414 0 01-4.522 1.87z" fill="#251A3F"/>
  <path d="M58.96 134.596H25.264a6.009 6.009 0 01-4.235-1.752 5.97 5.97 0 01-1.758-4.222V98.958a5.971 5.971 0 011.758-4.222 6.007 6.007 0 014.235-1.752h54.394a6.007 6.007 0 014.235 1.752 5.972 5.972 0 011.757 4.222v9.027a26.6 26.6 0 01-7.827 18.808 26.76 26.76 0 01-18.863 7.803z" fill="#fff"/>
  <path d="M74.231 109.227H30.69a1.415 1.415 0 110-2.831h43.54a1.415 1.415 0 110 2.831zM37.5 114.822h-6.811a1.414 1.414 0 110-2.832h6.81a1.421 1.421 0 011.418 1.416 1.414 1.414 0 01-1.417 1.416zm12.063 5.595H30.689a1.421 1.421 0 01-1.418-1.416 1.421 1.421 0 011.417-1.416h18.875a1.42 1.42 0 011.42 1.416 1.42 1.42 0 01-1.42 1.416z" fill="#2E8C8D"/>
  <path d="M309.932 149.497h-19.8a2.808 2.808 0 01-2.737-2.158 2.734 2.734 0 01-.001-1.224 53.532 53.532 0 00-.309-25.02 2.763 2.763 0 011.281-3.065c7.172-4.163 14.831-4.036 22.764.378a2.79 2.79 0 011.427 2.008 87.636 87.636 0 01.152 26.678 2.79 2.79 0 01-2.777 2.403z" fill="#DD6F6F"/>
  <path d="M300.681 130.348h-6.811a1.42 1.42 0 01-1.417-1.415 1.415 1.415 0 011.417-1.416h6.811a1.42 1.42 0 011.418 1.416 1.417 1.417 0 01-1.418 1.415zm8.327 5.595h-15.139a1.42 1.42 0 01-1.42-1.416 1.416 1.416 0 011.42-1.416h15.139a1.417 1.417 0 011.418 1.416 1.416 1.416 0 01-1.418 1.416z" fill="#fff"/>
  <path d="M502.932 120.497h-19.8a2.808 2.808 0 01-2.737-2.158 2.734 2.734 0 01-.001-1.224 53.534 53.534 0 00-.309-25.02 2.764 2.764 0 011.281-3.065c7.172-4.163 14.831-4.036 22.764.378a2.81 2.81 0 011.427 2.008 87.636 87.636 0 01.152 26.678 2.79 2.79 0 01-2.777 2.403z" fill="#F7B129"/>
  <path d="M493.681 101.348h-6.811a1.42 1.42 0 01-1.417-1.415 1.422 1.422 0 011.417-1.416h6.811a1.417 1.417 0 011.003 2.416 1.423 1.423 0 01-1.003.415zm8.327 5.595h-15.139a1.42 1.42 0 01-1.42-1.416 1.416 1.416 0 011.42-1.416h15.139a1.417 1.417 0 011.418 1.416 1.416 1.416 0 01-1.418 1.416z" fill="#fff"/>
  <path d="M275.112 139.602H211.82a6.412 6.412 0 01-4.522-1.87 6.375 6.375 0 01-1.876-4.509V94.356a6.375 6.375 0 011.876-4.508 6.413 6.413 0 014.522-1.87h63.292a6.416 6.416 0 014.522 1.87 6.379 6.379 0 011.876 4.508v38.867a6.379 6.379 0 01-1.876 4.509 6.416 6.416 0 01-4.522 1.87z" fill="#251A3F"/>
  <path d="M249.966 134.596h-33.697a6.011 6.011 0 01-4.235-1.752 5.973 5.973 0 01-1.757-4.222V98.958a5.974 5.974 0 011.757-4.222 6.01 6.01 0 014.235-1.752h54.395a6.01 6.01 0 014.235 1.752 5.974 5.974 0 011.757 4.222v9.027a26.6 26.6 0 01-7.827 18.808 26.757 26.757 0 01-18.863 7.803z" fill="#fff"/>
  <path d="M265.237 109.227h-43.542a1.417 1.417 0 01-1.004-2.417 1.426 1.426 0 011.004-.414h43.542c.377 0 .738.149 1.004.414a1.412 1.412 0 010 2.003 1.422 1.422 0 01-1.004.414zm-36.731 5.595h-6.812a1.417 1.417 0 01-1.417-1.416 1.416 1.416 0 011.417-1.416h6.812a1.421 1.421 0 011.417 1.416c0 .375-.149.734-.415 1a1.425 1.425 0 01-1.002.416zm12.063 5.595h-18.875a1.421 1.421 0 01-1.417-1.416 1.416 1.416 0 011.417-1.416h18.875a1.42 1.42 0 011.42 1.416 1.415 1.415 0 01-1.42 1.416z" fill="#2E8C8D"/>
  <path d="M465.217 139.602h-63.292a6.416 6.416 0 01-4.522-1.87 6.379 6.379 0 01-1.876-4.509V94.356a6.379 6.379 0 011.876-4.508 6.417 6.417 0 014.522-1.87h63.292a6.413 6.413 0 014.522 1.87 6.375 6.375 0 011.876 4.508v38.867a6.375 6.375 0 01-1.876 4.509 6.412 6.412 0 01-4.522 1.87z" fill="#251A3F"/>
  <path d="M440.071 134.596h-33.696a6.008 6.008 0 01-4.235-1.752 5.973 5.973 0 01-1.757-4.222V98.958a5.974 5.974 0 011.757-4.222 6.006 6.006 0 014.235-1.752h54.394a6.006 6.006 0 014.235 1.752 5.974 5.974 0 011.757 4.222v9.027a26.603 26.603 0 01-7.826 18.808 26.761 26.761 0 01-18.864 7.803z" fill="#fff"/>
  <path d="M455.343 109.227h-43.542a1.413 1.413 0 01-1.004-2.417 1.422 1.422 0 011.004-.414h43.542a1.416 1.416 0 011.004 2.417 1.424 1.424 0 01-1.004.414zm-36.732 5.595H411.8a1.424 1.424 0 01-1.002-.416 1.413 1.413 0 011.002-2.416h6.811a1.42 1.42 0 011.417 1.416c0 .375-.149.734-.415 1a1.424 1.424 0 01-1.002.416zm12.063 5.595H411.8a1.42 1.42 0 01-1.417-1.416 1.42 1.42 0 011.417-1.416h18.874c.377 0 .738.149 1.005.415a1.412 1.412 0 010 2.002 1.423 1.423 0 01-1.005.415z" fill="#2E8C8D"/>
  <path d="M501.256 177.443h-63.292a6.416 6.416 0 01-4.522-1.87 6.38 6.38 0 01-1.876-4.509v-38.867a6.378 6.378 0 011.876-4.508 6.417 6.417 0 014.522-1.871h63.292a6.413 6.413 0 014.522 1.871 6.374 6.374 0 011.876 4.508v38.867a6.376 6.376 0 01-1.876 4.509 6.412 6.412 0 01-4.522 1.87z" fill="#251A3F"/>
  <path d="M476.11 172.436h-33.696a6.002 6.002 0 01-4.235-1.751 5.975 5.975 0 01-1.757-4.223v-29.664a5.973 5.973 0 011.757-4.222 6.008 6.008 0 014.235-1.752h54.394a6.008 6.008 0 014.235 1.752 5.969 5.969 0 011.757 4.222v9.028a26.6 26.6 0 01-7.826 18.808 26.76 26.76 0 01-18.864 7.802z" fill="#fff"/>
  <path d="M491.382 147.068H447.84a1.419 1.419 0 01-1.42-1.416 1.416 1.416 0 011.42-1.416h43.542a1.419 1.419 0 011.42 1.416 1.419 1.419 0 01-1.42 1.416zm-36.732 5.594h-6.811a1.419 1.419 0 01-1.417-1.416 1.413 1.413 0 011.417-1.415h6.811a1.419 1.419 0 011.417 1.415 1.414 1.414 0 01-1.417 1.416zm12.063 5.595h-18.874a1.42 1.42 0 01-1.417-1.416c0-.375.149-.735.415-1a1.424 1.424 0 011.002-.416h18.874a1.416 1.416 0 011.005 2.417 1.423 1.423 0 01-1.005.415z" fill="#2E8C8D"/>
  <path d="M69.69 182.849H6.398a6.415 6.415 0 01-4.522-1.871A6.374 6.374 0 010 176.47v-38.867a6.374 6.374 0 011.876-4.508 6.415 6.415 0 014.522-1.871H69.69a6.415 6.415 0 014.522 1.871 6.374 6.374 0 011.876 4.508v38.867a6.374 6.374 0 01-1.876 4.508 6.415 6.415 0 01-4.522 1.871z" fill="#251A3F"/>
  <path d="M44.544 177.843H10.848a6.009 6.009 0 01-4.235-1.752 5.971 5.971 0 01-1.758-4.222v-29.664a5.973 5.973 0 011.758-4.223 6.009 6.009 0 014.235-1.752h54.394a6.009 6.009 0 014.235 1.752 5.973 5.973 0 011.757 4.223v9.027a26.602 26.602 0 01-7.826 18.808 26.76 26.76 0 01-18.864 7.803z" fill="#fff"/>
  <path d="M59.816 152.474H16.273a1.42 1.42 0 01-1.42-1.416 1.42 1.42 0 011.42-1.416h43.541a1.42 1.42 0 011.42 1.416 1.42 1.42 0 01-1.42 1.416zm-36.732 5.594h-6.811a1.42 1.42 0 01-1.418-1.416 1.414 1.414 0 011.418-1.416h6.81a1.415 1.415 0 110 2.832zm12.063 5.595H16.273a1.42 1.42 0 01-1.418-1.416 1.414 1.414 0 011.418-1.415h18.874a1.415 1.415 0 110 2.831z" fill="#2E8C8D"/>
  <path d="M28.12 7.113c1.1 0 2.066.215 2.896.645a4.538 4.538 0 011.935 1.845c.46.79.69 1.71.69 2.76 0 1.05-.23 1.97-.69 2.76-.45.78-1.095 1.385-1.935 1.815-.83.43-1.795.645-2.895.645h-3.66V7.113h3.66zm-.074 8.685c1.1 0 1.95-.3 2.55-.9.6-.6.9-1.445.9-2.535s-.3-1.94-.9-2.55c-.6-.62-1.45-.93-2.55-.93H26.56v6.915h1.485zm15.383-2.55c0 .3-.02.57-.06.81h-6.075c.05.6.26 1.07.63 1.41.37.34.825.51 1.365.51.78 0 1.335-.335 1.666-1.005h2.264c-.24.8-.7 1.46-1.38 1.98-.68.51-1.514.765-2.505.765-.8 0-1.52-.175-2.16-.525a3.864 3.864 0 01-1.484-1.515c-.35-.65-.526-1.4-.526-2.25 0-.86.175-1.615.526-2.265.35-.65.84-1.15 1.47-1.5.63-.35 1.355-.525 2.175-.525.79 0 1.495.17 2.114.51a3.52 3.52 0 011.456 1.455c.35.62.524 1.335.524 2.145zm-2.175-.6c-.01-.54-.204-.97-.584-1.29-.38-.33-.846-.495-1.395-.495-.52 0-.96.16-1.32.48-.35.31-.566.745-.645 1.305h3.944zm3.66.78c0-.86.175-1.61.525-2.25a3.69 3.69 0 011.455-1.5c.62-.36 1.33-.54 2.13-.54 1.03 0 1.88.26 2.55.78.68.51 1.135 1.23 1.365 2.16h-2.265c-.12-.36-.325-.64-.615-.84-.28-.21-.63-.315-1.05-.315-.6 0-1.075.22-1.425.66-.35.43-.525 1.045-.525 1.845 0 .79.175 1.405.525 1.845.35.43.825.645 1.425.645.85 0 1.405-.38 1.665-1.14h2.265c-.23.9-.685 1.615-1.365 2.145-.68.53-1.53.795-2.55.795-.8 0-1.51-.175-2.13-.525a3.817 3.817 0 01-1.455-1.5c-.35-.65-.525-1.405-.525-2.265zm11.12-5.145c-.37 0-.68-.115-.93-.345-.24-.24-.36-.535-.36-.885s.12-.64.36-.87c.25-.24.56-.36.93-.36s.675.12.915.36c.25.23.375.52.375.87s-.125.645-.375.885c-.24.23-.545.345-.915.345zm1.035.99v8.31h-2.1v-8.31h2.1zm5.747 8.445c-.68 0-1.29-.12-1.83-.36-.54-.25-.97-.585-1.29-1.005-.31-.42-.48-.885-.51-1.395H61.3c.04.32.195.585.465.795.28.21.625.315 1.035.315.4 0 .71-.08.93-.24.23-.16.345-.365.345-.615 0-.27-.14-.47-.42-.6-.27-.14-.705-.29-1.305-.45-.62-.15-1.13-.305-1.53-.465a2.72 2.72 0 01-1.02-.735c-.28-.33-.42-.775-.42-1.335 0-.46.13-.88.39-1.26.27-.38.65-.68 1.14-.9.5-.22 1.085-.33 1.755-.33.99 0 1.78.25 2.37.75.59.49.915 1.155.975 1.995H64c-.03-.33-.17-.59-.42-.78-.24-.2-.565-.3-.975-.3-.38 0-.675.07-.885.21-.2.14-.3.335-.3.585 0 .28.14.495.42.645.28.14.715.285 1.305.435.6.15 1.095.305 1.485.465.39.16.725.41 1.005.75.29.33.44.77.45 1.32 0 .48-.135.91-.405 1.29-.26.38-.64.68-1.14.9-.49.21-1.065.315-1.725.315zm6.55-9.435c-.37 0-.68-.115-.93-.345-.24-.24-.36-.535-.36-.885s.12-.64.36-.87c.25-.24.56-.36.93-.36s.675.12.915.36c.25.23.375.52.375.87s-.125.645-.375.885c-.24.23-.544.345-.915.345zm1.035.99v8.31h-2.1v-8.31h2.1zm6.257 8.445c-.8 0-1.52-.175-2.16-.525a3.938 3.938 0 01-1.515-1.515c-.36-.65-.54-1.4-.54-2.25 0-.85.185-1.6.555-2.25.38-.65.895-1.15 1.545-1.5.65-.36 1.375-.54 2.175-.54.8 0 1.525.18 2.175.54.65.35 1.16.85 1.53 1.5.38.65.57 1.4.57 2.25 0 .85-.195 1.6-.585 2.25-.38.65-.9 1.155-1.56 1.515-.65.35-1.38.525-2.19.525zm0-1.83c.38 0 .735-.09 1.065-.27.34-.19.61-.47.81-.84.2-.37.3-.82.3-1.35 0-.79-.21-1.395-.63-1.815a2.01 2.01 0 00-1.515-.645c-.6 0-1.105.215-1.515.645-.4.42-.6 1.025-.6 1.815s.195 1.4.585 1.83c.4.42.9.63 1.5.63zM87.63 9.153c.99 0 1.79.315 2.4.945.61.62.915 1.49.915 2.61v4.875h-2.1v-4.59c0-.66-.165-1.165-.495-1.515-.33-.36-.78-.54-1.35-.54-.58 0-1.04.18-1.38.54-.33.35-.495.855-.495 1.515v4.59h-2.1v-8.31h2.1v1.035c.28-.36.635-.64 1.065-.84a3.3 3.3 0 011.44-.315zm128.794-2.04c1.1 0 2.065.215 2.895.645a4.538 4.538 0 011.935 1.845c.46.79.69 1.71.69 2.76 0 1.05-.23 1.97-.69 2.76-.45.78-1.095 1.385-1.935 1.815-.83.43-1.795.645-2.895.645h-3.66V7.113h3.66zm-.075 8.685c1.1 0 1.95-.3 2.55-.9.6-.6.9-1.445.9-2.535s-.3-1.94-.9-2.55c-.6-.62-1.45-.93-2.55-.93h-1.485v6.915h1.485zm15.383-2.55c0 .3-.02.57-.06.81h-6.075c.05.6.26 1.07.63 1.41.37.34.825.51 1.365.51.78 0 1.335-.335 1.665-1.005h2.265c-.24.8-.7 1.46-1.38 1.98-.68.51-1.515.765-2.505.765-.8 0-1.52-.175-2.16-.525a3.864 3.864 0 01-1.485-1.515c-.35-.65-.525-1.4-.525-2.25 0-.86.175-1.615.525-2.265.35-.65.84-1.15 1.47-1.5.63-.35 1.355-.525 2.175-.525.79 0 1.495.17 2.115.51.63.34 1.115.825 1.455 1.455.35.62.525 1.335.525 2.145zm-2.175-.6c-.01-.54-.205-.97-.585-1.29-.38-.33-.845-.495-1.395-.495-.52 0-.96.16-1.32.48-.35.31-.565.745-.645 1.305h3.945zm3.66.78c0-.86.175-1.61.525-2.25a3.69 3.69 0 011.455-1.5c.62-.36 1.33-.54 2.13-.54 1.03 0 1.88.26 2.55.78.68.51 1.135 1.23 1.365 2.16h-2.265c-.12-.36-.325-.64-.615-.84-.28-.21-.63-.315-1.05-.315-.6 0-1.075.22-1.425.66-.35.43-.525 1.045-.525 1.845 0 .79.175 1.405.525 1.845.35.43.825.645 1.425.645.85 0 1.405-.38 1.665-1.14h2.265c-.23.9-.685 1.615-1.365 2.145-.68.53-1.53.795-2.55.795-.8 0-1.51-.175-2.13-.525a3.817 3.817 0 01-1.455-1.5c-.35-.65-.525-1.405-.525-2.265zm11.12-5.145c-.37 0-.68-.115-.93-.345-.24-.24-.36-.535-.36-.885s.12-.64.36-.87c.25-.24.56-.36.93-.36s.675.12.915.36c.25.23.375.52.375.87s-.125.645-.375.885c-.24.23-.545.345-.915.345zm1.035.99v8.31h-2.1v-8.31h2.1zm5.747 8.445c-.68 0-1.29-.12-1.83-.36-.54-.25-.97-.585-1.29-1.005-.31-.42-.48-.885-.51-1.395h2.115c.04.32.195.585.465.795.28.21.625.315 1.035.315.4 0 .71-.08.93-.24.23-.16.345-.365.345-.615 0-.27-.14-.47-.42-.6-.27-.14-.705-.29-1.305-.45-.62-.15-1.13-.305-1.53-.465a2.72 2.72 0 01-1.02-.735c-.28-.33-.42-.775-.42-1.335 0-.46.13-.88.39-1.26.27-.38.65-.68 1.14-.9.5-.22 1.085-.33 1.755-.33.99 0 1.78.25 2.37.75.59.49.915 1.155.975 1.995h-2.01c-.03-.33-.17-.59-.42-.78-.24-.2-.565-.3-.975-.3-.38 0-.675.07-.885.21-.2.14-.3.335-.3.585 0 .28.14.495.42.645.28.14.715.285 1.305.435.6.15 1.095.305 1.485.465.39.16.725.41 1.005.75.29.33.44.77.45 1.32 0 .48-.135.91-.405 1.29-.26.38-.64.68-1.14.9-.49.21-1.065.315-1.725.315zm6.55-9.435c-.37 0-.68-.115-.93-.345-.24-.24-.36-.535-.36-.885s.12-.64.36-.87c.25-.24.56-.36.93-.36s.675.12.915.36c.25.23.375.52.375.87s-.125.645-.375.885c-.24.23-.545.345-.915.345zm1.035.99v8.31h-2.1v-8.31h2.1zm6.257 8.445c-.8 0-1.52-.175-2.16-.525a3.938 3.938 0 01-1.515-1.515c-.36-.65-.54-1.4-.54-2.25 0-.85.185-1.6.555-2.25.38-.65.895-1.15 1.545-1.5.65-.36 1.375-.54 2.175-.54.8 0 1.525.18 2.175.54.65.35 1.16.85 1.53 1.5.38.65.57 1.4.57 2.25 0 .85-.195 1.6-.585 2.25-.38.65-.9 1.155-1.56 1.515-.65.35-1.38.525-2.19.525zm0-1.83c.38 0 .735-.09 1.065-.27.34-.19.61-.47.81-.84.2-.37.3-.82.3-1.35 0-.79-.21-1.395-.63-1.815a2.01 2.01 0 00-1.515-.645c-.6 0-1.105.215-1.515.645-.4.42-.6 1.025-.6 1.815s.195 1.4.585 1.83c.4.42.9.63 1.5.63zm10.972-6.735c.99 0 1.79.315 2.4.945.61.62.915 1.49.915 2.61v4.875h-2.1v-4.59c0-.66-.165-1.165-.495-1.515-.33-.36-.78-.54-1.35-.54-.58 0-1.04.18-1.38.54-.33.35-.495.855-.495 1.515v4.59h-2.1v-8.31h2.1v1.035c.28-.36.635-.64 1.065-.84a3.3 3.3 0 011.44-.315zm121.588-2.04c1.1 0 2.065.215 2.895.645a4.538 4.538 0 011.935 1.845c.46.79.69 1.71.69 2.76 0 1.05-.23 1.97-.69 2.76-.45.78-1.095 1.385-1.935 1.815-.83.43-1.795.645-2.895.645h-3.66V7.113h3.66zm-.075 8.685c1.1 0 1.95-.3 2.55-.9.6-.6.9-1.445.9-2.535s-.3-1.94-.9-2.55c-.6-.62-1.45-.93-2.55-.93h-1.485v6.915h1.485zm15.384-2.55c0 .3-.02.57-.06.81h-6.075c.05.6.26 1.07.63 1.41.37.34.825.51 1.365.51.78 0 1.335-.335 1.665-1.005h2.265c-.24.8-.7 1.46-1.38 1.98-.68.51-1.515.765-2.505.765-.8 0-1.52-.175-2.16-.525a3.864 3.864 0 01-1.485-1.515c-.35-.65-.525-1.4-.525-2.25 0-.86.175-1.615.525-2.265.35-.65.84-1.15 1.47-1.5.63-.35 1.355-.525 2.175-.525.79 0 1.495.17 2.115.51.63.34 1.115.825 1.455 1.455.35.62.525 1.335.525 2.145zm-2.175-.6c-.01-.54-.205-.97-.585-1.29-.38-.33-.845-.495-1.395-.495-.52 0-.96.16-1.32.48-.35.31-.565.745-.645 1.305h3.945zm3.66.78c0-.86.175-1.61.525-2.25a3.69 3.69 0 011.455-1.5c.62-.36 1.33-.54 2.13-.54 1.03 0 1.88.26 2.55.78.68.51 1.135 1.23 1.365 2.16h-2.265c-.12-.36-.325-.64-.615-.84-.28-.21-.63-.315-1.05-.315-.6 0-1.075.22-1.425.66-.35.43-.525 1.045-.525 1.845 0 .79.175 1.405.525 1.845.35.43.825.645 1.425.645.85 0 1.405-.38 1.665-1.14h2.265c-.23.9-.685 1.615-1.365 2.145-.68.53-1.53.795-2.55.795-.8 0-1.51-.175-2.13-.525a3.817 3.817 0 01-1.455-1.5c-.35-.65-.525-1.405-.525-2.265zm11.12-5.145c-.37 0-.68-.115-.93-.345-.24-.24-.36-.535-.36-.885s.12-.64.36-.87c.25-.24.56-.36.93-.36s.675.12.915.36c.25.23.375.52.375.87s-.125.645-.375.885c-.24.23-.545.345-.915.345zm1.035.99v8.31h-2.1v-8.31h2.1zm5.746 8.445c-.68 0-1.29-.12-1.83-.36-.54-.25-.97-.585-1.29-1.005-.31-.42-.48-.885-.51-1.395h2.115c.04.32.195.585.465.795.28.21.625.315 1.035.315.4 0 .71-.08.93-.24.23-.16.345-.365.345-.615 0-.27-.14-.47-.42-.6-.27-.14-.705-.29-1.305-.45-.62-.15-1.13-.305-1.53-.465a2.72 2.72 0 01-1.02-.735c-.28-.33-.42-.775-.42-1.335 0-.46.13-.88.39-1.26.27-.38.65-.68 1.14-.9.5-.22 1.085-.33 1.755-.33.99 0 1.78.25 2.37.75.59.49.915 1.155.975 1.995h-2.01c-.03-.33-.17-.59-.42-.78-.24-.2-.565-.3-.975-.3-.38 0-.675.07-.885.21-.2.14-.3.335-.3.585 0 .28.14.495.42.645.28.14.715.285 1.305.435.6.15 1.095.305 1.485.465.39.16.725.41 1.005.75.29.33.44.77.45 1.32 0 .48-.135.91-.405 1.29-.26.38-.64.68-1.14.9-.49.21-1.065.315-1.725.315zm6.551-9.435c-.37 0-.68-.115-.93-.345-.24-.24-.36-.535-.36-.885s.12-.64.36-.87c.25-.24.56-.36.93-.36s.675.12.915.36c.25.23.375.52.375.87s-.125.645-.375.885c-.24.23-.545.345-.915.345zm1.035.99v8.31h-2.1v-8.31h2.1zm6.257 8.445c-.8 0-1.52-.175-2.16-.525a3.938 3.938 0 01-1.515-1.515c-.36-.65-.54-1.4-.54-2.25 0-.85.185-1.6.555-2.25.38-.65.895-1.15 1.545-1.5.65-.36 1.375-.54 2.175-.54.8 0 1.525.18 2.175.54.65.35 1.16.85 1.53 1.5.38.65.57 1.4.57 2.25 0 .85-.195 1.6-.585 2.25-.38.65-.9 1.155-1.56 1.515-.65.35-1.38.525-2.19.525zm0-1.83c.38 0 .735-.09 1.065-.27.34-.19.61-.47.81-.84.2-.37.3-.82.3-1.35 0-.79-.21-1.395-.63-1.815a2.01 2.01 0 00-1.515-.645c-.6 0-1.105.215-1.515.645-.4.42-.6 1.025-.6 1.815s.195 1.4.585 1.83c.4.42.9.63 1.5.63zm10.972-6.735c.99 0 1.79.315 2.4.945.61.62.915 1.49.915 2.61v4.875h-2.1v-4.59c0-.66-.165-1.165-.495-1.515-.33-.36-.78-.54-1.35-.54-.58 0-1.04.18-1.38.54-.33.35-.495.855-.495 1.515v4.59h-2.1v-8.31h2.1v1.035c.28-.36.635-.64 1.065-.84a3.3 3.3 0 011.44-.315z" fill="#000"/>
  <path d="M524.707 45.707a1 1 0 000-1.414l-6.364-6.364a1 1 0 10-1.414 1.414L522.586 45l-5.657 5.657a1 1 0 101.414 1.414l6.364-6.364zM55 46h1.987v-2H55v2zm5.962 0h3.974v-2h-3.974v2zm7.949 0h3.975v-2H68.91v2zm7.95 0h3.974v-2H76.86v2zm7.948 0h3.975v-2h-3.975v2zm7.95 0h3.974v-2h-3.975v2zm7.949 0h3.974v-2h-3.974v2zm7.949 0h3.974v-2h-3.974v2zm7.949 0h3.975v-2h-3.975v2zm7.949 0h3.975v-2h-3.975v2zm7.949 0h3.975v-2h-3.975v2zm7.949 0h3.975v-2h-3.975v2zm7.95 0h3.974v-2h-3.974v2zm7.949 0h3.974v-2h-3.974v2zm7.949 0h3.974v-2h-3.974v2zm7.949 0h3.975v-2h-3.975v2zm7.949 0h3.975v-2h-3.975v2zm7.949 0h3.975v-2h-3.975v2zm7.95 0h3.974v-2h-3.974v2zm7.949 0h3.974v-2h-3.974v2zm7.949 0h3.974v-2h-3.974v2zm7.949 0h3.975v-2h-3.975v2zm7.949 0h3.975v-2h-3.975v2zm7.949 0h3.975v-2h-3.975v2zm7.949 0h3.975v-2h-3.975v2zm7.95 0h3.974v-2h-3.974v2zm7.949 0h3.974v-2h-3.974v2zm7.949 0h3.975v-2h-3.975v2zm7.949 0h3.975v-2h-3.975v2zm7.949 0h3.975v-2h-3.975v2zm7.949 0h3.975v-2h-3.975v2zm7.95 0h3.974v-2h-3.974v2zm7.949 0h3.974v-2h-3.974v2zm7.949 0h3.974v-2h-3.974v2zm7.949 0h3.975v-2h-3.975v2zm7.949 0h3.975v-2h-3.975v2zm7.949 0h3.975v-2h-3.975v2zm7.949 0h3.975v-2h-3.975v2zm7.95 0h3.974v-2h-3.974v2zm7.949 0h3.974v-2h-3.974v2zm7.949 0h3.975v-2h-3.975v2zm7.949 0h3.975v-2h-3.975v2zm7.949 0h3.975v-2h-3.975v2zm7.949 0h3.975v-2h-3.975v2zm7.95 0h3.974v-2h-3.974v2zm7.949 0h3.974v-2h-3.974v2zm7.949 0h3.975v-2h-3.975v2zm7.949 0h3.975v-2h-3.975v2zm7.949 0h3.975v-2h-3.975v2zm7.949 0h3.975v-2h-3.975v2zm7.95 0h3.974v-2h-3.974v2zm7.949 0h3.974v-2h-3.974v2zm7.949 0h3.974v-2h-3.974v2zm7.949 0h3.975v-2h-3.975v2zm7.949 0h3.975v-2h-3.975v2zm7.949 0h3.975v-2h-3.975v2zm7.95 0h3.974v-2h-3.974v2zm7.949 0h3.974v-2h-3.974v2zm7.949 0h3.974v-2h-3.974v2zm7.949 0H524v-2h-1.987v2z" fill="#2E8C8D"/>
  <path d="M68.552 52.143c3.904-6.261 1.978-14.492-4.302-18.385-6.28-3.892-14.536-1.971-18.44 4.29-3.903 6.262-1.977 14.493 4.303 18.385 6.28 3.892 14.536 1.972 18.44-4.29zm184.7 0c3.903-6.261 1.977-14.492-4.303-18.385-6.28-3.892-14.535-1.971-18.439 4.29-3.904 6.262-1.978 14.493 4.302 18.385 6.28 3.892 14.536 1.972 18.44-4.29zm184.701 0c3.904-6.261 1.977-14.492-4.303-18.385-6.28-3.892-14.535-1.971-18.439 4.29-3.904 6.262-1.977 14.493 4.303 18.385 6.28 3.892 14.535 1.972 18.439-4.29z" fill="#3F3D56"/>
  <path d="M155.463 48.834a7.069 7.069 0 00-2.282-9.752c-3.331-2.064-7.711-1.046-9.781 2.276a7.069 7.069 0 002.282 9.752c3.331 2.064 7.71 1.046 9.781-2.276zm184.701 0a7.069 7.069 0 00-2.282-9.752c-3.331-2.065-7.71-1.046-9.781 2.275a7.069 7.069 0 002.282 9.752c3.331 2.065 7.71 1.046 9.781-2.275z" fill="#2E8C8D"/>
</svg>
