<svg xmlns="http://www.w3.org/2000/svg" fill="none" viewBox="0 0 108 76">
  <path d="M77.927 75.083c-.104.109-.21.216-.32.323h-12.38a11.791 11.791 0 01-.303-.323l-.012-.013c-1.345-1.489-2.192-3.652-2.72-5.934a28.009 28.009 0 01-.483-2.684 38.312 38.312 0 01-.263-2.684l-.02-.324c-.1-1.698-.101-3.4-.003-5.097l.047.001c.091.004.31.014.631.033.886.054 2.559.19 4.525.51.108.017.216.036.325.055a34.25 34.25 0 014.909 1.188l.3.101.001.007 1.231 6.17.51-5.492a16.456 16.456 0 011.49.763 9.786 9.786 0 012.331 1.836c4.038 4.47 3.173 8.464.204 11.564z" fill="#2E8C8D"/>
  <path d="M72.752 67.26l.215.238c2.48 2.773 3.961 5.347 4.417 7.689.007.034.012.068.02.102l-.16.03-.152.027c-.466-2.553-2.199-5.192-4.362-7.611a10.692 10.692 0 00-.212-.236 43.217 43.217 0 00-3.16-3.117A63.458 63.458 0 0065.233 61a63.322 63.322 0 00-3.959-2.777l-.071-.046.083-.133v-.002l.084-.134c.006.004.086.053.232.148.547.352 2.016 1.32 3.844 2.698.082.063.168.126.252.191.972.74 2.034 1.587 3.107 2.514a43.97 43.97 0 011.027.91 43.075 43.075 0 012.92 2.891z" fill="#fff"/>
  <path d="M66.742 58.627a8.456 8.456 0 01-2.142 3.005 8.499 8.499 0 01-3.176 1.812l-.112.035.02.323a8.804 8.804 0 003.48-1.934 9.1 9.1 0 00.886-.923 8.732 8.732 0 001.364-2.26 43.25 43.25 0 01-.32-.058zm5.172 1.267a8.48 8.48 0 01-2.63 4.558 8.556 8.556 0 01-7.577 2c-.03-.005-.063-.013-.095-.02.017.111.032.224.05.335l.092.019a8.88 8.88 0 007.741-2.1c.033-.03.067-.058.098-.09l.239-.227a8.813 8.813 0 002.384-4.37c-.1-.036-.2-.071-.302-.105z" fill="#fff"/>
  <path d="M75.082 61.278a8.495 8.495 0 01-2.33 5.982c-.075.081-.154.16-.232.239-.086.082-.171.165-.26.244a8.577 8.577 0 01-10.161.974.9.9 0 01-.079-.046c.033.144.065.285.1.426l.072.04a8.9 8.9 0 0010.28-1.159c.088-.08.177-.16.26-.244a8.84 8.84 0 002.666-6.271c-.104-.063-.21-.124-.316-.185zM38.908 22.446H15.05a.75.75 0 01-.75-.748V3.604a.748.748 0 01.75-.748h29.285a.75.75 0 01.748.748v12.674a6.171 6.171 0 01-1.81 4.36 6.186 6.186 0 01-4.365 1.808z" fill="#fff"/>
  <path d="M38.908 22.514H15.05a.818.818 0 01-.817-.816V3.604a.816.816 0 01.817-.816h29.285a.818.818 0 01.817.816v12.674a6.24 6.24 0 01-1.83 4.407 6.254 6.254 0 01-4.414 1.829zM15.05 3.059a.547.547 0 00-.545.545v18.094a.545.545 0 00.545.545h23.858a5.982 5.982 0 004.221-1.75 5.968 5.968 0 001.751-4.215V3.604a.545.545 0 00-.545-.545H15.05z" fill="#CCC"/>
  <path d="M38.546 8.967H20.839a.613.613 0 01-.434-1.046.613.613 0 01.433-.179h17.708a.613.613 0 010 1.225zm0 4.217H20.839a.614.614 0 01-.434-1.045.614.614 0 01.433-.18h17.708a.613.613 0 110 1.225zm0 4.338H20.839a.614.614 0 01-.434-1.045.614.614 0 01.433-.18h17.708a.613.613 0 110 1.225z" fill="#CCC"/>
  <path d="M44.113 7.312a3.658 3.658 0 003.66-3.656A3.658 3.658 0 0044.114 0a3.658 3.658 0 00-3.66 3.656 3.658 3.658 0 003.66 3.656z" fill="#2E8C8D"/>
  <path d="M43.614 5.559a.407.407 0 01-.325-.163l-1-1.33a.407.407 0 11.652-.488l.654.87 1.678-2.514a.407.407 0 01.677.451l-1.997 2.993a.407.407 0 01-.339.18zM30.101 38.161H6.243a6.186 6.186 0 01-4.365-1.808 6.171 6.171 0 01-1.81-4.36V19.32a.749.749 0 01.748-.748h29.285a.75.75 0 01.75.748v18.094a.748.748 0 01-.75.748z" fill="#fff"/>
  <path d="M30.102 38.23H6.243a6.254 6.254 0 01-4.412-1.83A6.24 6.24 0 010 31.995V19.32a.816.816 0 01.817-.816h29.285a.818.818 0 01.817.816v18.094a.817.817 0 01-.817.815zM.817 18.774a.546.546 0 00-.546.545v12.674a5.968 5.968 0 001.752 4.215 5.982 5.982 0 004.22 1.75h23.859a.546.546 0 00.545-.545V19.319a.545.545 0 00-.545-.544H.817z" fill="#CCC"/>
  <path d="M24.312 24.682H6.605a.613.613 0 110-1.224h17.707a.614.614 0 01.434 1.045.614.614 0 01-.434.179zm0 4.218H6.605a.613.613 0 110-1.225h17.707a.613.613 0 110 1.224zm0 4.338H6.605a.613.613 0 110-1.225h17.707a.613.613 0 110 1.225z" fill="#CCC"/>
  <path d="M30.136 23.173a3.658 3.658 0 003.66-3.656 3.658 3.658 0 00-3.66-3.656 3.658 3.658 0 00-3.66 3.656 3.658 3.658 0 003.66 3.656z" fill="#2E8C8D"/>
  <path d="M29.635 21.42a.408.408 0 01-.326-.163l-.999-1.33a.408.408 0 11.652-.488l.653.87 1.678-2.514a.407.407 0 01.678.451l-1.997 2.992a.407.407 0 01-.328.181h-.011zM59.83 55.027H26.445a6.186 6.186 0 01-4.365-1.808 6.171 6.171 0 01-1.81-4.36V30.218a.964.964 0 01.965-.965h38.593a.967.967 0 01.965.965v23.845a.965.965 0 01-.965.964z" fill="#fff"/>
  <path d="M59.827 55.095H26.444a6.254 6.254 0 01-4.413-1.828 6.24 6.24 0 01-1.83-4.408V30.218a1.032 1.032 0 011.033-1.032h38.593a1.035 1.035 0 011.033 1.032v23.845a1.032 1.032 0 01-1.033 1.032zM21.234 29.457a.764.764 0 00-.762.76V48.86a5.968 5.968 0 001.751 4.216 5.982 5.982 0 004.221 1.75h33.383a.763.763 0 00.762-.762V30.218a.762.762 0 00-.762-.761H21.234z" fill="#CCC"/>
  <path d="M52.2 37.285H28.864a.808.808 0 110-1.614h23.335a.809.809 0 01.748 1.116.807.807 0 01-.748.498zm0 5.558H28.864a.81.81 0 01-.809-.807.805.805 0 01.809-.807h23.335a.809.809 0 01.572 1.377.808.808 0 01-.572.237zm-.002 5.717H28.863a.808.808 0 01-.571-1.378.808.808 0 01.57-.236h23.336a.81.81 0 01.81.807.806.806 0 01-.81.806z" fill="#CCC"/>
  <path d="M59.95 35.34a4.63 4.63 0 004.634-4.627 4.63 4.63 0 00-4.633-4.628 4.63 4.63 0 00-4.634 4.628 4.63 4.63 0 004.634 4.628z" fill="#2E8C8D"/>
  <path d="M59.318 33.121a.517.517 0 01-.413-.206l-1.264-1.683a.515.515 0 11.825-.618l.827 1.102 2.124-3.183a.515.515 0 01.858.572l-2.529 3.787a.515.515 0 01-.428.23z" fill="#fff"/>
  <path d="M80.69 71.711l-1.886.63-3.329-6.963 2.782-.93 2.432 7.263z" fill="#FFB6B6"/>
  <path d="M81.78 73.376l-6.08 1.623-.025-.077c-.211-.63-.164-.9.133-1.495a2.476 2.476 0 011.442-1.251l.828-1.213 2.354.15.53-.177.817 2.44z" fill="#2F2E41"/>
  <path d="M85.347 73.481h-1.988l-.945-7.657h2.933v7.657z" fill="#FFB6B6"/>
  <path d="M85.853 75h-6.41v-.082c0-.665.26-.885.731-1.355a2.48 2.48 0 011.764-.73l1.171-.887 2.184.887h.56V75z" fill="#2F2E41"/>
  <path d="M65.448 29.586a1.449 1.449 0 001.71-.451c.13-.168.22-.362.267-.57l3.266-.57.14-2.07-4.6.87a1.459 1.459 0 00-.783 2.791z" fill="#FFB6B6"/>
  <path d="M83.513 24.278l-.31-1.455-7.93 1.878-7.816 2.003L68.48 29.4l8.402-1.956 6.63-3.167z" fill="#F7B129"/>
  <path d="M81.394 60.474c0-1.343.026-2.302.048-3.072.062-2.253.08-2.859-.784-6.74l-.222-.996-1.308 3.918a12.26 12.26 0 00-.632 3.877l2.017 12.082h-4.121l-3.018-13.062-.002-3.996a1.473 1.473 0 010-2.049l1.003-5.986 1.015-8.068h11.117s1.961 4.062.012 8.091v16.006L85.51 71.546H82.4l-1.007-11.072z" fill="#2F2E41"/>
  <path d="M85.827 37.359l-10.398-.866-.055-.004.83-14.92a4.69 4.69 0 013.184-4.2v-1.044a.975.975 0 01.976-.974h1.52a.97.97 0 01.872.538l.743 1.484 2.81 2.245c1.387 1.109.27 12.225.21 12.811l.68 3.393a1.286 1.286 0 01-1.262 1.541 1.41 1.41 0 01-.11-.004z" fill="#F7B129"/>
  <path d="M74.815 41.298a1.45 1.45 0 00.027-2.223l1.032-3.15-1.763-1.092-1.395 4.468a1.457 1.457 0 001.117 2.331c.357.013.707-.106.982-.334z" fill="#FFB6B6"/>
  <path d="M78.44 19.889l-1.43-.477-2.069 9.214-1.904 9.163 2.864.421 2.221-9.743.319-8.578z" fill="#F7B129"/>
  <path d="M80.004 14.397a3.413 3.413 0 003.416-3.411 3.413 3.413 0 00-3.416-3.411 3.413 3.413 0 00-3.415 3.411 3.413 3.413 0 003.415 3.411z" fill="#FFB6B6"/>
  <path d="M75.408 9.316c.032-.324.124-.638.274-.927.16.347.657.407.998.235.341-.173.57-.5.813-.795.643-.776 1.526-1.405 2.528-1.52 1.002-.114 2.106.39 2.485 1.324.17-.235.532-.262.788-.125.248.156.441.385.553.655a4.167 4.167 0 01.14 3.337c-.422 1.066-1.464 2.502-2.539 2.905-.652.244-1.311-.069-2.005 0 .036-.756.183-1.69.22-2.446.02-.414.022-.878-.261-1.181a.82.82 0 00-1.248.145 1.875 1.875 0 00-.234-.667.639.639 0 00-.6-.307c-.29.048-.469.345-.734.47a.8.8 0 01-.888-.204 1.205 1.205 0 01-.29-.9z" fill="#2F2E41"/>
  <path opacity=".1" d="M80.447 28.426l-4.011 8.012h3.008l1.003-8.012z" fill="#000"/>
  <path d="M107.328 75.245a.163.163 0 01-.047.114.16.16 0 01-.115.047H30.578a.162.162 0 010-.323h76.588a.16.16 0 01.115.047.16.16 0 01.047.115z" fill="#443D5E"/>
</svg>
