<svg fill="none" xmlns="http://www.w3.org/2000/svg" viewBox="0 0 647 475">
  <path d="M-63 74v249.938C-63 357.11-36.11 384-2.938 384v0c33.17 0 60.061-26.89 60.061-60.062v-188c0-34.207 27.73-61.938 61.939-61.938v0C153.269 74 181 101.731 181 135.938V384" stroke="#251A3F" stroke-width="18"/>
  <g filter="url(#gC-RQSRzEa)">
    <path fill-rule="evenodd" clip-rule="evenodd" d="M137 18a8 8 0 018-8h474a8 8 0 018 8v419a8 8 0 01-8 8H145a8 8 0 01-8-8V18z" fill="#fff"/>
  </g>
  <path d="M609.715 28.236L604 34.361l-5.714-6.125a.718.718 0 00-1.065 0 .847.847 0 000 1.142l5.714 6.124-5.714 6.12a.847.847 0 000 1.142.718.718 0 001.065 0L604 36.64l5.714 6.124a.718.718 0 001.065 0 .847.847 0 000-1.142l-5.714-6.12 5.714-6.124a.847.847 0 000-1.142.718.718 0 00-1.065 0h.001z" fill="#000"/>
  <path fill-rule="evenodd" clip-rule="evenodd" d="M162.5 47c6.351 0 11.5-5.149 11.5-11.5S168.851 24 162.5 24 151 29.149 151 35.5 156.149 47 162.5 47z" fill="#CD6195"/>
  <path d="M160.514 39l2.021-6.341h-1.766l-1.218 4.763h-.035l-1.221-4.763h-1.833L158.484 39h2.03zm6.2 0v-5.04h1.749v-1.301h-5.106v1.3h1.749V39h1.608z" fill="#fff"/>
  <path d="M167.269 84V73.585h3.805v-2.268h-10.265v2.268h3.805V84h2.655zm6.477 0h2.557v-5.564c0-1.256.739-2.109 2.022-2.109 1.16 0 1.784.695 1.784 2.04V84h2.558v-6.24c0-2.33-1.24-3.639-3.323-3.639-1.424 0-2.478.668-2.926 1.776h-.159v-5.291h-2.513V84zm16.092-7.945c1.195 0 1.969.8 2.022 2.083h-4.131c.088-1.257.923-2.083 2.109-2.083zm2.074 5.185c-.272.642-.967 1.002-1.977 1.002-1.336 0-2.18-.896-2.215-2.338v-.132h6.653v-.782c0-3.076-1.687-4.895-4.544-4.895-2.883 0-4.658 1.95-4.658 5.106 0 3.147 1.74 5.01 4.693 5.01 2.373 0 4.052-1.151 4.43-2.97h-2.382zm18.738.449h-5.643V71.317h-2.654V84h8.297v-2.311zm6.143.536c-.888 0-1.512-.44-1.512-1.16 0-.695.536-1.09 1.635-1.17l1.96-.123v.712c0 .985-.897 1.74-2.083 1.74zm-.844 1.924c1.257 0 2.312-.527 2.813-1.415h.158V84h2.478v-6.618c0-2.074-1.45-3.287-4.016-3.287-2.435 0-4.078 1.125-4.245 2.918h2.355c.211-.58.826-.897 1.749-.897 1.055 0 1.635.457 1.635 1.266v.79l-2.347.142c-2.408.14-3.753 1.16-3.753 2.917 0 1.776 1.31 2.918 3.173 2.918zm9.184-12.146v2.4h-1.511v2.012h1.511v4.966c0 1.89.932 2.654 3.287 2.654a7.15 7.15 0 001.284-.114V81.97a6.227 6.227 0 01-.756.035c-.87 0-1.257-.387-1.257-1.23v-4.36h2.013v-2.013h-2.013v-2.4h-2.558zm11.32 4.052c1.196 0 1.969.8 2.022 2.083h-4.131c.088-1.257.923-2.083 2.109-2.083zm2.074 5.185c-.272.642-.966 1.002-1.977 1.002-1.336 0-2.18-.896-2.215-2.338v-.132h6.653v-.782c0-3.076-1.687-4.895-4.544-4.895-2.882 0-4.658 1.95-4.658 5.106 0 3.147 1.74 5.01 4.694 5.01 2.373 0 4.051-1.151 4.429-2.97h-2.382zm4.834-4.087c0 1.494.914 2.39 2.795 2.804l1.758.396c.852.184 1.221.474 1.221.949 0 .624-.685 1.037-1.678 1.037-1.02 0-1.644-.378-1.837-1.037h-2.496c.176 1.863 1.722 2.909 4.28 2.909 2.54 0 4.271-1.266 4.271-3.2 0-1.45-.843-2.24-2.724-2.654l-1.819-.395c-.897-.202-1.31-.492-1.31-.967 0-.615.677-1.028 1.591-1.028.949 0 1.538.386 1.67 1.01h2.364c-.141-1.854-1.591-2.882-4.052-2.882-2.417 0-4.034 1.221-4.034 3.058zm11.584-5.15v2.4h-1.512v2.012h1.512v4.966c0 1.89.931 2.654 3.287 2.654.492 0 .967-.053 1.283-.114V81.97a6.227 6.227 0 01-.756.035c-.87 0-1.257-.387-1.257-1.23v-4.36h2.013v-2.013h-2.013v-2.4h-2.557zM276.292 84h2.874l-2.355-2.478c.686-.923 1.081-2.268 1.081-3.789v-.79h-2.153v.623c0 1.055-.15 1.785-.448 2.312l-2.435-2.522c1.775-.959 2.584-2.013 2.584-3.323 0-1.714-1.468-2.909-3.542-2.909-2.083 0-3.612 1.248-3.612 2.962 0 .932.413 1.723 1.573 2.91-.07.034-.51.29-.563.307-1.634.896-2.364 1.933-2.364 3.383 0 2.163 1.74 3.56 4.439 3.56 1.555 0 3.005-.474 3.946-1.274l.975 1.028zm-5.598-5.432c.097-.052.272-.14.369-.175l2.909 3.067c-.501.527-1.415.861-2.338.861-1.371 0-2.302-.747-2.302-1.854 0-.774.439-1.398 1.362-1.899zm.975-2.452c-.87-.826-1.177-1.31-1.177-1.89 0-.79.589-1.344 1.415-1.344.826 0 1.397.545 1.397 1.345 0 .747-.474 1.31-1.635 1.89zm26.042 2.707v-1.617h-5.327v1.995h2.751l-.008.229c-.053 1.529-1.257 2.557-2.997 2.557-2.092 0-3.411-1.652-3.411-4.368 0-2.663 1.257-4.289 3.305-4.289 1.477 0 2.54.747 2.936 2.03h2.636c-.369-2.636-2.575-4.368-5.572-4.368-3.691 0-6.02 2.567-6.02 6.653 0 4.149 2.311 6.68 6.082 6.68 3.462 0 5.625-2.11 5.625-5.502zM300.496 84h2.558v-5.37c0-1.362.958-2.189 2.355-2.189.413 0 1.011.08 1.213.159v-2.33c-.219-.079-.65-.123-1.002-.123-1.23 0-2.232.739-2.487 1.706h-.158v-1.547h-2.479V84zm12.296-7.945c1.195 0 1.969.8 2.021 2.083h-4.131c.088-1.257.923-2.083 2.11-2.083zm2.074 5.185c-.272.642-.967 1.002-1.977 1.002-1.336 0-2.18-.896-2.215-2.338v-.132h6.653v-.782c0-3.076-1.688-4.895-4.544-4.895-2.883 0-4.658 1.95-4.658 5.106 0 3.147 1.74 5.01 4.693 5.01 2.373 0 4.052-1.151 4.43-2.97h-2.382zm8.551.985c-.887 0-1.511-.44-1.511-1.16 0-.695.536-1.09 1.634-1.17l1.96-.123v.712c0 .985-.896 1.74-2.083 1.74zm-.843 1.924c1.256 0 2.311-.527 2.812-1.415h.158V84h2.479v-6.618c0-2.074-1.45-3.287-4.017-3.287-2.434 0-4.078 1.125-4.245 2.918h2.356c.211-.58.826-.897 1.749-.897 1.054 0 1.634.457 1.634 1.266v.79l-2.346.142c-2.408.14-3.753 1.16-3.753 2.917 0 1.776 1.309 2.918 3.173 2.918zm9.184-12.146v2.4h-1.512v2.012h1.512v4.966c0 1.89.931 2.654 3.287 2.654.492 0 .967-.053 1.283-.114V81.97a6.227 6.227 0 01-.756.035c-.87 0-1.257-.387-1.257-1.23v-4.36h2.013v-2.013h-2.013v-2.4h-2.557zm11.32 4.052c1.195 0 1.968.8 2.021 2.083h-4.131c.088-1.257.923-2.083 2.11-2.083zm2.074 5.185c-.273.642-.967 1.002-1.978 1.002-1.336 0-2.179-.896-2.214-2.338v-.132h6.653v-.782c0-3.076-1.688-4.895-4.544-4.895-2.883 0-4.658 1.95-4.658 5.106 0 3.147 1.74 5.01 4.693 5.01 2.373 0 4.052-1.151 4.43-2.97h-2.382zm4.834-4.087c0 1.494.914 2.39 2.794 2.804l1.758.396c.853.184 1.222.474 1.222.949 0 .624-.686 1.037-1.679 1.037-1.019 0-1.643-.378-1.837-1.037h-2.496c.176 1.863 1.723 2.909 4.281 2.909 2.54 0 4.271-1.266 4.271-3.2 0-1.45-.844-2.24-2.725-2.654l-1.819-.395c-.896-.202-1.31-.492-1.31-.967 0-.615.677-1.028 1.591-1.028.95 0 1.538.386 1.67 1.01h2.364c-.14-1.854-1.59-2.882-4.051-2.882-2.417 0-4.034 1.221-4.034 3.058zm11.583-5.15v2.4h-1.512v2.012h1.512v4.966c0 1.89.932 2.654 3.287 2.654.492 0 .967-.053 1.283-.114V81.97a6.21 6.21 0 01-.755.035c-.871 0-1.257-.387-1.257-1.23v-4.36h2.012v-2.013h-2.012v-2.4h-2.558zM162.666 112v-10.569h-1.318V112h1.318zm3.026 0h1.26v-4.893c0-1.113.798-2.006 1.831-2.006.996 0 1.648.6 1.648 1.538V112h1.26v-5.076c0-1.003.732-1.823 1.831-1.823 1.113 0 1.662.571 1.662 1.735V112h1.26v-5.457c0-1.655-.901-2.578-2.512-2.578-1.092 0-1.992.55-2.417 1.385h-.117c-.367-.821-1.114-1.385-2.183-1.385-1.055 0-1.846.506-2.205 1.385h-.117v-1.246h-1.201V112zm17.389-8.035c-1.077 0-2.022.55-2.527 1.458h-.117v-1.319h-1.201v10.533h1.259v-3.824h.117c.433.835 1.341 1.326 2.469 1.326 2.007 0 3.318-1.618 3.318-4.087 0-2.483-1.304-4.087-3.318-4.087zm-.301 7.039c-1.42 0-2.321-1.143-2.321-2.952 0-1.816.901-2.951 2.329-2.951 1.443 0 2.307 1.106 2.307 2.951 0 1.846-.864 2.952-2.315 2.952zm6.088.996h1.26v-4.893c0-1.113.871-1.919 2.072-1.919.249 0 .704.044.806.074v-1.26a5.4 5.4 0 00-.63-.037c-1.047 0-1.955.542-2.19 1.311h-.117v-1.172h-1.201V112zm9.23.139c2.248 0 3.64-1.553 3.64-4.087 0-2.541-1.392-4.087-3.64-4.087-2.249 0-3.641 1.546-3.641 4.087 0 2.534 1.392 4.087 3.641 4.087zm0-1.135c-1.495 0-2.337-1.084-2.337-2.952 0-1.875.842-2.951 2.337-2.951 1.494 0 2.336 1.076 2.336 2.951 0 1.868-.842 2.952-2.336 2.952zm12.261-6.9h-1.347l-2.161 6.504h-.117l-2.161-6.504h-1.347l2.922 7.896h1.289l2.922-7.896zm5.033.975c1.253 0 2.088.922 2.117 2.321h-4.351c.095-1.399.974-2.321 2.234-2.321zm2.08 4.878c-.329.695-1.018 1.069-2.036 1.069-1.34 0-2.212-.989-2.278-2.549v-.059h5.677v-.483c0-2.454-1.297-3.97-3.428-3.97-2.168 0-3.56 1.612-3.56 4.095 0 2.497 1.37 4.079 3.56 4.079 1.728 0 2.959-.835 3.325-2.182h-1.26zm11.479 2.182c1.092 0 2.029-.52 2.527-1.399h.117V112h1.202v-11.03h-1.26v4.38h-.11c-.447-.865-1.377-1.385-2.476-1.385-2.006 0-3.317 1.612-3.317 4.087 0 2.483 1.296 4.087 3.317 4.087zm.293-7.038c1.429 0 2.322 1.142 2.322 2.951 0 1.824-.886 2.952-2.322 2.952-1.443 0-2.307-1.106-2.307-2.952 0-1.838.872-2.951 2.307-2.951zm6.491 6.899h1.259v-4.893c0-1.113.872-1.919 2.073-1.919.249 0 .703.044.806.074v-1.26a5.4 5.4 0 00-.63-.037c-1.047 0-1.956.542-2.19 1.311h-.117v-1.172h-1.201V112zm8.636-.967c-.916 0-1.597-.469-1.597-1.274 0-.791.528-1.209 1.729-1.289l2.124-.139v.725c0 1.128-.96 1.977-2.256 1.977zm-.234 1.106c1.054 0 1.919-.461 2.431-1.304h.117V112h1.202v-5.405c0-1.641-1.077-2.63-3.003-2.63-1.685 0-2.93.835-3.098 2.102h1.274c.176-.622.835-.981 1.78-.981 1.179 0 1.787.535 1.787 1.509v.717l-2.278.14c-1.838.11-2.878.923-2.878 2.336 0 1.443 1.135 2.351 2.666 2.351zm16.136-8.035h-1.267l-1.553 6.314h-.117l-1.765-6.314h-1.209l-1.765 6.314h-.117l-1.553-6.314h-1.274l2.212 7.896h1.274l1.758-6.108h.117l1.765 6.108h1.282l2.212-7.896zm2.206 7.896h1.259v-7.896h-1.259V112zm.629-9.419a.88.88 0 00.879-.879.882.882 0 00-.879-.879.881.881 0 00-.878.879.88.88 0 00.878.879zm3.524 9.419h1.26v-4.673c0-1.384.813-2.226 2.073-2.226s1.86.673 1.86 2.094V112h1.26v-5.112c0-1.875-.989-2.923-2.761-2.923-1.209 0-1.978.513-2.373 1.385h-.117v-1.246h-1.202V112zm12.445-1.23c-1.464 0-2.285-1.114-2.285-2.835 0-1.721.821-2.834 2.285-2.834 1.458 0 2.344 1.113 2.344 2.834s-.879 2.835-2.344 2.835zm.059 4.262c2.153 0 3.516-1.128 3.516-2.893v-8.035h-1.202v1.253h-.117c-.454-.85-1.428-1.392-2.534-1.392-2.029 0-3.31 1.604-3.31 3.97s1.267 3.948 3.31 3.948c1.084 0 1.978-.491 2.476-1.362h.117v1.552c0 1.165-.842 1.861-2.256 1.861-1.135 0-1.838-.418-1.978-1.062h-1.333c.191 1.303 1.407 2.16 3.311 2.16zm7.42-2.959a.955.955 0 00.953-.952.95.95 0 00-.953-.952.955.955 0 00-.952.952c0 .52.432.952.952.952zm13.025-.073v-4.548l3.75-6.021h-1.501l-2.85 4.695h-.117l-2.849-4.695h-1.501l3.75 6.021V112h1.318zm7.941.139c2.248 0 3.64-1.553 3.64-4.087 0-2.541-1.392-4.087-3.64-4.087-2.249 0-3.641 1.546-3.641 4.087 0 2.534 1.392 4.087 3.641 4.087zm0-1.135c-1.495 0-2.337-1.084-2.337-2.952 0-1.875.842-2.951 2.337-2.951 1.494 0 2.336 1.076 2.336 2.951 0 1.868-.842 2.952-2.336 2.952zm12.496-6.9h-1.26v4.673c0 1.385-.762 2.212-2.153 2.212-1.26 0-1.787-.659-1.787-2.08v-4.805h-1.26v5.113c0 1.867.923 2.922 2.695 2.922 1.209 0 2.051-.498 2.446-1.377h.118V112h1.201v-7.896zm14.123 2.417c-.22-1.406-1.392-2.556-3.311-2.556-2.211 0-3.618 1.597-3.618 4.058 0 2.512 1.414 4.116 3.626 4.116 1.897 0 3.076-1.069 3.303-2.519h-1.274c-.235.893-.975 1.384-2.037 1.384-1.406 0-2.314-1.157-2.314-2.981 0-1.787.894-2.922 2.314-2.922 1.136 0 1.831.637 2.037 1.42h1.274zm4.784 4.512c-.916 0-1.597-.469-1.597-1.274 0-.791.527-1.209 1.729-1.289l2.124-.139v.725c0 1.128-.96 1.977-2.256 1.977zm-.235 1.106c1.055 0 1.919-.461 2.432-1.304h.117V112h1.201v-5.405c0-1.641-1.076-2.63-3.003-2.63-1.684 0-2.929.835-3.098 2.102h1.275c.176-.622.835-.981 1.78-.981 1.179 0 1.787.535 1.787 1.509v.717l-2.278.14c-1.839.11-2.879.923-2.879 2.336 0 1.443 1.136 2.351 2.666 2.351zm6.571-.139h1.26v-4.673c0-1.384.813-2.226 2.073-2.226s1.86.673 1.86 2.094V112h1.26v-5.112c0-1.875-.989-2.923-2.761-2.923-1.209 0-1.978.513-2.373 1.385h-.118v-1.246h-1.201V112zm13.977 0h1.26v-4.673c0-1.384.813-2.226 2.073-2.226 1.259 0 1.86.673 1.86 2.094V112h1.26v-5.112c0-1.875-.989-2.923-2.762-2.923-1.208 0-1.977.513-2.373 1.385h-.117v-1.246h-1.201V112zm12.496.139c2.249 0 3.64-1.553 3.64-4.087 0-2.541-1.391-4.087-3.64-4.087-2.248 0-3.64 1.546-3.64 4.087 0 2.534 1.392 4.087 3.64 4.087zm0-1.135c-1.494 0-2.336-1.084-2.336-2.952 0-1.875.842-2.951 2.336-2.951 1.494 0 2.337 1.076 2.337 2.951 0 1.868-.843 2.952-2.337 2.952zm15.748-6.9h-1.267l-1.553 6.314h-.117l-1.765-6.314h-1.208l-1.765 6.314h-.118l-1.552-6.314h-1.275l2.212 7.896h1.275l1.757-6.108h.118l1.765 6.108h1.281l2.212-7.896zm13.435 2.417c-.22-1.406-1.392-2.556-3.31-2.556-2.212 0-3.619 1.597-3.619 4.058 0 2.512 1.414 4.116 3.626 4.116 1.897 0 3.076-1.069 3.303-2.519h-1.274c-.235.893-.974 1.384-2.036 1.384-1.407 0-2.315-1.157-2.315-2.981 0-1.787.894-2.922 2.315-2.922 1.135 0 1.831.637 2.036 1.42h1.274zm2.425 5.479h1.26v-4.673c0-1.333.777-2.226 2.19-2.226 1.194 0 1.824.695 1.824 2.094V112h1.26v-5.112c0-1.853-1.055-2.923-2.725-2.923-1.208 0-2.036.513-2.432 1.385h-.117v-4.38h-1.26V112zm11.757-.967c-.916 0-1.597-.469-1.597-1.274 0-.791.528-1.209 1.729-1.289l2.124-.139v.725c0 1.128-.96 1.977-2.256 1.977zm-.234 1.106c1.054 0 1.918-.461 2.431-1.304h.117V112h1.202v-5.405c0-1.641-1.077-2.63-3.003-2.63-1.685 0-2.93.835-3.099 2.102h1.275c.176-.622.835-.981 1.78-.981 1.179 0 1.787.535 1.787 1.509v.717l-2.278.14c-1.838.11-2.879.923-2.879 2.336 0 1.443 1.136 2.351 2.667 2.351zm6.57-.139h1.26v-4.673c0-1.384.813-2.226 2.073-2.226s1.86.673 1.86 2.094V112h1.26v-5.112c0-1.875-.989-2.923-2.761-2.923-1.209 0-1.978.513-2.373 1.385h-.117v-1.246h-1.202V112zm12.445-1.23c-1.465 0-2.285-1.114-2.285-2.835 0-1.721.82-2.834 2.285-2.834 1.458 0 2.344 1.113 2.344 2.834s-.879 2.835-2.344 2.835zm.059 4.262c2.153 0 3.516-1.128 3.516-2.893v-8.035h-1.202v1.253h-.117c-.454-.85-1.428-1.392-2.534-1.392-2.029 0-3.311 1.604-3.311 3.97s1.268 3.948 3.311 3.948c1.084 0 1.978-.491 2.476-1.362h.117v1.552c0 1.165-.843 1.861-2.256 1.861-1.135 0-1.838-.418-1.978-1.062h-1.333c.191 1.303 1.407 2.16 3.311 2.16zm9.53-9.953c1.252 0 2.087.922 2.116 2.321h-4.35c.095-1.399.974-2.321 2.234-2.321zm2.08 4.878c-.33.695-1.018 1.069-2.036 1.069-1.341 0-2.212-.989-2.278-2.549v-.059h5.676v-.483c0-2.454-1.296-3.97-3.428-3.97-2.168 0-3.559 1.612-3.559 4.095 0 2.497 1.369 4.079 3.559 4.079 1.729 0 2.959-.835 3.326-2.182h-1.26zm9.084-7.896v2.043h-1.274v1.055h1.274v4.79c0 1.509.652 2.11 2.278 2.11.249 0 .491-.03.74-.074v-1.062c-.235.022-.359.03-.586.03-.821 0-1.172-.396-1.172-1.326v-4.468h1.758v-1.055h-1.758v-2.043h-1.26zM460.12 112h1.26v-4.673c0-1.333.776-2.226 2.19-2.226 1.193 0 1.823.695 1.823 2.094V112h1.26v-5.112c0-1.853-1.055-2.923-2.725-2.923-1.208 0-2.036.513-2.431 1.385h-.117v-4.38h-1.26V112zm12.474-6.921c1.253 0 2.088.922 2.117 2.321h-4.351c.095-1.399.974-2.321 2.234-2.321zm2.08 4.878c-.329.695-1.018 1.069-2.036 1.069-1.34 0-2.212-.989-2.278-2.549v-.059h5.676v-.483c0-2.454-1.296-3.97-3.427-3.97-2.168 0-3.56 1.612-3.56 4.095 0 2.497 1.37 4.079 3.56 4.079 1.728 0 2.959-.835 3.325-2.182h-1.26zm11.479 2.182c1.092 0 2.029-.52 2.527-1.399h.117V112h1.202v-11.03h-1.26v4.38h-.11c-.447-.865-1.377-1.385-2.476-1.385-2.006 0-3.318 1.612-3.318 4.087 0 2.483 1.297 4.087 3.318 4.087zm.293-7.038c1.429 0 2.322 1.142 2.322 2.951 0 1.824-.886 2.952-2.322 2.952-1.443 0-2.307-1.106-2.307-2.952 0-1.838.872-2.951 2.307-2.951zm6.491 6.899h1.259v-4.893c0-1.113.872-1.919 2.073-1.919.249 0 .703.044.806.074v-1.26a5.4 5.4 0 00-.63-.037c-1.047 0-1.956.542-2.19 1.311h-.117v-1.172h-1.201V112zm8.636-.967c-.916 0-1.597-.469-1.597-1.274 0-.791.528-1.209 1.729-1.289l2.124-.139v.725c0 1.128-.96 1.977-2.256 1.977zm-.234 1.106c1.054 0 1.919-.461 2.431-1.304h.117V112h1.202v-5.405c0-1.641-1.077-2.63-3.003-2.63-1.685 0-2.93.835-3.098 2.102h1.274c.176-.622.835-.981 1.78-.981 1.179 0 1.787.535 1.787 1.509v.717l-2.278.14c-1.838.11-2.878.923-2.878 2.336 0 1.443 1.135 2.351 2.666 2.351zm16.136-8.035h-1.267l-1.553 6.314h-.117l-1.765-6.314h-1.209l-1.765 6.314h-.117l-1.553-6.314h-1.274l2.212 7.896h1.274l1.758-6.108h.117l1.765 6.108h1.282l2.212-7.896zm2.206 7.896h1.259v-7.896h-1.259V112zm.629-9.419a.88.88 0 00.879-.879.882.882 0 00-.879-.879.881.881 0 00-.878.879.88.88 0 00.878.879zm3.524 9.419h1.26v-4.673c0-1.384.813-2.226 2.073-2.226s1.86.673 1.86 2.094V112h1.26v-5.112c0-1.875-.989-2.923-2.761-2.923-1.209 0-1.978.513-2.373 1.385h-.117v-1.246h-1.202V112zm12.445-1.23c-1.464 0-2.285-1.114-2.285-2.835 0-1.721.821-2.834 2.285-2.834 1.458 0 2.344 1.113 2.344 2.834s-.879 2.835-2.344 2.835zm.059 4.262c2.153 0 3.516-1.128 3.516-2.893v-8.035h-1.202v1.253h-.117c-.454-.85-1.428-1.392-2.534-1.392-2.029 0-3.311 1.604-3.311 3.97s1.268 3.948 3.311 3.948c1.084 0 1.978-.491 2.476-1.362h.117v1.552c0 1.165-.842 1.861-2.256 1.861-1.135 0-1.838-.418-1.978-1.062h-1.333c.191 1.303 1.407 2.16 3.311 2.16zm17.639-8.511c-.22-1.406-1.392-2.556-3.311-2.556-2.212 0-3.618 1.597-3.618 4.058 0 2.512 1.414 4.116 3.626 4.116 1.897 0 3.076-1.069 3.303-2.519h-1.275c-.234.893-.974 1.384-2.036 1.384-1.406 0-2.314-1.157-2.314-2.981 0-1.787.893-2.922 2.314-2.922 1.136 0 1.831.637 2.036 1.42h1.275zm5.597 5.618c2.248 0 3.64-1.553 3.64-4.087 0-2.541-1.392-4.087-3.64-4.087-2.249 0-3.641 1.546-3.641 4.087 0 2.534 1.392 4.087 3.641 4.087zm0-1.135c-1.495 0-2.337-1.084-2.337-2.952 0-1.875.842-2.951 2.337-2.951 1.494 0 2.336 1.076 2.336 2.951 0 1.868-.842 2.952-2.336 2.952zm6.182.996h1.26v-11.03h-1.26V112zm7.443.139c2.248 0 3.64-1.553 3.64-4.087 0-2.541-1.392-4.087-3.64-4.087-2.249 0-3.64 1.546-3.64 4.087 0 2.534 1.391 4.087 3.64 4.087zm0-1.135c-1.494 0-2.337-1.084-2.337-2.952 0-1.875.843-2.951 2.337-2.951 1.494 0 2.336 1.076 2.336 2.951 0 1.868-.842 2.952-2.336 2.952zm6.109.996h1.26v-4.893c0-1.113.872-1.919 2.073-1.919.249 0 .703.044.805.074v-1.26a5.387 5.387 0 00-.63-.037c-1.047 0-1.955.542-2.189 1.311h-.118v-1.172h-1.201V112zm6.051 2.688l1.15-4.167h-1.399l-.696 4.167h.945zm-421.741 19.345c-.915 0-1.597-.469-1.597-1.274 0-.791.528-1.209 1.729-1.289l2.124-.139v.725c0 1.128-.959 1.977-2.256 1.977zm-.234 1.106c1.054 0 1.919-.461 2.431-1.304h.118V135h1.201v-5.405c0-1.641-1.077-2.63-3.003-2.63-1.685 0-2.93.835-3.098 2.102h1.274c.176-.622.835-.981 1.78-.981 1.179 0 1.787.535 1.787 1.509v.717l-2.278.14c-1.838.11-2.878.923-2.878 2.336 0 1.443 1.135 2.351 2.666 2.351zm6.388-5.874c0 1.143.673 1.78 2.153 2.139l1.355.329c.842.205 1.252.572 1.252 1.114 0 .725-.761 1.23-1.823 1.23-1.011 0-1.641-.425-1.853-1.091h-1.297c.139 1.311 1.348 2.153 3.106 2.153 1.794 0 3.164-.974 3.164-2.388 0-1.135-.718-1.779-2.205-2.138l-1.216-.293c-.93-.227-1.369-.564-1.369-1.106 0-.703.732-1.179 1.67-1.179.952 0 1.567.417 1.735 1.047h1.246c-.169-1.296-1.319-2.117-2.974-2.117-1.677 0-2.944.989-2.944 2.3zm23.183-2.161h-1.267l-1.553 6.314h-.117l-1.765-6.314h-1.209l-1.765 6.314h-.117l-1.553-6.314h-1.274l2.212 7.896h1.274l1.758-6.108h.117l1.765 6.108h1.282l2.212-7.896zm5.033.975c1.252 0 2.087.922 2.116 2.321h-4.35c.095-1.399.974-2.321 2.234-2.321zm2.08 4.878c-.33.695-1.018 1.069-2.036 1.069-1.341 0-2.212-.989-2.278-2.549v-.059h5.676v-.483c0-2.454-1.296-3.97-3.428-3.97-2.168 0-3.559 1.612-3.559 4.095 0 2.497 1.369 4.079 3.559 4.079 1.729 0 2.959-.835 3.325-2.182h-1.259zm3.905 2.043h1.259v-11.03h-1.259V135zm4.271 0h1.259v-11.03h-1.259V135zm11.354-.967c-.915 0-1.596-.469-1.596-1.274 0-.791.527-1.209 1.728-1.289l2.124-.139v.725c0 1.128-.959 1.977-2.256 1.977zm-.234 1.106c1.055 0 1.919-.461 2.432-1.304h.117V135h1.201v-5.405c0-1.641-1.077-2.63-3.003-2.63-1.685 0-2.93.835-3.098 2.102h1.274c.176-.622.835-.981 1.78-.981 1.179 0 1.787.535 1.787 1.509v.717l-2.278.14c-1.838.11-2.878.923-2.878 2.336 0 1.443 1.135 2.351 2.666 2.351zm6.388-5.874c0 1.143.674 1.78 2.153 2.139l1.355.329c.842.205 1.252.572 1.252 1.114 0 .725-.761 1.23-1.823 1.23-1.011 0-1.641-.425-1.853-1.091h-1.297c.14 1.311 1.348 2.153 3.106 2.153 1.794 0 3.164-.974 3.164-2.388 0-1.135-.718-1.779-2.205-2.138l-1.216-.293c-.93-.227-1.369-.564-1.369-1.106 0-.703.732-1.179 1.67-1.179.952 0 1.567.417 1.736 1.047h1.245c-.169-1.296-1.319-2.117-2.974-2.117-1.677 0-2.944.989-2.944 2.3zm13.779-4.204v2.043h-1.275v1.055h1.275v4.79c0 1.509.652 2.11 2.278 2.11.249 0 .49-.03.739-.074v-1.062c-.234.022-.359.03-.586.03-.82 0-1.171-.396-1.171-1.326v-4.468h1.757v-1.055h-1.757v-2.043h-1.26zm5.487 9.939h1.259v-4.673c0-1.333.777-2.226 2.19-2.226 1.194 0 1.824.695 1.824 2.094V135h1.26v-5.112c0-1.853-1.055-2.923-2.725-2.923-1.208 0-2.036.513-2.431 1.385h-.118v-4.38h-1.259V135zm12.474-6.921c1.252 0 2.087.922 2.117 2.321h-4.351c.095-1.399.974-2.321 2.234-2.321zm2.08 4.878c-.33.695-1.018 1.069-2.036 1.069-1.341 0-2.212-.989-2.278-2.549v-.059h5.676v-.483c0-2.454-1.296-3.97-3.428-3.97-2.167 0-3.559 1.612-3.559 4.095 0 2.497 1.37 4.079 3.559 4.079 1.729 0 2.959-.835 3.326-2.182h-1.26zm12.483 2.182c1.999 0 3.31-1.618 3.31-4.087 0-2.483-1.304-4.087-3.31-4.087-1.084 0-2.044.535-2.476 1.385h-.117v-4.38h-1.26V135h1.201v-1.26h.117c.498.879 1.436 1.399 2.535 1.399zm-.293-7.038c1.442 0 2.299 1.106 2.299 2.951 0 1.846-.857 2.952-2.299 2.952-1.436 0-2.33-1.128-2.33-2.952 0-1.823.894-2.951 2.33-2.951zm6.072 6.899h1.26v-4.893c0-1.113.872-1.919 2.073-1.919.249 0 .703.044.806.074v-1.26a5.414 5.414 0 00-.63-.037c-1.048 0-1.956.542-2.19 1.311h-.117v-1.172h-1.202V135zm12.592-7.896h-1.26v4.673c0 1.385-.762 2.212-2.153 2.212-1.26 0-1.787-.659-1.787-2.08v-4.805h-1.26v5.113c0 1.867.923 2.922 2.695 2.922 1.209 0 2.051-.498 2.446-1.377h.118V135h1.201v-7.896zm2.682 2.161c0 1.143.673 1.78 2.153 2.139l1.355.329c.842.205 1.252.572 1.252 1.114 0 .725-.761 1.23-1.823 1.23-1.011 0-1.641-.425-1.854-1.091h-1.296c.139 1.311 1.348 2.153 3.106 2.153 1.794 0 3.164-.974 3.164-2.388 0-1.135-.718-1.779-2.205-2.138l-1.216-.293c-.93-.227-1.369-.564-1.369-1.106 0-.703.732-1.179 1.67-1.179.952 0 1.567.417 1.735 1.047h1.245c-.168-1.296-1.318-2.117-2.973-2.117-1.677 0-2.944.989-2.944 2.3zm8.599 5.735h1.26v-4.673c0-1.333.776-2.226 2.19-2.226 1.194 0 1.824.695 1.824 2.094V135h1.259v-5.112c0-1.853-1.054-2.923-2.724-2.923-1.209 0-2.036.513-2.432 1.385h-.117v-4.38h-1.26V135zm13.867-5.735c0 1.143.674 1.78 2.153 2.139l1.355.329c.843.205 1.253.572 1.253 1.114 0 .725-.762 1.23-1.824 1.23-1.011 0-1.641-.425-1.853-1.091h-1.296c.139 1.311 1.347 2.153 3.105 2.153 1.795 0 3.164-.974 3.164-2.388 0-1.135-.718-1.779-2.204-2.138l-1.216-.293c-.93-.227-1.37-.564-1.37-1.106 0-.703.733-1.179 1.67-1.179.952 0 1.567.417 1.736 1.047h1.245c-.168-1.296-1.318-2.117-2.974-2.117-1.677 0-2.944.989-2.944 2.3zM324.13 135h1.26v-7.896h-1.26V135zm.63-9.419a.882.882 0 00.879-.879.882.882 0 00-.879-.879.882.882 0 00-.879.879.88.88 0 00.879.879zm3.341 9.419h6.079v-1.055h-4.556v-.117l4.534-5.779v-.945h-6.05v1.055h4.548v.117l-4.555 5.801V135zm11.69-6.921c1.253 0 2.088.922 2.117 2.321h-4.351c.095-1.399.974-2.321 2.234-2.321zm2.08 4.878c-.329.695-1.018 1.069-2.036 1.069-1.34 0-2.212-.989-2.278-2.549v-.059h5.677v-.483c0-2.454-1.297-3.97-3.428-3.97-2.168 0-3.56 1.612-3.56 4.095 0 2.497 1.37 4.079 3.56 4.079 1.728 0 2.959-.835 3.325-2.182h-1.26zm4.872 2.116a.955.955 0 00.952-.952.95.95 0 00-.952-.952.955.955 0 00-.952.952c0 .52.432.952.952.952zm14.658-8.415h.088L363.92 135h1.245l2.879-10.569h-1.377l-2.102 8.591h-.088l-2.366-8.591h-1.333l-2.366 8.591h-.087l-2.102-8.591h-1.377L357.724 135h1.245l2.432-8.342zm11.397 1.421c1.253 0 2.088.922 2.117 2.321h-4.351c.096-1.399.975-2.321 2.234-2.321zm2.08 4.878c-.329.695-1.018 1.069-2.036 1.069-1.34 0-2.212-.989-2.278-2.549v-.059h5.677v-.483c0-2.454-1.297-3.97-3.428-3.97-2.168 0-3.56 1.612-3.56 4.095 0 2.497 1.37 4.079 3.56 4.079 1.728 0 2.959-.835 3.325-2.182h-1.26zm8.63 2.043h1.26v-4.673c0-1.333.777-2.226 2.19-2.226 1.194 0 1.824.695 1.824 2.094V135h1.26v-5.112c0-1.853-1.055-2.923-2.725-2.923-1.208 0-2.036.513-2.432 1.385h-.117v-4.38h-1.26V135zm11.757-.967c-.916 0-1.597-.469-1.597-1.274 0-.791.528-1.209 1.729-1.289l2.124-.139v.725c0 1.128-.96 1.977-2.256 1.977zm-.234 1.106c1.054 0 1.918-.461 2.431-1.304h.117V135h1.202v-5.405c0-1.641-1.077-2.63-3.003-2.63-1.685 0-2.93.835-3.099 2.102h1.275c.176-.622.835-.981 1.78-.981 1.179 0 1.787.535 1.787 1.509v.717l-2.278.14c-1.838.11-2.878.923-2.878 2.336 0 1.443 1.135 2.351 2.666 2.351zm12.723-8.035h-1.348l-2.161 6.504h-.117l-2.16-6.504h-1.348l2.922 7.896h1.289l2.923-7.896zm5.033.975c1.252 0 2.087.922 2.116 2.321h-4.35c.095-1.399.974-2.321 2.234-2.321zm2.08 4.878c-.33.695-1.018 1.069-2.037 1.069-1.34 0-2.211-.989-2.277-2.549v-.059h5.676v-.483c0-2.454-1.296-3.97-3.428-3.97-2.168 0-3.559 1.612-3.559 4.095 0 2.497 1.369 4.079 3.559 4.079 1.729 0 2.959-.835 3.325-2.182h-1.259zm10.988 1.076c-.915 0-1.597-.469-1.597-1.274 0-.791.528-1.209 1.729-1.289l2.124-.139v.725c0 1.128-.96 1.977-2.256 1.977zm-.234 1.106c1.054 0 1.919-.461 2.431-1.304h.118V135h1.201v-5.405c0-1.641-1.077-2.63-3.003-2.63-1.685 0-2.93.835-3.098 2.102h1.274c.176-.622.835-.981 1.78-.981 1.179 0 1.787.535 1.787 1.509v.717l-2.278.14c-1.838.11-2.878.923-2.878 2.336 0 1.443 1.135 2.351 2.666 2.351zm6.644-.139h1.26v-11.03h-1.26V135zm4.015-5.735c0 1.143.673 1.78 2.153 2.139l1.355.329c.842.205 1.252.572 1.252 1.114 0 .725-.761 1.23-1.823 1.23-1.011 0-1.641-.425-1.853-1.091h-1.297c.139 1.311 1.348 2.153 3.106 2.153 1.794 0 3.164-.974 3.164-2.388 0-1.135-.718-1.779-2.205-2.138l-1.216-.293c-.93-.227-1.369-.564-1.369-1.106 0-.703.732-1.179 1.67-1.179.952 0 1.567.417 1.735 1.047h1.246c-.169-1.296-1.319-2.117-2.974-2.117-1.677 0-2.944.989-2.944 2.3zm11.771 5.874c2.248 0 3.64-1.553 3.64-4.087 0-2.541-1.392-4.087-3.64-4.087-2.249 0-3.64 1.546-3.64 4.087 0 2.534 1.391 4.087 3.64 4.087zm0-1.135c-1.494 0-2.337-1.084-2.337-2.952 0-1.875.843-2.951 2.337-2.951 1.494 0 2.336 1.076 2.336 2.951 0 1.868-.842 2.952-2.336 2.952zm10.834.996h1.26v-4.893c0-1.113.798-2.006 1.831-2.006.996 0 1.648.6 1.648 1.538V135h1.26v-5.076c0-1.003.732-1.823 1.831-1.823 1.113 0 1.662.571 1.662 1.735V135h1.26v-5.457c0-1.655-.901-2.578-2.512-2.578-1.091 0-1.992.55-2.417 1.385h-.117c-.366-.821-1.113-1.385-2.183-1.385-1.054 0-1.845.506-2.204 1.385h-.118v-1.246h-1.201V135zm15.975-.967c-.915 0-1.596-.469-1.596-1.274 0-.791.527-1.209 1.728-1.289l2.124-.139v.725c0 1.128-.959 1.977-2.256 1.977zm-.234 1.106c1.055 0 1.919-.461 2.432-1.304h.117V135h1.201v-5.405c0-1.641-1.077-2.63-3.003-2.63-1.684 0-2.93.835-3.098 2.102h1.274c.176-.622.835-.981 1.78-.981 1.179 0 1.787.535 1.787 1.509v.717l-2.277.14c-1.839.11-2.879.923-2.879 2.336 0 1.443 1.135 2.351 2.666 2.351zm9.493 0c1.092 0 2.029-.52 2.527-1.399h.117V135h1.202v-11.03h-1.26v4.38h-.11c-.447-.865-1.377-1.385-2.476-1.385-2.006 0-3.318 1.612-3.318 4.087 0 2.483 1.297 4.087 3.318 4.087zm.293-7.038c1.429 0 2.322 1.142 2.322 2.951 0 1.824-.886 2.952-2.322 2.952-1.443 0-2.307-1.106-2.307-2.952 0-1.838.872-2.951 2.307-2.951zm9.64-.022c1.253 0 2.087.922 2.117 2.321h-4.351c.095-1.399.974-2.321 2.234-2.321zm2.08 4.878c-.329.695-1.018 1.069-2.036 1.069-1.34 0-2.212-.989-2.278-2.549v-.059h5.676v-.483c0-2.454-1.296-3.97-3.427-3.97-2.168 0-3.56 1.612-3.56 4.095 0 2.497 1.37 4.079 3.56 4.079 1.728 0 2.959-.835 3.325-2.182h-1.26zm9.084-7.896v2.043h-1.274v1.055h1.274v4.79c0 1.509.652 2.11 2.278 2.11.249 0 .491-.03.74-.074v-1.062c-.234.022-.359.03-.586.03-.82 0-1.172-.396-1.172-1.326v-4.468h1.758v-1.055h-1.758v-2.043h-1.26zm5.487 9.939h1.26v-4.673c0-1.333.776-2.226 2.19-2.226 1.194 0 1.824.695 1.824 2.094V135h1.259v-5.112c0-1.853-1.054-2.923-2.724-2.923-1.209 0-2.036.513-2.432 1.385h-.117v-4.38h-1.26V135zm12.474-6.921c1.253 0 2.088.922 2.117 2.321h-4.35c.095-1.399.974-2.321 2.233-2.321zm2.08 4.878c-.329.695-1.018 1.069-2.036 1.069-1.34 0-2.212-.989-2.277-2.549v-.059h5.676v-.483c0-2.454-1.297-3.97-3.428-3.97-2.168 0-3.56 1.612-3.56 4.095 0 2.497 1.37 4.079 3.56 4.079 1.729 0 2.959-.835 3.325-2.182h-1.26zm11.48 2.182c1.091 0 2.028-.52 2.527-1.399h.117V135h1.201v-11.03h-1.26v4.38h-.11c-.447-.865-1.377-1.385-2.475-1.385-2.007 0-3.318 1.612-3.318 4.087 0 2.483 1.296 4.087 3.318 4.087zm.293-7.038c1.428 0 2.321 1.142 2.321 2.951 0 1.824-.886 2.952-2.321 2.952-1.443 0-2.307-1.106-2.307-2.952 0-1.838.871-2.951 2.307-2.951zm6.49 6.899h1.26v-4.893c0-1.113.871-1.919 2.072-1.919.25 0 .704.044.806.074v-1.26a5.4 5.4 0 00-.63-.037c-1.047 0-1.955.542-2.19 1.311h-.117v-1.172h-1.201V135zm8.636-.967c-.915 0-1.596-.469-1.596-1.274 0-.791.527-1.209 1.728-1.289l2.124-.139v.725c0 1.128-.959 1.977-2.256 1.977zm-.234 1.106c1.055 0 1.919-.461 2.432-1.304h.117V135h1.201v-5.405c0-1.641-1.077-2.63-3.003-2.63-1.685 0-2.93.835-3.098 2.102h1.274c.176-.622.835-.981 1.78-.981 1.179 0 1.787.535 1.787 1.509v.717l-2.278.14c-1.838.11-2.878.923-2.878 2.336 0 1.443 1.135 2.351 2.666 2.351zm16.136-8.035h-1.267l-1.553 6.314h-.117l-1.765-6.314h-1.208l-1.766 6.314h-.117l-1.553-6.314h-1.274L559.65 135h1.274l1.758-6.108h.117l1.766 6.108h1.281l2.212-7.896zm2.206 7.896h1.26v-7.896h-1.26V135zm.63-9.419a.882.882 0 00.879-.879.882.882 0 00-.879-.879.882.882 0 00-.879.879.88.88 0 00.879.879zm3.524 9.419h1.26v-4.673c0-1.384.813-2.226 2.072-2.226 1.26 0 1.861.673 1.861 2.094V135h1.259v-5.112c0-1.875-.988-2.923-2.761-2.923-1.208 0-1.977.513-2.373 1.385h-.117v-1.246h-1.201V135zm12.445-1.23c-1.465 0-2.285-1.114-2.285-2.835 0-1.721.82-2.834 2.285-2.834 1.457 0 2.343 1.113 2.343 2.834s-.878 2.835-2.343 2.835zm.058 4.262c2.154 0 3.516-1.128 3.516-2.893v-8.035h-1.201v1.253h-.117c-.455-.85-1.429-1.392-2.535-1.392-2.028 0-3.31 1.604-3.31 3.97s1.267 3.948 3.31 3.948c1.084 0 1.978-.491 2.476-1.362h.117v1.552c0 1.165-.842 1.861-2.256 1.861-1.135 0-1.838-.418-1.977-1.062h-1.333c.19 1.303 1.406 2.16 3.31 2.16zM161.187 158h1.259v-4.893c0-1.113.799-2.006 1.831-2.006.996 0 1.648.6 1.648 1.538V158h1.26v-5.076c0-1.003.732-1.823 1.831-1.823 1.113 0 1.663.571 1.663 1.735V158h1.259v-5.457c0-1.655-.9-2.578-2.512-2.578-1.091 0-1.992.55-2.417 1.385h-.117c-.366-.821-1.113-1.385-2.183-1.385-1.054 0-1.845.506-2.204 1.385h-.117v-1.246h-1.201V158zm16.788.139c2.248 0 3.64-1.553 3.64-4.087 0-2.541-1.392-4.087-3.64-4.087-2.249 0-3.64 1.546-3.64 4.087 0 2.534 1.391 4.087 3.64 4.087zm0-1.135c-1.494 0-2.337-1.084-2.337-2.952 0-1.875.843-2.951 2.337-2.951 1.494 0 2.336 1.076 2.336 2.951 0 1.868-.842 2.952-2.336 2.952zm9.032 1.135c1.091 0 2.028-.52 2.526-1.399h.118V158h1.201v-11.03h-1.26v4.38h-.11c-.447-.865-1.377-1.385-2.475-1.385-2.007 0-3.318 1.612-3.318 4.087 0 2.483 1.296 4.087 3.318 4.087zm.292-7.038c1.429 0 2.322 1.142 2.322 2.951 0 1.824-.886 2.952-2.322 2.952-1.442 0-2.307-1.106-2.307-2.952 0-1.838.872-2.951 2.307-2.951zm9.64-.022c1.253 0 2.088.922 2.117 2.321h-4.351c.096-1.399.974-2.321 2.234-2.321zm2.08 4.878c-.329.695-1.018 1.069-2.036 1.069-1.34 0-2.212-.989-2.278-2.549v-.059h5.677v-.483c0-2.454-1.297-3.97-3.428-3.97-2.168 0-3.56 1.612-3.56 4.095 0 2.497 1.37 4.079 3.56 4.079 1.728 0 2.959-.835 3.325-2.182h-1.26zm8.557 2.043h1.26v-4.893c0-1.113.798-2.006 1.831-2.006.996 0 1.648.6 1.648 1.538V158h1.26v-5.076c0-1.003.732-1.823 1.831-1.823 1.113 0 1.662.571 1.662 1.735V158h1.26v-5.457c0-1.655-.901-2.578-2.512-2.578-1.091 0-1.992.55-2.417 1.385h-.117c-.367-.821-1.114-1.385-2.183-1.385-1.055 0-1.846.506-2.205 1.385h-.117v-1.246h-1.201V158zm16.788.139c2.249 0 3.64-1.553 3.64-4.087 0-2.541-1.391-4.087-3.64-4.087-2.248 0-3.64 1.546-3.64 4.087 0 2.534 1.392 4.087 3.64 4.087zm0-1.135c-1.494 0-2.336-1.084-2.336-2.952 0-1.875.842-2.951 2.336-2.951 1.494 0 2.337 1.076 2.337 2.951 0 1.868-.843 2.952-2.337 2.952zm6.11.996h1.26v-4.893c0-1.113.871-1.919 2.072-1.919.249 0 .703.044.806.074v-1.26a5.4 5.4 0 00-.63-.037c-1.047 0-1.956.542-2.19 1.311h-.117v-1.172h-1.201V158zm9.134-6.921c1.253 0 2.088.922 2.117 2.321h-4.351c.095-1.399.974-2.321 2.234-2.321zm2.08 4.878c-.329.695-1.018 1.069-2.036 1.069-1.34 0-2.212-.989-2.278-2.549v-.059h5.676v-.483c0-2.454-1.296-3.97-3.427-3.97-2.168 0-3.56 1.612-3.56 4.095 0 2.497 1.37 4.079 3.56 4.079 1.728 0 2.959-.835 3.325-2.182h-1.26zm8.586 2.043h1.26v-7.896h-1.26V158zm.63-9.419a.88.88 0 00.879-.879.882.882 0 00-.879-.879.882.882 0 00-.879.879c0 .484.396.879.879.879zm3.524 9.419h1.26v-4.673c0-1.384.813-2.226 2.073-2.226 1.259 0 1.86.673 1.86 2.094V158h1.26v-5.112c0-1.875-.989-2.923-2.761-2.923-1.209 0-1.978.513-2.373 1.385h-.118v-1.246h-1.201V158zm9.779-9.939v2.043h-1.274v1.055h1.274v4.79c0 1.509.652 2.11 2.278 2.11.249 0 .491-.03.74-.074v-1.062c-.235.022-.359.03-.586.03-.821 0-1.172-.396-1.172-1.326v-4.468h1.758v-1.055h-1.758v-2.043h-1.26zm11.8 2.043h-1.259v4.673c0 1.385-.762 2.212-2.154 2.212-1.259 0-1.787-.659-1.787-2.08v-4.805h-1.259v5.113c0 1.867.922 2.922 2.695 2.922 1.208 0 2.051-.498 2.446-1.377h.117V158h1.201v-7.896zm2.895 7.896h1.259v-7.896h-1.259V158zm.629-9.419a.88.88 0 00.879-.879.882.882 0 00-.879-.879.881.881 0 00-.878.879.88.88 0 00.878.879zm4.052-.52v2.043h-1.275v1.055h1.275v4.79c0 1.509.652 2.11 2.278 2.11.249 0 .49-.03.739-.074v-1.062c-.234.022-.358.03-.586.03-.82 0-1.171-.396-1.171-1.326v-4.468h1.757v-1.055h-1.757v-2.043h-1.26zm5.443 9.939h1.26v-7.896h-1.26V158zm.63-9.419a.882.882 0 00.879-.879.882.882 0 00-.879-.879.882.882 0 00-.879.879.88.88 0 00.879.879zm9.969 1.523h-1.348l-2.16 6.504H296l-2.161-6.504h-1.348l2.923 7.896h1.289l2.922-7.896zm5.033.975c1.252 0 2.087.922 2.117 2.321h-4.351c.095-1.399.974-2.321 2.234-2.321zm2.08 4.878c-.33.695-1.018 1.069-2.036 1.069-1.341 0-2.212-.989-2.278-2.549v-.059h5.676v-.483c0-2.454-1.296-3.97-3.428-3.97-2.168 0-3.559 1.612-3.559 4.095 0 2.497 1.37 4.079 3.559 4.079 1.729 0 2.959-.835 3.326-2.182h-1.26zm12.482 2.182c2 0 3.311-1.618 3.311-4.087 0-2.483-1.304-4.087-3.311-4.087-1.084 0-2.043.535-2.475 1.385h-.117v-4.38h-1.26V158h1.201v-1.26h.117c.498.879 1.436 1.399 2.534 1.399zm-.292-7.038c1.442 0 2.299 1.106 2.299 2.951 0 1.846-.857 2.952-2.299 2.952-1.436 0-2.33-1.128-2.33-2.952 0-1.823.894-2.951 2.33-2.951zm6.453 9.755c1.399 0 2.029-.542 2.703-2.373l3.083-8.379h-1.34l-2.161 6.497h-.117l-2.168-6.497h-1.362l2.922 7.903-.146.469c-.33.952-.725 1.296-1.45 1.296-.176 0-.374-.007-.528-.036v1.076c.176.03.396.044.564.044zm19.221-8.335c-.22-1.406-1.392-2.556-3.31-2.556-2.212 0-3.619 1.597-3.619 4.058 0 2.512 1.414 4.116 3.626 4.116 1.897 0 3.076-1.069 3.303-2.519h-1.274c-.235.893-.974 1.384-2.036 1.384-1.407 0-2.315-1.157-2.315-2.981 0-1.787.894-2.922 2.315-2.922 1.135 0 1.831.637 2.036 1.42h1.274zm2.425 5.479h1.26v-4.673c0-1.333.777-2.226 2.19-2.226 1.194 0 1.824.695 1.824 2.094V158h1.26v-5.112c0-1.853-1.055-2.923-2.725-2.923-1.208 0-2.036.513-2.432 1.385h-.117v-4.38h-1.26V158zm11.757-.967c-.916 0-1.597-.469-1.597-1.274 0-.791.528-1.209 1.729-1.289l2.124-.139v.725c0 1.128-.96 1.977-2.256 1.977zm-.234 1.106c1.054 0 1.918-.461 2.431-1.304h.117V158h1.202v-5.405c0-1.641-1.077-2.63-3.003-2.63-1.685 0-2.93.835-3.099 2.102h1.275c.176-.622.835-.981 1.78-.981 1.179 0 1.787.535 1.787 1.509v.717l-2.278.14c-1.838.11-2.878.923-2.878 2.336 0 1.443 1.135 2.351 2.666 2.351zm6.57-.139h1.26v-4.673c0-1.384.813-2.226 2.073-2.226s1.86.673 1.86 2.094V158h1.26v-5.112c0-1.875-.989-2.923-2.761-2.923-1.209 0-1.978.513-2.373 1.385h-.117v-1.246h-1.202V158zm12.445-1.23c-1.465 0-2.285-1.114-2.285-2.835 0-1.721.82-2.834 2.285-2.834 1.458 0 2.344 1.113 2.344 2.834s-.879 2.835-2.344 2.835zm.059 4.262c2.153 0 3.516-1.128 3.516-2.893v-8.035h-1.202v1.253h-.117c-.454-.85-1.428-1.392-2.534-1.392-2.029 0-3.311 1.604-3.311 3.97s1.268 3.948 3.311 3.948c1.084 0 1.978-.491 2.476-1.362h.117v1.552c0 1.165-.843 1.861-2.256 1.861-1.135 0-1.838-.418-1.978-1.062h-1.333c.191 1.303 1.407 2.16 3.311 2.16zm6.41-3.032h1.259v-7.896h-1.259V158zm.63-9.419a.88.88 0 00.878-.879.881.881 0 00-.878-.879.882.882 0 00-.879.879.88.88 0 00.879.879zm3.524 9.419h1.259v-4.673c0-1.384.813-2.226 2.073-2.226s1.86.673 1.86 2.094V158h1.26v-5.112c0-1.875-.989-2.923-2.761-2.923-1.209 0-1.978.513-2.373 1.385h-.117v-1.246h-1.201V158zm12.444-1.23c-1.464 0-2.285-1.114-2.285-2.835 0-1.721.821-2.834 2.285-2.834 1.458 0 2.344 1.113 2.344 2.834s-.879 2.835-2.344 2.835zm.059 4.262c2.153 0 3.516-1.128 3.516-2.893v-8.035h-1.201v1.253h-.118c-.454-.85-1.428-1.392-2.534-1.392-2.029 0-3.31 1.604-3.31 3.97s1.267 3.948 3.31 3.948c1.084 0 1.978-.491 2.476-1.362h.117v1.552c0 1.165-.842 1.861-2.256 1.861-1.135 0-1.838-.418-1.977-1.062h-1.333c.19 1.303 1.406 2.16 3.31 2.16zm11.633-12.971v2.043h-1.274v1.055h1.274v4.79c0 1.509.652 2.11 2.278 2.11.249 0 .491-.03.74-.074v-1.062c-.235.022-.359.03-.586.03-.821 0-1.172-.396-1.172-1.326v-4.468h1.758v-1.055h-1.758v-2.043h-1.26zm5.487 9.939h1.26v-4.673c0-1.333.776-2.226 2.19-2.226 1.194 0 1.823.695 1.823 2.094V158h1.26v-5.112c0-1.853-1.055-2.923-2.724-2.923-1.209 0-2.037.513-2.432 1.385h-.117v-4.38h-1.26V158zm12.474-6.921c1.253 0 2.088.922 2.117 2.321h-4.351c.095-1.399.974-2.321 2.234-2.321zm2.08 4.878c-.329.695-1.018 1.069-2.036 1.069-1.34 0-2.212-.989-2.278-2.549v-.059h5.677v-.483c0-2.454-1.297-3.97-3.428-3.97-2.168 0-3.56 1.612-3.56 4.095 0 2.497 1.37 4.079 3.56 4.079 1.728 0 2.959-.835 3.325-2.182h-1.26zm15.09-3.436c-.219-1.406-1.391-2.556-3.31-2.556-2.212 0-3.618 1.597-3.618 4.058 0 2.512 1.413 4.116 3.625 4.116 1.897 0 3.076-1.069 3.303-2.519h-1.274c-.235.893-.974 1.384-2.036 1.384-1.407 0-2.315-1.157-2.315-2.981 0-1.787.894-2.922 2.315-2.922 1.135 0 1.831.637 2.036 1.42h1.274zm8.739-2.417h-1.26v4.673c0 1.385-.761 2.212-2.153 2.212-1.26 0-1.787-.659-1.787-2.08v-4.805h-1.26v5.113c0 1.867.923 2.922 2.695 2.922 1.209 0 2.051-.498 2.447-1.377h.117V158h1.201v-7.896zm2.865 7.896h1.26v-4.893c0-1.113.871-1.919 2.072-1.919.25 0 .704.044.806.074v-1.26a5.4 5.4 0 00-.63-.037c-1.047 0-1.955.542-2.19 1.311h-.117v-1.172h-1.201V158zm5.875-5.735c0 1.143.674 1.78 2.153 2.139l1.355.329c.843.205 1.253.572 1.253 1.114 0 .725-.762 1.23-1.824 1.23-1.011 0-1.641-.425-1.853-1.091h-1.296c.139 1.311 1.347 2.153 3.105 2.153 1.795 0 3.164-.974 3.164-2.388 0-1.135-.718-1.779-2.204-2.138l-1.216-.293c-.93-.227-1.37-.564-1.37-1.106 0-.703.733-1.179 1.67-1.179.952 0 1.567.417 1.736 1.047h1.245c-.168-1.296-1.318-2.117-2.974-2.117-1.677 0-2.944.989-2.944 2.3zm11.771 5.874c2.249 0 3.64-1.553 3.64-4.087 0-2.541-1.391-4.087-3.64-4.087-2.248 0-3.64 1.546-3.64 4.087 0 2.534 1.392 4.087 3.64 4.087zm0-1.135c-1.494 0-2.336-1.084-2.336-2.952 0-1.875.842-2.951 2.336-2.951 1.494 0 2.337 1.076 2.337 2.951 0 1.868-.843 2.952-2.337 2.952zm6.11.996h1.259v-4.893c0-1.113.872-1.919 2.073-1.919.249 0 .703.044.806.074v-1.26a5.4 5.4 0 00-.63-.037c-1.047 0-1.956.542-2.19 1.311h-.117v-1.172h-1.201V158zm10.959 0h1.26v-7.896h-1.26V158zm.63-9.419a.882.882 0 00.879-.879.882.882 0 00-.879-.879.882.882 0 00-.879.879.88.88 0 00.879.879zm10.057 3.94c-.22-1.406-1.392-2.556-3.311-2.556-2.212 0-3.618 1.597-3.618 4.058 0 2.512 1.414 4.116 3.626 4.116 1.897 0 3.076-1.069 3.303-2.519h-1.275c-.234.893-.974 1.384-2.036 1.384-1.406 0-2.314-1.157-2.314-2.981 0-1.787.893-2.922 2.314-2.922 1.136 0 1.831.637 2.036 1.42h1.275zm5.597 5.618c2.248 0 3.64-1.553 3.64-4.087 0-2.541-1.392-4.087-3.64-4.087-2.249 0-3.641 1.546-3.641 4.087 0 2.534 1.392 4.087 3.641 4.087zm0-1.135c-1.495 0-2.337-1.084-2.337-2.952 0-1.875.842-2.951 2.337-2.951 1.494 0 2.336 1.076 2.336 2.951 0 1.868-.842 2.952-2.336 2.952zm6.109.996h1.26v-4.673c0-1.384.813-2.226 2.073-2.226 1.259 0 1.86.673 1.86 2.094V158h1.26v-5.112c0-1.875-.989-2.923-2.762-2.923-1.208 0-1.977.513-2.373 1.385h-.117v-1.246h-1.201V158zm23.908-7.896h-1.267l-1.552 6.314h-.118l-1.765-6.314h-1.208l-1.765 6.314h-.118l-1.552-6.314h-1.275l2.212 7.896h1.275l1.757-6.108h.118l1.765 6.108h1.282l2.211-7.896zm2.25 7.896h1.26v-4.673c0-1.333.776-2.226 2.19-2.226 1.194 0 1.823.695 1.823 2.094V158h1.26v-5.112c0-1.853-1.054-2.923-2.724-2.923-1.209 0-2.036.513-2.432 1.385h-.117v-4.38h-1.26V158zm9.354 0h1.26v-7.896h-1.26V158zm.63-9.419a.882.882 0 00.879-.879.882.882 0 00-.879-.879.882.882 0 00-.879.879c0 .484.396.879.879.879zm3.597 9.419h1.26v-11.03h-1.26V158zm7.348-6.921c1.252 0 2.087.922 2.116 2.321h-4.35c.095-1.399.974-2.321 2.234-2.321zm2.08 4.878c-.33.695-1.018 1.069-2.037 1.069-1.34 0-2.211-.989-2.277-2.549v-.059h5.676v-.483c0-2.454-1.296-3.97-3.428-3.97-2.168 0-3.559 1.612-3.559 4.095 0 2.497 1.369 4.079 3.559 4.079 1.729 0 2.959-.835 3.325-2.182h-1.259zm9.23 4.899c1.399 0 2.029-.542 2.703-2.373l3.083-8.379h-1.34l-2.161 6.497h-.117l-2.168-6.497h-1.362l2.922 7.903-.146.469c-.33.952-.725 1.296-1.45 1.296-.176 0-.374-.007-.528-.036v1.076c.176.03.396.044.564.044zm10.914-2.717c2.249 0 3.641-1.553 3.641-4.087 0-2.541-1.392-4.087-3.641-4.087-2.248 0-3.64 1.546-3.64 4.087 0 2.534 1.392 4.087 3.64 4.087zm0-1.135c-1.494 0-2.336-1.084-2.336-2.952 0-1.875.842-2.951 2.336-2.951 1.495 0 2.337 1.076 2.337 2.951 0 1.868-.842 2.952-2.337 2.952zm12.497-6.9h-1.26v4.673c0 1.385-.762 2.212-2.154 2.212-1.259 0-1.787-.659-1.787-2.08v-4.805h-1.259v5.113c0 1.867.922 2.922 2.695 2.922 1.208 0 2.051-.498 2.446-1.377h.117V158h1.202v-7.896zm-434.357 29.929c-.915 0-1.597-.469-1.597-1.274 0-.791.528-1.209 1.729-1.289l2.124-.139v.725c0 1.128-.959 1.977-2.256 1.977zm-.234 1.106c1.054 0 1.919-.461 2.431-1.304h.118V181h1.201v-5.405c0-1.641-1.077-2.63-3.003-2.63-1.685 0-2.93.835-3.098 2.102h1.274c.176-.622.835-.981 1.78-.981 1.179 0 1.787.535 1.787 1.509v.717l-2.278.14c-1.838.11-2.878.923-2.878 2.336 0 1.443 1.135 2.351 2.666 2.351zm6.571-.139h1.259v-4.893c0-1.113.872-1.919 2.073-1.919.249 0 .703.044.806.074v-1.26a5.4 5.4 0 00-.63-.037c-1.047 0-1.956.542-2.19 1.311h-.117v-1.172h-1.201V181zm9.134-6.921c1.252 0 2.087.922 2.117 2.321h-4.351c.095-1.399.974-2.321 2.234-2.321zm2.08 4.878c-.329.695-1.018 1.069-2.036 1.069-1.34 0-2.212-.989-2.278-2.549v-.059h5.676v-.483c0-2.454-1.296-3.97-3.427-3.97-2.168 0-3.56 1.612-3.56 4.095 0 2.497 1.37 4.079 3.56 4.079 1.728 0 2.959-.835 3.325-2.182h-1.26zm8.586 2.043h1.26v-7.896h-1.26V181zm.63-9.419a.88.88 0 00.879-.879.882.882 0 00-.879-.879.882.882 0 00-.879.879c0 .484.396.879.879.879zm3.524 9.419h1.26v-4.673c0-1.384.813-2.226 2.073-2.226 1.259 0 1.86.673 1.86 2.094V181h1.26v-5.112c0-1.875-.989-2.923-2.761-2.923-1.209 0-1.978.513-2.374 1.385h-.117v-1.246h-1.201V181zm16.899.139c1.092 0 2.029-.52 2.527-1.399h.117V181h1.201v-11.03h-1.259v4.38h-.11c-.447-.865-1.377-1.385-2.476-1.385-2.007 0-3.318 1.612-3.318 4.087 0 2.483 1.297 4.087 3.318 4.087zm.293-7.038c1.428 0 2.322 1.142 2.322 2.951 0 1.824-.886 2.952-2.322 2.952-1.443 0-2.307-1.106-2.307-2.952 0-1.838.872-2.951 2.307-2.951zm6.491 6.899h1.259v-4.893c0-1.113.872-1.919 2.073-1.919.249 0 .703.044.806.074v-1.26a5.4 5.4 0 00-.63-.037c-1.048 0-1.956.542-2.19 1.311h-.117v-1.172h-1.201V181zm8.636-.967c-.916 0-1.597-.469-1.597-1.274 0-.791.527-1.209 1.729-1.289l2.124-.139v.725c0 1.128-.96 1.977-2.256 1.977zm-.235 1.106c1.055 0 1.919-.461 2.432-1.304h.117V181h1.201v-5.405c0-1.641-1.076-2.63-3.002-2.63-1.685 0-2.93.835-3.099 2.102h1.275c.176-.622.835-.981 1.78-.981 1.179 0 1.787.535 1.787 1.509v.717l-2.278.14c-1.839.11-2.879.923-2.879 2.336 0 1.443 1.136 2.351 2.666 2.351zm16.137-8.035h-1.267l-1.553 6.314h-.117l-1.765-6.314h-1.209l-1.765 6.314h-.117l-1.553-6.314h-1.274l2.212 7.896h1.274l1.758-6.108h.117l1.765 6.108h1.282l2.212-7.896zm2.205 7.896h1.26v-7.896h-1.26V181zm.63-9.419a.88.88 0 00.879-.879.882.882 0 00-.879-.879.882.882 0 00-.879.879c0 .484.396.879.879.879zm3.524 9.419h1.26v-4.673c0-1.384.813-2.226 2.073-2.226s1.86.673 1.86 2.094V181h1.26v-5.112c0-1.875-.989-2.923-2.761-2.923-1.209 0-1.978.513-2.373 1.385h-.118v-1.246h-1.201V181zm12.445-1.23c-1.465 0-2.285-1.114-2.285-2.835 0-1.721.82-2.834 2.285-2.834 1.458 0 2.344 1.113 2.344 2.834s-.879 2.835-2.344 2.835zm.059 4.262c2.153 0 3.515-1.128 3.515-2.893v-8.035h-1.201v1.253h-.117c-.454-.85-1.428-1.392-2.534-1.392-2.029 0-3.311 1.604-3.311 3.97s1.267 3.948 3.311 3.948c1.084 0 1.977-.491 2.475-1.362h.118v1.552c0 1.165-.843 1.861-2.256 1.861-1.135 0-1.839-.418-1.978-1.062h-1.333c.191 1.303 1.407 2.16 3.311 2.16zM272.098 181h1.26v-4.893c0-1.113.799-2.006 1.831-2.006.996 0 1.648.6 1.648 1.538V181h1.26v-5.076c0-1.003.732-1.823 1.831-1.823 1.113 0 1.663.571 1.663 1.735V181h1.259v-5.457c0-1.655-.9-2.578-2.512-2.578-1.091 0-1.992.55-2.417 1.385h-.117c-.366-.821-1.113-1.385-2.183-1.385-1.054 0-1.845.506-2.204 1.385h-.117v-1.246h-1.202V181zm16.789.139c2.248 0 3.64-1.553 3.64-4.087 0-2.541-1.392-4.087-3.64-4.087-2.249 0-3.641 1.546-3.641 4.087 0 2.534 1.392 4.087 3.641 4.087zm0-1.135c-1.495 0-2.337-1.084-2.337-2.952 0-1.875.842-2.951 2.337-2.951 1.494 0 2.336 1.076 2.336 2.951 0 1.868-.842 2.952-2.336 2.952zm9.031 1.135c1.092 0 2.029-.52 2.527-1.399h.117V181h1.202v-11.03h-1.26v4.38h-.11c-.447-.865-1.377-1.385-2.476-1.385-2.006 0-3.317 1.612-3.317 4.087 0 2.483 1.296 4.087 3.317 4.087zm.293-7.038c1.429 0 2.322 1.142 2.322 2.951 0 1.824-.886 2.952-2.322 2.952-1.442 0-2.307-1.106-2.307-2.952 0-1.838.872-2.951 2.307-2.951zm9.64-.022c1.253 0 2.088.922 2.117 2.321h-4.351c.095-1.399.974-2.321 2.234-2.321zm2.08 4.878c-.329.695-1.018 1.069-2.036 1.069-1.34 0-2.212-.989-2.278-2.549v-.059h5.677v-.483c0-2.454-1.297-3.97-3.428-3.97-2.168 0-3.56 1.612-3.56 4.095 0 2.497 1.37 4.079 3.56 4.079 1.728 0 2.959-.835 3.325-2.182h-1.26zm4.872 2.116a.955.955 0 00.952-.952.95.95 0 00-.952-.952.955.955 0 00-.952.952c0 .52.432.952.952.952z" fill="#454545"/>
  <path d="M165.188 227.5c2.106 0 3.412-1.087 3.412-2.823 0-1.306-.985-2.283-2.325-2.386v-.055a2.175 2.175 0 001.853-2.139c0-1.511-1.162-2.461-3.015-2.461h-4.293v9.864h4.368zm-2.303-8.326h1.695c.964 0 1.518.451 1.518 1.244 0 .834-.629 1.319-1.73 1.319h-1.483v-2.563zm0 6.788v-2.864h1.729c1.217 0 1.88.492 1.88 1.415 0 .943-.642 1.449-1.832 1.449h-1.777zm9.55.212c-.677 0-1.128-.342-1.128-.889 0-.519.423-.854 1.169-.909l1.545-.096v.533c0 .793-.718 1.361-1.586 1.361zm-.657 1.442c.916 0 1.826-.458 2.236-1.237h.041v1.121h1.927v-5.038c0-1.477-1.223-2.447-3.103-2.447-1.941 0-3.151.977-3.227 2.399h1.826c.095-.54.567-.909 1.312-.909.752 0 1.231.396 1.231 1.08v.485l-1.846.11c-1.825.109-2.851.882-2.851 2.215 0 1.319 1.06 2.221 2.454 2.221zm5.496-.116h1.997v-4.095c0-1.032.574-1.634 1.558-1.634.287 0 .561.048.725.117v-1.757a2.038 2.038 0 00-.568-.075c-.861 0-1.483.506-1.743 1.435h-.041v-1.319h-1.928v7.328zm8.217.157c2.215 0 3.63-1.415 3.63-3.828 0-2.379-1.435-3.814-3.63-3.814-2.194 0-3.63 1.442-3.63 3.814 0 2.406 1.415 3.828 3.63 3.828zm0-1.524c-.984 0-1.606-.827-1.606-2.297 0-1.456.636-2.297 1.606-2.297.971 0 1.6.841 1.6 2.297 0 1.47-.622 2.297-1.6 2.297zm4.662 1.367h1.996v-4.204c0-.95.568-1.607 1.463-1.607.896 0 1.347.547 1.347 1.504v4.307h1.996v-4.724c0-1.715-.916-2.741-2.543-2.741-1.128 0-1.9.533-2.29 1.443h-.041v-1.306h-1.928v7.328zm10.302 0v-3.883h4.013v-1.634h-4.013v-2.645h4.396v-1.702h-6.46v9.864h2.064zm5.483 0h1.996v-7.328h-1.996v7.328zm.991-8.319c.581 0 1.039-.465 1.039-1.026 0-.567-.458-1.025-1.039-1.025s-1.039.458-1.039 1.025c0 .561.458 1.026 1.039 1.026zm5.721 6.76c-.991 0-1.606-.779-1.606-2.119 0-1.333.622-2.167 1.606-2.167.998 0 1.634.848 1.634 2.167 0 1.326-.636 2.119-1.634 2.119zm-.034 4.321c2.195 0 3.657-1.115 3.657-2.865v-7.225h-1.968v1.278h-.034c-.383-.841-1.21-1.394-2.263-1.394-1.86 0-3.008 1.428-3.008 3.753 0 2.29 1.183 3.67 2.974 3.67 1.059 0 1.921-.533 2.262-1.312h.041v1.285c0 .848-.574 1.422-1.606 1.422-.759 0-1.333-.349-1.49-.854h-1.955c.157 1.305 1.462 2.242 3.39 2.242z" fill="#029D7F"/>
  <rect x="240" y="208.5" width="97" height="28" rx="14" fill="#029D7F"/>
  <path d="M326.835 225.04l-3.539-3.54 3.539-3.54a.561.561 0 10-.795-.795l-3.54 3.539-3.54-3.539a.561.561 0 10-.795.796l3.539 3.539-3.539 3.54a.561.561 0 10.796.795l3.539-3.539 3.54 3.539a.561.561 0 10.795-.795zm-64.193.96v-9.864h-2.427l-2.735 6.802h-.123l-2.727-6.802h-2.434V226h1.914v-6.679h.11l2.515 6.194h1.374l2.509-6.194h.11V226h1.914zm7.56-2.126c-.212.513-.752.8-1.538.8-1.039 0-1.696-.718-1.723-1.866v-.103h5.175v-.595c0-2.379-1.313-3.8-3.534-3.8-2.243 0-3.623 1.517-3.623 3.964 0 2.434 1.353 3.883 3.65 3.883 1.846 0 3.151-.882 3.445-2.283h-1.852zm-1.614-4.081c.93 0 1.532.643 1.573 1.675h-3.213c.068-1.012.718-1.675 1.64-1.675zm6.221-3.117v1.866h-1.176v1.511h1.176v3.917c0 1.463.724 2.057 2.556 2.057.383 0 .752-.041.998-.089v-1.469c-.191.02-.328.034-.587.034-.677 0-.978-.315-.978-.991v-3.459h1.565v-1.511h-1.565v-1.866h-1.989zm5.707 9.324h1.99v-4.211c0-1.06.745-1.709 1.832-1.709.321 0 .786.055.943.109v-1.75c-.171-.054-.506-.088-.779-.088-.957 0-1.737.567-1.935 1.319h-.123v-1.196h-1.928V226zm7.602-8.682c.615 0 1.121-.492 1.121-1.107 0-.622-.506-1.114-1.121-1.114-.616 0-1.128.492-1.128 1.114a1.12 1.12 0 001.128 1.107zm-.999 8.682h1.99v-7.526h-1.99V226zm11.17-4.901c-.164-1.682-1.36-2.789-3.356-2.789-2.359 0-3.685 1.428-3.685 3.91 0 2.509 1.333 3.937 3.685 3.937 1.961 0 3.192-1.08 3.356-2.734h-1.859c-.151.752-.684 1.155-1.497 1.155-1.067 0-1.675-.841-1.675-2.358 0-1.497.601-2.324 1.675-2.324.847 0 1.36.478 1.497 1.203h1.859zm1.879-.431c0 1.155.711 1.846 2.174 2.167l1.368.308c.663.15.95.382.95.765 0 .499-.534.841-1.306.841-.793 0-1.278-.308-1.429-.827h-1.941c.137 1.422 1.34 2.235 3.329 2.235 1.976 0 3.322-.97 3.322-2.461 0-1.121-.656-1.736-2.119-2.057l-1.415-.308c-.697-.157-1.018-.396-1.018-.779 0-.492.526-.827 1.237-.827.738 0 1.196.307 1.299.806h1.839c-.11-1.422-1.238-2.221-3.152-2.221-1.88 0-3.138.95-3.138 2.358z" fill="#fff"/>
  <rect x="344" y="208.5" width="79" height="28" rx="14" fill="#029D7F"/>
  <path d="M412.835 225.04l-3.539-3.54 3.539-3.54a.561.561 0 10-.795-.795l-3.54 3.539-3.54-3.539a.561.561 0 10-.795.796l3.539 3.539-3.539 3.54a.561.561 0 10.796.795l3.539-3.539 3.54 3.539a.561.561 0 10.795-.795zm-47.828-5.568h.109l1.866 6.528h1.935l2.618-9.864h-2.133l-1.524 6.952h-.109l-1.832-6.952h-1.744l-1.797 6.952h-.11l-1.538-6.952h-2.146l2.611 9.864h1.948l1.846-6.528zM373.64 226h1.989v-7.54h-1.989V226zm.998-8.668c.622 0 1.128-.506 1.128-1.142 0-.635-.506-1.134-1.128-1.134a1.13 1.13 0 00-1.128 1.134c0 .636.513 1.142 1.128 1.142zm3.5 8.668h1.989v-4.348c0-.991.568-1.64 1.49-1.64.944 0 1.388.547 1.388 1.586V226h1.989v-4.874c0-1.805-.902-2.83-2.577-2.83-1.114 0-1.88.526-2.228 1.374h-.123v-1.21h-1.928V226zm9.112-5.325c0 1.162.711 1.859 2.174 2.18l1.367.308c.663.144.95.369.95.738 0 .486-.533.807-1.306.807-.793 0-1.278-.294-1.428-.807h-1.942c.137 1.45 1.34 2.263 3.329 2.263 1.976 0 3.323-.984 3.323-2.488 0-1.128-.657-1.743-2.12-2.065l-1.415-.307c-.697-.158-1.018-.383-1.018-.752 0-.479.526-.8 1.237-.8.738 0 1.196.301 1.299.786h1.839c-.11-1.442-1.237-2.242-3.152-2.242-1.879 0-3.137.95-3.137 2.379z" fill="#fff"/>
  <path d="M165.182 265.671c2.42 0 4.108-1.395 4.34-3.596h-2.009c-.219 1.169-1.101 1.887-2.325 1.887-1.579 0-2.57-1.299-2.57-3.404 0-2.079 1.005-3.384 2.564-3.384 1.203 0 2.132.793 2.324 2.003h2.01c-.158-2.208-1.962-3.712-4.334-3.712-2.858 0-4.669 1.921-4.669 5.099 0 3.186 1.798 5.107 4.669 5.107zm8.811-.014c2.215 0 3.63-1.415 3.63-3.828 0-2.379-1.435-3.814-3.63-3.814-2.194 0-3.63 1.442-3.63 3.814 0 2.406 1.415 3.828 3.63 3.828zm0-1.524c-.984 0-1.606-.827-1.606-2.297 0-1.456.635-2.297 1.606-2.297.971 0 1.6.841 1.6 2.297 0 1.47-.622 2.297-1.6 2.297zm8.026 1.524c2.214 0 3.629-1.415 3.629-3.828 0-2.379-1.435-3.814-3.629-3.814-2.195 0-3.63 1.442-3.63 3.814 0 2.406 1.415 3.828 3.63 3.828zm0-1.524c-.985 0-1.607-.827-1.607-2.297 0-1.456.636-2.297 1.607-2.297.97 0 1.599.841 1.599 2.297 0 1.47-.622 2.297-1.599 2.297zm8.941-6.077c-1.06 0-1.873.533-2.27 1.394h-.041v-1.278h-1.968v9.721h1.996v-3.623h.041c.389.827 1.21 1.346 2.276 1.346 1.832 0 2.967-1.422 2.967-3.78 0-2.365-1.142-3.78-3.001-3.78zm-.67 5.954c-.978 0-1.62-.848-1.62-2.174 0-1.313.642-2.181 1.62-2.181.998 0 1.627.855 1.627 2.181 0 1.333-.629 2.174-1.627 2.174zm7.991-4.519c.889 0 1.497.643 1.538 1.579h-3.11c.068-.916.697-1.579 1.572-1.579zm1.566 3.767c-.185.56-.745.923-1.477.923-1.018 0-1.682-.718-1.682-1.764v-.123h5.052v-.608c0-2.229-1.346-3.671-3.479-3.671-2.167 0-3.534 1.517-3.534 3.855 0 2.345 1.353 3.787 3.609 3.787 1.811 0 3.124-.964 3.343-2.399h-1.832zm2.925 2.242h1.997v-4.095c0-1.032.574-1.634 1.558-1.634.287 0 .561.048.725.117v-1.757a2.038 2.038 0 00-.568-.075c-.861 0-1.483.506-1.743 1.435h-.041v-1.319h-1.928v7.328zm9.079 0v-8.162h2.857v-1.702h-7.772v1.702h2.85v8.162h2.065zm5.578.157c2.215 0 3.63-1.415 3.63-3.828 0-2.379-1.436-3.814-3.63-3.814-2.195 0-3.63 1.442-3.63 3.814 0 2.406 1.415 3.828 3.63 3.828zm0-1.524c-.985 0-1.607-.827-1.607-2.297 0-1.456.636-2.297 1.607-2.297.97 0 1.599.841 1.599 2.297 0 1.47-.622 2.297-1.599 2.297zm4.662 1.367h1.996v-4.204c0-.95.567-1.607 1.463-1.607.895 0 1.346.547 1.346 1.504v4.307h1.997v-4.724c0-1.715-.916-2.741-2.543-2.741-1.128 0-1.901.533-2.29 1.443h-.041v-1.306h-1.928v7.328z" fill="#029D7F"/>
  <rect x="241" y="246.5" width="93" height="28" rx="14" fill="#029D7F"/>
  <path d="M323.835 263.54l-3.539-3.54 3.539-3.54a.561.561 0 10-.795-.795l-3.54 3.539-3.54-3.539a.561.561 0 10-.795.796l3.539 3.539-3.539 3.54a.561.561 0 10.796.795l3.539-3.539 3.54 3.539a.561.561 0 10.795-.795zm-62.971-3.066v-1.258h-4.142v1.552h2.139l-.007.177c-.041 1.19-.977 1.99-2.331 1.99-1.627 0-2.652-1.286-2.652-3.398 0-2.071.978-3.336 2.57-3.336 1.149 0 1.976.581 2.284 1.579h2.05c-.287-2.051-2.003-3.397-4.334-3.397-2.871 0-4.682 1.996-4.682 5.175 0 3.226 1.798 5.195 4.73 5.195 2.694 0 4.375-1.641 4.375-4.279zm2.276 4.026h1.989v-4.177c0-1.059.746-1.702 1.833-1.702.321 0 .786.062.943.123v-1.811c-.171-.062-.506-.096-.779-.096-.957 0-1.737.574-1.935 1.326h-.123v-1.203h-1.928v7.54zm9.755.164c2.317 0 3.712-1.47 3.712-3.937 0-2.448-1.415-3.931-3.712-3.931s-3.712 1.49-3.712 3.931c0 2.467 1.394 3.937 3.712 3.937zm0-1.627c-1.067 0-1.668-.841-1.668-2.31 0-1.45.608-2.304 1.668-2.304 1.052 0 1.668.854 1.668 2.304 0 1.462-.609 2.31-1.668 2.31zm15.961-6.077h-1.975l-1.121 5.407h-.124l-1.326-5.407h-1.9l-1.319 5.407h-.123l-1.122-5.407h-2.016l2.01 7.54h2.091l1.333-5.202h.123l1.347 5.202h2.119l2.003-7.54zm2.481-1.791v1.866h-1.176v1.566h1.176v3.862c0 1.47.725 2.064 2.557 2.064.383 0 .752-.041.998-.089v-1.517c-.191.02-.328.027-.588.027-.677 0-.977-.301-.977-.957v-3.39h1.565v-1.566h-1.565v-1.866h-1.99zm5.776 9.331h1.989v-4.327c0-.978.575-1.641 1.573-1.641.902 0 1.387.54 1.387 1.586v4.382h1.99v-4.854c0-1.811-.964-2.83-2.584-2.83-1.108 0-1.928.52-2.277 1.381h-.123v-4.115h-1.955V264.5z" fill="#fff"/>
  <path stroke="#E9E9E9" d="M161 292.5h447"/>
  <path fill-rule="evenodd" clip-rule="evenodd" d="M525 313a4 4 0 014-4h75a4 4 0 014 4v30.465a4 4 0 01-4 4h-75a4 4 0 01-4-4V313z" fill="#251A3F"/>
  <path d="M552.233 322.646v9.864h2.509v-2.892h1.613c2.195 0 3.706-1.374 3.706-3.479 0-2.119-1.436-3.493-3.555-3.493h-4.273zm2.509 1.92h1.101c1.053 0 1.681.554 1.681 1.58 0 1.032-.628 1.585-1.695 1.585h-1.087v-3.165zm9.659 8.122c2.345 0 3.808-1.416 3.808-3.904 0-2.44-1.483-3.896-3.808-3.896-2.31 0-3.807 1.463-3.807 3.896 0 2.482 1.463 3.904 3.807 3.904zm0-1.778c-.834 0-1.346-.759-1.346-2.119 0-1.34.526-2.126 1.346-2.126.828 0 1.354.786 1.354 2.126 0 1.36-.526 2.119-1.354 2.119zm4.621-3.589c0 1.135.752 1.901 2.215 2.188l1.306.26c.677.136.916.314.916.649 0 .39-.397.636-1.039.636-.704 0-1.121-.308-1.224-.862h-2.351c.13 1.497 1.36 2.496 3.575 2.496 2.044 0 3.438-.992 3.438-2.537 0-1.114-.683-1.729-2.269-2.037l-1.313-.26c-.711-.143-.929-.348-.929-.669 0-.404.396-.664.984-.664.67 0 1.06.37 1.107.896h2.215c-.041-1.531-1.271-2.529-3.322-2.529-2.037 0-3.309.943-3.309 2.433zm8.306-3.924v1.668h-1.012v1.785h1.012v3.616c0 1.463.766 2.057 2.7 2.057a5.52 5.52 0 001.06-.088v-1.723a2.527 2.527 0 01-.479.034c-.581 0-.854-.26-.854-.772v-3.124h1.34v-1.785h-1.34v-1.668h-2.427z" fill="#fff"/>
  <path stroke="#E2E2E2" d="M307.5 315v24"/>
  <path fill-rule="evenodd" clip-rule="evenodd" d="M277.889 326.111v-6.222A.888.888 0 00277 319a.887.887 0 00-.889.889v6.222h-6.222A.888.888 0 00269 327c0 .494.398.889.889.889h6.222v6.222c0 .493.398.889.889.889a.887.887 0 00.889-.889v-6.222h6.222A.888.888 0 00285 327a.887.887 0 00-.889-.889h-6.222z" fill="#251A3F"/>
  <path d="M181.258 320.054c0-1.134-.824-2.054-1.841-2.054h-17.576c-1.017 0-1.841.92-1.841 2.054v13.892c0 1.134.824 2.054 1.841 2.054h17.576c1.017 0 1.841-.92 1.841-2.054v-13.892zm-19.4-.88h17.586c.434 0 .806.391.806.875v11.696l-4.642-3.644c-.749-.592-1.757-.485-2.393.254l-1.657 1.922-3.914-2.71a1.71 1.71 0 00-2.126.137l-4.466 3.962v-11.617c0-.484.373-.875.806-.875zm-.806 14.777v-.783l5.124-4.534a.732.732 0 01.912-.059l3.725 2.578-3.164 3.673h-5.791c-.433 0-.806-.391-.806-.875zm18.392.875h-10.34l4.865-5.659a.736.736 0 011.035-.108l5.246 4.124v.763c0 .489-.372.88-.806.88z" fill="#251A3F"/>
  <path d="M172 327c1.653 0 3-1.347 3-3s-1.347-3-3-3-3 1.347-3 3 1.347 3 3 3zm0-4.845a1.85 1.85 0 010 3.7 1.85 1.85 0 010-3.7z" fill="#251A3F"/>
  <path fill-rule="evenodd" clip-rule="evenodd" d="M251 318h-16a1 1 0 00-1 1v16a1 1 0 001 1h16a1 1 0 001-1v-16a1 1 0 00-1-1zm-16-1a2 2 0 00-2 2v16a2 2 0 002 2h16a2 2 0 002-2v-16a2 2 0 00-2-2h-16z" fill="#251A3F"/>
  <path d="M242.329 331h2.144v2h-2.144v-2zm-2.544-5.792c0-.587.085-1.12.256-1.6.181-.48.437-.891.768-1.232a3.447 3.447 0 011.216-.784 4.272 4.272 0 011.6-.288c.491 0 .944.074 1.36.224.427.138.795.346 1.104.624.32.266.571.602.752 1.008.181.405.272.864.272 1.376 0 .373-.043.698-.128.976a2.377 2.377 0 01-.32.704 2.998 2.998 0 01-.448.528l-.512.448c-.203.17-.389.336-.56.496-.171.16-.32.341-.448.544a2.403 2.403 0 00-.304.688 4.244 4.244 0 00-.096.976h-1.728c0-.47.021-.864.064-1.184.053-.331.133-.619.24-.864.107-.246.235-.459.384-.64.16-.192.347-.379.56-.56.171-.15.331-.288.48-.416.16-.128.299-.267.416-.416a1.7 1.7 0 00.288-.528c.075-.192.112-.422.112-.688 0-.32-.059-.592-.176-.816a1.6 1.6 0 00-.4-.56 1.585 1.585 0 00-.512-.304 1.465 1.465 0 00-.48-.096c-.661 0-1.152.218-1.472.656-.309.426-.464 1.002-.464 1.728h-1.824zM207 317c-5.514 0-10 4.486-10 10s4.486 10 10 10 10-4.486 10-10-4.486-10-10-10zm0 18.889c-4.901 0-8.889-3.988-8.889-8.889s3.988-8.889 8.889-8.889 8.889 3.988 8.889 8.889-3.988 8.889-8.889 8.889z" fill="#251A3F"/>
  <path d="M210.946 326.396a1.263 1.263 0 100-2.526 1.263 1.263 0 000 2.526zm-7.892 0a1.264 1.264 0 10-.001-2.527 1.264 1.264 0 00.001 2.527zm7.523 2.605c-2.006 1.788-5.148 1.788-7.154 0a.555.555 0 10-.739.83c1.21 1.078 2.763 1.618 4.316 1.618s3.106-.539 4.316-1.618a.556.556 0 00-.739-.83z" fill="#251A3F"/>
  <path d="M440.088 331.893h-4.758v-8.757h-1.231V333h5.989v-1.107zm2.337 1.107h1.176v-7.369h-1.176V333zm.588-8.791c.451 0 .82-.369.82-.82a.823.823 0 00-.82-.821c-.451 0-.82.37-.82.821 0 .451.369.82.82.82zm6.302 7.643c-1.367 0-2.133-1.04-2.133-2.646 0-1.606.766-2.645 2.133-2.645 1.361 0 2.188 1.039 2.188 2.645s-.821 2.646-2.188 2.646zm.055 3.978c2.01 0 3.281-1.053 3.281-2.7v-7.499h-1.121v1.169h-.109c-.424-.793-1.333-1.299-2.365-1.299-1.894 0-3.09 1.497-3.09 3.705s1.182 3.685 3.09 3.685c1.011 0 1.845-.458 2.31-1.272h.109v1.449c0 1.087-.786 1.737-2.105 1.737-1.06 0-1.716-.39-1.846-.992h-1.244c.178 1.217 1.313 2.017 3.09 2.017zm6.056-2.83h1.176v-4.361c0-1.244.725-2.078 2.044-2.078 1.114 0 1.702.649 1.702 1.955V333h1.176v-4.771c0-1.73-.984-2.728-2.543-2.728-1.128 0-1.9.478-2.27 1.292h-.109v-4.088h-1.176V333zm9.228-9.276v1.907h-1.189v.984h1.189v4.471c0 1.408.609 1.969 2.126 1.969.233 0 .458-.028.691-.069v-.991a4.85 4.85 0 01-.547.027c-.766 0-1.094-.369-1.094-1.237v-4.17h1.641v-.984h-1.641v-1.907h-1.176zm9.529 9.276h1.176v-4.566c0-1.039.813-1.791 1.934-1.791.233 0 .656.041.752.068v-1.176a5.155 5.155 0 00-.588-.034c-.977 0-1.825.506-2.044 1.224h-.109v-1.094h-1.121V333zm8.558-6.46c1.169 0 1.948.861 1.976 2.167h-4.061c.089-1.306.909-2.167 2.085-2.167zm1.941 4.553c-.307.649-.95.998-1.9.998-1.251 0-2.064-.923-2.126-2.379v-.055h5.298v-.451c0-2.29-1.21-3.705-3.199-3.705-2.024 0-3.323 1.504-3.323 3.821 0 2.331 1.279 3.808 3.323 3.808 1.613 0 2.761-.779 3.103-2.037h-1.176zm5.879 1.005c-.855 0-1.49-.438-1.49-1.19 0-.738.492-1.128 1.613-1.203l1.982-.13v.677c0 1.053-.895 1.846-2.105 1.846zm-.219 1.032c.985 0 1.791-.431 2.27-1.217h.109V333h1.121v-5.045c0-1.531-1.005-2.454-2.803-2.454-1.572 0-2.734.779-2.891 1.962h1.189c.164-.581.78-.916 1.661-.916 1.101 0 1.668.499 1.668 1.408v.67l-2.126.13c-1.715.102-2.686.861-2.686 2.181 0 1.346 1.059 2.194 2.488 2.194zm8.893 0c1.019 0 1.894-.485 2.359-1.306h.109V333h1.121v-10.295h-1.176v4.088h-.102c-.417-.807-1.285-1.292-2.311-1.292-1.873 0-3.096 1.504-3.096 3.814 0 2.318 1.21 3.815 3.096 3.815zm.274-6.569c1.333 0 2.167 1.066 2.167 2.754 0 1.703-.827 2.755-2.167 2.755-1.347 0-2.154-1.032-2.154-2.755 0-1.715.814-2.754 2.154-2.754zm-76.31.406a.626.626 0 00-.913 0l-2.701 2.796-.865-.907a.633.633 0 00-.912-.005.694.694 0 00-.008.951l1.322 1.385a.627.627 0 00.913.001l3.161-3.269a.697.697 0 00.004-.949l-.001-.003z" fill="#029D24"/>
  <path d="M427.411 325.584a7.532 7.532 0 00-3.994-3.993A7.43 7.43 0 00420.5 321c-4.135.001-7.5 3.366-7.5 7.501s3.365 7.499 7.5 7.499 7.5-3.364 7.5-7.499a7.425 7.425 0 00-.589-2.917zm-6.911 9.176a6.267 6.267 0 01-6.26-6.259 6.267 6.267 0 016.26-6.259 6.267 6.267 0 016.26 6.259 6.267 6.267 0 01-6.26 6.259z" fill="#029D24"/>
  <path stroke="#E9E9E9" d="M160 365.465h447"/>
  <rect x="160" y="384.465" width="109" height="35" rx="15" fill="#F4F4F4"/>
  <path d="M198.26 405.5v-9.864h-2.427l-2.734 6.658h-.123l-2.728-6.658h-2.433v9.864h1.914v-6.597h.109l2.516 6.064h1.374l2.509-6.064h.109v6.597h1.914zm5.947-6.18c.93 0 1.531.622 1.572 1.62h-3.213c.069-.977.718-1.62 1.641-1.62zm1.613 4.034c-.212.499-.752.779-1.538.779-1.039 0-1.695-.697-1.722-1.819v-.102h5.174v-.608c0-2.393-1.312-3.808-3.534-3.808-2.242 0-3.623 1.517-3.623 3.972 0 2.447 1.354 3.896 3.651 3.896 1.845 0 3.151-.895 3.445-2.31h-1.853zm4.607-7.185v1.866h-1.175v1.566h1.175v3.862c0 1.47.725 2.064 2.557 2.064.383 0 .752-.041.998-.089v-1.517c-.191.02-.328.027-.588.027-.677 0-.977-.301-.977-.957v-3.39h1.565v-1.566h-1.565v-1.866h-1.99zm5.708 9.331h1.989v-4.177c0-1.059.745-1.702 1.832-1.702.322 0 .786.062.944.123v-1.811c-.171-.062-.506-.096-.78-.096-.957 0-1.736.574-1.934 1.326h-.123v-1.203h-1.928v7.54zm6.603 0h1.989v-7.54h-1.989v7.54zm.998-8.668c.622 0 1.128-.506 1.128-1.142 0-.635-.506-1.134-1.128-1.134a1.13 1.13 0 00-1.128 1.134c0 .636.513 1.142 1.128 1.142zm10.172 3.787c-.164-1.716-1.361-2.823-3.357-2.823-2.358 0-3.684 1.415-3.684 3.917 0 2.529 1.333 3.951 3.684 3.951 1.962 0 3.193-1.087 3.357-2.775h-1.86c-.15.745-.683 1.141-1.497 1.141-1.066 0-1.675-.813-1.675-2.317 0-1.484.602-2.283 1.675-2.283.848 0 1.361.471 1.497 1.189h1.86zm1.879-.444c0 1.162.711 1.859 2.174 2.18l1.367.308c.663.144.95.369.95.738 0 .486-.533.807-1.305.807-.793 0-1.279-.294-1.429-.807h-1.941c.136 1.45 1.339 2.263 3.329 2.263 1.975 0 3.322-.984 3.322-2.488 0-1.128-.656-1.743-2.119-2.065l-1.415-.307c-.698-.158-1.019-.383-1.019-.752 0-.479.527-.8 1.237-.8.739 0 1.197.301 1.299.786h1.839c-.109-1.442-1.237-2.242-3.151-2.242-1.88 0-3.138.95-3.138 2.379z" fill="#999"/>
  <rect x="273.5" y="384.465" width="109" height="35" rx="15" fill="#DEDEDE"/>
  <rect x="273.5" y="384.465" width="109" height="35" rx="15" fill="#F4F4F4"/>
  <path d="M312.772 405.753c2.378 0 4.115-1.47 4.286-3.603h-2.01c-.198 1.087-1.087 1.785-2.27 1.785-1.558 0-2.522-1.292-2.522-3.371 0-2.078.964-3.363 2.516-3.363 1.175 0 2.071.745 2.269 1.88h2.01c-.151-2.146-1.942-3.698-4.279-3.698-2.865 0-4.628 1.975-4.628 5.181 0 3.213 1.77 5.189 4.628 5.189zm6.548-.253h1.989v-4.327c0-.978.574-1.641 1.572-1.641.903 0 1.388.54 1.388 1.586v4.382h1.989v-4.854c0-1.811-.963-2.83-2.584-2.83-1.107 0-1.927.52-2.276 1.381h-.123v-4.115h-1.955V405.5zm12.085-1.381c-.69 0-1.175-.342-1.175-.902 0-.54.417-.848 1.271-.909l1.525-.096v.554c0 .765-.698 1.353-1.621 1.353zm-.656 1.497c.978 0 1.798-.41 2.188-1.1h.123v.984h1.928v-5.147c0-1.614-1.128-2.557-3.125-2.557-1.893 0-3.171.875-3.301 2.269h1.832c.164-.451.642-.697 1.36-.697.82 0 1.272.356 1.272.985v.615l-1.826.109c-1.873.11-2.919.902-2.919 2.27 0 1.381 1.019 2.269 2.468 2.269zm6.685-.116h1.99v-4.177c0-1.059.745-1.702 1.832-1.702.321 0 .786.062.943.123v-1.811c-.171-.062-.506-.096-.779-.096-.957 0-1.737.574-1.935 1.326h-.123v-1.203h-1.928v7.54zm7.472-9.331v1.866h-1.176v1.566h1.176v3.862c0 1.47.724 2.064 2.556 2.064.383 0 .752-.041.998-.089v-1.517c-.191.02-.328.027-.588.027-.676 0-.977-.301-.977-.957v-3.39h1.565v-1.566h-1.565v-1.866h-1.989z" fill="#999"/>
  <rect x="387" y="384.465" width="109" height="35" rx="15" fill="#DEDEDE"/>
  <rect x="387" y="384.465" width="109" height="35" rx="15" fill="#F4F4F4"/>
  <path d="M429.129 395.636v9.864h2.064v-3.062h1.948c2.079 0 3.521-1.361 3.521-3.391 0-2.051-1.388-3.411-3.418-3.411h-4.115zm2.064 1.695h1.504c1.19 0 1.866.602 1.866 1.723 0 1.107-.69 1.709-1.873 1.709h-1.497v-3.432zm10.801 8.333c2.317 0 3.711-1.47 3.711-3.937 0-2.448-1.415-3.931-3.711-3.931-2.297 0-3.712 1.49-3.712 3.931 0 2.467 1.394 3.937 3.712 3.937zm0-1.627c-1.067 0-1.668-.841-1.668-2.31 0-1.45.608-2.304 1.668-2.304 1.052 0 1.668.854 1.668 2.304 0 1.462-.609 2.31-1.668 2.31zm5.899 1.463h1.989v-10.418h-1.989V405.5zm4.62 0h1.99v-10.418h-1.99V405.5z" fill="#999"/>
  <rect x="500.5" y="384.465" width="109" height="35" rx="15" fill="#DEDEDE"/>
  <rect x="500.5" y="384.465" width="109" height="35" rx="15" fill="#F4F4F4"/>
  <path d="M527.215 405.5v-8.101h2.96v-1.763h-7.984v1.763h2.96v8.101h2.064zm7.041-6.18c.93 0 1.531.622 1.572 1.62h-3.213c.069-.977.718-1.62 1.641-1.62zm1.613 4.034c-.212.499-.752.779-1.538.779-1.039 0-1.695-.697-1.722-1.819v-.102h5.174v-.608c0-2.393-1.312-3.808-3.534-3.808-2.242 0-3.623 1.517-3.623 3.972 0 2.447 1.354 3.896 3.651 3.896 1.845 0 3.151-.895 3.445-2.31h-1.853zm4.04 2.146h1.989v-4.539c0-.841.554-1.449 1.333-1.449.78 0 1.244.458 1.244 1.258v4.73h1.914v-4.614c0-.8.52-1.374 1.327-1.374.84 0 1.257.444 1.257 1.34v4.648h1.99v-5.175c0-1.552-.937-2.529-2.441-2.529-1.052 0-1.921.554-2.269 1.394h-.123c-.301-.875-1.026-1.394-2.085-1.394-.991 0-1.778.533-2.085 1.394h-.123v-1.23h-1.928v7.54zm17.835-7.663c-1.039 0-1.894.513-2.304 1.36h-.123v-1.237h-1.928v10.042h1.989v-3.657h.123c.37.8 1.197 1.271 2.277 1.271 1.886 0 3.042-1.456 3.042-3.889 0-2.441-1.169-3.89-3.076-3.89zm-.677 6.118c-1.053 0-1.709-.841-1.709-2.222 0-1.38.656-2.228 1.716-2.228 1.059 0 1.702.841 1.702 2.222 0 1.394-.636 2.228-1.709 2.228zM563 405.5h1.989v-10.418H563V405.5zm7.273-1.381c-.69 0-1.176-.342-1.176-.902 0-.54.417-.848 1.272-.909l1.524-.096v.554c0 .765-.697 1.353-1.62 1.353zm-.656 1.497c.977 0 1.798-.41 2.187-1.1h.123v.984h1.928v-5.147c0-1.614-1.128-2.557-3.124-2.557-1.894 0-3.172.875-3.302 2.269h1.832c.164-.451.643-.697 1.361-.697.82 0 1.271.356 1.271.985v.615l-1.825.109c-1.873.11-2.919.902-2.919 2.27 0 1.381 1.019 2.269 2.468 2.269zm7.252-9.447v1.866h-1.175v1.566h1.175v3.862c0 1.47.725 2.064 2.557 2.064.383 0 .752-.041.998-.089v-1.517c-.191.02-.328.027-.588.027-.677 0-.977-.301-.977-.957v-3.39h1.565v-1.566h-1.565v-1.866h-1.99zm8.914 3.151c.93 0 1.531.622 1.572 1.62h-3.213c.069-.977.718-1.62 1.641-1.62zm1.613 4.034c-.212.499-.752.779-1.538.779-1.039 0-1.695-.697-1.722-1.819v-.102h5.174v-.608c0-2.393-1.312-3.808-3.534-3.808-2.242 0-3.623 1.517-3.623 3.972 0 2.447 1.354 3.896 3.65 3.896 1.846 0 3.152-.895 3.446-2.31h-1.853z" fill="#999"/>
  <g filter="url(#gC-RQSRzEb)">
    <mask id="gC-RQSRzEc" fill="#fff">
      <path fill-rule="evenodd" clip-rule="evenodd" d="M383 226a8 8 0 00-8 8v56a8 8 0 008 8h69.194l12.714 14 11.352-14H545a8 8 0 008-8v-56a8 8 0 00-8-8H383z"/>
    </mask>
    <path fill-rule="evenodd" clip-rule="evenodd" d="M383 226a8 8 0 00-8 8v56a8 8 0 008 8h69.194l12.714 14 11.352-14H545a8 8 0 008-8v-56a8 8 0 00-8-8H383z" fill="#fff"/>
    <path d="M452.194 298l.74-.672-.297-.328h-.443v1zm12.714 14l-.74.672.783.863.734-.905-.777-.63zm11.352-14v-1h-.476l-.301.37.777.63zM376 234a7 7 0 017-7v-2a9 9 0 00-9 9h2zm0 56v-56h-2v56h2zm7 7a7 7 0 01-7-7h-2a9 9 0 009 9v-2zm69.194 0H383v2h69.194v-2zm-.74 1.672l12.714 14 1.48-1.344-12.714-14-1.48 1.344zm14.231 13.958l11.352-14-1.554-1.26-11.352 14 1.554 1.26zM545 297h-68.74v2H545v-2zm7-7a7 7 0 01-7 7v2a9 9 0 009-9h-2zm0-56v56h2v-56h-2zm-7-7a7 7 0 017 7h2a9 9 0 00-9-9v2zm-162 0h162v-2H383v2z" fill="#DEDEDE" mask="url(#gC-RQSRzEc)"/>
  </g>
  <path d="M391.691 247v-8.131h2.952v-1.029h-7.046v1.029h2.951V247h1.143zm5.132 0h1.092v-4.05c0-1.155.672-1.929 1.898-1.929 1.034 0 1.58.603 1.58 1.815V247h1.092v-4.431c0-1.606-.914-2.532-2.361-2.532-1.048 0-1.765.444-2.108 1.199h-.101v-3.796h-1.092V247zm8.172 0h1.092v-6.843h-1.092V247zm.546-8.163a.764.764 0 00.762-.762.764.764 0 00-.762-.762.764.764 0 00-.762.762c0 .419.343.762.762.762zm2.961 3.193c0 .99.584 1.542 1.866 1.853l1.175.286c.73.178 1.085.495 1.085.965 0 .628-.66 1.066-1.58 1.066-.876 0-1.422-.368-1.606-.946h-1.124c.121 1.137 1.168 1.867 2.692 1.867 1.555 0 2.742-.845 2.742-2.07 0-.984-.622-1.542-1.911-1.853l-1.054-.254c-.806-.197-1.187-.489-1.187-.959 0-.609.635-1.022 1.448-1.022.825 0 1.358.362 1.504.908h1.079c-.146-1.123-1.142-1.834-2.577-1.834-1.454 0-2.552.857-2.552 1.993zm14.949-1.993c-.933 0-1.752.476-2.19 1.263h-.102v-1.143h-1.041v9.128h1.092v-3.313h.101c.375.723 1.162 1.149 2.14 1.149 1.739 0 2.875-1.403 2.875-3.542 0-2.152-1.13-3.542-2.875-3.542zm-.261 6.1c-1.231 0-2.012-.991-2.012-2.558 0-1.575.781-2.558 2.019-2.558 1.25 0 1.999.958 1.999 2.558 0 1.599-.749 2.558-2.006 2.558zm8.154.984c1.949 0 3.155-1.346 3.155-3.542 0-2.203-1.206-3.542-3.155-3.542-1.949 0-3.155 1.339-3.155 3.542 0 2.196 1.206 3.542 3.155 3.542zm0-.984c-1.295 0-2.025-.94-2.025-2.558 0-1.625.73-2.558 2.025-2.558s2.025.933 2.025 2.558c0 1.618-.73 2.558-2.025 2.558zm5.202-4.107c0 .99.584 1.542 1.866 1.853l1.174.286c.73.178 1.086.495 1.086.965 0 .628-.661 1.066-1.581 1.066-.876 0-1.422-.368-1.606-.946h-1.124c.121 1.137 1.168 1.867 2.692 1.867 1.555 0 2.742-.845 2.742-2.07 0-.984-.622-1.542-1.911-1.853l-1.053-.254c-.806-.197-1.187-.489-1.187-.959 0-.609.634-1.022 1.447-1.022.825 0 1.358.362 1.504.908h1.079c-.146-1.123-1.142-1.834-2.577-1.834-1.453 0-2.551.857-2.551 1.993zm7.848-3.644v1.771h-1.104v.914h1.104v4.152c0 1.307.565 1.828 1.974 1.828.216 0 .426-.026.641-.064v-.92a4.613 4.613 0 01-.507.025c-.711 0-1.016-.342-1.016-1.149v-3.872h1.523v-.914h-1.523v-1.771h-1.092zm11.73 8.735c1.949 0 3.155-1.346 3.155-3.542 0-2.203-1.206-3.542-3.155-3.542-1.948 0-3.154 1.339-3.154 3.542 0 2.196 1.206 3.542 3.154 3.542zm0-.984c-1.295 0-2.025-.94-2.025-2.558 0-1.625.73-2.558 2.025-2.558s2.025.933 2.025 2.558c0 1.618-.73 2.558-2.025 2.558zm5.361.863h1.092v-4.05c0-1.2.704-1.929 1.796-1.929s1.612.583 1.612 1.815V247h1.092v-4.431c0-1.625-.857-2.532-2.393-2.532-1.047 0-1.714.444-2.057 1.199h-.101v-1.079h-1.041V247zm14.352-.838c-.794 0-1.384-.406-1.384-1.104 0-.686.457-1.048 1.498-1.118l1.841-.12v.628c0 .978-.832 1.714-1.955 1.714zm-.204.959c.915 0 1.664-.4 2.108-1.13h.101V247h1.041v-4.685c0-1.421-.933-2.278-2.602-2.278-1.46 0-2.539.723-2.685 1.821h1.104c.153-.539.724-.85 1.543-.85 1.022 0 1.549.463 1.549 1.307v.623l-1.974.12c-1.594.095-2.495.8-2.495 2.025 0 1.25.984 2.038 2.31 2.038zm11.093-6.964h-1.168l-1.873 5.637h-.101l-1.873-5.637h-1.168l2.533 6.843h1.117l2.533-6.843zm4.427.844c1.086 0 1.809.8 1.835 2.013h-3.771c.083-1.213.844-2.013 1.936-2.013zm1.803 4.228c-.286.603-.882.927-1.765.927-1.161 0-1.917-.857-1.974-2.209v-.051h4.92v-.419c0-2.126-1.124-3.44-2.971-3.44-1.879 0-3.085 1.396-3.085 3.548 0 2.165 1.187 3.536 3.085 3.536 1.498 0 2.564-.724 2.882-1.892h-1.092zm3.386 1.771h1.092v-4.24c0-.965.755-1.663 1.796-1.663.216 0 .61.038.699.063v-1.092a4.725 4.725 0 00-.546-.031c-.908 0-1.695.469-1.898 1.136h-.102v-1.016h-1.041V247zm7.551-.838c-.794 0-1.384-.406-1.384-1.104 0-.686.457-1.048 1.498-1.118l1.841-.12v.628c0 .978-.832 1.714-1.955 1.714zm-.204.959c.915 0 1.664-.4 2.108-1.13h.101V247h1.041v-4.685c0-1.421-.933-2.278-2.602-2.278-1.46 0-2.539.723-2.685 1.821h1.104c.153-.539.724-.85 1.543-.85 1.022 0 1.549.463 1.549 1.307v.623l-1.974.12c-1.594.095-2.495.8-2.495 2.025 0 1.25.984 2.038 2.31 2.038zm8.528-1.187c-1.269 0-1.98-.965-1.98-2.457s.711-2.456 1.98-2.456c1.264 0 2.032.964 2.032 2.456s-.762 2.457-2.032 2.457zm.051 3.694c1.866 0 3.047-.978 3.047-2.507v-6.964h-1.041v1.086h-.102c-.393-.737-1.237-1.206-2.196-1.206-1.758 0-2.869 1.39-2.869 3.44s1.098 3.421 2.869 3.421c.94 0 1.714-.425 2.146-1.18h.101v1.345c0 1.01-.73 1.613-1.955 1.613-.984 0-1.593-.362-1.714-.921h-1.155c.165 1.13 1.219 1.873 2.869 1.873zm8.325-8.627c1.085 0 1.809.8 1.834 2.013h-3.77c.082-1.213.844-2.013 1.936-2.013zm1.803 4.228c-.286.603-.883.927-1.765.927-1.162 0-1.917-.857-1.974-2.209v-.051h4.919v-.419c0-2.126-1.123-3.44-2.97-3.44-1.879 0-3.085 1.396-3.085 3.548 0 2.165 1.187 3.536 3.085 3.536 1.498 0 2.564-.724 2.881-1.892h-1.091zm-125.76 12.928h-1.098l-1.346 5.472h-.102l-1.529-5.472h-1.048l-1.53 5.472h-.101l-1.346-5.472h-1.104l1.917 6.843h1.104l1.524-5.294h.101l1.53 5.294h1.111l1.917-6.843zm1.977 6.843h1.092v-6.843h-1.092V265zm.546-8.163a.764.764 0 00.761-.762.764.764 0 00-.761-.762.764.764 0 00-.762.762c0 .419.343.762.762.762zm3.183 8.163h1.092v-9.56h-1.092V265zm3.767 0h1.092v-9.56h-1.092V265zm7.865 0h1.091v-4.24c0-.965.756-1.663 1.797-1.663.216 0 .609.038.698.063v-1.092a4.711 4.711 0 00-.546-.031c-.908 0-1.695.469-1.898 1.136h-.101v-1.016h-1.041V265zm7.982-5.999c1.085 0 1.809.8 1.834 2.013h-3.77c.082-1.213.844-2.013 1.936-2.013zm1.802 4.228c-.285.603-.882.927-1.764.927-1.162 0-1.917-.857-1.974-2.209v-.051h4.919v-.419c0-2.126-1.124-3.44-2.971-3.44-1.879 0-3.085 1.396-3.085 3.548 0 2.165 1.187 3.536 3.085 3.536 1.498 0 2.565-.724 2.882-1.892h-1.092zm9.049-2.977c-.191-1.219-1.206-2.215-2.869-2.215-1.917 0-3.136 1.383-3.136 3.516 0 2.177 1.225 3.568 3.142 3.568 1.644 0 2.666-.927 2.863-2.184h-1.105c-.203.774-.844 1.2-1.764 1.2-1.219 0-2.006-1.003-2.006-2.584 0-1.549.774-2.532 2.006-2.532.984 0 1.587.552 1.764 1.231h1.105zm2.129 4.748h1.092v-6.843h-1.092V265zm.546-8.163a.764.764 0 00.762-.762.764.764 0 00-.762-.762.764.764 0 00-.762.762c0 .419.343.762.762.762zm5.849 2.164c1.086 0 1.809.8 1.835 2.013h-3.771c.083-1.213.845-2.013 1.936-2.013zm1.803 4.228c-.286.603-.882.927-1.765.927-1.161 0-1.917-.857-1.974-2.209v-.051h4.92v-.419c0-2.126-1.124-3.44-2.971-3.44-1.879 0-3.085 1.396-3.085 3.548 0 2.165 1.187 3.536 3.085 3.536 1.498 0 2.564-.724 2.882-1.892h-1.092zm8.845-5.072h-1.168l-1.872 5.637h-.102l-1.872-5.637h-1.168l2.532 6.843h1.118l2.532-6.843zm4.428.844c1.085 0 1.809.8 1.834 2.013h-3.77c.082-1.213.844-2.013 1.936-2.013zm1.802 4.228c-.285.603-.882.927-1.764.927-1.162 0-1.917-.857-1.974-2.209v-.051h4.919v-.419c0-2.126-1.123-3.44-2.971-3.44-1.878 0-3.085 1.396-3.085 3.548 0 2.165 1.187 3.536 3.085 3.536 1.498 0 2.565-.724 2.882-1.892h-1.092zM500.808 265h1.091v-4.05c0-1.155.673-1.929 1.898-1.929 1.035 0 1.581.603 1.581 1.815V265h1.092v-4.431c0-1.606-.914-2.532-2.362-2.532-1.047 0-1.764.444-2.107 1.199h-.102v-3.796h-1.091V265zm8.172 0h1.092v-6.843h-1.092V265zm.546-8.163a.764.764 0 00.762-.762.764.764 0 00-.762-.762.764.764 0 00-.762.762c0 .419.343.762.762.762zm5.887 7.097c-1.269 0-1.98-.965-1.98-2.457s.711-2.456 1.98-2.456c1.263 0 2.032.964 2.032 2.456s-.762 2.457-2.032 2.457zm.051 3.694c1.866 0 3.047-.978 3.047-2.507v-6.964h-1.041v1.086h-.102c-.393-.737-1.237-1.206-2.196-1.206-1.758 0-2.869 1.39-2.869 3.44s1.098 3.421 2.869 3.421c.94 0 1.714-.425 2.146-1.18h.101v1.345c0 1.01-.73 1.613-1.955 1.613-.984 0-1.593-.362-1.714-.921h-1.155c.165 1.13 1.219 1.873 2.869 1.873zm5.659-2.628h1.092v-4.05c0-1.155.672-1.929 1.898-1.929 1.034 0 1.58.603 1.58 1.815V265h1.092v-4.431c0-1.606-.914-2.532-2.361-2.532-1.048 0-1.765.444-2.108 1.199h-.101v-3.796h-1.092V265zm10.876-5.999c1.086 0 1.809.8 1.835 2.013h-3.771c.083-1.213.845-2.013 1.936-2.013zm1.803 4.228c-.286.603-.882.927-1.765.927-1.161 0-1.917-.857-1.974-2.209v-.051h4.92v-.419c0-2.126-1.124-3.44-2.971-3.44-1.879 0-3.085 1.396-3.085 3.548 0 2.165 1.187 3.536 3.085 3.536 1.498 0 2.565-.724 2.882-1.892h-1.092zm3.386 1.771h1.092v-4.24c0-.965.756-1.663 1.797-1.663.215 0 .609.038.698.063v-1.092a4.711 4.711 0 00-.546-.031c-.908 0-1.695.469-1.898 1.136h-.102v-1.016h-1.041V265zm-146.43 13.001c1.085 0 1.809.8 1.834 2.013h-3.77c.082-1.213.844-2.013 1.936-2.013zm1.803 4.228c-.286.603-.883.927-1.765.927-1.162 0-1.917-.857-1.974-2.209v-.051h4.919v-.419c0-2.126-1.123-3.44-2.97-3.44-1.879 0-3.085 1.396-3.085 3.548 0 2.165 1.187 3.536 3.085 3.536 1.498 0 2.564-.724 2.881-1.892h-1.091zm3.386 1.771h1.092v-4.05c0-1.2.704-1.929 1.796-1.929s1.612.583 1.612 1.815V284h1.092v-4.431c0-1.625-.857-2.532-2.393-2.532-1.047 0-1.714.444-2.057 1.199h-.101v-1.079h-1.041V284zm10.851-1.066c-1.27 0-1.98-.965-1.98-2.457s.71-2.456 1.98-2.456c1.263 0 2.031.964 2.031 2.456s-.761 2.457-2.031 2.457zm.051 3.694c1.866 0 3.047-.978 3.047-2.507v-6.964h-1.041v1.086h-.102c-.393-.737-1.238-1.206-2.196-1.206-1.758 0-2.869 1.39-2.869 3.44s1.098 3.421 2.869 3.421c.939 0 1.714-.425 2.145-1.18h.102v1.345c0 1.01-.73 1.613-1.955 1.613-.984 0-1.593-.362-1.714-.921h-1.155c.165 1.13 1.218 1.873 2.869 1.873zm7.703-3.466c-.794 0-1.384-.406-1.384-1.104 0-.686.457-1.048 1.498-1.118l1.841-.12v.628c0 .978-.832 1.714-1.955 1.714zm-.204.959c.914 0 1.663-.4 2.108-1.13h.101V284h1.041v-4.685c0-1.421-.933-2.278-2.602-2.278-1.46 0-2.539.723-2.685 1.821h1.104c.153-.539.724-.85 1.543-.85 1.022 0 1.549.463 1.549 1.307v.623l-1.975.12c-1.593.095-2.494.8-2.494 2.025 0 1.25.984 2.038 2.31 2.038zm8.528-1.187c-1.269 0-1.98-.965-1.98-2.457s.711-2.456 1.98-2.456c1.264 0 2.032.964 2.032 2.456s-.762 2.457-2.032 2.457zm.051 3.694c1.866 0 3.047-.978 3.047-2.507v-6.964h-1.041v1.086h-.102c-.393-.737-1.237-1.206-2.196-1.206-1.758 0-2.869 1.39-2.869 3.44s1.098 3.421 2.869 3.421c.94 0 1.714-.425 2.146-1.18h.101v1.345c0 1.01-.73 1.613-1.955 1.613-.984 0-1.593-.362-1.714-.921h-1.155c.165 1.13 1.219 1.873 2.869 1.873zm8.325-8.627c1.085 0 1.809.8 1.834 2.013h-3.77c.082-1.213.844-2.013 1.936-2.013zm1.803 4.228c-.286.603-.883.927-1.765.927-1.162 0-1.917-.857-1.974-2.209v-.051h4.919v-.419c0-2.126-1.123-3.44-2.97-3.44-1.879 0-3.085 1.396-3.085 3.548 0 2.165 1.187 3.536 3.085 3.536 1.498 0 2.564-.724 2.881-1.892h-1.091zm3.386 1.771h1.092v-4.24c0-.965.692-1.739 1.587-1.739.863 0 1.428.52 1.428 1.333V284h1.092v-4.399c0-.87.634-1.58 1.587-1.58.964 0 1.441.495 1.441 1.504V284h1.091v-4.729c0-1.435-.78-2.234-2.177-2.234-.946 0-1.727.476-2.095 1.199h-.101c-.318-.711-.965-1.199-1.892-1.199-.914 0-1.599.438-1.91 1.199h-.102v-1.079h-1.041V284zm14.533-5.999c1.085 0 1.809.8 1.834 2.013h-3.77c.082-1.213.844-2.013 1.936-2.013zm1.802 4.228c-.285.603-.882.927-1.764.927-1.162 0-1.917-.857-1.974-2.209v-.051h4.919v-.419c0-2.126-1.123-3.44-2.971-3.44-1.878 0-3.085 1.396-3.085 3.548 0 2.165 1.187 3.536 3.085 3.536 1.498 0 2.565-.724 2.882-1.892h-1.092zm3.387 1.771h1.092v-4.05c0-1.2.704-1.929 1.796-1.929s1.612.583 1.612 1.815V284h1.092v-4.431c0-1.625-.857-2.532-2.393-2.532-1.047 0-1.714.444-2.057 1.199h-.101v-1.079h-1.041V284zm8.54-8.614v1.771h-1.104v.914h1.104v4.152c0 1.307.565 1.828 1.975 1.828.215 0 .425-.026.641-.064v-.92a4.619 4.619 0 01-.508.025c-.711 0-1.016-.342-1.016-1.149v-3.872h1.524v-.914h-1.524v-1.771h-1.092zm5.659 8.677a.827.827 0 00.825-.825.823.823 0 00-.825-.825.828.828 0 00-.825.825c0 .451.375.825.825.825z" fill="#000"/>
  <path d="M469.311 265.235c2.05 0 3.504-1.352 3.504-3.256 0-1.746-1.276-3.028-3.015-3.028-1.066 0-1.917.482-2.336 1.339h-.114c0-1.98.736-3.11 2.006-3.11.742 0 1.295.381 1.441 1.003h1.897c-.222-1.53-1.561-2.578-3.364-2.578-2.342 0-3.808 1.841-3.808 4.882 0 3.18 1.593 4.748 3.789 4.748zm-.019-1.574c-.952 0-1.657-.724-1.657-1.663 0-.921.68-1.606 1.663-1.606.984 0 1.657.679 1.657 1.631 0 .927-.711 1.638-1.663 1.638zm9.41 1.574c2.051 0 3.504-1.352 3.504-3.256 0-1.746-1.276-3.028-3.015-3.028-1.066 0-1.917.482-2.336 1.339h-.114c0-1.98.736-3.11 2.006-3.11.742 0 1.295.381 1.441 1.003h1.898c-.222-1.53-1.562-2.578-3.365-2.578-2.342 0-3.808 1.841-3.808 4.882 0 3.18 1.593 4.748 3.789 4.748zm-.019-1.574c-.952 0-1.656-.724-1.656-1.663 0-.921.679-1.606 1.663-1.606s1.656.679 1.656 1.631c0 .927-.711 1.638-1.663 1.638zm7.354-3.53c1.371 0 2.177-.825 2.177-2.24 0-1.384-.825-2.228-2.177-2.228-1.346 0-2.177.85-2.177 2.228 0 1.409.806 2.24 2.177 2.24zm0-1.136c-.463 0-.73-.4-.73-1.098 0-.679.273-1.092.73-1.092.451 0 .724.413.724 1.092 0 .692-.261 1.098-.724 1.098zm.939 6.005l6.088-9.16h-1.467L485.51 265h1.466zm5.561.108c1.371 0 2.177-.825 2.177-2.241 0-1.384-.825-2.221-2.177-2.221-1.346 0-2.177.844-2.177 2.221 0 1.416.812 2.241 2.177 2.241zm0-1.136c-.463 0-.724-.4-.724-1.098 0-.68.267-1.092.724-1.092.457 0 .73.412.73 1.092 0 .691-.267 1.098-.73 1.098z" fill="#029D24"/>
  <ellipse opacity=".8" cx="99.5" cy="291" rx="29.5" ry="30" fill="#A9366D"/>
  <circle opacity=".7" cx="19.5" cy="209.5" r="19.5" fill="#251A3F"/>
  <circle cx="112.5" cy="177.5" r="42.5" fill="#F7B129"/>
  <defs>
    <filter id="gC-RQSRzEa" x="117" y="0" width="530" height="475" filterUnits="userSpaceOnUse" color-interpolation-filters="sRGB">
      <feFlood flood-opacity="0" result="BackgroundImageFix"/>
      <feColorMatrix in="SourceAlpha" values="0 0 0 0 0 0 0 0 0 0 0 0 0 0 0 0 0 0 127 0"/>
      <feOffset dy="10"/>
      <feGaussianBlur stdDeviation="10"/>
      <feColorMatrix values="0 0 0 0 0.2 0 0 0 0 0.2 0 0 0 0 0.2 0 0 0 0.15 0"/>
      <feBlend in2="BackgroundImageFix" result="effect1_dropShadow"/>
      <feBlend in="SourceGraphic" in2="effect1_dropShadow" result="shape"/>
    </filter>
    <filter id="gC-RQSRzEb" x="355" y="216" width="218" height="126" filterUnits="userSpaceOnUse" color-interpolation-filters="sRGB">
      <feFlood flood-opacity="0" result="BackgroundImageFix"/>
      <feColorMatrix in="SourceAlpha" values="0 0 0 0 0 0 0 0 0 0 0 0 0 0 0 0 0 0 127 0"/>
      <feOffset dy="10"/>
      <feGaussianBlur stdDeviation="10"/>
      <feColorMatrix values="0 0 0 0 0.2 0 0 0 0 0.2 0 0 0 0 0.2 0 0 0 0.15 0"/>
      <feBlend in2="BackgroundImageFix" result="effect1_dropShadow"/>
      <feBlend in="SourceGraphic" in2="effect1_dropShadow" result="shape"/>
    </filter>
  </defs>
</svg>
