<svg xmlns="http://www.w3.org/2000/svg" fill="none" viewBox="0 0 121 83">
  <g clip-path="url(#LNixHbbe4a)">
    <path d="M8.143 62.74c-.575 0-1.15.024-1.713.072l-.081.007c-3.73.332-6.458 2.253-6.346 4.47l.022.401c.014.254.03.526.042.828.007.15.21.264.461.264h91.737c6.468-.04 12.912-.09 19.153-.148 1.171.003 2.34-.058 3.504-.182 1.735-.206 2.939-.615 3.681-1.25.923-.787.952-1.778.896-2.898-.113-2.26-.226-4.636-.339-7.004a2792.94 2792.94 0 00-.297-6.161c-.061-1.183-.197-2.227-1.245-3.025-1.137-.862-3.209-1.3-6.16-1.3h-.107c-9.247.033-18.41 3.228-22.8 7.95a32.347 32.347 0 00-1.433 1.688c-.673.832-1.368 1.692-2.199 2.46a10.345 10.345 0 01-3.728 2.244l-.065.021a12.098 12.098 0 01-1.3.358c-1.673.371-3.576.46-5.655.264a27.22 27.22 0 01-5.623-1.15c-1.925-.612-3.728-1.374-5.47-2.111a135.583 135.583 0 00-2.792-1.152 42.354 42.354 0 00-2.677-.955 26.313 26.313 0 00-6.379-1.187c-2.3-.127-4.326.112-6.022.707-.468.164-.923.361-1.362.59-2.01 1.048-3.248 2.595-4.445 4.09-1.49 1.86-3.03 3.785-6.072 4.782-3.51 1.152-8.632.673-12.257-.159-1.14-.262-2.277-.563-3.378-.854-.445-.118-.89-.234-1.335-.35a64.524 64.524 0 00-2.253-.548l-.21-.047-.351-.075a33.943 33.943 0 00-2.241-.399l-.17-.025a31.503 31.503 0 00-.977-.115l-.125-.012a19.976 19.976 0 00-1.889-.088z" fill="#D8D8D8"/>
    <path d="M103.004 65.215c2.581-2.337 6.42-3.512 9.641-2.201a16.058 16.058 0 00-7.194 8.348c-.513 1.37-.941 2.948-2.202 3.682-.785.456-1.761.479-2.641.258-.88-.22-1.686-.662-2.482-1.1l-.226-.004c1.016-3.339 2.522-6.646 5.104-8.983z" fill="#DD6F6F"/>
    <path d="M112.627 63.084a13.654 13.654 0 00-7.612 3.612c-.459.418-.85.906-1.157 1.446a3.407 3.407 0 00-.391 1.743c.014.565.093 1.142-.03 1.7a2.086 2.086 0 01-1.029 1.35c-.631.364-1.353.479-2.064.566-.79.098-1.61.186-2.294.63-.083.055-.161-.078-.078-.131 1.188-.774 2.692-.493 3.97-1.009.597-.24 1.124-.664 1.311-1.303.163-.56.082-1.154.063-1.726a3.63 3.63 0 01.319-1.72 5.464 5.464 0 011.097-1.484c.991-.981 2.13-1.8 3.374-2.426a13.88 13.88 0 014.52-1.401c.097-.013.098.141.001.154z" fill="#fff"/>
    <path d="M105.653 66.02a2.07 2.07 0 01.226-2.661c.07-.07.181.037.111.106a1.915 1.915 0 00-.206 2.476c.058.08-.074.159-.131.079zm-2.231 3.58a3.94 3.94 0 002.827-.57c.083-.053.162.08.079.133-.873.56-1.924.77-2.944.586-.097-.018-.059-.167.038-.15zm6.113-5.787a1.161 1.161 0 00.869.682c.097.016.059.165-.037.149a1.298 1.298 0 01-.964-.752.083.083 0 01-.007-.058.08.08 0 01.034-.048.077.077 0 01.105.027z" fill="#fff"/>
    <path d="M116.192 74.283a15.247 15.247 0 00-2.856-.145 16.076 16.076 0 00-5.789 1.338 15.61 15.61 0 00-2.102 1.122c-.928.59-1.886 1.303-2.923 1.544a2.68 2.68 0 01-.327.059l-4.283-3.726c-.006-.013-.012-.025-.017-.039l-.178-.14.1-.074.06-.042.037-.028a.187.187 0 01.012-.008c.011-.01.023-.017.033-.025.194-.138.39-.275.587-.411l.003-.001a23.008 23.008 0 014.797-2.591 14.886 14.886 0 012.504-.721c.438-.084.88-.146 1.325-.186 1.148-.1 2.305-.017 3.428.244 2.238.521 4.285 1.756 5.498 3.682.031.049.061.097.091.148z" fill="#DD6F6F"/>
    <path d="M116.135 74.33a13.63 13.63 0 00-8.243-1.722 5.88 5.88 0 00-1.79.455 3.378 3.378 0 00-1.356 1.155c-.328.46-.61.968-1.043 1.34a2.07 2.07 0 01-1.631.455c-.721-.09-1.367-.436-1.987-.796-.689-.4-1.397-.826-2.21-.884-.098-.007-.081-.16.017-.153 1.413.1 2.445 1.235 3.775 1.596.62.168 1.295.15 1.827-.248.466-.347.757-.872 1.085-1.34a3.612 3.612 0 011.285-1.18 5.425 5.425 0 011.766-.521 13.214 13.214 0 014.148.103c1.564.28 3.068.826 4.448 1.615.086.05-.006.173-.091.124z" fill="#fff"/>
    <path d="M108.807 72.454c.013-.49.199-.958.524-1.322a2.05 2.05 0 011.251-.666c.098-.013.122.139.025.152-.45.06-.863.28-1.165.62-.302.34-.473.777-.483 1.232-.002.1-.155.082-.152-.016zm-3.925 1.509a3.95 3.95 0 002.598 1.256c.099.008.082.16-.016.153a4.11 4.11 0 01-2.702-1.312c-.067-.073.053-.17.12-.097zm8.348-.923a1.163 1.163 0 00.285 1.07c.068.072-.052.168-.119.096a1.307 1.307 0 01-.319-1.183.08.08 0 01.085-.068.077.077 0 01.068.085z" fill="#fff"/>
    <path d="M35.43 67.54c2.114-3.222 5.895-5.551 9.703-5.05a17.805 17.805 0 00-5.383 10.94c-.169 1.608-.19 3.416-1.336 4.553-.712.707-1.75 1.004-2.752 1.014-1.002.01-1.987-.237-2.96-.482l-.242.058c.162-3.855.857-7.813 2.97-11.034z" fill="#DD6F6F"/>
    <path d="M45.134 62.571a15.139 15.139 0 00-7.142 5.99 6.558 6.558 0 00-.837 1.87 3.77 3.77 0 00.065 1.974c.171.6.416 1.195.439 1.827a2.307 2.307 0 01-.727 1.73c-.574.566-1.315.891-2.051 1.183-.817.325-1.671.649-2.279 1.315-.073.081-.194-.038-.12-.119 1.057-1.16 2.743-1.279 3.967-2.188.571-.425 1.019-1.025 1.041-1.76.02-.644-.232-1.258-.41-1.864a4.022 4.022 0 01-.136-1.928c.146-.67.404-1.31.763-1.894a14.724 14.724 0 012.937-3.538 15.382 15.382 0 014.446-2.762c.1-.04.144.124.044.164z" fill="#fff"/>
    <path d="M38.486 67.66a2.282 2.282 0 01-.495-2.91c.056-.094.204-.01.148.083a2.119 2.119 0 00.466 2.706c.084.07-.035.19-.119.12zm-1.393 4.452a4.365 4.365 0 002.866-1.399c.074-.08.194.039.12.12a4.54 4.54 0 01-2.985 1.449c-.11.008-.11-.162-.002-.17zm4.934-7.898a1.284 1.284 0 001.118.487c.11-.01.11.16.002.17a1.434 1.434 0 01-1.239-.536.088.088 0 010-.12.085.085 0 01.12 0z" fill="#fff"/>
    <path d="M52.047 73.552l-.204.025a16.843 16.843 0 00-2.892.618 17.8 17.8 0 00-5.82 3.049 17.344 17.344 0 00-1.938 1.788c-.828.89-1.656 1.92-2.698 2.468-.108.058-.22.11-.334.154l-5.612-2.787-.03-.038-.229-.1c.029-.036.06-.072.088-.108l.05-.06.033-.04a.264.264 0 01.01-.013l.03-.035c.169-.203.34-.404.513-.605l.003-.001c1.322-1.526 2.783-2.953 4.413-4.112l.15-.105a16.5 16.5 0 012.329-1.366c.445-.213.9-.403 1.365-.57a12.1 12.1 0 013.734-.696c2.538-.068 5.07.68 6.9 2.4l.139.134z" fill="#DD6F6F"/>
    <path d="M51.999 73.617a15.066 15.066 0 00-9.293.463 6.502 6.502 0 00-1.789.986 3.753 3.753 0 00-1.13 1.615c-.224.584-.385 1.207-.745 1.725a2.29 2.29 0 01-1.618.942c-.797.105-1.584-.084-2.346-.296-.847-.235-1.723-.493-2.608-.328-.107.02-.131-.148-.024-.168 1.538-.287 2.956.638 4.479.652.71.007 1.427-.202 1.886-.776.401-.502.568-1.144.789-1.736a4.006 4.006 0 011.047-1.62 6.014 6.014 0 011.745-1.052 14.616 14.616 0 014.464-1.05c1.75-.137 3.51.027 5.206.485.105.028.04.186-.063.158z" fill="#fff"/>
    <path d="M43.643 73.66a2.289 2.289 0 01.195-1.56 2.272 2.272 0 011.153-1.063c.101-.041.17.114.069.156-.464.19-.845.54-1.074.989a2.12 2.12 0 00-.176 1.453c.025.106-.142.13-.167.024zm-3.782 2.71a4.357 4.357 0 003.127.618c.108-.02.132.149.025.168a4.531 4.531 0 01-3.253-.649c-.092-.059.01-.195.101-.136zm8.673-3.32a1.295 1.295 0 00.602 1.065c.092.058-.01.194-.101.136a1.444 1.444 0 01-.668-1.176.088.088 0 01.071-.096.085.085 0 01.096.071z" fill="#fff"/>
    <path d="M50.474 43.393a1.36 1.36 0 00-.178-2.077l2.21-10.74-2.384.755-1.777 10.39a1.372 1.372 0 00.325 1.786 1.356 1.356 0 001.804-.114z" fill="#FFB6B6"/>
    <path d="M55.58 14.684l-1.476-1.12s-1.302-.092-1.533 2.267c-.23 2.36-1.675 11.415-1.675 11.415l-2.259 10.51 3.127.69 2.42-11.343 2.422-7.826-1.026-4.593z" fill="#F7B129"/>
    <path d="M54.455 34.133l-7.081-5.531a.531.531 0 01-.093-.744l4.819-6.225a.527.527 0 01.74-.093l7.081 5.532a.531.531 0 01.093.743l-4.818 6.225a.528.528 0 01-.74.093z" fill="#3F3D56"/>
    <path d="M54.416 33.56l-6.481-5.062a.471.471 0 01-.082-.66l4.368-5.643a.469.469 0 01.657-.083l6.48 5.063a.471.471 0 01.083.66l-4.368 5.643a.468.468 0 01-.657.083z" fill="#fff"/>
    <path d="M48.785 28.355a.118.118 0 01-.02-.165l2.203-2.847a.117.117 0 01.206.103.12.12 0 01-.02.041l-2.204 2.847a.117.117 0 01-.165.02zm.365.285a.118.118 0 01-.02-.165l2.203-2.847a.117.117 0 01.209.058.118.118 0 01-.024.087l-2.204 2.847a.118.118 0 01-.164.02zm1.614-1.327a.118.118 0 01-.02-.165l.955-1.235a.117.117 0 01.205.104.119.119 0 01-.02.04l-.955 1.235a.117.117 0 01-.165.02zm.492 2.421a.118.118 0 01-.02-.165l3.478-4.494a.117.117 0 01.209.057.118.118 0 01-.024.087l-3.479 4.495a.117.117 0 01-.164.02zm.366.286a.117.117 0 01-.02-.165l3.478-4.495a.117.117 0 01.209.058.118.118 0 01-.024.087l-3.479 4.494a.117.117 0 01-.164.02zm.828.647a.118.118 0 01-.02-.165l3.478-4.494a.119.119 0 01.078-.045.117.117 0 01.127.148.12.12 0 01-.02.041l-3.479 4.494a.117.117 0 01-.164.021zm.366.286a.118.118 0 01-.02-.165l3.478-4.495a.117.117 0 01.164-.02.119.119 0 01.02.164l-3.478 4.495a.117.117 0 01-.164.02zm.829.647a.118.118 0 01-.02-.165l3.478-4.495a.115.115 0 01.078-.044.116.116 0 01.13.102.12.12 0 01-.023.087l-3.479 4.494a.117.117 0 01-.164.021zm.365.285a.118.118 0 01-.02-.165l3.478-4.494a.117.117 0 01.208.058.118.118 0 01-.023.086l-3.479 4.495a.118.118 0 01-.164.02z" fill="#2E8C8D"/>
    <path d="M48.196 37.106a.049.049 0 00.049-.049.049.049 0 10-.097 0c0 .027.021.049.048.049z" fill="#fff"/>
    <path d="M55.2 3.83a11.64 11.64 0 01-.825 2.648c-2.173 4.618 4.015 3.113 6.227 3.113 2.418 0 4.732 1.277 4.378-4.399-.15-2.424-1.96-4.398-4.378-4.398-2.065 0-4.97.922-5.401 3.036z" fill="#443D5E"/>
    <path d="M62.856 71.565h-2.06l-.98-7.983h3.04v7.983z" fill="#FFB6B6"/>
    <path d="M63.943 75.15h-1.477l-.264-1.4-.675 1.4h-3.919a.877.877 0 01-.841-.62.888.888 0 01.34-.992l3.13-2.171V69.95l3.291.197.415 5.004z" fill="#443D5E"/>
    <path d="M75.095 68.953l-1.653 1.235-5.528-5.818 2.44-1.823 4.741 6.406z" fill="#FFB6B6"/>
    <path d="M78.098 71.179l-1.186.885-1.044-.966.29 1.53-3.144 2.348a.878.878 0 01-1.365-.442.889.889 0 01.006-.552l1.221-3.618-.841-1.137 2.758-1.815 3.305 3.767z" fill="#443D5E"/>
    <path d="M56.108 34.824l9.78-1.53-1.945-5.878h-7.835v7.408z" fill="#FFB6B6"/>
    <path d="M65.254 30.377s3.91 3.392 2.106 13.064l-2.202 9.476 5.999 10.463-3.05 1.672-7.393-10.322-3.383-7.972-1.789-13.97 9.712-2.411z" fill="#443D5E"/>
    <path d="M59.196 49.03l-.235 3.658.688 10.832 3.417 1.182.647-11.099-4.517-4.573z" fill="#443D5E"/>
    <path d="M58.145 10.808l3.78.149 1.507 2.512 3.438.674-2.052 10.43.377 5.935-3.423-.02a9.985 9.985 0 00-6.699 2.527l.103-7.705-1.472-5.752.33-6.032 2.766-.347 1.345-2.37z" fill="#F7B129"/>
    <path d="M60.24 9.59c1.965 0 3.557-1.6 3.557-3.575a3.566 3.566 0 00-3.557-3.574 3.566 3.566 0 00-3.558 3.574 3.566 3.566 0 003.557 3.575z" fill="#FFB6B6"/>
    <path d="M57.823 2.372a4.062 4.062 0 015.668 1.478c.36.638.542 1.362.528 2.095-1.813.457-3.717.807-5.65.11l-.457-1.123-.27 1.123c-.588.242-1.178.447-1.769-.002a4.197 4.197 0 01.486-2.102 4.174 4.174 0 011.464-1.579z" fill="#443D5E"/>
    <path d="M66.212 37.714l.48 4.373a.533.533 0 00.507.377h2.21a.53.53 0 00.508-.377l.398-3.352a.804.804 0 001.154-.617.814.814 0 00-.569-.887.803.803 0 00-.377-.02.526.526 0 00-.403-.188h-3.4a.528.528 0 00-.525.444.537.537 0 00.017.247zm4.172.795l.243-.795a.53.53 0 00.009-.282l.03-.003a.575.575 0 01.576.578.58.58 0 01-.576.58.568.568 0 01-.282-.078z" fill="#2E8C8D"/>
    <path d="M69.545 42.467a1.36 1.36 0 01-.21-1.644c.1-.171.235-.32.398-.432l-2.155-10.752 2.38.768 1.724 10.4a1.372 1.372 0 01-.334 1.783 1.356 1.356 0 01-1.803-.123z" fill="#FFB6B6"/>
    <path d="M65.393 15.263l1.476-1.12s1.302-.093 1.533 2.267c.23 2.36 1.675 11.415 1.675 11.415l2.259 10.51-3.127.69-2.42-11.343-2.422-7.826 1.026-4.593z" fill="#F7B129"/>
    <path d="M52.652 25.05a.838.838 0 00.836-.84.838.838 0 00-.836-.84.838.838 0 00-.836.84c0 .464.375.84.836.84z" fill="#2E8C8D"/>
    <path d="M26.003 81.304h1.742l.828-6.748h-2.57v6.748z" fill="#FFB6B6"/>
    <path d="M25.559 80.733h.49l1.914-.782 1.025.782c.58 0 1.136.231 1.546.643.41.412.64.97.64 1.552V83H25.56v-2.267z" fill="#443D5E"/>
    <path d="M32.752 80.202l1.699.385 2.288-6.4-2.508-.568-1.479 6.583z" fill="#FFB6B6"/>
    <path d="M32.444 79.546l.478.109 2.039-.34.829.99a2.186 2.186 0 011.367.97c.309.492.411 1.087.284 1.655l-.016.07-5.478-1.242.497-2.212zm-9.629-32.955l1.575 17.726s-.59 10.642 1.314 14.387h2.762l1.367-15.359.172-10.309 5.92 8.698-3.77 16.719 3.398.305 6.119-18.144-6.723-17.033-12.134 3.01z" fill="#443D5E"/>
    <path d="M24.464 18.363c2.243 0 4.062-1.827 4.062-4.08 0-2.254-1.819-4.08-4.062-4.08-2.243 0-4.061 1.826-4.061 4.08 0 2.253 1.818 4.08 4.061 4.08z" fill="#FFB8B8"/>
    <path d="M31.605 22.251l-3.332-1.436-1.623-1.729-4.052.657-1.075 1.852-3.48 3.25 4.078 18.523-.124 4.045s2.61 1.18 13.928-1.537c.136-.033-.148-.175-.148-.175l-4.172-23.45z" fill="#3F3D56"/>
    <path d="M20.24 16.598a9.186 9.186 0 01-.084-.117c-.01.023-.02.048-.032.07l.116.047zm8.264-5.3a2.597 2.597 0 00-1.356-1.316 2.464 2.464 0 00-1.855.002c-.537-.341-1.133-.611-1.762-.645-.628-.033-1.292.201-1.68.716a2.753 2.753 0 01-.293.383c-.311.29-.784.248-1.198.19l.557.478-.674.177.786.48c-.76.458-1.107 1.46-1.015 2.37.086.86.5 1.648.995 2.348.197-.419.155-.92.151-1.39-.003-.498.085-1.064.482-1.342.268-.188.612-.196.935-.194 1.63.009 3.257.11 4.875.305.22.01.433.072.624.182.358.245.427.751.463 1.195a8.698 8.698 0 00.276-2.245 4.156 4.156 0 00-.311-1.694z" fill="#443D5E"/>
    <path d="M29.769 59.017c3.53 0 6.392-2.875 6.392-6.422 0-3.547-2.861-6.422-6.392-6.422-3.53 0-6.392 2.875-6.392 6.422 0 3.547 2.861 6.422 6.392 6.422z" fill="#fff"/>
    <path d="M29.769 46.03a6.53 6.53 0 00-1.47.169c-1.18.273-2.26.87-3.122 1.724a6.59 6.59 0 00-1.626 6.689 6.564 6.564 0 002.314 3.243 6.518 6.518 0 005.867.999 6.527 6.527 0 002.623-1.584 6.593 6.593 0 00.712-8.518 6.541 6.541 0 00-2.323-2.002 6.509 6.509 0 00-2.975-.72zm0 12.844a6.196 6.196 0 01-4.032-1.485 6.278 6.278 0 01-1.921-2.884 6.303 6.303 0 011.645-6.461 6.237 6.237 0 014.308-1.728c1.658 0 3.248.661 4.42 1.839a6.294 6.294 0 011.83 4.44 6.294 6.294 0 01-1.83 4.44 6.236 6.236 0 01-4.42 1.84z" fill="#3F3D56"/>
    <path d="M26.634 51.31h6.27c.23 0 .416-.187.416-.417v-.02a.417.417 0 00-.416-.419h-6.27a.417.417 0 00-.416.418v.02c0 .231.186.418.416.418zm0 1.713h6.27c.23 0 .416-.187.416-.418v-.02a.417.417 0 00-.416-.418h-6.27a.417.417 0 00-.416.418v.02c0 .231.186.418.416.418zm0 1.713h6.27c.23 0 .416-.188.416-.418v-.02a.417.417 0 00-.416-.419h-6.27a.417.417 0 00-.416.418v.02c0 .231.186.419.416.419z" fill="#2E8C8D"/>
    <path d="M101.288 81.086h-1.826l-.87-7.076h2.696v7.076zm-8.641 0h-1.826l-.869-7.076h2.695v7.076z" fill="#9E616A"/>
    <path d="M92.712 83h-5.616v-.072c0-.582.23-1.14.64-1.552a2.18 2.18 0 011.546-.643l1.026-.782 1.914.782h.49V83zm8.873 0H95.97v-.072c0-.582.23-1.14.64-1.552a2.18 2.18 0 011.546-.643l1.025-.782 1.914.782h.49V83zM90.856 39.207l-2.775 16.977.755 2.53-.99 1.792L89.3 76.24l-.591 1.307 1.65 1.023h3.36l.178-14.246.83-2.091V61.08l1.689-8.687.31 12.166.492 2.094-.413 1.492.54 1.045 1.432 9.69h3.766l-.291-2.254a1.67 1.67 0 00.871-1.844l-.216-.988.491-2.922.895-16.3-.252-13.152-4.406-3.385-8.78 1.171z" fill="#443D5E"/>
    <path d="M97.22 17.406a3.507 3.507 0 003.498-3.515 3.507 3.507 0 00-3.499-3.516 3.507 3.507 0 00-3.5 3.516 3.507 3.507 0 003.5 3.515zm-7.648 28.538a1.504 1.504 0 00.414-1.204 1.51 1.51 0 00-.653-1.09l1.36-5.17-2.621.885-.89 4.774a1.519 1.519 0 00.397 1.97 1.5 1.5 0 001.993-.165z" fill="#9E616A"/>
    <path d="M91.006 21.123l-.563-.117-.48.267s-1.34 1.796-1.34 3.442c0 1.646-1.64 17.508-1.64 17.508l2.98 1.346 2.383-12.42-1.34-10.026z" fill="#DD6F6F"/>
    <path d="M100.284 11.313s.915-1.757-1.099-1.917c0 0-1.716-1.565-3.466-.286 0 0-.954 0-1.476 1.085 0 0-.75-.286-.916.48 0 0-.55 1.597 0 3.035.55 1.438.732 1.598.732 1.598s-.903-3.015 1.294-3.175c2.197-.16 4.655-1.539 4.838.22.183 1.757.459 2.19.459 2.19s1.739-2.51-.366-3.23z" fill="#443D5E"/>
    <path d="M113.066 60.506c-.264 0-.519-.097-.715-.275l-10.591-9.47a1.09 1.09 0 01-.088-1.53l6.784-7.656a1.078 1.078 0 011.523-.09l10.59 9.471a1.086 1.086 0 01.089 1.53l-6.784 7.657a1.07 1.07 0 01-.808.363z" fill="#fff"/>
    <path d="M113.066 60.575c-.281 0-.552-.103-.762-.291l-10.59-9.47a1.159 1.159 0 01-.094-1.63l6.784-7.656a1.148 1.148 0 011.621-.094l10.59 9.47a1.157 1.157 0 01.095 1.628l-6.785 7.657a1.14 1.14 0 01-.859.386zm-3.804-19.154a.86.86 0 00-.651.293l-6.784 7.656a.877.877 0 00.072 1.235l10.59 9.47a.865.865 0 001.229-.071l6.785-7.657a.876.876 0 00-.072-1.235l-10.59-9.47a.864.864 0 00-.579-.221z" fill="#3F3D56"/>
    <path d="M116.906 53.255a.463.463 0 01-.31-.119l-8.313-7.434a.47.47 0 01.464-.794c.058.02.111.053.157.094l8.313 7.434a.477.477 0 01.126.517.471.471 0 01-.437.302zm-1.586 1.789a.465.465 0 01-.31-.118l-8.313-7.434a.469.469 0 01-.13-.505.463.463 0 01.414-.314.464.464 0 01.337.118l8.313 7.434a.464.464 0 01.143.24.464.464 0 01-.189.497.462.462 0 01-.265.082zm-1.585 1.79a.463.463 0 01-.31-.119l-8.313-7.434a.47.47 0 01.464-.793c.058.02.111.052.157.093l8.313 7.434a.477.477 0 01.126.517.471.471 0 01-.437.302z" fill="#2E8C8D"/>
    <path d="M104.229 46.25a1.509 1.509 0 01.819-2.156l.009-5.348 2.307 1.534-.362 4.843a1.518 1.518 0 01-.889 1.8 1.505 1.505 0 01-1.884-.674z" fill="#9E616A"/>
    <path d="M104.442 22.589l1.03-.998.757.549s.745.898 1.341 3.591c.595 2.694 0 17.508 0 17.508l-3.277-.449.447-7.781-1.341-6.584 1.043-5.836z" fill="#DD6F6F"/>
    <path d="M105.964 21.834l-3.472-1.666-2.357-2.196-4.298-.032-1.387 1.81L90.79 21l.61 12.68-.416.974s.29.263.422.41c.133.148-.183 1.379-.183 1.379l-.178 1.34.494.354-.642.76-.159 1.2s11.191-2.795 13.306 1.834c.112.245-.163-2.145-.163-2.145l-.275-1.75.272-1.57.416-.419-.697-.7.447-3.326 1.92-10.187z" fill="#3F3D56"/>
    <path d="M27.232 49.944a1.621 1.621 0 00-.542-1.892 1.606 1.606 0 00-.637-.284l-.771-5.689-2.236 1.964 1.075 5.101a1.63 1.63 0 00.263 1.124 1.61 1.61 0 002.848-.324z" fill="#FFB8B8"/>
    <path d="M18.471 24.742l-.606.116-.366.464s-.593 2.335.082 3.967c.675 1.632 5.557 18.038 5.557 18.038l3.506.102-2.731-13.301-5.442-9.386z" fill="#3F3D56"/>
    <path d="M32.294 49.11a1.617 1.617 0 01-.2-1.959c.124-.2.29-.372.487-.502l-1.396-5.568 2.804.985.895 5.136a1.631 1.631 0 01-.451 2.11 1.612 1.612 0 01-2.139-.202z" fill="#FFB8B8"/>
    <path d="M31.069 22.443l.605-.119.512.293s1.417 1.945 1.396 3.712c-.02 1.767 1.539 18.818 1.539 18.818l-3.216 1.409-2.402-13.366 1.566-10.747z" fill="#3F3D56"/>
  </g>
  <defs>
    <clipPath id="LNixHbbe4a">
      <path fill="#fff" transform="translate(0 .794)" d="M0 0h121v82.206H0z"/>
    </clipPath>
  </defs>
</svg>
