<svg xmlns="http://www.w3.org/2000/svg" fill="none" viewBox="0 0 722 484">
  <path d="M154 55v75.317c0 35.346 28.654 64 64 64h142.277c35.346 0 64 28.653 64 64V371c0 35.346 28.654 64 64 64H639c35.346 0 64-28.654 64-64V252.5" stroke="#D6D3DD" stroke-width="18"/>
  <g filter="url(#TAKdQcvIaa)">
    <path fill-rule="evenodd" clip-rule="evenodd" d="M20 18a8 8 0 018-8h260a8 8 0 018 8v83a8 8 0 01-8 8H28a8 8 0 01-8-8V18z" fill="#fff"/>
    <path d="M20.5 18a7.5 7.5 0 017.5-7.5h260a7.5 7.5 0 017.5 7.5v83a7.5 7.5 0 01-7.5 7.5H28a7.5 7.5 0 01-7.5-7.5V18z" stroke="#D8D8D8"/>
  </g>
  <path d="M60 84.5c14.083 0 25.5-11.417 25.5-25.5S74.083 33.5 60 33.5 34.5 44.917 34.5 59 45.917 84.5 60 84.5z" fill="#443D5E" stroke="#E0E0E0"/>
  <path d="M58.649 60.043v-1.728h-6.035v2.46h2.578l-.01.215c-.098 1.416-1.23 2.373-2.852 2.373-2.06 0-3.388-1.69-3.388-4.482 0-2.744 1.2-4.336 3.232-4.336 1.377 0 2.432.762 2.783 2.012h3.545c-.361-2.872-2.92-4.893-6.338-4.893-4.258 0-6.875 2.695-6.875 7.266 0 4.629 2.617 7.314 6.963 7.314 4.014 0 6.397-2.353 6.397-6.201zm8.724 6.201c3.633 0 6.23-2.207 6.396-5.556h-3.447c-.225 1.65-1.367 2.685-2.94 2.685-1.972 0-3.203-1.67-3.203-4.433 0-2.735 1.24-4.405 3.194-4.405 1.572 0 2.754 1.094 2.93 2.754h3.447c-.108-3.33-2.813-5.625-6.377-5.625-4.2 0-6.846 2.686-6.846 7.285 0 4.61 2.627 7.295 6.846 7.295z" fill="#fff"/>
  <path d="M104.392 42.28a1.74 1.74 0 00-.77-.742c-.327-.177-.714-.266-1.162-.266-.775 0-1.395.257-1.862.77-.467.504-.7 1.18-.7 2.03 0 .905.243 1.615.728 2.128.495.504 1.171.756 2.03.756.588 0 1.083-.15 1.484-.448.411-.299.709-.728.896-1.288h-3.038v-1.764h5.208v2.226a4.642 4.642 0 01-.91 1.666c-.42.513-.957.929-1.61 1.246-.653.317-1.391.476-2.212.476-.971 0-1.839-.21-2.604-.63a4.648 4.648 0 01-1.778-1.778c-.42-.756-.63-1.62-.63-2.59 0-.97.21-1.834.63-2.59a4.524 4.524 0 011.778-1.778c.756-.43 1.619-.644 2.59-.644 1.176 0 2.165.285 2.968.854.812.57 1.349 1.358 1.61 2.366h-2.646zm5.836-1.904c-.42 0-.765-.121-1.036-.364a1.236 1.236 0 01-.392-.924c0-.373.131-.681.392-.924.271-.252.616-.378 1.036-.378.411 0 .747.126 1.008.378.271.243.406.55.406.924 0 .364-.135.672-.406.924-.261.243-.597.364-1.008.364zm1.19.812V49h-2.394v-7.812h2.394zm4.621-2.548V49h-2.394V38.64h2.394zm4.62 0V49h-2.394V38.64h2.394zm3.431 1.736c-.42 0-.765-.121-1.036-.364a1.236 1.236 0 01-.392-.924c0-.373.131-.681.392-.924.271-.252.616-.378 1.036-.378.411 0 .747.126 1.008.378.271.243.406.55.406.924 0 .364-.135.672-.406.924-.261.243-.597.364-1.008.364zm1.19.812V49h-2.394v-7.812h2.394zm1.751 3.892c0-.803.149-1.507.448-2.114.308-.607.723-1.073 1.246-1.4a3.233 3.233 0 011.75-.49c.55 0 1.031.112 1.442.336.42.224.742.518.966.882v-1.106h2.394V49h-2.394v-1.106c-.234.364-.56.658-.98.882-.411.224-.892.336-1.442.336a3.207 3.207 0 01-1.736-.49c-.523-.336-.938-.807-1.246-1.414-.299-.616-.448-1.325-.448-2.128zm5.852.014c0-.597-.168-1.069-.504-1.414a1.593 1.593 0 00-1.204-.518c-.476 0-.882.173-1.218.518-.327.336-.49.803-.49 1.4 0 .597.163 1.073.49 1.428.336.345.742.518 1.218.518s.877-.173 1.204-.518c.336-.345.504-.817.504-1.414zm9.377-3.99c.915 0 1.643.299 2.184.896.551.588.826 1.4.826 2.436V49h-2.38v-4.242c0-.523-.135-.929-.406-1.218-.27-.29-.634-.434-1.092-.434-.457 0-.821.145-1.092.434-.27.29-.406.695-.406 1.218V49H137.5v-7.812h2.394v1.036a2.48 2.48 0 01.98-.812 3.059 3.059 0 011.386-.308zm8.218 2.968c0-.97.21-1.834.63-2.59a4.46 4.46 0 011.75-1.778c.756-.43 1.61-.644 2.562-.644 1.167 0 2.166.308 2.996.924.831.616 1.386 1.456 1.666 2.52h-2.632a2.112 2.112 0 00-.84-.938 2.302 2.302 0 00-1.218-.322c-.737 0-1.334.257-1.792.77-.457.513-.686 1.2-.686 2.058 0 .859.229 1.545.686 2.058.458.513 1.055.77 1.792.77a2.3 2.3 0 001.218-.322c.364-.215.644-.527.84-.938h2.632c-.28 1.064-.835 1.904-1.666 2.52-.83.607-1.829.91-2.996.91-.952 0-1.806-.21-2.562-.63a4.582 4.582 0 01-1.75-1.778c-.42-.756-.63-1.62-.63-2.59zm18.926.896c0 .224-.014.457-.042.7h-5.418c.037.485.191.859.462 1.12.28.252.621.378 1.022.378.597 0 1.013-.252 1.246-.756h2.548a3.46 3.46 0 01-.714 1.386c-.336.41-.761.733-1.274.966a4.113 4.113 0 01-1.722.35c-.765 0-1.447-.163-2.044-.49a3.487 3.487 0 01-1.4-1.4c-.336-.607-.504-1.316-.504-2.128s.163-1.521.49-2.128a3.487 3.487 0 011.4-1.4c.597-.327 1.283-.49 2.058-.49.756 0 1.428.159 2.016.476.588.317 1.045.77 1.372 1.358.336.588.504 1.274.504 2.058zm-2.45-.63c0-.41-.14-.737-.42-.98-.28-.243-.63-.364-1.05-.364-.401 0-.742.117-1.022.35-.271.233-.439.565-.504.994h2.996zm3.729.742c0-.803.149-1.507.448-2.114.308-.607.723-1.073 1.246-1.4a3.235 3.235 0 011.75-.49c.551 0 1.031.112 1.442.336.42.224.742.518.966.882v-1.106h2.394V49h-2.394v-1.106a2.57 2.57 0 01-.98.882c-.411.224-.891.336-1.442.336a3.21 3.21 0 01-1.736-.49c-.523-.336-.938-.807-1.246-1.414-.299-.616-.448-1.325-.448-2.128zm5.852.014c0-.597-.168-1.069-.504-1.414a1.593 1.593 0 00-1.204-.518c-.476 0-.882.173-1.218.518-.327.336-.49.803-.49 1.4 0 .597.163 1.073.49 1.428.336.345.742.518 1.218.518s.877-.173 1.204-.518c.336-.345.504-.817.504-1.414zm7.796 4.018c-.682 0-1.288-.117-1.82-.35-.532-.233-.952-.55-1.26-.952a2.556 2.556 0 01-.518-1.372h2.366a.91.91 0 00.378.658c.224.168.499.252.826.252.298 0 .527-.056.686-.168a.55.55 0 00.252-.462c0-.224-.117-.387-.35-.49-.234-.112-.612-.233-1.134-.364-.56-.13-1.027-.266-1.4-.406a2.503 2.503 0 01-.966-.686c-.271-.317-.406-.742-.406-1.274 0-.448.121-.854.364-1.218.252-.373.616-.667 1.092-.882.485-.215 1.059-.322 1.722-.322.98 0 1.75.243 2.31.728.569.485.896 1.13.98 1.932h-2.212a.947.947 0 00-.364-.644c-.196-.159-.458-.238-.784-.238-.28 0-.495.056-.644.168a.495.495 0 00-.224.434c0 .224.116.392.35.504.242.112.616.224 1.12.336.578.15 1.05.299 1.414.448a2.3 2.3 0 01.952.7c.28.317.424.747.434 1.288 0 .457-.131.868-.392 1.232-.252.355-.621.635-1.106.84-.476.205-1.032.308-1.666.308zm4.644-4.032c0-.803.149-1.507.448-2.114.308-.607.723-1.073 1.246-1.4a3.235 3.235 0 011.75-.49c.551 0 1.031.112 1.442.336.42.224.742.518.966.882v-1.106h2.394V49h-2.394v-1.106a2.57 2.57 0 01-.98.882c-.411.224-.891.336-1.442.336a3.21 3.21 0 01-1.736-.49c-.523-.336-.938-.807-1.246-1.414-.299-.616-.448-1.325-.448-2.128zm5.852.014c0-.597-.168-1.069-.504-1.414a1.593 1.593 0 00-1.204-.518c-.476 0-.882.173-1.218.518-.327.336-.49.803-.49 1.4 0 .597.163 1.073.49 1.428.336.345.742.518 1.218.518s.877-.173 1.204-.518c.336-.345.504-.817.504-1.414zm7.012-2.604c.28-.43.63-.765 1.05-1.008.42-.252.886-.378 1.4-.378v2.534h-.658c-.598 0-1.046.13-1.344.392-.299.252-.448.7-.448 1.344V49h-2.394v-7.812h2.394v1.302zM97.688 75.416c0-1.088.245-2.064.736-2.928a5.349 5.349 0 012-2.048c.853-.49 1.797-.736 2.832-.736 1.216 0 2.277.293 3.184.88s1.568 1.419 1.984 2.496h-1.744c-.309-.672-.757-1.19-1.344-1.552-.576-.363-1.269-.544-2.08-.544-.779 0-1.477.181-2.096.544a3.79 3.79 0 00-1.456 1.552c-.352.661-.528 1.44-.528 2.336 0 .885.176 1.664.528 2.336a3.815 3.815 0 001.456 1.536c.619.363 1.317.544 2.096.544.811 0 1.504-.176 2.08-.528.587-.363 1.035-.88 1.344-1.552h1.744c-.416 1.067-1.077 1.893-1.984 2.48-.907.576-1.968.864-3.184.864-1.035 0-1.979-.24-2.832-.72a5.38 5.38 0 01-2-2.032c-.49-.864-.736-1.84-.736-2.928zm17.219 5.728a4.535 4.535 0 01-2.24-.56A4.072 4.072 0 01111.099 79c-.373-.693-.56-1.493-.56-2.4 0-.896.192-1.685.576-2.368a4.011 4.011 0 011.6-1.584c.672-.373 1.424-.56 2.256-.56.832 0 1.584.187 2.256.56.672.363 1.2.885 1.584 1.568.395.683.592 1.477.592 2.384 0 .907-.203 1.707-.608 2.4a4.118 4.118 0 01-1.616 1.584c-.683.373-1.44.56-2.272.56zm0-1.28c.523 0 1.013-.123 1.472-.368a2.744 2.744 0 001.104-1.104c.288-.49.432-1.088.432-1.792s-.139-1.301-.416-1.792c-.277-.49-.64-.853-1.088-1.088a2.982 2.982 0 00-1.456-.368c-.533 0-1.024.123-1.472.368-.437.235-.789.597-1.056 1.088-.267.49-.4 1.088-.4 1.792 0 .715.128 1.317.384 1.808.267.49.619.859 1.056 1.104.437.235.917.352 1.44.352zm11.174-7.792c1.067 0 1.931.325 2.592.976.662.64.992 1.568.992 2.784V81h-1.44v-4.96c0-.875-.218-1.541-.656-2-.437-.47-1.034-.704-1.792-.704-.768 0-1.381.24-1.84.72-.448.48-.672 1.179-.672 2.096V81h-1.456v-8.768h1.456v1.248a2.907 2.907 0 011.168-1.04 3.702 3.702 0 011.648-.368zm10.07.016c.758 0 1.419.165 1.984.496.576.33 1.003.747 1.28 1.248v-1.6h1.472v8.96c0 .8-.17 1.51-.512 2.128a3.621 3.621 0 01-1.472 1.472c-.629.352-1.365.528-2.208.528-1.152 0-2.112-.272-2.88-.816-.768-.544-1.221-1.285-1.36-2.224h1.44c.16.533.491.96.992 1.28.502.33 1.104.496 1.808.496.8 0 1.451-.25 1.952-.752.512-.501.768-1.205.768-2.112v-1.84c-.288.512-.714.939-1.28 1.28-.565.341-1.226.512-1.984.512a4.059 4.059 0 01-2.128-.576 4.045 4.045 0 01-1.488-1.616c-.362-.693-.544-1.483-.544-2.368 0-.896.182-1.68.544-2.352a3.956 3.956 0 011.488-1.584 4.15 4.15 0 012.128-.56zm3.264 4.512c0-.661-.133-1.237-.4-1.728a2.747 2.747 0 00-1.088-1.12 2.854 2.854 0 00-1.488-.4c-.544 0-1.04.128-1.488.384-.448.256-.805.63-1.072 1.12-.266.49-.4 1.067-.4 1.728 0 .672.134 1.259.4 1.76.267.49.624.87 1.072 1.136.448.256.944.384 1.488.384s1.04-.128 1.488-.384a2.857 2.857 0 001.088-1.136c.267-.501.4-1.083.4-1.744zm5.881-2.944a2.81 2.81 0 011.088-1.168c.48-.277 1.061-.416 1.744-.416v1.504h-.384c-1.632 0-2.448.885-2.448 2.656V81h-1.456v-8.768h1.456v1.424zm4.46 2.928c0-.896.182-1.68.544-2.352a3.956 3.956 0 011.488-1.584 4.15 4.15 0 012.128-.56c.768 0 1.435.165 2 .496.566.33.987.747 1.264 1.248v-1.6h1.472V81h-1.472v-1.632c-.288.512-.72.939-1.296 1.28-.565.33-1.226.496-1.984.496a3.978 3.978 0 01-2.112-.576 4.045 4.045 0 01-1.488-1.616c-.362-.693-.544-1.483-.544-2.368zm7.424.016c0-.661-.133-1.237-.4-1.728a2.747 2.747 0 00-1.088-1.12 2.854 2.854 0 00-1.488-.4c-.544 0-1.04.128-1.488.384-.448.256-.805.63-1.072 1.12-.266.49-.4 1.067-.4 1.728 0 .672.134 1.259.4 1.76.267.49.624.87 1.072 1.136.448.256.944.384 1.488.384s1.04-.128 1.488-.384a2.857 2.857 0 001.088-1.136c.267-.501.4-1.083.4-1.744zm6.201-3.168V78.6c0 .427.09.73.272.912.181.17.496.256.944.256h1.072V81h-1.312c-.811 0-1.419-.187-1.824-.56-.406-.373-.608-.987-.608-1.84v-5.168h-1.136v-1.2h1.136v-2.208h1.456v2.208h2.288v1.2h-2.288zm7.647 7.712c-.672 0-1.274-.112-1.808-.336-.533-.235-.954-.555-1.264-.96a2.598 2.598 0 01-.512-1.424h1.504c.043.437.246.795.608 1.072.374.277.859.416 1.456.416.555 0 .992-.123 1.312-.368.32-.245.48-.555.48-.928a.897.897 0 00-.512-.848c-.341-.192-.869-.379-1.584-.56-.65-.17-1.184-.341-1.6-.512a3.044 3.044 0 01-1.056-.784c-.288-.352-.432-.81-.432-1.376 0-.448.134-.859.4-1.232.267-.373.646-.667 1.136-.88.491-.224 1.051-.336 1.68-.336.971 0 1.755.245 2.352.736.598.49.918 1.163.96 2.016h-1.456a1.492 1.492 0 00-.56-1.104c-.33-.277-.778-.416-1.344-.416-.522 0-.938.112-1.248.336-.309.224-.464.517-.464.88 0 .288.091.528.272.72.192.181.427.33.704.448.288.107.683.23 1.184.368.63.17 1.142.341 1.536.512.395.16.731.405 1.008.736.288.33.438.763.448 1.296 0 .48-.133.912-.4 1.296-.266.384-.645.688-1.136.912-.48.213-1.034.32-1.664.32zm14.329 0a4.535 4.535 0 01-2.24-.56A4.072 4.072 0 01181.549 79c-.373-.693-.56-1.493-.56-2.4 0-.896.192-1.685.576-2.368a4.011 4.011 0 011.6-1.584c.672-.373 1.424-.56 2.256-.56.832 0 1.584.187 2.256.56.672.363 1.2.885 1.584 1.568.395.683.592 1.477.592 2.384 0 .907-.203 1.707-.608 2.4a4.118 4.118 0 01-1.616 1.584c-.683.373-1.44.56-2.272.56zm0-1.28c.523 0 1.013-.123 1.472-.368a2.744 2.744 0 001.104-1.104c.288-.49.432-1.088.432-1.792s-.139-1.301-.416-1.792c-.277-.49-.64-.853-1.088-1.088a2.982 2.982 0 00-1.456-.368c-.533 0-1.024.123-1.472.368-.437.235-.789.597-1.056 1.088-.267.49-.4 1.088-.4 1.792 0 .715.128 1.317.384 1.808.267.49.619.859 1.056 1.104.437.235.917.352 1.44.352zm11.174-7.792c1.067 0 1.931.325 2.592.976.662.64.992 1.568.992 2.784V81h-1.44v-4.96c0-.875-.218-1.541-.656-2-.437-.47-1.034-.704-1.792-.704-.768 0-1.381.24-1.84.72-.448.48-.672 1.179-.672 2.096V81h-1.456v-8.768h1.456v1.248a2.907 2.907 0 011.168-1.04 3.702 3.702 0 011.648-.368zm12.988 1.36V78.6c0 .427.09.73.272.912.181.17.496.256.944.256h1.072V81h-1.312c-.811 0-1.419-.187-1.824-.56-.406-.373-.608-.987-.608-1.84v-5.168h-1.136v-1.2h1.136v-2.208h1.456v2.208h2.288v1.2h-2.288zm8.896-1.36c.661 0 1.258.144 1.792.432a2.92 2.92 0 011.248 1.264c.309.565.464 1.253.464 2.064V81h-1.44v-4.96c0-.875-.219-1.541-.656-2-.438-.47-1.035-.704-1.792-.704-.768 0-1.382.24-1.84.72-.448.48-.672 1.179-.672 2.096V81h-1.456V69.16h1.456v4.32a2.875 2.875 0 011.184-1.04 3.91 3.91 0 011.712-.368zm7.126-1.264a.958.958 0 01-.704-.288.958.958 0 01-.288-.704c0-.277.096-.512.288-.704a.958.958 0 01.704-.288c.267 0 .491.096.672.288a.958.958 0 01.288.704.958.958 0 01-.288.704.886.886 0 01-.672.288zm.704 1.424V81h-1.456v-8.768h1.456zm6.077 8.912c-.672 0-1.275-.112-1.808-.336-.533-.235-.955-.555-1.264-.96a2.598 2.598 0 01-.512-1.424h1.504c.043.437.245.795.608 1.072.373.277.859.416 1.456.416.555 0 .992-.123 1.312-.368.32-.245.48-.555.48-.928 0-.384-.171-.667-.512-.848-.341-.192-.869-.379-1.584-.56a13.017 13.017 0 01-1.6-.512 3.044 3.044 0 01-1.056-.784c-.288-.352-.432-.81-.432-1.376 0-.448.133-.859.4-1.232s.645-.667 1.136-.88c.491-.224 1.051-.336 1.68-.336.971 0 1.755.245 2.352.736.597.49.917 1.163.96 2.016h-1.456a1.495 1.495 0 00-.56-1.104c-.331-.277-.779-.416-1.344-.416-.523 0-.939.112-1.248.336-.309.224-.464.517-.464.88 0 .288.091.528.272.72.192.181.427.33.704.448.288.107.683.23 1.184.368.629.17 1.141.341 1.536.512.395.16.731.405 1.008.736.288.33.437.763.448 1.296 0 .48-.133.912-.4 1.296s-.645.688-1.136.912c-.48.213-1.035.32-1.664.32zm22.185-8.912L251.771 81h-1.504l-2.112-6.96-2.112 6.96h-1.504l-2.752-8.768h1.488l2.016 7.36 2.176-7.36h1.488l2.128 7.376 1.984-7.376h1.44zm2.689-1.424a.957.957 0 01-.704-.288.958.958 0 01-.288-.704c0-.277.096-.512.288-.704a.957.957 0 01.704-.288.89.89 0 01.672.288.958.958 0 01.288.704.958.958 0 01-.288.704.89.89 0 01-.672.288zm.704 1.424V81h-1.456v-8.768h1.456zm7.245-.16c1.066 0 1.93.325 2.592.976.661.64.992 1.568.992 2.784V81h-1.44v-4.96c0-.875-.219-1.541-.656-2-.438-.47-1.035-.704-1.792-.704-.768 0-1.382.24-1.84.72-.448.48-.672 1.179-.672 2.096V81h-1.456v-8.768h1.456v1.248a2.9 2.9 0 011.168-1.04 3.696 3.696 0 011.648-.368zm8.342-2.224l-.176 8h-1.216l-.176-8h1.568zm-.72 11.248a.958.958 0 01-.704-.288.958.958 0 01-.288-.704c0-.277.096-.512.288-.704a.958.958 0 01.704-.288c.267 0 .491.096.672.288a.958.958 0 01.288.704.958.958 0 01-.288.704.886.886 0 01-.672.288z" fill="#251A3F"/>
  <g filter="url(#TAKdQcvIab)">
    <path fill-rule="evenodd" clip-rule="evenodd" d="M227 133a8 8 0 018-8h286a8 8 0 018 8v83a8 8 0 01-8 8H235a8 8 0 01-8-8v-83z" fill="#443D5E"/>
    <path d="M227.5 133a7.5 7.5 0 017.5-7.5h286a7.5 7.5 0 017.5 7.5v83a7.5 7.5 0 01-7.5 7.5H235a7.5 7.5 0 01-7.5-7.5v-83z" stroke="#D8D8D8"/>
  </g>
  <path fill-rule="evenodd" clip-rule="evenodd" d="M267 199c13.807 0 25-11.193 25-25s-11.193-25-25-25-25 11.193-25 25 11.193 25 25 25z" fill="#F5BF56"/>
  <path d="M252.836 166.908V181h5.723c4.248 0 6.758-2.627 6.758-7.129 0-4.492-2.5-6.963-6.758-6.963h-5.723zm3.584 2.891h1.67c2.266 0 3.584 1.435 3.584 4.082 0 2.812-1.25 4.228-3.584 4.228h-1.67v-8.31zm24.095 5.244v-1.729h-6.035v2.461h2.578l-.009.215c-.098 1.416-1.231 2.373-2.852 2.373-2.06 0-3.389-1.689-3.389-4.482 0-2.744 1.202-4.336 3.233-4.336 1.377 0 2.431.762 2.783 2.012h3.545c-.361-2.871-2.92-4.893-6.338-4.893-4.258 0-6.875 2.695-6.875 7.266 0 4.629 2.617 7.314 6.963 7.314 4.014 0 6.396-2.353 6.396-6.201z" fill="#443D5E"/>
  <path d="M308.55 154.172c1.036 0 1.941.205 2.716.616a4.34 4.34 0 011.792 1.736c.429.737.644 1.591.644 2.562 0 .961-.215 1.815-.644 2.562a4.323 4.323 0 01-1.806 1.736c-.775.411-1.675.616-2.702.616h-3.682v-9.828h3.682zm-.154 7.756c.905 0 1.61-.247 2.114-.742.504-.495.756-1.195.756-2.1s-.252-1.61-.756-2.114c-.504-.504-1.209-.756-2.114-.756h-1.134v5.712h1.134zm6.66-1.848c0-.803.149-1.507.448-2.114.308-.607.723-1.073 1.246-1.4a3.23 3.23 0 011.75-.49c.55 0 1.031.112 1.442.336.42.224.742.518.966.882v-1.106h2.394V164h-2.394v-1.106c-.234.364-.56.658-.98.882-.411.224-.892.336-1.442.336a3.205 3.205 0 01-1.736-.49c-.523-.336-.938-.807-1.246-1.414-.299-.616-.448-1.325-.448-2.128zm5.852.014c0-.597-.168-1.069-.504-1.414a1.594 1.594 0 00-1.204-.518c-.476 0-.882.173-1.218.518-.327.336-.49.803-.49 1.4 0 .597.163 1.073.49 1.428.336.345.742.518 1.218.518s.877-.173 1.204-.518c.336-.345.504-.817.504-1.414zm8.131 1.666l1.694-5.572h2.548L330.509 164h-2.954l-2.772-7.812h2.562l1.694 5.572zm6.946-6.384c-.42 0-.765-.121-1.036-.364a1.236 1.236 0 01-.392-.924c0-.373.131-.681.392-.924.271-.252.616-.378 1.036-.378.411 0 .747.126 1.008.378.271.243.406.551.406.924 0 .364-.135.672-.406.924-.261.243-.597.364-1.008.364zm1.19.812V164h-2.394v-7.812h2.394zm1.751 3.892c0-.803.149-1.507.448-2.114.308-.607.723-1.073 1.246-1.4a3.23 3.23 0 011.75-.49c.513 0 .98.107 1.4.322a2.56 2.56 0 011.008.868v-3.626h2.394V164h-2.394v-1.12a2.43 2.43 0 01-.966.896c-.411.224-.892.336-1.442.336a3.23 3.23 0 01-1.75-.49c-.523-.336-.938-.807-1.246-1.414-.299-.616-.448-1.325-.448-2.128zm5.852.014c0-.597-.168-1.069-.504-1.414a1.594 1.594 0 00-1.204-.518c-.476 0-.882.173-1.218.518-.327.336-.49.803-.49 1.4 0 .597.163 1.073.49 1.428.336.345.742.518 1.218.518s.877-.173 1.204-.518c.336-.345.504-.817.504-1.414zm14.6-2.814a1.738 1.738 0 00-.77-.742c-.327-.177-.714-.266-1.162-.266-.775 0-1.395.257-1.862.77-.467.504-.7 1.181-.7 2.03 0 .905.243 1.615.728 2.128.495.504 1.171.756 2.03.756.588 0 1.083-.149 1.484-.448.411-.299.709-.728.896-1.288h-3.038v-1.764h5.208v2.226a4.642 4.642 0 01-.91 1.666c-.42.513-.957.929-1.61 1.246-.653.317-1.391.476-2.212.476-.971 0-1.839-.21-2.604-.63a4.644 4.644 0 01-1.778-1.778c-.42-.756-.63-1.619-.63-2.59 0-.971.21-1.834.63-2.59a4.524 4.524 0 011.778-1.778c.756-.429 1.619-.644 2.59-.644 1.176 0 2.165.285 2.968.854.812.569 1.349 1.358 1.61 2.366h-2.646zm8.188 6.832c-.766 0-1.456-.163-2.072-.49a3.64 3.64 0 01-1.442-1.4c-.346-.607-.518-1.316-.518-2.128 0-.803.177-1.507.532-2.114a3.595 3.595 0 011.456-1.414c.616-.327 1.306-.49 2.072-.49.765 0 1.456.163 2.072.49a3.601 3.601 0 011.456 1.414c.354.607.532 1.311.532 2.114 0 .803-.182 1.512-.546 2.128a3.604 3.604 0 01-1.47 1.4c-.616.327-1.307.49-2.072.49zm0-2.072c.457 0 .844-.168 1.162-.504.326-.336.49-.817.49-1.442s-.159-1.106-.476-1.442a1.494 1.494 0 00-1.148-.504c-.467 0-.854.168-1.162.504-.308.327-.462.807-.462 1.442 0 .625.149 1.106.448 1.442.308.336.69.504 1.148.504zm17.064-5.852L382.516 164h-2.646l-1.232-5.068-1.274 5.068h-2.632l-2.128-7.812h2.394l1.106 5.586 1.316-5.586h2.534l1.33 5.558 1.092-5.558h2.254zm.928 3.892c0-.803.15-1.507.448-2.114.308-.607.724-1.073 1.246-1.4a3.233 3.233 0 011.75-.49c.514 0 .98.107 1.4.322.43.215.766.504 1.008.868v-3.626h2.394V164h-2.394v-1.12a2.43 2.43 0 01-.966.896c-.41.224-.891.336-1.442.336a3.233 3.233 0 01-1.75-.49c-.522-.336-.938-.807-1.246-1.414-.298-.616-.448-1.325-.448-2.128zm5.852.014c0-.597-.168-1.069-.504-1.414a1.593 1.593 0 00-1.204-.518c-.476 0-.882.173-1.218.518-.326.336-.49.803-.49 1.4 0 .597.164 1.073.49 1.428.336.345.742.518 1.218.518s.878-.173 1.204-.518c.336-.345.504-.817.504-1.414zm11.982-.126c0 .224-.014.457-.042.7h-5.418c.037.485.191.859.462 1.12.28.252.621.378 1.022.378.597 0 1.013-.252 1.246-.756h2.548a3.464 3.464 0 01-.714 1.386 3.47 3.47 0 01-1.274.966 4.118 4.118 0 01-1.722.35c-.765 0-1.447-.163-2.044-.49a3.487 3.487 0 01-1.4-1.4c-.336-.607-.504-1.316-.504-2.128s.163-1.521.49-2.128a3.487 3.487 0 011.4-1.4c.597-.327 1.283-.49 2.058-.49.756 0 1.428.159 2.016.476.588.317 1.045.77 1.372 1.358.336.588.504 1.274.504 2.058zm-2.45-.63c0-.411-.14-.737-.42-.98-.28-.243-.63-.364-1.05-.364-.401 0-.742.117-1.022.35-.271.233-.439.565-.504.994h2.996zm12.185-3.15l-4.9 11.522h-2.576l1.792-3.976-3.178-7.546h2.674l1.806 4.886 1.792-4.886h2.59zm-106.439 28.66V196h-1.456v-11.152h1.456zm3.197 0h1.616l-1.536 3.632h-1.024l.944-3.632zm5.224-.688V196h-1.456v-11.84h1.456zm4.429 0V196h-1.456v-11.84h1.456zm18.275 2.912c.683 0 1.291.144 1.824.432.533.277.955.699 1.264 1.264.309.565.464 1.253.464 2.064V196h-1.44v-4.96c0-.875-.219-1.541-.656-2-.427-.469-1.008-.704-1.744-.704-.757 0-1.36.245-1.808.736-.448.48-.672 1.179-.672 2.096V196h-1.44v-4.96c0-.875-.219-1.541-.656-2-.427-.469-1.008-.704-1.744-.704-.757 0-1.36.245-1.808.736-.448.48-.672 1.179-.672 2.096V196h-1.456v-8.768h1.456v1.264a2.886 2.886 0 011.152-1.056 3.567 3.567 0 011.616-.368c.736 0 1.387.165 1.952.496.565.331.987.816 1.264 1.456a2.873 2.873 0 011.216-1.44 3.585 3.585 0 011.888-.512zm5.888 4.512c0-.896.182-1.68.544-2.352a3.952 3.952 0 011.488-1.584 4.15 4.15 0 012.128-.56c.768 0 1.435.165 2 .496.566.331.987.747 1.264 1.248v-1.6h1.472V196h-1.472v-1.632c-.288.512-.72.939-1.296 1.28-.565.331-1.226.496-1.984.496a3.978 3.978 0 01-2.112-.576 4.047 4.047 0 01-1.488-1.616c-.362-.693-.544-1.483-.544-2.368zm7.424.016c0-.661-.133-1.237-.4-1.728a2.745 2.745 0 00-1.088-1.12 2.851 2.851 0 00-1.488-.4c-.544 0-1.04.128-1.488.384a2.786 2.786 0 00-1.072 1.12c-.266.491-.4 1.067-.4 1.728 0 .672.134 1.259.4 1.76.267.491.624.869 1.072 1.136.448.256.944.384 1.488.384s1.04-.128 1.488-.384a2.857 2.857 0 001.088-1.136c.267-.501.4-1.083.4-1.744zm9.321 4.4l-3.44-3.872V196h-1.456v-11.84h1.456v6.96l3.376-3.888h2.032l-4.128 4.368 4.144 4.4h-1.984zm11.83-4.72c0 .277-.016.571-.048.88h-7.008c.053.864.346 1.541.88 2.032.544.48 1.2.72 1.968.72.629 0 1.152-.144 1.568-.432.426-.299.725-.693.896-1.184h1.568a3.807 3.807 0 01-1.408 2.064c-.704.523-1.579.784-2.624.784-.832 0-1.579-.187-2.24-.56a3.984 3.984 0 01-1.536-1.584c-.374-.693-.56-1.493-.56-2.4 0-.907.181-1.701.544-2.384a3.775 3.775 0 011.52-1.568c.661-.373 1.418-.56 2.272-.56.832 0 1.568.181 2.208.544.64.363 1.13.864 1.472 1.504.352.629.528 1.344.528 2.144zm-1.504-.304c0-.555-.123-1.029-.368-1.424a2.327 2.327 0 00-1.008-.912 3.01 3.01 0 00-1.392-.32c-.736 0-1.366.235-1.888.704-.512.469-.806 1.12-.88 1.952h5.536zm8.131.608c0-.896.181-1.68.544-2.352a3.938 3.938 0 011.488-1.584 4.148 4.148 0 012.128-.56c.768 0 1.434.165 2 .496.565.331.986.747 1.264 1.248v-1.6h1.472V196h-1.472v-1.632c-.288.512-.72.939-1.296 1.28-.566.331-1.227.496-1.984.496a3.973 3.973 0 01-2.112-.576 4.033 4.033 0 01-1.488-1.616c-.363-.693-.544-1.483-.544-2.368zm7.424.016c0-.661-.134-1.237-.4-1.728a2.758 2.758 0 00-1.088-1.12 2.851 2.851 0 00-1.488-.4c-.544 0-1.04.128-1.488.384a2.78 2.78 0 00-1.072 1.12c-.267.491-.4 1.067-.4 1.728 0 .672.133 1.259.4 1.76.266.491.624.869 1.072 1.136.448.256.944.384 1.488.384s1.04-.128 1.488-.384a2.87 2.87 0 001.088-1.136c.266-.501.4-1.083.4-1.744zm8.696-4.528c1.067 0 1.931.325 2.592.976.661.64.992 1.568.992 2.784V196h-1.44v-4.96c0-.875-.219-1.541-.656-2-.437-.469-1.035-.704-1.792-.704-.768 0-1.381.24-1.84.72-.448.48-.672 1.179-.672 2.096V196h-1.456v-8.768h1.456v1.248a2.898 2.898 0 011.168-1.04 3.703 3.703 0 011.648-.368zm11.964-1.264a.957.957 0 01-.704-.288.958.958 0 01-.288-.704c0-.277.096-.512.288-.704a.957.957 0 01.704-.288.89.89 0 01.672.288.958.958 0 01.288.704.958.958 0 01-.288.704.89.89 0 01-.672.288zm.704 1.424V196h-1.456v-8.768h1.456zm7.245-.16c1.067 0 1.931.325 2.592.976.661.64.992 1.568.992 2.784V196h-1.44v-4.96c0-.875-.219-1.541-.656-2-.437-.469-1.035-.704-1.792-.704-.768 0-1.381.24-1.84.72-.448.48-.672 1.179-.672 2.096V196h-1.456v-8.768h1.456v1.248a2.898 2.898 0 011.168-1.04 3.703 3.703 0 011.648-.368zm8.23 1.36v5.168c0 .427.091.731.272.912.181.171.496.256.944.256h1.072V196h-1.312c-.811 0-1.419-.187-1.824-.56-.405-.373-.608-.987-.608-1.84v-5.168h-1.136v-1.2h1.136v-2.208h1.456v2.208h2.288v1.2h-2.288zm6 .224a2.81 2.81 0 011.088-1.168c.48-.277 1.061-.416 1.744-.416v1.504h-.384c-1.632 0-2.448.885-2.448 2.656V196h-1.456v-8.768h1.456v1.424zm8.828 7.488a4.538 4.538 0 01-2.24-.56 4.068 4.068 0 01-1.568-1.584c-.373-.693-.56-1.493-.56-2.4 0-.896.192-1.685.576-2.368a4.015 4.015 0 011.6-1.584c.672-.373 1.424-.56 2.256-.56.832 0 1.584.187 2.256.56.672.363 1.2.885 1.584 1.568.395.683.592 1.477.592 2.384 0 .907-.202 1.707-.608 2.4a4.108 4.108 0 01-1.616 1.584c-.682.373-1.44.56-2.272.56zm0-1.28c.523 0 1.014-.123 1.472-.368a2.74 2.74 0 001.104-1.104c.288-.491.432-1.088.432-1.792s-.138-1.301-.416-1.792c-.277-.491-.64-.853-1.088-1.088a2.986 2.986 0 00-1.456-.368c-.533 0-1.024.123-1.472.368-.437.235-.789.597-1.056 1.088-.266.491-.4 1.088-.4 1.792 0 .715.128 1.317.384 1.808.267.491.619.859 1.056 1.104.438.235.918.352 1.44.352zm6.359-3.28c0-.896.181-1.68.544-2.352a3.938 3.938 0 011.488-1.584 4.178 4.178 0 012.144-.56c.682 0 1.317.16 1.904.48.586.309 1.034.72 1.344 1.232v-4.64h1.472V196h-1.472v-1.648c-.288.523-.715.955-1.28 1.296-.566.331-1.227.496-1.984.496a4.056 4.056 0 01-2.128-.576 4.033 4.033 0 01-1.488-1.616c-.363-.693-.544-1.483-.544-2.368zm7.424.016c0-.661-.134-1.237-.4-1.728a2.758 2.758 0 00-1.088-1.12 2.851 2.851 0 00-1.488-.4c-.544 0-1.04.128-1.488.384a2.78 2.78 0 00-1.072 1.12c-.267.491-.4 1.067-.4 1.728 0 .672.133 1.259.4 1.76.266.491.624.869 1.072 1.136.448.256.944.384 1.488.384s1.04-.128 1.488-.384a2.87 2.87 0 001.088-1.136c.266-.501.4-1.083.4-1.744zm12.2-4.368V196h-1.456v-1.296c-.277.448-.667.8-1.168 1.056a3.604 3.604 0 01-1.632.368c-.683 0-1.296-.139-1.84-.416a3.186 3.186 0 01-1.296-1.28c-.309-.565-.464-1.253-.464-2.064v-5.136h1.44v4.944c0 .864.219 1.531.656 2 .437.459 1.035.688 1.792.688.779 0 1.392-.24 1.84-.72.448-.48.672-1.179.672-2.096v-4.816h1.456zm2.406 4.368c0-.907.181-1.696.544-2.368a3.916 3.916 0 011.504-1.584c.651-.373 1.392-.56 2.224-.56 1.077 0 1.963.261 2.656.784.704.523 1.168 1.248 1.392 2.176h-1.568a2.238 2.238 0 00-.88-1.264c-.427-.309-.96-.464-1.6-.464-.832 0-1.504.288-2.016.864-.512.565-.768 1.371-.768 2.416 0 1.056.256 1.872.768 2.448.512.576 1.184.864 2.016.864.64 0 1.173-.149 1.6-.448.427-.299.72-.725.88-1.28h1.568c-.235.896-.704 1.616-1.408 2.16-.704.533-1.584.8-2.64.8-.832 0-1.573-.187-2.224-.56a3.916 3.916 0 01-1.504-1.584c-.363-.683-.544-1.483-.544-2.4zm12.531-3.168v5.168c0 .427.09.731.272.912.181.171.496.256.944.256h1.072V196h-1.312c-.811 0-1.419-.187-1.824-.56-.406-.373-.608-.987-.608-1.84v-5.168h-1.136v-1.2h1.136v-2.208h1.456v2.208h2.288v1.2h-2.288zm5.296-2.624a.957.957 0 01-.704-.288.958.958 0 01-.288-.704c0-.277.096-.512.288-.704a.957.957 0 01.704-.288.89.89 0 01.672.288.958.958 0 01.288.704.958.958 0 01-.288.704.89.89 0 01-.672.288zm.704 1.424V196h-1.456v-8.768h1.456zm6.797 8.912a4.536 4.536 0 01-2.24-.56 4.061 4.061 0 01-1.568-1.584c-.374-.693-.56-1.493-.56-2.4 0-.896.192-1.685.576-2.368a4.009 4.009 0 011.6-1.584c.672-.373 1.424-.56 2.256-.56.832 0 1.584.187 2.256.56.672.363 1.2.885 1.584 1.568.394.683.592 1.477.592 2.384 0 .907-.203 1.707-.608 2.4a4.121 4.121 0 01-1.616 1.584c-.683.373-1.44.56-2.272.56zm0-1.28c.522 0 1.013-.123 1.472-.368a2.753 2.753 0 001.104-1.104c.288-.491.432-1.088.432-1.792s-.139-1.301-.416-1.792c-.278-.491-.64-.853-1.088-1.088a2.988 2.988 0 00-1.456-.368c-.534 0-1.024.123-1.472.368-.438.235-.79.597-1.056 1.088-.267.491-.4 1.088-.4 1.792 0 .715.128 1.317.384 1.808.266.491.618.859 1.056 1.104.437.235.917.352 1.44.352zm11.174-7.792c1.067 0 1.931.325 2.592.976.661.64.992 1.568.992 2.784V196h-1.44v-4.96c0-.875-.219-1.541-.656-2-.437-.469-1.035-.704-1.792-.704-.768 0-1.381.24-1.84.72-.448.48-.672 1.179-.672 2.096V196h-1.456v-8.768h1.456v1.248a2.898 2.898 0 011.168-1.04 3.703 3.703 0 011.648-.368z" fill="#fff"/>
  <g filter="url(#TAKdQcvIac)">
    <path fill-rule="evenodd" clip-rule="evenodd" d="M85 248a8 8 0 018-8h360a8 8 0 018 8v83a8 8 0 01-8 8H93a8 8 0 01-8-8v-83z" fill="#fff"/>
    <path d="M85.5 248a7.5 7.5 0 017.5-7.5h360a7.5 7.5 0 017.5 7.5v83a7.5 7.5 0 01-7.5 7.5H93a7.5 7.5 0 01-7.5-7.5v-83z" stroke="#D8D8D8"/>
  </g>
  <path d="M125 314.5c14.083 0 25.5-11.417 25.5-25.5s-11.417-25.5-25.5-25.5-25.5 11.417-25.5 25.5 11.417 25.5 25.5 25.5z" fill="#2E8C8D" stroke="#E0E0E0"/>
  <path d="M113.404 281.908V296h3.584v-4.131h2.305c3.135 0 5.293-1.963 5.293-4.971 0-3.027-2.051-4.99-5.078-4.99h-6.104zm3.584 2.744h1.573c1.504 0 2.402.791 2.402 2.256 0 1.475-.898 2.266-2.422 2.266h-1.553v-4.522zm19.096 8.457h-5.83v-11.201h-3.584V296h9.414v-2.891z" fill="#fff"/>
  <path d="M170.358 272.336c0 .569-.131 1.092-.392 1.568-.261.467-.663.845-1.204 1.134-.541.289-1.213.434-2.016.434h-1.484V279h-2.394v-9.828h3.878c.784 0 1.447.135 1.988.406.541.271.947.644 1.218 1.12.271.476.406 1.022.406 1.638zm-3.794 1.232c.457 0 .798-.107 1.022-.322.224-.215.336-.518.336-.91s-.112-.695-.336-.91c-.224-.215-.565-.322-1.022-.322h-1.302v2.464h1.302zm5.056 1.512c0-.803.149-1.507.448-2.114.308-.607.723-1.073 1.246-1.4a3.233 3.233 0 011.75-.49c.551 0 1.031.112 1.442.336.42.224.742.518.966.882v-1.106h2.394V279h-2.394v-1.106a2.57 2.57 0 01-.98.882c-.411.224-.891.336-1.442.336a3.207 3.207 0 01-1.736-.49c-.523-.336-.938-.807-1.246-1.414-.299-.616-.448-1.325-.448-2.128zm5.852.014c0-.597-.168-1.069-.504-1.414a1.594 1.594 0 00-1.204-.518c-.476 0-.882.173-1.218.518-.327.336-.49.803-.49 1.4 0 .597.163 1.073.49 1.428.336.345.742.518 1.218.518s.877-.173 1.204-.518c.336-.345.504-.817.504-1.414zm8.972 1.876V279h-1.218c-.868 0-1.545-.21-2.03-.63-.485-.429-.728-1.125-.728-2.086v-3.108h-.952v-1.988h.952v-1.904h2.394v1.904h1.568v1.988h-1.568v3.136c0 .233.056.401.168.504.112.103.299.154.56.154h.854zm4.219-4.48c.28-.429.63-.765 1.05-1.008a2.67 2.67 0 011.4-.378v2.534h-.658c-.597 0-1.045.131-1.344.392-.299.252-.448.7-.448 1.344V279h-2.394v-7.812h2.394v1.302zm5.29-2.114c-.42 0-.765-.121-1.036-.364a1.236 1.236 0 01-.392-.924c0-.373.131-.681.392-.924.271-.252.616-.378 1.036-.378.411 0 .747.126 1.008.378.271.243.406.551.406.924 0 .364-.135.672-.406.924-.261.243-.597.364-1.008.364zm1.19.812V279h-2.394v-7.812h2.394zm1.751 3.906c0-.812.163-1.521.49-2.128a3.51 3.51 0 011.386-1.4c.597-.327 1.279-.49 2.044-.49.98 0 1.797.257 2.45.77.663.513 1.097 1.237 1.302 2.17h-2.548c-.215-.597-.63-.896-1.246-.896a1.25 1.25 0 00-1.05.518c-.261.336-.392.821-.392 1.456s.131 1.125.392 1.47c.261.336.611.504 1.05.504.616 0 1.031-.299 1.246-.896h2.548c-.205.915-.639 1.633-1.302 2.156-.663.523-1.479.784-2.45.784-.765 0-1.447-.163-2.044-.49a3.51 3.51 0 01-1.386-1.4c-.327-.607-.49-1.316-.49-2.128zM213.112 279l-2.38-3.276V279h-2.394v-10.36h2.394v5.726l2.366-3.178h2.954l-3.248 3.92L216.08 279h-2.968zm10.225-1.848h3.136V279h-5.53v-9.828h2.394v7.98zm4.294-2.072c0-.803.149-1.507.448-2.114.308-.607.723-1.073 1.246-1.4a3.23 3.23 0 011.75-.49c.55 0 1.031.112 1.442.336.42.224.742.518.966.882v-1.106h2.394V279h-2.394v-1.106c-.234.364-.56.658-.98.882-.411.224-.892.336-1.442.336a3.205 3.205 0 01-1.736-.49c-.523-.336-.938-.807-1.246-1.414-.299-.616-.448-1.325-.448-2.128zm5.852.014c0-.597-.168-1.069-.504-1.414a1.594 1.594 0 00-1.204-.518c-.476 0-.882.173-1.218.518-.327.336-.49.803-.49 1.4 0 .597.163 1.073.49 1.428.336.345.742.518 1.218.518s.877-.173 1.204-.518c.336-.345.504-.817.504-1.414zm15.831-3.906L247.2 279h-2.646l-1.232-5.068-1.274 5.068h-2.632l-2.128-7.812h2.394l1.106 5.586 1.316-5.586h2.534l1.33 5.558 1.092-5.558h2.254zM171.68 303.08a3.411 3.411 0 00-1.344-1.504c-.587-.363-1.269-.544-2.048-.544-.779 0-1.483.181-2.112.544-.619.352-1.109.864-1.472 1.536-.352.661-.528 1.429-.528 2.304 0 .875.176 1.643.528 2.304a3.931 3.931 0 001.472 1.536c.629.352 1.333.528 2.112.528 1.088 0 1.984-.325 2.688-.976.704-.651 1.115-1.531 1.232-2.64h-4.448v-1.184h6v1.12a5.583 5.583 0 01-.864 2.528 5.437 5.437 0 01-1.936 1.808c-.8.437-1.691.656-2.672.656-1.035 0-1.979-.24-2.832-.72a5.466 5.466 0 01-2.032-2.032c-.491-.864-.736-1.84-.736-2.928 0-1.088.245-2.064.736-2.928a5.31 5.31 0 012.032-2.032c.853-.491 1.797-.736 2.832-.736 1.184 0 2.229.293 3.136.88.917.587 1.584 1.413 2 2.48h-1.744zm8.321 8.064a4.538 4.538 0 01-2.24-.56 4.068 4.068 0 01-1.568-1.584c-.373-.693-.56-1.493-.56-2.4 0-.896.192-1.685.576-2.368a4.015 4.015 0 011.6-1.584c.672-.373 1.424-.56 2.256-.56.832 0 1.584.187 2.256.56.672.363 1.2.885 1.584 1.568.395.683.592 1.477.592 2.384 0 .907-.203 1.707-.608 2.4a4.114 4.114 0 01-1.616 1.584c-.683.373-1.44.56-2.272.56zm0-1.28c.523 0 1.013-.123 1.472-.368a2.74 2.74 0 001.104-1.104c.288-.491.432-1.088.432-1.792s-.139-1.301-.416-1.792c-.277-.491-.64-.853-1.088-1.088a2.986 2.986 0 00-1.456-.368c-.533 0-1.024.123-1.472.368-.437.235-.789.597-1.056 1.088-.267.491-.4 1.088-.4 1.792 0 .715.128 1.317.384 1.808.267.491.619.859 1.056 1.104.437.235.917.352 1.44.352zm10.726 1.28a4.538 4.538 0 01-2.24-.56 4.068 4.068 0 01-1.568-1.584c-.373-.693-.56-1.493-.56-2.4 0-.896.192-1.685.576-2.368a4.015 4.015 0 011.6-1.584c.672-.373 1.424-.56 2.256-.56.832 0 1.584.187 2.256.56.672.363 1.2.885 1.584 1.568.395.683.592 1.477.592 2.384 0 .907-.203 1.707-.608 2.4a4.114 4.114 0 01-1.616 1.584c-.683.373-1.44.56-2.272.56zm0-1.28c.523 0 1.013-.123 1.472-.368a2.74 2.74 0 001.104-1.104c.288-.491.432-1.088.432-1.792s-.139-1.301-.416-1.792c-.277-.491-.64-.853-1.088-1.088a2.986 2.986 0 00-1.456-.368c-.533 0-1.024.123-1.472.368-.437.235-.789.597-1.056 1.088-.267.491-.4 1.088-.4 1.792 0 .715.128 1.317.384 1.808.267.491.619.859 1.056 1.104.437.235.917.352 1.44.352zm6.358-3.28c0-.896.182-1.68.544-2.352a3.952 3.952 0 011.488-1.584 4.18 4.18 0 012.144-.56c.683 0 1.318.16 1.904.48.587.309 1.035.72 1.344 1.232v-4.64h1.472V311h-1.472v-1.648c-.288.523-.714.955-1.28 1.296-.565.331-1.226.496-1.984.496a4.059 4.059 0 01-2.128-.576 4.047 4.047 0 01-1.488-1.616c-.362-.693-.544-1.483-.544-2.368zm7.424.016c0-.661-.133-1.237-.4-1.728a2.745 2.745 0 00-1.088-1.12 2.851 2.851 0 00-1.488-.4c-.544 0-1.04.128-1.488.384a2.786 2.786 0 00-1.072 1.12c-.266.491-.4 1.067-.4 1.728 0 .672.134 1.259.4 1.76.267.491.624.869 1.072 1.136.448.256.944.384 1.488.384s1.04-.128 1.488-.384a2.857 2.857 0 001.088-1.136c.267-.501.4-1.083.4-1.744zm8.638-.016c0-.896.181-1.68.544-2.352a3.952 3.952 0 011.488-1.584 4.18 4.18 0 012.144-.56c.757 0 1.419.171 1.984.512.576.331.997.741 1.264 1.232v-1.6h1.472v12.928h-1.472v-5.776c-.277.491-.704.907-1.28 1.248-.576.341-1.248.512-2.016.512a3.945 3.945 0 01-2.096-.576 4.047 4.047 0 01-1.488-1.616c-.363-.693-.544-1.483-.544-2.368zm7.424.016c0-.661-.133-1.237-.4-1.728a2.752 2.752 0 00-1.088-1.12 2.851 2.851 0 00-1.488-.4c-.544 0-1.04.128-1.488.384a2.786 2.786 0 00-1.072 1.12c-.267.491-.4 1.067-.4 1.728 0 .672.133 1.259.4 1.76.267.491.624.869 1.072 1.136.448.256.944.384 1.488.384s1.04-.128 1.488-.384a2.864 2.864 0 001.088-1.136c.267-.501.4-1.083.4-1.744zm12.2-4.368V311h-1.456v-1.296c-.277.448-.666.8-1.168 1.056a3.598 3.598 0 01-1.632.368c-.682 0-1.296-.139-1.84-.416a3.186 3.186 0 01-1.296-1.28c-.309-.565-.464-1.253-.464-2.064v-5.136h1.44v4.944c0 .864.219 1.531.656 2 .438.459 1.035.688 1.792.688.779 0 1.392-.24 1.84-.72.448-.48.672-1.179.672-2.096v-4.816h1.456zm10.95 4.048c0 .277-.016.571-.048.88h-7.008c.054.864.347 1.541.88 2.032.544.48 1.2.72 1.968.72.63 0 1.152-.144 1.568-.432.427-.299.726-.693.896-1.184h1.568a3.802 3.802 0 01-1.408 2.064c-.704.523-1.578.784-2.624.784-.832 0-1.578-.187-2.24-.56a3.997 3.997 0 01-1.536-1.584c-.373-.693-.56-1.493-.56-2.4 0-.907.182-1.701.544-2.384a3.787 3.787 0 011.52-1.568c.662-.373 1.419-.56 2.272-.56.832 0 1.568.181 2.208.544a3.7 3.7 0 011.472 1.504c.352.629.528 1.344.528 2.144zm-1.504-.304c0-.555-.122-1.029-.368-1.424a2.316 2.316 0 00-1.008-.912 3.01 3.01 0 00-1.392-.32c-.736 0-1.365.235-1.888.704-.512.469-.805 1.12-.88 1.952h5.536zm7.022 5.168c-.672 0-1.275-.112-1.808-.336-.533-.235-.955-.555-1.264-.96a2.598 2.598 0 01-.512-1.424h1.504c.043.437.245.795.608 1.072.373.277.859.416 1.456.416.555 0 .992-.123 1.312-.368.32-.245.48-.555.48-.928 0-.384-.171-.667-.512-.848-.341-.192-.869-.379-1.584-.56a13.017 13.017 0 01-1.6-.512 3.044 3.044 0 01-1.056-.784c-.288-.352-.432-.811-.432-1.376 0-.448.133-.859.4-1.232s.645-.667 1.136-.88c.491-.224 1.051-.336 1.68-.336.971 0 1.755.245 2.352.736s.917 1.163.96 2.016h-1.456a1.494 1.494 0 00-.56-1.104c-.331-.277-.779-.416-1.344-.416-.523 0-.939.112-1.248.336-.309.224-.464.517-.464.88 0 .288.091.528.272.72.192.181.427.331.704.448.288.107.683.229 1.184.368.629.171 1.141.341 1.536.512.395.16.731.405 1.008.736.288.331.437.763.448 1.296 0 .48-.133.912-.4 1.296s-.645.688-1.136.912c-.48.213-1.035.32-1.664.32zm7.523-7.712v5.168c0 .427.091.731.272.912.182.171.496.256.944.256h1.072V311h-1.312c-.81 0-1.418-.187-1.824-.56-.405-.373-.608-.987-.608-1.84v-5.168h-1.136v-1.2h1.136v-2.208h1.456v2.208h2.288v1.2h-2.288zm5.296-2.624a.958.958 0 01-.704-.288.958.958 0 01-.288-.704c0-.277.096-.512.288-.704a.958.958 0 01.704-.288c.267 0 .491.096.672.288a.958.958 0 01.288.704.958.958 0 01-.288.704.886.886 0 01-.672.288zm.704 1.424V311h-1.456v-8.768h1.456zm6.797 8.912a4.538 4.538 0 01-2.24-.56 4.068 4.068 0 01-1.568-1.584c-.373-.693-.56-1.493-.56-2.4 0-.896.192-1.685.576-2.368a4.015 4.015 0 011.6-1.584c.672-.373 1.424-.56 2.256-.56.832 0 1.584.187 2.256.56.672.363 1.2.885 1.584 1.568.395.683.592 1.477.592 2.384 0 .907-.202 1.707-.608 2.4a4.108 4.108 0 01-1.616 1.584c-.682.373-1.44.56-2.272.56zm0-1.28c.523 0 1.014-.123 1.472-.368a2.74 2.74 0 001.104-1.104c.288-.491.432-1.088.432-1.792s-.138-1.301-.416-1.792c-.277-.491-.64-.853-1.088-1.088a2.986 2.986 0 00-1.456-.368c-.533 0-1.024.123-1.472.368-.437.235-.789.597-1.056 1.088-.266.491-.4 1.088-.4 1.792 0 .715.128 1.317.384 1.808.267.491.619.859 1.056 1.104.438.235.918.352 1.44.352zm11.175-7.792c1.066 0 1.93.325 2.592.976.661.64.992 1.568.992 2.784V311h-1.44v-4.96c0-.875-.219-1.541-.656-2-.438-.469-1.035-.704-1.792-.704-.768 0-1.382.24-1.84.72-.448.48-.672 1.179-.672 2.096V311h-1.456v-8.768h1.456v1.248a2.898 2.898 0 011.168-1.04 3.7 3.7 0 011.648-.368zm8.342-2.224l-.176 8h-1.216l-.176-8h1.568zm-.72 11.248a.957.957 0 01-.704-.288.958.958 0 01-.288-.704c0-.277.096-.512.288-.704a.957.957 0 01.704-.288.89.89 0 01.672.288.958.958 0 01.288.704.958.958 0 01-.288.704.89.89 0 01-.672.288zm10.303-1.28h3.904V311h-5.36v-11.152h1.456v9.968zm13.942-3.536c0 .277-.016.571-.048.88h-7.008c.053.864.346 1.541.88 2.032.544.48 1.2.72 1.968.72.629 0 1.152-.144 1.568-.432.426-.299.725-.693.896-1.184h1.568a3.807 3.807 0 01-1.408 2.064c-.704.523-1.579.784-2.624.784-.832 0-1.579-.187-2.24-.56a3.984 3.984 0 01-1.536-1.584c-.374-.693-.56-1.493-.56-2.4 0-.907.181-1.701.544-2.384a3.775 3.775 0 011.52-1.568c.661-.373 1.418-.56 2.272-.56.832 0 1.568.181 2.208.544.64.363 1.13.864 1.472 1.504.352.629.528 1.344.528 2.144zm-1.504-.304c0-.555-.123-1.029-.368-1.424a2.327 2.327 0 00-1.008-.912 3.01 3.01 0 00-1.392-.32c-.736 0-1.366.235-1.888.704-.512.469-.806 1.12-.88 1.952h5.536zm5.693-2.544v5.168c0 .427.091.731.272.912.182.171.496.256.944.256h1.072V311h-1.312c-.81 0-1.418-.187-1.824-.56-.405-.373-.608-.987-.608-1.84v-5.168h-1.136v-1.2h1.136v-2.208h1.456v2.208h2.288v1.2h-2.288zm4.768-3.584h1.616l-1.536 3.632h-1.024l.944-3.632zm6.872 11.296c-.672 0-1.275-.112-1.808-.336-.533-.235-.955-.555-1.264-.96a2.598 2.598 0 01-.512-1.424h1.504c.043.437.245.795.608 1.072.373.277.859.416 1.456.416.555 0 .992-.123 1.312-.368.32-.245.48-.555.48-.928 0-.384-.171-.667-.512-.848-.341-.192-.869-.379-1.584-.56a13.017 13.017 0 01-1.6-.512 3.044 3.044 0 01-1.056-.784c-.288-.352-.432-.811-.432-1.376 0-.448.133-.859.4-1.232s.645-.667 1.136-.88c.491-.224 1.051-.336 1.68-.336.971 0 1.755.245 2.352.736s.917 1.163.96 2.016h-1.456a1.494 1.494 0 00-.56-1.104c-.331-.277-.779-.416-1.344-.416-.523 0-.939.112-1.248.336-.309.224-.464.517-.464.88 0 .288.091.528.272.72.192.181.427.331.704.448.288.107.683.229 1.184.368.629.171 1.141.341 1.536.512.395.16.731.405 1.008.736.288.331.437.763.448 1.296 0 .48-.133.912-.4 1.296s-.645.688-1.136.912c-.48.213-1.035.32-1.664.32zm14.856-9.072c.662 0 1.259.144 1.792.432.534.277.95.699 1.248 1.264.31.565.464 1.253.464 2.064V311h-1.44v-4.96c0-.875-.218-1.541-.656-2-.437-.469-1.034-.704-1.792-.704-.768 0-1.381.24-1.84.72-.448.48-.672 1.179-.672 2.096V311h-1.456v-11.84h1.456v4.32a2.879 2.879 0 011.184-1.04 3.917 3.917 0 011.712-.368zm10.199 9.072a4.536 4.536 0 01-2.24-.56 4.061 4.061 0 01-1.568-1.584c-.374-.693-.56-1.493-.56-2.4 0-.896.192-1.685.576-2.368a4.009 4.009 0 011.6-1.584c.672-.373 1.424-.56 2.256-.56.832 0 1.584.187 2.256.56.672.363 1.2.885 1.584 1.568.394.683.592 1.477.592 2.384 0 .907-.203 1.707-.608 2.4a4.121 4.121 0 01-1.616 1.584c-.683.373-1.44.56-2.272.56zm0-1.28c.522 0 1.013-.123 1.472-.368a2.753 2.753 0 001.104-1.104c.288-.491.432-1.088.432-1.792s-.139-1.301-.416-1.792c-.278-.491-.64-.853-1.088-1.088a2.988 2.988 0 00-1.456-.368c-.534 0-1.024.123-1.472.368-.438.235-.79.597-1.056 1.088-.267.491-.4 1.088-.4 1.792 0 .715.128 1.317.384 1.808.266.491.618.859 1.056 1.104.437.235.917.352 1.44.352zm8.358-6.016c.288-.501.714-.917 1.28-1.248.576-.341 1.242-.512 2-.512.778 0 1.482.187 2.112.56.64.373 1.141.901 1.504 1.584.362.672.544 1.456.544 2.352 0 .885-.182 1.675-.544 2.368a4.008 4.008 0 01-3.616 2.192c-.747 0-1.408-.165-1.984-.496-.566-.341-.998-.763-1.296-1.264v5.776h-1.456v-12.928h1.456v1.616zm5.952 2.736c0-.661-.134-1.237-.4-1.728a2.758 2.758 0 00-1.088-1.12 2.946 2.946 0 00-1.488-.384c-.534 0-1.03.133-1.488.4-.448.256-.811.635-1.088 1.136-.267.491-.4 1.061-.4 1.712 0 .661.133 1.243.4 1.744.277.491.64.869 1.088 1.136a3 3 0 001.488.384c.544 0 1.04-.128 1.488-.384a2.87 2.87 0 001.088-1.136c.266-.501.4-1.088.4-1.76zm12.478 4.56a4.536 4.536 0 01-2.24-.56 4.061 4.061 0 01-1.568-1.584c-.374-.693-.56-1.493-.56-2.4 0-.896.192-1.685.576-2.368a4.009 4.009 0 011.6-1.584c.672-.373 1.424-.56 2.256-.56.832 0 1.584.187 2.256.56.672.363 1.2.885 1.584 1.568.394.683.592 1.477.592 2.384 0 .907-.203 1.707-.608 2.4a4.121 4.121 0 01-1.616 1.584c-.683.373-1.44.56-2.272.56zm0-1.28c.522 0 1.013-.123 1.472-.368a2.753 2.753 0 001.104-1.104c.288-.491.432-1.088.432-1.792s-.139-1.301-.416-1.792c-.278-.491-.64-.853-1.088-1.088a2.988 2.988 0 00-1.456-.368c-.534 0-1.024.123-1.472.368-.438.235-.79.597-1.056 1.088-.267.491-.4 1.088-.4 1.792 0 .715.128 1.317.384 1.808.266.491.618.859 1.056 1.104.437.235.917.352 1.44.352zm11.174-7.792c1.066 0 1.93.325 2.592.976.661.64.992 1.568.992 2.784V311h-1.44v-4.96c0-.875-.219-1.541-.656-2-.438-.469-1.035-.704-1.792-.704-.768 0-1.382.24-1.84.72-.448.48-.672 1.179-.672 2.096V311h-1.456v-8.768h1.456v1.248a2.898 2.898 0 011.168-1.04 3.7 3.7 0 011.648-.368zm10.667 4.512c0-.896.182-1.68.544-2.352a3.952 3.952 0 011.488-1.584 4.15 4.15 0 012.128-.56c.768 0 1.435.165 2 .496.566.331.987.747 1.264 1.248v-1.6h1.472V311h-1.472v-1.632c-.288.512-.72.939-1.296 1.28-.565.331-1.226.496-1.984.496a3.978 3.978 0 01-2.112-.576 4.047 4.047 0 01-1.488-1.616c-.362-.693-.544-1.483-.544-2.368zm7.424.016c0-.661-.133-1.237-.4-1.728a2.745 2.745 0 00-1.088-1.12 2.851 2.851 0 00-1.488-.4c-.544 0-1.04.128-1.488.384a2.786 2.786 0 00-1.072 1.12c-.266.491-.4 1.067-.4 1.728 0 .672.134 1.259.4 1.76.267.491.624.869 1.072 1.136.448.256.944.384 1.488.384s1.04-.128 1.488-.384a2.857 2.857 0 001.088-1.136c.267-.501.4-1.083.4-1.744zm8.638 0c0-.907.181-1.696.544-2.368a3.916 3.916 0 011.504-1.584c.651-.373 1.392-.56 2.224-.56 1.077 0 1.963.261 2.656.784.704.523 1.168 1.248 1.392 2.176h-1.568a2.238 2.238 0 00-.88-1.264c-.427-.309-.96-.464-1.6-.464-.832 0-1.504.288-2.016.864-.512.565-.768 1.371-.768 2.416 0 1.056.256 1.872.768 2.448.512.576 1.184.864 2.016.864.64 0 1.173-.149 1.6-.448.427-.299.72-.725.88-1.28h1.568c-.235.896-.704 1.616-1.408 2.16-.704.533-1.584.8-2.64.8-.832 0-1.573-.187-2.224-.56A3.916 3.916 0 01418.72 309c-.363-.683-.544-1.483-.544-2.4zm10.21-.016c0-.896.182-1.68.544-2.352a3.952 3.952 0 011.488-1.584 4.15 4.15 0 012.128-.56c.768 0 1.435.165 2 .496.566.331.987.747 1.264 1.248v-1.6h1.472V311h-1.472v-1.632c-.288.512-.72.939-1.296 1.28-.565.331-1.226.496-1.984.496a3.978 3.978 0 01-2.112-.576 4.047 4.047 0 01-1.488-1.616c-.362-.693-.544-1.483-.544-2.368zm7.424.016c0-.661-.133-1.237-.4-1.728a2.745 2.745 0 00-1.088-1.12 2.851 2.851 0 00-1.488-.4c-.544 0-1.04.128-1.488.384a2.786 2.786 0 00-1.072 1.12c-.266.491-.4 1.067-.4 1.728 0 .672.134 1.259.4 1.76.267.491.624.869 1.072 1.136.448.256.944.384 1.488.384s1.04-.128 1.488-.384a2.857 2.857 0 001.088-1.136c.267-.501.4-1.083.4-1.744zm5.881-7.44V311h-1.456v-11.84h1.456zm4.429 0V311h-1.456v-11.84h1.456z" fill="#251A3F"/>
  <g filter="url(#TAKdQcvIad)">
    <path fill-rule="evenodd" clip-rule="evenodd" d="M279 363a8 8 0 018-8h340a8 8 0 018 8v83a8 8 0 01-8 8H287a8 8 0 01-8-8v-83z" fill="#fff"/>
    <path d="M279.5 363a7.5 7.5 0 017.5-7.5h340a7.5 7.5 0 017.5 7.5v83a7.5 7.5 0 01-7.5 7.5H287a7.5 7.5 0 01-7.5-7.5v-83z" stroke="#D8D8D8"/>
  </g>
  <path d="M319 429.5c14.083 0 25.5-11.417 25.5-25.5s-11.417-25.5-25.5-25.5-25.5 11.417-25.5 25.5 11.417 25.5 25.5 25.5z" fill="#DD6F6F" stroke="#E0E0E0"/>
  <path d="M305.559 396.908V411h3.584v-4.131h2.304c3.135 0 5.293-1.963 5.293-4.971 0-3.027-2.05-4.99-5.078-4.99h-6.103zm3.584 2.744h1.572c1.504 0 2.402.791 2.402 2.256 0 1.475-.898 2.266-2.421 2.266h-1.553v-4.522zm22.65 5.391v-1.729h-6.035v2.461h2.578l-.01.215c-.098 1.416-1.23 2.373-2.852 2.373-2.06 0-3.388-1.689-3.388-4.482 0-2.744 1.201-4.336 3.232-4.336 1.377 0 2.432.762 2.783 2.012h3.545c-.361-2.871-2.92-4.893-6.338-4.893-4.257 0-6.875 2.695-6.875 7.266 0 4.629 2.618 7.314 6.963 7.314 4.014 0 6.397-2.353 6.397-6.201z" fill="#fff"/>
  <path d="M364.358 387.336c0 .569-.131 1.092-.392 1.568-.261.467-.663.845-1.204 1.134-.541.289-1.213.434-2.016.434h-1.484V394h-2.394v-9.828h3.878c.784 0 1.447.135 1.988.406.541.271.947.644 1.218 1.12.271.476.406 1.022.406 1.638zm-3.794 1.232c.457 0 .798-.107 1.022-.322.224-.215.336-.518.336-.91s-.112-.695-.336-.91c-.224-.215-.565-.322-1.022-.322h-1.302v2.464h1.302zm5.056 1.512c0-.803.149-1.507.448-2.114.308-.607.723-1.073 1.246-1.4a3.233 3.233 0 011.75-.49c.551 0 1.031.112 1.442.336.42.224.742.518.966.882v-1.106h2.394V394h-2.394v-1.106a2.57 2.57 0 01-.98.882c-.411.224-.891.336-1.442.336a3.207 3.207 0 01-1.736-.49c-.523-.336-.938-.807-1.246-1.414-.299-.616-.448-1.325-.448-2.128zm5.852.014c0-.597-.168-1.069-.504-1.414a1.594 1.594 0 00-1.204-.518c-.476 0-.882.173-1.218.518-.327.336-.49.803-.49 1.4 0 .597.163 1.073.49 1.428.336.345.742.518 1.218.518s.877-.173 1.204-.518c.336-.345.504-.817.504-1.414zm12.332-3.906V394h-2.394v-1.064a2.682 2.682 0 01-.994.84 3.03 3.03 0 01-1.372.308c-.597 0-1.125-.131-1.582-.392a2.739 2.739 0 01-1.064-1.162c-.252-.504-.378-1.097-.378-1.778v-4.564h2.38v4.242c0 .523.135.929.406 1.218.271.289.635.434 1.092.434.467 0 .835-.145 1.106-.434.271-.289.406-.695.406-1.218v-4.242h2.394zm4.605-2.548V394h-2.394v-10.36h2.394zm12.21 3.64a1.743 1.743 0 00-.77-.742c-.327-.177-.714-.266-1.162-.266-.775 0-1.396.257-1.862.77-.467.504-.7 1.181-.7 2.03 0 .905.242 1.615.728 2.128.494.504 1.171.756 2.03.756.588 0 1.082-.149 1.484-.448.41-.299.709-.728.896-1.288h-3.038v-1.764h5.208v2.226a4.658 4.658 0 01-.91 1.666c-.42.513-.957.929-1.61 1.246-.654.317-1.391.476-2.212.476-.971 0-1.839-.21-2.604-.63a4.644 4.644 0 01-1.778-1.778c-.42-.756-.63-1.619-.63-2.59 0-.971.21-1.834.63-2.59a4.524 4.524 0 011.778-1.778c.756-.429 1.619-.644 2.59-.644 1.176 0 2.165.285 2.968.854.812.569 1.348 1.358 1.61 2.366h-2.646zm7.025.21c.28-.429.63-.765 1.05-1.008a2.67 2.67 0 011.4-.378v2.534h-.658c-.597 0-1.045.131-1.344.392-.298.252-.448.7-.448 1.344V394h-2.394v-7.812h2.394v1.302zm3.61 2.59c0-.803.15-1.507.448-2.114.308-.607.724-1.073 1.246-1.4a3.233 3.233 0 011.75-.49c.551 0 1.032.112 1.442.336.42.224.742.518.966.882v-1.106h2.394V394h-2.394v-1.106a2.57 2.57 0 01-.98.882c-.41.224-.891.336-1.442.336a3.21 3.21 0 01-1.736-.49c-.522-.336-.938-.807-1.246-1.414-.298-.616-.448-1.325-.448-2.128zm5.852.014c0-.597-.168-1.069-.504-1.414a1.593 1.593 0 00-1.204-.518c-.476 0-.882.173-1.218.518-.326.336-.49.803-.49 1.4 0 .597.164 1.073.49 1.428.336.345.742.518 1.218.518s.878-.173 1.204-.518c.336-.345.504-.817.504-1.414zm9.42-3.99c.896 0 1.615.299 2.156.896.541.588.812 1.4.812 2.436V394h-2.38v-4.242c0-.523-.135-.929-.406-1.218-.271-.289-.635-.434-1.092-.434-.457 0-.821.145-1.092.434-.271.289-.406.695-.406 1.218V394h-2.394v-10.36h2.394v3.598c.243-.345.574-.621.994-.826a3.18 3.18 0 011.414-.308zm4.648 3.976c0-.803.149-1.507.448-2.114.308-.607.723-1.073 1.246-1.4a3.23 3.23 0 011.75-.49c.55 0 1.031.112 1.442.336.42.224.742.518.966.882v-1.106h2.394V394h-2.394v-1.106c-.234.364-.56.658-.98.882-.411.224-.892.336-1.442.336a3.205 3.205 0 01-1.736-.49c-.523-.336-.938-.807-1.246-1.414-.299-.616-.448-1.325-.448-2.128zm5.852.014c0-.597-.168-1.069-.504-1.414a1.594 1.594 0 00-1.204-.518c-.476 0-.882.173-1.218.518-.327.336-.49.803-.49 1.4 0 .597.163 1.073.49 1.428.336.345.742.518 1.218.518s.877-.173 1.204-.518c.336-.345.504-.817.504-1.414zm14.585-3.99c.971 0 1.741.294 2.31.882.579.588.868 1.405.868 2.45V394h-2.38v-4.242c0-.504-.135-.891-.406-1.162-.261-.28-.625-.42-1.092-.42-.466 0-.835.14-1.106.42-.261.271-.392.658-.392 1.162V394h-2.38v-4.242c0-.504-.135-.891-.406-1.162-.261-.28-.625-.42-1.092-.42-.466 0-.835.14-1.106.42-.261.271-.392.658-.392 1.162V394h-2.394v-7.812h2.394v.98c.243-.327.56-.583.952-.77a2.935 2.935 0 011.33-.294c.588 0 1.111.126 1.568.378.467.252.831.611 1.092 1.078.271-.429.64-.779 1.106-1.05a2.988 2.988 0 011.526-.406zm-92.923 28.744V426h-1.456v-11.152h1.456zM371.315 426l-3.44-3.872V426h-1.456v-11.84h1.456v6.96l3.376-3.888h2.032l-4.128 4.368 4.144 4.4h-1.984zm8.102-8.928c1.067 0 1.931.325 2.592.976.661.64.992 1.568.992 2.784V426h-1.44v-4.96c0-.875-.219-1.541-.656-2-.437-.469-1.035-.704-1.792-.704-.768 0-1.381.24-1.84.72-.448.48-.672 1.179-.672 2.096V426h-1.456v-8.768h1.456v1.248a2.898 2.898 0 011.168-1.04 3.703 3.703 0 011.648-.368zm10.278 9.072a4.538 4.538 0 01-2.24-.56 4.068 4.068 0 01-1.568-1.584c-.373-.693-.56-1.493-.56-2.4 0-.896.192-1.685.576-2.368a4.015 4.015 0 011.6-1.584c.672-.373 1.424-.56 2.256-.56.832 0 1.584.187 2.256.56.672.363 1.2.885 1.584 1.568.395.683.592 1.477.592 2.384 0 .907-.203 1.707-.608 2.4a4.114 4.114 0 01-1.616 1.584c-.683.373-1.44.56-2.272.56zm0-1.28c.523 0 1.013-.123 1.472-.368a2.74 2.74 0 001.104-1.104c.288-.491.432-1.088.432-1.792s-.139-1.301-.416-1.792c-.277-.491-.64-.853-1.088-1.088a2.986 2.986 0 00-1.456-.368c-.533 0-1.024.123-1.472.368-.437.235-.789.597-1.056 1.088-.267.491-.4 1.088-.4 1.792 0 .715.128 1.317.384 1.808.267.491.619.859 1.056 1.104.437.235.917.352 1.44.352zm18.582-7.632L405.541 426h-1.504l-2.112-6.96-2.112 6.96h-1.504l-2.752-8.768h1.488l2.016 7.36 2.176-7.36h1.488l2.128 7.376 1.984-7.376h1.44zm9.798 8.912c-.672 0-1.274-.112-1.808-.336-.533-.235-.954-.555-1.264-.96a2.598 2.598 0 01-.512-1.424h1.504c.043.437.246.795.608 1.072.374.277.859.416 1.456.416.555 0 .992-.123 1.312-.368.32-.245.48-.555.48-.928a.897.897 0 00-.512-.848c-.341-.192-.869-.379-1.584-.56a13.074 13.074 0 01-1.6-.512 3.044 3.044 0 01-1.056-.784c-.288-.352-.432-.811-.432-1.376 0-.448.134-.859.4-1.232.267-.373.646-.667 1.136-.88.491-.224 1.051-.336 1.68-.336.971 0 1.755.245 2.352.736.598.491.918 1.163.96 2.016h-1.456c-.032-.459-.218-.827-.56-1.104-.33-.277-.778-.416-1.344-.416-.522 0-.938.112-1.248.336-.309.224-.464.517-.464.88 0 .288.091.528.272.72.192.181.427.331.704.448.288.107.683.229 1.184.368.63.171 1.142.341 1.536.512.395.16.731.405 1.008.736.288.331.438.763.448 1.296 0 .48-.133.912-.4 1.296-.266.384-.645.688-1.136.912-.48.213-1.034.32-1.664.32zm9.572 0a4.536 4.536 0 01-2.24-.56 4.061 4.061 0 01-1.568-1.584c-.374-.693-.56-1.493-.56-2.4 0-.896.192-1.685.576-2.368a4.009 4.009 0 011.6-1.584c.672-.373 1.424-.56 2.256-.56.832 0 1.584.187 2.256.56.672.363 1.2.885 1.584 1.568.394.683.592 1.477.592 2.384 0 .907-.203 1.707-.608 2.4a4.121 4.121 0 01-1.616 1.584c-.683.373-1.44.56-2.272.56zm0-1.28c.522 0 1.013-.123 1.472-.368a2.753 2.753 0 001.104-1.104c.288-.491.432-1.088.432-1.792s-.139-1.301-.416-1.792c-.278-.491-.64-.853-1.088-1.088a2.988 2.988 0 00-1.456-.368c-.534 0-1.024.123-1.472.368-.438.235-.79.597-1.056 1.088-.267.491-.4 1.088-.4 1.792 0 .715.128 1.317.384 1.808.266.491.618.859 1.056 1.104.437.235.917.352 1.44.352zm17.446-7.792c.682 0 1.29.144 1.824.432.533.277.954.699 1.264 1.264.309.565.464 1.253.464 2.064V426h-1.44v-4.96c0-.875-.219-1.541-.656-2-.427-.469-1.008-.704-1.744-.704-.758 0-1.36.245-1.808.736-.448.48-.672 1.179-.672 2.096V426h-1.44v-4.96c0-.875-.219-1.541-.656-2-.427-.469-1.008-.704-1.744-.704-.758 0-1.36.245-1.808.736-.448.48-.672 1.179-.672 2.096V426h-1.456v-8.768h1.456v1.264a2.886 2.886 0 011.152-1.056 3.564 3.564 0 011.616-.368c.736 0 1.386.165 1.952.496.565.331.986.816 1.264 1.456a2.868 2.868 0 011.216-1.44 3.583 3.583 0 011.888-.512zm14.432 4.208c0 .277-.016.571-.048.88h-7.008c.053.864.347 1.541.88 2.032.544.48 1.2.72 1.968.72.629 0 1.152-.144 1.568-.432.427-.299.725-.693.896-1.184h1.568a3.807 3.807 0 01-1.408 2.064c-.704.523-1.579.784-2.624.784-.832 0-1.579-.187-2.24-.56a3.984 3.984 0 01-1.536-1.584c-.373-.693-.56-1.493-.56-2.4 0-.907.181-1.701.544-2.384a3.781 3.781 0 011.52-1.568c.661-.373 1.419-.56 2.272-.56.832 0 1.568.181 2.208.544a3.7 3.7 0 011.472 1.504c.352.629.528 1.344.528 2.144zm-1.504-.304c0-.555-.123-1.029-.368-1.424a2.316 2.316 0 00-1.008-.912 3.01 3.01 0 00-1.392-.32c-.736 0-1.365.235-1.888.704-.512.469-.805 1.12-.88 1.952h5.536zm7.742 5.168a4.536 4.536 0 01-2.24-.56 4.061 4.061 0 01-1.568-1.584c-.374-.693-.56-1.493-.56-2.4 0-.896.192-1.685.576-2.368a4.009 4.009 0 011.6-1.584c.672-.373 1.424-.56 2.256-.56.832 0 1.584.187 2.256.56.672.363 1.2.885 1.584 1.568.394.683.592 1.477.592 2.384 0 .907-.203 1.707-.608 2.4a4.121 4.121 0 01-1.616 1.584c-.683.373-1.44.56-2.272.56zm0-1.28c.522 0 1.013-.123 1.472-.368a2.753 2.753 0 001.104-1.104c.288-.491.432-1.088.432-1.792s-.139-1.301-.416-1.792c-.278-.491-.64-.853-1.088-1.088a2.988 2.988 0 00-1.456-.368c-.534 0-1.024.123-1.472.368-.438.235-.79.597-1.056 1.088-.267.491-.4 1.088-.4 1.792 0 .715.128 1.317.384 1.808.266.491.618.859 1.056 1.104.437.235.917.352 1.44.352zm11.174-7.792c1.066 0 1.93.325 2.592.976.661.64.992 1.568.992 2.784V426h-1.44v-4.96c0-.875-.219-1.541-.656-2-.438-.469-1.035-.704-1.792-.704-.768 0-1.382.24-1.84.72-.448.48-.672 1.179-.672 2.096V426h-1.456v-8.768h1.456v1.248a2.898 2.898 0 011.168-1.04 3.7 3.7 0 011.648-.368zm14.454 4.208c0 .277-.016.571-.048.88h-7.008c.053.864.347 1.541.88 2.032.544.48 1.2.72 1.968.72.629 0 1.152-.144 1.568-.432.427-.299.725-.693.896-1.184h1.568a3.807 3.807 0 01-1.408 2.064c-.704.523-1.579.784-2.624.784-.832 0-1.579-.187-2.24-.56a3.984 3.984 0 01-1.536-1.584c-.373-.693-.56-1.493-.56-2.4 0-.907.181-1.701.544-2.384a3.781 3.781 0 011.52-1.568c.661-.373 1.419-.56 2.272-.56.832 0 1.568.181 2.208.544a3.7 3.7 0 011.472 1.504c.352.629.528 1.344.528 2.144zm-1.504-.304c0-.555-.123-1.029-.368-1.424a2.316 2.316 0 00-1.008-.912 3.01 3.01 0 00-1.392-.32c-.736 0-1.365.235-1.888.704-.512.469-.805 1.12-.88 1.952h5.536zm20.355-3.744L507.506 426h-1.504l-2.112-6.96-2.112 6.96h-1.504l-2.752-8.768h1.488l2.016 7.36 2.176-7.36h1.488l2.128 7.376 1.984-7.376h1.44zm6.289-.16c.661 0 1.258.144 1.792.432a2.92 2.92 0 011.248 1.264c.309.565.464 1.253.464 2.064V426h-1.44v-4.96c0-.875-.219-1.541-.656-2-.438-.469-1.035-.704-1.792-.704-.768 0-1.382.24-1.84.72-.448.48-.672 1.179-.672 2.096V426h-1.456v-11.84h1.456v4.32a2.873 2.873 0 011.184-1.04 3.914 3.914 0 011.712-.368zm10.198 9.072a4.538 4.538 0 01-2.24-.56 4.068 4.068 0 01-1.568-1.584c-.373-.693-.56-1.493-.56-2.4 0-.896.192-1.685.576-2.368a4.015 4.015 0 011.6-1.584c.672-.373 1.424-.56 2.256-.56.832 0 1.584.187 2.256.56.672.363 1.2.885 1.584 1.568.395.683.592 1.477.592 2.384 0 .907-.203 1.707-.608 2.4a4.114 4.114 0 01-1.616 1.584c-.683.373-1.44.56-2.272.56zm0-1.28c.523 0 1.013-.123 1.472-.368a2.74 2.74 0 001.104-1.104c.288-.491.432-1.088.432-1.792s-.139-1.301-.416-1.792c-.277-.491-.64-.853-1.088-1.088a2.986 2.986 0 00-1.456-.368c-.533 0-1.024.123-1.472.368-.437.235-.789.597-1.056 1.088-.267.491-.4 1.088-.4 1.792 0 .715.128 1.317.384 1.808.267.491.619.859 1.056 1.104.437.235.917.352 1.44.352zm11.115-3.264c0-.907.182-1.696.544-2.368a3.916 3.916 0 011.504-1.584c.651-.373 1.392-.56 2.224-.56 1.078 0 1.963.261 2.656.784.704.523 1.168 1.248 1.392 2.176h-1.568a2.234 2.234 0 00-.88-1.264c-.426-.309-.96-.464-1.6-.464-.832 0-1.504.288-2.016.864-.512.565-.768 1.371-.768 2.416 0 1.056.256 1.872.768 2.448.512.576 1.184.864 2.016.864.64 0 1.174-.149 1.6-.448.427-.299.72-.725.88-1.28h1.568c-.234.896-.704 1.616-1.408 2.16-.704.533-1.584.8-2.64.8-.832 0-1.573-.187-2.224-.56a3.916 3.916 0 01-1.504-1.584c-.362-.683-.544-1.483-.544-2.4zm10.211-.016c0-.896.181-1.68.544-2.352a3.952 3.952 0 011.488-1.584 4.148 4.148 0 012.128-.56c.768 0 1.435.165 2 .496.565.331.987.747 1.264 1.248v-1.6h1.472V426h-1.472v-1.632c-.288.512-.72.939-1.296 1.28-.565.331-1.227.496-1.984.496a3.973 3.973 0 01-2.112-.576 4.047 4.047 0 01-1.488-1.616c-.363-.693-.544-1.483-.544-2.368zm7.424.016c0-.661-.133-1.237-.4-1.728a2.752 2.752 0 00-1.088-1.12 2.851 2.851 0 00-1.488-.4c-.544 0-1.04.128-1.488.384a2.786 2.786 0 00-1.072 1.12c-.267.491-.4 1.067-.4 1.728 0 .672.133 1.259.4 1.76.267.491.624.869 1.072 1.136.448.256.944.384 1.488.384s1.04-.128 1.488-.384a2.864 2.864 0 001.088-1.136c.267-.501.4-1.083.4-1.744zm8.696-4.528c1.067 0 1.931.325 2.592.976.662.64.992 1.568.992 2.784V426h-1.44v-4.96c0-.875-.218-1.541-.656-2-.437-.469-1.034-.704-1.792-.704-.768 0-1.381.24-1.84.72-.448.48-.672 1.179-.672 2.096V426h-1.456v-8.768h1.456v1.248a2.905 2.905 0 011.168-1.04 3.706 3.706 0 011.648-.368zm15.564 0c.661 0 1.258.144 1.792.432a2.92 2.92 0 011.248 1.264c.309.565.464 1.253.464 2.064V426h-1.44v-4.96c0-.875-.219-1.541-.656-2-.438-.469-1.035-.704-1.792-.704-.768 0-1.382.24-1.84.72-.448.48-.672 1.179-.672 2.096V426h-1.456v-11.84h1.456v4.32a2.873 2.873 0 011.184-1.04 3.914 3.914 0 011.712-.368zm14.374 4.208c0 .277-.016.571-.048.88h-7.008c.053.864.347 1.541.88 2.032.544.48 1.2.72 1.968.72.629 0 1.152-.144 1.568-.432.427-.299.725-.693.896-1.184h1.568a3.807 3.807 0 01-1.408 2.064c-.704.523-1.579.784-2.624.784-.832 0-1.579-.187-2.24-.56a3.984 3.984 0 01-1.536-1.584c-.373-.693-.56-1.493-.56-2.4 0-.907.181-1.701.544-2.384a3.781 3.781 0 011.52-1.568c.661-.373 1.419-.56 2.272-.56.832 0 1.568.181 2.208.544a3.7 3.7 0 011.472 1.504c.352.629.528 1.344.528 2.144zm-1.504-.304c0-.555-.123-1.029-.368-1.424a2.316 2.316 0 00-1.008-.912 3.01 3.01 0 00-1.392-.32c-.736 0-1.365.235-1.888.704-.512.469-.805 1.12-.88 1.952h5.536zm5.374-6.816V426h-1.456v-11.84h1.456zm4.429 4.688c.288-.501.715-.917 1.28-1.248.576-.341 1.243-.512 2-.512.779 0 1.483.187 2.112.56.64.373 1.141.901 1.504 1.584.363.672.544 1.456.544 2.352 0 .885-.181 1.675-.544 2.368a4.008 4.008 0 01-1.504 1.616 3.973 3.973 0 01-2.112.576c-.747 0-1.408-.165-1.984-.496-.565-.341-.997-.763-1.296-1.264v5.776h-1.456v-12.928h1.456v1.616zm5.952 2.736c0-.661-.133-1.237-.4-1.728a2.752 2.752 0 00-1.088-1.12 2.946 2.946 0 00-1.488-.384c-.533 0-1.029.133-1.488.4-.448.256-.811.635-1.088 1.136-.267.491-.4 1.061-.4 1.712 0 .661.133 1.243.4 1.744.277.491.64.869 1.088 1.136.459.256.955.384 1.488.384.544 0 1.04-.128 1.488-.384a2.864 2.864 0 001.088-1.136c.267-.501.4-1.088.4-1.76zm5.784-6.736l-.176 8h-1.216l-.176-8h1.568zm-.72 11.248a.958.958 0 01-.704-.288.958.958 0 01-.288-.704c0-.277.096-.512.288-.704a.958.958 0 01.704-.288c.267 0 .491.096.672.288a.958.958 0 01.288.704.958.958 0 01-.288.704.886.886 0 01-.672.288z" fill="#251A3F"/>
  <circle cx="702.5" cy="248.5" r="19.5" fill="#F7B129"/>
  <circle opacity=".7" cx="602.5" cy="177.5" r="19.5" fill="#251A3F"/>
  <circle cx="569" cy="283" r="34" fill="#2E8C8D"/>
  <defs>
    <filter id="TAKdQcvIaa" x="0" y="0" width="316" height="139" filterUnits="userSpaceOnUse" color-interpolation-filters="sRGB">
      <feFlood flood-opacity="0" result="BackgroundImageFix"/>
      <feColorMatrix in="SourceAlpha" type="matrix" values="0 0 0 0 0 0 0 0 0 0 0 0 0 0 0 0 0 0 127 0" result="hardAlpha"/>
      <feOffset dy="10"/>
      <feGaussianBlur stdDeviation="10"/>
      <feColorMatrix type="matrix" values="0 0 0 0 0 0 0 0 0 0 0 0 0 0 0 0 0 0 0.1 0"/>
      <feBlend mode="normal" in2="BackgroundImageFix" result="effect1_dropShadow"/>
      <feBlend mode="normal" in="SourceGraphic" in2="effect1_dropShadow" result="shape"/>
    </filter>
    <filter id="TAKdQcvIab" x="207" y="115" width="342" height="139" filterUnits="userSpaceOnUse" color-interpolation-filters="sRGB">
      <feFlood flood-opacity="0" result="BackgroundImageFix"/>
      <feColorMatrix in="SourceAlpha" type="matrix" values="0 0 0 0 0 0 0 0 0 0 0 0 0 0 0 0 0 0 127 0" result="hardAlpha"/>
      <feOffset dy="10"/>
      <feGaussianBlur stdDeviation="10"/>
      <feColorMatrix type="matrix" values="0 0 0 0 0 0 0 0 0 0 0 0 0 0 0 0 0 0 0.1 0"/>
      <feBlend mode="normal" in2="BackgroundImageFix" result="effect1_dropShadow"/>
      <feBlend mode="normal" in="SourceGraphic" in2="effect1_dropShadow" result="shape"/>
    </filter>
    <filter id="TAKdQcvIac" x="65" y="230" width="416" height="139" filterUnits="userSpaceOnUse" color-interpolation-filters="sRGB">
      <feFlood flood-opacity="0" result="BackgroundImageFix"/>
      <feColorMatrix in="SourceAlpha" type="matrix" values="0 0 0 0 0 0 0 0 0 0 0 0 0 0 0 0 0 0 127 0" result="hardAlpha"/>
      <feOffset dy="10"/>
      <feGaussianBlur stdDeviation="10"/>
      <feColorMatrix type="matrix" values="0 0 0 0 0 0 0 0 0 0 0 0 0 0 0 0 0 0 0.1 0"/>
      <feBlend mode="normal" in2="BackgroundImageFix" result="effect1_dropShadow"/>
      <feBlend mode="normal" in="SourceGraphic" in2="effect1_dropShadow" result="shape"/>
    </filter>
    <filter id="TAKdQcvIad" x="259" y="345" width="396" height="139" filterUnits="userSpaceOnUse" color-interpolation-filters="sRGB">
      <feFlood flood-opacity="0" result="BackgroundImageFix"/>
      <feColorMatrix in="SourceAlpha" type="matrix" values="0 0 0 0 0 0 0 0 0 0 0 0 0 0 0 0 0 0 127 0" result="hardAlpha"/>
      <feOffset dy="10"/>
      <feGaussianBlur stdDeviation="10"/>
      <feColorMatrix type="matrix" values="0 0 0 0 0 0 0 0 0 0 0 0 0 0 0 0 0 0 0.1 0"/>
      <feBlend mode="normal" in2="BackgroundImageFix" result="effect1_dropShadow"/>
      <feBlend mode="normal" in="SourceGraphic" in2="effect1_dropShadow" result="shape"/>
    </filter>
  </defs>
</svg>
