<svg fill="none" xmlns="http://www.w3.org/2000/svg" viewBox="0 0 736 577">
  <circle opacity=".8" cx="175.5" cy="185.5" r="34.5" fill="#A9366D"/>
  <circle opacity=".8" cx="493.96" cy="268.724" r="129.745" fill="#029D7F"/>
  <path d="M367.963-7v47.848c0 35.346-28.654 64-64 64H73c-35.346 0-64 28.653-64 64v103.249c0 35.346 28.654 64 64 64h294.963m89.41 161.081v5.823c0 35.346 28.654 64 64 64H655.78c35.346 0 64-28.654 64-64v-28.472c0-35.346-28.654-64-64-64h-61.956" stroke="#D6D3DD" stroke-width="18"/>
  <circle cx="120.277" cy="471.363" r="73.863" fill="#251A3F"/>
  <circle opacity=".8" cx="611" cy="138" r="13" fill="#A9366D"/>
  <ellipse opacity=".8" cx="719.5" cy="247" rx="16.5" ry="17" fill="#F7B129"/>
  <g clip-path="url(#5187FqUm5a)">
    <path d="M674 191H81v329h593V191z" fill="#F9F9FA"/>
    <g filter="url(#5187FqUm5b)">
      <path fill-rule="evenodd" clip-rule="evenodd" d="M222.25 264.891a3.299 3.299 0 013.294-3.303h241.73a3.299 3.299 0 013.295 3.303v33.436a3.299 3.299 0 01-3.295 3.303h-241.73a3.299 3.299 0 01-3.294-3.303v-33.436z" fill="#fff"/>
      <path d="M222.455 264.891a3.092 3.092 0 013.089-3.096h241.73a3.092 3.092 0 013.088 3.096v33.436a3.092 3.092 0 01-3.088 3.096h-241.73a3.092 3.092 0 01-3.089-3.096v-33.436z" stroke="#D8D8D8"/>
    </g>
    <path d="M243.663 291.929c5.8 0 10.501-4.713 10.501-10.526 0-5.814-4.701-10.527-10.501-10.527-5.799 0-10.501 4.713-10.501 10.527 0 5.813 4.702 10.526 10.501 10.526z" fill="#A9366D" stroke="#E0E0E0"/>
    <path d="M428.975 245.283c3.298 0 5.971-2.68 5.971-5.986 0-3.305-2.673-5.985-5.971-5.985s-5.971 2.68-5.971 5.985c0 3.306 2.673 5.986 5.971 5.986zm17.915 0c3.405 0 6.177-2.673 6.177-5.986 0-3.312-2.772-5.985-6.177-5.985s-6.177 2.673-6.177 5.985c0 3.313 2.772 5.986 6.177 5.986zm17.913 0c3.298 0 5.971-2.68 5.971-5.986 0-3.305-2.673-5.985-5.971-5.985s-5.971 2.68-5.971 5.985c0 3.306 2.673 5.986 5.971 5.986z" fill="#A29EAC" stroke="#E0E0E0"/>
    <path opacity=".7" fill-rule="evenodd" clip-rule="evenodd" d="M428.152 274.587a1.65 1.65 0 011.648-1.651h30.885c.91 0 1.647.74 1.647 1.651v12.577c0 .912-.737 1.651-1.647 1.651H429.8a1.65 1.65 0 01-1.648-1.651v-12.577z" fill="#A29EAC"/>
    <path d="M673.794 234.963H497.541v256.76h176.253v-256.76z" fill="#fff" stroke="#DEDEDE"/>
    <path d="M518.749 354.894c5.79 0 10.501-4.476 10.501-10.017 0-5.542-4.711-10.017-10.501-10.017-5.79 0-10.501 4.475-10.501 10.017 0 5.541 4.711 10.017 10.501 10.017z" fill="#A29EAC" stroke="#E0E0E0"/>
    <path d="M658.145 340.02H538.721a3.504 3.504 0 00-3.5 3.509 3.504 3.504 0 003.5 3.509h119.424c1.933 0 3.5-1.571 3.5-3.509a3.504 3.504 0 00-3.5-3.509z" fill="#DEDEDE"/>
    <path d="M518.749 388.33c5.79 0 10.501-4.475 10.501-10.017s-4.711-10.016-10.501-10.016c-5.79 0-10.501 4.474-10.501 10.016s4.711 10.017 10.501 10.017z" fill="#A29EAC" stroke="#E0E0E0"/>
    <path d="M658.145 372.631H538.721a3.504 3.504 0 00-3.5 3.509 3.504 3.504 0 003.5 3.509h119.424c1.933 0 3.5-1.571 3.5-3.509a3.504 3.504 0 00-3.5-3.509z" fill="#DEDEDE"/>
    <path d="M518.749 420.941c5.79 0 10.501-4.475 10.501-10.017 0-5.541-4.711-10.016-10.501-10.016-5.79 0-10.501 4.475-10.501 10.016 0 5.542 4.711 10.017 10.501 10.017z" fill="#A29EAC" stroke="#E0E0E0"/>
    <path d="M658.145 405.242H538.721a3.504 3.504 0 00-3.5 3.509 3.504 3.504 0 003.5 3.509h119.424c1.933 0 3.5-1.571 3.5-3.509a3.504 3.504 0 00-3.5-3.509z" fill="#DEDEDE"/>
    <path d="M518.749 453.552c5.79 0 10.501-4.475 10.501-10.017 0-5.541-4.711-10.016-10.501-10.016-5.79 0-10.501 4.475-10.501 10.016 0 5.542 4.711 10.017 10.501 10.017z" fill="#A29EAC" stroke="#E0E0E0"/>
    <path d="M658.145 437.853H538.721a3.504 3.504 0 00-3.5 3.509 3.504 3.504 0 003.5 3.509h119.424c1.933 0 3.5-1.571 3.5-3.509a3.504 3.504 0 00-3.5-3.509z" fill="#DEDEDE"/>
    <path d="M621.552 246.53H514.071c-3.866 0-7.001 3.142-7.001 7.018s3.135 7.018 7.001 7.018h107.481c3.867 0 7.001-3.142 7.001-7.018s-3.134-7.018-7.001-7.018z" fill="#A29EAC"/>
    <path d="M660.468 266.758H511.394a4.329 4.329 0 00-4.324 4.334 4.329 4.329 0 004.324 4.334h149.074a4.329 4.329 0 004.324-4.334 4.329 4.329 0 00-4.324-4.334zm-45.711 14.86H511.394a4.33 4.33 0 00-4.324 4.335 4.33 4.33 0 004.324 4.334h103.363a4.329 4.329 0 004.324-4.334 4.329 4.329 0 00-4.324-4.335z" fill="#F1F1F1"/>
    <path d="M673.893 213.497H497.592v22.292h176.301v-22.292z" fill="#fff" stroke="#DEDEDE"/>
    <path d="M497.748 317.11h176.253" stroke="#E2E2E2"/>
    <path d="M673.842 477.275H497.541v42.106h176.301v-42.106z" fill="#F9F9FA" stroke="#DEDEDE"/>
    <path d="M661.647 487.389H511.75a3.298 3.298 0 00-3.295 3.302v15.274a3.298 3.298 0 003.295 3.302h149.897a3.298 3.298 0 003.294-3.302v-15.274a3.298 3.298 0 00-3.294-3.302z" fill="#DEDEDE"/>
    <path d="M542.428 219.896h-30.885a4.329 4.329 0 00-4.324 4.334 4.33 4.33 0 004.324 4.335h30.885a4.33 4.33 0 004.324-4.335 4.329 4.329 0 00-4.324-4.334z" fill="#F1F1F1"/>
    <path d="M163.567 266.955H102.62c-3.07 0-5.56 2.495-5.56 5.573a5.566 5.566 0 005.56 5.572h60.947a5.566 5.566 0 005.56-5.572 5.566 5.566 0 00-5.56-5.573z" fill="#029D7F"/>
    <path d="M287.931 231.454h-57.652c-4.208 0-7.619 3.419-7.619 7.637s3.411 7.637 7.619 7.637h57.652c4.208 0 7.619-3.419 7.619-7.637s-3.411-7.637-7.619-7.637z" fill="#A29EAC"/>
    <path d="M163.155 283.054h-60.123c-3.298 0-5.971 2.68-5.971 5.986 0 3.305 2.673 5.985 5.971 5.985h60.123c3.298 0 5.972-2.68 5.972-5.985 0-3.306-2.674-5.986-5.972-5.986zm0-49.536h-60.123c-3.298 0-5.971 2.68-5.971 5.986 0 3.305 2.673 5.985 5.971 5.985h60.123c3.298 0 5.972-2.68 5.972-5.985 0-3.306-2.674-5.986-5.972-5.986zm.206 66.461h-60.535c-3.184 0-5.765 2.587-5.765 5.779 0 3.192 2.58 5.779 5.765 5.779h60.535c3.184 0 5.766-2.587 5.766-5.779 0-3.192-2.582-5.779-5.766-5.779zm0-49.536h-60.535c-3.184 0-5.765 2.587-5.765 5.779 0 3.192 2.58 5.779 5.765 5.779h60.535c3.184 0 5.766-2.587 5.766-5.779 0-3.192-2.582-5.779-5.766-5.779z" fill="#E1E1E1"/>
    <path d="M179.422 251.681h-2.883a2.887 2.887 0 00-2.883 2.89v3.302a2.887 2.887 0 002.883 2.89h2.883a2.886 2.886 0 002.882-2.89v-3.302c0-1.596-1.29-2.89-2.882-2.89z" fill="#029D7F"/>
    <g filter="url(#5187FqUm5c)">
      <path fill-rule="evenodd" clip-rule="evenodd" d="M222.66 316.491a3.299 3.299 0 013.295-3.303h241.318a3.299 3.299 0 013.294 3.303v100.722a3.299 3.299 0 01-3.294 3.303H225.955a3.299 3.299 0 01-3.295-3.303V316.491z" fill="#fff"/>
      <path d="M222.865 316.491a3.092 3.092 0 013.089-3.096h241.318a3.092 3.092 0 013.088 3.096v100.722a3.092 3.092 0 01-3.088 3.096H225.954a3.092 3.092 0 01-3.089-3.096V316.491z" stroke="#D8D8D8"/>
    </g>
    <path d="M347.849 322.27H240.368c-3.866 0-7.001 3.142-7.001 7.017 0 3.876 3.135 7.018 7.001 7.018h107.481c3.867 0 7.001-3.142 7.001-7.018 0-3.875-3.134-7.017-7.001-7.017z" fill="#A29EAC"/>
    <path d="M453.065 343.529H237.691a4.329 4.329 0 00-4.324 4.334 4.33 4.33 0 004.324 4.335h215.374a4.329 4.329 0 004.324-4.335 4.328 4.328 0 00-4.324-4.334zm-71.654 16.305h-143.72a4.33 4.33 0 00-4.324 4.335 4.329 4.329 0 004.324 4.334h143.72a4.329 4.329 0 004.324-4.334 4.33 4.33 0 00-4.324-4.335z" fill="#DEDEDE"/>
    <path d="M243.663 411.034c5.79 0 10.501-4.475 10.501-10.017s-4.711-10.016-10.501-10.016c-5.789 0-10.501 4.474-10.501 10.016s4.712 10.017 10.501 10.017z" fill="#A9366D" stroke="#E0E0E0"/>
    <path d="M306.876 398.225h-44.475a3.505 3.505 0 00-3.501 3.508 3.505 3.505 0 003.501 3.509h44.475c1.933 0 3.5-1.571 3.5-3.509a3.504 3.504 0 00-3.5-3.508z" fill="#DEDEDE"/>
    <path fill-rule="evenodd" clip-rule="evenodd" d="M415.241 394.097c-3.866 0-7.001 3.141-7.001 7.017 0 3.876 3.135 7.018 7.001 7.018h35.415c3.867 0 7.001-3.142 7.001-7.018s-3.134-7.017-7.001-7.017h-35.415z" fill="#A29EAC" stroke="#A29EAC"/>
    <g filter="url(#5187FqUm5d)">
      <path fill-rule="evenodd" clip-rule="evenodd" d="M222.66 435.789a3.298 3.298 0 013.295-3.302h241.318a3.298 3.298 0 013.294 3.302v100.723a3.298 3.298 0 01-3.294 3.302H225.955a3.298 3.298 0 01-3.295-3.302V435.789z" fill="#fff"/>
      <path d="M222.865 435.789a3.092 3.092 0 013.089-3.096h241.318a3.092 3.092 0 013.088 3.096v100.723a3.092 3.092 0 01-3.088 3.096H225.954a3.092 3.092 0 01-3.089-3.096V435.789z" stroke="#D8D8D8"/>
    </g>
    <path d="M347.849 441.568H240.368c-3.866 0-7.001 3.142-7.001 7.018s3.135 7.017 7.001 7.017h107.481c3.867 0 7.001-3.141 7.001-7.017 0-3.876-3.134-7.018-7.001-7.018z" fill="#A29EAC"/>
    <path d="M453.065 462.828H237.691a4.329 4.329 0 00-4.324 4.334 4.329 4.329 0 004.324 4.334h215.374a4.328 4.328 0 004.324-4.334 4.328 4.328 0 00-4.324-4.334zm-71.654 15.892h-143.72a4.33 4.33 0 00-4.324 4.335 4.33 4.33 0 004.324 4.334h143.72a4.33 4.33 0 004.324-4.334 4.33 4.33 0 00-4.324-4.335z" fill="#DEDEDE"/>
    <path d="M243.663 530.333c5.79 0 10.501-4.475 10.501-10.017s-4.711-10.017-10.501-10.017c-5.789 0-10.501 4.475-10.501 10.017s4.712 10.017 10.501 10.017z" fill="#A9366D" stroke="#E0E0E0"/>
    <path d="M307.288 515.459h-44.475a3.505 3.505 0 00-3.501 3.509 3.505 3.505 0 003.501 3.509h44.475c1.933 0 3.5-1.571 3.5-3.509a3.504 3.504 0 00-3.5-3.509z" fill="#DEDEDE"/>
    <path fill-rule="evenodd" clip-rule="evenodd" d="M415.241 513.395c-3.866 0-7.001 3.142-7.001 7.018s3.135 7.017 7.001 7.017h35.415c3.867 0 7.001-3.141 7.001-7.017 0-3.876-3.134-7.018-7.001-7.018h-35.415z" fill="#A29EAC" stroke="#A29EAC"/>
    <g filter="url(#5187FqUm5e)">
      <path fill-rule="evenodd" clip-rule="evenodd" d="M81 191h593v22.704H81V191z" fill="#fff"/>
    </g>
  </g>
  <rect x="81.5" y="191.5" width="592" height="328" rx="25.5" stroke="#D6D6D6"/>
  <defs>
    <filter id="5187FqUm5b" x="201.955" y="251.295" width="288.907" height="80.629" filterUnits="userSpaceOnUse" color-interpolation-filters="sRGB">
      <feFlood flood-opacity="0" result="BackgroundImageFix"/>
      <feColorMatrix in="SourceAlpha" values="0 0 0 0 0 0 0 0 0 0 0 0 0 0 0 0 0 0 127 0"/>
      <feOffset dy="10"/>
      <feGaussianBlur stdDeviation="10"/>
      <feColorMatrix values="0 0 0 0 0.2 0 0 0 0 0.2 0 0 0 0 0.2 0 0 0 0.15 0"/>
      <feBlend in2="BackgroundImageFix" result="effect1_dropShadow"/>
      <feBlend in="SourceGraphic" in2="effect1_dropShadow" result="shape"/>
    </filter>
    <filter id="5187FqUm5c" x="202.365" y="302.895" width="288.495" height="147.915" filterUnits="userSpaceOnUse" color-interpolation-filters="sRGB">
      <feFlood flood-opacity="0" result="BackgroundImageFix"/>
      <feColorMatrix in="SourceAlpha" values="0 0 0 0 0 0 0 0 0 0 0 0 0 0 0 0 0 0 127 0"/>
      <feOffset dy="10"/>
      <feGaussianBlur stdDeviation="10"/>
      <feColorMatrix values="0 0 0 0 0 0 0 0 0 0 0 0 0 0 0 0 0 0 0.1 0"/>
      <feBlend in2="BackgroundImageFix" result="effect1_dropShadow"/>
      <feBlend in="SourceGraphic" in2="effect1_dropShadow" result="shape"/>
    </filter>
    <filter id="5187FqUm5d" x="202.365" y="422.193" width="288.495" height="147.915" filterUnits="userSpaceOnUse" color-interpolation-filters="sRGB">
      <feFlood flood-opacity="0" result="BackgroundImageFix"/>
      <feColorMatrix in="SourceAlpha" values="0 0 0 0 0 0 0 0 0 0 0 0 0 0 0 0 0 0 127 0"/>
      <feOffset dy="10"/>
      <feGaussianBlur stdDeviation="10"/>
      <feColorMatrix values="0 0 0 0 0 0 0 0 0 0 0 0 0 0 0 0 0 0 0.1 0"/>
      <feBlend in2="BackgroundImageFix" result="effect1_dropShadow"/>
      <feBlend in="SourceGraphic" in2="effect1_dropShadow" result="shape"/>
    </filter>
    <filter id="5187FqUm5e" x="77" y="188" width="601" height="30.704" filterUnits="userSpaceOnUse" color-interpolation-filters="sRGB">
      <feFlood flood-opacity="0" result="BackgroundImageFix"/>
      <feColorMatrix in="SourceAlpha" values="0 0 0 0 0 0 0 0 0 0 0 0 0 0 0 0 0 0 127 0"/>
      <feOffset dy="1"/>
      <feGaussianBlur stdDeviation="2"/>
      <feColorMatrix values="0 0 0 0 0.882353 0 0 0 0 0.882353 0 0 0 0 0.882353 0 0 0 1 0"/>
      <feBlend in2="BackgroundImageFix" result="effect1_dropShadow"/>
      <feBlend in="SourceGraphic" in2="effect1_dropShadow" result="shape"/>
    </filter>
    <clipPath id="5187FqUm5a"/>
  </defs>
</svg>
