<svg fill="none" xmlns="http://www.w3.org/2000/svg" viewBox="0 0 762 135">
  <path d="M624.707 52.707a1 1 0 000-1.414l-6.364-6.364a1 1 0 10-1.414 1.414L622.586 52l-5.657 5.657a1 1 0 101.414 1.414l6.364-6.364zM580 53h44v-2h-44v2zm-161.293-.293a1 1 0 000-1.414l-6.364-6.364a1 1 0 10-1.414 1.414L416.586 52l-5.657 5.657a1 1 0 101.414 1.414l6.364-6.364zM374 53h44v-2h-44v2zm-174.293-.293a1 1 0 000-1.414l-6.364-6.364a1 1 0 10-1.414 1.414L197.586 52l-5.657 5.657a1 1 0 101.414 1.414l6.364-6.364zM155 53h44v-2h-44v2z" fill="#029D7F"/>
  <path d="M28.473 111.854V128H24.54v-16.146h3.933zm11.162 3.174c1.502 0 2.698.491 3.587 1.472.905.966 1.358 2.3 1.358 4.002V128h-3.91v-6.969c0-.859-.223-1.526-.668-2.001-.444-.475-1.042-.713-1.794-.713-.75 0-1.349.238-1.794.713-.444.475-.666 1.142-.666 2.001V128h-3.933v-12.834h3.933v1.702a4.062 4.062 0 011.61-1.334c.674-.337 1.433-.506 2.277-.506zm13.942 9.292l2.783-9.154h4.186L55.992 128H51.14l-4.554-12.834h4.21l2.782 9.154zm11.095-10.488c-.69 0-1.258-.199-1.702-.598a2.028 2.028 0 01-.644-1.518c0-.613.214-1.119.644-1.518.444-.414 1.012-.621 1.702-.621.674 0 1.226.207 1.656.621.444.399.667.905.667 1.518 0 .598-.223 1.104-.667 1.518-.43.399-.982.598-1.656.598zm1.955 1.334V128h-3.933v-12.834h3.933zm10.495 9.499V128H75.12c-1.426 0-2.538-.345-3.335-1.035-.798-.705-1.196-1.848-1.196-3.427v-5.106h-1.564v-3.266h1.564v-3.128h3.933v3.128h2.576v3.266h-2.576v5.152c0 .383.092.659.276.828.184.169.49.253.92.253h1.403zm14.78-3.289c0 .368-.023.751-.069 1.15h-8.9c.06.797.313 1.411.758 1.84.46.414 1.02.621 1.68.621.98 0 1.663-.414 2.046-1.242h4.186a5.675 5.675 0 01-1.173 2.277 5.703 5.703 0 01-2.093 1.587c-.843.383-1.786.575-2.829.575-1.257 0-2.377-.268-3.358-.805a5.726 5.726 0 01-2.3-2.3c-.552-.997-.828-2.162-.828-3.496s.268-2.499.805-3.496a5.726 5.726 0 012.3-2.3c.981-.537 2.108-.805 3.381-.805 1.242 0 2.346.261 3.312.782a5.538 5.538 0 012.254 2.231c.552.966.828 2.093.828 3.381zm-4.025-1.035c0-.675-.23-1.211-.69-1.61-.46-.399-1.035-.598-1.725-.598-.66 0-1.219.192-1.679.575-.445.383-.72.928-.828 1.633h4.922z" fill="#251A3F"/>
  <path d="M80.28 57.617a9.471 9.471 0 00-12.049 0L45.65 39.645a9.53 9.53 0 00-.043-4.83 9.508 9.508 0 00-2.404-4.184 9.44 9.44 0 00-13.197-.262 9.503 9.503 0 00-2.567 4.086 9.529 9.529 0 001.929 9.14L15.37 59.514a9.311 9.311 0 00-6.831-1.976 9.454 9.454 0 00-5.088 2.12 9.501 9.501 0 00-3.05 4.6 9.528 9.528 0 00.017 5.526 9.501 9.501 0 003.08 4.581A9.353 9.353 0 009.406 76.5h.984a9.467 9.467 0 006.413-3.432 9.53 9.53 0 002.112-6.977 9.224 9.224 0 00-1.181-3.713l14.549-16.61a9.423 9.423 0 008.197.061 9.454 9.454 0 003.28-2.569 1.2 1.2 0 00.138-.197l21.99 17.497a9.544 9.544 0 002.561 11.961 9.476 9.476 0 008.352 1.665 9.482 9.482 0 003.836-2.111 9.521 9.521 0 002.484-3.613 9.547 9.547 0 00.604-4.347 9.463 9.463 0 00-3.445-6.497zM13.953 70.614a5.712 5.712 0 01-3.938 2.094 5.752 5.752 0 01-5.044-2.06 5.794 5.794 0 01-1.087-5.354 5.79 5.79 0 011.435-2.42 5.765 5.765 0 015.208-1.598 5.76 5.76 0 012.54 1.201c.23.195.448.407.65.632.096.212.237.4.413.553a5.62 5.62 0 011.024 2.706 5.724 5.724 0 01-1.201 4.246zm26.991-29.625a5.733 5.733 0 01-7.15 1.422 5.76 5.76 0 01-2.6-2.877 5.785 5.785 0 01-.192-3.878 5.766 5.766 0 012.302-3.121 5.735 5.735 0 017.255.702c.943.94 1.53 2.18 1.665 3.506a5.76 5.76 0 01-1.28 4.167v.079zm37.82 27.65a5.75 5.75 0 01-8.92.034 5.796 5.796 0 011.711-8.782 5.754 5.754 0 016.382.611 5.8 5.8 0 01.827 8.137zm10.081-19.021a1.828 1.828 0 00-2.599.297l-2.815 3.535a1.857 1.857 0 00-.177 2.07c.119.216.28.405.472.557.324.26.728.4 1.142.395a1.846 1.846 0 001.457-.692l2.816-3.515a1.838 1.838 0 00-.296-2.647zm11.695-14.753a1.966 1.966 0 00-2.6.297l-5.905 7.366a1.858 1.858 0 00.295 2.627c.323.26.727.4 1.142.395a1.846 1.846 0 001.457-.691l5.906-7.367a1.983 1.983 0 00-.295-2.627zm7.663-9.19a1.965 1.965 0 00-2.599.296l-2.815 3.555a1.853 1.853 0 00-.437 1.384 1.857 1.857 0 002.084 1.664 1.853 1.853 0 001.247-.737l2.815-3.516a1.976 1.976 0 00-.295-2.646z" fill="#029D7F"/>
  <path d="M116.352 14.338a1.83 1.83 0 00-1.713-.217l-13.899 5.155a1.824 1.824 0 00-1.043.966 1.841 1.841 0 00-.04 1.424 1.858 1.858 0 00.962 1.05 1.84 1.84 0 001.42.056l11.34-4.227-.177 12.146a1.85 1.85 0 00.485 1.376 1.849 1.849 0 001.326.6 1.85 1.85 0 001.851-1.837l.275-14.931a1.974 1.974 0 00-.787-1.56z" fill="#029D7F"/>
  <path d="M257.404 128.161c-1.181 0-2.239-.192-3.174-.575-.936-.383-1.687-.951-2.254-1.702-.552-.751-.844-1.656-.874-2.714h4.186c.061.598.268 1.058.621 1.38.352.307.812.46 1.38.46.582 0 1.042-.13 1.38-.391.337-.276.506-.652.506-1.127 0-.399-.138-.728-.414-.989a3.08 3.08 0 00-.989-.644c-.384-.169-.936-.36-1.656-.575-1.043-.322-1.894-.644-2.553-.966a4.706 4.706 0 01-1.702-1.426c-.476-.629-.713-1.449-.713-2.461 0-1.503.544-2.676 1.633-3.519 1.088-.859 2.507-1.288 4.255-1.288 1.778 0 3.212.429 4.301 1.288 1.088.843 1.671 2.024 1.748 3.542h-4.255c-.031-.521-.223-.928-.575-1.219-.353-.307-.805-.46-1.357-.46-.476 0-.859.13-1.15.391-.292.245-.437.606-.437 1.081 0 .521.245.928.736 1.219.49.291 1.257.606 2.3.943 1.042.353 1.886.69 2.53 1.012a4.82 4.82 0 011.702 1.403c.475.613.713 1.403.713 2.369 0 .92-.238 1.756-.713 2.507-.46.751-1.135 1.349-2.024 1.794-.89.445-1.94.667-3.151.667zm16.689-13.133c1.472 0 2.653.491 3.542 1.472.889.966 1.334 2.3 1.334 4.002V128h-3.91v-6.969c0-.859-.222-1.526-.667-2.001-.445-.475-1.043-.713-1.794-.713-.751 0-1.349.238-1.794.713-.445.475-.667 1.142-.667 2.001V128h-3.933v-17.02h3.933v5.911c.399-.567.943-1.02 1.633-1.357.69-.337 1.464-.506 2.323-.506zm7.319 6.532c0-1.319.245-2.476.736-3.473.506-.997 1.188-1.763 2.047-2.3.858-.537 1.817-.805 2.875-.805.904 0 1.694.184 2.369.552.69.368 1.219.851 1.587 1.449v-1.817h3.933V128h-3.933v-1.817c-.384.598-.92 1.081-1.61 1.449-.675.368-1.465.552-2.369.552a5.268 5.268 0 01-2.852-.805c-.859-.552-1.541-1.326-2.047-2.323-.491-1.012-.736-2.177-.736-3.496zm9.614.023c0-.981-.276-1.756-.828-2.323a2.618 2.618 0 00-1.978-.851 2.69 2.69 0 00-2.001.851c-.537.552-.805 1.319-.805 2.3 0 .981.268 1.763.805 2.346a2.69 2.69 0 002.001.851c.782 0 1.441-.284 1.978-.851.552-.567.828-1.342.828-2.323zm11.203-4.278a5.086 5.086 0 011.725-1.656 4.386 4.386 0 012.3-.621v4.163h-1.081c-.981 0-1.717.215-2.208.644-.491.414-.736 1.15-.736 2.208V128h-3.933v-12.834h3.933v2.139zm18.495 4.071c0 .368-.023.751-.069 1.15h-8.901c.061.797.314 1.411.759 1.84.46.414 1.019.621 1.679.621.981 0 1.663-.414 2.047-1.242h4.186a5.683 5.683 0 01-1.173 2.277 5.705 5.705 0 01-2.093 1.587c-.844.383-1.787.575-2.829.575-1.258 0-2.377-.268-3.358-.805a5.722 5.722 0 01-2.3-2.3c-.552-.997-.828-2.162-.828-3.496s.268-2.499.805-3.496a5.722 5.722 0 012.3-2.3c.981-.537 2.108-.805 3.381-.805 1.242 0 2.346.261 3.312.782a5.54 5.54 0 012.254 2.231c.552.966.828 2.093.828 3.381zm-4.025-1.035c0-.675-.23-1.211-.69-1.61-.46-.399-1.035-.598-1.725-.598-.66 0-1.219.192-1.679.575-.445.383-.721.928-.828 1.633h4.922z" fill="#251A3F"/>
  <path d="M525.967 30.409h-12.279l5.346-10.797a7.78 7.78 0 00-3.466-10.444l-2.688-1.357a7.726 7.726 0 00-5.912-.407 7.767 7.767 0 00-4.472 3.903l-9.738 19.544a13.863 13.863 0 00-7.579 4.97v-.545a4.875 4.875 0 00-1.419-3.427 4.838 4.838 0 00-3.413-1.426h-11.515a4.835 4.835 0 00-3.412 1.426 4.876 4.876 0 00-1.42 3.427v43.586a4.876 4.876 0 001.42 3.427 4.835 4.835 0 003.412 1.426h11.501a4.835 4.835 0 003.412-1.426 4.88 4.88 0 001.42-3.427v-.545a13.875 13.875 0 004.861 3.978 13.818 13.818 0 006.11 1.42h29.831a13.876 13.876 0 009.423-3.707 13.99 13.99 0 004.427-9.14 1.457 1.457 0 000-.28 1.465 1.465 0 000-.163V44.377c0-3.695-1.457-7.239-4.053-9.857a13.88 13.88 0 00-9.797-4.112zm-43.725 48.453a1.913 1.913 0 01-.56 1.35 1.895 1.895 0 01-1.349.553h-11.501a1.893 1.893 0 01-1.894-1.903v-43.6a1.893 1.893 0 011.894-1.903h11.501c.502 0 .984.2 1.339.557.356.357.555.84.555 1.345v43.601h.015zm43.725 1.903h-29.831a10.947 10.947 0 01-7.743-3.227 11.043 11.043 0 01-3.214-7.776V44.376c.002-2.545.88-5.011 2.487-6.98a10.96 10.96 0 016.326-3.817 1.47 1.47 0 00.47-.192h.088a1.48 1.48 0 00.279-.28l.088-.133v-.103l10.149-20.237a4.826 4.826 0 012.778-2.422 4.8 4.8 0 013.67.254l2.688 1.356a4.793 4.793 0 012.423 2.786 4.846 4.846 0 01-.264 3.69l-6.404 12.936c-.056.188-.1.38-.132.575a1.423 1.423 0 000 .206 1.458 1.458 0 000 .31c.086.165.184.322.294.472.076.073.16.137.249.192.056.049.115.093.177.133.188.056.379.1.573.132h14.687a10.949 10.949 0 017.667 3.149 11.046 11.046 0 013.29 7.633h-11.75a1.46 1.46 0 00-1.039.432 1.484 1.484 0 00-.318 1.608 1.484 1.484 0 00.795.798c.178.074.369.112.562.112h11.75v9.529h-11.75c-.39 0-.763.155-1.039.432a1.48 1.48 0 000 2.086c.276.277.649.432 1.039.432h11.75v9.646h-11.75c-.39 0-.763.156-1.039.433a1.48 1.48 0 000 2.085c.276.277.649.433 1.039.433h11.544a11.023 11.023 0 01-3.778 6.212 10.945 10.945 0 01-6.811 2.49z" fill="#029D7F"/>
  <path d="M479.554 119.72c.935.199 1.686.667 2.254 1.403.567.721.851 1.549.851 2.484 0 1.349-.476 2.423-1.426 3.22-.936.782-2.247 1.173-3.933 1.173h-7.521v-16.146h7.268c1.64 0 2.921.376 3.841 1.127.935.751 1.403 1.771 1.403 3.059 0 .951-.253 1.74-.759 2.369-.491.629-1.15 1.066-1.978 1.311zm-5.842-1.334h2.576c.644 0 1.134-.138 1.472-.414.352-.291.529-.713.529-1.265 0-.552-.177-.974-.529-1.265-.338-.291-.828-.437-1.472-.437h-2.576v3.381zm2.898 6.44c.659 0 1.165-.146 1.518-.437.368-.307.552-.744.552-1.311s-.192-1.012-.575-1.334c-.368-.322-.882-.483-1.541-.483h-2.852v3.565h2.898zm21.494-9.66V128h-3.933v-1.748c-.398.567-.943 1.027-1.633 1.38-.674.337-1.426.506-2.254.506-.981 0-1.847-.215-2.599-.644-.751-.445-1.334-1.081-1.748-1.909-.414-.828-.621-1.802-.621-2.921v-7.498h3.91v6.969c0 .859.223 1.526.667 2.001.445.475 1.043.713 1.794.713.767 0 1.373-.238 1.817-.713.445-.475.667-1.142.667-2.001v-6.969h3.933zm5.295-1.334c-.69 0-1.257-.199-1.702-.598a2.03 2.03 0 01-.644-1.518c0-.613.215-1.119.644-1.518.445-.414 1.012-.621 1.702-.621.675 0 1.227.207 1.656.621.445.399.667.905.667 1.518 0 .598-.222 1.104-.667 1.518-.429.399-.981.598-1.656.598zm1.955 1.334V128h-3.933v-12.834h3.933zm7.275-4.186V128h-3.933v-17.02h3.933zm2.56 10.58c0-1.319.246-2.476.736-3.473.506-.997 1.189-1.763 2.047-2.3.859-.537 1.817-.805 2.875-.805.844 0 1.61.176 2.3.529.706.353 1.258.828 1.656 1.426v-5.957h3.933V128h-3.933v-1.84c-.368.613-.897 1.104-1.587 1.472-.674.368-1.464.552-2.369.552-1.058 0-2.016-.268-2.875-.805-.858-.552-1.541-1.326-2.047-2.323-.49-1.012-.736-2.177-.736-3.496zm9.614.023c0-.981-.276-1.756-.828-2.323a2.617 2.617 0 00-1.978-.851 2.69 2.69 0 00-2.001.851c-.536.552-.805 1.319-.805 2.3 0 .981.269 1.763.805 2.346a2.69 2.69 0 002.001.851c.782 0 1.442-.284 1.978-.851.552-.567.828-1.342.828-2.323z" fill="#251A3F"/>
  <path d="M294.253 64.887c2.37-1.763 3.916-4.577 3.916-7.751 0-5.33-4.336-9.667-9.667-9.667-5.331 0-9.667 4.336-9.667 9.667 0 3.176 1.546 5.99 3.918 7.753a15.503 15.503 0 00-6.915 5.321c-5.742-2.957-10.348-7.818-12.901-13.786a27.586 27.586 0 01-1.621-5.124l4.742 3.774a1.5 1.5 0 101.868-2.348l-7.884-6.275a1.499 1.499 0 00-2.108.24l-6.275 7.884a1.5 1.5 0 102.348 1.869l4.052-5.091c.238 1.244.548 2.462.93 3.649 2.514 7.813 8.059 14.264 15.234 18.007a14.626 14.626 0 00-1.22 5.858 1.5 1.5 0 001.5 1.5h28.02a1.5 1.5 0 001.478-1.759c-.11-6.22-4.121-11.526-9.748-13.721zm-12.417-7.751a6.675 6.675 0 016.667-6.667 6.675 6.675 0 016.667 6.667 6.675 6.675 0 01-6.667 6.667 6.675 6.675 0 01-6.667-6.667zm-5.738 20.23c.768-5.947 6.038-10.564 12.404-10.564s11.636 4.617 12.404 10.564h-24.808zm51.787-34.656c-.109-6.22-4.119-11.525-9.747-13.72 2.37-1.763 3.916-4.577 3.916-7.751 0-5.331-4.336-9.667-9.667-9.667-5.331 0-9.667 4.336-9.667 9.667 0 3.176 1.546 5.99 3.918 7.753-5.706 2.225-9.751 7.646-9.751 13.978a1.5 1.5 0 001.5 1.5h17.877c.016.351.03.703.03 1.058 0 5.75-1.755 11.098-4.758 15.536a28.06 28.06 0 01-3.899 4.592l.992-5.371a1.5 1.5 0 00-2.95-.546l-1.831 9.908a1.5 1.5 0 001.202 1.748l9.908 1.831a1.5 1.5 0 10.545-2.949l-6.809-1.258a31.267 31.267 0 002.651-2.561c5.06-5.519 8.155-12.869 8.155-20.929 0-.355-.012-.706-.026-1.058h6.933a1.5 1.5 0 001.478-1.761zm-22.164-21.471a6.675 6.675 0 016.667-6.667 6.675 6.675 0 016.667 6.667 6.675 6.675 0 01-6.667 6.667 6.675 6.675 0 01-6.667-6.667zm-5.737 20.23c.768-5.947 6.038-10.564 12.404-10.564s11.636 4.617 12.404 10.564h-24.808zM276.52 44.47a1.5 1.5 0 001.478-1.76c-.109-6.22-4.119-11.525-9.747-13.72a9.678 9.678 0 003.71-5.77 27.614 27.614 0 0116.54-5.486c.292 0 .58.013.87.022 2.141.066 4.222.37 6.216.897l-6.354 2.354a1.5 1.5 0 101.042 2.814l9.449-3.5a1.5 1.5 0 00.886-1.928l-3.5-9.449a1.501 1.501 0 00-2.814 1.042l2.057 5.552a30.805 30.805 0 00-3.456-.693 30.777 30.777 0 00-20.921 4.489c-.888-4.42-4.798-7.76-9.476-7.76-5.33 0-9.667 4.335-9.667 9.666 0 3.176 1.546 5.99 3.918 7.753C251.045 31.218 247 36.64 247 42.971a1.5 1.5 0 001.5 1.5h28c.007-.003.013-.002.02-.002zm-20.686-23.23a6.675 6.675 0 016.667-6.668 6.675 6.675 0 016.667 6.667 6.675 6.675 0 01-6.667 6.667 6.675 6.675 0 01-6.667-6.667zm-5.738 20.23c.768-5.948 6.038-10.565 12.404-10.565s11.636 4.617 12.404 10.564h-24.808z" fill="#029D7F"/>
  <path d="M672.411 115.005v3.266h5.267v3.036h-5.267v3.542h5.957V128h-9.89v-16.146h9.89v3.151h-5.957zm16.822.023c1.503 0 2.699.491 3.588 1.472.905.966 1.357 2.3 1.357 4.002V128h-3.91v-6.969c0-.859-.222-1.526-.667-2.001-.445-.475-1.043-.713-1.794-.713-.751 0-1.349.238-1.794.713-.445.475-.667 1.142-.667 2.001V128h-3.933v-12.834h3.933v1.702a4.062 4.062 0 011.61-1.334c.675-.337 1.434-.506 2.277-.506zm13.046-.046c.905 0 1.694.184 2.369.552.69.368 1.219.851 1.587 1.449v-1.817h3.933v12.811c0 1.181-.238 2.246-.713 3.197-.46.966-1.173 1.733-2.139 2.3-.951.567-2.139.851-3.565.851-1.901 0-3.442-.452-4.623-1.357-1.181-.889-1.855-2.101-2.024-3.634h3.887c.123.491.414.874.874 1.15.46.291 1.027.437 1.702.437.813 0 1.457-.238 1.932-.713.491-.46.736-1.204.736-2.231v-1.817c-.383.598-.912 1.089-1.587 1.472-.675.368-1.464.552-2.369.552-1.058 0-2.016-.268-2.875-.805-.859-.552-1.541-1.326-2.047-2.323-.491-1.012-.736-2.177-.736-3.496s.245-2.476.736-3.473c.506-.997 1.188-1.763 2.047-2.3.859-.537 1.817-.805 2.875-.805zm3.956 6.601c0-.981-.276-1.756-.828-2.323a2.618 2.618 0 00-1.978-.851 2.69 2.69 0 00-2.001.851c-.537.552-.805 1.319-.805 2.3 0 .981.268 1.763.805 2.346a2.69 2.69 0 002.001.851c.782 0 1.441-.284 1.978-.851.552-.567.828-1.342.828-2.323zm6.488-.023c0-1.319.245-2.476.736-3.473.506-.997 1.188-1.763 2.047-2.3.859-.537 1.817-.805 2.875-.805.905 0 1.694.184 2.369.552.69.368 1.219.851 1.587 1.449v-1.817h3.933V128h-3.933v-1.817c-.383.598-.92 1.081-1.61 1.449-.675.368-1.464.552-2.369.552a5.27 5.27 0 01-2.852-.805c-.859-.552-1.541-1.326-2.047-2.323-.491-1.012-.736-2.177-.736-3.496zm9.614.023c0-.981-.276-1.756-.828-2.323a2.618 2.618 0 00-1.978-.851 2.69 2.69 0 00-2.001.851c-.537.552-.805 1.319-.805 2.3 0 .981.268 1.763.805 2.346a2.69 2.69 0 002.001.851c.782 0 1.441-.284 1.978-.851.552-.567.828-1.342.828-2.323zm12.146-6.601c.905 0 1.695.184 2.369.552.69.368 1.219.851 1.587 1.449v-1.817h3.933v12.811c0 1.181-.237 2.246-.713 3.197-.46.966-1.173 1.733-2.139 2.3-.95.567-2.139.851-3.565.851-1.901 0-3.442-.452-4.623-1.357-1.18-.889-1.855-2.101-2.024-3.634h3.887c.123.491.414.874.874 1.15.46.291 1.028.437 1.702.437.813 0 1.457-.238 1.932-.713.491-.46.736-1.204.736-2.231v-1.817c-.383.598-.912 1.089-1.587 1.472-.674.368-1.464.552-2.369.552-1.058 0-2.016-.268-2.875-.805-.858-.552-1.541-1.326-2.047-2.323-.49-1.012-.736-2.177-.736-3.496s.246-2.476.736-3.473c.506-.997 1.189-1.763 2.047-2.3.859-.537 1.817-.805 2.875-.805zm3.956 6.601c0-.981-.276-1.756-.828-2.323a2.617 2.617 0 00-1.978-.851 2.69 2.69 0 00-2.001.851c-.536.552-.805 1.319-.805 2.3 0 .981.269 1.763.805 2.346a2.69 2.69 0 002.001.851c.782 0 1.442-.284 1.978-.851.552-.567.828-1.342.828-2.323zm19.368-.207c0 .368-.023.751-.069 1.15h-8.901c.062.797.315 1.411.759 1.84.46.414 1.02.621 1.679.621.982 0 1.664-.414 2.047-1.242h4.186a5.657 5.657 0 01-1.173 2.277 5.697 5.697 0 01-2.093 1.587c-.843.383-1.786.575-2.829.575-1.257 0-2.376-.268-3.358-.805a5.728 5.728 0 01-2.3-2.3c-.552-.997-.828-2.162-.828-3.496s.269-2.499.805-3.496a5.728 5.728 0 012.3-2.3c.982-.537 2.109-.805 3.381-.805 1.242 0 2.346.261 3.312.782a5.534 5.534 0 012.254 2.231c.552.966.828 2.093.828 3.381zm-4.025-1.035c0-.675-.23-1.211-.69-1.61-.46-.399-1.035-.598-1.725-.598-.659 0-1.219.192-1.679.575-.444.383-.72.928-.828 1.633h4.922z" fill="#251A3F"/>
  <path d="M672.034 39.291a.998.998 0 00.187.886L680.128 50l-7.907 9.823a.998.998 0 00.418 1.56l11.761 4.553-1.938 12.46a1.001 1.001 0 001.142 1.142l12.461-1.937 4.552 11.76a1.002 1.002 0 001.56.418L712 81.872l9.823 7.907a1.002 1.002 0 001.56-.418l4.553-11.76 12.461 1.937a.998.998 0 001.141-1.142l-1.937-12.46 11.761-4.553a1 1 0 00.417-1.56L743.872 50l7.907-9.823a1 1 0 00-.417-1.56l-11.761-4.553 1.937-12.46a.998.998 0 00-1.141-1.142l-12.461 1.937-4.553-11.76a.998.998 0 00-1.56-.418L712 18.128l-9.823-7.907a1.002 1.002 0 00-1.56.418l-4.552 11.76-12.461-1.937a1.001 1.001 0 00-1.142 1.142l1.938 12.46-11.761 4.553a1 1 0 00-.605.674zm13.838-3.652a1 1 0 00.627-1.086l-1.85-11.905 11.904 1.851c.461.068.916-.188 1.086-.627l4.349-11.235 9.385 7.554a1 1 0 001.254 0l9.385-7.554 4.35 11.235c.17.44.628.695 1.085.627l11.905-1.85-1.851 11.904a1 1 0 00.627 1.086l11.235 4.35-7.554 9.384a1.002 1.002 0 000 1.254l7.554 9.385-11.235 4.35a1 1 0 00-.627 1.085l1.851 11.904-11.905-1.85a1.006 1.006 0 00-1.085.627l-4.35 11.235-9.385-7.554a.999.999 0 00-1.254 0l-9.385 7.554-4.349-11.235a1.004 1.004 0 00-1.086-.627l-11.904 1.85 1.85-11.904a1 1 0 00-.627-1.086l-11.235-4.35 7.555-9.384a1.002 1.002 0 000-1.254l-7.555-9.385 11.235-4.35z" fill="#029D7F"/>
  <path d="M700.963 64.071c3.781 0 7.211-1.506 9.742-3.941.039-.033.078-.063.111-.101.426-.419.82-.868 1.191-1.337 2.66 3.38 6.688 5.38 11.041 5.38 3.781 0 7.211-1.507 9.742-3.942.039-.033.078-.063.111-.101A14.022 14.022 0 00737.119 50c0-7.759-6.312-14.071-14.071-14.071-4.353 0-8.381 1.998-11.041 5.38-2.579-3.27-6.566-5.38-11.044-5.38-7.76 0-14.072 6.312-14.072 14.071 0 7.759 6.312 14.071 14.072 14.071zm-7.863-4.93c1.526-2.917 4.537-4.785 7.863-4.785 3.335 0 6.335 1.865 7.861 4.785a12.007 12.007 0 01-15.724 0zm22.085 0c1.526-2.918 4.537-4.785 7.863-4.785 3.335 0 6.335 1.865 7.861 4.785a12.007 12.007 0 01-15.724 0zm7.863-21.212c6.656 0 12.071 5.415 12.071 12.071 0 2.897-1.027 5.558-2.735 7.64a10.873 10.873 0 00-9.336-5.284 10.895 10.895 0 00-9.335 5.286c-.184-.225-.353-.466-.522-.706a13.974 13.974 0 000-13.872c2.266-3.216 5.906-5.135 9.857-5.135zm-22.085 0c6.656 0 12.071 5.415 12.071 12.071 0 2.897-1.027 5.558-2.735 7.64a10.873 10.873 0 00-9.336-5.284 10.895 10.895 0 00-9.336 5.286A12.016 12.016 0 01688.891 50c0-6.656 5.416-12.071 12.072-12.071z" fill="#029D7F"/>
  <path d="M700.963 51a5.609 5.609 0 005.602-5.602 5.61 5.61 0 00-5.602-5.604 5.61 5.61 0 00-5.604 5.604A5.61 5.61 0 00700.963 51zm0-9.206a3.607 3.607 0 013.602 3.604A3.607 3.607 0 01700.963 49a3.608 3.608 0 01-3.604-3.602 3.608 3.608 0 013.604-3.604zM723.047 51a5.609 5.609 0 005.602-5.602 5.61 5.61 0 00-5.602-5.604 5.61 5.61 0 00-5.604 5.604A5.61 5.61 0 00723.047 51zm0-9.206a3.607 3.607 0 013.602 3.604A3.607 3.607 0 01723.047 49a3.608 3.608 0 01-3.604-3.602 3.608 3.608 0 013.604-3.604z" fill="#029D7F"/>
</svg>
