<svg xmlns="http://www.w3.org/2000/svg" fill="none" viewBox="0 0 126 102">
  <path d="M125.252 5.491H.748a.698.698 0 01-.697-.696V.697A.697.697 0 01.748 0h124.504a.699.699 0 01.698.697v4.098a.7.7 0 01-.698.696z" fill="#E4E4E4"/>
  <path d="M4.098 3.535a.99.99 0 100-1.98.99.99 0 000 1.98zm3.757 0a.99.99 0 10.001-1.98.99.99 0 000 1.98zm3.76 0a.99.99 0 10.001-1.98.99.99 0 000 1.98z" fill="#fff"/>
  <path d="M124.31 102H68.935a1.69 1.69 0 01-1.69-1.689V61.208a1.69 1.69 0 011.69-1.69h55.375a1.694 1.694 0 011.69 1.69v39.103a1.688 1.688 0 01-1.69 1.689z" fill="#251A3F"/>
  <path d="M122.004 61.821H71.24a1.695 1.695 0 00-1.691 1.69v34.496a1.691 1.691 0 001.691 1.69h50.764a1.695 1.695 0 001.69-1.69V63.511a1.688 1.688 0 00-1.69-1.69z" fill="#fff"/>
  <path d="M101.249 78.22a6.81 6.81 0 00-5.119-8.16 6.81 6.81 0 10-3.05 13.274 6.817 6.817 0 008.169-5.113z" fill="#9E616A"/>
  <path d="M114.21 93.285a6.682 6.682 0 00-4.676-5.035l-.006-.002a2.899 2.899 0 00-.699-.24l-8.192-1.674-1.641-1.76-6.984.445-.73 2.024-8.022 3.562.133-.093a8.464 8.464 0 00-1 .48l-.041.017a2.6 2.6 0 00-.638.406c-2.04 1.415-3.388 3.685-3.438 6.217l-.212 2.066h37.509l-1.363-6.413z" fill="#2E8C8D"/>
  <path d="M102.064 73.046c-.558-1.74-2.19-3.211-4.02-3.165.142-.434-.101-.921-.466-1.198-.364-.276-.825-.387-1.273-.48-.926-.193-1.89-.34-2.812-.123-.92.218-1.792.877-2 1.8-.838-.786-2.389-.569-2.979.417-.303.507-.346 1.188-.018 1.68.326.488.943.708 1.53.736.587.027 1.169-.104 1.753-.166 1.396-.146 2.87.135 3.999.969 1.128.834 1.85 2.263 1.649 3.651.451-.288 1.1-.088 1.416.344.315.433.34 1.024.194 1.538-.147.514-.444.971-.737 1.419l-1.618 2.473.22.146c.815.343 1.695-.298 2.287-.952a13.18 13.18 0 002.38-3.74c.708-1.687 1.053-3.607.495-5.349z" fill="#2F2E41"/>
  <path d="M72.658 71.72H2.153A2.156 2.156 0 010 69.57V19.78a2.152 2.152 0 012.153-2.15h70.505a2.156 2.156 0 012.153 2.15v49.79a2.152 2.152 0 01-2.153 2.151z" fill="#251A3F"/>
  <path d="M69.723 20.563H5.09a2.157 2.157 0 00-2.153 2.151v43.922a2.153 2.153 0 002.153 2.152h64.634a2.156 2.156 0 002.152-2.152V22.714a2.152 2.152 0 00-2.152-2.151z" fill="#fff"/>
  <path d="M46.706 41.175l-.119.215c1.061-2.612.096-5.832-1.797-7.801-1.892-1.97-4.524-2.87-7.115-3.228-1.923-.265-3.92-.257-5.749.446-2.648 1.02-4.672 3.38-6.361 5.834-.773 1.122-1.533 2.402-1.456 3.805.071 1.303.845 2.408 1.479 3.512.633 1.105 1.163 2.476.708 3.682-.271.718-.844 1.236-1.309 1.824-.464.587-.847 1.382-.622 2.12.181.596.728.988 1.29 1.12.561.13 1.144.045 1.713-.041l14.77-2.23a6.299 6.299 0 004.705-3.437 6.282 6.282 0 00-.137-5.82z" fill="#2F2E41"/>
  <path d="M35.72 50.33c3.989 0 7.222-3.23 7.222-7.213a7.217 7.217 0 00-7.221-7.214 7.217 7.217 0 00-7.221 7.214 7.217 7.217 0 007.22 7.213z" fill="#FFB9B9"/>
  <path d="M53.732 59.447a6.199 6.199 0 00-5.268-3.614l-2.012-.122.005.022-5.116-3.075c.126.144-8.322.445-8.322.445l-3.134 2.702-1.314.08a6.208 6.208 0 00-5.267 3.613l-4.269 9.34h8.508l.197-.848c.215.261.423.527.625.797H58l-4.268-9.34z" fill="#2E8C8D"/>
  <path d="M42.568 36.423c-.186-.985-1.192-1.436-2.053-1.654-2.5-.637-5.1-.78-7.654-.42-1.862.265-3.768.85-5.12 2.302-1.053 1.132-1.69 2.754-1.74 4.43-.029.975.146 1.991.632 2.813.486.822 1.315 1.419 2.17 1.398l.087.3c3.625-.504 6.993-2.758 9.114-6.098a7.811 7.811 0 01-2.285 3.688 14.235 14.235 0 006.146-4.732c.429-.569.845-1.278.703-2.027z" fill="#2F2E41"/>
  <path d="M121.569 1.865h-4.328a.317.317 0 01-.227-.093.323.323 0 01.105-.523.317.317 0 01.122-.024h4.328a.32.32 0 010 .64zm0 1.201h-4.328a.317.317 0 01-.227-.093.323.323 0 01.105-.523.317.317 0 01.122-.024h4.328a.32.32 0 010 .64zm0 1.2h-4.328a.317.317 0 01-.227-.093.323.323 0 01.105-.523.317.317 0 01.122-.024h4.328a.32.32 0 010 .64z" fill="#fff"/>
</svg>
