<svg xmlns="http://www.w3.org/2000/svg" fill="none" viewBox="0 0 155 75">
  <path d="M21 60h116V1H21v59z" fill="#fff"/>
  <path d="M138 61H20V0h118v61zM21.915 59.075h114.17V1.925H21.915v57.15z" fill="#DEDEDE"/>
  <path d="M76 13v20.42H46.484L41.03 40l.622-6.58H39V13h37z" fill="#2E8C8D"/>
  <path d="M93 14v13.614h18.348l3.39 4.386-.387-4.386H116V14H93z" fill="#F7B129"/>
  <path d="M16 73h1.355L18 66h-2v7z" fill="#FFB7B7"/>
  <path d="M16 72h3.054c.516 0 1.011.306 1.376.851.365.545.57 1.284.57 2.054V75h-5v-3z" fill="#2F2E41"/>
  <path d="M35.948 73L38 72.592 37.029 66 34 66.602 35.948 73z" fill="#FFB7B7"/>
  <path d="M36 72.149l2.779-1.067c.47-.18.966-.062 1.38.329.414.39.711 1.02.827 1.753l.014.09L36.45 75 36 72.149zm-21-1.471l.348-1.731s.64-6.686 5.235-13.358l1.496-7.247s-.444-5.486 3.843-8.456L27.244 39l4.634.258 1.07 5.701 2.157 13.49s.556.05.765 1.61c.424.655.675 1.402.73 2.174 0 0 1.104 2.962 1.4 5.143l-.035 2.134-2.33 1.208-4.858-13.364-3.474-7.472s-1.672 5.264-4.233 9.774c0 0-3.508 7.387-4.209 8.888L18.096 71 15 70.678z" fill="#2F2E41"/>
  <path d="M30.5 26c1.933 0 3.5-1.343 3.5-3s-1.567-3-3.5-3-3.5 1.343-3.5 3 1.567 3 3.5 3z" fill="#FFB7B7"/>
  <path d="M30.5 26c1.933 0 3.5-1.343 3.5-3s-1.567-3-3.5-3-3.5 1.343-3.5 3 1.567 3 3.5 3z" fill="#FFB8B8"/>
  <path d="M26 39.355l1.07-2.689a12.163 12.163 0 01.133-7.542l.205-.17c1.784-1.478 3.35-1.209 4.803.6.234.293.508.553.814.77.64.452 1.657 2.91.315 4.35l-1.074 6.302c.113 3.48-2.397 2.169-6.266-1.62z" fill="#534977"/>
  <path d="M41.563 35.301a.98.98 0 00-.427-.268.795.795 0 00-.468.005.994.994 0 00-.423.278 1.488 1.488 0 00-.299.498l-2.464-.264L37 37.573l3.484.306c.245.144.52.16.772.044.253-.116.466-.355.599-.673.133-.318.176-.691.123-1.05-.054-.36-.202-.68-.415-.899z" fill="#FFB7B7"/>
  <path d="M38.565 39l-7.89-1.611-2.566-4.705a2.177 2.177 0 01.065-1.532c.207-.481.58-.853 1.037-1.033.457-.18.96-.155 1.4.071.44.226.78.634.945 1.134l1.204 3.64 6.24 1.13L38.565 39z" fill="#DD6F6F"/>
  <path d="M24.5 23c1.933 0 3.5-1.343 3.5-3s-1.567-3-3.5-3-3.5 1.343-3.5 3 1.567 3 3.5 3z" fill="#2F2E41"/>
  <path d="M21.35 21.91c.39.291.84.482 1.316.555a2.92 2.92 0 001.417-.13c.455-.16.867-.431 1.2-.789.334-.358.58-.793.717-1.27a3.182 3.182 0 01-.402 1.207c-.214.37-.5.69-.838.94-.34.249-.725.423-1.132.511a2.917 2.917 0 01-1.236 0 2.963 2.963 0 01-1.131-.514 3.075 3.075 0 01-.837-.94 3.21 3.21 0 01-.299-2.48c-.067.554.01 1.116.226 1.628a3.1 3.1 0 00.998 1.282z" fill="#2F2E41"/>
  <path d="M34 21.666c-.57-1.057-.787-1.498-1.521-2.141-.65-.569-1.448-.736-2.092-.197a3.73 3.73 0 00-2.418-.22 3.839 3.839 0 00-2.066 1.32 4.084 4.084 0 00-.896 2.338c-.049.86.171 1.712.627 2.431a3.884 3.884 0 001.903 1.562c.78.294 1.63.32 2.426.073a3.862 3.862 0 001.988-1.443 4.099 4.099 0 00.737-2.842c.56-.081.752-.8 1.312-.88z" fill="#2F2E41"/>
  <path d="M133.002 46.35c.009-.228.059-.45.147-.652s.211-.378.361-.516a1.21 1.21 0 01.508-.282c.185-.048.376-.047.56.004L136.285 42l1.715.822-2.458 4.06a1.567 1.567 0 01-.561.883c-.27.202-.592.277-.905.212a1.278 1.278 0 01-.793-.568 1.793 1.793 0 01-.281-1.06z" fill="#A0616A"/>
  <path d="M135 43.698l3.668-6.215-1.494-4.015L139.209 28l.075.032c.049.022 1.206.542 1.377 2.404L143 37.84 136.758 46 135 43.698z" fill="#534977"/>
  <path d="M115.832 22.013c.234.027.458.1.658.216.199.116.369.27.496.452a1.397 1.397 0 01.185 1.244l2.829 2.17L118.987 28l-3.949-3.116a1.582 1.582 0 01-.857-.707 1.386 1.386 0 01-.131-1.053c.098-.354.333-.663.662-.867a1.729 1.729 0 011.12-.244z" fill="#A0616A"/>
  <path d="M117.465 24l5.993 4.416 4.176-1.263L133 29.77l-.039.078c-.025.05-.642 1.24-2.537 1.27L122.753 33 115 25.683 117.465 24z" fill="#534977"/>
  <path d="M129 73h-2.711L125 65h4v8z" fill="#A0616A"/>
  <path d="M124.705 72H129v3h-7c0-.394.07-.784.206-1.148.136-.364.335-.695.586-.973.251-.279.549-.5.878-.65a2.47 2.47 0 011.035-.229z" fill="#2F2E41"/>
  <path d="M136 73h-2.033L133 65h3v8z" fill="#A0616A"/>
  <path d="M132.318 72H136v3h-6c0-.394.06-.784.176-1.148.117-.364.288-.695.503-.973.215-.279.471-.5.752-.65a1.87 1.87 0 01.887-.229zM136 45l-.149 11.235L135.703 71l-3.271-.321-1.635-20.383-2.081 20.383h-3.376L125 50.136l1.189-4.494L136 45z" fill="#2F2E41"/>
  <path d="M125.552 46.175l-.552-.024 2.563-14.199-1.049-4.292a.94.94 0 01.579-1.103l1.888-.712.667-1.845 5.263.57.13 1.442c.57.184 5.267 1.757 4.943 3.55-.32 1.768-2.208 7.334-2.304 7.616l-.331 7.982-.041.02c-.049.025-3.677 1.819-7.618 1.819a9.973 9.973 0 01-4.138-.824z" fill="#534977"/>
  <path d="M132.5 23a3.5 3.5 0 100-7 3.5 3.5 0 000 7z" fill="#A0616A"/>
  <path d="M135.365 23.605c-.639.766-1.825.355-1.908-.691a1.42 1.42 0 01.002-.244c.043-.463.28-.884.223-1.373a.762.762 0 00-.117-.337c-.508-.767-1.703.343-2.183-.351-.295-.426.051-1.096-.174-1.572-.299-.628-1.182-.318-1.736-.662-.616-.383-.58-1.447-.174-2.095.495-.79 1.363-1.21 2.219-1.271.857-.06 1.708.2 2.508.55.909.4 1.81.95 2.369 1.85.68 1.093.746 2.564.405 3.843-.207.778-.913 1.728-1.434 2.353z" fill="#2F2E41"/>
  <path d="M95.45 71l.55-1.008L90.81 68 90 69.488 95.45 71z" fill="#FFB8B8"/>
  <path d="M97.936 68.11a2.699 2.699 0 00-1.617.027 2.212 2.212 0 00-.675.362 1.636 1.636 0 00-.443.532l-.411.809-.635 1.249-.155.306 2.033.605L98 68.13l-.064-.02zM95 69.06l-.242.534-.603 1.33-.014.033c-1.537.164-3.22-.158-4.779-.658-.623-.2-1.233-.426-1.829-.678-.88-.37-1.67-.761-2.299-1.095a23.18 23.18 0 01-1.533-.885s-.155.116-.435.315c-.375.267-.975.684-1.735 1.175-.29.189-.601.386-.934.592C78.146 71.235 75 67.2 75 67.2s.885-.469 1.116-.56a406.09 406.09 0 004.001-1.597c.777-.317 1.49-.614 1.968-.825 1.695-.75 3.8.669 3.8.669L95 69.06z" fill="#2F2E41"/>
  <path opacity=".14" d="M95 69.06l-.242.534-.603 1.33-.014.033c-1.537.164-3.22-.158-4.779-.658-.623-.2-1.233-.426-1.829-.678-.88-.37-1.67-.761-2.299-1.095a23.18 23.18 0 01-1.533-.885s-.155.116-.435.315c-.375.267-.975.684-1.735 1.175-.29.189-.601.386-.934.592C78.146 71.235 75 67.2 75 67.2s.885-.469 1.116-.56a406.09 406.09 0 004.001-1.597c.777-.317 1.49-.614 1.968-.825 1.695-.75 3.8.669 3.8.669L95 69.06z" fill="#79818F"/>
  <path d="M70.395 56h-7.79a.623.623 0 01-.428-.168.556.556 0 01-.177-.403v-3.175a4.14 4.14 0 011.318-3.008A4.635 4.635 0 0166.5 48c1.194 0 2.338.448 3.182 1.246A4.14 4.14 0 0171 52.254v3.175a.557.557 0 01-.177.403.623.623 0 01-.427.168z" fill="#2F2E41"/>
  <path d="M76.695 60.016a1.188 1.188 0 00-.44.16c-.133.08-.243.186-.323.308a.856.856 0 00-.08.814L74 62.792 74.76 64l2.581-2.142c.248-.096.447-.268.56-.484a.862.862 0 00.05-.689 1.001 1.001 0 00-.483-.544 1.238 1.238 0 00-.773-.125z" fill="#FFB8B8"/>
  <path d="M70.967 68a2.878 2.878 0 01-1.7-.565 3.269 3.269 0 01-1.017-1.251l-3.06-6.471a2.022 2.022 0 01-.123-1.376c.122-.458.4-.848.776-1.087a1.56 1.56 0 011.245-.198c.423.113.79.4 1.024.803l2.823 6.96 3.841-3.43 2.224.951-3.756 4.557c-.289.348-.64.626-1.032.817-.392.19-.816.29-1.245.29z" fill="#DD6F6F"/>
  <path d="M94.447 74L95 72.798 90.817 70 90 71.774 94.447 74z" fill="#FFB8B8"/>
  <path d="M97.943 71.162a2.3 2.3 0 00-1.496-.07 2.062 2.062 0 00-.659.328 1.706 1.706 0 00-.458.514l-.456.797-.702 1.231-.172.302 1.822.736L98 71.186l-.057-.024zM94 71.15l-.278.636-.695 1.585-.017.04c-1.485.08-3.068-.447-4.514-1.183a18.289 18.289 0 01-1.69-.977 25.537 25.537 0 01-3.492-2.733s-.158.13-.444.354a45.89 45.89 0 01-1.764 1.306c-.294.208-.61.426-.946.653-2.48 1.663-6.006 3.688-9.005 4.116-5.268.752-4.028-6.748-4.028-6.748l4.192-2.322 1.78.385 1.982.428.702.152.362-.147c.739-.3 2.473-1.011 3.97-1.647.773-.327 1.48-.636 1.957-.858 1.688-.787 3.577 1.12 3.577 1.12L94 71.15z" fill="#2F2E41"/>
  <path d="M58.4 74.968c.161-.038.313-.113.443-.22.13-.105.237-.24.313-.394a1.218 1.218 0 00.033-.997L61 71.432 60.146 70l-2.522 2.756a1.17 1.17 0 00-.544.622c-.103.27-.106.57-.01.843.095.273.283.5.528.637.246.138.53.177.802.11zM67.5 56c1.38 0 2.5-1.343 2.5-3s-1.12-3-2.5-3-2.5 1.343-2.5 3 1.12 3 2.5 3z" fill="#FFB8B8"/>
  <path d="M64 60.725l2.534 7.493-.015.027c-.353.607-.468 1.097-.333 1.417a.617.617 0 00.152.212.585.585 0 00.223.126l5.996-4.372-.21-1.752.012-.02c.58-.967.767-1.843.558-2.603a2.49 2.49 0 00-1.144-1.439l-.02-.017L68.761 56l-3.998.74L64 60.726z" fill="#DD6F6F"/>
  <path d="M59.758 73L58 70.96l4.237-6.598 1.976-5.76.061.018-.061-.018c.108-.315.286-.604.522-.848.237-.245.526-.438.849-.568a2.584 2.584 0 012.031.045c.316.144.595.35.82.605.223.254.387.551.479.87.092.32.11.653.054.98a2.239 2.239 0 01-.38.913l-3.628 5.125L59.758 73z" fill="#DD6F6F"/>
  <path d="M72 52h-4.28l-.044-.566-.22.566h-.659l-.087-1.121L66.275 52H65v-.056a2.83 2.83 0 01.938-2.08 3.347 3.347 0 012.26-.864h.604c.848 0 1.66.311 2.26.863.6.552.937 1.3.938 2.081V52z" fill="#2F2E41"/>
  <path d="M67.424 56a.589.589 0 01-.101-.009L64 55.413V50h3.657l-.09.104c-1.26 1.449-.31 3.797.367 5.068a.553.553 0 01-.045.594.572.572 0 01-.465.234z" fill="#2F2E41"/>
  <path d="M115 47v7.355H82.45L77.75 60l.537-5.645H76V47h39z" fill="#F0F0F0"/>
  <path d="M89.5 52a1.5 1.5 0 100-3 1.5 1.5 0 000 3zM85 52c.552 0 1-.672 1-1.5s-.448-1.5-1-1.5-1 .672-1 1.5.448 1.5 1 1.5zm-4.5 0a1.5 1.5 0 100-3 1.5 1.5 0 000 3z" fill="#fff"/>
  <path d="M154.83 75H.17c-.045 0-.088-.053-.12-.147A1.15 1.15 0 010 74.5c0-.133.018-.26.05-.353.032-.094.075-.147.12-.147h154.66c.045 0 .088.053.12.147.032.093.05.22.05.353 0 .133-.018.26-.05.353-.032.094-.075.147-.12.147z" fill="#CACACA"/>
</svg>
