<svg xmlns="http://www.w3.org/2000/svg" fill="none" viewBox="0 0 153 105">
  <path d="M34.751 2.71a1.355 1.355 0 100-2.71 1.355 1.355 0 000 2.71zm6.858 0a1.355 1.355 0 100-2.71 1.355 1.355 0 000 2.71zm6.859 0a1.355 1.355 0 100-2.71 1.355 1.355 0 000 2.71zm6.858 0a1.355 1.355 0 100-2.71 1.355 1.355 0 000 2.71zm6.859 0a1.355 1.355 0 100-2.71 1.355 1.355 0 000 2.71zM34.751 9.654a1.355 1.355 0 100-2.71 1.355 1.355 0 000 2.71zm6.858 0a1.355 1.355 0 100-2.71 1.355 1.355 0 000 2.71zm6.859 0a1.355 1.355 0 100-2.71 1.355 1.355 0 000 2.71z" fill="#E6E6E6"/>
  <path d="M55.326 9.654a1.355 1.355 0 100-2.71 1.355 1.355 0 000 2.71z" fill="#2E8C8D"/>
  <path d="M62.185 9.654a1.355 1.355 0 100-2.71 1.355 1.355 0 000 2.71zm13.715 0a1.355 1.355 0 100-2.71 1.355 1.355 0 000 2.71zm-41.149 6.944a1.355 1.355 0 100-2.71 1.355 1.355 0 000 2.71zm6.858 0a1.355 1.355 0 100-2.71 1.355 1.355 0 000 2.71zm6.859 0a1.355 1.355 0 100-2.71 1.355 1.355 0 000 2.71zm6.858 0a1.355 1.355 0 100-2.71 1.355 1.355 0 000 2.71zm6.859 0a1.355 1.355 0 100-2.71 1.355 1.355 0 000 2.71zm-27.434 6.945a1.355 1.355 0 100-2.71 1.355 1.355 0 000 2.71zm6.858 0a1.355 1.355 0 100-2.71 1.355 1.355 0 000 2.71zm6.859 0a1.355 1.355 0 100-2.71 1.355 1.355 0 000 2.71zm6.858 0a1.355 1.355 0 100-2.71 1.355 1.355 0 000 2.71zm6.859 0a1.355 1.355 0 100-2.71 1.355 1.355 0 000 2.71zm6.857 0a1.355 1.355 0 100-2.71 1.355 1.355 0 000 2.71zm6.858 0a1.355 1.355 0 100-2.71 1.355 1.355 0 000 2.71zm6.86 0a1.355 1.355 0 100-2.71 1.355 1.355 0 000 2.71zm6.857 0a1.355 1.355 0 100-2.71 1.355 1.355 0 000 2.71zm6.859 0a1.355 1.355 0 100-2.71 1.355 1.355 0 000 2.71zm-34.291 6.944a1.355 1.355 0 100-2.71 1.355 1.355 0 000 2.71z" fill="#E6E6E6"/>
  <path d="M69.042 30.487a1.355 1.355 0 100-2.71 1.355 1.355 0 000 2.71z" fill="#2E8C8D"/>
  <path d="M75.9 30.487a1.355 1.355 0 100-2.71 1.355 1.355 0 000 2.71zm6.86 0a1.355 1.355 0 100-2.71 1.355 1.355 0 000 2.71zm6.857 0a1.355 1.355 0 100-2.71 1.355 1.355 0 000 2.71zm6.859 0a1.355 1.355 0 100-2.71 1.355 1.355 0 000 2.71zm-34.291 6.944a1.355 1.355 0 100-2.71 1.355 1.355 0 000 2.71zm6.857 0a1.355 1.355 0 100-2.71 1.355 1.355 0 000 2.71zm6.858 0a1.355 1.355 0 100-2.71 1.355 1.355 0 000 2.71zm6.86 0a1.355 1.355 0 100-2.71 1.355 1.355 0 000 2.71z" fill="#E6E6E6"/>
  <path d="M89.617 37.431a1.355 1.355 0 100-2.71 1.355 1.355 0 000 2.71z" fill="#2E8C8D"/>
  <path d="M96.476 37.431a1.355 1.355 0 100-2.71 1.355 1.355 0 000 2.71zm-34.291 6.945a1.355 1.355 0 100-2.71 1.355 1.355 0 000 2.71zm6.857 0a1.355 1.355 0 100-2.71 1.355 1.355 0 000 2.71zm6.858 0a1.355 1.355 0 100-2.71 1.355 1.355 0 000 2.71zm6.86 0a1.355 1.355 0 100-2.71 1.355 1.355 0 000 2.71zm6.857 0a1.355 1.355 0 100-2.71 1.355 1.355 0 000 2.71zm6.859 0a1.355 1.355 0 100-2.71 1.355 1.355 0 000 2.71zM34.751 51.32a1.355 1.355 0 100-2.71 1.355 1.355 0 000 2.71zm6.858 0a1.355 1.355 0 100-2.71 1.355 1.355 0 000 2.71zm6.859 0a1.355 1.355 0 100-2.71 1.355 1.355 0 000 2.71zm6.858 0a1.355 1.355 0 100-2.71 1.355 1.355 0 000 2.71zm6.859 0a1.355 1.355 0 100-2.71 1.355 1.355 0 000 2.71zm6.857 0a1.355 1.355 0 100-2.71 1.355 1.355 0 000 2.71zm6.858 0a1.355 1.355 0 100-2.71 1.355 1.355 0 000 2.71zm6.86 0a1.355 1.355 0 100-2.71 1.355 1.355 0 000 2.71zm6.857 0a1.355 1.355 0 100-2.71 1.355 1.355 0 000 2.71zm6.859 0a1.355 1.355 0 100-2.71 1.355 1.355 0 000 2.71zM34.75 58.264a1.355 1.355 0 100-2.71 1.355 1.355 0 000 2.71zm6.859 0a1.355 1.355 0 100-2.71 1.355 1.355 0 000 2.71zm-6.859 6.945a1.355 1.355 0 100-2.71 1.355 1.355 0 000 2.71zm6.859 0a1.355 1.355 0 100-2.71 1.355 1.355 0 000 2.71zm13.717 0a1.355 1.355 0 100-2.71 1.355 1.355 0 000 2.71zm68.361-49.224h-53.69a.995.995 0 01-.995-.995V1.672a.995.995 0 01.994-.994h53.691a.994.994 0 01.994.994V14.99a.992.992 0 01-.994.995zm-53.69-14.91a.597.597 0 00-.597.597V14.99a.597.597 0 00.596.597h53.691a.595.595 0 00.596-.597V1.672a.596.596 0 00-.596-.597h-53.69z" fill="#E6E6E6"/>
  <path d="M76.957 12.507a4.176 4.176 0 100-8.352 4.176 4.176 0 000 8.352z" fill="#2E8C8D"/>
  <path d="M86.6 5.547a.696.696 0 100 1.392h18.494a.698.698 0 00.492-1.188.698.698 0 00-.492-.204H86.6zm0 4.176a.696.696 0 100 1.392h32.811a.694.694 0 00.696-.696.694.694 0 00-.696-.696h-32.81zM54.685 43.029H.995A.995.995 0 010 42.034V28.716a.995.995 0 01.994-.994h53.69a.996.996 0 01.995.994v13.318a.995.995 0 01-.994.995zM.995 28.119a.597.597 0 00-.597.597v13.318a.597.597 0 00.596.597h53.69a.598.598 0 00.597-.597V28.716a.597.597 0 00-.596-.597H.995z" fill="#E6E6E6"/>
  <path d="M7.953 39.551a4.176 4.176 0 100-8.352 4.176 4.176 0 000 8.352z" fill="#2E8C8D"/>
  <path d="M17.598 32.59a.696.696 0 000 1.393h19.29a.696.696 0 100-1.392h-19.29zm0 4.178a.696.696 0 100 1.392H50.41a.696.696 0 000-1.392H17.6z" fill="#E6E6E6"/>
  <path d="M103.204 72.26h-53.69a.995.995 0 01-.995-.994V57.947a.995.995 0 01.995-.994h53.69a.995.995 0 01.995.994v13.319a1 1 0 01-.995.994zm-53.69-14.91a.597.597 0 00-.597.597v13.319a.597.597 0 00.597.596h53.69a.599.599 0 00.597-.596V57.947a.596.596 0 00-.597-.596h-53.69z" fill="#3F3D56"/>
  <path d="M56.475 68.782a4.176 4.176 0 100-8.351 4.176 4.176 0 000 8.352z" fill="#2E8C8D"/>
  <path d="M66.118 61.823a.696.696 0 000 1.392h17.698a.696.696 0 100-1.392H66.118zm0 4.176a.696.696 0 000 1.392h32.81a.696.696 0 000-1.392h-32.81zm65.969 2.884c-2.331 6.995-11.87-.424-11.87-.424l2.543-26.497c3.816-2.968 7.843-.424 7.843-.424l1.484 27.345z" fill="#E6E6E6"/>
  <path d="M131.588 92.36l3.25.034-.812 9.369h-2.438v-9.404z" fill="#FFB8B8"/>
  <path d="M130.967 100.966h4.801a3.063 3.063 0 013.06 3.06v.099h-7.861v-3.159z" fill="#2F2E41"/>
  <path d="M122.776 92.359h-3.598l1.159 9.403h2.438l.001-9.403z" fill="#FFB8B8"/>
  <path d="M115.537 104.125v-.1a3.063 3.063 0 013.06-3.059h4.801v3.159h-7.861zm15.831-3.985l-4.258-24.822-3.946 24.502-3.997.222-1.065-32.828.08-.018c.661-.148 16.214-3.564 18.763 1.323l.013.024-2.128 31.708-3.462-.111z" fill="#2F2E41"/>
  <path d="M126.855 38.857a4.884 4.884 0 100-9.769 4.884 4.884 0 000 9.769z" fill="#FFB8B8"/>
  <path d="M130.959 70.975c-.572-.158-.985-.816-1.298-2.069-.054-.216-5.125-21.816-.837-25.73l.989-2.745 1.353.902c.478.004 5.373.128 5.791 3.265.409 3.071 1.524 23.647.404 24.926a.242.242 0 01-.185.094c-1.135 0-1.48-1.26-1.561-1.662-.27.112-1.074.523-2.396 1.844-.818.82-1.46 1.212-1.991 1.212a1 1 0 01-.269-.037z" fill="#2F2E41"/>
  <path d="M120.359 69.8c-1.322-1.322-2.126-1.732-2.396-1.844-.081.402-.425 1.662-1.561 1.662a.242.242 0 01-.184-.093c-1.121-1.28-.006-21.856.404-24.927.418-3.137 5.312-3.261 5.791-3.265l1.353-.902.988 2.745c4.288 3.914-.782 25.514-.836 25.73-.314 1.253-.726 1.911-1.299 2.07a.994.994 0 01-.269.035c-.53 0-1.172-.392-1.991-1.21zm10.528-33.037a5.014 5.014 0 00.319-7.888 5.015 5.015 0 00-2.746-1.168c-.45-.045-.934-.038-1.307-.294-.331-.227-.509-.62-.814-.882a1.773 1.773 0 00-1.377-.347 4.996 4.996 0 00-1.385.455c-1.083.483-2.234 1.077-2.727 2.156-.427.934-.238 2.086.366 2.916a4.06 4.06 0 002.589 1.529 6.468 6.468 0 003.039-.274c.645-.203 1.281-.48 1.956-.502a2.663 2.663 0 012.514 1.567 2.663 2.663 0 01-.496 2.92" fill="#2F2E41"/>
  <path d="M104.268 65.817a2.146 2.146 0 002.097-2.197l2.849-4.806-2.201-2.017-3 4.735a2.149 2.149 0 00.255 4.285zm33.043 5.265a2.146 2.146 0 00.626-2.973l-.109-5.585-2.933-.556-.057 5.605a2.148 2.148 0 002.473 3.509z" fill="#FFB8B8"/>
  <path d="M105.133 58.09l-.033-.053.033-.053c4.272-6.86 13.239-15.43 13.329-15.515l.028-.027 1.108-.011 1.197 2.983c-.372.716-10.419 14.736-11.745 15.666a.92.92 0 01-.733.138 1.93 1.93 0 01-.621-.264c-1.225-.758-2.501-2.765-2.563-2.864zm29.203 7.828a.911.911 0 01-.538-.494c-.64-1.492 2.102-20.343 2.219-21.144l.022-.152.926.587.009.04c.028.12 2.727 12.13 1.996 20.11l-.006.056-.052.025c-.111.051-2.36 1.084-3.858 1.084a2.03 2.03 0 01-.718-.112z" fill="#2F2E41"/>
  <path d="M152.801 104.274H99.906a.197.197 0 01-.14-.059.197.197 0 01-.059-.14.2.2 0 01.199-.199H152.8a.198.198 0 110 .398z" fill="#3F3D56"/>
</svg>
