<svg xmlns="http://www.w3.org/2000/svg" fill="none" viewBox="0 0 173 102">
  <path d="M53.978 60.198V5.57c0-2.876 2.346-5.216 5.23-5.216h108.564c2.883 0 5.228 2.34 5.228 5.216v54.628c0 2.877-2.345 5.217-5.228 5.217H59.207c-2.883 0-5.229-2.34-5.229-5.217zM172.47 5.57a4.693 4.693 0 00-4.698-4.688H59.207A4.693 4.693 0 0054.51 5.57v54.628a4.693 4.693 0 004.698 4.688h73.844c21.771 0 39.419-17.608 39.419-39.33V5.57z" fill="#251A3F"/>
  <path d="M92.226 10.29H31.38a3.27 3.27 0 00-3.272 3.264v22.3a3.27 3.27 0 003.272 3.264h60.845a3.27 3.27 0 003.271-3.264v-22.3a3.27 3.27 0 00-3.271-3.264z" fill="#fff"/>
  <path d="M92.226 10.29H31.38a3.27 3.27 0 00-3.272 3.264v22.3a3.27 3.27 0 003.272 3.264h60.845a3.27 3.27 0 003.271-3.264v-22.3a3.27 3.27 0 00-3.271-3.264zm2.927 25.564a2.926 2.926 0 01-2.927 2.92H31.38a2.926 2.926 0 01-2.928-2.92v-22.3a2.926 2.926 0 012.928-2.92h60.845a2.926 2.926 0 012.927 2.92v22.3z" fill="#3F3D56"/>
  <path d="M34.23 20.454h54.077a.927.927 0 110 1.851H34.23a.927.927 0 110-1.85zm0 6.083h19.617a.927.927 0 110 1.852H34.23a.927.927 0 110-1.852z" fill="#2E8C8D"/>
  <path d="M152.31 17.626h-37.111a1.06 1.06 0 01-1.06-1.058 1.06 1.06 0 011.06-1.058h37.111a1.06 1.06 0 011.061 1.058 1.06 1.06 0 01-1.061 1.058zM159 39.859h-51V40c16.792-1.39 33.809-1.276 51 0v-.141zm-6.69-8.745h-37.111a1.06 1.06 0 01-1.06-1.058 1.06 1.06 0 011.06-1.058h37.111a1.06 1.06 0 011.061 1.058 1.06 1.06 0 01-1.061 1.058zm7.301 12.893h-51.713v.264h51.713v-.264zm-7.301-19.85h-37.111a1.06 1.06 0 01-1.06-1.058 1.06 1.06 0 011.06-1.058h37.111a1.06 1.06 0 011.061 1.058 1.06 1.06 0 01-1.061 1.058zm7.301 23.553c-17.85-1.212-35.185-1.404-51.713 0v-.265h51.713v.265z" fill="#251A3F"/>
  <path d="M88.242 43.406l-2.181-1.032c.894 1.246 1.665 3.192 2.078 4.74.7-1.442 1.826-3.206 2.94-4.26l-2.305.591c1.421-6.947 6.765-11.935 12.884-11.935v-.529c-6.392 0-11.965 5.197-13.416 12.425z" fill="#3F3D56"/>
  <path d="M98.284 53.99H84.5a1.06 1.06 0 01-1.06-1.057 1.06 1.06 0 011.06-1.058h13.784c.585 0 1.06.475 1.06 1.058a1.06 1.06 0 01-1.06 1.058zM62.99 31.033a3.707 3.707 0 003.712-3.702 3.707 3.707 0 00-3.712-3.703 3.707 3.707 0 00-3.71 3.703 3.707 3.707 0 003.71 3.702z" fill="#2E8C8D"/>
  <path d="M64.92 25.163c-.177-.103-.447-.05-.544.142l-1.323 2.616a5.74 5.74 0 00-1.34-1.449c-.17-.131-.445-.026-.543.142-.12.205-.028.412.142.543a4.777 4.777 0 011.41 1.817c.122.267.56.25.688 0 .55-1.09 1.102-2.179 1.653-3.268.097-.191.05-.43-.143-.543z" fill="#fff"/>
  <path d="M107.526 20.19a3.707 3.707 0 003.711-3.703 3.707 3.707 0 00-3.711-3.703 3.707 3.707 0 00-3.712 3.703 3.707 3.707 0 003.712 3.703z" fill="#2E8C8D"/>
  <path d="M109.455 14.318c-.176-.103-.446-.05-.544.143l-1.323 2.615a5.743 5.743 0 00-1.339-1.449c-.17-.13-.446-.026-.544.143-.12.205-.028.411.143.543a4.786 4.786 0 011.41 1.816c.122.268.56.25.687 0l1.653-3.268c.097-.191.051-.43-.143-.543z" fill="#fff"/>
  <path d="M160.807 26.273a3.707 3.707 0 003.711-3.703 3.707 3.707 0 00-3.711-3.703 3.707 3.707 0 00-3.711 3.703 3.707 3.707 0 003.711 3.703z" fill="#2E8C8D"/>
  <path d="M162.737 20.402c-.177-.103-.447-.05-.544.143l-1.324 2.615a5.745 5.745 0 00-1.339-1.449c-.17-.13-.445-.025-.544.143-.12.205-.028.411.143.542a4.778 4.778 0 011.41 1.817c.122.268.56.25.687 0l1.653-3.268c.097-.191.051-.43-.142-.543z" fill="#fff"/>
  <path d="M77.628 45.733h-8.94c-.554 0-1.006-.45-1.006-1.004-1.181-3.447-1.158-6.824 0-10.136 0-.554.452-1.004 1.007-1.004h8.939c.555 0 1.006.45 1.006 1.004V44.73c0 .553-.451 1.004-1.006 1.004z" fill="#251A3F"/>
  <path d="M70.604 33.888a2.619 2.619 0 00-2.622 2.616v8.01c0 .507.413.92.923.92h4.943a4.482 4.482 0 004.487-4.477v-6.15a.921.921 0 00-.923-.92h-6.808z" fill="#fff"/>
  <path d="M75.24 36.834h-4.185a.191.191 0 010-.382h4.185a.191.191 0 110 .382zm0 4.071h-4.185a.191.191 0 110-.382h4.185a.191.191 0 110 .382zm2.245-2.034h-8.677a.191.191 0 010-.382h8.677a.191.191 0 110 .382zm.105 3.689h-3.621a.191.191 0 110-.382h3.62a.191.191 0 010 .382z" fill="#251A3F"/>
  <path d="M16.043 18.003c.235-1.083.304-.285.817-1.268-.352 1.27.297.854 1.158 1.85 6.056.947 6.437-1.122 8.678-1.059h.012c.493-.008.746-.597.449-.99-.734-.969-1.543-2.465-.778-3.406 1.357-1.669.162-5.09-.423-4.35 0-2.853-3.522-4.724-4.888-4.26-2.524.856-4.861 2.011-5.144 4.596-.044.404-.102.805-.174 1.204-.148.812-.756 1.027-.546 1.824l.654.664c.307 1.17.21 2.396-.21 3.53-.233.627-.266 1.164.395 1.665z" fill="#2F2E41"/>
  <path d="M22.346 14.175a3.791 3.791 0 003.796-3.787c0-2.091-1.7-3.786-3.796-3.786a3.791 3.791 0 00-3.795 3.787c0 2.091 1.7 3.786 3.795 3.786zm-5.912 82.543l1.954.046 1.09-8.761-2.885-.068-.16 8.783z" fill="#A0616A"/>
  <path d="M23.14 100.787c0 .33-.234.597-.523.597h-3.88s-.382-1.531-1.939-2.19l-.107 2.19H14.69l.242-3.522s-.536-1.884.576-2.847c1.112-.963.212-.83.212-.83l.437-2.18 3.025.356.022 3.421 1.468 3.397 2.152 1.061a.603.603 0 01.316.547z" fill="#2F2E41"/>
  <path d="M18.584 88.77l1.553 1.185 6.052-6.44-2.291-1.75-5.314 7.005z" fill="#A0616A"/>
  <path d="M21.602 95.998c-.195.266-.542.344-.775.174l-3.136-2.28s.595-1.461-.274-2.908l-1.38 1.707-1.617-1.176 2.275-2.704s.68-1.838 2.146-1.963c1.467-.125.66-.546.66-.546l1.64-1.504 2.236 2.064-2.002 2.778-.819 3.608 1.114 2.122a.604.604 0 01-.068.628z" fill="#2F2E41"/>
  <path d="M12.99 51.919c.117.482-.1 2.726.021 3.498.309 1.963 3.129 12.665 2.642 15.716-1.782 11.178.683 18.35.683 18.35h3.976l2.12-33.854 2.07 2.722 4.05 12.069-7.164 12.85 3.741 3.083 11.169-17.718-7.937-29.638-.48-1.79-10.723-.298.597.892-1.357 1.338s-.002.004-.01.011c-.208.291-4.855 6.814-3.399 12.769z" fill="#2F2E41"/>
  <path d="M16.389 39.15c1.242.443 9.634-.014 11.972-.153l-.48-1.79-10.723-.298.597.892-1.357 1.338s-.002.004-.01.011z" fill="#A0616A"/>
  <path d="M30.27 24.819l-.386 2.045-.094.49-2.054 4.207.27 6.168c.173.722-7.122-.916-10.912.776l-2.95-14.075 2.992-6.488 2.34-1.297.39-1.557h4.96c.263 1.234-.023 1.842-.536 2.192l1.242 3.305 4.738 4.234z" fill="#2E8C8D"/>
  <path d="M34.147 12.758a3.045 3.045 0 01-.481 1.357l-.266 5.082L30.98 19l.53-5.134a3.042 3.042 0 01-.158-1.43c.14-1.21.88-2.119 1.651-2.03.772.09 1.284 1.142 1.144 2.352z" fill="#A0616A"/>
  <path d="M24.503 18.099l.315.768s-4.612-.46-4.514 1.942c.084 2.05 8.766 10.175 9.181 10.365a2.053 2.053 0 002.88-1.525c1.954-5.032 2.36-9.569 1.466-13.691h-2.65l-.864 3.252-.049 2.473-1.397 2.975-4.583-5.79.215-.77z" fill="#2E8C8D"/>
  <path d="M9.136 46.343c.17-.518.21-1.032.136-1.466l1.936-4.834-2.332-.852-1.713 4.995c-.317.307-.59.744-.761 1.262-.39 1.183-.093 2.343.662 2.59.755.248 1.682-.511 2.072-1.695z" fill="#A0616A"/>
  <path d="M20.303 18.101s-2.863-1.083-4.489.24c-.67.546-3.635 4.308-4.092 9.372-.035.397-.306.739-.46 1.11-.94 2.29-2.562 3.344-3.251 5.302-.27.765.225 2.744.055 3.404-.892 3.456-.57 5.427-.57 5.427l2.406.8 1.306-.921 2.144-7.812L20.303 18.1z" fill="#2E8C8D"/>
  <path d="M41.84 12.144h-8.938c-.555 0-1.007-.45-1.007-1.004-1.182-3.447-1.158-6.824 0-10.136C31.895.45 32.347 0 32.902 0h8.939c.555 0 1.006.45 1.006 1.004V11.14c0 .553-.451 1.004-1.006 1.004z" fill="#251A3F"/>
  <path d="M34.817.299a2.619 2.619 0 00-2.622 2.616v8.01c0 .507.413.92.922.92h4.944a4.482 4.482 0 004.486-4.477v-6.15a.921.921 0 00-.922-.92h-6.808z" fill="#fff"/>
  <path d="M39.453 3.245h-4.186a.191.191 0 010-.382h4.186a.191.191 0 110 .382zm0 4.071h-4.186a.191.191 0 010-.381h4.186a.191.191 0 110 .381zm2.245-2.034h-8.677a.191.191 0 010-.382h8.677a.191.191 0 110 .382zm.104 3.688h-3.62a.191.191 0 110-.382h3.62a.191.191 0 110 .383z" fill="#251A3F"/>
  <path d="M44.414 97.02c.548.035.85-.644.436-1.04l-.04-.163.016-.04c.553-1.317 2.43-1.308 2.98.012.487 1.171 1.107 2.344 1.26 3.582a4.755 4.755 0 01-.084 1.64 19.078 19.078 0 001.743-7.94 18.394 18.394 0 00-.378-3.727 19.32 19.32 0 00-3.844-8.196 5.152 5.152 0 01-2.145-2.22A3.921 3.921 0 0144 77.854c.104.013.394-1.574.315-1.671.146-.22.406-.33.565-.545.79-1.07 1.88-.883 2.448.57 1.215.612 1.227 1.627.481 2.602-.474.62-.539 1.46-.955 2.125l.13.162a19.461 19.461 0 012.036 3.219c-.161-1.26.077-2.78.484-3.758.464-1.116 1.333-2.055 2.097-3.02.92-1.157 2.803-.652 2.965.816l.005.043a5.581 5.581 0 00-.334.203c-.62.41-.406 1.369.329 1.482l.017.002a8.086 8.086 0 01-.214 1.212c.98 3.786-1.138 5.165-4.163 5.227-.066.034-.131.068-.198.1.306.862.551 1.745.733 2.64a18.808 18.808 0 01.325 5.436l.005-.037a4.976 4.976 0 011.704-2.874c1.31-1.075 3.163-1.47 4.577-2.334.681-.416 1.553.121 1.435.909l-.006.037a5.488 5.488 0 00-.948.5c-.62.409-.406 1.368.328 1.481l.017.003.034.005a8.105 8.105 0 01-1.494 2.335c-.614 3.305-3.25 3.619-6.068 2.656h-.002a19.83 19.83 0 01-1.337 3.895h-4.777c-.017-.053-.032-.108-.048-.161a5.42 5.42 0 001.322-.078l-1.063-1.305-.023-.026-.54-.664a7.917 7.917 0 01.232-2.021z" fill="#F2F2F2"/>
  <path d="M0 101.685c0 .175.14.315.315.315H58.18a.314.314 0 100-.629H.315a.314.314 0 00-.315.314z" fill="#CCC"/>
  <path d="M23.374 5.908h-.772c-2.26.002-6.125 3.192-4.63 5.43-1.277 3.398-1.323 5.166-.781 6.09.2.341.596.497.99.469.053-.004.106-.005.159-.003.382.013.895 1.805 1.25 1.943l.944-.287 1.55-1.544-.787-2.355-1.52-1.187.207-2.749c-1.018-2.333.09-2.448.712-3.2l.063 2.415.893-.86c.727.02 1.576.334 2.141-.32 1.026-1.198 2.09.248 3.3.54l.377-.297a5.717 5.717 0 00-.281-1.905c-.091-.274-.325-.5-.334-.773-.037-1.022-1.974-2.013-3.48-1.407z" fill="#2F2E41"/>
</svg>
