<svg xmlns="http://www.w3.org/2000/svg" fill="none" viewBox="0 0 406 233">
  <path d="M282.118 155.202a18.482 18.482 0 00-23.098-4.37l-36.778-42.613a18.561 18.561 0 001.669-9.267 18.533 18.533 0 00-3.093-8.886 18.469 18.469 0 00-7.056-6.21 18.433 18.433 0 00-9.193-1.93 18.465 18.465 0 00-8.956 2.853 18.528 18.528 0 00-6.402 6.895 18.558 18.558 0 00-2.194 9.156 18.53 18.53 0 002.582 9.05l-32.603 25.413a18.175 18.175 0 00-12.381-6.26 18.453 18.453 0 00-10.52 2.214 18.522 18.522 0 00-7.516 7.706 18.569 18.569 0 00-1.968 10.591 18.52 18.52 0 004.245 9.891 18.262 18.262 0 0010.55 6.228l1.887.357a18.482 18.482 0 007.19-.774 18.541 18.541 0 0010.886-9.117 18.592 18.592 0 002.038-6.954 17.978 17.978 0 00-.919-7.54l33.909-26.537a18.637 18.637 0 007.575 3.353c2.691.518 5.464.428 8.117-.263a18.445 18.445 0 007.221-3.732 2.36 2.36 0 00.335-.328l35.818 41.491a18.589 18.589 0 00-3.438 16.292 18.521 18.521 0 0010.98 12.485 18.493 18.493 0 0016.559-1.374 18.59 18.59 0 008.805-14.125 18.434 18.434 0 00-4.251-13.695zm-131.861.837a11.142 11.142 0 01-8.307 2.582 11.234 11.234 0 01-8.924-5.775 11.295 11.295 0 01-.144-10.649 11.29 11.29 0 013.629-4.116 11.242 11.242 0 0110.563-1.171 11.247 11.247 0 014.433 3.222c.372.458.711.941 1.016 1.446.11.441.312.853.593 1.21a10.952 10.952 0 01.982 5.553 11.152 11.152 0 01-3.841 7.698zm62.478-46.954a11.192 11.192 0 01-14.222.13 11.234 11.234 0 01-3.942-6.452 11.275 11.275 0 011.036-7.498 11.24 11.24 0 015.545-5.144 11.194 11.194 0 0113.654 3.977 11.25 11.25 0 011.921 7.318 11.218 11.218 0 01-3.963 7.517l-.029.152zm62.484 66.675a11.248 11.248 0 01-12.432 1.399 11.255 11.255 0 01-4.68-4.569 11.302 11.302 0 011.072-12.491 11.268 11.268 0 015.39-3.709 11.231 11.231 0 0112.013 3.485 11.3 11.3 0 01-1.363 15.885z" fill="#2E8C8D"/>
  <path d="M56.483 189.392a18.485 18.485 0 0015.324-17.826l55.288-10.57a18.559 18.559 0 0016.437 7.835 18.44 18.44 0 0015.168-10.01 18.46 18.46 0 002.004-9.183 18.516 18.516 0 00-2.775-8.99 18.56 18.56 0 00-6.835-6.475 18.53 18.53 0 00-9.129-2.285l-5.728-40.939c4.725-.9 8.897-3.63 11.609-7.597a18.458 18.458 0 003.338-10.22 18.526 18.526 0 00-2.921-10.36 18.561 18.561 0 00-8.191-6.996 18.522 18.522 0 00-10.69-1.264 18.261 18.261 0 00-10.665 6.027l-1.252 1.457a18.507 18.507 0 00-3.084 13.849 18.585 18.585 0 007.627 11.99 17.977 17.977 0 006.991 2.97l6.048 42.633a18.638 18.638 0 00-6.689 4.887 18.4 18.4 0 00-3.827 7.163 18.448 18.448 0 00-.375 8.119c.024.155.063.307.117.455L70.437 164.36a18.59 18.59 0 00-20.939-11.41 18.487 18.487 0 00-13.082 10.24 18.505 18.505 0 00-1.758 8.358 18.584 18.584 0 007.838 14.684 18.432 18.432 0 006.675 2.998c2.403.543 4.89.598 7.312.162zm65.15-114.645a11.135 11.135 0 011.913-8.486 11.235 11.235 0 019.461-4.845 11.293 11.293 0 019.297 5.195 11.286 11.286 0 011.752 5.2 11.238 11.238 0 01-9.268 11.966 12.99 12.99 0 01-1.761.158 3.194 3.194 0 00-1.343-.091 10.952 10.952 0 01-5.302-1.924 11.152 11.152 0 01-4.749-7.173zm9.462 77.581a11.194 11.194 0 016.992-12.386 11.23 11.23 0 017.558-.191 11.27 11.27 0 015.978 4.643 11.241 11.241 0 011.686 7.373 11.195 11.195 0 01-10.266 9.842 11.25 11.25 0 01-7.299-1.992 11.22 11.22 0 01-4.533-7.189l-.116-.1zM42.12 173.145a11.253 11.253 0 01.757-6.496 11.243 11.243 0 0110.538-6.743 11.302 11.302 0 0110.285 7.168 11.27 11.27 0 01.52 6.522 11.229 11.229 0 01-9.02 8.666 11.3 11.3 0 01-13.08-9.117z" fill="#2E8C8D"/>
  <circle cx="141.533" cy="148.606" r="22.252" transform="rotate(10.712 141.533 148.606)" fill="#F5BF56"/>
  <circle cx="204.052" cy="100.645" r="22.252" transform="rotate(10.712 204.052 100.645)" fill="#443D5E"/>
  <circle cx="127.739" cy="52.083" r="44.575" transform="rotate(10.712 127.739 52.083)" fill="#443D5E"/>
  <circle cx="265.132" cy="165.646" r="22.252" transform="rotate(10.712 265.132 165.646)" fill="#2E8C8D"/>
  <circle cx="41.48" cy="167.654" r="35.5" transform="rotate(10.712 41.48 167.654)" fill="#2E8C8D"/>
  <path d="M301.437 142.987a3.565 3.565 0 00-5.089-.375l-6.678 5.75a3.63 3.63 0 00-1.091 3.903c.151.454.391.875.705 1.236a3.494 3.494 0 002.046 1.17 3.597 3.597 0 003.043-.795l6.671-5.713a3.582 3.582 0 00.393-5.176zm27.766-24.016a3.833 3.833 0 00-5.089-.375l-13.992 11.968c-.365.311-.664.69-.881 1.118a3.61 3.61 0 00-.209 2.785c.15.454.39.874.705 1.235a3.49 3.49 0 002.045 1.171 3.616 3.616 0 001.613-.048 3.618 3.618 0 001.431-.748l13.992-11.968a3.853 3.853 0 00.385-5.138z" fill="#2E8C8D"/>
  <circle cx="386.255" cy="68.16" r="16.601" transform="rotate(10.712 386.255 68.16)" fill="#DD6F6F"/>
  <path d="M349.768 101.193a3.836 3.836 0 00-5.089-.375l-6.685 5.788a3.62 3.62 0 00-1.183 3.928 3.614 3.614 0 003.236 2.508 3.602 3.602 0 002.657-.961l6.671-5.712a3.859 3.859 0 00.393-5.176z" fill="#2E8C8D"/>
  <path d="M369.498 82.435a3.562 3.562 0 00-3.205-1.037L337.78 86.23a3.565 3.565 0 00-2.348 1.474 3.59 3.59 0 00-.594 2.71 3.613 3.613 0 004.166 2.983l23.271-3.983-4.741 23.201a3.616 3.616 0 00.431 2.811 3.588 3.588 0 002.326 1.628 3.607 3.607 0 002.69-.556 3.62 3.62 0 001.523-2.291l5.939-28.498a3.855 3.855 0 00-.945-3.274z" fill="#2E8C8D"/>
  <path d="M52.03 118.042H14.486a3.806 3.806 0 01-2.683-1.109 3.785 3.785 0 01-1.112-2.675V91.202a3.782 3.782 0 011.112-2.675 3.805 3.805 0 012.683-1.11H52.03c1.006.002 1.97.4 2.682 1.11a3.782 3.782 0 011.113 2.675v23.056a3.785 3.785 0 01-1.113 2.675 3.806 3.806 0 01-2.682 1.109z" fill="#251A3F"/>
  <path d="M37.114 115.072h-19.99a3.561 3.561 0 01-2.511-1.039 3.542 3.542 0 01-1.043-2.505V93.931c.001-.94.376-1.84 1.043-2.505a3.564 3.564 0 012.512-1.039h32.268a3.564 3.564 0 012.512 1.04 3.542 3.542 0 011.042 2.504v5.355a15.782 15.782 0 01-4.643 11.158 15.873 15.873 0 01-11.19 4.628z" fill="#fff"/>
  <path d="M46.172 100.023h-25.83a.844.844 0 01-.842-.84.839.839 0 01.842-.84h25.83a.843.843 0 01.843.84.839.839 0 01-.843.84zm-21.789 3.319h-4.04a.84.84 0 010-1.68h4.04a.844.844 0 01.84.84.84.84 0 01-.84.84zm7.157 3.319H20.342a.844.844 0 01-.841-.84.84.84 0 01.84-.84H31.54a.842.842 0 01.596 1.434.846.846 0 01-.596.246z" fill="#2E8C8D"/>
  <path d="M231.987 211.863h-48.36a4.903 4.903 0 01-3.455-1.43 4.87 4.87 0 01-1.434-3.444v-29.698a4.87 4.87 0 011.434-3.444 4.903 4.903 0 013.455-1.43h48.36a4.904 4.904 0 013.455 1.43 4.869 4.869 0 011.433 3.444v29.698a4.869 4.869 0 01-1.433 3.444 4.904 4.904 0 01-3.455 1.43z" fill="#251A3F"/>
  <path d="M212.774 208.037h-25.746a4.587 4.587 0 01-3.236-1.338 4.564 4.564 0 01-1.343-3.226v-22.666a4.564 4.564 0 011.343-3.226 4.587 4.587 0 013.236-1.338h41.561a4.589 4.589 0 013.236 1.338 4.563 4.563 0 011.342 3.226v6.898a20.326 20.326 0 01-5.98 14.371 20.447 20.447 0 01-14.413 5.961z" fill="#fff"/>
  <path d="M224.44 188.654h-33.269a1.085 1.085 0 01-1.085-1.082 1.085 1.085 0 011.085-1.082h33.269a1.085 1.085 0 011.085 1.082 1.085 1.085 0 01-1.085 1.082zm-28.063 4.274h-5.204a1.082 1.082 0 110-2.163h5.204a1.082 1.082 0 110 2.163zm9.217 4.275h-14.421a1.086 1.086 0 01-1.083-1.082 1.081 1.081 0 011.083-1.081h14.421a1.078 1.078 0 01.767 1.846 1.085 1.085 0 01-.767.317z" fill="#2E8C8D"/>
  <path d="M281.428 71.042h-63.292a6.417 6.417 0 01-4.522-1.87 6.379 6.379 0 01-1.876-4.509V25.796a6.379 6.379 0 011.876-4.508 6.417 6.417 0 014.522-1.87h63.292a6.413 6.413 0 014.522 1.87 6.375 6.375 0 011.876 4.508v38.867a6.375 6.375 0 01-1.876 4.509 6.413 6.413 0 01-4.522 1.87z" fill="#251A3F"/>
  <path d="M256.282 66.036h-33.696a6.007 6.007 0 01-4.235-1.752 5.97 5.97 0 01-1.757-4.223V30.398a5.97 5.97 0 011.757-4.222 6.007 6.007 0 014.235-1.752h54.394a6.007 6.007 0 014.235 1.752 5.974 5.974 0 011.757 4.222v9.028a26.604 26.604 0 01-7.826 18.808 26.762 26.762 0 01-18.864 7.803z" fill="#fff"/>
  <path d="M271.554 40.667h-43.542a1.42 1.42 0 01-1.42-1.416 1.42 1.42 0 011.42-1.416h43.542a1.415 1.415 0 110 2.832zm-36.732 5.594h-6.811a1.42 1.42 0 01-1.417-1.415 1.42 1.42 0 011.417-1.416h6.811a1.42 1.42 0 011.417 1.416 1.42 1.42 0 01-1.417 1.416zm12.063 5.595h-18.874a1.42 1.42 0 01-1.417-1.416 1.42 1.42 0 011.417-1.416h18.874a1.42 1.42 0 011.42 1.416 1.42 1.42 0 01-1.42 1.416z" fill="#2E8C8D"/>
</svg>
