<svg xmlns="http://www.w3.org/2000/svg" fill="none" viewBox="0 0 409 298">
  <path d="M285.462 170.202a18.485 18.485 0 00-23.098-4.37l-36.778-42.613a18.573 18.573 0 001.669-9.267 18.532 18.532 0 00-3.094-8.886 18.459 18.459 0 00-7.055-6.21 18.436 18.436 0 00-9.193-1.93 18.465 18.465 0 00-8.956 2.853 18.52 18.52 0 00-6.402 6.895 18.557 18.557 0 00.387 18.206l-32.602 25.413a18.177 18.177 0 00-12.381-6.26 18.453 18.453 0 00-10.52 2.214 18.522 18.522 0 00-7.516 7.706 18.553 18.553 0 00-1.968 10.591 18.52 18.52 0 004.245 9.891 18.26 18.26 0 0010.55 6.228l1.887.357a18.48 18.48 0 007.189-.774 18.532 18.532 0 0010.887-9.117 18.591 18.591 0 002.037-6.954 17.962 17.962 0 00-.919-7.54l33.91-26.537a18.637 18.637 0 007.575 3.353c2.691.518 5.464.428 8.117-.263a18.44 18.44 0 007.22-3.732c.123-.098.235-.208.336-.328l35.817 41.491a18.601 18.601 0 00-3.437 16.292 18.513 18.513 0 0010.98 12.485 18.485 18.485 0 0016.558-1.374 18.55 18.55 0 006.072-6.019 18.601 18.601 0 002.733-8.106 18.433 18.433 0 00-.738-7.281 18.377 18.377 0 00-3.512-6.414zm-131.861.837a11.147 11.147 0 01-8.307 2.582 11.234 11.234 0 01-8.924-5.775 11.295 11.295 0 01-.144-10.649 11.29 11.29 0 013.629-4.116 11.242 11.242 0 0110.563-1.171 11.247 11.247 0 014.433 3.222c.371.458.711.941 1.016 1.446.11.441.311.853.592 1.21a10.942 10.942 0 01.983 5.553 11.157 11.157 0 01-3.841 7.698zm62.478-46.954a11.192 11.192 0 01-14.222.13 11.234 11.234 0 01-3.942-6.452 11.269 11.269 0 011.036-7.498 11.24 11.24 0 015.544-5.144 11.2 11.2 0 0113.655 3.977 11.253 11.253 0 011.921 7.318 11.218 11.218 0 01-3.963 7.517l-.029.152zm62.484 66.675a11.248 11.248 0 01-12.432 1.399 11.25 11.25 0 01-4.68-4.569 11.302 11.302 0 011.072-12.491 11.264 11.264 0 015.39-3.709 11.231 11.231 0 0112.013 3.485 11.295 11.295 0 01-1.363 15.885z" fill="#2E8C8D"/>
  <path d="M59.826 204.392a18.485 18.485 0 0015.325-17.826l55.288-10.57a18.563 18.563 0 007.193 6.074 18.535 18.535 0 009.244 1.761 18.44 18.44 0 0015.168-10.01 18.46 18.46 0 002.004-9.183 18.526 18.526 0 00-2.775-8.99 18.56 18.56 0 00-6.835-6.475 18.534 18.534 0 00-9.13-2.285l-5.727-40.939a18.18 18.18 0 0011.609-7.597 18.457 18.457 0 003.337-10.22 18.517 18.517 0 00-2.92-10.36 18.566 18.566 0 00-8.191-6.996 18.523 18.523 0 00-10.69-1.264 18.258 18.258 0 00-10.665 6.028l-1.252 1.456a18.474 18.474 0 00-2.922 6.614 18.526 18.526 0 00-.162 7.234 18.584 18.584 0 007.627 11.991 17.967 17.967 0 006.991 2.97l6.048 42.633a18.63 18.63 0 00-6.689 4.887 18.402 18.402 0 00-3.828 7.163 18.463 18.463 0 00-.374 8.119c.024.155.063.307.117.455L73.781 179.36a18.59 18.59 0 00-20.939-11.41 18.486 18.486 0 00-13.082 10.24 18.506 18.506 0 00-1.76 8.358 18.583 18.583 0 007.838 14.684 18.431 18.431 0 006.676 2.998c2.403.543 4.89.598 7.311.162zm65.151-114.645a11.135 11.135 0 011.913-8.486 11.227 11.227 0 014.12-3.61 11.254 11.254 0 015.341-1.235 11.293 11.293 0 019.296 5.195 11.275 11.275 0 01.845 10.605 11.23 11.23 0 01-8.36 6.56c-.583.094-1.171.147-1.761.159a3.194 3.194 0 00-1.343-.091 10.952 10.952 0 01-5.302-1.924 11.139 11.139 0 01-4.749-7.173zm9.461 77.581a11.212 11.212 0 011.279-7.448 11.191 11.191 0 015.713-4.938 11.233 11.233 0 017.559-.191 11.274 11.274 0 015.978 4.643 11.241 11.241 0 011.686 7.373 11.195 11.195 0 01-10.267 9.842 11.248 11.248 0 01-7.298-1.992 11.22 11.22 0 01-4.533-7.189l-.117-.1zm-88.974 20.817a11.252 11.252 0 01.757-6.496 11.243 11.243 0 0110.537-6.743 11.302 11.302 0 0110.285 7.168c.815 2.076.996 4.346.521 6.522a11.229 11.229 0 01-9.02 8.666 11.3 11.3 0 01-13.08-9.117z" fill="#2E8C8D"/>
  <circle cx="144.877" cy="163.606" r="22.252" transform="rotate(10.712 144.877 163.606)" fill="#F5BF56"/>
  <circle cx="207.396" cy="115.645" r="22.252" transform="rotate(10.712 207.396 115.645)" fill="#443D5E"/>
  <circle cx="131.083" cy="67.083" r="44.575" transform="rotate(10.712 131.083 67.083)" fill="#443D5E"/>
  <circle cx="268.476" cy="180.646" r="22.252" transform="rotate(10.712 268.476 180.646)" fill="#2E8C8D"/>
  <circle cx="44.824" cy="182.654" r="35.5" transform="rotate(10.712 44.824 182.654)" fill="#2E8C8D"/>
  <path d="M304.781 157.987a3.565 3.565 0 00-5.09-.375l-6.678 5.75a3.642 3.642 0 00-1.265 2.489 3.615 3.615 0 00.88 2.65 3.494 3.494 0 002.046 1.17 3.597 3.597 0 003.043-.795l6.671-5.713a3.579 3.579 0 001.305-2.504 3.576 3.576 0 00-.912-2.672zm27.766-24.016a3.836 3.836 0 00-5.089-.375l-13.992 11.968a3.618 3.618 0 00-1.265 2.489 3.626 3.626 0 00.879 2.649 3.49 3.49 0 002.046 1.171 3.616 3.616 0 001.613-.048 3.618 3.618 0 001.431-.748l13.991-11.968a3.854 3.854 0 00.386-5.138z" fill="#2E8C8D"/>
  <circle cx="389.599" cy="83.16" r="16.601" transform="rotate(10.712 389.599 83.16)" fill="#DD6F6F"/>
  <path d="M353.112 116.193a3.836 3.836 0 00-5.09-.375l-6.685 5.788a3.63 3.63 0 00-1.182 3.928 3.611 3.611 0 003.236 2.508 3.602 3.602 0 002.657-.961l6.671-5.712a3.859 3.859 0 00.393-5.176z" fill="#2E8C8D"/>
  <path d="M372.842 97.435a3.569 3.569 0 00-3.205-1.037l-28.513 4.832a3.583 3.583 0 00-2.942 4.185 3.607 3.607 0 004.166 2.982l23.271-3.983-4.741 23.201a3.635 3.635 0 00.431 2.811 3.588 3.588 0 002.326 1.628 3.603 3.603 0 002.689-.556 3.622 3.622 0 001.524-2.291l5.938-28.498a3.849 3.849 0 00-.944-3.274z" fill="#2E8C8D"/>
  <path d="M55.375 133.042H17.828a3.806 3.806 0 01-2.682-1.109 3.785 3.785 0 01-1.113-2.675v-23.056a3.782 3.782 0 011.113-2.675 3.811 3.811 0 012.682-1.11h37.547a3.811 3.811 0 012.682 1.11 3.782 3.782 0 011.113 2.675v23.056a3.785 3.785 0 01-1.113 2.675 3.806 3.806 0 01-2.682 1.109z" fill="#251A3F"/>
  <path d="M40.458 130.072h-19.99a3.561 3.561 0 01-2.512-1.039 3.541 3.541 0 01-1.042-2.505v-17.597a3.545 3.545 0 011.042-2.505 3.565 3.565 0 012.513-1.039h32.267a3.565 3.565 0 012.513 1.039 3.546 3.546 0 011.042 2.505v5.355a15.782 15.782 0 01-4.643 11.158 15.873 15.873 0 01-11.19 4.628z" fill="#fff"/>
  <path d="M49.516 115.023h-25.83a.842.842 0 01-.596-1.434.846.846 0 01.596-.246h25.83a.84.84 0 110 1.68zm-21.789 3.319h-4.04a.84.84 0 010-1.68h4.04a.844.844 0 01.84.84.84.84 0 01-.84.84zm7.156 3.319H23.686a.844.844 0 01-.84-.84.84.84 0 01.84-.84h11.197a.842.842 0 01.596 1.434.846.846 0 01-.596.246z" fill="#2E8C8D"/>
  <path d="M235.33 226.863h-48.36a4.904 4.904 0 01-3.455-1.43 4.869 4.869 0 01-1.433-3.444v-29.698a4.869 4.869 0 011.433-3.444 4.904 4.904 0 013.455-1.43h48.36a4.903 4.903 0 013.455 1.43 4.87 4.87 0 011.434 3.444v29.698a4.87 4.87 0 01-1.434 3.444 4.903 4.903 0 01-3.455 1.43z" fill="#251A3F"/>
  <path d="M216.118 223.037h-25.747a4.586 4.586 0 01-3.235-1.338 4.56 4.56 0 01-1.343-3.226v-22.666a4.56 4.56 0 011.343-3.226 4.586 4.586 0 013.235-1.338h41.562a4.586 4.586 0 013.235 1.338 4.564 4.564 0 011.343 3.226v6.898a20.326 20.326 0 01-5.98 14.371 20.45 20.45 0 01-14.413 5.961z" fill="#fff"/>
  <path d="M227.784 203.654h-33.269a1.082 1.082 0 110-2.164h33.269a1.085 1.085 0 011.085 1.082 1.085 1.085 0 01-1.085 1.082zm-28.063 4.274h-5.205a1.082 1.082 0 010-2.163h5.205a1.086 1.086 0 011.082 1.082 1.081 1.081 0 01-1.082 1.081zm9.217 4.275h-14.422a1.086 1.086 0 01-1.082-1.082 1.081 1.081 0 011.082-1.081h14.422a1.078 1.078 0 01.767 1.846 1.085 1.085 0 01-.767.317z" fill="#2E8C8D"/>
  <path d="M284.772 86.042H221.48a6.415 6.415 0 01-4.522-1.87 6.379 6.379 0 01-1.876-4.509V40.796a6.379 6.379 0 011.876-4.508 6.415 6.415 0 014.522-1.87h63.292a6.415 6.415 0 014.522 1.87 6.379 6.379 0 011.876 4.508v38.867a6.379 6.379 0 01-1.876 4.509 6.415 6.415 0 01-4.522 1.87z" fill="#251A3F"/>
  <path d="M259.626 81.036H225.93a6.007 6.007 0 01-4.235-1.752 5.966 5.966 0 01-1.757-4.223V45.397a5.966 5.966 0 011.757-4.222 6.007 6.007 0 014.235-1.752h54.394a6.007 6.007 0 014.235 1.752 5.974 5.974 0 011.757 4.222v9.028a26.604 26.604 0 01-7.826 18.808 26.762 26.762 0 01-18.864 7.803z" fill="#fff"/>
  <path d="M274.898 55.667h-43.542a1.414 1.414 0 110-2.832h43.542a1.415 1.415 0 110 2.832zm-36.732 5.594h-6.811a1.416 1.416 0 110-2.832h6.811a1.422 1.422 0 011.417 1.417 1.422 1.422 0 01-1.417 1.416zm12.063 5.595h-18.874a1.416 1.416 0 110-2.832h18.874a1.42 1.42 0 011.42 1.416 1.42 1.42 0 01-1.42 1.416z" fill="#2E8C8D"/>
</svg>
