<svg fill="none" xmlns="http://www.w3.org/2000/svg" viewBox="0 0 667 513">
  <path d="M20 244.016V137c0-35.346 28.654-64 64-64h143.385c35.346 0 64 28.654 64 64v184c0 35.346 28.653 64 64 64H466c35.346 0 64-28.654 64-64V73" stroke="#D6D3DD" stroke-width="18"/>
  <circle cx="20" cy="226" r="20" fill="#029D7F"/>
  <g filter="url(#T7lt25qAja)">
    <path fill-rule="evenodd" clip-rule="evenodd" d="M325 34a8 8 0 018-8h231a8 8 0 018 8v242a8 8 0 01-8 8H333a8 8 0 01-8-8V34z" fill="#fff"/>
    <path d="M333 26.5h231a7.5 7.5 0 017.5 7.5v242a7.5 7.5 0 01-7.5 7.5H333a7.5 7.5 0 01-7.5-7.5V34a7.5 7.5 0 017.5-7.5z" stroke="#D8D8D8"/>
  </g>
  <path d="M360.729 62.604l4.862-5.744c.619-.729.101-1.86-.871-1.86h-9.723c-.96 0-1.49 1.118-.871 1.86l4.861 5.744a1.156 1.156 0 001.742 0zm29.777-10.356c-3.134 0-5.097 2.102-5.097 5.471 0 3.362 1.963 5.464 5.097 5.464 3.128 0 5.098-2.102 5.098-5.464 0-3.369-1.97-5.471-5.098-5.471zm0 1.846c1.729 0 2.835 1.406 2.835 3.625 0 2.212-1.106 3.611-2.835 3.611-1.735 0-2.841-1.399-2.841-3.61 0-2.22 1.113-3.626 2.841-3.626zm11.5 9.03c1.978 0 3.186-1.523 3.186-4.05 0-2.534-1.215-4.05-3.193-4.05-1.12 0-1.992.557-2.424 1.487h-.044v-4.08h-2.139V63h2.11v-1.348h.043c.433.916 1.312 1.472 2.461 1.472zm-.739-6.386c1.062 0 1.736.908 1.736 2.336 0 1.436-.667 2.33-1.736 2.33-1.04 0-1.743-.909-1.743-2.33 0-1.406.71-2.336 1.743-2.336zm5.399.718c0 1.179.769 1.94 2.285 2.263l1.34.278c.769.176 1.04.41 1.04.828 0 .512-.498.842-1.303.842-.85 0-1.341-.366-1.473-1.055h-2.087c.139 1.546 1.392 2.556 3.56 2.556 2.021 0 3.435-1.018 3.435-2.563 0-1.15-.674-1.794-2.315-2.139l-1.34-.285c-.791-.169-1.084-.44-1.084-.843 0-.52.491-.857 1.23-.857.791 0 1.267.433 1.333 1.07h1.97c-.043-1.538-1.289-2.571-3.303-2.571-1.999 0-3.288.981-3.288 2.476zm11.866-.894c.952 0 1.604.689 1.648 1.692h-3.333c.074-.981.747-1.692 1.685-1.692zm1.677 4.036c-.198.6-.798.988-1.582.988-1.091 0-1.802-.769-1.802-1.89v-.131h5.413v-.652c0-2.388-1.443-3.933-3.728-3.933-2.322 0-3.787 1.626-3.787 4.13 0 2.513 1.451 4.059 3.868 4.059 1.941 0 3.347-1.033 3.581-2.571h-1.963zM423.836 63h2.138v-4.387c0-1.106.616-1.75 1.67-1.75.308 0 .601.05.777.124v-1.883a2.18 2.18 0 00-.608-.08c-.923 0-1.59.542-1.868 1.538h-.044v-1.414h-2.065V63zm13.133-7.852h-2.234l-1.626 5.962h-.044l-1.633-5.962h-2.292L431.857 63h2.417l2.695-7.852zm4.542 1.414c.952 0 1.604.689 1.648 1.692h-3.332c.073-.981.747-1.692 1.684-1.692zm1.678 4.036c-.198.6-.799.988-1.583.988-1.091 0-1.801-.769-1.801-1.89v-.131h5.412v-.652c0-2.388-1.443-3.933-3.728-3.933-2.321 0-3.786 1.626-3.786 4.13 0 2.513 1.45 4.059 3.867 4.059 1.941 0 3.347-1.033 3.581-2.571h-1.962zM453.729 63h2.351l-3.677-10.569h-2.6L446.134 63h2.27l.806-2.563h3.713l.806 2.563zm-2.688-8.547h.051l1.355 4.328h-2.761l1.355-4.328zM459.868 63V52.431h-2.212V63h2.212zm-67.113 39h1.384l-3.896-10.569h-1.304L385.042 102h1.385l1.062-3.025h4.204l1.062 3.025zm-3.186-8.965h.044l1.692 4.82h-3.428l1.692-4.82zm8.812 9.097c1.099 0 1.97-.542 2.461-1.421h.022V102h1.216V91.431h-1.275v4.19h-.029c-.454-.835-1.333-1.37-2.424-1.37-1.919 0-3.23 1.553-3.23 3.94 0 2.388 1.318 3.941 3.259 3.941zm.242-6.76c1.311 0 2.19 1.12 2.19 2.82 0 1.706-.879 2.819-2.19 2.819-1.348 0-2.198-1.091-2.198-2.82 0-1.72.85-2.82 2.198-2.82zm11.917-.99h-1.325l-2.11 6.263h-.029l-2.102-6.262h-1.341l2.806 7.617h1.303l2.798-7.617zm1.561 7.618h1.275v-7.617h-1.275V102zm.638-8.972a.796.796 0 00.798-.799.791.791 0 00-.798-.798.796.796 0 00-.799.799.8.8 0 00.799.798zm2.718 3.457c0 1.099.696 1.765 2.131 2.11l1.209.292c.871.213 1.172.528 1.172 1.077 0 .688-.638 1.128-1.67 1.128-1.033 0-1.619-.418-1.773-1.29h-1.274c.146 1.429 1.26 2.33 3.047 2.33 1.699 0 2.951-.938 2.951-2.263 0-1.092-.556-1.692-2.094-2.066l-1.209-.293c-.849-.205-1.238-.564-1.238-1.091 0-.667.616-1.128 1.546-1.128.937 0 1.523.49 1.618 1.29h1.216c-.051-1.349-1.164-2.33-2.834-2.33-1.648 0-2.798.93-2.798 2.234zm10.768 5.647c2.102 0 3.523-1.516 3.523-3.94 0-2.432-1.421-3.941-3.523-3.941-2.11 0-3.531 1.509-3.531 3.94 0 2.425 1.421 3.941 3.531 3.941zm0-1.121c-1.348 0-2.234-1.025-2.234-2.82 0-1.794.886-2.82 2.234-2.82 1.347 0 2.226 1.026 2.226 2.82 0 1.795-.879 2.82-2.226 2.82zm5.303.989h1.275v-4.746c0-1.077.644-1.787 1.633-1.787.308 0 .579.036.681.073v-1.238c-.102-.014-.293-.051-.512-.051-.894 0-1.597.535-1.846 1.377h-.029v-1.245h-1.202V102zm4.989-5.515c0 1.099.696 1.765 2.132 2.11l1.208.292c.872.213 1.172.528 1.172 1.077 0 .688-.637 1.128-1.67 1.128s-1.619-.418-1.772-1.29h-1.275c.147 1.429 1.26 2.33 3.047 2.33 1.699 0 2.952-.938 2.952-2.263 0-1.092-.557-1.692-2.095-2.066l-1.209-.293c-.849-.205-1.237-.564-1.237-1.091 0-.667.615-1.128 1.545-1.128.938 0 1.523.49 1.619 1.29h1.216c-.052-1.349-1.165-2.33-2.835-2.33-1.648 0-2.798.93-2.798 2.234z" fill="#251A3F"/>
  <path d="M362.724 94.343a.43.43 0 01.432.433v4.59a.432.432 0 01-.432.432h-4.588a.433.433 0 01-.433-.433v-4.59c0-.24.193-.432.433-.432h4.588zm-.433 4.59v-3.725h-3.723v3.725h3.723z" fill="#000"/>
  <path d="M356.338 94.343c.24 0 .433.193.433.433v4.59a.433.433 0 01-.433.432h-2.613v.93h2.612c.24 0 .433.195.433.433v2.615h.932l.001-2.615c0-.238.192-.433.432-.433h4.588c.24 0 .433.195.433.433v2.615h.933l-.001-2.615c0-.238.192-.433.432-.433h2.615v-.93h-2.615a.432.432 0 01-.432-.433v-4.59a.43.43 0 01.432-.432h2.615v-.932h-2.615a.43.43 0 01-.432-.433v-2.613h-.932v2.613c0 .24-.193.432-.433.432h-4.588a.43.43 0 01-.432-.432v-2.613h-.932v2.613c0 .24-.193.432-.433.432h-2.613v.932l2.613.001zm11.663 5.022v1.796c0 .24-.195.433-.433.433h-2.615v2.615a.433.433 0 01-.433.432h-1.797a.434.434 0 01-.433-.432v-2.615h-3.722v2.615a.434.434 0 01-.433.432h-1.797a.434.434 0 01-.433-.432v-2.615h-2.613a.432.432 0 01-.433-.433v-1.796c0-.24.193-.432.433-.432h2.612l.001-3.725h-2.613a.433.433 0 01-.433-.432v-1.797c0-.239.193-.433.433-.433h2.612l.001-2.613c0-.24.195-.433.433-.433h1.797c.238 0 .433.193.433.433v2.612h3.722v-2.612c0-.24.195-.433.433-.433h1.798c.238 0 .433.193.433.433v2.612h2.615c.238 0 .432.194.432.433v1.797a.433.433 0 01-.432.432l-2.616.001v3.725h2.615c.238 0 .432.192.432.432h.001z" fill="#000"/>
  <rect x="336.859" y="121" width="224" height="32" rx="10" fill="#029D7F"/>
  <path d="M389.876 141c2.249 0 3.582-1.106 3.582-2.966 0-1.407-.923-2.417-2.358-2.6v-.059c1.018-.183 1.823-1.208 1.823-2.307 0-1.582-1.223-2.637-3.032-2.637h-4.006V141h3.991zm-2.673-9.404h2.388c1.282 0 1.999.578 1.999 1.626 0 1.142-.849 1.765-2.409 1.765h-1.978v-3.391zm0 8.239v-3.713h2.351c1.685 0 2.549.623 2.549 1.846s-.835 1.867-2.424 1.867h-2.476zm11.2 1.297c2.102 0 3.523-1.516 3.523-3.941 0-2.431-1.421-3.94-3.523-3.94-2.109 0-3.53 1.509-3.53 3.94 0 2.425 1.421 3.941 3.53 3.941zm0-1.121c-1.348 0-2.234-1.025-2.234-2.82 0-1.794.886-2.819 2.234-2.819 1.348 0 2.226 1.025 2.226 2.819 0 1.795-.878 2.82-2.226 2.82zm7.816.037c-.916 0-1.524-.476-1.524-1.201 0-.718.586-1.172 1.612-1.238l2.036-.125v.623c0 1.099-.923 1.941-2.124 1.941zm-.286 1.084c1.026 0 1.992-.571 2.447-1.443h.029V141h1.208v-5.266c0-1.516-1.128-2.483-2.915-2.483-1.801 0-2.929 1.011-3.017 2.329h1.23c.161-.747.777-1.208 1.758-1.208 1.055 0 1.67.556 1.67 1.486v.638l-2.183.124c-1.757.103-2.761.923-2.761 2.227 0 1.369 1.018 2.285 2.534 2.285zm5.795-.132h1.274v-4.746c0-1.077.645-1.787 1.634-1.787.307 0 .578.036.681.073v-1.238c-.103-.014-.293-.051-.513-.051-.894 0-1.597.535-1.846 1.377h-.029v-1.245h-1.201V141zm7.64.132c1.099 0 1.97-.542 2.461-1.421h.022V141h1.216v-10.569h-1.275v4.19h-.029c-.454-.835-1.333-1.37-2.424-1.37-1.919 0-3.23 1.553-3.23 3.94 0 2.388 1.318 3.941 3.259 3.941zm.242-6.76c1.311 0 2.19 1.12 2.19 2.819 0 1.707-.879 2.82-2.19 2.82-1.348 0-2.198-1.091-2.198-2.82 0-1.721.85-2.819 2.198-2.819zM439.46 141v-10.569h-1.53l-3.648 8.892h-.058l-3.648-8.892h-1.531V141h1.231v-8.145h.051l3.369 8.145h1.114l3.369-8.145h.051V141h1.23zm5.399-6.643c1.202 0 2 .908 2.029 2.183h-4.138c.081-1.268.916-2.183 2.109-2.183zm2 4.46c-.212.718-.923 1.209-1.89 1.209-1.369 0-2.226-.96-2.226-2.417v-.073h5.464v-.484c0-2.307-1.267-3.801-3.326-3.801-2.102 0-3.449 1.604-3.449 3.97 0 2.395 1.325 3.911 3.508 3.911 1.663 0 2.952-.982 3.171-2.315h-1.252zm3.129 2.183h1.274v-4.775c0-1.055.732-1.846 1.743-1.846.945 0 1.56.6 1.56 1.516V141h1.275v-4.841c0-1.033.71-1.78 1.721-1.78 1.003 0 1.582.615 1.582 1.655V141h1.274v-5.259c0-1.509-.974-2.49-2.483-2.49-1.069 0-1.963.542-2.387 1.45h-.03c-.329-.923-1.098-1.45-2.138-1.45-1.026 0-1.802.542-2.161 1.348h-.029v-1.216h-1.201V141zm16.334.132c1.948 0 3.237-1.546 3.237-3.941 0-2.387-1.297-3.94-3.215-3.94-1.077 0-1.963.535-2.439 1.406h-.03v-4.226h-1.274V141h1.216v-1.289h.029c.491.879 1.362 1.421 2.476 1.421zm-.249-6.76c1.347 0 2.182 1.091 2.182 2.819 0 1.744-.835 2.82-2.182 2.82-1.29 0-2.205-1.12-2.205-2.82 0-1.691.915-2.819 2.205-2.819zm8.328-.015c1.201 0 2 .908 2.029 2.183h-4.138c.08-1.268.915-2.183 2.109-2.183zm2 4.46c-.213.718-.923 1.209-1.89 1.209-1.37 0-2.226-.96-2.226-2.417v-.073h5.463v-.484c0-2.307-1.267-3.801-3.325-3.801-2.102 0-3.449 1.604-3.449 3.97 0 2.395 1.325 3.911 3.508 3.911 1.662 0 2.951-.982 3.171-2.315h-1.252zm3.128 2.183h1.275v-4.746c0-1.077.644-1.787 1.633-1.787.308 0 .579.036.681.073v-1.238c-.102-.014-.293-.051-.513-.051-.893 0-1.596.535-1.845 1.377h-.03v-1.245h-1.201V141zm4.989-5.515c0 1.098.696 1.765 2.131 2.109l1.209.293c.872.213 1.172.528 1.172 1.077 0 .688-.637 1.128-1.67 1.128s-1.619-.418-1.773-1.289h-1.274c.147 1.428 1.26 2.329 3.047 2.329 1.699 0 2.952-.938 2.952-2.263 0-1.092-.557-1.692-2.095-2.066l-1.209-.293c-.849-.205-1.237-.564-1.237-1.091 0-.667.615-1.128 1.545-1.128.937 0 1.523.491 1.619 1.289h1.215c-.051-1.348-1.164-2.329-2.834-2.329-1.648 0-2.798.93-2.798 2.234zm-121.794-1.642c.24 0 .432.193.432.433v4.589a.432.432 0 01-.432.433h-4.588a.433.433 0 01-.433-.433v-4.589c0-.24.193-.433.433-.433h4.588zm-.433 4.59v-3.725h-3.723v3.725h3.723z" fill="#fff"/>
  <path d="M356.338 133.843c.24 0 .433.193.433.433v4.589a.433.433 0 01-.433.433h-2.613v.93h2.612c.24 0 .433.195.433.433v2.615h.932l.001-2.615c0-.238.192-.433.432-.433h4.588c.24 0 .433.195.433.433v2.615h.933l-.001-2.615c0-.238.192-.433.432-.433h2.615v-.93h-2.615a.432.432 0 01-.432-.433v-4.589c0-.24.192-.433.432-.433h2.615v-.932l-2.615-.001a.43.43 0 01-.432-.432v-2.613h-.932v2.613c0 .24-.193.432-.433.432h-4.588a.43.43 0 01-.432-.432v-2.613h-.932v2.613c0 .24-.193.432-.433.432h-2.613v.932l2.613.001zm11.663 5.022v1.796c0 .24-.195.433-.433.433h-2.615v2.615a.433.433 0 01-.433.432h-1.797a.434.434 0 01-.433-.432v-2.615h-3.722v2.615a.434.434 0 01-.433.432h-1.797a.434.434 0 01-.433-.432v-2.615h-2.613a.432.432 0 01-.433-.433v-1.796c0-.24.193-.432.433-.432h2.612l.001-3.725h-2.613a.432.432 0 01-.433-.432v-1.797c0-.239.193-.433.433-.433h2.612l.001-2.613c0-.24.195-.433.433-.433h1.797c.238 0 .433.193.433.433v2.612h3.722v-2.612c0-.24.195-.433.433-.433h1.798c.238 0 .433.193.433.433v2.612h2.615c.238 0 .432.194.432.433v1.797a.433.433 0 01-.432.432l-2.616.001v3.725h2.615c.238 0 .432.192.432.432h.001z" fill="#fff"/>
  <path d="M387.203 180v-4.578h4.68v-1.172h-4.68v-3.632h5.098v-1.187h-6.416V180h1.318zm9.764.132c2.102 0 3.523-1.516 3.523-3.941 0-2.431-1.421-3.94-3.523-3.94-2.109 0-3.53 1.509-3.53 3.94 0 2.425 1.421 3.941 3.53 3.941zm0-1.121c-1.347 0-2.234-1.025-2.234-2.82 0-1.794.887-2.819 2.234-2.819 1.348 0 2.227 1.025 2.227 2.819 0 1.795-.879 2.82-2.227 2.82zm11.559-6.628h-1.274v4.475c0 1.296-.747 2.146-1.985 2.146-1.179 0-1.758-.667-1.758-1.904v-4.717h-1.274v4.944c0 1.728.974 2.805 2.636 2.805 1.172 0 1.963-.491 2.417-1.37h.03V180h1.208v-7.617zm2.147 7.617h1.275v-4.482c0-1.289.783-2.139 1.984-2.139 1.172 0 1.751.674 1.751 1.904V180h1.274v-4.944c0-1.728-.967-2.805-2.636-2.805-1.18 0-1.993.527-2.417 1.348h-.03v-1.216h-1.201V180zm11.288.132c1.098 0 1.97-.542 2.461-1.421h.022V180h1.216v-10.569h-1.275v4.19h-.029c-.454-.835-1.333-1.37-2.425-1.37-1.918 0-3.229 1.553-3.229 3.94 0 2.388 1.318 3.941 3.259 3.941zm.241-6.76c1.312 0 2.19 1.12 2.19 2.819 0 1.707-.878 2.82-2.19 2.82-1.347 0-2.197-1.091-2.197-2.82 0-1.721.85-2.819 2.197-2.819zm8.725-.015c1.201 0 1.999.908 2.029 2.183h-4.139c.081-1.268.916-2.183 2.11-2.183zm1.999 4.46c-.212.718-.923 1.209-1.889 1.209-1.37 0-2.227-.96-2.227-2.417v-.073h5.464v-.484c0-2.307-1.267-3.801-3.325-3.801-2.102 0-3.45 1.604-3.45 3.97 0 2.395 1.326 3.911 3.508 3.911 1.663 0 2.952-.982 3.172-2.315h-1.253zm3.129 2.183h1.274v-4.746c0-1.077.645-1.787 1.633-1.787.308 0 .579.036.682.073v-1.238c-.103-.014-.293-.051-.513-.051-.894 0-1.597.535-1.846 1.377h-.029v-1.245h-1.201V180zm10.204 0v-4.578h4.681v-1.172h-4.681v-3.632h5.098v-1.187h-6.416V180h1.318zm6.901 0h1.274v-4.746c0-1.077.645-1.787 1.634-1.787.307 0 .578.036.681.073v-1.238c-.103-.014-.293-.051-.513-.051-.893 0-1.597.535-1.846 1.377h-.029v-1.245h-1.201V180zm5.187 0h1.274v-7.617h-1.274V180zm.637-8.972a.795.795 0 00.798-.799.79.79 0 00-.798-.798.796.796 0 00-.799.798.8.8 0 00.799.799zm5.904 2.329c1.201 0 2 .908 2.029 2.183h-4.138c.08-1.268.915-2.183 2.109-2.183zm2 4.46c-.213.718-.923 1.209-1.89 1.209-1.37 0-2.227-.96-2.227-2.417v-.073h5.464v-.484c0-2.307-1.267-3.801-3.325-3.801-2.102 0-3.45 1.604-3.45 3.97 0 2.395 1.326 3.911 3.509 3.911 1.662 0 2.951-.982 3.171-2.315h-1.252zm3.128 2.183h1.275v-4.482c0-1.289.783-2.139 1.984-2.139 1.172 0 1.751.674 1.751 1.904V180h1.274v-4.944c0-1.728-.966-2.805-2.636-2.805-1.18 0-1.993.527-2.417 1.348h-.03v-1.216h-1.201V180zm11.288.132c1.098 0 1.97-.542 2.461-1.421h.022V180h1.216v-10.569h-1.275v4.19h-.029c-.454-.835-1.333-1.37-2.424-1.37-1.919 0-3.23 1.553-3.23 3.94 0 2.388 1.318 3.941 3.259 3.941zm.242-6.76c1.311 0 2.189 1.12 2.189 2.819 0 1.707-.878 2.82-2.189 2.82-1.348 0-2.198-1.091-2.198-2.82 0-1.721.85-2.819 2.198-2.819zm5.538 1.113c0 1.098.696 1.765 2.131 2.109l1.209.293c.871.213 1.171.528 1.171 1.077 0 .688-.637 1.128-1.669 1.128-1.033 0-1.619-.418-1.773-1.289h-1.274c.146 1.428 1.259 2.329 3.047 2.329 1.699 0 2.951-.938 2.951-2.263 0-1.092-.556-1.692-2.095-2.066l-1.208-.293c-.85-.205-1.238-.564-1.238-1.091 0-.667.615-1.128 1.546-1.128.937 0 1.523.491 1.618 1.289h1.216c-.051-1.348-1.164-2.329-2.834-2.329-1.648 0-2.798.93-2.798 2.234z" fill="#251A3F"/>
  <path d="M362.724 172.343c.24 0 .432.193.432.433v4.589a.432.432 0 01-.432.433h-4.588a.433.433 0 01-.433-.433v-4.589c0-.24.193-.433.433-.433h4.588zm-.433 4.59v-3.725h-3.723v3.725h3.723z" fill="#000"/>
  <path d="M356.338 172.343c.24 0 .433.193.433.433v4.589a.433.433 0 01-.433.433h-2.613v.93h2.612c.24 0 .433.195.433.433v2.615h.932l.001-2.615c0-.238.192-.433.432-.433h4.588c.24 0 .433.195.433.433v2.615h.933l-.001-2.615c0-.238.192-.433.432-.433h2.615v-.93h-2.615a.432.432 0 01-.432-.433v-4.589c0-.24.192-.433.432-.433h2.615v-.932l-2.615-.001a.43.43 0 01-.432-.432v-2.613h-.932v2.613c0 .24-.193.432-.433.432h-4.588a.43.43 0 01-.432-.432v-2.613h-.932v2.613c0 .24-.193.432-.433.432h-2.613v.932l2.613.001zm11.663 5.022v1.796c0 .24-.195.433-.433.433h-2.615v2.615a.433.433 0 01-.433.432h-1.797a.434.434 0 01-.433-.432v-2.615h-3.722v2.615a.434.434 0 01-.433.432h-1.797a.434.434 0 01-.433-.432v-2.615h-2.613a.432.432 0 01-.433-.433v-1.796c0-.24.193-.432.433-.432h2.612l.001-3.725h-2.613a.432.432 0 01-.433-.432v-1.797c0-.239.193-.433.433-.433h2.612l.001-2.613c0-.24.195-.433.433-.433h1.797c.238 0 .433.193.433.433v2.612h3.722v-2.612c0-.24.195-.433.433-.433h1.798c.238 0 .433.193.433.433v2.612h2.615c.238 0 .432.194.432.433v1.797a.433.433 0 01-.432.432l-2.616.001v3.725h2.615c.238 0 .432.192.432.432h.001z" fill="#000"/>
  <path d="M396.3 219v-10.569h-1.531l-3.647 8.892h-.059l-3.647-8.892h-1.531V219h1.23v-8.145h.052l3.369 8.145h1.113l3.369-8.145h.051V219h1.231zm4.637-.952c-.915 0-1.523-.476-1.523-1.201 0-.718.586-1.172 1.611-1.238l2.036-.125v.623c0 1.099-.923 1.941-2.124 1.941zm-.286 1.084c1.026 0 1.993-.571 2.447-1.443h.029V219h1.209v-5.266c0-1.516-1.128-2.483-2.916-2.483-1.801 0-2.929 1.011-3.017 2.329h1.23c.162-.747.777-1.208 1.758-1.208 1.055 0 1.67.556 1.67 1.486v.638l-2.182.124c-1.758.103-2.762.923-2.762 2.227 0 1.369 1.018 2.285 2.534 2.285zm5.663-5.647c0 1.098.696 1.765 2.131 2.109l1.209.293c.872.213 1.172.528 1.172 1.077 0 .688-.637 1.128-1.67 1.128s-1.619-.418-1.773-1.289h-1.274c.147 1.428 1.26 2.329 3.047 2.329 1.699 0 2.952-.938 2.952-2.263 0-1.092-.557-1.692-2.095-2.066l-1.209-.293c-.849-.205-1.237-.564-1.237-1.091 0-.667.615-1.128 1.545-1.128.937 0 1.523.491 1.619 1.289h1.215c-.051-1.348-1.164-2.329-2.834-2.329-1.648 0-2.798.93-2.798 2.234zm8.021-3.941v1.839H413.2v1.047h1.135v4.592c0 1.465.542 2.037 1.941 2.037.3 0 .652-.022.806-.059v-1.069a5.16 5.16 0 01-.528.036c-.651 0-.944-.315-.944-1.01v-4.527h1.479v-1.047h-1.479v-1.839h-1.275zm7.443 2.813c1.201 0 1.999.908 2.028 2.183h-4.138c.081-1.268.916-2.183 2.11-2.183zm1.999 4.46c-.212.718-.923 1.209-1.889 1.209-1.37 0-2.227-.96-2.227-2.417v-.073h5.464v-.484c0-2.307-1.267-3.801-3.325-3.801-2.102 0-3.45 1.604-3.45 3.97 0 2.395 1.326 3.911 3.508 3.911 1.663 0 2.952-.982 3.172-2.315h-1.253zm3.129 2.183h1.274v-4.746c0-1.077.645-1.787 1.633-1.787.308 0 .579.036.682.073v-1.238c-.103-.014-.293-.051-.513-.051-.894 0-1.597.535-1.846 1.377h-.029v-1.245h-1.201V219zm5.12 0h1.275v-4.775c0-1.055.732-1.846 1.743-1.846.945 0 1.56.6 1.56 1.516V219h1.274v-4.841c0-1.033.711-1.78 1.722-1.78 1.003 0 1.582.615 1.582 1.655V219h1.274v-5.259c0-1.509-.974-2.49-2.483-2.49-1.069 0-1.963.542-2.388 1.45h-.029c-.329-.923-1.098-1.45-2.138-1.45-1.026 0-1.802.542-2.161 1.348h-.029v-1.216h-1.202V219zm12.614 0h1.274v-7.617h-1.274V219zm.637-8.972a.795.795 0 00.798-.799.79.79 0 00-.798-.798.796.796 0 00-.798.798.8.8 0 00.798.799zm2.85 8.972h1.275v-4.482c0-1.289.783-2.139 1.984-2.139 1.172 0 1.751.674 1.751 1.904V219h1.274v-4.944c0-1.728-.966-2.805-2.636-2.805-1.18 0-1.993.527-2.417 1.348h-.03v-1.216h-1.201V219zm11.288.132c1.098 0 1.97-.542 2.461-1.421h.022V219h1.216v-10.569h-1.275v4.19h-.029c-.454-.835-1.333-1.37-2.424-1.37-1.919 0-3.23 1.553-3.23 3.94 0 2.388 1.318 3.941 3.259 3.941zm.242-6.76c1.311 0 2.189 1.12 2.189 2.819 0 1.707-.878 2.82-2.189 2.82-1.348 0-2.198-1.091-2.198-2.82 0-1.721.85-2.819 2.198-2.819z" fill="#251A3F"/>
  <path d="M362.724 211.343c.24 0 .432.193.432.433v4.589a.432.432 0 01-.432.433h-4.588a.433.433 0 01-.433-.433v-4.589c0-.24.193-.433.433-.433h4.588zm-.433 4.59v-3.725h-3.723v3.725h3.723z" fill="#000"/>
  <path d="M356.338 211.343c.24 0 .433.193.433.433v4.589a.433.433 0 01-.433.433h-2.613v.93h2.612c.24 0 .433.195.433.433v2.615h.932l.001-2.615c0-.238.192-.433.432-.433h4.588c.24 0 .433.195.433.433v2.615h.933l-.001-2.615c0-.238.192-.433.432-.433h2.615v-.93h-2.615a.432.432 0 01-.432-.433v-4.589c0-.24.192-.433.432-.433h2.615v-.932l-2.615-.001a.43.43 0 01-.432-.432v-2.613h-.932v2.613c0 .24-.193.432-.433.432h-4.588a.43.43 0 01-.432-.432v-2.613h-.932v2.613c0 .24-.193.432-.433.432h-2.613v.932l2.613.001zm11.663 5.022v1.796c0 .24-.195.433-.433.433h-2.615v2.615a.433.433 0 01-.433.432h-1.797a.434.434 0 01-.433-.432v-2.615h-3.722v2.615a.434.434 0 01-.433.432h-1.797a.434.434 0 01-.433-.432v-2.615h-2.613a.432.432 0 01-.433-.433v-1.796c0-.24.193-.432.433-.432h2.612l.001-3.725h-2.613a.432.432 0 01-.433-.432v-1.797c0-.239.193-.433.433-.433h2.612l.001-2.613c0-.24.195-.433.433-.433h1.797c.238 0 .433.193.433.433v2.612h3.722v-2.612c0-.24.195-.433.433-.433h1.798c.238 0 .433.193.433.433v2.612h2.615c.238 0 .432.194.432.433v1.797a.433.433 0 01-.432.432l-2.616.001v3.725h2.615c.238 0 .432.192.432.432h.001z" fill="#000"/>
  <path d="M392.755 258h1.384l-3.896-10.569h-1.304L385.042 258h1.385l1.062-3.025h4.204l1.062 3.025zm-3.186-8.965h.044l1.692 4.819h-3.428l1.692-4.819zm6.073 8.965h1.274v-4.482c0-1.289.784-2.139 1.985-2.139 1.172 0 1.75.674 1.75 1.904V258h1.275v-4.944c0-1.728-.967-2.805-2.637-2.805-1.179 0-1.992.527-2.417 1.348h-.029v-1.216h-1.201V258zm11.5-1.062c-1.311 0-2.168-1.069-2.168-2.776 0-1.706.857-2.79 2.168-2.79 1.325 0 2.212 1.113 2.212 2.79s-.887 2.776-2.212 2.776zm.044 3.933c2.102 0 3.442-1.208 3.442-3.025v-7.463h-1.216v1.282h-.022c-.505-.887-1.399-1.414-2.475-1.414-1.97 0-3.245 1.523-3.245 3.911 0 2.366 1.275 3.897 3.215 3.897 1.07 0 1.971-.542 2.439-1.37h.03v1.201c0 1.135-.799 1.897-2.117 1.897-.952 0-1.707-.461-1.956-1.157h-1.311c.213 1.296 1.538 2.241 3.216 2.241zm8.651-9.514c1.201 0 1.999.908 2.028 2.183h-4.138c.081-1.268.916-2.183 2.11-2.183zm1.999 4.46c-.212.718-.923 1.209-1.889 1.209-1.37 0-2.227-.96-2.227-2.417v-.073h5.464v-.484c0-2.307-1.267-3.801-3.325-3.801-2.102 0-3.45 1.604-3.45 3.97 0 2.395 1.326 3.911 3.508 3.911 1.663 0 2.952-.982 3.172-2.315h-1.253zm3.195 2.183h1.274v-10.569h-1.274V258zm8.571 0v-10.569h-1.318V258h1.318zm2.345 0h1.274v-4.482c0-1.289.784-2.139 1.985-2.139 1.172 0 1.751.674 1.751 1.904V258h1.274v-4.944c0-1.728-.967-2.805-2.637-2.805-1.179 0-1.992.527-2.417 1.348h-.029v-1.216h-1.201V258zm14.649-7.617h-1.325l-2.11 6.262h-.029l-2.102-6.262h-1.34l2.805 7.617h1.304l2.797-7.617zm4.33.974c1.201 0 2 .908 2.029 2.183h-4.138c.08-1.268.915-2.183 2.109-2.183zm2 4.46c-.213.718-.923 1.209-1.89 1.209-1.37 0-2.227-.96-2.227-2.417v-.073h5.464v-.484c0-2.307-1.267-3.801-3.325-3.801-2.102 0-3.45 1.604-3.45 3.97 0 2.395 1.326 3.911 3.509 3.911 1.662 0 2.951-.982 3.171-2.315h-1.252zm2.996-3.332c0 1.098.696 1.765 2.132 2.109l1.208.293c.872.213 1.172.528 1.172 1.077 0 .688-.637 1.128-1.67 1.128s-1.619-.418-1.772-1.289h-1.275c.147 1.428 1.26 2.329 3.047 2.329 1.699 0 2.952-.938 2.952-2.263 0-1.092-.557-1.692-2.095-2.066l-1.209-.293c-.849-.205-1.237-.564-1.237-1.091 0-.667.615-1.128 1.545-1.128.938 0 1.524.491 1.619 1.289h1.216c-.052-1.348-1.165-2.329-2.835-2.329-1.648 0-2.798.93-2.798 2.234zm8.021-3.941v1.839h-1.135v1.047h1.135v4.592c0 1.465.542 2.037 1.941 2.037.301 0 .652-.022.806-.059v-1.069a5.16 5.16 0 01-.527.036c-.652 0-.945-.315-.945-1.01v-4.527h1.479v-1.047h-1.479v-1.839h-1.275zm7.545 9.588c2.102 0 3.523-1.516 3.523-3.941 0-2.431-1.421-3.94-3.523-3.94-2.109 0-3.53 1.509-3.53 3.94 0 2.425 1.421 3.941 3.53 3.941zm0-1.121c-1.347 0-2.234-1.025-2.234-2.82 0-1.794.887-2.819 2.234-2.819 1.348 0 2.227 1.025 2.227 2.819 0 1.795-.879 2.82-2.227 2.82zm5.304.989h1.275v-4.746c0-1.077.644-1.787 1.633-1.787.307 0 .578.036.681.073v-1.238c-.103-.014-.293-.051-.513-.051-.893 0-1.596.535-1.845 1.377h-.03v-1.245h-1.201V258zm4.989-5.515c0 1.098.696 1.765 2.131 2.109l1.209.293c.871.213 1.172.528 1.172 1.077 0 .688-.637 1.128-1.67 1.128s-1.619-.418-1.773-1.289h-1.274c.146 1.428 1.26 2.329 3.047 2.329 1.699 0 2.951-.938 2.951-2.263 0-1.092-.556-1.692-2.094-2.066l-1.209-.293c-.849-.205-1.238-.564-1.238-1.091 0-.667.616-1.128 1.546-1.128.937 0 1.523.491 1.619 1.289h1.215c-.051-1.348-1.164-2.329-2.834-2.329-1.648 0-2.798.93-2.798 2.234z" fill="#251A3F"/>
  <path d="M362.724 250.343c.24 0 .432.193.432.433v4.589a.432.432 0 01-.432.433h-4.588a.433.433 0 01-.433-.433v-4.589c0-.24.193-.433.433-.433h4.588zm-.433 4.59v-3.725h-3.723v3.725h3.723z" fill="#000"/>
  <path d="M356.338 250.343c.24 0 .433.193.433.433v4.589a.433.433 0 01-.433.433h-2.613v.93h2.612c.24 0 .433.195.433.433v2.615h.932l.001-2.615c0-.238.192-.433.432-.433h4.588c.24 0 .433.195.433.433v2.615h.933l-.001-2.615c0-.238.192-.433.432-.433h2.615v-.93h-2.615a.432.432 0 01-.432-.433v-4.589c0-.24.192-.433.432-.433h2.615v-.932l-2.615-.001a.43.43 0 01-.432-.432v-2.613h-.932v2.613c0 .24-.193.432-.433.432h-4.588a.43.43 0 01-.432-.432v-2.613h-.932v2.613c0 .24-.193.432-.433.432h-2.613v.932l2.613.001zm11.663 5.022v1.796c0 .24-.195.433-.433.433h-2.615v2.615a.433.433 0 01-.433.432h-1.797a.434.434 0 01-.433-.432v-2.615h-3.722v2.615a.434.434 0 01-.433.432h-1.797a.434.434 0 01-.433-.432v-2.615h-2.613a.432.432 0 01-.433-.433v-1.796c0-.24.193-.432.433-.432h2.612l.001-3.725h-2.613a.432.432 0 01-.433-.432v-1.797c0-.239.193-.433.433-.433h2.612l.001-2.613c0-.24.195-.433.433-.433h1.797c.238 0 .433.193.433.433v2.612h3.722v-2.612c0-.24.195-.433.433-.433h1.798c.238 0 .433.193.433.433v2.612h2.615c.238 0 .432.194.432.433v1.797a.433.433 0 01-.432.432l-2.616.001v3.725h2.615c.238 0 .432.192.432.432h.001z" fill="#000"/>
  <g filter="url(#T7lt25qAjb)">
    <path fill-rule="evenodd" clip-rule="evenodd" d="M400 233a8 8 0 018-8h231a8 8 0 018 8v242a8 8 0 01-8 8H408a8 8 0 01-8-8V233z" fill="#fff"/>
    <path d="M400.5 233a7.5 7.5 0 017.5-7.5h231a7.5 7.5 0 017.5 7.5v242a7.5 7.5 0 01-7.5 7.5H408a7.5 7.5 0 01-7.5-7.5V233z" stroke="#D8D8D8"/>
  </g>
  <path d="M435.729 261.604l4.862-5.744c.619-.729.101-1.86-.871-1.86h-9.723c-.96 0-1.49 1.118-.871 1.86l4.861 5.744a1.156 1.156 0 001.742 0zm36.201.396v-10.569h-2.564l-3.003 7.588h-.058l-3.003-7.588h-2.564V262h1.97v-7.134h.059l2.871 7.134h1.392l2.871-7.134h.058V262h1.971zm5.67.168c2.373 0 3.889-1.516 3.889-4.101 0-2.549-1.538-4.087-3.889-4.087s-3.889 1.545-3.889 4.087c0 2.578 1.516 4.101 3.889 4.101zm0-1.633c-1.055 0-1.721-.886-1.721-2.461 0-1.56.681-2.461 1.721-2.461s1.714.901 1.714 2.461c0 1.575-.667 2.461-1.714 2.461zm12.474-6.387h-2.234l-1.626 5.962h-.044l-1.633-5.962h-2.293l2.718 7.852h2.417l2.695-7.852zm4.542 1.414c.952 0 1.604.688 1.648 1.692h-3.333c.074-.982.747-1.692 1.685-1.692zm1.677 4.036c-.198.6-.798.988-1.582.988-1.091 0-1.802-.769-1.802-1.889v-.132h5.413v-.652c0-2.388-1.443-3.933-3.728-3.933-2.322 0-3.787 1.626-3.787 4.131 0 2.512 1.451 4.057 3.868 4.057 1.94 0 3.347-1.032 3.581-2.57h-1.963zm14.598-5.45h-2.109l-1.194 5.823h-.044l-1.399-5.823h-2.05l-1.392 5.823h-.044l-1.186-5.823h-2.154l2.088 7.852h2.248l1.414-5.552h.044l1.421 5.552h2.277l2.08-7.852zm4.814 8.02c2.373 0 3.889-1.516 3.889-4.101 0-2.549-1.538-4.087-3.889-4.087-2.352 0-3.89 1.545-3.89 4.087 0 2.578 1.516 4.101 3.89 4.101zm0-1.633c-1.055 0-1.722-.886-1.722-2.461 0-1.56.681-2.461 1.722-2.461 1.04 0 1.713.901 1.713 2.461 0 1.575-.666 2.461-1.713 2.461zm5.486 1.465h2.139v-4.387c0-1.106.615-1.751 1.67-1.751.308 0 .601.052.776.125v-1.883a2.21 2.21 0 00-.608-.08c-.922 0-1.589.542-1.867 1.538h-.044v-1.414h-2.066V262zm8.175-4.702h-.029v-5.867h-2.139V262h2.139v-2.593l.557-.6 2.248 3.193h2.461l-3.142-4.482 2.996-3.37h-2.425l-2.666 3.15zm6.066-.842c0 1.179.769 1.94 2.285 2.263l1.34.278c.769.176 1.04.41 1.04.828 0 .512-.498.842-1.303.842-.85 0-1.341-.366-1.473-1.055h-2.087c.139 1.546 1.392 2.556 3.56 2.556 2.021 0 3.435-1.018 3.435-2.563 0-1.15-.674-1.794-2.315-2.139l-1.34-.285c-.791-.169-1.084-.44-1.084-.843 0-.52.491-.857 1.23-.857.791 0 1.268.433 1.333 1.07h1.971c-.044-1.538-1.289-2.571-3.304-2.571-1.999 0-3.288.981-3.288 2.476zM462.203 301v-4.578h4.68v-1.172h-4.68v-3.632h5.098v-1.187h-6.416V301h1.318zm13.155-7.617h-1.274v4.475c0 1.296-.747 2.146-1.985 2.146-1.179 0-1.758-.667-1.758-1.904v-4.717h-1.274v4.944c0 1.728.974 2.805 2.637 2.805 1.172 0 1.963-.491 2.417-1.37h.029V301h1.208v-7.617zm2.148 7.617h1.274v-4.482c0-1.289.784-2.139 1.985-2.139 1.172 0 1.75.674 1.75 1.904V301h1.275v-4.944c0-1.728-.967-2.805-2.637-2.805-1.179 0-1.992.527-2.417 1.348h-.029v-1.216h-1.201V301zm11.287.132c1.099 0 1.97-.542 2.461-1.421h.022V301h1.216v-10.569h-1.274v4.19h-.03c-.454-.835-1.333-1.37-2.424-1.37-1.919 0-3.23 1.553-3.23 3.94 0 2.388 1.318 3.941 3.259 3.941zm.242-6.76c1.311 0 2.19 1.12 2.19 2.819 0 1.707-.879 2.82-2.19 2.82-1.348 0-2.197-1.091-2.197-2.82 0-1.721.849-2.819 2.197-2.819zm5.67 6.628h1.274v-4.746c0-1.077.645-1.787 1.634-1.787.307 0 .578.036.681.073v-1.238c-.103-.014-.293-.051-.513-.051-.893 0-1.597.535-1.846 1.377h-.029v-1.245h-1.201V301zm7.486-.952c-.915 0-1.523-.476-1.523-1.201 0-.718.586-1.172 1.611-1.238l2.036-.125v.623c0 1.099-.922 1.941-2.124 1.941zm-.285 1.084c1.025 0 1.992-.571 2.446-1.443h.029V301h1.209v-5.266c0-1.516-1.128-2.483-2.915-2.483-1.802 0-2.93 1.011-3.018 2.329h1.231c.161-.747.776-1.208 1.757-1.208 1.055 0 1.67.556 1.67 1.486v.638l-2.182.124c-1.758.103-2.761.923-2.761 2.227 0 1.369 1.018 2.285 2.534 2.285zm5.86-.132h1.275v-7.617h-1.275V301zm.637-8.972a.796.796 0 00.799-.799.792.792 0 00-.799-.798.796.796 0 00-.798.798.8.8 0 00.798.799zm2.719 3.457c0 1.098.696 1.765 2.131 2.109l1.209.293c.871.213 1.171.528 1.171 1.077 0 .688-.637 1.128-1.67 1.128-1.032 0-1.618-.418-1.772-1.289h-1.274c.146 1.428 1.259 2.329 3.046 2.329 1.7 0 2.952-.938 2.952-2.263 0-1.092-.556-1.692-2.095-2.066l-1.208-.293c-.85-.205-1.238-.564-1.238-1.091 0-.667.615-1.128 1.546-1.128.937 0 1.523.491 1.618 1.289h1.216c-.051-1.348-1.165-2.329-2.834-2.329-1.648 0-2.798.93-2.798 2.234zm7.677 5.515h1.274v-7.617h-1.274V301zm.637-8.972a.795.795 0 00.798-.799.79.79 0 00-.798-.798.796.796 0 00-.799.798.8.8 0 00.799.799zm2.85 8.972h1.274v-4.482c0-1.289.784-2.139 1.985-2.139 1.172 0 1.751.674 1.751 1.904V301h1.274v-4.944c0-1.728-.967-2.805-2.637-2.805-1.179 0-1.992.527-2.417 1.348h-.029v-1.216h-1.201V301zm11.5-1.062c-1.311 0-2.168-1.069-2.168-2.776 0-1.706.857-2.79 2.168-2.79 1.326 0 2.212 1.113 2.212 2.79s-.886 2.776-2.212 2.776zm.044 3.933c2.102 0 3.442-1.208 3.442-3.025v-7.463h-1.215v1.282h-.022c-.506-.887-1.399-1.414-2.476-1.414-1.97 0-3.245 1.523-3.245 3.911 0 2.366 1.275 3.897 3.216 3.897 1.069 0 1.97-.542 2.439-1.37h.029v1.201c0 1.135-.798 1.897-2.117 1.897-.952 0-1.706-.461-1.955-1.157h-1.311c.212 1.296 1.538 2.241 3.215 2.241z" fill="#251A3F"/>
  <path d="M437.724 293.343c.24 0 .432.193.432.433v4.589a.432.432 0 01-.432.433h-4.588a.433.433 0 01-.433-.433v-4.589c0-.24.193-.433.433-.433h4.588zm-.433 4.59v-3.725h-3.723v3.725h3.723z" fill="#000"/>
  <path d="M431.338 293.343c.24 0 .433.193.433.433v4.589a.433.433 0 01-.433.433h-2.613v.93h2.612c.24 0 .433.195.433.433v2.615h.932l.001-2.615c0-.238.192-.433.432-.433h4.588c.24 0 .433.195.433.433v2.615h.933l-.001-2.615c0-.238.192-.433.432-.433h2.615v-.93h-2.615a.432.432 0 01-.432-.433v-4.589c0-.24.192-.433.432-.433h2.615v-.932l-2.615-.001a.43.43 0 01-.432-.432v-2.613h-.932v2.613c0 .24-.193.432-.433.432h-4.588a.43.43 0 01-.432-.432v-2.613h-.932v2.613c0 .24-.193.432-.433.432h-2.613v.932l2.613.001zm11.663 5.022v1.796c0 .24-.195.433-.433.433h-2.615v2.615a.433.433 0 01-.433.432h-1.797a.434.434 0 01-.433-.432v-2.615h-3.722v2.615a.434.434 0 01-.433.432h-1.797a.434.434 0 01-.433-.432v-2.615h-2.613a.432.432 0 01-.433-.433v-1.796c0-.24.193-.432.433-.432h2.612l.001-3.725h-2.613a.432.432 0 01-.433-.432v-1.797c0-.239.193-.433.433-.433h2.612l.001-2.613c0-.24.195-.433.433-.433h1.797c.238 0 .433.193.433.433v2.612h3.722v-2.612c0-.24.195-.433.433-.433h1.798c.238 0 .433.193.433.433v2.612h2.615c.238 0 .432.194.432.433v1.797a.433.433 0 01-.432.432l-2.616.001v3.725h2.615c.238 0 .432.192.432.432h.001z" fill="#000"/>
  <rect x="411.859" y="320" width="224" height="32" rx="10" fill="#029D7F"/>
  <path d="M469.798 335.627v-1.003h-4.299v1.157h2.981v.191c0 1.772-1.289 2.988-3.164 2.988-2.153 0-3.486-1.648-3.486-4.307 0-2.614 1.311-4.182 3.486-4.182 1.487 0 2.593.813 3.032 2.241h1.384c-.395-2.102-2.131-3.457-4.416-3.457-2.959 0-4.841 2.102-4.841 5.406 0 3.361 1.889 5.515 4.841 5.515 2.82 0 4.482-1.692 4.482-4.549zm1.986 4.373h1.275v-4.746c0-1.077.644-1.787 1.633-1.787.308 0 .579.036.681.073v-1.238c-.102-.014-.293-.051-.513-.051-.893 0-1.596.535-1.845 1.377h-.03v-1.245h-1.201V340zm7.911.132c2.103 0 3.523-1.516 3.523-3.941 0-2.431-1.42-3.94-3.523-3.94-2.109 0-3.53 1.509-3.53 3.94 0 2.425 1.421 3.941 3.53 3.941zm0-1.121c-1.347 0-2.233-1.025-2.233-2.82 0-1.794.886-2.819 2.233-2.819 1.348 0 2.227 1.025 2.227 2.819 0 1.795-.879 2.82-2.227 2.82zm14.994-6.628h-1.26l-1.523 6.196h-.029l-1.729-6.196h-1.23l-1.721 6.196h-.03l-1.523-6.196h-1.267l2.131 7.617h1.296l1.714-5.896h.03l1.721 5.896h1.296l2.124-7.617zm1.95-1.839v1.839h-1.136v1.047h1.136v4.592c0 1.465.542 2.037 1.94 2.037.301 0 .652-.022.806-.059v-1.069a5.16 5.16 0 01-.527.036c-.652 0-.945-.315-.945-1.01v-4.527h1.479v-1.047h-1.479v-1.839h-1.274zm4.673 9.456h1.275v-4.438c0-1.319.784-2.183 2.051-2.183 1.193 0 1.801.725 1.801 1.933V340h1.275v-4.922c0-1.699-1.011-2.827-2.681-2.827-1.157 0-1.992.498-2.417 1.348h-.029v-4.168h-1.275V340zm18.826-1.187h-5.23v-3.632h4.959v-1.172h-4.959v-3.391h5.23v-1.187h-6.548V340h6.548v-1.187zm4.732-1.713l1.824 2.9h1.414l-2.535-3.86 2.571-3.757h-1.421l-1.809 2.856h-.029l-1.831-2.856h-1.421l2.549 3.808-2.593 3.809h1.414l1.838-2.9h.029zm8.541-4.849c-1.106 0-1.992.564-2.461 1.421h-.029v-1.289h-1.208v10.159h1.274v-3.78h.029c.455.835 1.333 1.37 2.425 1.37 1.919 0 3.23-1.553 3.23-3.941 0-2.387-1.319-3.94-3.26-3.94zm-.249 6.76c-1.303 0-2.182-1.12-2.182-2.82 0-1.691.879-2.819 2.182-2.819 1.355 0 2.205 1.098 2.205 2.819 0 1.729-.85 2.82-2.205 2.82zm8.344-5.654c1.201 0 1.999.908 2.029 2.183h-4.139c.081-1.268.916-2.183 2.11-2.183zm1.999 4.46c-.212.718-.923 1.209-1.889 1.209-1.37 0-2.227-.96-2.227-2.417v-.073h5.464v-.484c0-2.307-1.267-3.801-3.325-3.801-2.102 0-3.45 1.604-3.45 3.97 0 2.395 1.326 3.911 3.508 3.911 1.663 0 2.952-.982 3.172-2.315h-1.253zm3.129 2.183h1.274v-4.746c0-1.077.645-1.787 1.633-1.787.308 0 .579.036.682.073v-1.238c-.103-.014-.293-.051-.513-.051-.894 0-1.597.535-1.846 1.377h-.029v-1.245h-1.201V340zm5.186 0h1.275v-7.617h-1.275V340zm.638-8.972a.796.796 0 00.798-.799.791.791 0 00-.798-.798.796.796 0 00-.799.798.8.8 0 00.799.799zm2.85 8.972h1.274v-4.775c0-1.055.733-1.846 1.743-1.846.945 0 1.56.6 1.56 1.516V340h1.275v-4.841c0-1.033.71-1.78 1.721-1.78 1.003 0 1.582.615 1.582 1.655V340h1.274v-5.259c0-1.509-.974-2.49-2.482-2.49-1.07 0-1.963.542-2.388 1.45h-.029c-.33-.923-1.099-1.45-2.139-1.45-1.026 0-1.802.542-2.161 1.348h-.029v-1.216h-1.201V340zm15.601-6.643c1.202 0 2 .908 2.029 2.183H568.8c.081-1.268.916-2.183 2.109-2.183zm2 4.46c-.212.718-.923 1.209-1.89 1.209-1.369 0-2.226-.96-2.226-2.417v-.073h5.464v-.484c0-2.307-1.268-3.801-3.326-3.801-2.102 0-3.449 1.604-3.449 3.97 0 2.395 1.325 3.911 3.508 3.911 1.663 0 2.952-.982 3.171-2.315h-1.252zm3.128 2.183h1.275v-4.482c0-1.289.784-2.139 1.985-2.139 1.172 0 1.75.674 1.75 1.904V340h1.275v-4.944c0-1.728-.967-2.805-2.637-2.805-1.179 0-1.992.527-2.417 1.348h-.029v-1.216h-1.202V340zm8.813-9.456v1.839h-1.136v1.047h1.136v4.592c0 1.465.542 2.037 1.94 2.037.301 0 .652-.022.806-.059v-1.069a5.16 5.16 0 01-.527.036c-.652 0-.945-.315-.945-1.01v-4.527h1.479v-1.047h-1.479v-1.839h-1.274zm4.476 3.941c0 1.098.695 1.765 2.131 2.109l1.209.293c.871.213 1.171.528 1.171 1.077 0 .688-.637 1.128-1.67 1.128-1.032 0-1.618-.418-1.772-1.289h-1.274c.146 1.428 1.259 2.329 3.046 2.329 1.7 0 2.952-.938 2.952-2.263 0-1.092-.557-1.692-2.095-2.066l-1.208-.293c-.85-.205-1.238-.564-1.238-1.091 0-.667.615-1.128 1.546-1.128.937 0 1.523.491 1.618 1.289h1.216c-.051-1.348-1.165-2.329-2.834-2.329-1.648 0-2.798.93-2.798 2.234zm-151.602-1.642c.24 0 .432.193.432.433v4.589a.432.432 0 01-.432.433h-4.588a.433.433 0 01-.433-.433v-4.589c0-.24.193-.433.433-.433h4.588zm-.433 4.59v-3.725h-3.723v3.725h3.723z" fill="#fff"/>
  <path d="M431.338 332.843c.24 0 .433.193.433.433v4.589a.433.433 0 01-.433.433h-2.613v.93h2.612c.24 0 .433.195.433.433v2.615h.932l.001-2.615c0-.238.192-.433.432-.433h4.588c.24 0 .433.195.433.433v2.615h.933l-.001-2.615c0-.238.192-.433.432-.433h2.615v-.93h-2.615a.432.432 0 01-.432-.433v-4.589c0-.24.192-.433.432-.433h2.615v-.932l-2.615-.001a.43.43 0 01-.432-.432v-2.613h-.932v2.613c0 .24-.193.432-.433.432h-4.588a.43.43 0 01-.432-.432v-2.613h-.932v2.613c0 .24-.193.432-.433.432h-2.613v.932l2.613.001zm11.663 5.022v1.796c0 .24-.195.433-.433.433h-2.615v2.615a.433.433 0 01-.433.432h-1.797a.434.434 0 01-.433-.432v-2.615h-3.722v2.615a.434.434 0 01-.433.432h-1.797a.434.434 0 01-.433-.432v-2.615h-2.613a.432.432 0 01-.433-.433v-1.796c0-.24.193-.432.433-.432h2.612l.001-3.725h-2.613a.432.432 0 01-.433-.432v-1.797c0-.239.193-.433.433-.433h2.612l.001-2.613c0-.24.195-.433.433-.433h1.797c.238 0 .433.193.433.433v2.612h3.722v-2.612c0-.24.195-.433.433-.433h1.798c.238 0 .433.193.433.433v2.612h2.615c.238 0 .432.194.432.433v1.797a.433.433 0 01-.432.432l-2.616.001v3.725h2.615c.238 0 .432.192.432.432h.001z" fill="#fff"/>
  <path d="M460.885 368.431V379h1.318v-3.772h2.439c1.985 0 3.399-1.399 3.399-3.406 0-1.999-1.399-3.391-3.384-3.391h-3.772zm1.318 1.172h2.109c1.517 0 2.374.82 2.374 2.219 0 1.407-.865 2.234-2.374 2.234h-2.109v-4.453zm7.648 9.397h1.274v-4.746c0-1.077.645-1.787 1.633-1.787.308 0 .579.036.682.073v-1.238c-.103-.014-.293-.051-.513-.051-.894 0-1.597.535-1.846 1.377h-.029v-1.245h-1.201V379zm7.911.132c2.102 0 3.523-1.516 3.523-3.941 0-2.431-1.421-3.94-3.523-3.94-2.109 0-3.53 1.509-3.53 3.94 0 2.425 1.421 3.941 3.53 3.941zm0-1.121c-1.348 0-2.234-1.025-2.234-2.82 0-1.794.886-2.819 2.234-2.819 1.348 0 2.226 1.025 2.226 2.819 0 1.795-.878 2.82-2.226 2.82zm8.189 1.121c1.099 0 1.971-.542 2.461-1.421h.022V379h1.216v-10.569h-1.274v4.19h-.03c-.454-.835-1.333-1.37-2.424-1.37-1.919 0-3.23 1.553-3.23 3.94 0 2.388 1.319 3.941 3.259 3.941zm.242-6.76c1.311 0 2.19 1.12 2.19 2.819 0 1.707-.879 2.82-2.19 2.82-1.348 0-2.197-1.091-2.197-2.82 0-1.721.849-2.819 2.197-2.819zm11.925-.989h-1.274v4.475c0 1.296-.747 2.146-1.985 2.146-1.179 0-1.758-.667-1.758-1.904v-4.717h-1.274v4.944c0 1.728.974 2.805 2.636 2.805 1.172 0 1.963-.491 2.417-1.37h.03V379h1.208v-7.617zm8.475 2.497c-.161-1.369-1.296-2.629-3.2-2.629-2.103 0-3.501 1.538-3.501 3.94 0 2.454 1.406 3.941 3.515 3.941 1.729 0 3.003-1.07 3.201-2.586h-1.253c-.219.916-.9 1.465-1.941 1.465-1.318 0-2.226-1.047-2.226-2.82 0-1.728.893-2.819 2.212-2.819 1.12 0 1.765.681 1.948 1.508h1.245zm2.089-4.336v1.839h-1.136v1.047h1.136v4.592c0 1.465.542 2.037 1.941 2.037.3 0 .651-.022.805-.059v-1.069a5.16 5.16 0 01-.527.036c-.652 0-.945-.315-.945-1.01v-4.527h1.48v-1.047h-1.48v-1.839h-1.274zm7.861 6.622c.124 1.823 1.662 3.01 3.969 3.01 2.366 0 3.904-1.223 3.904-3.179 0-1.494-.871-2.373-3.076-2.856l-1.172-.257c-1.443-.315-2.007-.886-2.007-1.721 0-1.077 1.018-1.721 2.337-1.721 1.377 0 2.292.71 2.409 1.868h1.319c-.059-1.795-1.582-3.055-3.692-3.055-2.19 0-3.728 1.224-3.728 2.967 0 1.501.916 2.461 3.033 2.922l1.171.256c1.465.323 2.051.909 2.051 1.795 0 1.04-1.04 1.794-2.475 1.794-1.516 0-2.571-.688-2.725-1.823h-1.318zm10.123-6.622v1.839h-1.135v1.047h1.135v4.592c0 1.465.542 2.037 1.941 2.037.3 0 .652-.022.805-.059v-1.069c-.087.014-.38.036-.527.036-.652 0-.945-.315-.945-1.01v-4.527h1.48v-1.047h-1.48v-1.839h-1.274zm6.974 8.504c-.916 0-1.524-.476-1.524-1.201 0-.718.586-1.172 1.611-1.238l2.037-.125v.623c0 1.099-.923 1.941-2.124 1.941zm-.286 1.084c1.025 0 1.992-.571 2.446-1.443h.029V379h1.209v-5.266c0-1.516-1.128-2.483-2.915-2.483-1.802 0-2.93 1.011-3.018 2.329h1.231c.161-.747.776-1.208 1.758-1.208 1.054 0 1.67.556 1.67 1.486v.638l-2.183.124c-1.758.103-2.761.923-2.761 2.227 0 1.369 1.018 2.285 2.534 2.285zm6.205-9.588v1.839h-1.136v1.047h1.136v4.592c0 1.465.542 2.037 1.94 2.037.301 0 .652-.022.806-.059v-1.069a5.16 5.16 0 01-.527.036c-.652 0-.945-.315-.945-1.01v-4.527h1.479v-1.047h-1.479v-1.839h-1.274zm10.862 1.839h-1.274v4.475c0 1.296-.747 2.146-1.985 2.146-1.179 0-1.758-.667-1.758-1.904v-4.717h-1.274v4.944c0 1.728.974 2.805 2.637 2.805 1.172 0 1.963-.491 2.417-1.37h.029V379h1.208v-7.617zm2.016 2.102c0 1.098.695 1.765 2.131 2.109l1.209.293c.871.213 1.171.528 1.171 1.077 0 .688-.637 1.128-1.67 1.128-1.032 0-1.618-.418-1.772-1.289h-1.274c.146 1.428 1.259 2.329 3.046 2.329 1.7 0 2.952-.938 2.952-2.263 0-1.092-.557-1.692-2.095-2.066l-1.208-.293c-.85-.205-1.238-.564-1.238-1.091 0-.667.615-1.128 1.546-1.128.937 0 1.523.491 1.618 1.289h1.216c-.051-1.348-1.165-2.329-2.834-2.329-1.648 0-2.798.93-2.798 2.234z" fill="#251A3F"/>
  <path d="M437.724 371.343c.24 0 .432.193.432.433v4.589a.432.432 0 01-.432.433h-4.588a.433.433 0 01-.433-.433v-4.589c0-.24.193-.433.433-.433h4.588zm-.433 4.59v-3.725h-3.723v3.725h3.723z" fill="#000"/>
  <path d="M431.338 371.343c.24 0 .433.193.433.433v4.589a.433.433 0 01-.433.433h-2.613v.93h2.612c.24 0 .433.195.433.433v2.615h.932l.001-2.615c0-.238.192-.433.432-.433h4.588c.24 0 .433.195.433.433v2.615h.933l-.001-2.615c0-.238.192-.433.432-.433h2.615v-.93h-2.615a.432.432 0 01-.432-.433v-4.589c0-.24.192-.433.432-.433h2.615v-.932l-2.615-.001a.43.43 0 01-.432-.432v-2.613h-.932v2.613c0 .24-.193.432-.433.432h-4.588a.43.43 0 01-.432-.432v-2.613h-.932v2.613c0 .24-.193.432-.433.432h-2.613v.932l2.613.001zm11.663 5.022v1.796c0 .24-.195.433-.433.433h-2.615v2.615a.433.433 0 01-.433.432h-1.797a.434.434 0 01-.433-.432v-2.615h-3.722v2.615a.434.434 0 01-.433.432h-1.797a.434.434 0 01-.433-.432v-2.615h-2.613a.432.432 0 01-.433-.433v-1.796c0-.24.193-.432.433-.432h2.612l.001-3.725h-2.613a.432.432 0 01-.433-.432v-1.797c0-.239.193-.433.433-.433h2.612l.001-2.613c0-.24.195-.433.433-.433h1.797c.238 0 .433.193.433.433v2.612h3.722v-2.612c0-.24.195-.433.433-.433h1.798c.238 0 .433.193.433.433v2.612h2.615c.238 0 .432.194.432.433v1.797a.433.433 0 01-.432.432l-2.616.001v3.725h2.615c.238 0 .432.192.432.432h.001z" fill="#000"/>
  <path d="M464.876 418v-9.382h3.333v-1.187h-7.983v1.187h3.332V418h1.318zm6.095-6.643c1.201 0 2 .908 2.029 2.183h-4.138c.08-1.268.915-2.183 2.109-2.183zm2 4.46c-.213.718-.923 1.209-1.89 1.209-1.369 0-2.226-.96-2.226-2.417v-.073h5.463v-.484c0-2.307-1.267-3.801-3.325-3.801-2.102 0-3.449 1.604-3.449 3.97 0 2.395 1.325 3.911 3.508 3.911 1.662 0 2.952-.982 3.171-2.315h-1.252zm5.641 1.231c-.916 0-1.524-.476-1.524-1.201 0-.718.586-1.172 1.611-1.238l2.037-.125v.623c0 1.099-.923 1.941-2.124 1.941zm-.286 1.084c1.025 0 1.992-.571 2.446-1.443h.029V418h1.209v-5.266c0-1.516-1.128-2.483-2.915-2.483-1.802 0-2.93 1.011-3.018 2.329h1.231c.161-.747.776-1.208 1.758-1.208 1.054 0 1.67.556 1.67 1.486v.638l-2.183.124c-1.758.103-2.761.923-2.761 2.227 0 1.369 1.018 2.285 2.534 2.285zm5.794-.132h1.275v-4.775c0-1.055.732-1.846 1.743-1.846.945 0 1.56.6 1.56 1.516V418h1.274v-4.841c0-1.033.711-1.78 1.722-1.78 1.003 0 1.582.615 1.582 1.655V418h1.274v-5.259c0-1.509-.974-2.49-2.483-2.49-1.069 0-1.963.542-2.388 1.45h-.029c-.329-.923-1.098-1.45-2.139-1.45-1.025 0-1.801.542-2.16 1.348h-.029v-1.216h-1.202V418zm23.792 0h1.655l-1.853-1.97c.578-.908.871-2.08.871-3.692v-.322h-1.215v.315c0 1.304-.162 2.168-.506 2.813l-2.615-2.82c1.612-.85 2.264-1.634 2.264-2.71 0-1.37-1.121-2.359-2.674-2.359-1.523 0-2.666 1.004-2.666 2.344 0 .769.366 1.45 1.311 2.454-.058.022-.19.095-.403.205-1.398.74-2.072 1.692-2.072 2.93 0 1.757 1.457 2.988 3.545 2.988 1.252 0 2.483-.447 3.376-1.238l.982 1.062zm-5.076-4.973c.066-.044.256-.147.351-.191l2.974 3.26c-.564.6-1.545.981-2.49.981-1.406 0-2.359-.798-2.359-1.977 0-.813.433-1.407 1.524-2.073zm.71-1.443c-.82-.82-1.128-1.333-1.128-1.912 0-.805.594-1.384 1.429-1.384.857 0 1.435.564 1.435 1.37 0 .754-.469 1.281-1.736 1.926zm12.3-2.981h2.468c1.362 0 2.183.754 2.183 2.022 0 1.296-.769 2.028-2.124 2.028h-2.527v-4.05zm0 5.215h2.527l2.263 4.182h1.545l-2.446-4.387c1.326-.418 2.124-1.56 2.124-3.032 0-1.905-1.333-3.15-3.369-3.15h-3.963V418h1.319v-4.182zm11.024-2.461c1.201 0 1.999.908 2.029 2.183h-4.139c.081-1.268.916-2.183 2.11-2.183zm1.999 4.46c-.212.718-.923 1.209-1.889 1.209-1.37 0-2.227-.96-2.227-2.417v-.073h5.464v-.484c0-2.307-1.267-3.801-3.325-3.801-2.102 0-3.45 1.604-3.45 3.97 0 2.395 1.326 3.911 3.508 3.911 1.663 0 2.952-.982 3.172-2.315h-1.253zm9.457-2.937c-.161-1.369-1.296-2.629-3.201-2.629-2.102 0-3.501 1.538-3.501 3.94 0 2.454 1.407 3.941 3.516 3.941 1.728 0 3.003-1.07 3.201-2.586h-1.253c-.22.916-.901 1.465-1.941 1.465-1.318 0-2.226-1.047-2.226-2.82 0-1.728.893-2.819 2.212-2.819 1.12 0 1.765.681 1.948 1.508h1.245zm1.678 5.12h1.275v-4.746c0-1.077.644-1.787 1.633-1.787.308 0 .579.036.681.073v-1.238c-.102-.014-.293-.051-.513-.051-.893 0-1.596.535-1.845 1.377h-.03v-1.245h-1.201V418zm11.376-7.617h-1.275v4.475c0 1.296-.747 2.146-1.984 2.146-1.18 0-1.758-.667-1.758-1.904v-4.717h-1.275v4.944c0 1.728.974 2.805 2.637 2.805 1.172 0 1.963-.491 2.417-1.37h.029V418h1.209v-7.617zm2.213 7.617h1.274v-7.617h-1.274V418zm.637-8.972a.795.795 0 00.798-.799.79.79 0 00-.798-.798.796.796 0 00-.798.798.8.8 0 00.798.799zm3.26-.484v1.839h-1.135v1.047h1.135v4.592c0 1.465.542 2.037 1.941 2.037.301 0 .652-.022.806-.059v-1.069a5.16 5.16 0 01-.527.036c-.652 0-.945-.315-.945-1.01v-4.527h1.479v-1.047h-1.479v-1.839h-1.275zm4.674 9.456h1.275v-7.617h-1.275V418zm.638-8.972a.796.796 0 00.798-.799.791.791 0 00-.798-.798.796.796 0 00-.799.798.8.8 0 00.799.799zm2.85 8.972h1.274v-4.482c0-1.289.784-2.139 1.985-2.139 1.172 0 1.75.674 1.75 1.904V418h1.275v-4.944c0-1.728-.967-2.805-2.637-2.805-1.179 0-1.992.527-2.417 1.348h-.029v-1.216h-1.201V418zm11.5-1.062c-1.311 0-2.168-1.069-2.168-2.776 0-1.706.857-2.79 2.168-2.79 1.325 0 2.212 1.113 2.212 2.79s-.887 2.776-2.212 2.776zm.044 3.933c2.102 0 3.442-1.208 3.442-3.025v-7.463h-1.216v1.282h-.022c-.505-.887-1.399-1.414-2.475-1.414-1.97 0-3.245 1.523-3.245 3.911 0 2.366 1.275 3.897 3.215 3.897 1.07 0 1.971-.542 2.439-1.37h.03v1.201c0 1.135-.799 1.897-2.117 1.897-.952 0-1.707-.461-1.956-1.157h-1.311c.213 1.296 1.538 2.241 3.216 2.241z" fill="#251A3F"/>
  <path d="M437.724 410.343c.24 0 .432.193.432.433v4.589a.432.432 0 01-.432.433h-4.588a.433.433 0 01-.433-.433v-4.589c0-.24.193-.433.433-.433h4.588zm-.433 4.59v-3.725h-3.723v3.725h3.723z" fill="#000"/>
  <path d="M431.338 410.343c.24 0 .433.193.433.433v4.589a.433.433 0 01-.433.433h-2.613v.93h2.612c.24 0 .433.195.433.433v2.615h.932l.001-2.615c0-.238.192-.433.432-.433h4.588c.24 0 .433.195.433.433v2.615h.933l-.001-2.615c0-.238.192-.433.432-.433h2.615v-.93h-2.615a.432.432 0 01-.432-.433v-4.589c0-.24.192-.433.432-.433h2.615v-.932l-2.615-.001a.43.43 0 01-.432-.432v-2.613h-.932v2.613c0 .24-.193.432-.433.432h-4.588a.43.43 0 01-.432-.432v-2.613h-.932v2.613c0 .24-.193.432-.433.432h-2.613v.932l2.613.001zm11.663 5.022v1.796c0 .24-.195.433-.433.433h-2.615v2.615a.433.433 0 01-.433.432h-1.797a.434.434 0 01-.433-.432v-2.615h-3.722v2.615a.434.434 0 01-.433.432h-1.797a.434.434 0 01-.433-.432v-2.615h-2.613a.432.432 0 01-.433-.433v-1.796c0-.24.193-.432.433-.432h2.612l.001-3.725h-2.613a.432.432 0 01-.433-.432v-1.797c0-.239.193-.433.433-.433h2.612l.001-2.613c0-.24.195-.433.433-.433h1.797c.238 0 .433.193.433.433v2.612h3.722v-2.612c0-.24.195-.433.433-.433h1.798c.238 0 .433.193.433.433v2.612h2.615c.238 0 .432.194.432.433v1.797a.433.433 0 01-.432.432l-2.616.001v3.725h2.615c.238 0 .432.192.432.432h.001z" fill="#000"/>
  <path d="M460.885 446.431V457h1.318v-3.772h2.439c1.985 0 3.399-1.399 3.399-3.406 0-1.999-1.399-3.391-3.384-3.391h-3.772zm1.318 1.172h2.109c1.517 0 2.374.82 2.374 2.219 0 1.407-.865 2.234-2.374 2.234h-2.109v-4.453zm7.648 9.397h1.274v-4.746c0-1.077.645-1.787 1.633-1.787.308 0 .579.036.682.073v-1.238c-.103-.014-.293-.051-.513-.051-.894 0-1.597.535-1.846 1.377h-.029v-1.245h-1.201V457zm7.808-6.643c1.202 0 2 .908 2.029 2.183h-4.138c.081-1.268.916-2.183 2.109-2.183zm2 4.46c-.213.718-.923 1.209-1.89 1.209-1.369 0-2.226-.96-2.226-2.417v-.073h5.464v-.484c0-2.307-1.268-3.801-3.326-3.801-2.102 0-3.449 1.604-3.449 3.97 0 2.395 1.325 3.911 3.508 3.911 1.663 0 2.952-.982 3.171-2.315h-1.252zm2.997-3.332c0 1.098.695 1.765 2.131 2.109l1.208.293c.872.213 1.172.528 1.172 1.077 0 .688-.637 1.128-1.67 1.128-1.032 0-1.618-.418-1.772-1.289h-1.275c.147 1.428 1.26 2.329 3.047 2.329 1.7 0 2.952-.938 2.952-2.263 0-1.092-.557-1.692-2.095-2.066l-1.208-.293c-.85-.205-1.238-.564-1.238-1.091 0-.667.615-1.128 1.545-1.128.938 0 1.524.491 1.619 1.289h1.216c-.051-1.348-1.165-2.329-2.835-2.329-1.648 0-2.797.93-2.797 2.234zm7.479 0c0 1.098.695 1.765 2.131 2.109l1.208.293c.872.213 1.172.528 1.172 1.077 0 .688-.637 1.128-1.67 1.128-1.032 0-1.618-.418-1.772-1.289h-1.274c.146 1.428 1.259 2.329 3.046 2.329 1.7 0 2.952-.938 2.952-2.263 0-1.092-.557-1.692-2.095-2.066l-1.208-.293c-.85-.205-1.238-.564-1.238-1.091 0-.667.615-1.128 1.545-1.128.938 0 1.524.491 1.619 1.289h1.216c-.051-1.348-1.165-2.329-2.835-2.329-1.647 0-2.797.93-2.797 2.234zM508.989 457h1.656l-1.853-1.97c.578-.908.871-2.08.871-3.692v-.322h-1.216v.315c0 1.304-.161 2.168-.505 2.813l-2.615-2.82c1.612-.85 2.263-1.634 2.263-2.71 0-1.37-1.12-2.359-2.673-2.359-1.523 0-2.666 1.004-2.666 2.344 0 .769.366 1.45 1.311 2.454-.059.022-.19.095-.403.205-1.399.74-2.073 1.692-2.073 2.93 0 1.757 1.458 2.988 3.545 2.988 1.253 0 2.483-.447 3.377-1.238l.981 1.062zm-5.075-4.973c.066-.044.256-.147.351-.191l2.974 3.26c-.564.6-1.546.981-2.49.981-1.407 0-2.359-.798-2.359-1.977 0-.813.432-1.407 1.524-2.073zm.71-1.443c-.82-.82-1.128-1.333-1.128-1.912 0-.805.593-1.384 1.428-1.384.857 0 1.436.564 1.436 1.37 0 .754-.469 1.281-1.736 1.926zm10.981-4.153V457h1.319v-3.772h2.439c1.984 0 3.398-1.399 3.398-3.406 0-1.999-1.399-3.391-3.384-3.391h-3.772zm1.319 1.172h2.109c1.516 0 2.373.82 2.373 2.219 0 1.407-.864 2.234-2.373 2.234h-2.109v-4.453zm9.5 8.445c-.915 0-1.523-.476-1.523-1.201 0-.718.586-1.172 1.611-1.238l2.036-.125v.623c0 1.099-.923 1.941-2.124 1.941zm-.286 1.084c1.026 0 1.993-.571 2.447-1.443h.029V457h1.209v-5.266c0-1.516-1.128-2.483-2.915-2.483-1.802 0-2.93 1.011-3.018 2.329h1.23c.162-.747.777-1.208 1.758-1.208 1.055 0 1.67.556 1.67 1.486v.638l-2.182.124c-1.758.103-2.762.923-2.762 2.227 0 1.369 1.018 2.285 2.534 2.285zm5.795-.132h1.274v-4.746c0-1.077.645-1.787 1.634-1.787.307 0 .578.036.681.073v-1.238c-.103-.014-.293-.051-.513-.051-.893 0-1.597.535-1.846 1.377h-.029v-1.245h-1.201V457zm5.531-9.456v1.839h-1.135v1.047h1.135v4.592c0 1.465.542 2.037 1.941 2.037.3 0 .652-.022.805-.059v-1.069c-.087.014-.38.036-.527.036-.652 0-.945-.315-.945-1.01v-4.527h1.48v-1.047h-1.48v-1.839h-1.274zm4.608 9.456h1.274v-4.482c0-1.289.784-2.139 1.985-2.139 1.172 0 1.751.674 1.751 1.904V457h1.274v-4.944c0-1.728-.967-2.805-2.637-2.805-1.179 0-1.992.527-2.417 1.348h-.029v-1.216h-1.201V457zm11.456-6.643c1.201 0 1.999.908 2.029 2.183h-4.138c.08-1.268.915-2.183 2.109-2.183zm1.999 4.46c-.212.718-.922 1.209-1.889 1.209-1.37 0-2.227-.96-2.227-2.417v-.073h5.464v-.484c0-2.307-1.267-3.801-3.325-3.801-2.102 0-3.45 1.604-3.45 3.97 0 2.395 1.326 3.911 3.509 3.911 1.662 0 2.951-.982 3.171-2.315h-1.253zm3.129 2.183h1.274v-4.746c0-1.077.645-1.787 1.634-1.787.307 0 .578.036.681.073v-1.238c-.103-.014-.293-.051-.513-.051-.893 0-1.597.535-1.846 1.377h-.029v-1.245h-1.201V457zm4.989-5.515c0 1.098.696 1.765 2.131 2.109l1.209.293c.871.213 1.172.528 1.172 1.077 0 .688-.638 1.128-1.67 1.128-1.033 0-1.619-.418-1.773-1.289h-1.274c.146 1.428 1.26 2.329 3.047 2.329 1.699 0 2.951-.938 2.951-2.263 0-1.092-.556-1.692-2.094-2.066l-1.209-.293c-.85-.205-1.238-.564-1.238-1.091 0-.667.616-1.128 1.546-1.128.937 0 1.523.491 1.618 1.289h1.216c-.051-1.348-1.164-2.329-2.834-2.329-1.648 0-2.798.93-2.798 2.234zm7.677 5.515h1.274v-4.438c0-1.319.784-2.183 2.051-2.183 1.194 0 1.802.725 1.802 1.933V457h1.274v-4.922c0-1.699-1.011-2.827-2.681-2.827-1.157 0-1.992.498-2.417 1.348h-.029v-4.168h-1.274V457zm8.577 0h1.275v-7.617h-1.275V457zm.638-8.972a.796.796 0 00.798-.799.791.791 0 00-.798-.798.796.796 0 00-.799.798.8.8 0 00.799.799zm6.549 1.223c-1.106 0-1.993.564-2.461 1.421h-.03v-1.289h-1.208v10.159h1.274v-3.78h.03c.454.835 1.333 1.37 2.424 1.37 1.919 0 3.23-1.553 3.23-3.941 0-2.387-1.319-3.94-3.259-3.94zm-.249 6.76c-1.304 0-2.183-1.12-2.183-2.82 0-1.691.879-2.819 2.183-2.819 1.354 0 2.204 1.098 2.204 2.819 0 1.729-.85 2.82-2.204 2.82zm5.157-4.526c0 1.098.696 1.765 2.131 2.109l1.209.293c.871.213 1.172.528 1.172 1.077 0 .688-.638 1.128-1.67 1.128-1.033 0-1.619-.418-1.773-1.289h-1.274c.146 1.428 1.26 2.329 3.047 2.329 1.699 0 2.951-.938 2.951-2.263 0-1.092-.556-1.692-2.094-2.066l-1.209-.293c-.85-.205-1.238-.564-1.238-1.091 0-.667.616-1.128 1.546-1.128.937 0 1.523.491 1.618 1.289h1.216c-.051-1.348-1.164-2.329-2.834-2.329-1.648 0-2.798.93-2.798 2.234z" fill="#251A3F"/>
  <path d="M437.724 449.343c.24 0 .432.193.432.433v4.589a.432.432 0 01-.432.433h-4.588a.433.433 0 01-.433-.433v-4.589c0-.24.193-.433.433-.433h4.588zm-.433 4.59v-3.725h-3.723v3.725h3.723z" fill="#000"/>
  <path d="M431.338 449.343c.24 0 .433.193.433.433v4.589a.433.433 0 01-.433.433h-2.613v.93h2.612c.24 0 .433.195.433.433v2.615h.932l.001-2.615c0-.238.192-.433.432-.433h4.588c.24 0 .433.195.433.433v2.615h.933l-.001-2.615c0-.238.192-.433.432-.433h2.615v-.93h-2.615a.432.432 0 01-.432-.433v-4.589c0-.24.192-.433.432-.433h2.615v-.932l-2.615-.001a.43.43 0 01-.432-.432v-2.613h-.932v2.613c0 .24-.193.432-.433.432h-4.588a.43.43 0 01-.432-.432v-2.613h-.932v2.613c0 .24-.193.432-.433.432h-2.613v.932l2.613.001zm11.663 5.022v1.796c0 .24-.195.433-.433.433h-2.615v2.615a.433.433 0 01-.433.432h-1.797a.434.434 0 01-.433-.432v-2.615h-3.722v2.615a.434.434 0 01-.433.432h-1.797a.434.434 0 01-.433-.432v-2.615h-2.613a.432.432 0 01-.433-.433v-1.796c0-.24.193-.432.433-.432h2.612l.001-3.725h-2.613a.432.432 0 01-.433-.432v-1.797c0-.239.193-.433.433-.433h2.612l.001-2.613c0-.24.195-.433.433-.433h1.797c.238 0 .433.193.433.433v2.612h3.722v-2.612c0-.24.195-.433.433-.433h1.798c.238 0 .433.193.433.433v2.612h2.615c.238 0 .432.194.432.433v1.797a.433.433 0 01-.432.432l-2.616.001v3.725h2.615c.238 0 .432.192.432.432h.001z" fill="#000"/>
  <g filter="url(#T7lt25qAjc)">
    <path fill-rule="evenodd" clip-rule="evenodd" d="M164 163a8 8 0 018-8h229a8 8 0 018 8v242a8 8 0 01-8 8H172a8 8 0 01-8-8V163z" fill="#fff"/>
    <path d="M164.5 163a7.5 7.5 0 017.5-7.5h229a7.5 7.5 0 017.5 7.5v242a7.5 7.5 0 01-7.5 7.5H172a7.5 7.5 0 01-7.5-7.5V163z" stroke="#D8D8D8"/>
  </g>
  <path d="M199.729 191.604l4.862-5.744c.619-.729.101-1.86-.871-1.86h-9.723c-.96 0-1.49 1.118-.871 1.86l4.861 5.744a1.156 1.156 0 001.742 0zm31.843-1.435h-4.622v-8.738h-2.212V192h6.834v-1.831zm8.87-6.021h-2.138v4.498c0 1.04-.593 1.721-1.546 1.721-.944 0-1.464-.557-1.464-1.604v-4.615h-2.139v5.061c0 1.832 1.128 2.937 2.827 2.937 1.187 0 1.963-.571 2.351-1.56h.044V192h2.065v-7.852zm1.884 7.852h2.139v-4.504c0-1.018.607-1.722 1.567-1.722.959 0 1.443.586 1.443 1.612V192h2.138v-5.061c0-1.838-.981-2.937-2.724-2.937-1.209 0-2.036.571-2.454 1.545h-.044v-1.399h-2.065V192zm16.268-4.929c-.095-1.78-1.443-3.091-3.567-3.091-2.351 0-3.852 1.567-3.852 4.087 0 2.563 1.501 4.101 3.867 4.101 2.065 0 3.449-1.193 3.559-3.046h-1.992c-.132.857-.688 1.369-1.545 1.369-1.062 0-1.721-.879-1.721-2.424 0-1.516.659-2.41 1.713-2.41.879 0 1.429.586 1.553 1.414h1.985zm1.583 4.929h2.139v-4.482c0-1.033.593-1.744 1.604-1.744.974 0 1.472.616 1.472 1.626v4.6h2.139v-5.054c0-1.816-.996-2.944-2.74-2.944-1.193 0-2.05.557-2.468 1.545h-.044v-4.116h-2.102V192zm16.349-4.929c-.095-1.78-1.443-3.091-3.567-3.091-2.351 0-3.853 1.567-3.853 4.087 0 2.563 1.502 4.101 3.868 4.101 2.065 0 3.449-1.193 3.559-3.046h-1.992c-.132.857-.689 1.369-1.545 1.369-1.062 0-1.722-.879-1.722-2.424 0-1.516.66-2.41 1.714-2.41.879 0 1.428.586 1.553 1.414h1.985zm1.583 4.929h2.139v-10.569h-2.139V192zm11.324-7.852h-2.138v4.498c0 1.04-.594 1.721-1.546 1.721-.945 0-1.465-.557-1.465-1.604v-4.615h-2.138v5.061c0 1.832 1.128 2.937 2.827 2.937 1.186 0 1.963-.571 2.351-1.56h.044V192h2.065v-7.852zm6.549 7.977c1.978 0 3.186-1.524 3.186-4.051 0-2.534-1.216-4.05-3.193-4.05-1.121 0-1.992.557-2.425 1.487h-.043v-4.08h-2.139V192h2.109v-1.348h.044c.432.916 1.311 1.473 2.461 1.473zm-.74-6.387c1.062 0 1.736.908 1.736 2.336 0 1.436-.666 2.329-1.736 2.329-1.04 0-1.743-.908-1.743-2.329 0-1.406.711-2.336 1.743-2.336zM226.203 231v-4.578h4.68v-1.172h-4.68v-3.632h5.098v-1.187h-6.416V231h1.318zm6.967 0h1.274v-7.617h-1.274V231zm.637-8.972a.795.795 0 00.798-.799.79.79 0 00-.798-.798.796.796 0 00-.799.798.8.8 0 00.799.799zm2.85 8.972h1.274v-4.482c0-1.289.784-2.139 1.985-2.139 1.172 0 1.751.674 1.751 1.904V231h1.274v-4.944c0-1.728-.967-2.805-2.637-2.805-1.179 0-1.992.527-2.417 1.348h-.029v-1.216h-1.201V231zm10.914-.952c-.915 0-1.523-.476-1.523-1.201 0-.718.586-1.172 1.611-1.238l2.036-.125v.623c0 1.099-.923 1.941-2.124 1.941zm-.286 1.084c1.026 0 1.993-.571 2.447-1.443h.029V231h1.208v-5.266c0-1.516-1.127-2.483-2.915-2.483-1.801 0-2.929 1.011-3.017 2.329h1.23c.161-.747.777-1.208 1.758-1.208 1.055 0 1.67.556 1.67 1.486v.638l-2.183.124c-1.757.103-2.761.923-2.761 2.227 0 1.369 1.018 2.285 2.534 2.285zm5.795-.132h1.274v-4.482c0-1.289.784-2.139 1.985-2.139 1.172 0 1.751.674 1.751 1.904V231h1.274v-4.944c0-1.728-.967-2.805-2.637-2.805-1.179 0-1.992.527-2.417 1.348h-.029v-1.216h-1.201V231zm14.73-5.12c-.161-1.369-1.296-2.629-3.201-2.629-2.102 0-3.501 1.538-3.501 3.94 0 2.454 1.407 3.941 3.516 3.941 1.728 0 3.003-1.07 3.201-2.586h-1.253c-.22.916-.901 1.465-1.941 1.465-1.318 0-2.226-1.047-2.226-2.82 0-1.728.893-2.819 2.212-2.819 1.12 0 1.765.681 1.948 1.508h1.245zm4.733-1.523c1.201 0 1.999.908 2.028 2.183h-4.138c.081-1.268.916-2.183 2.11-2.183zm1.999 4.46c-.212.718-.923 1.209-1.89 1.209-1.369 0-2.226-.96-2.226-2.417v-.073h5.464v-.484c0-2.307-1.267-3.801-3.326-3.801-2.102 0-3.449 1.604-3.449 3.97 0 2.395 1.325 3.911 3.508 3.911 1.663 0 2.952-.982 3.171-2.315h-1.252z" fill="#251A3F"/>
  <path d="M201.724 223.343c.24 0 .432.193.432.433v4.589a.432.432 0 01-.432.433h-4.588a.433.433 0 01-.433-.433v-4.589c0-.24.193-.433.433-.433h4.588zm-.433 4.59v-3.725h-3.723v3.725h3.723z" fill="#000"/>
  <path d="M195.338 223.343c.24 0 .433.193.433.433v4.589a.433.433 0 01-.433.433h-2.613v.93h2.612c.24 0 .433.195.433.433v2.615h.932l.001-2.615c0-.238.192-.433.432-.433h4.588c.24 0 .433.195.433.433v2.615h.933l-.001-2.615c0-.238.192-.433.432-.433h2.615v-.93h-2.615a.432.432 0 01-.432-.433v-4.589c0-.24.192-.433.432-.433h2.615v-.932l-2.615-.001a.43.43 0 01-.432-.432v-2.613h-.932v2.613c0 .24-.193.432-.433.432h-4.588a.43.43 0 01-.432-.432v-2.613h-.932v2.613c0 .24-.193.432-.433.432h-2.613v.932l2.613.001zm11.663 5.022v1.796c0 .24-.195.433-.433.433h-2.615v2.615a.433.433 0 01-.433.432h-1.797a.434.434 0 01-.433-.432v-2.615h-3.722v2.615a.434.434 0 01-.433.432h-1.797a.434.434 0 01-.433-.432v-2.615h-2.613a.432.432 0 01-.433-.433v-1.796c0-.24.193-.432.433-.432h2.612l.001-3.725h-2.613a.432.432 0 01-.433-.432v-1.797c0-.239.193-.433.433-.433h2.612l.001-2.613c0-.24.195-.433.433-.433h1.797c.238 0 .433.193.433.433v2.612h3.722v-2.612c0-.24.195-.433.433-.433h1.798c.238 0 .433.193.433.433v2.612h2.615c.238 0 .432.194.432.433v1.797a.433.433 0 01-.432.432l-2.616.001v3.725h2.615c.238 0 .432.192.432.432h.001z" fill="#000"/>
  <path d="M224.885 259.431V270h1.318v-3.772h2.439c1.985 0 3.399-1.399 3.399-3.406 0-1.999-1.399-3.391-3.384-3.391h-3.772zm1.318 1.172h2.109c1.517 0 2.374.82 2.374 2.219 0 1.407-.865 2.234-2.374 2.234h-2.109v-4.453zm7.648 9.397h1.274v-4.746c0-1.077.645-1.787 1.633-1.787.308 0 .579.036.682.073v-1.238c-.103-.014-.293-.051-.513-.051-.894 0-1.597.535-1.846 1.377h-.029v-1.245h-1.201V270zm7.911.132c2.102 0 3.523-1.516 3.523-3.941 0-2.431-1.421-3.94-3.523-3.94-2.109 0-3.53 1.509-3.53 3.94 0 2.425 1.421 3.941 3.53 3.941zm0-1.121c-1.348 0-2.234-1.025-2.234-2.82 0-1.794.886-2.819 2.234-2.819 1.348 0 2.226 1.025 2.226 2.819 0 1.795-.878 2.82-2.226 2.82zm8.189 1.121c1.099 0 1.971-.542 2.461-1.421h.022V270h1.216v-10.569h-1.274v4.19h-.03c-.454-.835-1.333-1.37-2.424-1.37-1.919 0-3.23 1.553-3.23 3.94 0 2.388 1.319 3.941 3.259 3.941zm.242-6.76c1.311 0 2.19 1.12 2.19 2.819 0 1.707-.879 2.82-2.19 2.82-1.348 0-2.197-1.091-2.197-2.82 0-1.721.849-2.819 2.197-2.819zm11.925-.989h-1.274v4.475c0 1.296-.747 2.146-1.985 2.146-1.179 0-1.758-.667-1.758-1.904v-4.717h-1.274v4.944c0 1.728.974 2.805 2.636 2.805 1.172 0 1.963-.491 2.417-1.37h.03V270h1.208v-7.617zm8.475 2.497c-.161-1.369-1.296-2.629-3.2-2.629-2.103 0-3.501 1.538-3.501 3.94 0 2.454 1.406 3.941 3.515 3.941 1.729 0 3.003-1.07 3.201-2.586h-1.253c-.219.916-.9 1.465-1.941 1.465-1.318 0-2.226-1.047-2.226-2.82 0-1.728.893-2.819 2.212-2.819 1.12 0 1.765.681 1.948 1.508h1.245zm2.089-4.336v1.839h-1.136v1.047h1.136v4.592c0 1.465.542 2.037 1.941 2.037.3 0 .651-.022.805-.059v-1.069a5.16 5.16 0 01-.527.036c-.652 0-.945-.315-.945-1.01v-4.527h1.48v-1.047h-1.48v-1.839h-1.274zm4.674 9.456h1.274v-7.617h-1.274V270zm.637-8.972a.795.795 0 00.798-.799.79.79 0 00-.798-.798.796.796 0 00-.799.798.8.8 0 00.799.799zm6.007 9.104c2.102 0 3.523-1.516 3.523-3.941 0-2.431-1.421-3.94-3.523-3.94-2.11 0-3.531 1.509-3.531 3.94 0 2.425 1.421 3.941 3.531 3.941zm0-1.121c-1.348 0-2.234-1.025-2.234-2.82 0-1.794.886-2.819 2.234-2.819 1.347 0 2.226 1.025 2.226 2.819 0 1.795-.879 2.82-2.226 2.82zm5.304.989h1.274v-4.482c0-1.289.784-2.139 1.985-2.139 1.172 0 1.75.674 1.75 1.904V270h1.275v-4.944c0-1.728-.967-2.805-2.637-2.805-1.179 0-1.992.527-2.417 1.348h-.029v-1.216h-1.201V270z" fill="#251A3F"/>
  <path d="M201.724 262.343c.24 0 .432.193.432.433v4.589a.432.432 0 01-.432.433h-4.588a.433.433 0 01-.433-.433v-4.589c0-.24.193-.433.433-.433h4.588zm-.433 4.59v-3.725h-3.723v3.725h3.723z" fill="#000"/>
  <path d="M195.338 262.343c.24 0 .433.193.433.433v4.589a.433.433 0 01-.433.433h-2.613v.93h2.612c.24 0 .433.195.433.433v2.615h.932l.001-2.615c0-.238.192-.433.432-.433h4.588c.24 0 .433.195.433.433v2.615h.933l-.001-2.615c0-.238.192-.433.432-.433h2.615v-.93h-2.615a.432.432 0 01-.432-.433v-4.589c0-.24.192-.433.432-.433h2.615v-.932l-2.615-.001a.43.43 0 01-.432-.432v-2.613h-.932v2.613c0 .24-.193.432-.433.432h-4.588a.43.43 0 01-.432-.432v-2.613h-.932v2.613c0 .24-.193.432-.433.432h-2.613v.932l2.613.001zm11.663 5.022v1.796c0 .24-.195.433-.433.433h-2.615v2.615a.433.433 0 01-.433.432h-1.797a.434.434 0 01-.433-.432v-2.615h-3.722v2.615a.434.434 0 01-.433.432h-1.797a.434.434 0 01-.433-.432v-2.615h-2.613a.432.432 0 01-.433-.433v-1.796c0-.24.193-.432.433-.432h2.612l.001-3.725h-2.613a.432.432 0 01-.433-.432v-1.797c0-.239.193-.433.433-.433h2.612l.001-2.613c0-.24.195-.433.433-.433h1.797c.238 0 .433.193.433.433v2.612h3.722v-2.612c0-.24.195-.433.433-.433h1.798c.238 0 .433.193.433.433v2.612h2.615c.238 0 .432.194.432.433v1.797a.433.433 0 01-.432.432l-2.616.001v3.725h2.615c.238 0 .432.192.432.432h.001z" fill="#000"/>
  <rect x="175.859" y="289" width="224" height="32" rx="10" fill="#029D7F"/>
  <path d="M224.885 298.431V309h1.318v-3.772h2.439c1.985 0 3.399-1.399 3.399-3.406 0-1.999-1.399-3.391-3.384-3.391h-3.772zm1.318 1.172h2.109c1.517 0 2.374.82 2.374 2.219 0 1.407-.865 2.234-2.374 2.234h-2.109v-4.453zm13.903 1.78h-1.275v4.475c0 1.296-.747 2.146-1.985 2.146-1.179 0-1.758-.667-1.758-1.904v-4.717h-1.274v4.944c0 1.728.974 2.805 2.637 2.805 1.172 0 1.963-.491 2.417-1.37h.029V309h1.209v-7.617zm2.147 7.617h1.274v-4.746c0-1.077.645-1.787 1.633-1.787.308 0 .579.036.681.073v-1.238c-.102-.014-.292-.051-.512-.051-.894 0-1.597.535-1.846 1.377h-.029v-1.245h-1.201V309zm11.082-5.12c-.161-1.369-1.296-2.629-3.2-2.629-2.103 0-3.501 1.538-3.501 3.94 0 2.454 1.406 3.941 3.515 3.941 1.729 0 3.003-1.07 3.201-2.586h-1.253c-.219.916-.9 1.465-1.94 1.465-1.319 0-2.227-1.047-2.227-2.82 0-1.728.894-2.819 2.212-2.819 1.12 0 1.765.681 1.948 1.508h1.245zm1.744 5.12h1.275v-4.438c0-1.319.784-2.183 2.051-2.183 1.193 0 1.801.725 1.801 1.933V309h1.275v-4.922c0-1.699-1.011-2.827-2.681-2.827-1.157 0-1.992.498-2.417 1.348h-.029v-4.168h-1.275V309zm11.024-.952c-.915 0-1.523-.476-1.523-1.201 0-.718.586-1.172 1.611-1.238l2.036-.125v.623c0 1.099-.922 1.941-2.124 1.941zm-.285 1.084c1.025 0 1.992-.571 2.446-1.443h.029V309h1.209v-5.266c0-1.516-1.128-2.483-2.915-2.483-1.802 0-2.93 1.011-3.018 2.329h1.231c.161-.747.776-1.208 1.758-1.208 1.054 0 1.669.556 1.669 1.486v.638l-2.182.124c-1.758.103-2.761.923-2.761 2.227 0 1.369 1.018 2.285 2.534 2.285zm5.662-5.647c0 1.098.696 1.765 2.132 2.109l1.208.293c.872.213 1.172.528 1.172 1.077 0 .688-.637 1.128-1.67 1.128-1.032 0-1.618-.418-1.772-1.289h-1.275c.147 1.428 1.26 2.329 3.047 2.329 1.7 0 2.952-.938 2.952-2.263 0-1.092-.557-1.692-2.095-2.066l-1.208-.293c-.85-.205-1.238-.564-1.238-1.091 0-.667.615-1.128 1.545-1.128.938 0 1.524.491 1.619 1.289h1.216c-.051-1.348-1.165-2.329-2.835-2.329-1.648 0-2.798.93-2.798 2.234zm7.677 5.515h1.275v-7.617h-1.275V309zm.638-8.972a.796.796 0 00.798-.799.791.791 0 00-.798-.798.796.796 0 00-.799.798.8.8 0 00.799.799zm2.85 8.972h1.274v-4.482c0-1.289.784-2.139 1.985-2.139 1.172 0 1.75.674 1.75 1.904V309h1.275v-4.944c0-1.728-.967-2.805-2.637-2.805-1.179 0-1.992.527-2.417 1.348h-.029v-1.216h-1.201V309zm11.5-1.062c-1.311 0-2.168-1.069-2.168-2.776 0-1.706.857-2.79 2.168-2.79 1.326 0 2.212 1.113 2.212 2.79s-.886 2.776-2.212 2.776zm.044 3.933c2.102 0 3.442-1.208 3.442-3.025v-7.463h-1.216v1.282h-.022c-.505-.887-1.399-1.414-2.475-1.414-1.97 0-3.245 1.523-3.245 3.911 0 2.366 1.275 3.897 3.215 3.897 1.07 0 1.971-.542 2.439-1.37h.03v1.201c0 1.135-.799 1.897-2.117 1.897-.952 0-1.707-.461-1.956-1.157h-1.311c.213 1.296 1.539 2.241 3.216 2.241zm-92.465-10.028c.24 0 .432.193.432.433v4.589a.432.432 0 01-.432.433h-4.588a.433.433 0 01-.433-.433v-4.589c0-.24.193-.433.433-.433h4.588zm-.433 4.59v-3.725h-3.723v3.725h3.723z" fill="#fff"/>
  <path d="M195.338 301.843c.24 0 .433.193.433.433v4.589a.433.433 0 01-.433.433h-2.613v.93h2.612c.24 0 .433.195.433.433v2.615h.932l.001-2.615c0-.238.192-.433.432-.433h4.588c.24 0 .433.195.433.433v2.615h.933l-.001-2.615c0-.238.192-.433.432-.433h2.615v-.93h-2.615a.432.432 0 01-.432-.433v-4.589c0-.24.192-.433.432-.433h2.615v-.932l-2.615-.001a.43.43 0 01-.432-.432v-2.613h-.932v2.613c0 .24-.193.432-.433.432h-4.588a.43.43 0 01-.432-.432v-2.613h-.932v2.613c0 .24-.193.432-.433.432h-2.613v.932l2.613.001zm11.663 5.022v1.796c0 .24-.195.433-.433.433h-2.615v2.615a.433.433 0 01-.433.432h-1.797a.434.434 0 01-.433-.432v-2.615h-3.722v2.615a.434.434 0 01-.433.432h-1.797a.434.434 0 01-.433-.432v-2.615h-2.613a.432.432 0 01-.433-.433v-1.796c0-.24.193-.432.433-.432h2.612l.001-3.725h-2.613a.432.432 0 01-.433-.432v-1.797c0-.239.193-.433.433-.433h2.612l.001-2.613c0-.24.195-.433.433-.433h1.797c.238 0 .433.193.433.433v2.612h3.722v-2.612c0-.24.195-.433.433-.433h1.798c.238 0 .433.193.433.433v2.612h2.615c.238 0 .432.194.432.433v1.797a.433.433 0 01-.432.432l-2.616.001v3.725h2.615c.238 0 .432.192.432.432h.001z" fill="#fff"/>
  <path d="M226.203 338.603h2.468c1.363 0 2.183.754 2.183 2.022 0 1.296-.769 2.028-2.124 2.028h-2.527v-4.05zm0 5.215h2.527l2.263 4.182h1.546l-2.447-4.387c1.326-.418 2.124-1.56 2.124-3.032 0-1.905-1.333-3.15-3.369-3.15h-3.962V348h1.318v-4.182zM241.849 348h1.655l-1.853-1.97c.579-.908.872-2.08.872-3.692v-.322h-1.216v.315c0 1.304-.161 2.168-.506 2.813l-2.614-2.82c1.611-.85 2.263-1.634 2.263-2.71 0-1.37-1.121-2.359-2.674-2.359-1.523 0-2.666 1.004-2.666 2.344 0 .769.367 1.45 1.311 2.454-.058.022-.19.095-.402.205-1.399.74-2.073 1.692-2.073 2.93 0 1.757 1.457 2.988 3.545 2.988 1.252 0 2.483-.447 3.376-1.238l.982 1.062zm-5.076-4.973a3.73 3.73 0 01.352-.191l2.973 3.26c-.564.6-1.545.981-2.49.981-1.406 0-2.358-.798-2.358-1.977 0-.813.432-1.407 1.523-2.073zm.71-1.443c-.82-.82-1.127-1.333-1.127-1.912 0-.805.593-1.384 1.428-1.384.857 0 1.435.564 1.435 1.37 0 .754-.468 1.281-1.736 1.926zm7.78-4.153V348h3.552c3.142 0 4.988-1.956 4.988-5.288 0-3.325-1.853-5.281-4.988-5.281h-3.552zm1.318 1.187h2.146c2.403 0 3.728 1.465 3.728 4.109 0 2.622-1.333 4.086-3.728 4.086h-2.146v-8.195z" fill="#251A3F"/>
  <path d="M201.724 340.343c.24 0 .432.193.432.433v4.589a.432.432 0 01-.432.433h-4.588a.433.433 0 01-.433-.433v-4.589c0-.24.193-.433.433-.433h4.588zm-.433 4.59v-3.725h-3.723v3.725h3.723z" fill="#000"/>
  <path d="M195.338 340.343c.24 0 .433.193.433.433v4.589a.433.433 0 01-.433.433h-2.613v.93h2.612c.24 0 .433.195.433.433v2.615h.932l.001-2.615c0-.238.192-.433.432-.433h4.588c.24 0 .433.195.433.433v2.615h.933l-.001-2.615c0-.238.192-.433.432-.433h2.615v-.93h-2.615a.432.432 0 01-.432-.433v-4.589c0-.24.192-.433.432-.433h2.615v-.932l-2.615-.001a.43.43 0 01-.432-.432v-2.613h-.932v2.613c0 .24-.193.432-.433.432h-4.588a.43.43 0 01-.432-.432v-2.613h-.932v2.613c0 .24-.193.432-.433.432h-2.613v.932l2.613.001zm11.663 5.022v1.796c0 .24-.195.433-.433.433h-2.615v2.615a.433.433 0 01-.433.432h-1.797a.434.434 0 01-.433-.432v-2.615h-3.722v2.615a.434.434 0 01-.433.432h-1.797a.434.434 0 01-.433-.432v-2.615h-2.613a.432.432 0 01-.433-.433v-1.796c0-.24.193-.432.433-.432h2.612l.001-3.725h-2.613a.432.432 0 01-.433-.432v-1.797c0-.239.193-.433.433-.433h2.612l.001-2.613c0-.24.195-.433.433-.433h1.797c.238 0 .433.193.433.433v2.612h3.722v-2.612c0-.24.195-.433.433-.433h1.798c.238 0 .433.193.433.433v2.612h2.615c.238 0 .432.194.432.433v1.797a.433.433 0 01-.432.432l-2.616.001v3.725h2.615c.238 0 .432.192.432.432h.001z" fill="#000"/>
  <path d="M224.372 384.166c.125 1.823 1.663 3.01 3.97 3.01 2.366 0 3.904-1.223 3.904-3.179 0-1.494-.872-2.373-3.077-2.856l-1.171-.257c-1.443-.315-2.007-.886-2.007-1.721 0-1.077 1.018-1.721 2.336-1.721 1.377 0 2.293.71 2.41 1.868h1.318c-.058-1.795-1.582-3.055-3.691-3.055-2.19 0-3.728 1.224-3.728 2.967 0 1.501.915 2.461 3.032 2.922l1.172.256c1.465.323 2.051.909 2.051 1.795 0 1.04-1.04 1.794-2.476 1.794-1.516 0-2.571-.688-2.725-1.823h-1.318zm12.767-3.809c1.201 0 2 .908 2.029 2.183h-4.138c.08-1.268.915-2.183 2.109-2.183zm2 4.46c-.213.718-.923 1.209-1.89 1.209-1.37 0-2.226-.96-2.226-2.417v-.073h5.463v-.484c0-2.307-1.267-3.801-3.325-3.801-2.102 0-3.449 1.604-3.449 3.97 0 2.395 1.325 3.911 3.508 3.911 1.662 0 2.951-.982 3.171-2.315h-1.252zm3.128 2.183h1.275v-4.746c0-1.077.644-1.787 1.633-1.787.308 0 .579.036.681.073v-1.238c-.102-.014-.293-.051-.513-.051-.893 0-1.596.535-1.845 1.377h-.03v-1.245h-1.201V387zm11.369-7.617h-1.326l-2.11 6.262h-.029l-2.102-6.262h-1.34l2.805 7.617h1.304l2.798-7.617zm1.561 7.617h1.274v-7.617h-1.274V387zm.637-8.972a.795.795 0 00.798-.799.79.79 0 00-.798-.798.795.795 0 00-.798.798.8.8 0 00.798.799zm9.178 3.852c-.161-1.369-1.296-2.629-3.201-2.629-2.102 0-3.501 1.538-3.501 3.94 0 2.454 1.407 3.941 3.516 3.941 1.729 0 3.003-1.07 3.201-2.586h-1.253c-.219.916-.901 1.465-1.941 1.465-1.318 0-2.226-1.047-2.226-2.82 0-1.728.893-2.819 2.212-2.819 1.12 0 1.765.681 1.948 1.508h1.245zm4.733-1.523c1.201 0 1.999.908 2.028 2.183h-4.138c.081-1.268.916-2.183 2.11-2.183zm1.999 4.46c-.212.718-.923 1.209-1.889 1.209-1.37 0-2.227-.96-2.227-2.417v-.073h5.464v-.484c0-2.307-1.267-3.801-3.325-3.801-2.102 0-3.45 1.604-3.45 3.97 0 2.395 1.326 3.911 3.508 3.911 1.663 0 2.952-.982 3.172-2.315h-1.253z" fill="#251A3F"/>
  <path d="M201.724 379.343c.24 0 .432.193.432.433v4.589a.432.432 0 01-.432.433h-4.588a.433.433 0 01-.433-.433v-4.589c0-.24.193-.433.433-.433h4.588zm-.433 4.59v-3.725h-3.723v3.725h3.723z" fill="#000"/>
  <path d="M195.338 379.343c.24 0 .433.193.433.433v4.589a.433.433 0 01-.433.433h-2.613v.93h2.612c.24 0 .433.195.433.433v2.615h.932l.001-2.615c0-.238.192-.433.432-.433h4.588c.24 0 .433.195.433.433v2.615h.933l-.001-2.615c0-.238.192-.433.432-.433h2.615v-.93h-2.615a.432.432 0 01-.432-.433v-4.589c0-.24.192-.433.432-.433h2.615v-.932l-2.615-.001a.43.43 0 01-.432-.432v-2.613h-.932v2.613c0 .24-.193.432-.433.432h-4.588a.43.43 0 01-.432-.432v-2.613h-.932v2.613c0 .24-.193.432-.433.432h-2.613v.932l2.613.001zm11.663 5.022v1.796c0 .24-.195.433-.433.433h-2.615v2.615a.433.433 0 01-.433.432h-1.797a.434.434 0 01-.433-.432v-2.615h-3.722v2.615a.434.434 0 01-.433.432h-1.797a.434.434 0 01-.433-.432v-2.615h-2.613a.432.432 0 01-.433-.433v-1.796c0-.24.193-.432.433-.432h2.612l.001-3.725h-2.613a.432.432 0 01-.433-.432v-1.797c0-.239.193-.433.433-.433h2.612l.001-2.613c0-.24.195-.433.433-.433h1.797c.238 0 .433.193.433.433v2.612h3.722v-2.612c0-.24.195-.433.433-.433h1.798c.238 0 .433.193.433.433v2.612h2.615c.238 0 .432.194.432.433v1.797a.433.433 0 01-.432.432l-2.616.001v3.725h2.615c.238 0 .432.192.432.432h.001z" fill="#000"/>
  <circle opacity=".8" cx="310" cy="64" r="13" fill="#A9366D"/>
  <circle cx="348" cy="25" r="25" fill="#251A3F"/>
  <defs>
    <filter id="T7lt25qAja" x="305" y="16" width="287" height="298" filterUnits="userSpaceOnUse" color-interpolation-filters="sRGB">
      <feFlood flood-opacity="0" result="BackgroundImageFix"/>
      <feColorMatrix in="SourceAlpha" values="0 0 0 0 0 0 0 0 0 0 0 0 0 0 0 0 0 0 127 0"/>
      <feOffset dy="10"/>
      <feGaussianBlur stdDeviation="10"/>
      <feColorMatrix values="0 0 0 0 0 0 0 0 0 0 0 0 0 0 0 0 0 0 0.1 0"/>
      <feBlend in2="BackgroundImageFix" result="effect1_dropShadow"/>
      <feBlend in="SourceGraphic" in2="effect1_dropShadow" result="shape"/>
    </filter>
    <filter id="T7lt25qAjb" x="380" y="215" width="287" height="298" filterUnits="userSpaceOnUse" color-interpolation-filters="sRGB">
      <feFlood flood-opacity="0" result="BackgroundImageFix"/>
      <feColorMatrix in="SourceAlpha" values="0 0 0 0 0 0 0 0 0 0 0 0 0 0 0 0 0 0 127 0"/>
      <feOffset dy="10"/>
      <feGaussianBlur stdDeviation="10"/>
      <feColorMatrix values="0 0 0 0 0 0 0 0 0 0 0 0 0 0 0 0 0 0 0.1 0"/>
      <feBlend in2="BackgroundImageFix" result="effect1_dropShadow"/>
      <feBlend in="SourceGraphic" in2="effect1_dropShadow" result="shape"/>
    </filter>
    <filter id="T7lt25qAjc" x="144" y="145" width="285" height="298" filterUnits="userSpaceOnUse" color-interpolation-filters="sRGB">
      <feFlood flood-opacity="0" result="BackgroundImageFix"/>
      <feColorMatrix in="SourceAlpha" values="0 0 0 0 0 0 0 0 0 0 0 0 0 0 0 0 0 0 127 0"/>
      <feOffset dy="10"/>
      <feGaussianBlur stdDeviation="10"/>
      <feColorMatrix values="0 0 0 0 0 0 0 0 0 0 0 0 0 0 0 0 0 0 0.1 0"/>
      <feBlend in2="BackgroundImageFix" result="effect1_dropShadow"/>
      <feBlend in="SourceGraphic" in2="effect1_dropShadow" result="shape"/>
    </filter>
  </defs>
</svg>
