<svg fill="none" xmlns="http://www.w3.org/2000/svg" viewBox="0 0 730 469">
  <path d="M20 176.5v143.438C20 353.11 46.89 380 80.061 380v0c33.172 0 60.062-26.89 60.062-60.062v-188c0-34.207 27.731-61.938 61.939-61.938v0C236.269 70 264 97.73 264 131.938V380" stroke="#D6D3DD" stroke-width="18"/>
  <g filter="url(#Sv6IvarSGa)">
    <path fill-rule="evenodd" clip-rule="evenodd" d="M220 18a8 8 0 018-8h474a8 8 0 018 8v413a8 8 0 01-8 8H228a8 8 0 01-8-8V18z" fill="#fff"/>
    <path d="M228 10.5h474a7.5 7.5 0 017.5 7.5v413a7.5 7.5 0 01-7.5 7.5H228a7.5 7.5 0 01-7.5-7.5V18a7.5 7.5 0 017.5-7.5z" stroke="#ECECEC"/>
  </g>
  <path d="M250.269 53V42.585h3.805v-2.268h-10.265v2.268h3.805V53h2.655zm6.477 0h2.557v-5.563c0-1.257.739-2.11 2.022-2.11 1.16 0 1.784.695 1.784 2.04V53h2.558v-6.24c0-2.33-1.24-3.639-3.323-3.639-1.424 0-2.478.668-2.926 1.776h-.159v-5.291h-2.513V53zm11.917 0h2.558v-9.694h-2.558V53zm1.283-11.145c.8 0 1.451-.65 1.451-1.467 0-.818-.651-1.46-1.451-1.46-.791 0-1.45.642-1.45 1.46 0 .817.659 1.468 1.45 1.468zm4.14 4.298c0 1.495.914 2.39 2.795 2.804l1.757.395c.853.185 1.222.475 1.222.95 0 .624-.685 1.037-1.679 1.037-1.019 0-1.643-.378-1.837-1.037h-2.496c.176 1.863 1.723 2.909 4.281 2.909 2.54 0 4.271-1.266 4.271-3.2 0-1.45-.844-2.24-2.724-2.654l-1.82-.395c-.896-.202-1.309-.492-1.309-.967 0-.615.676-1.028 1.59-1.028.95 0 1.539.386 1.67 1.01h2.365c-.141-1.854-1.591-2.882-4.052-2.882-2.417 0-4.034 1.221-4.034 3.058zm23.765-1.547h.14l2.4 8.394h2.487l3.366-12.683h-2.742l-1.96 8.939h-.141l-2.355-8.939h-2.241l-2.312 8.939h-.141l-1.977-8.939h-2.76L292.973 53h2.504l2.374-8.394zm14.079.449c1.196 0 1.969.8 2.022 2.083h-4.131c.088-1.257.923-2.083 2.109-2.083zm2.074 5.185c-.272.642-.966 1.002-1.977 1.002-1.336 0-2.18-.896-2.215-2.338v-.132h6.653v-.782c0-3.076-1.687-4.895-4.544-4.895-2.882 0-4.658 1.95-4.658 5.106 0 3.147 1.74 5.01 4.694 5.01 2.373 0 4.051-1.151 4.429-2.97h-2.382zm9.246-5.185c1.195 0 1.969.8 2.022 2.083h-4.131c.088-1.257.923-2.083 2.109-2.083zm2.074 5.185c-.272.642-.966 1.002-1.977 1.002-1.336 0-2.18-.896-2.215-2.338v-.132h6.653v-.782c0-3.076-1.687-4.895-4.544-4.895-2.882 0-4.658 1.95-4.658 5.106 0 3.147 1.74 5.01 4.693 5.01 2.374 0 4.052-1.151 4.43-2.97h-2.382zm7.857-3.146h-.158v-7.489h-2.557V53h2.557v-3.217l.703-.72 2.83 3.937h3.033l-3.947-5.537 3.692-4.157h-2.909l-3.244 3.788zm10.081-1.407l1.705-5.37h-2.522l-.967 5.37h1.784zm3.401.466c0 1.495.914 2.39 2.795 2.804l1.758.395c.852.185 1.221.475 1.221.95 0 .624-.685 1.037-1.678 1.037-1.02 0-1.644-.378-1.837-1.037h-2.496c.175 1.863 1.722 2.909 4.28 2.909 2.54 0 4.271-1.266 4.271-3.2 0-1.45-.843-2.24-2.724-2.654l-1.82-.395c-.896-.202-1.309-.492-1.309-.967 0-.615.677-1.028 1.591-1.028.949 0 1.538.386 1.67 1.01h2.364c-.141-1.854-1.591-2.882-4.052-2.882-2.417 0-4.034 1.221-4.034 3.058zm16.294-5.836V53h2.654v-3.938h2.505c2.672 0 4.527-1.748 4.527-4.359 0-2.637-1.785-4.386-4.395-4.386h-5.291zm2.654 2.18h1.934c1.529 0 2.399.773 2.399 2.215 0 1.424-.887 2.197-2.408 2.197h-1.925v-4.412zM375.323 53h2.558v-5.37c0-1.362.958-2.189 2.355-2.189.413 0 1.011.08 1.213.159v-2.33c-.22-.079-.651-.123-1.002-.123-1.231 0-2.232.739-2.487 1.706h-.159v-1.547h-2.478V53zm12.401.21c2.979 0 4.772-1.889 4.772-5.062 0-3.146-1.819-5.053-4.772-5.053-2.953 0-4.773 1.916-4.773 5.053 0 3.173 1.793 5.063 4.773 5.063zm0-2.09c-1.371 0-2.145-1.082-2.145-2.972 0-1.863.783-2.962 2.145-2.962 1.353 0 2.144 1.1 2.144 2.962 0 1.881-.782 2.971-2.144 2.971zm11.663-.282c-1.389 0-2.18-1.064-2.18-2.778 0-1.696.8-2.768 2.18-2.768 1.379 0 2.214 1.072 2.214 2.777s-.826 2.769-2.214 2.769zm-.036 5.836c2.927 0 4.782-1.433 4.782-3.71v-9.658h-2.479v1.555h-.158c-.519-1.063-1.635-1.713-2.944-1.713-2.461 0-3.973 1.915-3.973 4.921 0 2.918 1.503 4.79 3.92 4.79 1.362 0 2.382-.544 2.918-1.564h.158v1.793c0 1.09-.8 1.722-2.171 1.722-1.107 0-1.828-.377-1.96-.975h-2.531c.158 1.705 1.863 2.839 4.438 2.839zm7.84-3.674h2.557v-5.37c0-1.362.958-2.189 2.356-2.189.413 0 1.011.08 1.213.159v-2.33c-.22-.079-.651-.123-1.002-.123-1.231 0-2.233.739-2.487 1.706h-.159v-1.547h-2.478V53zm12.295-7.945c1.196 0 1.969.8 2.022 2.083h-4.131c.088-1.257.923-2.083 2.109-2.083zm2.075 5.185c-.273.642-.967 1.002-1.978 1.002-1.336 0-2.18-.896-2.215-2.338v-.132h6.653v-.782c0-3.076-1.687-4.895-4.543-4.895-2.883 0-4.659 1.95-4.659 5.106 0 3.147 1.741 5.01 4.694 5.01 2.373 0 4.051-1.151 4.429-2.97h-2.381zm4.833-4.087c0 1.495.914 2.39 2.795 2.804l1.758.395c.852.185 1.222.475 1.222.95 0 .624-.686 1.037-1.679 1.037-1.02 0-1.644-.378-1.837-1.037h-2.496c.176 1.863 1.722 2.909 4.28 2.909 2.54 0 4.272-1.266 4.272-3.2 0-1.45-.844-2.24-2.725-2.654l-1.819-.395c-.897-.202-1.31-.492-1.31-.967 0-.615.677-1.028 1.591-1.028.949 0 1.538.386 1.67 1.01h2.364c-.141-1.854-1.591-2.882-4.052-2.882-2.417 0-4.034 1.221-4.034 3.058zm10.511 0c0 1.495.915 2.39 2.795 2.804l1.758.395c.853.185 1.222.475 1.222.95 0 .624-.686 1.037-1.679 1.037-1.019 0-1.643-.378-1.837-1.037h-2.496c.176 1.863 1.723 2.909 4.28 2.909 2.54 0 4.272-1.266 4.272-3.2 0-1.45-.844-2.24-2.725-2.654l-1.819-.395c-.897-.202-1.31-.492-1.31-.967 0-.615.677-1.028 1.591-1.028.949 0 1.538.386 1.67 1.01h2.364c-.14-1.854-1.59-2.882-4.051-2.882-2.417 0-4.035 1.221-4.035 3.058zM254.25 88.133a2.199 2.199 0 002.227-2.227 2.199 2.199 0 00-2.227-2.227 2.199 2.199 0 00-2.227 2.227c0 1.252.975 2.226 2.227 2.226zM268.166 90V79.431h-1.318V90h1.318zm3.026 0h1.26v-4.673c0-1.384.813-2.226 2.072-2.226 1.26 0 1.861.673 1.861 2.094V90h1.26v-5.112c0-1.875-.989-2.923-2.762-2.923-1.208 0-1.977.513-2.373 1.385h-.117v-1.245h-1.201V90zm12.174.14c1.091 0 2.029-.52 2.527-1.4h.117V90h1.201V78.97h-1.26v4.38h-.11c-.446-.865-1.376-1.385-2.475-1.385-2.007 0-3.318 1.612-3.318 4.087 0 2.483 1.296 4.087 3.318 4.087zm.293-7.04c1.428 0 2.322 1.143 2.322 2.952 0 1.824-.887 2.952-2.322 2.952-1.443 0-2.307-1.106-2.307-2.952 0-1.838.871-2.951 2.307-2.951zm7.164 9.756c1.399 0 2.029-.541 2.703-2.373l3.083-8.379h-1.34l-2.161 6.497h-.117l-2.168-6.496h-1.362l2.922 7.902-.146.47c-.33.951-.726 1.295-1.451 1.295-.175 0-.373-.007-.527-.036v1.076c.176.03.396.044.564.044zM303.54 90h1.26v-7.895h-1.26V90zm.63-9.419a.882.882 0 00.879-.879.882.882 0 00-.879-.879.881.881 0 00-.879.88.88.88 0 00.879.878zm3.341 3.684c0 1.143.674 1.78 2.153 2.139l1.355.33c.842.205 1.253.57 1.253 1.113 0 .725-.762 1.23-1.824 1.23-1.011 0-1.641-.425-1.853-1.091h-1.297c.14 1.31 1.348 2.153 3.106 2.153 1.794 0 3.164-.974 3.164-2.388 0-1.135-.718-1.78-2.205-2.138l-1.216-.293c-.93-.227-1.369-.564-1.369-1.106 0-.703.732-1.18 1.67-1.18.952 0 1.567.418 1.736 1.048h1.245c-.169-1.296-1.319-2.117-2.974-2.117-1.677 0-2.944.99-2.944 2.3zm17.177 5.874c2 0 3.311-1.618 3.311-4.087 0-2.483-1.304-4.087-3.311-4.087-1.084 0-2.043.535-2.475 1.385h-.118v-4.38h-1.259V90h1.201v-1.26h.117c.498.88 1.436 1.4 2.534 1.4zm-.293-7.038c1.443 0 2.3 1.106 2.3 2.951 0 1.846-.857 2.952-2.3 2.952-1.435 0-2.329-1.128-2.329-2.952s.894-2.951 2.329-2.951zm9.318 7.038c2.248 0 3.64-1.553 3.64-4.087 0-2.541-1.392-4.087-3.64-4.087-2.249 0-3.64 1.546-3.64 4.087 0 2.534 1.391 4.087 3.64 4.087zm0-1.135c-1.494 0-2.337-1.084-2.337-2.952 0-1.875.843-2.951 2.337-2.951 1.494 0 2.336 1.076 2.336 2.951 0 1.868-.842 2.952-2.336 2.952zm9.354 1.135c2.248 0 3.64-1.553 3.64-4.087 0-2.541-1.392-4.087-3.64-4.087-2.249 0-3.64 1.546-3.64 4.087 0 2.534 1.391 4.087 3.64 4.087zm0-1.135c-1.494 0-2.337-1.084-2.337-2.952 0-1.875.843-2.951 2.337-2.951 1.494 0 2.336 1.076 2.336 2.951 0 1.868-.842 2.952-2.336 2.952zm7.559-3.45h-.117V78.97h-1.26V90h1.26v-2.996l.755-.703L354.223 90h1.604l-3.626-4.512 3.399-3.383h-1.546l-3.428 3.45zm9.97-2.475c1.252 0 2.087.922 2.116 2.321h-4.35c.095-1.399.974-2.321 2.234-2.321zm2.08 4.878c-.33.695-1.018 1.069-2.036 1.069-1.341 0-2.212-.989-2.278-2.549v-.059h5.676v-.483c0-2.454-1.296-3.97-3.428-3.97-2.168 0-3.559 1.612-3.559 4.095 0 2.497 1.369 4.08 3.559 4.08 1.729 0 2.959-.836 3.326-2.183h-1.26zm6.754 2.182c1.091 0 2.029-.52 2.527-1.399h.117V90h1.201V78.97h-1.26v4.38h-.11c-.446-.865-1.377-1.385-2.475-1.385-2.007 0-3.318 1.612-3.318 4.087 0 2.483 1.296 4.087 3.318 4.087zm.293-7.038c1.428 0 2.322 1.142 2.322 2.951 0 1.824-.887 2.952-2.322 2.952-1.443 0-2.307-1.106-2.307-2.952 0-1.838.871-2.951 2.307-2.951zm7.53 6.972a.954.954 0 00.952-.952.95.95 0 00-.952-.952.955.955 0 00-.952.952c0 .52.432.952.952.952zm10.11-.073V79.431h-1.319V90h1.319zm4.322-6.621V79.43h-1.172v3.948h1.172zM394.748 90h1.259V78.97h-1.259V90zm4.271 0h1.26V78.97h-1.26V90zm12.849.14c1.999 0 3.31-1.62 3.31-4.088 0-2.483-1.304-4.087-3.31-4.087-1.084 0-2.044.535-2.476 1.385h-.117v-4.38h-1.26V90h1.201v-1.26h.117c.498.88 1.436 1.4 2.535 1.4zm-.293-7.04c1.442 0 2.299 1.107 2.299 2.952 0 1.846-.857 2.952-2.299 2.952-1.436 0-2.33-1.128-2.33-2.952s.894-2.951 2.33-2.951zm9.222-.021c1.252 0 2.087.922 2.117 2.321h-4.351c.095-1.399.974-2.321 2.234-2.321zm2.08 4.878c-.33.695-1.018 1.069-2.036 1.069-1.341 0-2.212-.989-2.278-2.549v-.059h5.676v-.483c0-2.454-1.296-3.97-3.428-3.97-2.167 0-3.559 1.612-3.559 4.095 0 2.497 1.37 4.08 3.559 4.08 1.729 0 2.959-.836 3.326-2.183h-1.26zm11.75.813c-1.465 0-2.285-1.114-2.285-2.835 0-1.721.82-2.834 2.285-2.834 1.458 0 2.344 1.113 2.344 2.834s-.879 2.834-2.344 2.834zm.059 4.262c2.153 0 3.515-1.128 3.515-2.893v-8.034H437v1.252h-.117c-.454-.85-1.428-1.392-2.534-1.392-2.029 0-3.311 1.604-3.311 3.97s1.267 3.948 3.311 3.948c1.084 0 1.977-.49 2.475-1.362h.118v1.552c0 1.165-.843 1.86-2.256 1.86-1.136 0-1.839-.417-1.978-1.061h-1.333c.191 1.303 1.406 2.16 3.311 2.16zm9.625-2.893c2.248 0 3.64-1.553 3.64-4.087 0-2.541-1.392-4.087-3.64-4.087-2.249 0-3.64 1.546-3.64 4.087 0 2.534 1.391 4.087 3.64 4.087zm0-1.135c-1.494 0-2.337-1.084-2.337-2.952 0-1.875.843-2.951 2.337-2.951 1.494 0 2.336 1.076 2.336 2.951 0 1.868-.842 2.952-2.336 2.952zm6.139.996h1.259v-7.895h-1.259V90zm.629-9.419a.881.881 0 00.879-.879.881.881 0 00-.879-.879.882.882 0 00-.879.88c0 .483.396.878.879.878zM454.603 90h1.26v-4.673c0-1.384.813-2.226 2.073-2.226s1.86.673 1.86 2.094V90h1.26v-5.112c0-1.875-.989-2.923-2.761-2.923-1.209 0-1.978.513-2.373 1.385h-.117v-1.245h-1.202V90zm12.445-1.23c-1.465 0-2.285-1.114-2.285-2.835 0-1.721.82-2.834 2.285-2.834 1.458 0 2.344 1.113 2.344 2.834s-.879 2.834-2.344 2.834zm.059 4.262c2.153 0 3.516-1.128 3.516-2.893v-8.034h-1.202v1.252h-.117c-.454-.85-1.428-1.392-2.534-1.392-2.029 0-3.311 1.604-3.311 3.97s1.268 3.948 3.311 3.948c1.084 0 1.978-.49 2.476-1.362h.117v1.552c0 1.165-.843 1.86-2.256 1.86-1.135 0-1.838-.417-1.978-1.061h-1.333c.191 1.303 1.407 2.16 3.311 2.16zm14.35-2.893c2.249 0 3.64-1.553 3.64-4.087 0-2.541-1.391-4.087-3.64-4.087-2.248 0-3.64 1.546-3.64 4.087 0 2.534 1.392 4.087 3.64 4.087zm0-1.135c-1.494 0-2.336-1.084-2.336-2.952 0-1.875.842-2.951 2.336-2.951 1.494 0 2.337 1.076 2.337 2.951 0 1.868-.843 2.952-2.337 2.952zm6.11.996h1.259v-4.673c0-1.384.813-2.226 2.073-2.226s1.861.673 1.861 2.094V90h1.259v-5.112c0-1.875-.988-2.923-2.761-2.923-1.208 0-1.977.513-2.373 1.385h-.117v-1.245h-1.201V90zm14.504-9.939v2.043h-1.275v1.055h1.275v4.79c0 1.509.652 2.11 2.278 2.11.249 0 .49-.03.739-.074v-1.062a5.31 5.31 0 01-.586.03c-.82 0-1.171-.396-1.171-1.326v-4.468h1.757v-1.055h-1.757v-2.043h-1.26zM507.558 90h1.259v-4.673c0-1.333.777-2.226 2.19-2.226 1.194 0 1.824.695 1.824 2.094V90h1.26v-5.112c0-1.853-1.055-2.923-2.725-2.923-1.208 0-2.036.513-2.431 1.385h-.118v-4.38h-1.259V90zm12.474-6.921c1.252 0 2.087.922 2.117 2.321h-4.351c.095-1.399.974-2.321 2.234-2.321zm2.08 4.878c-.33.695-1.018 1.069-2.036 1.069-1.341 0-2.212-.989-2.278-2.549v-.059h5.676v-.483c0-2.454-1.296-3.97-3.428-3.97-2.167 0-3.559 1.612-3.559 4.095 0 2.497 1.37 4.08 3.559 4.08 1.729 0 2.959-.836 3.326-2.183h-1.26zm18.488-5.852h-1.267l-1.552 6.313h-.118l-1.765-6.314h-1.208l-1.765 6.314h-.118l-1.552-6.314h-1.275L532.192 90h1.275l1.757-6.108h.118L537.107 90h1.281l2.212-7.895zm5.033.974c1.253 0 2.088.922 2.117 2.321h-4.351c.096-1.399.974-2.321 2.234-2.321zm2.08 4.878c-.329.695-1.018 1.069-2.036 1.069-1.34 0-2.212-.989-2.278-2.549v-.059h5.677v-.483c0-2.454-1.297-3.97-3.428-3.97-2.168 0-3.56 1.612-3.56 4.095 0 2.497 1.37 4.08 3.56 4.08 1.728 0 2.959-.836 3.325-2.183h-1.26zm6.981-4.878c1.253 0 2.088.922 2.117 2.321h-4.351c.096-1.399.975-2.321 2.234-2.321zm2.08 4.878c-.329.695-1.018 1.069-2.036 1.069-1.34 0-2.212-.989-2.278-2.549v-.059h5.677v-.483c0-2.454-1.297-3.97-3.428-3.97-2.168 0-3.56 1.612-3.56 4.095 0 2.497 1.37 4.08 3.56 4.08 1.728 0 2.959-.836 3.325-2.183h-1.26zm5.282-2.403h-.117V78.97h-1.26V90h1.26v-2.996l.754-.703L565.652 90h1.604l-3.625-4.512 3.398-3.383h-1.545l-3.428 3.45zm9.97-2.475c1.252 0 2.087.922 2.116 2.321h-4.35c.095-1.399.974-2.321 2.234-2.321zm2.08 4.878c-.33.695-1.018 1.069-2.037 1.069-1.34 0-2.211-.989-2.277-2.549v-.059h5.676v-.483c0-2.454-1.296-3.97-3.428-3.97-2.168 0-3.559 1.612-3.559 4.095 0 2.497 1.369 4.08 3.559 4.08 1.729 0 2.959-.836 3.325-2.183h-1.259zM577.937 90h1.26v-4.673c0-1.384.813-2.226 2.073-2.226s1.86.673 1.86 2.094V90h1.26v-5.112c0-1.875-.989-2.923-2.761-2.923-1.209 0-1.978.513-2.373 1.385h-.118v-1.245h-1.201V90zm12.174.14c1.091 0 2.029-.52 2.527-1.4h.117V90h1.201V78.97h-1.259v4.38h-.11c-.447-.865-1.377-1.385-2.476-1.385-2.007 0-3.318 1.612-3.318 4.087 0 2.483 1.297 4.087 3.318 4.087zm.293-7.04c1.428 0 2.322 1.143 2.322 2.952 0 1.824-.886 2.952-2.322 2.952-1.443 0-2.307-1.106-2.307-2.952 0-1.838.872-2.951 2.307-2.951zm14.46 7.04c2.249 0 3.64-1.554 3.64-4.088 0-2.541-1.391-4.087-3.64-4.087-2.248 0-3.64 1.546-3.64 4.087 0 2.534 1.392 4.087 3.64 4.087zm0-1.136c-1.494 0-2.336-1.084-2.336-2.952 0-1.875.842-2.951 2.336-2.951 1.494 0 2.337 1.076 2.337 2.951 0 1.868-.843 2.952-2.337 2.952zm6.637.996h1.26v-6.84h1.809v-1.055h-1.809v-.843c0-.864.381-1.303 1.289-1.303.227 0 .439.007.593.036V78.97a4.43 4.43 0 00-.849-.073c-1.502 0-2.293.754-2.293 2.329v.879h-1.311v1.054h1.311V90zm10.285-10.569V90h3.626c3.142 0 4.988-1.956 4.988-5.288 0-3.325-1.853-5.28-4.988-5.28h-3.626zm1.319 1.187h2.219c2.344 0 3.728 1.523 3.728 4.109 0 2.578-1.37 4.087-3.728 4.087h-2.219v-8.196zm13.06 2.46c1.252 0 2.087.923 2.117 2.322h-4.351c.095-1.399.974-2.321 2.234-2.321zm2.08 4.879c-.33.695-1.018 1.069-2.036 1.069-1.341 0-2.212-.989-2.278-2.549v-.059h5.676v-.483c0-2.454-1.296-3.97-3.427-3.97-2.168 0-3.56 1.612-3.56 4.095 0 2.497 1.37 4.08 3.56 4.08 1.728 0 2.959-.836 3.325-2.183h-1.26zm10.365-3.435c-.22-1.407-1.392-2.557-3.311-2.557-2.212 0-3.618 1.597-3.618 4.058 0 2.512 1.414 4.116 3.626 4.116 1.897 0 3.076-1.07 3.303-2.52h-1.275c-.234.894-.974 1.385-2.036 1.385-1.406 0-2.314-1.157-2.314-2.981 0-1.787.893-2.922 2.314-2.922 1.136 0 1.831.637 2.036 1.42h1.275zm3.392 5.551a.955.955 0 00.952-.952.95.95 0 00-.952-.952.955.955 0 00-.952.952c0 .52.432.952.952.952zm12.358.169c2.168 0 3.706-1.516 3.706-3.64 0-2.051-1.457-3.538-3.472-3.538-1.259 0-2.292.6-2.812 1.626h-.117c.044-2.871 1.069-4.336 2.827-4.336 1.069 0 1.846.55 2.065 1.53h1.355c-.271-1.64-1.538-2.702-3.464-2.702-2.498 0-4.065 2.08-4.065 5.713 0 3.56 1.677 5.347 3.977 5.347zm-.015-1.157c-1.355 0-2.387-1.07-2.387-2.483 0-1.4 1.003-2.395 2.402-2.395 1.399 0 2.373.996 2.373 2.439 0 1.384-1.033 2.439-2.388 2.439zm11.098-2.74v-1.194h-4.805v1.194h4.805zm6.182 3.897c2.586 0 4.065-2.08 4.065-5.713 0-3.596-1.699-5.347-3.977-5.347-2.168 0-3.706 1.516-3.706 3.64 0 2.051 1.458 3.538 3.472 3.538 1.26 0 2.292-.6 2.812-1.626h.118c-.074 2.812-1.048 4.336-2.769 4.336-1.04 0-1.846-.579-2.124-1.53h-1.355c.33 1.662 1.67 2.702 3.464 2.702zm.088-5.025c-1.399 0-2.373-.996-2.373-2.439 0-1.384 1.033-2.439 2.388-2.439s2.388 1.07 2.388 2.483c0 1.4-1.004 2.395-2.403 2.395zM254.25 111.132a2.199 2.199 0 002.227-2.226 2.199 2.199 0 00-2.227-2.227 2.199 2.199 0 00-2.227 2.227c0 1.252.975 2.226 2.227 2.226zM277.263 113v-10.569h-1.531l-3.618 8.819h-.117l-3.619-8.819h-1.53V113h1.23v-8.071h.088l3.333 8.071h1.113l3.332-8.071h.088V113h1.231zm6.175-6.921c1.253 0 2.087.922 2.117 2.321h-4.351c.095-1.399.974-2.321 2.234-2.321zm2.08 4.878c-.329.695-1.018 1.069-2.036 1.069-1.34 0-2.212-.989-2.278-2.549v-.059h5.676v-.483c0-2.454-1.296-3.97-3.427-3.97-2.168 0-3.56 1.612-3.56 4.095 0 2.497 1.37 4.079 3.56 4.079 1.728 0 2.959-.835 3.325-2.182h-1.26zm4.359-7.896v2.043h-1.274v1.055h1.274v4.79c0 1.509.652 2.11 2.278 2.11.249 0 .491-.03.74-.074v-1.062c-.235.022-.359.03-.586.03-.821 0-1.172-.396-1.172-1.326v-4.468h1.758v-1.055h-1.758v-2.043h-1.26zm20.071 2.043h-1.267l-1.553 6.314h-.117l-1.766-6.314h-1.208l-1.765 6.314h-.117l-1.553-6.314h-1.275l2.212 7.896h1.275l1.758-6.108h.117l1.765 6.108h1.282l2.212-7.896zm2.205 7.896h1.26v-7.896h-1.26V113zm.63-9.419a.88.88 0 00.879-.879.882.882 0 00-.879-.879.882.882 0 00-.879.879c0 .484.396.879.879.879zm4.052-.52v2.043h-1.275v1.055h1.275v4.79c0 1.509.651 2.11 2.277 2.11.249 0 .491-.03.74-.074v-1.062c-.234.022-.359.03-.586.03-.82 0-1.172-.396-1.172-1.326v-4.468h1.758v-1.055h-1.758v-2.043h-1.259zm5.486 9.939h1.26v-4.673c0-1.333.777-2.226 2.19-2.226 1.194 0 1.824.695 1.824 2.094V113h1.26v-5.112c0-1.853-1.055-2.923-2.725-2.923-1.208 0-2.036.513-2.432 1.385h-.117v-4.38h-1.26V113zm24.627 0v-10.569h-1.531l-3.618 8.819h-.118l-3.618-8.819h-1.53V113h1.23v-8.071h.088l3.332 8.071h1.114l3.332-8.071h.088V113h1.231zm5.457-.967c-.915 0-1.597-.469-1.597-1.274 0-.791.528-1.209 1.729-1.289l2.124-.139v.725c0 1.128-.959 1.977-2.256 1.977zm-.234 1.106c1.054 0 1.919-.461 2.431-1.304h.118V113h1.201v-5.405c0-1.641-1.077-2.63-3.003-2.63-1.685 0-2.93.835-3.098 2.102h1.274c.176-.622.835-.981 1.78-.981 1.179 0 1.787.535 1.787 1.509v.717l-2.278.14c-1.838.11-2.878.923-2.878 2.336 0 1.443 1.135 2.351 2.666 2.351zm9.764-1.369c-1.465 0-2.285-1.114-2.285-2.835 0-1.721.82-2.834 2.285-2.834 1.458 0 2.344 1.113 2.344 2.834s-.879 2.835-2.344 2.835zm.059 4.262c2.153 0 3.515-1.128 3.515-2.893v-8.035h-1.201v1.253h-.117c-.454-.85-1.428-1.392-2.534-1.392-2.029 0-3.311 1.604-3.311 3.97s1.267 3.948 3.311 3.948c1.084 0 1.977-.491 2.475-1.362h.117v1.552c0 1.165-.842 1.861-2.255 1.861-1.136 0-1.839-.418-1.978-1.062h-1.333c.191 1.303 1.406 2.16 3.311 2.16zm9.529-9.953c1.253 0 2.088.922 2.117 2.321h-4.35c.095-1.399.974-2.321 2.233-2.321zm2.081 4.878c-.33.695-1.018 1.069-2.037 1.069-1.34 0-2.211-.989-2.277-2.549v-.059h5.676v-.483c0-2.454-1.297-3.97-3.428-3.97-2.168 0-3.559 1.612-3.559 4.095 0 2.497 1.369 4.079 3.559 4.079 1.729 0 2.959-.835 3.325-2.182h-1.259zm4.871-3.553a.954.954 0 00.952-.952.95.95 0 00-.952-.952.955.955 0 00-.952.952c0 .52.432.952.952.952zm-.241 8.284l1.149-4.167h-1.398l-.696 4.167h.945zm12.021-9.609c1.252 0 2.087.922 2.116 2.321h-4.35c.095-1.399.974-2.321 2.234-2.321zm2.08 4.878c-.33.695-1.018 1.069-2.036 1.069-1.341 0-2.212-.989-2.278-2.549v-.059h5.676v-.483c0-2.454-1.296-3.97-3.428-3.97-2.168 0-3.559 1.612-3.559 4.095 0 2.497 1.369 4.079 3.559 4.079 1.729 0 2.959-.835 3.326-2.182h-1.26zm6.329-.916l1.868 2.981h1.494l-2.717-3.999 2.68-3.897h-1.428l-1.853 2.937h-.117l-1.875-2.937h-1.502l2.732 3.948-2.702 3.948h1.428l1.875-2.981h.117zm11.734-2.52c-.219-1.406-1.391-2.556-3.31-2.556-2.212 0-3.618 1.597-3.618 4.058 0 2.512 1.413 4.116 3.625 4.116 1.897 0 3.076-1.069 3.303-2.519h-1.274c-.234.893-.974 1.384-2.036 1.384-1.406 0-2.315-1.157-2.315-2.981 0-1.787.894-2.922 2.315-2.922 1.135 0 1.831.637 2.036 1.42h1.274zM412.78 113h1.26v-7.896h-1.26V113zm.63-9.419a.882.882 0 00.879-.879.882.882 0 00-.879-.879.882.882 0 00-.879.879.88.88 0 00.879.879zm4.051-.52v2.043h-1.274v1.055h1.274v4.79c0 1.509.652 2.11 2.278 2.11.249 0 .491-.03.74-.074v-1.062c-.235.022-.359.03-.586.03-.821 0-1.172-.396-1.172-1.326v-4.468h1.758v-1.055h-1.758v-2.043h-1.26zm8.446 3.018c1.252 0 2.087.922 2.117 2.321h-4.351c.095-1.399.974-2.321 2.234-2.321zm2.08 4.878c-.33.695-1.018 1.069-2.036 1.069-1.34 0-2.212-.989-2.278-2.549v-.059h5.676v-.483c0-2.454-1.296-3.97-3.427-3.97-2.168 0-3.56 1.612-3.56 4.095 0 2.497 1.37 4.079 3.56 4.079 1.728 0 2.959-.835 3.325-2.182h-1.26zm6.754 2.182c1.091 0 2.029-.52 2.527-1.399h.117V113h1.201v-11.03h-1.259v4.38h-.11c-.447-.865-1.377-1.385-2.476-1.385-2.007 0-3.318 1.612-3.318 4.087 0 2.483 1.297 4.087 3.318 4.087zm.293-7.038c1.428 0 2.322 1.142 2.322 2.951 0 1.824-.886 2.952-2.322 2.952-1.443 0-2.307-1.106-2.307-2.952 0-1.838.871-2.951 2.307-2.951zm11.743-3.04v2.043h-1.275v1.055h1.275v4.79c0 1.509.652 2.11 2.278 2.11.249 0 .49-.03.739-.074v-1.062c-.234.022-.358.03-.585.03-.821 0-1.172-.396-1.172-1.326v-4.468h1.757v-1.055h-1.757v-2.043h-1.26zm8.541 10.078c2.249 0 3.64-1.553 3.64-4.087 0-2.541-1.391-4.087-3.64-4.087s-3.64 1.546-3.64 4.087c0 2.534 1.391 4.087 3.64 4.087zm0-1.135c-1.494 0-2.336-1.084-2.336-2.952 0-1.875.842-2.951 2.336-2.951 1.494 0 2.336 1.076 2.336 2.951 0 1.868-.842 2.952-2.336 2.952zm14.028-.234c-1.465 0-2.285-1.114-2.285-2.835 0-1.721.82-2.834 2.285-2.834 1.458 0 2.344 1.113 2.344 2.834s-.879 2.835-2.344 2.835zm.059 4.262c2.153 0 3.515-1.128 3.515-2.893v-8.035h-1.201v1.253h-.117c-.454-.85-1.428-1.392-2.534-1.392-2.029 0-3.311 1.604-3.311 3.97s1.267 3.948 3.311 3.948c1.084 0 1.977-.491 2.475-1.362h.117v1.552c0 1.165-.842 1.861-2.255 1.861-1.136 0-1.839-.418-1.978-1.062h-1.333c.19 1.303 1.406 2.16 3.311 2.16zm9.529-9.953c1.253 0 2.088.922 2.117 2.321h-4.35c.095-1.399.974-2.321 2.233-2.321zm2.081 4.878c-.33.695-1.019 1.069-2.037 1.069-1.34 0-2.212-.989-2.277-2.549v-.059h5.676v-.483c0-2.454-1.297-3.97-3.428-3.97-2.168 0-3.559 1.612-3.559 4.095 0 2.497 1.369 4.079 3.559 4.079 1.729 0 2.959-.835 3.325-2.182h-1.259zm4.359-7.896v2.043h-1.275v1.055h1.275v4.79c0 1.509.651 2.11 2.277 2.11.249 0 .491-.03.74-.074v-1.062c-.234.022-.359.03-.586.03-.82 0-1.172-.396-1.172-1.326v-4.468h1.758v-1.055h-1.758v-2.043h-1.259zm10.666 0v2.043h-1.275v1.055h1.275v4.79c0 1.509.652 2.11 2.278 2.11.249 0 .49-.03.739-.074v-1.062c-.234.022-.359.03-.586.03-.82 0-1.172-.396-1.172-1.326v-4.468h1.758v-1.055h-1.758v-2.043h-1.259zm5.487 9.939h1.259v-4.673c0-1.333.777-2.226 2.19-2.226 1.194 0 1.824.695 1.824 2.094V113h1.26v-5.112c0-1.853-1.055-2.923-2.725-2.923-1.208 0-2.036.513-2.431 1.385h-.118v-4.38h-1.259V113zm12.474-6.921c1.252 0 2.087.922 2.117 2.321h-4.351c.095-1.399.974-2.321 2.234-2.321zm2.08 4.878c-.33.695-1.018 1.069-2.036 1.069-1.341 0-2.212-.989-2.278-2.549v-.059h5.676v-.483c0-2.454-1.296-3.97-3.428-3.97-2.167 0-3.559 1.612-3.559 4.095 0 2.497 1.37 4.079 3.559 4.079 1.729 0 2.959-.835 3.326-2.182h-1.26zm12.482 2.182c2 0 3.311-1.618 3.311-4.087 0-2.483-1.304-4.087-3.311-4.087-1.084 0-2.043.535-2.475 1.385h-.117v-4.38h-1.26V113h1.201v-1.26h.117c.498.879 1.436 1.399 2.534 1.399zm-.292-7.038c1.442 0 2.299 1.106 2.299 2.951 0 1.846-.857 2.952-2.299 2.952-1.436 0-2.33-1.128-2.33-2.952 0-1.823.894-2.951 2.33-2.951zm8.504 5.932c-.916 0-1.597-.469-1.597-1.274 0-.791.528-1.209 1.729-1.289l2.124-.139v.725c0 1.128-.96 1.977-2.256 1.977zm-.234 1.106c1.054 0 1.919-.461 2.431-1.304h.117V113h1.202v-5.405c0-1.641-1.077-2.63-3.003-2.63-1.685 0-2.93.835-3.098 2.102h1.274c.176-.622.835-.981 1.78-.981 1.179 0 1.787.535 1.787 1.509v.717l-2.278.14c-1.838.11-2.878.923-2.878 2.336 0 1.443 1.135 2.351 2.666 2.351zm6.644-.139h1.26v-11.03h-1.26V113zm4.271 0h1.26v-11.03h-1.26V113zm8.923 0h1.26v-4.893c0-1.113.871-1.919 2.072-1.919.249 0 .704.044.806.074v-1.26a5.4 5.4 0 00-.63-.037c-1.047 0-1.955.542-2.19 1.311h-.117v-1.172h-1.201V113zm9.229.139c2.249 0 3.641-1.553 3.641-4.087 0-2.541-1.392-4.087-3.641-4.087-2.248 0-3.64 1.546-3.64 4.087 0 2.534 1.392 4.087 3.64 4.087zm0-1.135c-1.494 0-2.336-1.084-2.336-2.952 0-1.875.842-2.951 2.336-2.951 1.495 0 2.337 1.076 2.337 2.951 0 1.868-.842 2.952-2.337 2.952zm6.183.996h1.26v-11.03h-1.26V113zm4.271 0h1.26v-11.03h-1.26V113zm4.227 0h1.26v-7.896h-1.26V113zm.63-9.419a.88.88 0 00.879-.879.882.882 0 00-.879-.879.882.882 0 00-.879.879c0 .484.396.879.879.879zm3.524 9.419h1.26v-4.673c0-1.384.813-2.226 2.073-2.226s1.86.673 1.86 2.094V113h1.26v-5.112c0-1.875-.989-2.923-2.761-2.923-1.209 0-1.978.513-2.373 1.385h-.118v-1.246h-1.201V113zm12.445-1.23c-1.465 0-2.285-1.114-2.285-2.835 0-1.721.82-2.834 2.285-2.834 1.458 0 2.344 1.113 2.344 2.834s-.879 2.835-2.344 2.835zm.059 4.262c2.153 0 3.515-1.128 3.515-2.893v-8.035h-1.201v1.253h-.117c-.454-.85-1.428-1.392-2.534-1.392-2.029 0-3.311 1.604-3.311 3.97s1.267 3.948 3.311 3.948c1.084 0 1.977-.491 2.475-1.362h.118v1.552c0 1.165-.843 1.861-2.256 1.861-1.135 0-1.839-.418-1.978-1.062h-1.333c.191 1.303 1.406 2.16 3.311 2.16zm21.037-10.928h-1.267l-1.553 6.314h-.117l-1.765-6.314h-1.209l-1.765 6.314h-.117l-1.553-6.314h-1.274l2.212 7.896h1.274l1.758-6.108h.117L614.49 113h1.282l2.212-7.896zM620.19 113h1.259v-7.896h-1.259V113zm.63-9.419a.88.88 0 00.878-.879.881.881 0 00-.878-.879.882.882 0 00-.879.879.88.88 0 00.879.879zm4.051-.52v2.043h-1.274v1.055h1.274v4.79c0 1.509.652 2.11 2.278 2.11.249 0 .49-.03.74-.074v-1.062c-.235.022-.359.03-.586.03-.821 0-1.172-.396-1.172-1.326v-4.468h1.758v-1.055h-1.758v-2.043h-1.26zm5.487 9.939h1.26v-4.673c0-1.333.776-2.226 2.19-2.226 1.193 0 1.823.695 1.823 2.094V113h1.26v-5.112c0-1.853-1.055-2.923-2.725-2.923-1.208 0-2.036.513-2.431 1.385h-.117v-4.38h-1.26V113zm14.123 0h1.26v-4.673c0-1.333.776-2.226 2.19-2.226 1.194 0 1.823.695 1.823 2.094V113h1.26v-5.112c0-1.853-1.054-2.923-2.724-2.923-1.209 0-2.036.513-2.432 1.385h-.117v-4.38h-1.26V113zm9.354 0h1.26v-7.896h-1.26V113zm.63-9.419a.882.882 0 00.879-.879.882.882 0 00-.879-.879.882.882 0 00-.879.879c0 .484.396.879.879.879zm3.524 9.419h1.26v-4.893c0-1.113.798-2.006 1.831-2.006.996 0 1.648.6 1.648 1.538V113h1.26v-5.076c0-1.003.732-1.823 1.831-1.823 1.113 0 1.662.571 1.662 1.735V113h1.26v-5.457c0-1.655-.901-2.578-2.512-2.578-1.092 0-1.992.55-2.417 1.385h-.117c-.367-.821-1.114-1.385-2.183-1.385-1.055 0-1.846.506-2.205 1.385h-.117v-1.246h-1.201V113zm13.954-10.576l.124 7.06h1.216l.125-7.06h-1.465zm.739 10.708c.594 0 1.011-.425 1.011-1.018 0-.601-.417-1.026-1.011-1.026-.593 0-1.018.425-1.018 1.026 0 .593.425 1.018 1.018 1.018zm-418.432 21a2.199 2.199 0 002.227-2.226 2.199 2.199 0 00-2.227-2.227 2.199 2.199 0 00-2.227 2.227c0 1.252.975 2.226 2.227 2.226zm16.853 2.117c2.249 0 3.918-1.252 4.27-3.193h-1.34c-.337 1.223-1.458 1.977-2.93 1.977-2.036 0-3.311-1.662-3.311-4.314 0-2.651 1.275-4.321 3.304-4.321 1.457 0 2.585.857 2.937 2.219h1.34c-.315-2.036-2.051-3.435-4.277-3.435-2.871 0-4.658 2.124-4.658 5.537 0 3.406 1.794 5.53 4.665 5.53zm10.057-.11c2.249 0 3.64-1.553 3.64-4.087 0-2.541-1.391-4.087-3.64-4.087-2.248 0-3.64 1.546-3.64 4.087 0 2.534 1.392 4.087 3.64 4.087zm0-1.135c-1.494 0-2.336-1.084-2.336-2.952 0-1.875.842-2.951 2.336-2.951 1.494 0 2.337 1.076 2.337 2.951 0 1.868-.843 2.952-2.337 2.952zm6.11.996h1.259v-4.673c0-1.384.813-2.226 2.073-2.226s1.861.673 1.861 2.094V136h1.259v-5.112c0-1.875-.988-2.923-2.761-2.923-1.208 0-1.977.513-2.373 1.385h-.117v-1.246h-1.201V136zm9.779-9.939v2.043h-1.275v1.055h1.275v4.79c0 1.509.651 2.11 2.277 2.11.249 0 .491-.03.74-.074v-1.062c-.234.022-.359.03-.586.03-.82 0-1.172-.396-1.172-1.326v-4.468h1.758v-1.055h-1.758v-2.043h-1.259zm5.443 9.939h1.259v-7.896h-1.259V136zm.629-9.419a.88.88 0 00.879-.879.882.882 0 00-.879-.879.881.881 0 00-.878.879.88.88 0 00.878.879zm3.524 9.419h1.26v-4.673c0-1.384.813-2.226 2.073-2.226s1.86.673 1.86 2.094V136h1.26v-5.112c0-1.875-.989-2.923-2.761-2.923-1.209 0-1.978.513-2.373 1.385h-.117v-1.246h-1.202V136zm15.639-7.896h-1.26v4.673c0 1.385-.762 2.212-2.153 2.212-1.26 0-1.787-.659-1.787-2.08v-4.805h-1.26v5.113c0 1.867.923 2.922 2.695 2.922 1.209 0 2.051-.498 2.446-1.377h.118V136h1.201v-7.896zm6.014.975c1.252 0 2.087.922 2.117 2.321h-4.351c.095-1.399.974-2.321 2.234-2.321zm2.08 4.878c-.33.695-1.018 1.069-2.036 1.069-1.34 0-2.212-.989-2.278-2.549v-.059h5.676v-.483c0-2.454-1.296-3.97-3.427-3.97-2.168 0-3.56 1.612-3.56 4.095 0 2.497 1.37 4.079 3.56 4.079 1.728 0 2.959-.835 3.325-2.182h-1.26zm6.754 2.182c1.091 0 2.029-.52 2.527-1.399h.117V136h1.201v-11.03h-1.26v4.38h-.109c-.447-.865-1.377-1.385-2.476-1.385-2.007 0-3.318 1.612-3.318 4.087 0 2.483 1.297 4.087 3.318 4.087zm.293-7.038c1.428 0 2.322 1.142 2.322 2.951 0 1.824-.886 2.952-2.322 2.952-1.443 0-2.307-1.106-2.307-2.952 0-1.838.871-2.951 2.307-2.951zm11.743-3.04v2.043h-1.275v1.055h1.275v4.79c0 1.509.652 2.11 2.278 2.11.249 0 .49-.03.739-.074v-1.062c-.234.022-.358.03-.586.03-.82 0-1.171-.396-1.171-1.326v-4.468h1.757v-1.055h-1.757v-2.043h-1.26zm5.414 9.939h1.259v-4.893c0-1.113.872-1.919 2.073-1.919.249 0 .703.044.806.074v-1.26a5.4 5.4 0 00-.63-.037c-1.048 0-1.956.542-2.19 1.311h-.117v-1.172h-1.201V136zm8.636-.967c-.916 0-1.597-.469-1.597-1.274 0-.791.527-1.209 1.729-1.289l2.124-.139v.725c0 1.128-.96 1.977-2.256 1.977zm-.235 1.106c1.055 0 1.919-.461 2.432-1.304h.117V136h1.201v-5.405c0-1.641-1.076-2.63-3.002-2.63-1.685 0-2.93.835-3.099 2.102h1.275c.176-.622.835-.981 1.78-.981 1.179 0 1.787.535 1.787 1.509v.717l-2.278.14c-1.839.11-2.879.923-2.879 2.336 0 1.443 1.136 2.351 2.666 2.351zm6.601-.139h1.259v-7.896h-1.259V136zm.63-9.419a.88.88 0 00.878-.879.881.881 0 00-.878-.879.882.882 0 00-.879.879.88.88 0 00.879.879zm3.524 9.419h1.259v-4.673c0-1.384.813-2.226 2.073-2.226s1.86.673 1.86 2.094V136h1.26v-5.112c0-1.875-.989-2.923-2.761-2.923-1.209 0-1.978.513-2.373 1.385h-.117v-1.246h-1.201V136zm9.28 0h1.26v-7.896h-1.26V136zm.63-9.419a.88.88 0 00.879-.879.882.882 0 00-.879-.879.882.882 0 00-.879.879c0 .484.396.879.879.879zm3.524 9.419h1.26v-4.673c0-1.384.813-2.226 2.073-2.226s1.86.673 1.86 2.094V136h1.26v-5.112c0-1.875-.989-2.923-2.761-2.923-1.209 0-1.978.513-2.373 1.385h-.118v-1.246h-1.201V136zm12.445-1.23c-1.465 0-2.285-1.114-2.285-2.835 0-1.721.82-2.834 2.285-2.834 1.458 0 2.344 1.113 2.344 2.834s-.879 2.835-2.344 2.835zm.059 4.262c2.153 0 3.515-1.128 3.515-2.893v-8.035h-1.201v1.253h-.117c-.454-.85-1.428-1.392-2.534-1.392-2.029 0-3.311 1.604-3.311 3.97s1.267 3.948 3.311 3.948c1.084 0 1.977-.491 2.475-1.362h.118v1.552c0 1.165-.843 1.861-2.256 1.861-1.135 0-1.839-.418-1.978-1.062h-1.333c.191 1.303 1.406 2.16 3.311 2.16zm14.35-2.893c2.249 0 3.64-1.553 3.64-4.087 0-2.541-1.391-4.087-3.64-4.087-2.248 0-3.64 1.546-3.64 4.087 0 2.534 1.392 4.087 3.64 4.087zm0-1.135c-1.494 0-2.336-1.084-2.336-2.952 0-1.875.842-2.951 2.336-2.951 1.494 0 2.336 1.076 2.336 2.951 0 1.868-.842 2.952-2.336 2.952zm6.637.996h1.26v-6.841h1.809v-1.055h-1.809v-.842c0-.864.38-1.304 1.289-1.304.227 0 .439.008.593.037v-1.025a4.368 4.368 0 00-.85-.074c-1.501 0-2.292.755-2.292 2.33v.878h-1.311v1.055h1.311V136zm10.124 0h1.26v-4.673c0-1.384.813-2.226 2.073-2.226 1.259 0 1.86.673 1.86 2.094V136h1.26v-5.112c0-1.875-.989-2.923-2.762-2.923-1.208 0-1.977.513-2.373 1.385h-.117v-1.246h-1.201V136zm12.401-6.921c1.252 0 2.087.922 2.117 2.321h-4.351c.095-1.399.974-2.321 2.234-2.321zm2.08 4.878c-.329.695-1.018 1.069-2.036 1.069-1.34 0-2.212-.989-2.278-2.549v-.059h5.676v-.483c0-2.454-1.296-3.97-3.427-3.97-2.168 0-3.56 1.612-3.56 4.095 0 2.497 1.37 4.079 3.56 4.079 1.728 0 2.959-.835 3.325-2.182h-1.26zm13.763-5.853h-1.267l-1.552 6.314h-.118l-1.765-6.314h-1.208l-1.765 6.314h-.118l-1.552-6.314h-1.275l2.212 7.896h1.275l1.757-6.108h.118l1.765 6.108h1.281l2.212-7.896zm7.063-2.673V136h1.318v-3.772h2.659c1.985 0 3.399-1.399 3.399-3.376 0-2.015-1.385-3.421-3.384-3.421h-3.992zm1.318 1.172h2.33c1.53 0 2.373.798 2.373 2.249 0 1.398-.872 2.204-2.373 2.204h-2.33v-4.453zM484.559 136v-10.569h-1.318v4.57h-5.801v-4.57h-1.318V136h1.318v-4.812h5.801V136h1.318zm7.825 0h1.26v-11.03h-1.26V136zm7.347-6.921c1.253 0 2.088.922 2.117 2.321h-4.351c.095-1.399.974-2.321 2.234-2.321zm2.08 4.878c-.329.695-1.018 1.069-2.036 1.069-1.34 0-2.212-.989-2.278-2.549v-.059h5.676v-.483c0-2.454-1.296-3.97-3.427-3.97-2.168 0-3.56 1.612-3.56 4.095 0 2.497 1.37 4.079 3.56 4.079 1.728 0 2.959-.835 3.325-2.182h-1.26zm6.263 1.076c-.915 0-1.596-.469-1.596-1.274 0-.791.527-1.209 1.728-1.289l2.124-.139v.725c0 1.128-.959 1.977-2.256 1.977zm-.234 1.106c1.055 0 1.919-.461 2.432-1.304h.117V136h1.201v-5.405c0-1.641-1.077-2.63-3.003-2.63-1.684 0-2.93.835-3.098 2.102h1.274c.176-.622.835-.981 1.78-.981 1.179 0 1.787.535 1.787 1.509v.717l-2.278.14c-1.838.11-2.878.923-2.878 2.336 0 1.443 1.135 2.351 2.666 2.351zm9.493 0c1.092 0 2.029-.52 2.527-1.399h.117V136h1.202v-11.03h-1.26v4.38h-.11c-.447-.865-1.377-1.385-2.476-1.385-2.006 0-3.318 1.612-3.318 4.087 0 2.483 1.297 4.087 3.318 4.087zm.293-7.038c1.429 0 2.322 1.142 2.322 2.951 0 1.824-.886 2.952-2.322 2.952-1.443 0-2.307-1.106-2.307-2.952 0-1.838.872-2.951 2.307-2.951zm6.308 1.164c0 1.143.673 1.78 2.153 2.139l1.355.329c.842.205 1.252.572 1.252 1.114 0 .725-.761 1.23-1.823 1.23-1.011 0-1.641-.425-1.853-1.091h-1.297c.139 1.311 1.348 2.153 3.106 2.153 1.794 0 3.164-.974 3.164-2.388 0-1.135-.718-1.779-2.205-2.138l-1.216-.293c-.93-.227-1.369-.564-1.369-1.106 0-.703.732-1.179 1.67-1.179.952 0 1.567.417 1.735 1.047h1.246c-.169-1.296-1.319-2.117-2.974-2.117-1.677 0-2.944.989-2.944 2.3zm15.683 4.768c-.916 0-1.597-.469-1.597-1.274 0-.791.527-1.209 1.729-1.289l2.124-.139v.725c0 1.128-.96 1.977-2.256 1.977zm-.235 1.106c1.055 0 1.919-.461 2.432-1.304h.117V136h1.201v-5.405c0-1.641-1.076-2.63-3.003-2.63-1.684 0-2.929.835-3.098 2.102h1.275c.176-.622.835-.981 1.78-.981 1.179 0 1.787.535 1.787 1.509v.717l-2.278.14c-1.839.11-2.879.923-2.879 2.336 0 1.443 1.136 2.351 2.666 2.351zm6.571-.139h1.26v-4.673c0-1.384.813-2.226 2.073-2.226s1.86.673 1.86 2.094V136h1.26v-5.112c0-1.875-.989-2.923-2.761-2.923-1.209 0-1.978.513-2.373 1.385h-.118v-1.246h-1.201V136zm12.174.139c1.092 0 2.029-.52 2.527-1.399h.117V136h1.201v-11.03h-1.259v4.38h-.11c-.447-.865-1.377-1.385-2.476-1.385-2.007 0-3.318 1.612-3.318 4.087 0 2.483 1.297 4.087 3.318 4.087zm.293-7.038c1.428 0 2.322 1.142 2.322 2.951 0 1.824-.886 2.952-2.322 2.952-1.443 0-2.307-1.106-2.307-2.952 0-1.838.872-2.951 2.307-2.951zM569.709 136h1.26v-4.673c0-1.333.776-2.226 2.19-2.226 1.194 0 1.823.695 1.823 2.094V136h1.26v-5.112c0-1.853-1.055-2.923-2.724-2.923-1.209 0-2.037.513-2.432 1.385h-.117v-4.38h-1.26V136zm11.756-.967c-.915 0-1.596-.469-1.596-1.274 0-.791.527-1.209 1.728-1.289l2.124-.139v.725c0 1.128-.959 1.977-2.256 1.977zm-.234 1.106c1.055 0 1.919-.461 2.432-1.304h.117V136h1.201v-5.405c0-1.641-1.077-2.63-3.003-2.63-1.685 0-2.93.835-3.098 2.102h1.274c.176-.622.835-.981 1.78-.981 1.179 0 1.787.535 1.787 1.509v.717l-2.278.14c-1.838.11-2.878.923-2.878 2.336 0 1.443 1.135 2.351 2.666 2.351zm6.571-.139h1.26v-4.673c0-1.384.813-2.226 2.072-2.226 1.26 0 1.861.673 1.861 2.094V136h1.26v-5.112c0-1.875-.989-2.923-2.762-2.923-1.208 0-1.977.513-2.373 1.385h-.117v-1.246h-1.201V136zm12.174.139c1.091 0 2.029-.52 2.527-1.399h.117V136h1.201v-11.03h-1.26v4.38h-.11c-.446-.865-1.377-1.385-2.475-1.385-2.007 0-3.318 1.612-3.318 4.087 0 2.483 1.296 4.087 3.318 4.087zm.293-7.038c1.428 0 2.322 1.142 2.322 2.951 0 1.824-.887 2.952-2.322 2.952-1.443 0-2.307-1.106-2.307-2.952 0-1.838.871-2.951 2.307-2.951zm9.735 7.038c2.248 0 3.64-1.553 3.64-4.087 0-2.541-1.392-4.087-3.64-4.087-2.249 0-3.64 1.546-3.64 4.087 0 2.534 1.391 4.087 3.64 4.087zm0-1.135c-1.494 0-2.337-1.084-2.337-2.952 0-1.875.843-2.951 2.337-2.951 1.494 0 2.336 1.076 2.336 2.951 0 1.868-.842 2.952-2.336 2.952zm6.637.996h1.259v-6.841h1.809v-1.055H617.9v-.842c0-.864.381-1.304 1.289-1.304.227 0 .44.008.594.037v-1.025a4.368 4.368 0 00-.85-.074c-1.501 0-2.292.755-2.292 2.33v.878h-1.312v1.055h1.312V136zm5.926 0h1.26v-6.841h1.809v-1.055h-1.809v-.842c0-.864.381-1.304 1.289-1.304.227 0 .439.008.593.037v-1.025a4.368 4.368 0 00-.85-.074c-1.501 0-2.292.755-2.292 2.33v.878h-1.311v1.055h1.311V136zm4.85-5.735c0 1.143.673 1.78 2.153 2.139l1.355.329c.842.205 1.252.572 1.252 1.114 0 .725-.761 1.23-1.823 1.23-1.011 0-1.641-.425-1.853-1.091h-1.297c.139 1.311 1.348 2.153 3.106 2.153 1.794 0 3.164-.974 3.164-2.388 0-1.135-.718-1.779-2.205-2.138l-1.216-.293c-.93-.227-1.369-.564-1.369-1.106 0-.703.732-1.179 1.67-1.179.952 0 1.567.417 1.735 1.047h1.246c-.169-1.296-1.319-2.117-2.974-2.117-1.677 0-2.944.989-2.944 2.3zm13.779-4.204v2.043h-1.275v1.055h1.275v4.79c0 1.509.651 2.11 2.277 2.11.249 0 .491-.03.74-.074v-1.062c-.234.022-.359.03-.586.03-.82 0-1.172-.396-1.172-1.326v-4.468h1.758v-1.055h-1.758v-2.043h-1.259zm8.541 10.078c2.248 0 3.64-1.553 3.64-4.087 0-2.541-1.392-4.087-3.64-4.087-2.249 0-3.64 1.546-3.64 4.087 0 2.534 1.391 4.087 3.64 4.087zm0-1.135c-1.494 0-2.337-1.084-2.337-2.952 0-1.875.843-2.951 2.337-2.951 1.494 0 2.336 1.076 2.336 2.951 0 1.868-.842 2.952-2.336 2.952zm10.834.996h1.26v-4.673c0-1.384.813-2.226 2.073-2.226s1.86.673 1.86 2.094V136h1.26v-5.112c0-1.875-.989-2.923-2.761-2.923-1.209 0-1.978.513-2.373 1.385h-.118v-1.246h-1.201V136zm12.401-6.921c1.253 0 2.088.922 2.117 2.321h-4.351c.096-1.399.974-2.321 2.234-2.321zm2.08 4.878c-.329.695-1.018 1.069-2.036 1.069-1.34 0-2.212-.989-2.278-2.549v-.059h5.677v-.483c0-2.454-1.297-3.97-3.428-3.97-2.168 0-3.56 1.612-3.56 4.095 0 2.497 1.37 4.079 3.56 4.079 1.728 0 2.959-.835 3.325-2.182h-1.26zm13.764-5.853h-1.267l-1.553 6.314h-.117l-1.766-6.314h-1.208l-1.765 6.314h-.117l-1.553-6.314h-1.275l2.212 7.896h1.275l1.758-6.108h.117l1.765 6.108h1.282l2.212-7.896zM266.687 159h1.259v-4.893c0-1.113.799-2.006 1.831-2.006.996 0 1.648.6 1.648 1.538V159h1.26v-5.076c0-1.003.732-1.823 1.831-1.823 1.113 0 1.663.571 1.663 1.735V159h1.259v-5.457c0-1.655-.9-2.578-2.512-2.578-1.091 0-1.992.55-2.417 1.385h-.117c-.366-.821-1.113-1.385-2.183-1.385-1.054 0-1.845.506-2.204 1.385h-.117v-1.246h-1.201V159zm15.975-.967c-.916 0-1.597-.469-1.597-1.274 0-.791.527-1.209 1.729-1.289l2.124-.139v.725c0 1.128-.96 1.977-2.256 1.977zm-.235 1.106c1.055 0 1.919-.461 2.432-1.304h.117V159h1.201v-5.405c0-1.641-1.076-2.63-3.003-2.63-1.684 0-2.929.835-3.098 2.102h1.275c.175-.622.835-.981 1.779-.981 1.18 0 1.788.535 1.788 1.509v.717l-2.278.14c-1.839.11-2.879.923-2.879 2.336 0 1.443 1.136 2.351 2.666 2.351zm6.571-.139h1.26v-4.673c0-1.384.813-2.226 2.073-2.226s1.86.673 1.86 2.094V159h1.26v-5.112c0-1.875-.989-2.923-2.761-2.923-1.209 0-1.978.513-2.373 1.385h-.118v-1.246h-1.201V159zm11.683-.967c-.915 0-1.596-.469-1.596-1.274 0-.791.527-1.209 1.728-1.289l2.124-.139v.725c0 1.128-.959 1.977-2.256 1.977zm-.234 1.106c1.055 0 1.919-.461 2.432-1.304h.117V159h1.201v-5.405c0-1.641-1.077-2.63-3.003-2.63-1.684 0-2.93.835-3.098 2.102h1.274c.176-.622.835-.981 1.78-.981 1.179 0 1.787.535 1.787 1.509v.717l-2.278.14c-1.838.11-2.878.923-2.878 2.336 0 1.443 1.135 2.351 2.666 2.351zm9.764-1.369c-1.465 0-2.285-1.114-2.285-2.835 0-1.721.82-2.834 2.285-2.834 1.458 0 2.344 1.113 2.344 2.834s-.879 2.835-2.344 2.835zm.059 4.262c2.153 0 3.516-1.128 3.516-2.893v-8.035h-1.202v1.253h-.117c-.454-.85-1.428-1.392-2.534-1.392-2.029 0-3.311 1.604-3.311 3.97s1.268 3.948 3.311 3.948c1.084 0 1.978-.491 2.476-1.362h.117v1.552c0 1.165-.843 1.861-2.256 1.861-1.135 0-1.839-.418-1.978-1.062h-1.333c.191 1.303 1.407 2.16 3.311 2.16zm9.53-9.953c1.252 0 2.087.922 2.116 2.321h-4.35c.095-1.399.974-2.321 2.234-2.321zm2.08 4.878c-.33.695-1.018 1.069-2.036 1.069-1.341 0-2.212-.989-2.278-2.549v-.059h5.676v-.483c0-2.454-1.296-3.97-3.428-3.97-2.168 0-3.559 1.612-3.559 4.095 0 2.497 1.369 4.079 3.559 4.079 1.729 0 2.959-.835 3.326-2.182h-1.26zm3.831 2.043h1.26v-4.893c0-1.113.872-1.919 2.073-1.919.249 0 .703.044.806.074v-1.26a5.4 5.4 0 00-.63-.037c-1.048 0-1.956.542-2.19 1.311h-.117v-1.172h-1.202V159zm5.876-5.735c0 1.143.673 1.78 2.153 2.139l1.355.329c.842.205 1.252.572 1.252 1.114 0 .725-.761 1.23-1.823 1.23-1.011 0-1.641-.425-1.853-1.091h-1.297c.139 1.311 1.348 2.153 3.106 2.153 1.794 0 3.164-.974 3.164-2.388 0-1.135-.718-1.779-2.205-2.138l-1.216-.293c-.93-.227-1.369-.564-1.369-1.106 0-.703.732-1.179 1.67-1.179.952 0 1.567.417 1.735 1.047h1.246c-.169-1.296-1.319-2.117-2.974-2.117-1.677 0-2.944.989-2.944 2.3zm9.566 5.808a.955.955 0 00.952-.952.95.95 0 00-.952-.952.955.955 0 00-.952.952c0 .52.432.952.952.952z" fill="#454545"/>
  <path d="M248.188 221c2.106 0 3.412-1.087 3.412-2.823 0-1.306-.985-2.283-2.325-2.386v-.055a2.175 2.175 0 001.853-2.139c0-1.511-1.162-2.461-3.015-2.461h-4.293V221h4.368zm-2.303-8.326h1.695c.964 0 1.518.451 1.518 1.244 0 .834-.629 1.319-1.73 1.319h-1.483v-2.563zm0 6.788v-2.864h1.729c1.217 0 1.88.492 1.88 1.415 0 .943-.642 1.449-1.832 1.449h-1.777zm9.55.212c-.677 0-1.128-.342-1.128-.889 0-.519.423-.854 1.169-.909l1.545-.096v.533c0 .793-.718 1.361-1.586 1.361zm-.657 1.442c.916 0 1.826-.458 2.236-1.237h.041V221h1.927v-5.038c0-1.477-1.223-2.447-3.103-2.447-1.941 0-3.151.977-3.227 2.399h1.826c.095-.54.567-.909 1.312-.909.752 0 1.231.396 1.231 1.08v.485l-1.846.11c-1.825.109-2.851.882-2.851 2.215 0 1.319 1.06 2.221 2.454 2.221zm5.544-.116h1.996v-9.864h-1.996V221zm3.391 0h1.996v-9.864h-1.996V221zm6.631-6.009c.888 0 1.497.643 1.538 1.579h-3.111c.069-.916.698-1.579 1.573-1.579zm1.565 3.767c-.184.56-.745.923-1.476.923-1.019 0-1.682-.718-1.682-1.764v-.123h5.052v-.608c0-2.229-1.347-3.671-3.48-3.671-2.167 0-3.534 1.517-3.534 3.855 0 2.345 1.354 3.787 3.609 3.787 1.812 0 3.124-.964 3.343-2.399h-1.832zm2.926 2.242h1.996v-4.095c0-1.032.574-1.634 1.559-1.634.287 0 .56.048.724.117v-1.757a2.03 2.03 0 00-.567-.075c-.861 0-1.484.506-1.743 1.435h-.041v-1.319h-1.928V221zm9.078 0v-8.162h2.858v-1.702h-7.773v1.702h2.851V221h2.064zm9.174 0l3.315-9.864h-2.249l-2.256 7.738h-.047l-2.256-7.738h-2.311l3.316 9.864h2.488z" fill="#029D7F"/>
  <rect x="323" y="202" width="115" height="28" rx="14" fill="#029D7F"/>
  <path d="M427.835 219.04l-3.539-3.54 3.539-3.54a.561.561 0 10-.795-.795l-3.54 3.539-3.54-3.539a.561.561 0 10-.795.796l3.539 3.539-3.539 3.54a.561.561 0 10.796.795l3.539-3.539 3.54 3.539a.561.561 0 10.795-.795zm-90.574.96v-3.842h4.012v-1.688h-4.012v-2.571h4.395v-1.763h-6.46V220h2.065zm6.61 0h1.989v-7.54h-1.989V220zm.998-8.668c.622 0 1.128-.506 1.128-1.142 0-.635-.506-1.134-1.128-1.134a1.13 1.13 0 00-1.128 1.134c0 .636.513 1.142 1.128 1.142zm6.76 2.488c.93 0 1.531.622 1.572 1.62h-3.213c.069-.977.718-1.62 1.641-1.62zm1.613 4.034c-.212.499-.752.779-1.538.779-1.039 0-1.695-.697-1.722-1.819v-.102h5.174v-.608c0-2.393-1.312-3.808-3.534-3.808-2.242 0-3.623 1.517-3.623 3.972 0 2.447 1.354 3.896 3.651 3.896 1.845 0 3.151-.895 3.445-2.31h-1.853zM357.35 220h1.99v-10.418h-1.99V220zm7.253.116c1.046 0 1.9-.485 2.304-1.299h.123V220h1.927v-10.418h-1.989v4.081h-.116c-.39-.834-1.231-1.326-2.249-1.326-1.894 0-3.069 1.483-3.069 3.883 0 2.406 1.168 3.896 3.069 3.896zm.677-6.111c1.059 0 1.709.854 1.709 2.228 0 1.381-.643 2.222-1.709 2.222-1.067 0-1.703-.834-1.703-2.228 0-1.381.643-2.222 1.703-2.222zM380.27 220v-8.101h2.96v-1.763h-7.984v1.763h2.96V220h2.064zm7.041-6.18c.929 0 1.531.622 1.572 1.62h-3.213c.068-.977.718-1.62 1.641-1.62zm1.613 4.034c-.212.499-.752.779-1.538.779-1.039 0-1.695-.697-1.723-1.819v-.102h5.175v-.608c0-2.393-1.312-3.808-3.534-3.808-2.242 0-3.623 1.517-3.623 3.972 0 2.447 1.353 3.896 3.65 3.896 1.846 0 3.152-.895 3.445-2.31h-1.852zm6.76.765c-.69 0-1.175-.342-1.175-.902 0-.54.416-.848 1.271-.909l1.524-.096v.554c0 .765-.697 1.353-1.62 1.353zm-.656 1.497c.978 0 1.798-.41 2.188-1.1h.123V220h1.927v-5.147c0-1.614-1.128-2.557-3.124-2.557-1.893 0-3.172.875-3.301 2.269h1.832c.164-.451.642-.697 1.36-.697.82 0 1.271.356 1.271.985v.615l-1.825.109c-1.873.11-2.919.902-2.919 2.27 0 1.381 1.019 2.269 2.468 2.269zm6.685-.116h1.989v-4.539c0-.841.554-1.449 1.333-1.449.78 0 1.245.458 1.245 1.258V220h1.914v-4.614c0-.8.519-1.374 1.326-1.374.841 0 1.258.444 1.258 1.34V220h1.989v-5.175c0-1.552-.937-2.529-2.441-2.529-1.052 0-1.92.554-2.269 1.394h-.123c-.301-.875-1.026-1.394-2.085-1.394-.991 0-1.777.533-2.085 1.394h-.123v-1.23h-1.928V220z" fill="#fff"/>
  <rect x="445" y="202" width="123" height="28" rx="14" fill="#029D7F"/>
  <path d="M555.835 218.54l-3.539-3.54 3.539-3.54a.561.561 0 10-.795-.795l-3.54 3.539-3.54-3.539a.561.561 0 10-.795.796l3.539 3.539-3.539 3.54a.561.561 0 10.796.795l3.539-3.539 3.54 3.539a.561.561 0 10.795-.795zm-91.325-9.157c-2.906 0-4.751 1.982-4.751 5.181 0 3.2 1.818 5.189 4.751 5.189 2.912 0 4.744-1.989 4.744-5.189 0-3.192-1.839-5.181-4.744-5.181zm0 1.811c1.599 0 2.632 1.306 2.632 3.37 0 2.058-1.026 3.377-2.632 3.377-1.627 0-2.639-1.319-2.639-3.377 0-2.064 1.032-3.37 2.639-3.37zm11.354.643c-1.039 0-1.894.513-2.304 1.36h-.123v-1.237h-1.928v10.042h1.99v-3.657h.123c.369.8 1.196 1.271 2.276 1.271 1.887 0 3.042-1.456 3.042-3.889 0-2.441-1.169-3.89-3.076-3.89zm-.677 6.118c-1.053 0-1.709-.841-1.709-2.222 0-1.38.656-2.228 1.716-2.228s1.702.841 1.702 2.222c0 1.394-.636 2.228-1.709 2.228zm9.126-4.635c.929 0 1.531.622 1.572 1.62h-3.213c.068-.977.718-1.62 1.641-1.62zm1.613 4.034c-.212.499-.752.779-1.538.779-1.039 0-1.695-.697-1.723-1.819v-.102h5.175v-.608c0-2.393-1.312-3.808-3.534-3.808-2.242 0-3.623 1.517-3.623 3.972 0 2.447 1.353 3.896 3.65 3.896 1.846 0 3.152-.895 3.445-2.31h-1.852zm4.04 2.146h1.989v-4.177c0-1.059.745-1.702 1.832-1.702.321 0 .786.062.943.123v-1.811c-.171-.062-.506-.096-.779-.096-.957 0-1.736.574-1.935 1.326h-.123v-1.203h-1.927v7.54zm9.173-1.381c-.69 0-1.176-.342-1.176-.902 0-.54.417-.848 1.272-.909l1.524-.096v.554c0 .765-.697 1.353-1.62 1.353zm-.656 1.497c.977 0 1.798-.41 2.187-1.1h.123v.984h1.928v-5.147c0-1.614-1.128-2.557-3.124-2.557-1.894 0-3.172.875-3.302 2.269h1.832c.164-.451.643-.697 1.361-.697.82 0 1.271.356 1.271.985v.615l-1.825.109c-1.873.11-2.919.902-2.919 2.27 0 1.381 1.019 2.269 2.468 2.269zm7.252-9.447v1.866h-1.175v1.566h1.175v3.862c0 1.47.725 2.064 2.557 2.064.383 0 .752-.041.998-.089v-1.517c-.191.02-.328.027-.588.027-.677 0-.977-.301-.977-.957v-3.39h1.565v-1.566h-1.565v-1.866h-1.99zm5.722 9.331h1.989v-7.54h-1.989v7.54zm.998-8.668c.622 0 1.128-.506 1.128-1.142 0-.635-.506-1.134-1.128-1.134a1.13 1.13 0 00-1.128 1.134c0 .636.512 1.142 1.128 1.142zm6.842 8.832c2.317 0 3.712-1.47 3.712-3.937 0-2.448-1.415-3.931-3.712-3.931s-3.712 1.49-3.712 3.931c0 2.467 1.395 3.937 3.712 3.937zm0-1.627c-1.066 0-1.668-.841-1.668-2.31 0-1.45.608-2.304 1.668-2.304 1.053 0 1.668.854 1.668 2.304 0 1.462-.608 2.31-1.668 2.31zm5.831 1.463h1.989v-4.348c0-.991.567-1.64 1.49-1.64.943 0 1.388.547 1.388 1.586v4.402h1.989v-4.874c0-1.805-.902-2.83-2.577-2.83-1.114 0-1.88.526-2.229 1.374h-.123v-1.21h-1.927v7.54zm9.112-5.325c0 1.162.71 1.859 2.173 2.18l1.368.308c.663.144.95.369.95.738 0 .486-.533.807-1.306.807-.793 0-1.278-.294-1.429-.807h-1.941c.137 1.45 1.34 2.263 3.329 2.263 1.976 0 3.322-.984 3.322-2.488 0-1.128-.656-1.743-2.119-2.065l-1.415-.307c-.697-.158-1.018-.383-1.018-.752 0-.479.526-.8 1.237-.8.738 0 1.196.301 1.299.786h1.839c-.11-1.442-1.238-2.242-3.152-2.242-1.88 0-3.137.95-3.137 2.379z" fill="#fff"/>
  <path d="M245.885 266v-3.883h4.012v-1.634h-4.012v-2.645h4.395v-1.702h-6.46V266h2.065zm5.482 0h1.996v-7.328h-1.996V266zm.991-8.319c.581 0 1.039-.465 1.039-1.026 0-.567-.458-1.025-1.039-1.025s-1.039.458-1.039 1.025c0 .561.458 1.026 1.039 1.026zm5.626 2.31c.889 0 1.497.643 1.538 1.579h-3.11c.068-.916.697-1.579 1.572-1.579zm1.566 3.767c-.185.56-.745.923-1.477.923-1.018 0-1.681-.718-1.681-1.764v-.123h5.051v-.608c0-2.229-1.346-3.671-3.479-3.671-2.167 0-3.534 1.517-3.534 3.855 0 2.345 1.353 3.787 3.609 3.787 1.812 0 3.124-.964 3.343-2.399h-1.832zm2.973 2.242h1.997v-9.864h-1.997V266zm6.064.116c1.08 0 1.928-.567 2.283-1.374h.034V266h1.969v-9.864h-1.996v3.794h-.041c-.356-.814-1.176-1.374-2.235-1.374-1.839 0-3.001 1.442-3.001 3.766 0 2.345 1.155 3.794 2.987 3.794zm.677-5.961c.991 0 1.627.848 1.627 2.181 0 1.34-.636 2.174-1.627 2.174-1.005 0-1.62-.827-1.62-2.174 0-1.34.615-2.181 1.62-2.181zM279.552 266l3.315-9.864h-2.249l-2.256 7.738h-.048l-2.255-7.738h-2.311l3.315 9.864h2.489zm4.081 0h1.996v-7.328h-1.996V266zm.991-8.319c.581 0 1.039-.465 1.039-1.026 0-.567-.458-1.025-1.039-1.025s-1.039.458-1.039 1.025c0 .561.458 1.026 1.039 1.026zm2.215 3.144c0 1.101.718 1.812 2.133 2.113l1.251.259c.717.164.97.383.97.773 0 .478-.464.786-1.216.786-.793 0-1.251-.342-1.374-.985h-1.949c.13 1.443 1.299 2.386 3.323 2.386 1.886 0 3.206-.95 3.206-2.392 0-1.074-.629-1.675-2.161-1.996l-1.251-.267c-.738-.157-1.011-.41-1.011-.786 0-.486.458-.8 1.148-.8.738 0 1.183.403 1.244.998h1.839c-.041-1.435-1.203-2.399-3.083-2.399-1.866 0-3.069.916-3.069 2.31zm7.362 5.175h1.996v-7.328h-1.996V266zm.991-8.319c.581 0 1.039-.465 1.039-1.026 0-.567-.458-1.025-1.039-1.025s-1.039.458-1.039 1.025c0 .561.458 1.026 1.039 1.026zm5.702 8.476c2.214 0 3.629-1.415 3.629-3.828 0-2.379-1.435-3.814-3.629-3.814-2.195 0-3.63 1.442-3.63 3.814 0 2.406 1.415 3.828 3.63 3.828zm0-1.524c-.985 0-1.607-.827-1.607-2.297 0-1.456.636-2.297 1.607-2.297.97 0 1.599.841 1.599 2.297 0 1.47-.622 2.297-1.599 2.297zm4.662 1.367h1.996v-4.204c0-.95.567-1.607 1.463-1.607.895 0 1.346.547 1.346 1.504V266h1.996v-4.724c0-1.715-.916-2.741-2.543-2.741-1.127 0-1.9.533-2.29 1.443h-.041v-1.306h-1.927V266z" fill="#029D7F"/>
  <rect x="323" y="247" width="118" height="28" rx="14" fill="#029D7F"/>
  <path d="M429.835 264.04l-3.539-3.54 3.539-3.54a.561.561 0 10-.795-.795l-3.54 3.539-3.54-3.539a.561.561 0 10-.795.796l3.539 3.539-3.539 3.54a.561.561 0 10.796.795l3.539-3.539 3.54 3.539a.561.561 0 10.795-.795zm-90.325-9.157c-2.906 0-4.751 1.982-4.751 5.181 0 3.2 1.818 5.189 4.751 5.189 2.912 0 4.744-1.989 4.744-5.189 0-3.192-1.839-5.181-4.744-5.181zm0 1.811c1.599 0 2.632 1.306 2.632 3.37 0 2.058-1.026 3.377-2.632 3.377-1.627 0-2.639-1.319-2.639-3.377 0-2.064 1.032-3.37 2.639-3.37zm11.354.643c-1.039 0-1.894.513-2.304 1.36h-.123v-1.237h-1.928v10.042h1.99v-3.657h.123c.369.8 1.196 1.271 2.276 1.271 1.887 0 3.042-1.456 3.042-3.889 0-2.441-1.169-3.89-3.076-3.89zm-.677 6.118c-1.053 0-1.709-.841-1.709-2.222 0-1.38.656-2.228 1.716-2.228s1.702.841 1.702 2.222c0 1.394-.636 2.228-1.709 2.228zm9.126-4.635c.929 0 1.531.622 1.572 1.62h-3.213c.068-.977.718-1.62 1.641-1.62zm1.613 4.034c-.212.499-.752.779-1.538.779-1.039 0-1.695-.697-1.723-1.819v-.102h5.175v-.608c0-2.393-1.312-3.808-3.534-3.808-2.242 0-3.623 1.517-3.623 3.972 0 2.447 1.353 3.896 3.65 3.896 1.846 0 3.152-.895 3.445-2.31h-1.852zm4.04 2.146h1.989v-4.177c0-1.059.745-1.702 1.832-1.702.321 0 .786.062.943.123v-1.811c-.171-.062-.506-.096-.779-.096-.957 0-1.736.574-1.935 1.326h-.123v-1.203h-1.927V265zm9.173-1.381c-.69 0-1.176-.342-1.176-.902 0-.54.417-.848 1.272-.909l1.524-.096v.554c0 .765-.697 1.353-1.62 1.353zm-.656 1.497c.977 0 1.798-.41 2.187-1.1h.123V265h1.928v-5.147c0-1.614-1.128-2.557-3.124-2.557-1.894 0-3.172.875-3.302 2.269h1.832c.164-.451.643-.697 1.361-.697.82 0 1.271.356 1.271.985v.615l-1.825.109c-1.873.11-2.919.902-2.919 2.27 0 1.381 1.019 2.269 2.468 2.269zm7.252-9.447v1.866h-1.175v1.566h1.175v3.862c0 1.47.725 2.064 2.557 2.064.383 0 .752-.041.998-.089v-1.517c-.191.02-.328.027-.588.027-.677 0-.977-.301-.977-.957v-3.39h1.565v-1.566h-1.565v-1.866h-1.99zm5.722 9.331h1.989v-7.54h-1.989V265zm.998-8.668c.622 0 1.128-.506 1.128-1.142 0-.635-.506-1.134-1.128-1.134a1.13 1.13 0 00-1.128 1.134c0 .636.512 1.142 1.128 1.142zm6.842 8.832c2.317 0 3.712-1.47 3.712-3.937 0-2.448-1.415-3.931-3.712-3.931s-3.712 1.49-3.712 3.931c0 2.467 1.395 3.937 3.712 3.937zm0-1.627c-1.066 0-1.668-.841-1.668-2.31 0-1.45.608-2.304 1.668-2.304 1.053 0 1.668.854 1.668 2.304 0 1.462-.608 2.31-1.668 2.31zm5.831 1.463h1.989v-4.348c0-.991.567-1.64 1.49-1.64.943 0 1.388.547 1.388 1.586V265h1.989v-4.874c0-1.805-.902-2.83-2.577-2.83-1.114 0-1.88.526-2.229 1.374h-.123v-1.21h-1.927V265zm9.112-5.325c0 1.162.71 1.859 2.173 2.18l1.368.308c.663.144.95.369.95.738 0 .486-.533.807-1.306.807-.793 0-1.278-.294-1.429-.807h-1.941c.137 1.45 1.34 2.263 3.329 2.263 1.976 0 3.322-.984 3.322-2.488 0-1.128-.656-1.743-2.119-2.065l-1.415-.307c-.697-.158-1.018-.383-1.018-.752 0-.479.526-.8 1.237-.8.738 0 1.196.301 1.299.786h1.839c-.11-1.442-1.238-2.242-3.152-2.242-1.88 0-3.137.95-3.137 2.379z" fill="#fff"/>
  <path stroke="#E9E9E9" d="M244 291.5h447"/>
  <path fill-rule="evenodd" clip-rule="evenodd" d="M608 312a4 4 0 014-4h75a4 4 0 014 4v30.465a4 4 0 01-4 4h-75a4 4 0 01-4-4V312z" fill="#251A3F"/>
  <path d="M635.233 321.646v9.864h2.509v-2.892h1.613c2.195 0 3.706-1.374 3.706-3.479 0-2.119-1.436-3.493-3.555-3.493h-4.273zm2.509 1.92h1.101c1.053 0 1.681.554 1.681 1.58 0 1.032-.628 1.585-1.695 1.585h-1.087v-3.165zm9.659 8.122c2.345 0 3.808-1.416 3.808-3.904 0-2.44-1.483-3.896-3.808-3.896-2.31 0-3.807 1.463-3.807 3.896 0 2.482 1.463 3.904 3.807 3.904zm0-1.778c-.834 0-1.346-.759-1.346-2.119 0-1.34.526-2.126 1.346-2.126.828 0 1.354.786 1.354 2.126 0 1.36-.526 2.119-1.354 2.119zm4.621-3.589c0 1.135.752 1.901 2.215 2.188l1.306.26c.677.136.916.314.916.649 0 .39-.397.636-1.039.636-.704 0-1.121-.308-1.224-.862h-2.351c.13 1.497 1.36 2.496 3.575 2.496 2.044 0 3.438-.992 3.438-2.537 0-1.114-.683-1.729-2.269-2.037l-1.313-.26c-.711-.143-.929-.348-.929-.669 0-.404.396-.664.984-.664.67 0 1.06.37 1.107.896h2.215c-.041-1.531-1.271-2.529-3.322-2.529-2.037 0-3.309.943-3.309 2.433zm8.306-3.924v1.668h-1.012v1.785h1.012v3.616c0 1.463.766 2.057 2.7 2.057a5.52 5.52 0 001.06-.088v-1.723a2.527 2.527 0 01-.479.034c-.581 0-.854-.26-.854-.772v-3.124h1.34v-1.785h-1.34v-1.668h-2.427z" fill="#fff"/>
  <path stroke="#E2E2E2" d="M390.5 314v24"/>
  <path fill-rule="evenodd" clip-rule="evenodd" d="M360.889 325.111v-6.222A.888.888 0 00360 318a.887.887 0 00-.889.889v6.222h-6.222A.888.888 0 00352 326c0 .494.398.889.889.889h6.222v6.222c0 .493.398.889.889.889a.887.887 0 00.889-.889v-6.222h6.222A.888.888 0 00368 326a.887.887 0 00-.889-.889h-6.222z" fill="#251A3F"/>
  <path d="M264.258 319.054c0-1.134-.824-2.054-1.841-2.054h-17.576c-1.017 0-1.841.92-1.841 2.054v13.892c0 1.134.824 2.054 1.841 2.054h17.576c1.017 0 1.841-.92 1.841-2.054v-13.892zm-19.4-.88h17.586c.434 0 .806.391.806.875v11.696l-4.642-3.644c-.749-.592-1.757-.485-2.393.254l-1.657 1.922-3.914-2.71a1.71 1.71 0 00-2.126.137l-4.466 3.962v-11.617c0-.484.373-.875.806-.875zm-.806 14.777v-.783l5.124-4.534a.732.732 0 01.912-.059l3.725 2.578-3.164 3.673h-5.791c-.433 0-.806-.391-.806-.875zm18.392.875h-10.34l4.865-5.659a.736.736 0 011.035-.108l5.246 4.124v.763c0 .489-.372.88-.806.88z" fill="#251A3F"/>
  <path d="M255 326c1.653 0 3-1.347 3-3s-1.347-3-3-3-3 1.347-3 3 1.347 3 3 3zm0-4.845a1.85 1.85 0 010 3.7 1.85 1.85 0 010-3.7z" fill="#251A3F"/>
  <path fill-rule="evenodd" clip-rule="evenodd" d="M334 317h-16a1 1 0 00-1 1v16a1 1 0 001 1h16a1 1 0 001-1v-16a1 1 0 00-1-1zm-16-1a2 2 0 00-2 2v16a2 2 0 002 2h16a2 2 0 002-2v-16a2 2 0 00-2-2h-16z" fill="#251A3F"/>
  <path d="M325.329 330h2.144v2h-2.144v-2zm-2.544-5.792c0-.587.085-1.12.256-1.6.181-.48.437-.891.768-1.232a3.447 3.447 0 011.216-.784 4.272 4.272 0 011.6-.288c.491 0 .944.074 1.36.224.427.138.795.346 1.104.624.32.266.571.602.752 1.008.181.405.272.864.272 1.376 0 .373-.043.698-.128.976a2.377 2.377 0 01-.32.704 2.998 2.998 0 01-.448.528l-.512.448c-.203.17-.389.336-.56.496-.171.16-.32.341-.448.544a2.403 2.403 0 00-.304.688 4.244 4.244 0 00-.096.976h-1.728c0-.47.021-.864.064-1.184.053-.331.133-.619.24-.864.107-.246.235-.459.384-.64.16-.192.347-.379.56-.56.171-.15.331-.288.48-.416.16-.128.299-.267.416-.416a1.7 1.7 0 00.288-.528c.075-.192.112-.422.112-.688 0-.32-.059-.592-.176-.816a1.6 1.6 0 00-.4-.56 1.585 1.585 0 00-.512-.304 1.465 1.465 0 00-.48-.096c-.661 0-1.152.218-1.472.656-.309.426-.464 1.002-.464 1.728h-1.824zM290 316c-5.514 0-10 4.486-10 10s4.486 10 10 10 10-4.486 10-10-4.486-10-10-10zm0 18.889c-4.901 0-8.889-3.988-8.889-8.889s3.988-8.889 8.889-8.889 8.889 3.988 8.889 8.889-3.988 8.889-8.889 8.889z" fill="#251A3F"/>
  <path d="M293.946 325.396a1.263 1.263 0 100-2.526 1.263 1.263 0 000 2.526zm-7.892 0a1.264 1.264 0 10-.001-2.527 1.264 1.264 0 00.001 2.527zm7.523 2.605c-2.006 1.788-5.148 1.788-7.154 0a.555.555 0 10-.739.83c1.21 1.078 2.763 1.618 4.316 1.618s3.106-.539 4.316-1.618a.556.556 0 00-.739-.83z" fill="#251A3F"/>
  <path d="M523.088 330.893h-4.758v-8.757h-1.231V332h5.989v-1.107zm2.337 1.107h1.176v-7.369h-1.176V332zm.588-8.791c.451 0 .82-.369.82-.82a.823.823 0 00-.82-.821c-.451 0-.82.37-.82.821 0 .451.369.82.82.82zm6.302 7.643c-1.367 0-2.133-1.04-2.133-2.646 0-1.606.766-2.645 2.133-2.645 1.361 0 2.188 1.039 2.188 2.645s-.821 2.646-2.188 2.646zm.055 3.978c2.01 0 3.281-1.053 3.281-2.7v-7.499h-1.121v1.169h-.109c-.424-.793-1.333-1.299-2.365-1.299-1.894 0-3.09 1.497-3.09 3.705s1.182 3.685 3.09 3.685c1.011 0 1.845-.458 2.31-1.272h.109v1.449c0 1.087-.786 1.737-2.105 1.737-1.06 0-1.716-.39-1.846-.992h-1.244c.178 1.217 1.313 2.017 3.09 2.017zm6.056-2.83h1.176v-4.361c0-1.244.725-2.078 2.044-2.078 1.114 0 1.702.649 1.702 1.955V332h1.176v-4.771c0-1.73-.984-2.728-2.543-2.728-1.128 0-1.9.478-2.27 1.292h-.109v-4.088h-1.176V332zm9.228-9.276v1.907h-1.189v.984h1.189v4.471c0 1.408.609 1.969 2.126 1.969.233 0 .458-.028.691-.069v-.991a4.85 4.85 0 01-.547.027c-.766 0-1.094-.369-1.094-1.237v-4.17h1.641v-.984h-1.641v-1.907h-1.176zm9.529 9.276h1.176v-4.566c0-1.039.813-1.791 1.934-1.791.233 0 .656.041.752.068v-1.176a5.155 5.155 0 00-.588-.034c-.977 0-1.825.506-2.044 1.224h-.109v-1.094h-1.121V332zm8.558-6.46c1.169 0 1.948.861 1.976 2.167h-4.061c.089-1.306.909-2.167 2.085-2.167zm1.941 4.553c-.307.649-.95.998-1.9.998-1.251 0-2.064-.923-2.126-2.379v-.055h5.298v-.451c0-2.29-1.21-3.705-3.199-3.705-2.024 0-3.323 1.504-3.323 3.821 0 2.331 1.279 3.808 3.323 3.808 1.613 0 2.761-.779 3.103-2.037h-1.176zm5.879 1.005c-.855 0-1.49-.438-1.49-1.19 0-.738.492-1.128 1.613-1.203l1.982-.13v.677c0 1.053-.895 1.846-2.105 1.846zm-.219 1.032c.985 0 1.791-.431 2.27-1.217h.109V332h1.121v-5.045c0-1.531-1.005-2.454-2.803-2.454-1.572 0-2.734.779-2.891 1.962h1.189c.164-.581.78-.916 1.661-.916 1.101 0 1.668.499 1.668 1.408v.67l-2.126.13c-1.715.102-2.686.861-2.686 2.181 0 1.346 1.059 2.194 2.488 2.194zm8.893 0c1.019 0 1.894-.485 2.359-1.306h.109V332h1.121v-10.295h-1.176v4.088h-.102c-.417-.807-1.285-1.292-2.311-1.292-1.873 0-3.096 1.504-3.096 3.814 0 2.318 1.21 3.815 3.096 3.815zm.274-6.569c1.333 0 2.167 1.066 2.167 2.754 0 1.703-.827 2.755-2.167 2.755-1.347 0-2.154-1.032-2.154-2.755 0-1.715.814-2.754 2.154-2.754zm-76.31.406a.626.626 0 00-.913 0l-2.701 2.796-.865-.907a.633.633 0 00-.912-.005.694.694 0 00-.008.951l1.322 1.385a.627.627 0 00.913.001l3.161-3.269a.697.697 0 00.004-.949l-.001-.003z" fill="#029D24"/>
  <path d="M510.411 324.584a7.532 7.532 0 00-3.994-3.993A7.43 7.43 0 00503.5 320c-4.135.001-7.5 3.366-7.5 7.501s3.365 7.499 7.5 7.499 7.5-3.364 7.5-7.499a7.425 7.425 0 00-.589-2.917zm-6.911 9.176a6.267 6.267 0 01-6.26-6.259 6.267 6.267 0 016.26-6.259 6.267 6.267 0 016.26 6.259 6.267 6.267 0 01-6.26 6.259z" fill="#029D24"/>
  <path stroke="#E9E9E9" d="M243 362.965h447"/>
  <rect x="243" y="380.465" width="109" height="35" rx="15" fill="#F4F4F4"/>
  <path d="M281.26 401.5v-9.864h-2.427l-2.734 6.658h-.123l-2.728-6.658h-2.433v9.864h1.914v-6.597h.109l2.516 6.064h1.374l2.509-6.064h.109v6.597h1.914zm5.947-6.18c.93 0 1.531.622 1.572 1.62h-3.213c.069-.977.718-1.62 1.641-1.62zm1.613 4.034c-.212.499-.752.779-1.538.779-1.039 0-1.695-.697-1.722-1.819v-.102h5.174v-.608c0-2.393-1.312-3.808-3.534-3.808-2.242 0-3.623 1.517-3.623 3.972 0 2.447 1.354 3.896 3.651 3.896 1.845 0 3.151-.895 3.445-2.31h-1.853zm4.607-7.185v1.866h-1.175v1.566h1.175v3.862c0 1.47.725 2.064 2.557 2.064.383 0 .752-.041.998-.089v-1.517c-.191.02-.328.027-.588.027-.677 0-.977-.301-.977-.957v-3.39h1.565v-1.566h-1.565v-1.866h-1.99zm5.708 9.331h1.989v-4.177c0-1.059.745-1.702 1.832-1.702.322 0 .786.062.944.123v-1.811c-.171-.062-.506-.096-.78-.096-.957 0-1.736.574-1.934 1.326h-.123v-1.203h-1.928v7.54zm6.603 0h1.989v-7.54h-1.989v7.54zm.998-8.668c.622 0 1.128-.506 1.128-1.142 0-.635-.506-1.134-1.128-1.134a1.13 1.13 0 00-1.128 1.134c0 .636.513 1.142 1.128 1.142zm10.172 3.787c-.164-1.716-1.361-2.823-3.357-2.823-2.358 0-3.684 1.415-3.684 3.917 0 2.529 1.333 3.951 3.684 3.951 1.962 0 3.193-1.087 3.357-2.775h-1.86c-.15.745-.683 1.141-1.497 1.141-1.066 0-1.675-.813-1.675-2.317 0-1.484.602-2.283 1.675-2.283.848 0 1.361.471 1.497 1.189h1.86zm1.879-.444c0 1.162.711 1.859 2.174 2.18l1.367.308c.663.144.95.369.95.738 0 .486-.533.807-1.305.807-.793 0-1.279-.294-1.429-.807h-1.941c.136 1.45 1.339 2.263 3.329 2.263 1.975 0 3.322-.984 3.322-2.488 0-1.128-.656-1.743-2.119-2.065l-1.415-.307c-.698-.158-1.019-.383-1.019-.752 0-.479.527-.8 1.237-.8.739 0 1.197.301 1.299.786h1.839c-.109-1.442-1.237-2.242-3.151-2.242-1.88 0-3.138.95-3.138 2.379z" fill="#999"/>
  <rect x="356.5" y="380.465" width="109" height="35" rx="15" fill="#DEDEDE"/>
  <rect x="356.5" y="380.465" width="109" height="35" rx="15" fill="#F4F4F4"/>
  <path d="M395.772 401.753c2.378 0 4.115-1.47 4.286-3.603h-2.01c-.198 1.087-1.087 1.785-2.27 1.785-1.558 0-2.522-1.292-2.522-3.371 0-2.078.964-3.363 2.516-3.363 1.175 0 2.071.745 2.269 1.88h2.01c-.151-2.146-1.942-3.698-4.279-3.698-2.865 0-4.628 1.975-4.628 5.181 0 3.213 1.77 5.189 4.628 5.189zm6.548-.253h1.989v-4.327c0-.978.574-1.641 1.572-1.641.903 0 1.388.54 1.388 1.586v4.382h1.989v-4.854c0-1.811-.963-2.83-2.584-2.83-1.107 0-1.927.52-2.276 1.381h-.123v-4.115h-1.955V401.5zm12.085-1.381c-.69 0-1.175-.342-1.175-.902 0-.54.417-.848 1.271-.909l1.525-.096v.554c0 .765-.698 1.353-1.621 1.353zm-.656 1.497c.978 0 1.798-.41 2.188-1.1h.123v.984h1.928v-5.147c0-1.614-1.128-2.557-3.125-2.557-1.893 0-3.171.875-3.301 2.269h1.832c.164-.451.642-.697 1.36-.697.82 0 1.272.356 1.272.985v.615l-1.826.109c-1.873.11-2.919.902-2.919 2.27 0 1.381 1.019 2.269 2.468 2.269zm6.685-.116h1.99v-4.177c0-1.059.745-1.702 1.832-1.702.321 0 .786.062.943.123v-1.811c-.171-.062-.506-.096-.779-.096-.957 0-1.737.574-1.935 1.326h-.123v-1.203h-1.928v7.54zm7.472-9.331v1.866h-1.176v1.566h1.176v3.862c0 1.47.724 2.064 2.556 2.064.383 0 .752-.041.998-.089v-1.517c-.191.02-.328.027-.588.027-.676 0-.977-.301-.977-.957v-3.39h1.565v-1.566h-1.565v-1.866h-1.989z" fill="#999"/>
  <rect x="470" y="380.465" width="109" height="35" rx="15" fill="#DEDEDE"/>
  <rect x="470" y="380.465" width="109" height="35" rx="15" fill="#F4F4F4"/>
  <path d="M512.129 391.636v9.864h2.064v-3.062h1.948c2.079 0 3.521-1.361 3.521-3.391 0-2.051-1.388-3.411-3.418-3.411h-4.115zm2.064 1.695h1.504c1.19 0 1.866.602 1.866 1.723 0 1.107-.69 1.709-1.873 1.709h-1.497v-3.432zm10.801 8.333c2.317 0 3.711-1.47 3.711-3.937 0-2.448-1.415-3.931-3.711-3.931-2.297 0-3.712 1.49-3.712 3.931 0 2.467 1.394 3.937 3.712 3.937zm0-1.627c-1.067 0-1.668-.841-1.668-2.31 0-1.45.608-2.304 1.668-2.304 1.052 0 1.668.854 1.668 2.304 0 1.462-.609 2.31-1.668 2.31zm5.899 1.463h1.989v-10.418h-1.989V401.5zm4.62 0h1.99v-10.418h-1.99V401.5z" fill="#999"/>
  <rect x="583.5" y="380.465" width="109" height="35" rx="15" fill="#DEDEDE"/>
  <rect x="583.5" y="380.465" width="109" height="35" rx="15" fill="#F4F4F4"/>
  <path d="M610.215 401.5v-8.101h2.96v-1.763h-7.984v1.763h2.96v8.101h2.064zm7.041-6.18c.93 0 1.531.622 1.572 1.62h-3.213c.069-.977.718-1.62 1.641-1.62zm1.613 4.034c-.212.499-.752.779-1.538.779-1.039 0-1.695-.697-1.722-1.819v-.102h5.174v-.608c0-2.393-1.312-3.808-3.534-3.808-2.242 0-3.623 1.517-3.623 3.972 0 2.447 1.354 3.896 3.651 3.896 1.845 0 3.151-.895 3.445-2.31h-1.853zm4.04 2.146h1.989v-4.539c0-.841.554-1.449 1.333-1.449.78 0 1.244.458 1.244 1.258v4.73h1.914v-4.614c0-.8.52-1.374 1.327-1.374.84 0 1.257.444 1.257 1.34v4.648h1.99v-5.175c0-1.552-.937-2.529-2.441-2.529-1.052 0-1.921.554-2.269 1.394h-.123c-.301-.875-1.026-1.394-2.085-1.394-.991 0-1.778.533-2.085 1.394h-.123v-1.23h-1.928v7.54zm17.835-7.663c-1.039 0-1.894.513-2.304 1.36h-.123v-1.237h-1.928v10.042h1.989v-3.657h.123c.37.8 1.197 1.271 2.277 1.271 1.886 0 3.042-1.456 3.042-3.889 0-2.441-1.169-3.89-3.076-3.89zm-.677 6.118c-1.053 0-1.709-.841-1.709-2.222 0-1.38.656-2.228 1.716-2.228 1.059 0 1.702.841 1.702 2.222 0 1.394-.636 2.228-1.709 2.228zM646 401.5h1.989v-10.418H646V401.5zm7.273-1.381c-.69 0-1.176-.342-1.176-.902 0-.54.417-.848 1.272-.909l1.524-.096v.554c0 .765-.697 1.353-1.62 1.353zm-.656 1.497c.977 0 1.798-.41 2.187-1.1h.123v.984h1.928v-5.147c0-1.614-1.128-2.557-3.124-2.557-1.894 0-3.172.875-3.302 2.269h1.832c.164-.451.643-.697 1.361-.697.82 0 1.271.356 1.271.985v.615l-1.825.109c-1.873.11-2.919.902-2.919 2.27 0 1.381 1.019 2.269 2.468 2.269zm7.252-9.447v1.866h-1.175v1.566h1.175v3.862c0 1.47.725 2.064 2.557 2.064.383 0 .752-.041.998-.089v-1.517c-.191.02-.328.027-.588.027-.677 0-.977-.301-.977-.957v-3.39h1.565v-1.566h-1.565v-1.866h-1.99zm8.914 3.151c.93 0 1.531.622 1.572 1.62h-3.213c.069-.977.718-1.62 1.641-1.62zm1.613 4.034c-.212.499-.752.779-1.538.779-1.039 0-1.695-.697-1.722-1.819v-.102h5.174v-.608c0-2.393-1.312-3.808-3.534-3.808-2.242 0-3.623 1.517-3.623 3.972 0 2.447 1.354 3.896 3.65 3.896 1.846 0 3.152-.895 3.446-2.31h-1.853z" fill="#999"/>
  <g filter="url(#Sv6IvarSGb)">
    <mask id="Sv6IvarSGc" fill="#fff">
      <path fill-rule="evenodd" clip-rule="evenodd" d="M466 299a8 8 0 00-8 8v56a8 8 0 008 8h69.194l12.714 14 11.352-14H628a8 8 0 008-8v-56a8 8 0 00-8-8H466z"/>
    </mask>
    <path fill-rule="evenodd" clip-rule="evenodd" d="M466 299a8 8 0 00-8 8v56a8 8 0 008 8h69.194l12.714 14 11.352-14H628a8 8 0 008-8v-56a8 8 0 00-8-8H466z" fill="#fff"/>
    <path d="M535.194 371l.74-.672-.297-.328h-.443v1zm12.714 14l-.74.672.783.863.734-.905-.777-.63zm11.352-14v-1h-.476l-.301.37.777.63zM459 307a7 7 0 017-7v-2a9 9 0 00-9 9h2zm0 56v-56h-2v56h2zm7 7a7 7 0 01-7-7h-2a9 9 0 009 9v-2zm69.194 0H466v2h69.194v-2zm-.74 1.672l12.714 14 1.48-1.344-12.714-14-1.48 1.344zm14.231 13.958l11.352-14-1.554-1.26-11.352 14 1.554 1.26zM628 370h-68.74v2H628v-2zm7-7a7 7 0 01-7 7v2a9 9 0 009-9h-2zm0-56v56h2v-56h-2zm-7-7a7 7 0 017 7h2a9 9 0 00-9-9v2zm-162 0h162v-2H466v2z" fill="#DEDEDE" mask="url(#Sv6IvarSGc)"/>
  </g>
  <path d="M474.691 320v-8.131h2.952v-1.029h-7.046v1.029h2.951V320h1.143zm5.132 0h1.092v-4.05c0-1.155.672-1.929 1.898-1.929 1.034 0 1.58.603 1.58 1.815V320h1.092v-4.431c0-1.606-.914-2.532-2.361-2.532-1.048 0-1.765.444-2.108 1.199h-.101v-3.796h-1.092V320zm8.172 0h1.092v-6.843h-1.092V320zm.546-8.163a.764.764 0 00.762-.762.764.764 0 00-.762-.762.764.764 0 00-.762.762c0 .419.343.762.762.762zm2.961 3.193c0 .99.584 1.542 1.866 1.853l1.175.286c.73.178 1.085.495 1.085.965 0 .628-.66 1.066-1.58 1.066-.876 0-1.422-.368-1.606-.946h-1.124c.121 1.137 1.168 1.867 2.692 1.867 1.555 0 2.742-.845 2.742-2.07 0-.984-.622-1.542-1.911-1.853l-1.054-.254c-.806-.197-1.187-.489-1.187-.959 0-.609.635-1.022 1.448-1.022.825 0 1.358.362 1.504.908h1.079c-.146-1.123-1.142-1.834-2.577-1.834-1.454 0-2.552.857-2.552 1.993zm14.949-1.993c-.933 0-1.752.476-2.19 1.263h-.102v-1.143h-1.041v9.128h1.092v-3.313h.101c.375.723 1.162 1.149 2.14 1.149 1.739 0 2.875-1.403 2.875-3.542 0-2.152-1.13-3.542-2.875-3.542zm-.261 6.1c-1.231 0-2.012-.991-2.012-2.558 0-1.575.781-2.558 2.019-2.558 1.25 0 1.999.958 1.999 2.558 0 1.599-.749 2.558-2.006 2.558zm8.154.984c1.949 0 3.155-1.346 3.155-3.542 0-2.203-1.206-3.542-3.155-3.542-1.949 0-3.155 1.339-3.155 3.542 0 2.196 1.206 3.542 3.155 3.542zm0-.984c-1.295 0-2.025-.94-2.025-2.558 0-1.625.73-2.558 2.025-2.558s2.025.933 2.025 2.558c0 1.618-.73 2.558-2.025 2.558zm5.202-4.107c0 .99.584 1.542 1.866 1.853l1.174.286c.73.178 1.086.495 1.086.965 0 .628-.661 1.066-1.581 1.066-.876 0-1.422-.368-1.606-.946h-1.124c.121 1.137 1.168 1.867 2.692 1.867 1.555 0 2.742-.845 2.742-2.07 0-.984-.622-1.542-1.911-1.853l-1.053-.254c-.806-.197-1.187-.489-1.187-.959 0-.609.634-1.022 1.447-1.022.825 0 1.358.362 1.504.908h1.079c-.146-1.123-1.142-1.834-2.577-1.834-1.453 0-2.551.857-2.551 1.993zm7.848-3.644v1.771h-1.104v.914h1.104v4.152c0 1.307.565 1.828 1.974 1.828.216 0 .426-.026.641-.064v-.92a4.613 4.613 0 01-.507.025c-.711 0-1.016-.342-1.016-1.149v-3.872h1.523v-.914h-1.523v-1.771h-1.092zm11.73 8.735c1.949 0 3.155-1.346 3.155-3.542 0-2.203-1.206-3.542-3.155-3.542-1.948 0-3.154 1.339-3.154 3.542 0 2.196 1.206 3.542 3.154 3.542zm0-.984c-1.295 0-2.025-.94-2.025-2.558 0-1.625.73-2.558 2.025-2.558s2.025.933 2.025 2.558c0 1.618-.73 2.558-2.025 2.558zm5.361.863h1.092v-4.05c0-1.2.704-1.929 1.796-1.929s1.612.583 1.612 1.815V320h1.092v-4.431c0-1.625-.857-2.532-2.393-2.532-1.047 0-1.714.444-2.057 1.199h-.101v-1.079h-1.041V320zm14.352-.838c-.794 0-1.384-.406-1.384-1.104 0-.686.457-1.048 1.498-1.118l1.841-.12v.628c0 .978-.832 1.714-1.955 1.714zm-.204.959c.915 0 1.664-.4 2.108-1.13h.101V320h1.041v-4.685c0-1.421-.933-2.278-2.602-2.278-1.46 0-2.539.723-2.685 1.821h1.104c.153-.539.724-.85 1.543-.85 1.022 0 1.549.463 1.549 1.307v.623l-1.974.12c-1.594.095-2.495.8-2.495 2.025 0 1.25.984 2.038 2.31 2.038zm11.093-6.964h-1.168l-1.873 5.637h-.101l-1.873-5.637h-1.168l2.533 6.843h1.117l2.533-6.843zm4.427.844c1.086 0 1.809.8 1.835 2.013h-3.771c.083-1.213.844-2.013 1.936-2.013zm1.803 4.228c-.286.603-.882.927-1.765.927-1.161 0-1.917-.857-1.974-2.209v-.051h4.92v-.419c0-2.126-1.124-3.44-2.971-3.44-1.879 0-3.085 1.396-3.085 3.548 0 2.165 1.187 3.536 3.085 3.536 1.498 0 2.564-.724 2.882-1.892h-1.092zm3.386 1.771h1.092v-4.24c0-.965.755-1.663 1.796-1.663.216 0 .61.038.699.063v-1.092a4.725 4.725 0 00-.546-.031c-.908 0-1.695.469-1.898 1.136h-.102v-1.016h-1.041V320zm7.551-.838c-.794 0-1.384-.406-1.384-1.104 0-.686.457-1.048 1.498-1.118l1.841-.12v.628c0 .978-.832 1.714-1.955 1.714zm-.204.959c.915 0 1.664-.4 2.108-1.13h.101V320h1.041v-4.685c0-1.421-.933-2.278-2.602-2.278-1.46 0-2.539.723-2.685 1.821h1.104c.153-.539.724-.85 1.543-.85 1.022 0 1.549.463 1.549 1.307v.623l-1.974.12c-1.594.095-2.495.8-2.495 2.025 0 1.25.984 2.038 2.31 2.038zm8.528-1.187c-1.269 0-1.98-.965-1.98-2.457s.711-2.456 1.98-2.456c1.264 0 2.032.964 2.032 2.456s-.762 2.457-2.032 2.457zm.051 3.694c1.866 0 3.047-.978 3.047-2.507v-6.964h-1.041v1.086h-.102c-.393-.737-1.237-1.206-2.196-1.206-1.758 0-2.869 1.39-2.869 3.44s1.098 3.421 2.869 3.421c.94 0 1.714-.425 2.146-1.18h.101v1.345c0 1.01-.73 1.613-1.955 1.613-.984 0-1.593-.362-1.714-.921h-1.155c.165 1.13 1.219 1.873 2.869 1.873zm8.325-8.627c1.085 0 1.809.8 1.834 2.013h-3.77c.082-1.213.844-2.013 1.936-2.013zm1.803 4.228c-.286.603-.883.927-1.765.927-1.162 0-1.917-.857-1.974-2.209v-.051h4.919v-.419c0-2.126-1.123-3.44-2.97-3.44-1.879 0-3.085 1.396-3.085 3.548 0 2.165 1.187 3.536 3.085 3.536 1.498 0 2.564-.724 2.881-1.892h-1.091zm-125.76 12.928h-1.098l-1.346 5.472h-.102l-1.529-5.472h-1.048l-1.53 5.472h-.101l-1.346-5.472h-1.104l1.917 6.843h1.104l1.524-5.294h.101l1.53 5.294h1.111l1.917-6.843zm1.977 6.843h1.092v-6.843h-1.092V338zm.546-8.163a.764.764 0 00.761-.762.764.764 0 00-.761-.762.764.764 0 00-.762.762c0 .419.343.762.762.762zm3.183 8.163h1.092v-9.56h-1.092V338zm3.767 0h1.092v-9.56h-1.092V338zm7.865 0h1.091v-4.24c0-.965.756-1.663 1.797-1.663.216 0 .609.038.698.063v-1.092a4.711 4.711 0 00-.546-.031c-.908 0-1.695.469-1.898 1.136h-.101v-1.016h-1.041V338zm7.982-5.999c1.085 0 1.809.8 1.834 2.013h-3.77c.082-1.213.844-2.013 1.936-2.013zm1.802 4.228c-.285.603-.882.927-1.764.927-1.162 0-1.917-.857-1.974-2.209v-.051h4.919v-.419c0-2.126-1.124-3.44-2.971-3.44-1.879 0-3.085 1.396-3.085 3.548 0 2.165 1.187 3.536 3.085 3.536 1.498 0 2.565-.724 2.882-1.892h-1.092zm9.049-2.977c-.191-1.219-1.206-2.215-2.869-2.215-1.917 0-3.136 1.383-3.136 3.516 0 2.177 1.225 3.568 3.142 3.568 1.644 0 2.666-.927 2.863-2.184h-1.105c-.203.774-.844 1.2-1.764 1.2-1.219 0-2.006-1.003-2.006-2.584 0-1.549.774-2.532 2.006-2.532.984 0 1.587.552 1.764 1.231h1.105zm2.129 4.748h1.092v-6.843h-1.092V338zm.546-8.163a.764.764 0 00.762-.762.764.764 0 00-.762-.762.764.764 0 00-.762.762c0 .419.343.762.762.762zm5.849 2.164c1.086 0 1.809.8 1.835 2.013h-3.771c.083-1.213.845-2.013 1.936-2.013zm1.803 4.228c-.286.603-.882.927-1.765.927-1.161 0-1.917-.857-1.974-2.209v-.051h4.92v-.419c0-2.126-1.124-3.44-2.971-3.44-1.879 0-3.085 1.396-3.085 3.548 0 2.165 1.187 3.536 3.085 3.536 1.498 0 2.564-.724 2.882-1.892h-1.092zm8.845-5.072h-1.168l-1.872 5.637h-.102l-1.872-5.637h-1.168l2.532 6.843h1.118l2.532-6.843zm4.428.844c1.085 0 1.809.8 1.834 2.013h-3.77c.082-1.213.844-2.013 1.936-2.013zm1.802 4.228c-.285.603-.882.927-1.764.927-1.162 0-1.917-.857-1.974-2.209v-.051h4.919v-.419c0-2.126-1.123-3.44-2.971-3.44-1.878 0-3.085 1.396-3.085 3.548 0 2.165 1.187 3.536 3.085 3.536 1.498 0 2.565-.724 2.882-1.892h-1.092zM583.808 338h1.091v-4.05c0-1.155.673-1.929 1.898-1.929 1.035 0 1.581.603 1.581 1.815V338h1.092v-4.431c0-1.606-.914-2.532-2.362-2.532-1.047 0-1.764.444-2.107 1.199h-.102v-3.796h-1.091V338zm8.172 0h1.092v-6.843h-1.092V338zm.546-8.163a.764.764 0 00.762-.762.764.764 0 00-.762-.762.764.764 0 00-.762.762c0 .419.343.762.762.762zm5.887 7.097c-1.269 0-1.98-.965-1.98-2.457s.711-2.456 1.98-2.456c1.263 0 2.032.964 2.032 2.456s-.762 2.457-2.032 2.457zm.051 3.694c1.866 0 3.047-.978 3.047-2.507v-6.964h-1.041v1.086h-.102c-.393-.737-1.237-1.206-2.196-1.206-1.758 0-2.869 1.39-2.869 3.44s1.098 3.421 2.869 3.421c.94 0 1.714-.425 2.146-1.18h.101v1.345c0 1.01-.73 1.613-1.955 1.613-.984 0-1.593-.362-1.714-.921h-1.155c.165 1.13 1.219 1.873 2.869 1.873zm5.659-2.628h1.092v-4.05c0-1.155.672-1.929 1.898-1.929 1.034 0 1.58.603 1.58 1.815V338h1.092v-4.431c0-1.606-.914-2.532-2.361-2.532-1.048 0-1.765.444-2.108 1.199h-.101v-3.796h-1.092V338zm10.876-5.999c1.086 0 1.809.8 1.835 2.013h-3.771c.083-1.213.845-2.013 1.936-2.013zm1.803 4.228c-.286.603-.882.927-1.765.927-1.161 0-1.917-.857-1.974-2.209v-.051h4.92v-.419c0-2.126-1.124-3.44-2.971-3.44-1.879 0-3.085 1.396-3.085 3.548 0 2.165 1.187 3.536 3.085 3.536 1.498 0 2.565-.724 2.882-1.892h-1.092zm3.386 1.771h1.092v-4.24c0-.965.756-1.663 1.797-1.663.215 0 .609.038.698.063v-1.092a4.711 4.711 0 00-.546-.031c-.908 0-1.695.469-1.898 1.136h-.102v-1.016h-1.041V338zm-146.43 13.001c1.085 0 1.809.8 1.834 2.013h-3.77c.082-1.213.844-2.013 1.936-2.013zm1.803 4.228c-.286.603-.883.927-1.765.927-1.162 0-1.917-.857-1.974-2.209v-.051h4.919v-.419c0-2.126-1.123-3.44-2.97-3.44-1.879 0-3.085 1.396-3.085 3.548 0 2.165 1.187 3.536 3.085 3.536 1.498 0 2.564-.724 2.881-1.892h-1.091zm3.386 1.771h1.092v-4.05c0-1.2.704-1.929 1.796-1.929s1.612.583 1.612 1.815V357h1.092v-4.431c0-1.625-.857-2.532-2.393-2.532-1.047 0-1.714.444-2.057 1.199h-.101v-1.079h-1.041V357zm10.851-1.066c-1.27 0-1.98-.965-1.98-2.457s.71-2.456 1.98-2.456c1.263 0 2.031.964 2.031 2.456s-.761 2.457-2.031 2.457zm.051 3.694c1.866 0 3.047-.978 3.047-2.507v-6.964h-1.041v1.086h-.102c-.393-.737-1.238-1.206-2.196-1.206-1.758 0-2.869 1.39-2.869 3.44s1.098 3.421 2.869 3.421c.939 0 1.714-.425 2.145-1.18h.102v1.345c0 1.01-.73 1.613-1.955 1.613-.984 0-1.593-.362-1.714-.921h-1.155c.165 1.13 1.218 1.873 2.869 1.873zm7.703-3.466c-.794 0-1.384-.406-1.384-1.104 0-.686.457-1.048 1.498-1.118l1.841-.12v.628c0 .978-.832 1.714-1.955 1.714zm-.204.959c.914 0 1.663-.4 2.108-1.13h.101V357h1.041v-4.685c0-1.421-.933-2.278-2.602-2.278-1.46 0-2.539.723-2.685 1.821h1.104c.153-.539.724-.85 1.543-.85 1.022 0 1.549.463 1.549 1.307v.623l-1.975.12c-1.593.095-2.494.8-2.494 2.025 0 1.25.984 2.038 2.31 2.038zm8.528-1.187c-1.269 0-1.98-.965-1.98-2.457s.711-2.456 1.98-2.456c1.264 0 2.032.964 2.032 2.456s-.762 2.457-2.032 2.457zm.051 3.694c1.866 0 3.047-.978 3.047-2.507v-6.964h-1.041v1.086h-.102c-.393-.737-1.237-1.206-2.196-1.206-1.758 0-2.869 1.39-2.869 3.44s1.098 3.421 2.869 3.421c.94 0 1.714-.425 2.146-1.18h.101v1.345c0 1.01-.73 1.613-1.955 1.613-.984 0-1.593-.362-1.714-.921h-1.155c.165 1.13 1.219 1.873 2.869 1.873zm8.325-8.627c1.085 0 1.809.8 1.834 2.013h-3.77c.082-1.213.844-2.013 1.936-2.013zm1.803 4.228c-.286.603-.883.927-1.765.927-1.162 0-1.917-.857-1.974-2.209v-.051h4.919v-.419c0-2.126-1.123-3.44-2.97-3.44-1.879 0-3.085 1.396-3.085 3.548 0 2.165 1.187 3.536 3.085 3.536 1.498 0 2.564-.724 2.881-1.892h-1.091zm3.386 1.771h1.092v-4.24c0-.965.692-1.739 1.587-1.739.863 0 1.428.52 1.428 1.333V357h1.092v-4.399c0-.87.634-1.58 1.587-1.58.964 0 1.441.495 1.441 1.504V357h1.091v-4.729c0-1.435-.78-2.234-2.177-2.234-.946 0-1.727.476-2.095 1.199h-.101c-.318-.711-.965-1.199-1.892-1.199-.914 0-1.599.438-1.91 1.199h-.102v-1.079h-1.041V357zm14.533-5.999c1.085 0 1.809.8 1.834 2.013h-3.77c.082-1.213.844-2.013 1.936-2.013zm1.802 4.228c-.285.603-.882.927-1.764.927-1.162 0-1.917-.857-1.974-2.209v-.051h4.919v-.419c0-2.126-1.123-3.44-2.971-3.44-1.878 0-3.085 1.396-3.085 3.548 0 2.165 1.187 3.536 3.085 3.536 1.498 0 2.565-.724 2.882-1.892h-1.092zm3.387 1.771h1.092v-4.05c0-1.2.704-1.929 1.796-1.929s1.612.583 1.612 1.815V357h1.092v-4.431c0-1.625-.857-2.532-2.393-2.532-1.047 0-1.714.444-2.057 1.199h-.101v-1.079h-1.041V357zm8.54-8.614v1.771h-1.104v.914h1.104v4.152c0 1.307.565 1.828 1.975 1.828.215 0 .425-.026.641-.064v-.92a4.619 4.619 0 01-.508.025c-.711 0-1.016-.342-1.016-1.149v-3.872h1.524v-.914h-1.524v-1.771h-1.092zm5.659 8.677a.827.827 0 00.825-.825.823.823 0 00-.825-.825.828.828 0 00-.825.825c0 .451.375.825.825.825z" fill="#000"/>
  <path d="M552.311 338.235c2.05 0 3.504-1.352 3.504-3.256 0-1.746-1.276-3.028-3.015-3.028-1.066 0-1.917.482-2.336 1.339h-.114c0-1.98.736-3.11 2.006-3.11.742 0 1.295.381 1.441 1.003h1.897c-.222-1.53-1.561-2.578-3.364-2.578-2.342 0-3.808 1.841-3.808 4.882 0 3.18 1.593 4.748 3.789 4.748zm-.019-1.574c-.952 0-1.657-.724-1.657-1.663 0-.921.68-1.606 1.663-1.606.984 0 1.657.679 1.657 1.631 0 .927-.711 1.638-1.663 1.638zm9.41 1.574c2.051 0 3.504-1.352 3.504-3.256 0-1.746-1.276-3.028-3.015-3.028-1.066 0-1.917.482-2.336 1.339h-.114c0-1.98.736-3.11 2.006-3.11.742 0 1.295.381 1.441 1.003h1.898c-.222-1.53-1.562-2.578-3.365-2.578-2.342 0-3.808 1.841-3.808 4.882 0 3.18 1.593 4.748 3.789 4.748zm-.019-1.574c-.952 0-1.656-.724-1.656-1.663 0-.921.679-1.606 1.663-1.606s1.656.679 1.656 1.631c0 .927-.711 1.638-1.663 1.638zm7.354-3.53c1.371 0 2.177-.825 2.177-2.24 0-1.384-.825-2.228-2.177-2.228-1.346 0-2.177.85-2.177 2.228 0 1.409.806 2.24 2.177 2.24zm0-1.136c-.463 0-.73-.4-.73-1.098 0-.679.273-1.092.73-1.092.451 0 .724.413.724 1.092 0 .692-.261 1.098-.724 1.098zm.939 6.005l6.088-9.16h-1.467L568.51 338h1.466zm5.561.108c1.371 0 2.177-.825 2.177-2.241 0-1.384-.825-2.221-2.177-2.221-1.346 0-2.177.844-2.177 2.221 0 1.416.812 2.241 2.177 2.241zm0-1.136c-.463 0-.724-.4-.724-1.098 0-.68.267-1.092.724-1.092.457 0 .73.412.73 1.092 0 .691-.267 1.098-.73 1.098z" fill="#029D24"/>
  <circle opacity=".8" cx="170.5" cy="246.5" r="14.5" fill="#A9366D"/>
  <circle opacity=".7" cx="102.5" cy="205.5" r="19.5" fill="#251A3F"/>
  <circle cx="19.5" cy="176.5" r="19.5" fill="#251A3F"/>
  <circle cx="204" cy="165" r="34" fill="#F7B129"/>
  <defs>
    <filter id="Sv6IvarSGa" x="200" y="0" width="530" height="469" filterUnits="userSpaceOnUse" color-interpolation-filters="sRGB">
      <feFlood flood-opacity="0" result="BackgroundImageFix"/>
      <feColorMatrix in="SourceAlpha" values="0 0 0 0 0 0 0 0 0 0 0 0 0 0 0 0 0 0 127 0"/>
      <feOffset dy="10"/>
      <feGaussianBlur stdDeviation="10"/>
      <feColorMatrix values="0 0 0 0 0.2 0 0 0 0 0.2 0 0 0 0 0.2 0 0 0 0.15 0"/>
      <feBlend in2="BackgroundImageFix" result="effect1_dropShadow"/>
      <feBlend in="SourceGraphic" in2="effect1_dropShadow" result="shape"/>
    </filter>
    <filter id="Sv6IvarSGb" x="438" y="289" width="218" height="126" filterUnits="userSpaceOnUse" color-interpolation-filters="sRGB">
      <feFlood flood-opacity="0" result="BackgroundImageFix"/>
      <feColorMatrix in="SourceAlpha" values="0 0 0 0 0 0 0 0 0 0 0 0 0 0 0 0 0 0 127 0"/>
      <feOffset dy="10"/>
      <feGaussianBlur stdDeviation="10"/>
      <feColorMatrix values="0 0 0 0 0.2 0 0 0 0 0.2 0 0 0 0 0.2 0 0 0 0.15 0"/>
      <feBlend in2="BackgroundImageFix" result="effect1_dropShadow"/>
      <feBlend in="SourceGraphic" in2="effect1_dropShadow" result="shape"/>
    </filter>
  </defs>
</svg>
