<svg fill="none" xmlns="http://www.w3.org/2000/svg" viewBox="0 0 680 394">
  <path d="M20 244.016V137c0-35.346 28.654-64 64-64h143.385c35.346 0 64 28.654 64 64v184c0 35.346 28.653 64 64 64H466c35.346 0 64-28.654 64-64V73" stroke="#D6D3DD" stroke-width="18"/>
  <circle cx="20" cy="226" r="20" fill="#029D7F"/>
  <g filter="url(#K56-3J_dka)">
    <path fill-rule="evenodd" clip-rule="evenodd" d="M413 44a8 8 0 018-8h231a8 8 0 018 8v242a8 8 0 01-8 8H421a8 8 0 01-8-8V44z" fill="#fff"/>
    <path d="M421 36.5h231a7.5 7.5 0 017.5 7.5v242a7.5 7.5 0 01-7.5 7.5H421a7.5 7.5 0 01-7.5-7.5V44a7.5 7.5 0 017.5-7.5z" stroke="#D8D8D8"/>
  </g>
  <path d="M448.729 72.604l4.862-5.744c.619-.729.101-1.86-.871-1.86h-9.723c-.96 0-1.49 1.118-.871 1.86l4.861 5.744a1.156 1.156 0 001.742 0zM480.66 73h2.351l-3.677-10.569h-2.6L473.064 73h2.271l.806-2.564h3.713L480.66 73zm-2.688-8.547h.051l1.355 4.328h-2.761l1.355-4.328zm9.053 8.671c1.158 0 2.066-.607 2.447-1.472h.036V73h2.11V62.431h-2.139v4.065h-.044c-.381-.871-1.26-1.472-2.395-1.472-1.97 0-3.215 1.545-3.215 4.036 0 2.512 1.238 4.064 3.2 4.064zm.726-6.386c1.062 0 1.743.908 1.743 2.336 0 1.436-.681 2.33-1.743 2.33-1.077 0-1.736-.887-1.736-2.33 0-1.435.659-2.336 1.736-2.336zm10.452 6.386c1.978 0 3.186-1.523 3.186-4.05 0-2.534-1.215-4.05-3.193-4.05-1.121 0-1.992.557-2.424 1.487h-.044v-4.08h-2.139V73h2.109v-1.348h.044c.432.916 1.311 1.472 2.461 1.472zm-.739-6.386c1.062 0 1.735.908 1.735 2.336 0 1.436-.666 2.33-1.735 2.33-1.04 0-1.744-.909-1.744-2.33 0-1.406.711-2.336 1.744-2.336zM503.046 73h2.138V62.431h-2.138V73zm7.677.168c2.373 0 3.889-1.516 3.889-4.101 0-2.549-1.538-4.087-3.889-4.087-2.352 0-3.89 1.545-3.89 4.087 0 2.578 1.516 4.102 3.89 4.102zm0-1.633c-1.055 0-1.722-.886-1.722-2.46 0-1.56.681-2.462 1.722-2.462 1.04 0 1.713.901 1.713 2.461 0 1.575-.666 2.461-1.713 2.461zm9.09 1.633c2.373 0 3.889-1.516 3.889-4.101 0-2.549-1.538-4.087-3.889-4.087s-3.889 1.545-3.889 4.087c0 2.578 1.516 4.102 3.889 4.102zm0-1.633c-1.055 0-1.721-.886-1.721-2.46 0-1.56.681-2.462 1.721-2.462s1.714.901 1.714 2.461c0 1.575-.667 2.461-1.714 2.461zM525.3 73h2.139v-4.739c0-.879.549-1.494 1.362-1.494.791 0 1.267.498 1.267 1.34V73h2.058v-4.768c0-.872.535-1.465 1.348-1.465.827 0 1.281.498 1.281 1.406V73h2.139v-5.361c0-1.582-1.033-2.637-2.571-2.637-1.15 0-2.087.623-2.439 1.611h-.044c-.263-1.025-1.054-1.611-2.19-1.611-1.069 0-1.911.623-2.241 1.567h-.044v-1.42H525.3V73zm-44.545 39h1.384l-3.896-10.569h-1.304L473.042 112h1.385l1.062-3.025h4.204l1.062 3.025zm-3.186-8.965h.044l1.692 4.819h-3.428l1.692-4.819zm8.812 9.097c1.099 0 1.97-.542 2.461-1.421h.022V112h1.216v-10.569h-1.275v4.19h-.029c-.454-.835-1.333-1.37-2.424-1.37-1.919 0-3.23 1.553-3.23 3.94 0 2.388 1.318 3.941 3.259 3.941zm.242-6.76c1.311 0 2.19 1.12 2.19 2.819 0 1.707-.879 2.82-2.19 2.82-1.348 0-2.198-1.091-2.198-2.82 0-1.721.85-2.819 2.198-2.819zm11.917-.989h-1.325l-2.11 6.262h-.029l-2.102-6.262h-1.341l2.806 7.617h1.303l2.798-7.617zm1.561 7.617h1.275v-7.617h-1.275V112zm.638-8.972a.796.796 0 00.798-.799.791.791 0 00-.798-.798.796.796 0 00-.799.798.8.8 0 00.799.799zm2.718 3.457c0 1.098.696 1.765 2.131 2.109l1.209.293c.871.213 1.172.528 1.172 1.077 0 .688-.638 1.128-1.67 1.128-1.033 0-1.619-.418-1.773-1.289h-1.274c.146 1.428 1.26 2.329 3.047 2.329 1.699 0 2.951-.938 2.951-2.263 0-1.092-.556-1.692-2.094-2.066l-1.209-.293c-.849-.205-1.238-.564-1.238-1.091 0-.667.616-1.128 1.546-1.128.937 0 1.523.491 1.618 1.289h1.216c-.051-1.348-1.164-2.329-2.834-2.329-1.648 0-2.798.93-2.798 2.234zm10.768 5.647c2.102 0 3.523-1.516 3.523-3.941 0-2.431-1.421-3.94-3.523-3.94-2.11 0-3.531 1.509-3.531 3.94 0 2.425 1.421 3.941 3.531 3.941zm0-1.121c-1.348 0-2.234-1.025-2.234-2.82 0-1.794.886-2.819 2.234-2.819 1.347 0 2.226 1.025 2.226 2.819 0 1.795-.879 2.82-2.226 2.82zm5.303.989h1.275v-4.746c0-1.077.644-1.787 1.633-1.787.308 0 .579.036.681.073v-1.238c-.102-.014-.293-.051-.512-.051-.894 0-1.597.535-1.846 1.377h-.029v-1.245h-1.202V112zm4.989-5.515c0 1.098.696 1.765 2.132 2.109l1.208.293c.872.213 1.172.528 1.172 1.077 0 .688-.637 1.128-1.67 1.128s-1.619-.418-1.772-1.289h-1.275c.147 1.428 1.26 2.329 3.047 2.329 1.699 0 2.952-.938 2.952-2.263 0-1.092-.557-1.692-2.095-2.066l-1.209-.293c-.849-.205-1.237-.564-1.237-1.091 0-.667.615-1.128 1.545-1.128.938 0 1.523.491 1.619 1.289h1.216c-.052-1.348-1.165-2.329-2.835-2.329-1.648 0-2.798.93-2.798 2.234z" fill="#251A3F"/>
  <path d="M450.724 104.343c.24 0 .432.193.432.433v4.589a.432.432 0 01-.432.433h-4.588a.433.433 0 01-.433-.433v-4.589c0-.24.193-.433.433-.433h4.588zm-.433 4.59v-3.725h-3.723v3.725h3.723z" fill="#000"/>
  <path d="M444.338 104.343c.24 0 .433.193.433.433v4.589a.433.433 0 01-.433.433h-2.613v.93h2.612c.24 0 .433.195.433.433v2.615h.932l.001-2.615c0-.238.192-.433.432-.433h4.588c.24 0 .433.195.433.433v2.615h.933l-.001-2.615c0-.238.192-.433.432-.433h2.615v-.93h-2.615a.432.432 0 01-.432-.433v-4.589c0-.24.192-.433.432-.433h2.615v-.932l-2.615-.001a.43.43 0 01-.432-.432v-2.613h-.932v2.613c0 .24-.193.432-.433.432h-4.588a.43.43 0 01-.432-.432v-2.613h-.932v2.613c0 .24-.193.432-.433.432h-2.613v.932l2.613.001zm11.663 5.022v1.796c0 .24-.195.433-.433.433h-2.615v2.615a.433.433 0 01-.433.432h-1.797a.434.434 0 01-.433-.432v-2.615h-3.722v2.615a.434.434 0 01-.433.432h-1.797a.434.434 0 01-.433-.432v-2.615h-2.613a.432.432 0 01-.433-.433v-1.796c0-.24.193-.432.433-.432h2.612l.001-3.725h-2.613a.432.432 0 01-.433-.432v-1.797c0-.239.193-.433.433-.433h2.612l.001-2.613c0-.24.195-.433.433-.433h1.797c.238 0 .433.193.433.433v2.612h3.722v-2.612c0-.24.195-.433.433-.433h1.798c.238 0 .433.193.433.433v2.612h2.615c.238 0 .432.194.432.433v1.797a.433.433 0 01-.432.432l-2.616.001v3.725h2.615c.238 0 .432.192.432.432h.001z" fill="#000"/>
  <rect x="424.859" y="131" width="224" height="32" rx="10" fill="#029D7F"/>
  <path d="M482.798 146.627v-1.003h-4.299v1.157h2.981v.191c0 1.772-1.289 2.988-3.164 2.988-2.153 0-3.486-1.648-3.486-4.307 0-2.614 1.311-4.182 3.486-4.182 1.487 0 2.593.813 3.032 2.241h1.384c-.395-2.102-2.131-3.457-4.416-3.457-2.959 0-4.841 2.102-4.841 5.406 0 3.361 1.889 5.515 4.841 5.515 2.82 0 4.482-1.692 4.482-4.549zm1.986 4.373h1.275v-4.746c0-1.077.644-1.787 1.633-1.787.308 0 .579.036.681.073v-1.238c-.102-.014-.293-.051-.513-.051-.893 0-1.596.535-1.845 1.377h-.03v-1.245h-1.201V151zm7.911.132c2.103 0 3.523-1.516 3.523-3.941 0-2.431-1.42-3.94-3.523-3.94-2.109 0-3.53 1.509-3.53 3.94 0 2.425 1.421 3.941 3.53 3.941zm0-1.121c-1.347 0-2.233-1.025-2.233-2.82 0-1.794.886-2.819 2.233-2.819 1.348 0 2.227 1.025 2.227 2.819 0 1.795-.879 2.82-2.227 2.82zm14.994-6.628h-1.26l-1.523 6.196h-.029l-1.729-6.196h-1.23l-1.721 6.196h-.03l-1.523-6.196h-1.267l2.131 7.617h1.296l1.714-5.896h.03l1.721 5.896h1.296l2.124-7.617zm1.95-1.839v1.839h-1.136v1.047h1.136v4.592c0 1.465.542 2.037 1.94 2.037.301 0 .652-.022.806-.059v-1.069a5.16 5.16 0 01-.527.036c-.652 0-.945-.315-.945-1.01v-4.527h1.479v-1.047h-1.479v-1.839h-1.274zm4.673 9.456h1.275v-4.438c0-1.319.784-2.183 2.051-2.183 1.193 0 1.801.725 1.801 1.933V151h1.275v-4.922c0-1.699-1.011-2.827-2.681-2.827-1.157 0-1.992.498-2.417 1.348h-.029v-4.168h-1.275V151zm-63.588-7.157c.24 0 .432.193.432.433v4.589a.432.432 0 01-.432.433h-4.588a.433.433 0 01-.433-.433v-4.589c0-.24.193-.433.433-.433h4.588zm-.433 4.59v-3.725h-3.723v3.725h3.723z" fill="#fff"/>
  <path d="M444.338 143.843c.24 0 .433.193.433.433v4.589a.433.433 0 01-.433.433h-2.613v.93h2.612c.24 0 .433.195.433.433v2.615h.932l.001-2.615c0-.238.192-.433.432-.433h4.588c.24 0 .433.195.433.433v2.615h.933l-.001-2.615c0-.238.192-.433.432-.433h2.615v-.93h-2.615a.432.432 0 01-.432-.433v-4.589c0-.24.192-.433.432-.433h2.615v-.932l-2.615-.001a.43.43 0 01-.432-.432v-2.613h-.932v2.613c0 .24-.193.432-.433.432h-4.588a.43.43 0 01-.432-.432v-2.613h-.932v2.613c0 .24-.193.432-.433.432h-2.613v.932l2.613.001zm11.663 5.022v1.796c0 .24-.195.433-.433.433h-2.615v2.615a.433.433 0 01-.433.432h-1.797a.434.434 0 01-.433-.432v-2.615h-3.722v2.615a.434.434 0 01-.433.432h-1.797a.434.434 0 01-.433-.432v-2.615h-2.613a.432.432 0 01-.433-.433v-1.796c0-.24.193-.432.433-.432h2.612l.001-3.725h-2.613a.432.432 0 01-.433-.432v-1.797c0-.239.193-.433.433-.433h2.612l.001-2.613c0-.24.195-.433.433-.433h1.797c.238 0 .433.193.433.433v2.612h3.722v-2.612c0-.24.195-.433.433-.433h1.798c.238 0 .433.193.433.433v2.612h2.615c.238 0 .432.194.432.433v1.797a.433.433 0 01-.432.432l-2.616.001v3.725h2.615c.238 0 .432.192.432.432h.001z" fill="#fff"/>
  <path d="M484.3 190v-10.569h-1.531l-3.647 8.892h-.059l-3.647-8.892h-1.531V190h1.23v-8.145h.052l3.369 8.145h1.113l3.369-8.145h.051V190h1.231zm5.399-6.643c1.201 0 1.999.908 2.029 2.183h-4.139c.081-1.268.916-2.183 2.11-2.183zm1.999 4.46c-.212.718-.923 1.209-1.889 1.209-1.37 0-2.227-.96-2.227-2.417v-.073h5.464v-.484c0-2.307-1.267-3.801-3.325-3.801-2.102 0-3.45 1.604-3.45 3.97 0 2.395 1.326 3.911 3.508 3.911 1.663 0 2.952-.982 3.172-2.315h-1.253zm3.539-7.273v1.839h-1.135v1.047h1.135v4.592c0 1.465.542 2.037 1.941 2.037.3 0 .652-.022.806-.059v-1.069a5.16 5.16 0 01-.528.036c-.652 0-.945-.315-.945-1.01v-4.527h1.48v-1.047h-1.48v-1.839h-1.274zm4.608 9.456h1.274v-4.746c0-1.077.645-1.787 1.634-1.787.307 0 .578.036.681.073v-1.238c-.103-.014-.293-.051-.513-.051-.893 0-1.597.535-1.846 1.377h-.029v-1.245h-1.201V190zm5.187 0h1.274v-7.617h-1.274V190zm.637-8.972a.795.795 0 00.798-.799.79.79 0 00-.798-.798.796.796 0 00-.799.798.8.8 0 00.799.799zm9.178 3.852c-.161-1.369-1.296-2.629-3.201-2.629-2.102 0-3.501 1.538-3.501 3.94 0 2.454 1.407 3.941 3.516 3.941 1.729 0 3.003-1.07 3.201-2.586h-1.253c-.219.916-.901 1.465-1.941 1.465-1.318 0-2.226-1.047-2.226-2.82 0-1.728.893-2.819 2.212-2.819 1.12 0 1.765.681 1.948 1.508h1.245zm1.547-.395c0 1.098.695 1.765 2.131 2.109l1.208.293c.872.213 1.172.528 1.172 1.077 0 .688-.637 1.128-1.67 1.128-1.032 0-1.618-.418-1.772-1.289h-1.274c.146 1.428 1.259 2.329 3.046 2.329 1.7 0 2.952-.938 2.952-2.263 0-1.092-.557-1.692-2.095-2.066l-1.208-.293c-.85-.205-1.238-.564-1.238-1.091 0-.667.615-1.128 1.545-1.128.938 0 1.524.491 1.619 1.289h1.216c-.051-1.348-1.165-2.329-2.835-2.329-1.648 0-2.797.93-2.797 2.234z" fill="#251A3F"/>
  <path d="M450.724 182.343c.24 0 .432.193.432.433v4.589a.432.432 0 01-.432.433h-4.588a.433.433 0 01-.433-.433v-4.589c0-.24.193-.433.433-.433h4.588zm-.433 4.59v-3.725h-3.723v3.725h3.723z" fill="#000"/>
  <path d="M444.338 182.343c.24 0 .433.193.433.433v4.589a.433.433 0 01-.433.433h-2.613v.93h2.612c.24 0 .433.195.433.433v2.615h.932l.001-2.615c0-.238.192-.433.432-.433h4.588c.24 0 .433.195.433.433v2.615h.933l-.001-2.615c0-.238.192-.433.432-.433h2.615v-.93h-2.615a.432.432 0 01-.432-.433v-4.589c0-.24.192-.433.432-.433h2.615v-.932l-2.615-.001a.43.43 0 01-.432-.432v-2.613h-.932v2.613c0 .24-.193.432-.433.432h-4.588a.43.43 0 01-.432-.432v-2.613h-.932v2.613c0 .24-.193.432-.433.432h-2.613v.932l2.613.001zm11.663 5.022v1.796c0 .24-.195.433-.433.433h-2.615v2.615a.433.433 0 01-.433.432h-1.797a.434.434 0 01-.433-.432v-2.615h-3.722v2.615a.434.434 0 01-.433.432h-1.797a.434.434 0 01-.433-.432v-2.615h-2.613a.432.432 0 01-.433-.433v-1.796c0-.24.193-.432.433-.432h2.612l.001-3.725h-2.613a.432.432 0 01-.433-.432v-1.797c0-.239.193-.433.433-.433h2.612l.001-2.613c0-.24.195-.433.433-.433h1.797c.238 0 .433.193.433.433v2.612h3.722v-2.612c0-.24.195-.433.433-.433h1.798c.238 0 .433.193.433.433v2.612h2.615c.238 0 .432.194.432.433v1.797a.433.433 0 01-.432.432l-2.616.001v3.725h2.615c.238 0 .432.192.432.432h.001z" fill="#000"/>
  <path d="M473.885 218.431V229h1.318v-3.772h2.439c1.985 0 3.399-1.399 3.399-3.406 0-1.999-1.399-3.391-3.384-3.391h-3.772zm1.318 1.172h2.109c1.517 0 2.374.82 2.374 2.219 0 1.407-.865 2.234-2.374 2.234h-2.109v-4.453zm7.648 9.397h1.274v-4.746c0-1.077.645-1.787 1.633-1.787.308 0 .579.036.682.073v-1.238c-.103-.014-.293-.051-.513-.051-.894 0-1.597.535-1.846 1.377h-.029v-1.245h-1.201V229zm7.911.132c2.102 0 3.523-1.516 3.523-3.941 0-2.431-1.421-3.94-3.523-3.94-2.109 0-3.53 1.509-3.53 3.94 0 2.425 1.421 3.941 3.53 3.941zm0-1.121c-1.348 0-2.234-1.025-2.234-2.82 0-1.794.886-2.819 2.234-2.819 1.348 0 2.226 1.025 2.226 2.819 0 1.795-.878 2.82-2.226 2.82zm8.189 1.121c1.099 0 1.971-.542 2.461-1.421h.022V229h1.216v-10.569h-1.274v4.19h-.03c-.454-.835-1.333-1.37-2.424-1.37-1.919 0-3.23 1.553-3.23 3.94 0 2.388 1.319 3.941 3.259 3.941zm.242-6.76c1.311 0 2.19 1.12 2.19 2.819 0 1.707-.879 2.82-2.19 2.82-1.348 0-2.197-1.091-2.197-2.82 0-1.721.849-2.819 2.197-2.819zm11.925-.989h-1.274v4.475c0 1.296-.747 2.146-1.985 2.146-1.179 0-1.758-.667-1.758-1.904v-4.717h-1.274v4.944c0 1.728.974 2.805 2.636 2.805 1.172 0 1.963-.491 2.417-1.37h.03V229h1.208v-7.617zm8.475 2.497c-.161-1.369-1.296-2.629-3.2-2.629-2.103 0-3.501 1.538-3.501 3.94 0 2.454 1.406 3.941 3.515 3.941 1.729 0 3.003-1.07 3.201-2.586h-1.253c-.219.916-.9 1.465-1.941 1.465-1.318 0-2.226-1.047-2.226-2.82 0-1.728.893-2.819 2.212-2.819 1.12 0 1.765.681 1.948 1.508h1.245zm2.089-4.336v1.839h-1.136v1.047h1.136v4.592c0 1.465.542 2.037 1.941 2.037.3 0 .651-.022.805-.059v-1.069a5.16 5.16 0 01-.527.036c-.652 0-.945-.315-.945-1.01v-4.527h1.48v-1.047h-1.48v-1.839h-1.274zm9.692-1.113h-1.319v6.863c0 2.256 1.575 3.882 4.197 3.882s4.197-1.626 4.197-3.882v-6.863h-1.318v6.775c0 1.597-1.048 2.754-2.879 2.754s-2.878-1.157-2.878-2.754v-6.775zm13.118 2.82c-1.105 0-1.992.564-2.46 1.421h-.03v-1.289h-1.208v10.159h1.274v-3.78h.029c.455.835 1.333 1.37 2.425 1.37 1.919 0 3.23-1.553 3.23-3.941 0-2.387-1.319-3.94-3.26-3.94zm-.249 6.76c-1.303 0-2.182-1.12-2.182-2.82 0-1.691.879-2.819 2.182-2.819 1.355 0 2.205 1.098 2.205 2.819 0 1.729-.85 2.82-2.205 2.82zm8.175 1.121c1.099 0 1.971-.542 2.461-1.421h.022V229h1.216v-10.569h-1.274v4.19h-.03c-.454-.835-1.333-1.37-2.424-1.37-1.919 0-3.23 1.553-3.23 3.94 0 2.388 1.318 3.941 3.259 3.941zm.242-6.76c1.311 0 2.19 1.12 2.19 2.819 0 1.707-.879 2.82-2.19 2.82-1.348 0-2.197-1.091-2.197-2.82 0-1.721.849-2.819 2.197-2.819zm8.182 5.676c-.915 0-1.523-.476-1.523-1.201 0-.718.586-1.172 1.611-1.238l2.036-.125v.623c0 1.099-.923 1.941-2.124 1.941zm-.285 1.084c1.025 0 1.992-.571 2.446-1.443h.029V229h1.209v-5.266c0-1.516-1.128-2.483-2.915-2.483-1.802 0-2.93 1.011-3.018 2.329h1.231c.161-.747.776-1.208 1.757-1.208 1.055 0 1.67.556 1.67 1.486v.638l-2.182.124c-1.758.103-2.762.923-2.762 2.227 0 1.369 1.019 2.285 2.535 2.285zm6.204-9.588v1.839h-1.135v1.047h1.135v4.592c0 1.465.542 2.037 1.941 2.037.301 0 .652-.022.806-.059v-1.069a5.16 5.16 0 01-.527.036c-.652 0-.945-.315-.945-1.01v-4.527h1.479v-1.047h-1.479v-1.839h-1.275zm7.443 2.813c1.201 0 1.999.908 2.029 2.183h-4.139c.081-1.268.916-2.183 2.11-2.183zm1.999 4.46c-.212.718-.923 1.209-1.889 1.209-1.37 0-2.227-.96-2.227-2.417v-.073h5.464v-.484c0-2.307-1.267-3.801-3.325-3.801-2.102 0-3.45 1.604-3.45 3.97 0 2.395 1.326 3.911 3.508 3.911 1.663 0 2.952-.982 3.172-2.315h-1.253zm2.997-3.332c0 1.098.696 1.765 2.131 2.109l1.209.293c.871.213 1.172.528 1.172 1.077 0 .688-.638 1.128-1.67 1.128-1.033 0-1.619-.418-1.773-1.289h-1.274c.146 1.428 1.26 2.329 3.047 2.329 1.699 0 2.951-.938 2.951-2.263 0-1.092-.556-1.692-2.094-2.066l-1.209-.293c-.849-.205-1.238-.564-1.238-1.091 0-.667.616-1.128 1.546-1.128.937 0 1.523.491 1.618 1.289h1.216c-.051-1.348-1.164-2.329-2.834-2.329-1.648 0-2.798.93-2.798 2.234z" fill="#251A3F"/>
  <path d="M450.724 221.343c.24 0 .432.193.432.433v4.589a.432.432 0 01-.432.433h-4.588a.433.433 0 01-.433-.433v-4.589c0-.24.193-.433.433-.433h4.588zm-.433 4.59v-3.725h-3.723v3.725h3.723z" fill="#000"/>
  <path d="M444.338 221.343c.24 0 .433.193.433.433v4.589a.433.433 0 01-.433.433h-2.613v.93h2.612c.24 0 .433.195.433.433v2.615h.932l.001-2.615c0-.238.192-.433.432-.433h4.588c.24 0 .433.195.433.433v2.615h.933l-.001-2.615c0-.238.192-.433.432-.433h2.615v-.93h-2.615a.432.432 0 01-.432-.433v-4.589c0-.24.192-.433.432-.433h2.615v-.932l-2.615-.001a.43.43 0 01-.432-.432v-2.613h-.932v2.613c0 .24-.193.432-.433.432h-4.588a.43.43 0 01-.432-.432v-2.613h-.932v2.613c0 .24-.193.432-.433.432h-2.613v.932l2.613.001zm11.663 5.022v1.796c0 .24-.195.433-.433.433h-2.615v2.615a.433.433 0 01-.433.432h-1.797a.434.434 0 01-.433-.432v-2.615h-3.722v2.615a.434.434 0 01-.433.432h-1.797a.434.434 0 01-.433-.432v-2.615h-2.613a.432.432 0 01-.433-.433v-1.796c0-.24.193-.432.433-.432h2.612l.001-3.725h-2.613a.432.432 0 01-.433-.432v-1.797c0-.239.193-.433.433-.433h2.612l.001-2.613c0-.24.195-.433.433-.433h1.797c.238 0 .433.193.433.433v2.612h3.722v-2.612c0-.24.195-.433.433-.433h1.798c.238 0 .433.193.433.433v2.612h2.615c.238 0 .432.194.432.433v1.797a.433.433 0 01-.432.432l-2.616.001v3.725h2.615c.238 0 .432.192.432.432h.001z" fill="#000"/>
  <path d="M479.751 259.614h.074l2.439 8.386h1.245l2.878-10.569h-1.377l-2.116 8.628h-.059l-2.38-8.628h-1.333l-2.381 8.628h-.058l-2.117-8.628h-1.377L476.067 268h1.245l2.439-8.386zm8.351 8.386h1.275v-7.617h-1.275V268zm.637-8.972a.796.796 0 00.799-.799.792.792 0 00-.799-.798.796.796 0 00-.798.798.8.8 0 00.798.799zM491.59 268h1.274v-4.482c0-1.289.784-2.139 1.985-2.139 1.172 0 1.75.674 1.75 1.904V268h1.275v-4.944c0-1.728-.967-2.805-2.637-2.805-1.179 0-1.992.527-2.417 1.348h-.029v-1.216h-1.201V268zm8.27-5.515c0 1.098.695 1.765 2.131 2.109l1.208.293c.872.213 1.172.528 1.172 1.077 0 .688-.637 1.128-1.67 1.128-1.032 0-1.618-.418-1.772-1.289h-1.274c.146 1.428 1.259 2.329 3.046 2.329 1.7 0 2.952-.938 2.952-2.263 0-1.092-.557-1.692-2.095-2.066l-1.208-.293c-.85-.205-1.238-.564-1.238-1.091 0-.667.615-1.128 1.545-1.128.938 0 1.524.491 1.619 1.289h1.216c-.051-1.348-1.165-2.329-2.835-2.329-1.647 0-2.797.93-2.797 2.234z" fill="#251A3F"/>
  <path d="M450.724 260.343c.24 0 .432.193.432.433v4.589a.432.432 0 01-.432.433h-4.588a.433.433 0 01-.433-.433v-4.589c0-.24.193-.433.433-.433h4.588zm-.433 4.59v-3.725h-3.723v3.725h3.723z" fill="#000"/>
  <path d="M444.338 260.343c.24 0 .433.193.433.433v4.589a.433.433 0 01-.433.433h-2.613v.93h2.612c.24 0 .433.195.433.433v2.615h.932l.001-2.615c0-.238.192-.433.432-.433h4.588c.24 0 .433.195.433.433v2.615h.933l-.001-2.615c0-.238.192-.433.432-.433h2.615v-.93h-2.615a.432.432 0 01-.432-.433v-4.589c0-.24.192-.433.432-.433h2.615v-.932l-2.615-.001a.43.43 0 01-.432-.432v-2.613h-.932v2.613c0 .24-.193.432-.433.432h-4.588a.43.43 0 01-.432-.432v-2.613h-.932v2.613c0 .24-.193.432-.433.432h-2.613v.932l2.613.001zm11.663 5.022v1.796c0 .24-.195.433-.433.433h-2.615v2.615a.433.433 0 01-.433.432h-1.797a.434.434 0 01-.433-.432v-2.615h-3.722v2.615a.434.434 0 01-.433.432h-1.797a.434.434 0 01-.433-.432v-2.615h-2.613a.432.432 0 01-.433-.433v-1.796c0-.24.193-.432.433-.432h2.612l.001-3.725h-2.613a.432.432 0 01-.433-.432v-1.797c0-.239.193-.433.433-.433h2.612l.001-2.613c0-.24.195-.433.433-.433h1.797c.238 0 .433.193.433.433v2.612h3.722v-2.612c0-.24.195-.433.433-.433h1.798c.238 0 .433.193.433.433v2.612h2.615c.238 0 .432.194.432.433v1.797a.433.433 0 01-.432.432l-2.616.001v3.725h2.615c.238 0 .432.192.432.432h.001z" fill="#000"/>
  <g filter="url(#K56-3J_dkb)">
    <path fill-rule="evenodd" clip-rule="evenodd" d="M181 100a8 8 0 018-8h229a8 8 0 018 8v242a8 8 0 01-8 8H189a8 8 0 01-8-8V100z" fill="#fff"/>
    <path d="M189 92.5h229a7.5 7.5 0 017.5 7.5v242a7.5 7.5 0 01-7.5 7.5H189a7.5 7.5 0 01-7.5-7.5V100a7.5 7.5 0 017.5-7.5z" stroke="#D8D8D8"/>
  </g>
  <path d="M216.729 128.604l4.862-5.744c.619-.729.101-1.86-.871-1.86h-9.723c-.96 0-1.49 1.118-.871 1.86l4.861 5.744a1.156 1.156 0 001.742 0zm29.689.396c2.256 0 3.655-1.165 3.655-3.025 0-1.399-1.054-2.446-2.49-2.556v-.059a2.33 2.33 0 001.985-2.292c0-1.619-1.245-2.637-3.23-2.637h-4.6V129h4.68zm-2.468-8.921h1.817c1.032 0 1.626.483 1.626 1.333 0 .894-.674 1.414-1.853 1.414h-1.59v-2.747zm0 7.273v-3.069h1.853c1.304 0 2.014.528 2.014 1.516 0 1.011-.688 1.553-1.963 1.553h-1.904zm10.724.227c-.725 0-1.209-.366-1.209-.952 0-.557.455-.916 1.253-.974l1.655-.103v.572c0 .849-.769 1.457-1.699 1.457zm-.703 1.546c.981 0 1.955-.491 2.395-1.326h.044V129h2.065v-5.398c0-1.582-1.311-2.622-3.325-2.622-2.08 0-3.376 1.047-3.457 2.571h1.956c.102-.579.607-.974 1.406-.974.805 0 1.318.424 1.318 1.157v.52l-1.977.117c-1.956.117-3.055.945-3.055 2.373 0 1.414 1.136 2.381 2.63 2.381zm6.38-.125h2.139v-4.387c0-1.106.615-1.751 1.67-1.751.307 0 .6.052.776.125v-1.883a2.215 2.215 0 00-.608-.08c-.923 0-1.589.542-1.867 1.538h-.044v-1.414h-2.066V129zm9.296.168c2.373 0 3.889-1.516 3.889-4.101 0-2.549-1.538-4.087-3.889-4.087s-3.889 1.545-3.889 4.087c0 2.578 1.516 4.101 3.889 4.101zm0-1.633c-1.055 0-1.721-.886-1.721-2.461 0-1.56.681-2.461 1.721-2.461s1.714.901 1.714 2.461c0 1.575-.667 2.461-1.714 2.461zm5.487 1.465h2.138v-4.504c0-1.018.608-1.722 1.568-1.722.959 0 1.443.586 1.443 1.612V129h2.138v-5.061c0-1.838-.981-2.937-2.724-2.937-1.209 0-2.036.571-2.454 1.545h-.044v-1.399h-2.065V129zm11.529 0v-4.16h4.299v-1.751h-4.299v-2.834h4.71v-1.824h-6.922V129h2.212zm6.366 0h2.139v-7.852h-2.139V129zm1.062-8.914c.622 0 1.113-.498 1.113-1.098a1.1 1.1 0 00-1.113-1.099 1.1 1.1 0 00-1.113 1.099c0 .6.49 1.098 1.113 1.098zm6.622 7.244c-1.062 0-1.721-.835-1.721-2.27 0-1.429.666-2.322 1.721-2.322 1.069 0 1.75.908 1.75 2.322 0 1.42-.681 2.27-1.75 2.27zm-.037 4.629c2.351 0 3.919-1.194 3.919-3.069v-7.742h-2.11v1.37h-.036c-.41-.901-1.297-1.494-2.424-1.494-1.993 0-3.223 1.531-3.223 4.021 0 2.454 1.267 3.933 3.186 3.933 1.135 0 2.058-.571 2.424-1.406h.044v1.377c0 .908-.615 1.523-1.721 1.523-.813 0-1.428-.373-1.597-.915h-2.094c.168 1.399 1.567 2.402 3.632 2.402zM243.203 168v-4.578h4.68v-1.172h-4.68v-3.632h5.098v-1.187h-6.416V168h1.318zm6.967 0h1.274v-7.617h-1.274V168zm.637-8.972a.795.795 0 00.798-.799.79.79 0 00-.798-.798.796.796 0 00-.799.798.8.8 0 00.799.799zm2.85 8.972h1.274v-4.482c0-1.289.784-2.139 1.985-2.139 1.172 0 1.751.674 1.751 1.904V168h1.274v-4.944c0-1.728-.967-2.805-2.637-2.805-1.179 0-1.992.527-2.417 1.348h-.029v-1.216h-1.201V168zm10.914-.952c-.915 0-1.523-.476-1.523-1.201 0-.718.586-1.172 1.611-1.238l2.036-.125v.623c0 1.099-.923 1.941-2.124 1.941zm-.286 1.084c1.026 0 1.993-.571 2.447-1.443h.029V168h1.208v-5.266c0-1.516-1.127-2.483-2.915-2.483-1.801 0-2.929 1.011-3.017 2.329h1.23c.161-.747.777-1.208 1.758-1.208 1.055 0 1.67.556 1.67 1.486v.638l-2.183.124c-1.757.103-2.761.923-2.761 2.227 0 1.369 1.018 2.285 2.534 2.285zm5.795-.132h1.274v-4.482c0-1.289.784-2.139 1.985-2.139 1.172 0 1.751.674 1.751 1.904V168h1.274v-4.944c0-1.728-.967-2.805-2.637-2.805-1.179 0-1.992.527-2.417 1.348h-.029v-1.216h-1.201V168zm14.73-5.12c-.161-1.369-1.296-2.629-3.201-2.629-2.102 0-3.501 1.538-3.501 3.94 0 2.454 1.407 3.941 3.516 3.941 1.728 0 3.003-1.07 3.201-2.586h-1.253c-.22.916-.901 1.465-1.941 1.465-1.318 0-2.226-1.047-2.226-2.82 0-1.728.893-2.819 2.212-2.819 1.12 0 1.765.681 1.948 1.508h1.245zm4.733-1.523c1.201 0 1.999.908 2.028 2.183h-4.138c.081-1.268.916-2.183 2.11-2.183zm1.999 4.46c-.212.718-.923 1.209-1.89 1.209-1.369 0-2.226-.96-2.226-2.417v-.073h5.464v-.484c0-2.307-1.267-3.801-3.326-3.801-2.102 0-3.449 1.604-3.449 3.97 0 2.395 1.325 3.911 3.508 3.911 1.663 0 2.952-.982 3.171-2.315h-1.252z" fill="#251A3F"/>
  <path d="M218.724 160.343c.24 0 .432.193.432.433v4.589a.432.432 0 01-.432.433h-4.588a.433.433 0 01-.433-.433v-4.589c0-.24.193-.433.433-.433h4.588zm-.433 4.59v-3.725h-3.723v3.725h3.723z" fill="#000"/>
  <path d="M212.338 160.343c.24 0 .433.193.433.433v4.589a.433.433 0 01-.433.433h-2.613v.93h2.612c.24 0 .433.195.433.433v2.615h.932l.001-2.615c0-.238.192-.433.432-.433h4.588c.24 0 .433.195.433.433v2.615h.933l-.001-2.615c0-.238.192-.433.432-.433h2.615v-.93h-2.615a.432.432 0 01-.432-.433v-4.589c0-.24.192-.433.432-.433h2.615v-.932l-2.615-.001a.43.43 0 01-.432-.432v-2.613h-.932v2.613c0 .24-.193.432-.433.432h-4.588a.43.43 0 01-.432-.432v-2.613h-.932v2.613c0 .24-.193.432-.433.432h-2.613v.932l2.613.001zm11.663 5.022v1.796c0 .24-.195.433-.433.433h-2.615v2.615a.433.433 0 01-.433.432h-1.797a.434.434 0 01-.433-.432v-2.615h-3.722v2.615a.434.434 0 01-.433.432h-1.797a.434.434 0 01-.433-.432v-2.615h-2.613a.432.432 0 01-.433-.433v-1.796c0-.24.193-.432.433-.432h2.612l.001-3.725h-2.613a.432.432 0 01-.433-.432v-1.797c0-.239.193-.433.433-.433h2.612l.001-2.613c0-.24.195-.433.433-.433h1.797c.238 0 .433.193.433.433v2.612h3.722v-2.612c0-.24.195-.433.433-.433h1.798c.238 0 .433.193.433.433v2.612h2.615c.238 0 .432.194.432.433v1.797a.433.433 0 01-.432.432l-2.616.001v3.725h2.615c.238 0 .432.192.432.432h.001z" fill="#000"/>
  <path d="M241.885 196.431V207h1.318v-3.772h2.439c1.985 0 3.399-1.399 3.399-3.406 0-1.999-1.399-3.391-3.384-3.391h-3.772zm1.318 1.172h2.109c1.517 0 2.374.82 2.374 2.219 0 1.407-.865 2.234-2.374 2.234h-2.109v-4.453zm7.648 9.397h1.274v-4.746c0-1.077.645-1.787 1.633-1.787.308 0 .579.036.682.073v-1.238c-.103-.014-.293-.051-.513-.051-.894 0-1.597.535-1.846 1.377h-.029v-1.245h-1.201V207zm7.911.132c2.102 0 3.523-1.516 3.523-3.941 0-2.431-1.421-3.94-3.523-3.94-2.109 0-3.53 1.509-3.53 3.94 0 2.425 1.421 3.941 3.53 3.941zm0-1.121c-1.348 0-2.234-1.025-2.234-2.82 0-1.794.886-2.819 2.234-2.819 1.348 0 2.226 1.025 2.226 2.819 0 1.795-.878 2.82-2.226 2.82zm8.189 1.121c1.099 0 1.971-.542 2.461-1.421h.022V207h1.216v-10.569h-1.274v4.19h-.03c-.454-.835-1.333-1.37-2.424-1.37-1.919 0-3.23 1.553-3.23 3.94 0 2.388 1.319 3.941 3.259 3.941zm.242-6.76c1.311 0 2.19 1.12 2.19 2.819 0 1.707-.879 2.82-2.19 2.82-1.348 0-2.197-1.091-2.197-2.82 0-1.721.849-2.819 2.197-2.819zm11.925-.989h-1.274v4.475c0 1.296-.747 2.146-1.985 2.146-1.179 0-1.758-.667-1.758-1.904v-4.717h-1.274v4.944c0 1.728.974 2.805 2.636 2.805 1.172 0 1.963-.491 2.417-1.37h.03V207h1.208v-7.617zm8.475 2.497c-.161-1.369-1.296-2.629-3.2-2.629-2.103 0-3.501 1.538-3.501 3.94 0 2.454 1.406 3.941 3.515 3.941 1.729 0 3.003-1.07 3.201-2.586h-1.253c-.219.916-.9 1.465-1.941 1.465-1.318 0-2.226-1.047-2.226-2.82 0-1.728.893-2.819 2.212-2.819 1.12 0 1.765.681 1.948 1.508h1.245zm2.089-4.336v1.839h-1.136v1.047h1.136v4.592c0 1.465.542 2.037 1.941 2.037.3 0 .651-.022.805-.059v-1.069a5.16 5.16 0 01-.527.036c-.652 0-.945-.315-.945-1.01v-4.527h1.48v-1.047h-1.48v-1.839h-1.274zm4.674 9.456h1.274v-7.617h-1.274V207zm.637-8.972a.795.795 0 00.798-.799.79.79 0 00-.798-.798.796.796 0 00-.799.798.8.8 0 00.799.799zm6.007 9.104c2.102 0 3.523-1.516 3.523-3.941 0-2.431-1.421-3.94-3.523-3.94-2.11 0-3.531 1.509-3.531 3.94 0 2.425 1.421 3.941 3.531 3.941zm0-1.121c-1.348 0-2.234-1.025-2.234-2.82 0-1.794.886-2.819 2.234-2.819 1.347 0 2.226 1.025 2.226 2.819 0 1.795-.879 2.82-2.226 2.82zm5.304.989h1.274v-4.482c0-1.289.784-2.139 1.985-2.139 1.172 0 1.75.674 1.75 1.904V207h1.275v-4.944c0-1.728-.967-2.805-2.637-2.805-1.179 0-1.992.527-2.417 1.348h-.029v-1.216h-1.201V207z" fill="#251A3F"/>
  <path d="M218.724 199.343c.24 0 .432.193.432.433v4.589a.432.432 0 01-.432.433h-4.588a.433.433 0 01-.433-.433v-4.589c0-.24.193-.433.433-.433h4.588zm-.433 4.59v-3.725h-3.723v3.725h3.723z" fill="#000"/>
  <path d="M212.338 199.343c.24 0 .433.193.433.433v4.589a.433.433 0 01-.433.433h-2.613v.93h2.612c.24 0 .433.195.433.433v2.615h.932l.001-2.615c0-.238.192-.433.432-.433h4.588c.24 0 .433.195.433.433v2.615h.933l-.001-2.615c0-.238.192-.433.432-.433h2.615v-.93h-2.615a.432.432 0 01-.432-.433v-4.589c0-.24.192-.433.432-.433h2.615v-.932l-2.615-.001a.43.43 0 01-.432-.432v-2.613h-.932v2.613c0 .24-.193.432-.433.432h-4.588a.43.43 0 01-.432-.432v-2.613h-.932v2.613c0 .24-.193.432-.433.432h-2.613v.932l2.613.001zm11.663 5.022v1.796c0 .24-.195.433-.433.433h-2.615v2.615a.433.433 0 01-.433.432h-1.797a.434.434 0 01-.433-.432v-2.615h-3.722v2.615a.434.434 0 01-.433.432h-1.797a.434.434 0 01-.433-.432v-2.615h-2.613a.432.432 0 01-.433-.433v-1.796c0-.24.193-.432.433-.432h2.612l.001-3.725h-2.613a.432.432 0 01-.433-.432v-1.797c0-.239.193-.433.433-.433h2.612l.001-2.613c0-.24.195-.433.433-.433h1.797c.238 0 .433.193.433.433v2.612h3.722v-2.612c0-.24.195-.433.433-.433h1.798c.238 0 .433.193.433.433v2.612h2.615c.238 0 .432.194.432.433v1.797a.433.433 0 01-.432.432l-2.616.001v3.725h2.615c.238 0 .432.192.432.432h.001z" fill="#000"/>
  <rect x="192.859" y="226" width="224" height="32" rx="10" fill="#029D7F"/>
  <path d="M241.885 235.431V246h1.318v-3.772h2.439c1.985 0 3.399-1.399 3.399-3.406 0-1.999-1.399-3.391-3.384-3.391h-3.772zm1.318 1.172h2.109c1.517 0 2.374.82 2.374 2.219 0 1.407-.865 2.234-2.374 2.234h-2.109v-4.453zm13.903 1.78h-1.275v4.475c0 1.296-.747 2.146-1.985 2.146-1.179 0-1.758-.667-1.758-1.904v-4.717h-1.274v4.944c0 1.728.974 2.805 2.637 2.805 1.172 0 1.963-.491 2.417-1.37h.029V246h1.209v-7.617zm2.147 7.617h1.274v-4.746c0-1.077.645-1.787 1.633-1.787.308 0 .579.036.681.073v-1.238c-.102-.014-.292-.051-.512-.051-.894 0-1.597.535-1.846 1.377h-.029v-1.245h-1.201V246zm11.082-5.12c-.161-1.369-1.296-2.629-3.2-2.629-2.103 0-3.501 1.538-3.501 3.94 0 2.454 1.406 3.941 3.515 3.941 1.729 0 3.003-1.07 3.201-2.586h-1.253c-.219.916-.9 1.465-1.94 1.465-1.319 0-2.227-1.047-2.227-2.82 0-1.728.894-2.819 2.212-2.819 1.12 0 1.765.681 1.948 1.508h1.245zm1.744 5.12h1.275v-4.438c0-1.319.784-2.183 2.051-2.183 1.193 0 1.801.725 1.801 1.933V246h1.275v-4.922c0-1.699-1.011-2.827-2.681-2.827-1.157 0-1.992.498-2.417 1.348h-.029v-4.168h-1.275V246zm11.024-.952c-.915 0-1.523-.476-1.523-1.201 0-.718.586-1.172 1.611-1.238l2.036-.125v.623c0 1.099-.922 1.941-2.124 1.941zm-.285 1.084c1.025 0 1.992-.571 2.446-1.443h.029V246h1.209v-5.266c0-1.516-1.128-2.483-2.915-2.483-1.802 0-2.93 1.011-3.018 2.329h1.231c.161-.747.776-1.208 1.758-1.208 1.054 0 1.669.556 1.669 1.486v.638l-2.182.124c-1.758.103-2.761.923-2.761 2.227 0 1.369 1.018 2.285 2.534 2.285zm5.662-5.647c0 1.098.696 1.765 2.132 2.109l1.208.293c.872.213 1.172.528 1.172 1.077 0 .688-.637 1.128-1.67 1.128-1.032 0-1.618-.418-1.772-1.289h-1.275c.147 1.428 1.26 2.329 3.047 2.329 1.7 0 2.952-.938 2.952-2.263 0-1.092-.557-1.692-2.095-2.066l-1.208-.293c-.85-.205-1.238-.564-1.238-1.091 0-.667.615-1.128 1.545-1.128.938 0 1.524.491 1.619 1.289h1.216c-.051-1.348-1.165-2.329-2.835-2.329-1.648 0-2.798.93-2.798 2.234zm7.677 5.515h1.275v-7.617h-1.275V246zm.638-8.972a.796.796 0 00.798-.799.791.791 0 00-.798-.798.796.796 0 00-.799.798.8.8 0 00.799.799zm2.85 8.972h1.274v-4.482c0-1.289.784-2.139 1.985-2.139 1.172 0 1.75.674 1.75 1.904V246h1.275v-4.944c0-1.728-.967-2.805-2.637-2.805-1.179 0-1.992.527-2.417 1.348h-.029v-1.216h-1.201V246zm11.5-1.062c-1.311 0-2.168-1.069-2.168-2.776 0-1.706.857-2.79 2.168-2.79 1.326 0 2.212 1.113 2.212 2.79s-.886 2.776-2.212 2.776zm.044 3.933c2.102 0 3.442-1.208 3.442-3.025v-7.463h-1.216v1.282h-.022c-.505-.887-1.399-1.414-2.475-1.414-1.97 0-3.245 1.523-3.245 3.911 0 2.366 1.275 3.897 3.215 3.897 1.07 0 1.971-.542 2.439-1.37h.03v1.201c0 1.135-.799 1.897-2.117 1.897-.952 0-1.707-.461-1.956-1.157h-1.311c.213 1.296 1.539 2.241 3.216 2.241zm-92.465-10.028c.24 0 .432.193.432.433v4.589a.432.432 0 01-.432.433h-4.588a.433.433 0 01-.433-.433v-4.589c0-.24.193-.433.433-.433h4.588zm-.433 4.59v-3.725h-3.723v3.725h3.723z" fill="#fff"/>
  <path d="M212.338 238.843c.24 0 .433.193.433.433v4.589a.433.433 0 01-.433.433h-2.613v.93h2.612c.24 0 .433.195.433.433v2.615h.932l.001-2.615c0-.238.192-.433.432-.433h4.588c.24 0 .433.195.433.433v2.615h.933l-.001-2.615c0-.238.192-.433.432-.433h2.615v-.93h-2.615a.432.432 0 01-.432-.433v-4.589c0-.24.192-.433.432-.433h2.615v-.932l-2.615-.001a.43.43 0 01-.432-.432v-2.613h-.932v2.613c0 .24-.193.432-.433.432h-4.588a.43.43 0 01-.432-.432v-2.613h-.932v2.613c0 .24-.193.432-.433.432h-2.613v.932l2.613.001zm11.663 5.022v1.796c0 .24-.195.433-.433.433h-2.615v2.615a.433.433 0 01-.433.432h-1.797a.434.434 0 01-.433-.432v-2.615h-3.722v2.615a.434.434 0 01-.433.432h-1.797a.434.434 0 01-.433-.432v-2.615h-2.613a.432.432 0 01-.433-.433v-1.796c0-.24.193-.432.433-.432h2.612l.001-3.725h-2.613a.432.432 0 01-.433-.432v-1.797c0-.239.193-.433.433-.433h2.612l.001-2.613c0-.24.195-.433.433-.433h1.797c.238 0 .433.193.433.433v2.612h3.722v-2.612c0-.24.195-.433.433-.433h1.798c.238 0 .433.193.433.433v2.612h2.615c.238 0 .432.194.432.433v1.797a.433.433 0 01-.432.432l-2.616.001v3.725h2.615c.238 0 .432.192.432.432h.001z" fill="#fff"/>
  <path d="M243.203 275.603h2.468c1.363 0 2.183.754 2.183 2.022 0 1.296-.769 2.028-2.124 2.028h-2.527v-4.05zm0 5.215h2.527l2.263 4.182h1.546l-2.447-4.387c1.326-.418 2.124-1.56 2.124-3.032 0-1.905-1.333-3.15-3.369-3.15h-3.962V285h1.318v-4.182zM258.849 285h1.655l-1.853-1.97c.579-.908.872-2.08.872-3.692v-.322h-1.216v.315c0 1.304-.161 2.168-.506 2.813l-2.614-2.82c1.611-.85 2.263-1.634 2.263-2.71 0-1.37-1.121-2.359-2.674-2.359-1.523 0-2.666 1.004-2.666 2.344 0 .769.367 1.45 1.311 2.454-.058.022-.19.095-.402.205-1.399.74-2.073 1.692-2.073 2.93 0 1.757 1.457 2.988 3.545 2.988 1.252 0 2.483-.447 3.376-1.238l.982 1.062zm-5.076-4.973a3.73 3.73 0 01.352-.191l2.973 3.26c-.564.6-1.545.981-2.49.981-1.406 0-2.358-.798-2.358-1.977 0-.813.432-1.407 1.523-2.073zm.71-1.443c-.82-.82-1.127-1.333-1.127-1.912 0-.805.593-1.384 1.428-1.384.857 0 1.435.564 1.435 1.37 0 .754-.468 1.281-1.736 1.926zm7.78-4.153V285h3.552c3.142 0 4.988-1.956 4.988-5.288 0-3.325-1.853-5.281-4.988-5.281h-3.552zm1.318 1.187h2.146c2.403 0 3.728 1.465 3.728 4.109 0 2.622-1.333 4.086-3.728 4.086h-2.146v-8.195z" fill="#251A3F"/>
  <path d="M218.724 277.343c.24 0 .432.193.432.433v4.589a.432.432 0 01-.432.433h-4.588a.433.433 0 01-.433-.433v-4.589c0-.24.193-.433.433-.433h4.588zm-.433 4.59v-3.725h-3.723v3.725h3.723z" fill="#000"/>
  <path d="M212.338 277.343c.24 0 .433.193.433.433v4.589a.433.433 0 01-.433.433h-2.613v.93h2.612c.24 0 .433.195.433.433v2.615h.932l.001-2.615c0-.238.192-.433.432-.433h4.588c.24 0 .433.195.433.433v2.615h.933l-.001-2.615c0-.238.192-.433.432-.433h2.615v-.93h-2.615a.432.432 0 01-.432-.433v-4.589c0-.24.192-.433.432-.433h2.615v-.932l-2.615-.001a.43.43 0 01-.432-.432v-2.613h-.932v2.613c0 .24-.193.432-.433.432h-4.588a.43.43 0 01-.432-.432v-2.613h-.932v2.613c0 .24-.193.432-.433.432h-2.613v.932l2.613.001zm11.663 5.022v1.796c0 .24-.195.433-.433.433h-2.615v2.615a.433.433 0 01-.433.432h-1.797a.434.434 0 01-.433-.432v-2.615h-3.722v2.615a.434.434 0 01-.433.432h-1.797a.434.434 0 01-.433-.432v-2.615h-2.613a.432.432 0 01-.433-.433v-1.796c0-.24.193-.432.433-.432h2.612l.001-3.725h-2.613a.432.432 0 01-.433-.432v-1.797c0-.239.193-.433.433-.433h2.612l.001-2.613c0-.24.195-.433.433-.433h1.797c.238 0 .433.193.433.433v2.612h3.722v-2.612c0-.24.195-.433.433-.433h1.798c.238 0 .433.193.433.433v2.612h2.615c.238 0 .432.194.432.433v1.797a.433.433 0 01-.432.432l-2.616.001v3.725h2.615c.238 0 .432.192.432.432h.001z" fill="#000"/>
  <path d="M241.372 321.166c.125 1.823 1.663 3.01 3.97 3.01 2.366 0 3.904-1.223 3.904-3.179 0-1.494-.872-2.373-3.077-2.856l-1.171-.257c-1.443-.315-2.007-.886-2.007-1.721 0-1.077 1.018-1.721 2.336-1.721 1.377 0 2.293.71 2.41 1.868h1.318c-.058-1.795-1.582-3.055-3.691-3.055-2.19 0-3.728 1.224-3.728 2.967 0 1.501.915 2.461 3.032 2.922l1.172.256c1.465.323 2.051.909 2.051 1.795 0 1.04-1.04 1.794-2.476 1.794-1.516 0-2.571-.688-2.725-1.823h-1.318zm12.767-3.809c1.201 0 2 .908 2.029 2.183h-4.138c.08-1.268.915-2.183 2.109-2.183zm2 4.46c-.213.718-.923 1.209-1.89 1.209-1.37 0-2.226-.96-2.226-2.417v-.073h5.463v-.484c0-2.307-1.267-3.801-3.325-3.801-2.102 0-3.449 1.604-3.449 3.97 0 2.395 1.325 3.911 3.508 3.911 1.662 0 2.951-.982 3.171-2.315h-1.252zm3.128 2.183h1.275v-4.746c0-1.077.644-1.787 1.633-1.787.308 0 .579.036.681.073v-1.238c-.102-.014-.293-.051-.513-.051-.893 0-1.596.535-1.845 1.377h-.03v-1.245h-1.201V324zm11.369-7.617h-1.326l-2.11 6.262h-.029l-2.102-6.262h-1.34l2.805 7.617h1.304l2.798-7.617zm1.561 7.617h1.274v-7.617h-1.274V324zm.637-8.972a.795.795 0 00.798-.799.79.79 0 00-.798-.798.795.795 0 00-.798.798.8.8 0 00.798.799zm9.178 3.852c-.161-1.369-1.296-2.629-3.201-2.629-2.102 0-3.501 1.538-3.501 3.94 0 2.454 1.407 3.941 3.516 3.941 1.729 0 3.003-1.07 3.201-2.586h-1.253c-.219.916-.901 1.465-1.941 1.465-1.318 0-2.226-1.047-2.226-2.82 0-1.728.893-2.819 2.212-2.819 1.12 0 1.765.681 1.948 1.508h1.245zm4.733-1.523c1.201 0 1.999.908 2.028 2.183h-4.138c.081-1.268.916-2.183 2.11-2.183zm1.999 4.46c-.212.718-.923 1.209-1.889 1.209-1.37 0-2.227-.96-2.227-2.417v-.073h5.464v-.484c0-2.307-1.267-3.801-3.325-3.801-2.102 0-3.45 1.604-3.45 3.97 0 2.395 1.326 3.911 3.508 3.911 1.663 0 2.952-.982 3.172-2.315h-1.253z" fill="#251A3F"/>
  <path d="M218.724 316.343c.24 0 .432.193.432.433v4.589a.432.432 0 01-.432.433h-4.588a.433.433 0 01-.433-.433v-4.589c0-.24.193-.433.433-.433h4.588zm-.433 4.59v-3.725h-3.723v3.725h3.723z" fill="#000"/>
  <path d="M212.338 316.343c.24 0 .433.193.433.433v4.589a.433.433 0 01-.433.433h-2.613v.93h2.612c.24 0 .433.195.433.433v2.615h.932l.001-2.615c0-.238.192-.433.432-.433h4.588c.24 0 .433.195.433.433v2.615h.933l-.001-2.615c0-.238.192-.433.432-.433h2.615v-.93h-2.615a.432.432 0 01-.432-.433v-4.589c0-.24.192-.433.432-.433h2.615v-.932l-2.615-.001a.43.43 0 01-.432-.432v-2.613h-.932v2.613c0 .24-.193.432-.433.432h-4.588a.43.43 0 01-.432-.432v-2.613h-.932v2.613c0 .24-.193.432-.433.432h-2.613v.932l2.613.001zm11.663 5.022v1.796c0 .24-.195.433-.433.433h-2.615v2.615a.433.433 0 01-.433.432h-1.797a.434.434 0 01-.433-.432v-2.615h-3.722v2.615a.434.434 0 01-.433.432h-1.797a.434.434 0 01-.433-.432v-2.615h-2.613a.432.432 0 01-.433-.433v-1.796c0-.24.193-.432.433-.432h2.612l.001-3.725h-2.613a.432.432 0 01-.433-.432v-1.797c0-.239.193-.433.433-.433h2.612l.001-2.613c0-.24.195-.433.433-.433h1.797c.238 0 .433.193.433.433v2.612h3.722v-2.612c0-.24.195-.433.433-.433h1.798c.238 0 .433.193.433.433v2.612h2.615c.238 0 .432.194.432.433v1.797a.433.433 0 01-.432.432l-2.616.001v3.725h2.615c.238 0 .432.192.432.432h.001z" fill="#000"/>
  <circle opacity=".8" cx="310" cy="64" r="13" fill="#A9366D"/>
  <circle cx="348" cy="25" r="25" fill="#251A3F"/>
  <defs>
    <filter id="K56-3J_dka" x="393" y="26" width="287" height="298" filterUnits="userSpaceOnUse" color-interpolation-filters="sRGB">
      <feFlood flood-opacity="0" result="BackgroundImageFix"/>
      <feColorMatrix in="SourceAlpha" values="0 0 0 0 0 0 0 0 0 0 0 0 0 0 0 0 0 0 127 0"/>
      <feOffset dy="10"/>
      <feGaussianBlur stdDeviation="10"/>
      <feColorMatrix values="0 0 0 0 0 0 0 0 0 0 0 0 0 0 0 0 0 0 0.1 0"/>
      <feBlend in2="BackgroundImageFix" result="effect1_dropShadow"/>
      <feBlend in="SourceGraphic" in2="effect1_dropShadow" result="shape"/>
    </filter>
    <filter id="K56-3J_dkb" x="161" y="82" width="285" height="298" filterUnits="userSpaceOnUse" color-interpolation-filters="sRGB">
      <feFlood flood-opacity="0" result="BackgroundImageFix"/>
      <feColorMatrix in="SourceAlpha" values="0 0 0 0 0 0 0 0 0 0 0 0 0 0 0 0 0 0 127 0"/>
      <feOffset dy="10"/>
      <feGaussianBlur stdDeviation="10"/>
      <feColorMatrix values="0 0 0 0 0 0 0 0 0 0 0 0 0 0 0 0 0 0 0.1 0"/>
      <feBlend in2="BackgroundImageFix" result="effect1_dropShadow"/>
      <feBlend in="SourceGraphic" in2="effect1_dropShadow" result="shape"/>
    </filter>
  </defs>
</svg>
