<svg fill="none" xmlns="http://www.w3.org/2000/svg" viewBox="0 0 1080 469">
  <g filter="url(#pnNnNzf-ya)">
    <path fill-rule="evenodd" clip-rule="evenodd" d="M20 18a8 8 0 018-8h500a8 8 0 018 8v246a8 8 0 01-8 8H28a8 8 0 01-8-8V18z" fill="#fff"/>
    <path d="M28 10.5h500a7.5 7.5 0 017.5 7.5v246a7.5 7.5 0 01-7.5 7.5H28a7.5 7.5 0 01-7.5-7.5V18a7.5 7.5 0 017.5-7.5z" stroke="#D8D8D8"/>
  </g>
  <path fill="#fff" d="M38 43h480v217H38z"/>
  <path d="M48.762 62h3.193l-4.892-14.092h-3.467L38.703 62h2.96l1.083-3.36h4.951L48.762 62zm-3.614-11.162h.176l1.748 5.527h-3.691l1.767-5.527zm12.69 11.328c1.494 0 2.714-.693 3.29-1.855h.176V62h2.754V47.117h-2.842v5.83h-.166c-.556-1.191-1.757-1.894-3.212-1.894-2.706 0-4.385 2.119-4.385 5.547 0 3.437 1.67 5.566 4.384 5.566zm.966-8.73c1.514 0 2.442 1.22 2.442 3.183 0 1.973-.918 3.174-2.442 3.174-1.523 0-2.431-1.191-2.431-3.184 0-1.972.918-3.174 2.431-3.174zm12.553 8.73c1.494 0 2.715-.693 3.29-1.855h.176V62h2.754V47.117h-2.841v5.83h-.166c-.557-1.191-1.758-1.894-3.213-1.894-2.706 0-4.385 2.119-4.385 5.547 0 3.437 1.67 5.566 4.385 5.566zm.966-8.73c1.514 0 2.442 1.22 2.442 3.183 0 1.973-.918 3.174-2.442 3.174-1.523 0-2.431-1.191-2.431-3.184 0-1.972.918-3.174 2.431-3.174zm13.354-.264c1.328 0 2.187.889 2.246 2.314h-4.59c.097-1.396 1.025-2.314 2.344-2.314zm2.304 5.762c-.302.713-1.074 1.113-2.197 1.113-1.484 0-2.422-.996-2.461-2.598v-.146h7.393v-.87c0-3.417-1.875-5.439-5.05-5.439-3.202 0-5.175 2.168-5.175 5.674 0 3.496 1.934 5.566 5.215 5.566 2.636 0 4.502-1.279 4.922-3.3H87.98zm9.418 3.232c1.494 0 2.715-.693 3.291-1.855h.176V62h2.753V47.117h-2.841v5.83h-.166c-.557-1.191-1.758-1.894-3.213-1.894-2.705 0-4.385 2.119-4.385 5.547 0 3.437 1.67 5.566 4.385 5.566zm.967-8.73c1.513 0 2.441 1.22 2.441 3.183 0 1.973-.918 3.174-2.441 3.174-1.524 0-2.432-1.191-2.432-3.184 0-1.972.918-3.174 2.432-3.174zm15.153-4.766v2.666h-1.68v2.236h1.68v5.518c0 2.1 1.035 2.95 3.652 2.95.547 0 1.075-.06 1.426-.128v-2.168c-.273.03-.469.04-.84.04-.966 0-1.396-.43-1.396-1.368v-4.844h2.236v-2.236h-2.236V48.67h-2.842zm22.865 2.558h-2.822l-1.602 7.725h-.176l-1.894-7.725h-2.715l-1.885 7.725h-.176l-1.601-7.725h-2.881L123.503 62h2.988l1.905-7.432h.175L130.495 62h3.028l2.861-10.772zm6.849 11.006c3.311 0 5.303-2.1 5.303-5.625 0-3.496-2.022-5.615-5.303-5.615s-5.303 2.129-5.303 5.615c0 3.526 1.993 5.625 5.303 5.625zm0-2.324c-1.523 0-2.383-1.201-2.383-3.3 0-2.07.869-3.292 2.383-3.292 1.504 0 2.383 1.221 2.383 3.291 0 2.09-.869 3.301-2.383 3.301zM157 62h2.842v-6.21c0-1.417.81-2.345 2.129-2.345 1.347 0 1.982.782 1.982 2.266V62h2.842v-6.963c0-2.578-1.289-4.043-3.682-4.043-1.592 0-2.685.752-3.183 1.963h-.176v-1.729H157V62zm17.708-8.828c1.329 0 2.188.889 2.247 2.314h-4.59c.097-1.396 1.025-2.314 2.343-2.314zm2.305 5.762c-.303.713-1.074 1.113-2.197 1.113-1.484 0-2.422-.996-2.461-2.598v-.146h7.393v-.87c0-3.417-1.875-5.439-5.049-5.439-3.203 0-5.176 2.168-5.176 5.674 0 3.496 1.934 5.566 5.215 5.566 2.636 0 4.502-1.279 4.922-3.3h-2.647zm20.287-7.706h-2.822l-1.602 7.725h-.176l-1.894-7.725h-2.715l-1.885 7.725h-.176l-1.601-7.725h-2.881L184.419 62h2.988l1.905-7.432h.175L191.411 62h3.028l2.861-10.772zM206.301 62h2.842v-8.428h2.226v-2.236h-2.285v-.889c0-.918.41-1.357 1.524-1.357.371 0 .664.03.849.049v-2.012a8.896 8.896 0 00-1.465-.108c-2.597 0-3.691 1.084-3.691 3.223v1.094h-1.738v2.236h1.738V62zm12.113-8.828c1.328 0 2.187.889 2.246 2.314h-4.59c.098-1.396 1.026-2.314 2.344-2.314zm2.305 5.762c-.303.713-1.075 1.113-2.198 1.113-1.484 0-2.422-.996-2.461-2.598v-.146h7.393v-.87c0-3.417-1.875-5.439-5.049-5.439-3.203 0-5.176 2.168-5.176 5.674 0 3.496 1.934 5.566 5.215 5.566 2.637 0 4.502-1.279 4.922-3.3h-2.646zm9.446 1.093c-.986 0-1.679-.488-1.679-1.289 0-.771.595-1.21 1.816-1.298l2.178-.137v.79c0 1.094-.996 1.934-2.315 1.934zm-.937 2.139c1.396 0 2.568-.586 3.125-1.572h.176V62h2.754v-7.353c0-2.305-1.612-3.653-4.463-3.653-2.705 0-4.532 1.25-4.717 3.242h2.617c.235-.644.918-.996 1.943-.996 1.172 0 1.817.508 1.817 1.407v.878l-2.608.157c-2.675.156-4.169 1.289-4.169 3.242 0 1.973 1.455 3.242 3.525 3.242zm10.15-13.496v2.666h-1.68v2.236h1.68v5.518c0 2.1 1.035 2.95 3.652 2.95.547 0 1.074-.06 1.426-.128v-2.168c-.273.03-.469.04-.84.04-.967 0-1.396-.43-1.396-1.368v-4.844h2.236v-2.236h-2.236V48.67h-2.842zm17.689 2.558h-2.842v6.212c0 1.435-.762 2.324-2.178 2.324-1.308 0-1.982-.762-1.982-2.246v-6.29h-2.842v7.022c0 2.5 1.446 3.984 3.77 3.984 1.631 0 2.636-.712 3.144-1.962h.176V62h2.754V51.228zM260.41 62h2.842v-5.967c0-1.514 1.065-2.431 2.617-2.431.459 0 1.123.088 1.348.175V51.19c-.244-.088-.723-.137-1.113-.137-1.367 0-2.481.82-2.764 1.894h-.176v-1.719h-2.754V62zm13.607-8.828c1.328 0 2.188.889 2.246 2.314h-4.589c.097-1.396 1.025-2.314 2.343-2.314zm2.305 5.762c-.303.713-1.074 1.113-2.197 1.113-1.485 0-2.422-.996-2.461-2.598v-.146h7.392v-.87c0-3.417-1.875-5.439-5.048-5.439-3.204 0-5.176 2.168-5.176 5.674 0 3.496 1.933 5.566 5.215 5.566 2.636 0 4.502-1.279 4.922-3.3h-2.647zm5.316-4.541c0 1.66 1.016 2.656 3.106 3.115l1.953.44c.947.204 1.357.527 1.357 1.054 0 .693-.762 1.152-1.865 1.152-1.133 0-1.826-.42-2.041-1.152h-2.774c.196 2.07 1.914 3.232 4.756 3.232 2.822 0 4.746-1.406 4.746-3.554 0-1.612-.937-2.49-3.027-2.95l-2.022-.439c-.996-.225-1.455-.547-1.455-1.074 0-.684.752-1.143 1.768-1.143 1.055 0 1.709.43 1.855 1.123h2.627c-.156-2.06-1.767-3.203-4.502-3.203-2.685 0-4.482 1.358-4.482 3.399zm18.523-5.723v2.666h-1.68v2.236h1.68v5.518c0 2.1 1.035 2.95 3.652 2.95.547 0 1.074-.06 1.426-.128v-2.168c-.274.03-.469.04-.84.04-.967 0-1.397-.43-1.397-1.368v-4.844h2.237v-2.236h-2.237V48.67h-2.841zm12.64 13.564c3.31 0 5.303-2.1 5.303-5.625 0-3.496-2.022-5.615-5.303-5.615s-5.303 2.129-5.303 5.615c0 3.526 1.992 5.625 5.303 5.625zm0-2.324c-1.524 0-2.383-1.201-2.383-3.3 0-2.07.869-3.292 2.383-3.292 1.504 0 2.383 1.221 2.383 3.291 0 2.09-.869 3.301-2.383 3.301zm18.542 2.324c3.311 0 5.303-2.1 5.303-5.625 0-3.496-2.022-5.615-5.303-5.615s-5.303 2.129-5.303 5.615c0 3.526 1.993 5.625 5.303 5.625zm0-2.324c-1.523 0-2.383-1.201-2.383-3.3 0-2.07.869-3.292 2.383-3.292 1.504 0 2.383 1.221 2.383 3.291 0 2.09-.869 3.301-2.383 3.301zm17.865-8.681h-2.842v6.21c0 1.436-.762 2.325-2.178 2.325-1.308 0-1.982-.762-1.982-2.246v-6.29h-2.842v7.022c0 2.5 1.445 3.984 3.77 3.984 1.631 0 2.636-.712 3.144-1.962h.176V62h2.754V51.228zM352.551 62h2.842v-5.967c0-1.514 1.064-2.431 2.617-2.431.459 0 1.123.088 1.348.175V51.19c-.244-.088-.723-.137-1.113-.137-1.368 0-2.481.82-2.764 1.894h-.176v-1.719h-2.754V62zm21.072-10.947c-1.485 0-2.705.732-3.291 1.943h-.176v-1.768h-2.754v14.346h2.842V60.35h.176c.527 1.142 1.709 1.816 3.252 1.816 2.695 0 4.345-2.08 4.345-5.557 0-3.486-1.67-5.556-4.394-5.556zm-.967 8.74c-1.504 0-2.441-1.201-2.441-3.174 0-1.972.937-3.184 2.451-3.184 1.513 0 2.431 1.202 2.431 3.174 0 1.993-.908 3.184-2.441 3.184zM380.823 62h2.842v-5.967c0-1.514 1.065-2.431 2.617-2.431.459 0 1.124.088 1.348.175V51.19c-.244-.088-.723-.137-1.113-.137-1.367 0-2.481.82-2.764 1.894h-.176v-1.719h-2.754V62zm13.725.234c3.31 0 5.302-2.1 5.302-5.625 0-3.496-2.021-5.615-5.302-5.615-3.282 0-5.303 2.129-5.303 5.615 0 3.526 1.992 5.625 5.303 5.625zm0-2.324c-1.524 0-2.383-1.201-2.383-3.3 0-2.07.869-3.292 2.383-3.292 1.504 0 2.383 1.221 2.383 3.291 0 2.09-.87 3.301-2.383 3.301zm11.976 2.256c1.494 0 2.715-.693 3.291-1.855h.176V62h2.754V47.117h-2.842v5.83h-.166c-.557-1.191-1.758-1.894-3.213-1.894-2.705 0-4.385 2.119-4.385 5.547 0 3.437 1.67 5.566 4.385 5.566zm.967-8.73c1.513 0 2.441 1.22 2.441 3.183 0 1.973-.918 3.174-2.441 3.174-1.524 0-2.432-1.191-2.432-3.184 0-1.972.918-3.174 2.432-3.174zm18.441-2.208h-2.842v6.212c0 1.435-.762 2.324-2.178 2.324-1.308 0-1.982-.762-1.982-2.246v-6.29h-2.842v7.022c0 2.5 1.445 3.984 3.769 3.984 1.631 0 2.637-.712 3.145-1.962h.176V62h2.754V51.228zm12.874 3.8c-.234-2.452-1.943-4.034-4.795-4.034-3.369 0-5.263 2.022-5.263 5.596 0 3.613 1.904 5.644 5.263 5.644 2.803 0 4.561-1.552 4.795-3.965h-2.656c-.215 1.065-.977 1.631-2.139 1.631-1.523 0-2.392-1.162-2.392-3.31 0-2.12.859-3.262 2.392-3.262 1.211 0 1.944.674 2.139 1.7h2.656zm3.627-6.358v2.666h-1.68v2.236h1.68v5.518c0 2.1 1.035 2.95 3.652 2.95.547 0 1.074-.06 1.426-.128v-2.168c-.274.03-.469.04-.84.04-.967 0-1.396-.43-1.396-1.368v-4.844h2.236v-2.236h-2.236V48.67h-2.842z" fill="#251A3F"/>
  <rect x="38" y="86.5" width="479" height="21" rx="10.5" fill="#F1F1F1"/>
  <rect x="38" y="125" width="479" height="21" rx="10.5" fill="#F1F1F1"/>
  <rect x="38" y="163.5" width="326" height="21" rx="10.5" fill="#F1F1F1"/>
  <path d="M108.274 218c2.106 0 3.412-1.094 3.412-2.823 0-1.272-.951-2.256-2.256-2.352v-.123c1.011-.15 1.784-1.059 1.784-2.105 0-1.525-1.142-2.461-3.056-2.461h-4.313V218h4.429zm-2.365-8.285h1.723c.984 0 1.552.472 1.552 1.258 0 .793-.609 1.251-1.723 1.251h-1.552v-2.509zm0 6.706v-2.803h1.791c1.217 0 1.88.479 1.88 1.381 0 .923-.642 1.422-1.832 1.422h-1.839zm11.197-4.601c.93 0 1.531.622 1.572 1.62h-3.213c.069-.977.718-1.62 1.641-1.62zm1.613 4.034c-.212.499-.752.779-1.538.779-1.039 0-1.695-.697-1.722-1.819v-.102h5.174v-.608c0-2.393-1.312-3.808-3.534-3.808-2.242 0-3.623 1.517-3.623 3.972 0 2.447 1.354 3.896 3.651 3.896 1.845 0 3.151-.895 3.445-2.31h-1.853zm4.04 2.146h1.989v-4.348c0-.991.568-1.64 1.49-1.64.944 0 1.388.547 1.388 1.586V218h1.989v-4.874c0-1.805-.902-2.83-2.577-2.83-1.114 0-1.88.526-2.228 1.374h-.123v-1.21h-1.928V218zm9.112-5.325c0 1.162.711 1.859 2.174 2.18l1.367.308c.663.144.95.369.95.738 0 .486-.533.807-1.306.807-.793 0-1.278-.294-1.428-.807h-1.942c.137 1.45 1.34 2.263 3.329 2.263 1.976 0 3.323-.984 3.323-2.488 0-1.128-.657-1.743-2.119-2.065l-1.416-.307c-.697-.158-1.018-.383-1.018-.752 0-.479.526-.8 1.237-.8.739 0 1.197.301 1.299.786h1.839c-.109-1.442-1.237-2.242-3.151-2.242-1.88 0-3.138.95-3.138 2.379zm11.935 5.489c2.317 0 3.712-1.47 3.712-3.937 0-2.448-1.415-3.931-3.712-3.931s-3.712 1.49-3.712 3.931c0 2.467 1.395 3.937 3.712 3.937zm0-1.627c-1.066 0-1.668-.841-1.668-2.31 0-1.45.608-2.304 1.668-2.304 1.053 0 1.668.854 1.668 2.304 0 1.462-.608 2.31-1.668 2.31zm5.831 1.463h1.989v-4.348c0-.991.567-1.64 1.49-1.64.944 0 1.388.547 1.388 1.586V218h1.989v-4.874c0-1.805-.902-2.83-2.577-2.83-1.114 0-1.88.526-2.229 1.374h-.123v-1.21h-1.927V218zm19.919 0h2.235l-3.425-9.864h-2.426L162.515 218h2.071l.759-2.352h3.466l.745 2.352zm-2.53-7.813h.124l1.223 3.869h-2.584l1.237-3.869zm9.03 7.929c1.046 0 1.901-.485 2.304-1.299h.123V218h1.928v-10.418h-1.989v4.081h-.117c-.389-.834-1.23-1.326-2.249-1.326-1.893 0-3.069 1.483-3.069 3.883 0 2.406 1.169 3.896 3.069 3.896zm.677-6.111c1.06 0 1.709.854 1.709 2.228 0 1.381-.642 2.222-1.709 2.222-1.066 0-1.702-.834-1.702-2.228 0-1.381.643-2.222 1.702-2.222zm8.955 4.614c-.691 0-1.176-.342-1.176-.902 0-.54.417-.848 1.271-.909l1.525-.096v.554c0 .765-.697 1.353-1.62 1.353zm-.656 1.497c.977 0 1.797-.41 2.187-1.1h.123V218h1.928v-5.147c0-1.614-1.128-2.557-3.124-2.557-1.894 0-3.172.875-3.302 2.269h1.832c.164-.451.643-.697 1.36-.697.821 0 1.272.356 1.272.985v.615l-1.825.109c-1.873.11-2.919.902-2.919 2.27 0 1.381 1.018 2.269 2.468 2.269zm6.685-.116h1.989v-4.539c0-.841.554-1.449 1.333-1.449.779 0 1.244.458 1.244 1.258V218h1.914v-4.614c0-.8.52-1.374 1.326-1.374.841 0 1.258.444 1.258 1.34V218h1.989v-5.175c0-1.552-.936-2.529-2.44-2.529-1.053 0-1.921.554-2.27 1.394h-.123c-.3-.875-1.025-1.394-2.085-1.394-.991 0-1.777.533-2.085 1.394h-.123v-1.23h-1.927V218zm13.309-5.325c0 1.162.711 1.859 2.174 2.18l1.367.308c.663.144.95.369.95.738 0 .486-.533.807-1.306.807-.793 0-1.278-.294-1.428-.807h-1.942c.137 1.45 1.34 2.263 3.329 2.263 1.976 0 3.323-.984 3.323-2.488 0-1.128-.657-1.743-2.119-2.065l-1.416-.307c-.697-.158-1.018-.383-1.018-.752 0-.479.526-.8 1.237-.8.739 0 1.197.301 1.299.786h1.839c-.109-1.442-1.237-2.242-3.151-2.242-1.88 0-3.138.95-3.138 2.379z" fill="#029D7F"/>
  <path d="M104.289 241h.998l4.519-8.989v-.875h-6.426v.841h5.469v.075l-4.56 8.948zm8.018 0h.896v-4.375c0-1.354.868-2.304 2.262-2.304 1.231 0 1.901.732 1.901 2.119V241h.895v-4.785c0-1.702-.984-2.7-2.556-2.7-1.176 0-2.024.54-2.42 1.449h-.082v-4.259h-.896V241zm15.175-.67c-.991 0-1.709-.533-1.709-1.381 0-.841.602-1.305 1.853-1.394l2.18-.158v.862c0 1.169-1.004 2.071-2.324 2.071zm-.15.793c1.08 0 1.982-.513 2.433-1.388h.082V241h.862v-5.031c0-1.552-1.005-2.454-2.728-2.454-1.524 0-2.666.752-2.837 1.941h.909c.178-.731.903-1.142 1.901-1.142 1.189 0 1.852.582 1.852 1.662v.69l-2.303.15c-1.702.117-2.653.862-2.653 2.147 0 1.319 1.039 2.16 2.482 2.16zm9.05-.998c-1.47 0-2.358-1.155-2.358-2.898 0-1.75.888-2.906 2.358-2.906 1.456 0 2.393 1.169 2.393 2.919 0 1.743-.916 2.885-2.393 2.885zm.075 3.637c1.935 0 3.2-1.053 3.2-2.653v-7.471h-.862v1.456h-.082c-.403-.957-1.381-1.579-2.509-1.579-1.886 0-3.103 1.504-3.103 3.712s1.21 3.698 3.103 3.698c1.128 0 2.031-.568 2.468-1.538h.089v1.654c0 1.189-.882 1.935-2.304 1.935-1.121 0-1.886-.438-2.05-1.115h-.951c.192 1.149 1.313 1.901 3.001 1.901zm8.969-2.639c2.057 0 3.349-1.456 3.349-3.808 0-2.351-1.292-3.8-3.349-3.8-2.058 0-3.343 1.449-3.343 3.8 0 2.352 1.285 3.808 3.343 3.808zm0-.813c-1.518 0-2.42-1.128-2.42-2.995 0-1.866.902-2.994 2.42-2.994 1.517 0 2.42 1.128 2.42 2.994 0 1.867-.903 2.995-2.42 2.995zm12.051-1.32c1.005 0 1.804-.8 1.804-1.811a1.79 1.79 0 00-1.804-1.805 1.792 1.792 0 00-1.812 1.805c0 1.011.8 1.811 1.812 1.811zm12.604 2.01h.766l.588-2.864h1.9l.144-.759h-1.894l.547-2.7h1.839l.144-.752h-1.826l.581-2.803h-.758l-.588 2.803h-2.454l.567-2.803h-.752l-.588 2.803h-1.77l-.151.752h1.771l-.54 2.7h-1.709l-.151.759h1.696l-.581 2.864h.752l.587-2.864h2.468l-.588 2.864zm-1.722-3.609l.547-2.721h2.467l-.54 2.721h-2.474zm7.724-6.255V241h2.064v-3.062h1.949c2.078 0 3.52-1.361 3.52-3.391 0-2.051-1.388-3.411-3.418-3.411h-4.115zm2.064 1.695h1.504c1.19 0 1.866.602 1.866 1.723 0 1.107-.69 1.709-1.873 1.709h-1.497v-3.432zM185.81 241h1.989v-4.177c0-1.059.745-1.702 1.832-1.702.322 0 .786.062.944.123v-1.811c-.171-.062-.506-.096-.78-.096-.957 0-1.736.574-1.934 1.326h-.123v-1.203h-1.928V241zm9.755.164c2.317 0 3.711-1.47 3.711-3.937 0-2.448-1.415-3.931-3.711-3.931-2.297 0-3.712 1.49-3.712 3.931 0 2.467 1.394 3.937 3.712 3.937zm0-1.627c-1.067 0-1.668-.841-1.668-2.31 0-1.45.608-2.304 1.668-2.304 1.052 0 1.667.854 1.667 2.304 0 1.462-.608 2.31-1.667 2.31zm8.53 1.579c1.046 0 1.901-.485 2.304-1.299h.123V241h1.928v-10.418h-1.989v4.081h-.117c-.389-.834-1.23-1.326-2.249-1.326-1.893 0-3.069 1.483-3.069 3.883 0 2.406 1.169 3.896 3.069 3.896zm.677-6.111c1.06 0 1.709.854 1.709 2.228 0 1.381-.642 2.222-1.709 2.222-1.066 0-1.702-.834-1.702-2.228 0-1.381.643-2.222 1.702-2.222zm13.056-1.545h-1.989v4.348c0 1.004-.533 1.627-1.524 1.627-.916 0-1.388-.534-1.388-1.573v-4.402h-1.989v4.915c0 1.75 1.011 2.789 2.638 2.789 1.142 0 1.846-.499 2.202-1.374h.123V241h1.927v-7.54zm9.16 2.659c-.164-1.716-1.36-2.823-3.356-2.823-2.359 0-3.685 1.415-3.685 3.917 0 2.529 1.333 3.951 3.685 3.951 1.962 0 3.192-1.087 3.356-2.775h-1.859c-.151.745-.684 1.141-1.497 1.141-1.067 0-1.675-.813-1.675-2.317 0-1.484.601-2.283 1.675-2.283.847 0 1.36.471 1.497 1.189h1.859zm2.686-4.45v1.866h-1.176v1.566h1.176v3.862c0 1.47.725 2.064 2.557 2.064.383 0 .752-.041.998-.089v-1.517c-.191.02-.328.027-.588.027-.677 0-.978-.301-.978-.957v-3.39h1.566v-1.566h-1.566v-1.866h-1.989z" fill="#251A3F"/>
  <path d="M63 250.031c14.06 0 25.5-10.841 25.5-24.266C88.5 212.34 77.06 201.5 63 201.5s-25.5 10.84-25.5 24.265 11.44 24.266 25.5 24.266z" fill="#3679A9" stroke="#E0E0E0"/>
  <path d="M56.793 233c3.017 0 4.922-1.592 4.922-4.062 0-1.876-1.504-3.292-3.408-3.379v-.079c1.562-.214 2.753-1.474 2.753-3.056 0-2.178-1.67-3.516-4.443-3.516h-6.552V233h6.728zm-3.145-11.553h2.022c1.201 0 1.904.586 1.904 1.573 0 1.015-.781 1.63-2.08 1.63h-1.846v-3.203zm0 9.014v-3.633h2.11c1.474 0 2.314.645 2.314 1.797 0 1.191-.82 1.836-2.295 1.836h-2.129zM72.988 233h3.808l-4.736-14.092h-4.385L62.94 233h3.652l.899-3.096h4.61l.888 3.096zm-3.233-11.104h.079l1.562 5.43h-3.213l1.572-5.43z" fill="#fff"/>
  <path fill-rule="evenodd" clip-rule="evenodd" d="M414 209c-9.389 0-17 7.611-17 17s7.611 17 17 17h86c9.389 0 17-7.611 17-17s-7.611-17-17-17h-86z" fill="#fff" stroke="#251A3F"/>
  <path d="M501 226.001a.875.875 0 01-.191.516l-3.765 4.25c-.255.244-.744.344-1.029.063-.281-.278-.273-.816.007-1.094l2.647-2.985h-8.963c-.39 0-.706-.335-.706-.75 0-.414.316-.75.706-.75h8.963l-2.647-2.984c-.241-.257-.285-.813-.007-1.094.278-.281.784-.191 1.029.062l3.765 4.251a.746.746 0 01.191.515z" fill="#000"/>
  <path d="M420.913 220.343v1.374h-.205c-.93.013-1.673.269-2.229.765-.555.497-.886 1.201-.991 2.113.533-.561 1.215-.841 2.044-.841.88 0 1.572.31 2.078.93.511.619.766 1.419.766 2.399 0 1.012-.299 1.832-.896 2.461-.592.624-1.371.936-2.337.936-.994 0-1.801-.366-2.42-1.1-.616-.734-.923-1.695-.923-2.885v-.567c0-1.746.424-3.113 1.271-4.102.853-.989 2.076-1.483 3.671-1.483h.171zm-1.784 4.751a1.802 1.802 0 00-1.668 1.128v.506c0 .738.155 1.326.465 1.763.31.433.711.65 1.203.65.492 0 .882-.185 1.169-.554.287-.369.431-.855.431-1.456 0-.602-.146-1.092-.438-1.47a1.395 1.395 0 00-1.162-.567zm12.967 1.415h-1.928v3.835h-1.729v-9.953h3.5c1.148 0 2.034.257 2.659.772.624.515.936 1.26.936 2.235 0 .666-.161 1.224-.485 1.675-.319.447-.766.791-1.34 1.032l2.236 4.15v.089h-1.853l-1.996-3.835zm-1.928-1.388h1.777c.584 0 1.04-.146 1.368-.437.328-.297.492-.7.492-1.21 0-.534-.153-.946-.458-1.238-.301-.291-.752-.442-1.354-.451h-1.825v3.336zm10.595 5.359c-1.052 0-1.907-.33-2.563-.991-.652-.665-.978-1.549-.978-2.652v-.205c0-.738.142-1.397.424-1.976a3.267 3.267 0 011.203-1.36 3.17 3.17 0 011.723-.485c1.007 0 1.784.321 2.331.963.552.643.827 1.552.827 2.728v.67h-4.833c.05.611.253 1.094.609 1.449.36.356.811.533 1.353.533.761 0 1.381-.307 1.86-.923l.895.855a3.012 3.012 0 01-1.189 1.032c-.493.242-1.046.362-1.662.362zm-.198-6.336c-.456 0-.825.159-1.107.478-.278.319-.456.763-.533 1.333h3.165v-.123c-.037-.556-.185-.975-.445-1.258-.259-.287-.62-.43-1.08-.43zm11.429 2.577c0 1.144-.259 2.057-.779 2.741-.519.679-1.217 1.018-2.092 1.018-.811 0-1.46-.266-1.948-.799v3.507h-1.661v-10.241h1.531l.069.752c.487-.592 1.15-.888 1.989-.888.902 0 1.609.337 2.119 1.011.515.67.772 1.602.772 2.796v.103zm-1.654-.144c0-.738-.148-1.324-.444-1.757-.292-.433-.711-.649-1.258-.649-.679 0-1.167.28-1.463.841v3.281c.301.574.793.861 1.477.861.528 0 .941-.212 1.237-.635.301-.429.451-1.076.451-1.942zm5.325 3.767h-1.661v-10.5h1.661v10.5zm4.074 0h-1.661v-7.397h1.661v7.397zm-1.764-9.318c0-.255.08-.467.239-.635.164-.169.397-.253.698-.253.3 0 .533.084.697.253.164.168.246.38.246.635a.865.865 0 01-.246.629c-.164.164-.397.246-.697.246-.301 0-.534-.082-.698-.246a.88.88 0 01-.239-.629zm7.328 9.454c-1.053 0-1.907-.33-2.564-.991-.651-.665-.977-1.549-.977-2.652v-.205c0-.738.141-1.397.424-1.976a3.267 3.267 0 011.203-1.36 3.167 3.167 0 011.722-.485c1.008 0 1.785.321 2.332.963.551.643.827 1.552.827 2.728v.67h-4.833c.05.611.253 1.094.608 1.449.36.356.811.533 1.354.533.761 0 1.38-.307 1.859-.923l.895.855a3.005 3.005 0 01-1.189 1.032c-.492.242-1.046.362-1.661.362zm-.198-6.336c-.456 0-.825.159-1.108.478-.278.319-.456.763-.533 1.333h3.165v-.123c-.036-.556-.185-.975-.444-1.258-.26-.287-.62-.43-1.08-.43zm9.098 4.19a.752.752 0 00-.369-.677c-.242-.155-.645-.291-1.21-.41-.565-.118-1.037-.269-1.415-.451-.83-.401-1.244-.982-1.244-1.743 0-.638.268-1.171.806-1.6.538-.428 1.222-.642 2.051-.642.884 0 1.597.218 2.14.656.547.437.82 1.005.82 1.702h-1.661c0-.319-.119-.583-.356-.793-.237-.214-.551-.321-.943-.321-.365 0-.663.084-.896.253a.8.8 0 00-.341.676c0 .256.107.454.321.595.214.141.647.285 1.299.431.651.141 1.162.312 1.531.512.374.196.649.433.827.711.182.278.274.616.274 1.012 0 .665-.276 1.206-.828 1.62-.551.41-1.273.615-2.167.615-.606 0-1.146-.109-1.62-.328-.474-.218-.843-.519-1.107-.902a2.138 2.138 0 01-.397-1.237h1.614c.023.392.171.695.444.909.274.21.636.314 1.087.314.437 0 .77-.082.998-.246a.78.78 0 00.342-.656z" fill="#251A3F"/>
  <g filter="url(#pnNnNzf-yb)">
    <path fill-rule="evenodd" clip-rule="evenodd" d="M508 59a8 8 0 018-8h500a8 8 0 018 8v246a8 8 0 01-8 8H516a8 8 0 01-8-8V59z" fill="#fff"/>
    <path d="M516 51.5h500c4.14 0 7.5 3.358 7.5 7.5v246c0 4.142-3.36 7.5-7.5 7.5H516a7.5 7.5 0 01-7.5-7.5V59a7.5 7.5 0 017.5-7.5z" stroke="#D8D8D8"/>
  </g>
  <path fill="#fff" d="M526 84h480v217H526z"/>
  <path d="M542.631 103V88.908h-3.467l-3.906 9.512h-.176l-3.896-9.512h-3.477V103h2.734v-9.424h.157l3.593 8.662h1.963l3.584-8.662h.156V103h2.735zm8.285-8.828c1.328 0 2.187.889 2.246 2.314h-4.59c.098-1.396 1.025-2.314 2.344-2.314zm2.304 5.762c-.302.712-1.074 1.113-2.197 1.113-1.484 0-2.422-.996-2.461-2.598v-.146h7.393v-.87c0-3.417-1.875-5.439-5.049-5.439-3.203 0-5.176 2.168-5.176 5.674 0 3.496 1.934 5.566 5.215 5.566 2.637 0 4.502-1.279 4.922-3.3h-2.647zm10.219-5.762c1.328 0 2.187.889 2.246 2.314h-4.59c.098-1.396 1.025-2.314 2.344-2.314zm2.304 5.762c-.302.712-1.074 1.113-2.197 1.113-1.484 0-2.422-.996-2.461-2.598v-.146h7.393v-.87c0-3.417-1.875-5.439-5.049-5.439-3.203 0-5.176 2.168-5.176 5.674 0 3.496 1.934 5.566 5.215 5.566 2.637 0 4.502-1.279 4.922-3.3h-2.647zm6.371-10.264v2.666h-1.68v2.236h1.68v5.518c0 2.099 1.035 2.949 3.652 2.949.547 0 1.075-.059 1.426-.127v-2.168a6.987 6.987 0 01-.84.039c-.966 0-1.396-.429-1.396-1.367v-4.844h2.236v-2.236h-2.236V89.67h-2.842zm18.366 13.564c3.311 0 5.303-2.099 5.303-5.625 0-3.496-2.021-5.615-5.303-5.615-3.281 0-5.302 2.129-5.302 5.615 0 3.526 1.992 5.625 5.302 5.625zm0-2.324c-1.523 0-2.382-1.201-2.382-3.3 0-2.07.869-3.292 2.382-3.292 1.504 0 2.383 1.221 2.383 3.291 0 2.09-.869 3.301-2.383 3.301zm17.865-8.681h-2.842v6.21c0 1.436-.761 2.325-2.177 2.325-1.309 0-1.983-.762-1.983-2.246v-6.29h-2.842v7.022c0 2.5 1.446 3.984 3.77 3.984 1.631 0 2.637-.713 3.145-1.963h.175V103h2.754V92.228zM611.689 103h2.841v-5.967c0-1.514 1.065-2.431 2.618-2.431.459 0 1.123.087 1.347.175V92.19c-.244-.087-.722-.136-1.113-.136-1.367 0-2.481.82-2.764 1.894h-.176v-1.719h-2.753V103zm14.85 0h2.842v-6.21c0-1.417.811-2.345 2.129-2.345 1.348 0 1.982.782 1.982 2.266V103h2.842v-6.963c0-2.578-1.289-4.043-3.681-4.043-1.592 0-2.686.752-3.184 1.963h-.176v-1.728h-2.754V103zm17.709-8.828c1.328 0 2.187.889 2.246 2.314h-4.59c.098-1.396 1.026-2.314 2.344-2.314zm2.305 5.762c-.303.712-1.075 1.113-2.198 1.113-1.484 0-2.422-.996-2.461-2.598v-.146h7.393v-.87c0-3.417-1.875-5.439-5.049-5.439-3.203 0-5.176 2.168-5.176 5.674 0 3.496 1.934 5.566 5.215 5.566 2.637 0 4.502-1.279 4.922-3.3h-2.646zm20.286-7.706h-2.822l-1.601 7.725h-.176l-1.895-7.725h-2.715l-1.884 7.725h-.176l-1.602-7.725h-2.881L653.958 103h2.989l1.904-7.432h.176l1.924 7.432h3.027l2.861-10.772zm8.982-2.558v2.666h-1.68v2.236h1.68v5.518c0 2.099 1.035 2.949 3.652 2.949.547 0 1.075-.059 1.426-.127v-2.168a6.987 6.987 0 01-.84.039c-.967 0-1.396-.429-1.396-1.367v-4.844h2.236v-2.236h-2.236V89.67h-2.842zm12.523 4.502c1.328 0 2.187.889 2.246 2.314H686c.098-1.396 1.026-2.314 2.344-2.314zm2.305 5.762c-.303.712-1.075 1.113-2.198 1.113-1.484 0-2.421-.996-2.461-2.598v-.146h7.393v-.87c0-3.417-1.875-5.439-5.049-5.439-3.203 0-5.176 2.168-5.176 5.674 0 3.496 1.934 5.566 5.215 5.566 2.637 0 4.502-1.279 4.922-3.3h-2.646zm9.447 1.093c-.987 0-1.68-.488-1.68-1.289 0-.771.596-1.21 1.816-1.299l2.178-.136v.79c0 1.095-.996 1.934-2.314 1.934zm-.938 2.139c1.397 0 2.568-.586 3.125-1.572h.176V103h2.754v-7.353c0-2.305-1.612-3.653-4.463-3.653-2.705 0-4.531 1.25-4.717 3.242h2.617c.235-.644.918-.996 1.944-.996 1.171 0 1.816.508 1.816 1.407v.878l-2.607.157c-2.676.156-4.17 1.289-4.17 3.242 0 1.972 1.455 3.242 3.525 3.242zm9.339-.166h2.842v-6.484c0-1.202.791-2.07 1.905-2.07 1.113 0 1.777.654 1.777 1.796V103h2.734v-6.592c0-1.142.742-1.963 1.895-1.963 1.201 0 1.797.635 1.797 1.914V103h2.841v-7.393c0-2.216-1.337-3.613-3.486-3.613-1.504 0-2.744.791-3.242 1.992h-.176c-.429-1.25-1.465-1.992-2.978-1.992-1.416 0-2.539.762-2.979 1.992h-.176v-1.758h-2.754V103zm24.695 0h2.842v-6.484c0-1.202.791-2.07 1.904-2.07s1.777.654 1.777 1.796V103h2.735v-6.592c0-1.142.742-1.963 1.894-1.963 1.202 0 1.797.635 1.797 1.914V103h2.842v-7.393c0-2.216-1.338-3.613-3.486-3.613-1.504 0-2.744.791-3.243 1.992h-.175c-.43-1.25-1.465-1.992-2.979-1.992-1.416 0-2.539.762-2.978 1.992h-.176v-1.758h-2.754V103zm23.705-8.828c1.328 0 2.187.889 2.246 2.314h-4.59c.098-1.396 1.025-2.314 2.344-2.314zm2.304 5.762c-.302.712-1.074 1.113-2.197 1.113-1.484 0-2.422-.996-2.461-2.598v-.146h7.393v-.87c0-3.417-1.875-5.439-5.049-5.439-3.203 0-5.176 2.168-5.176 5.674 0 3.496 1.934 5.566 5.215 5.566 2.637 0 4.502-1.279 4.922-3.3h-2.647zm5.56 3.066h2.842v-6.484c0-1.202.791-2.07 1.905-2.07 1.113 0 1.777.654 1.777 1.796V103h2.734v-6.592c0-1.142.742-1.963 1.895-1.963 1.201 0 1.797.635 1.797 1.914V103h2.842v-7.393c0-2.216-1.338-3.613-3.487-3.613-1.504 0-2.744.791-3.242 1.992h-.176c-.429-1.25-1.465-1.992-2.978-1.992-1.416 0-2.539.762-2.979 1.992h-.176v-1.758h-2.754V103zm25.395.166c2.705 0 4.365-2.1 4.365-5.557 0-3.476-1.641-5.556-4.365-5.556-1.475 0-2.686.713-3.233 1.894h-.176v-5.83h-2.841V103h2.754v-1.689h.175c.576 1.171 1.797 1.855 3.321 1.855zm-.987-8.73c1.504 0 2.432 1.21 2.432 3.173 0 1.973-.918 3.184-2.432 3.184-1.504 0-2.441-1.22-2.451-3.174.01-1.963.957-3.183 2.451-3.183zm12.816-.264c1.328 0 2.188.889 2.246 2.314h-4.589c.097-1.396 1.025-2.314 2.343-2.314zm2.305 5.762c-.303.712-1.074 1.113-2.197 1.113-1.485 0-2.422-.996-2.461-2.598v-.146h7.392v-.87c0-3.417-1.875-5.439-5.048-5.439-3.204 0-5.176 2.168-5.176 5.674 0 3.496 1.933 5.566 5.215 5.566 2.636 0 4.502-1.279 4.921-3.3h-2.646zm5.56 3.066h2.842v-5.967c0-1.514 1.064-2.431 2.617-2.431.459 0 1.123.087 1.348.175V92.19c-.244-.087-.723-.136-1.114-.136-1.367 0-2.48.82-2.763 1.894h-.176v-1.719h-2.754V103zm9.779-14.092l.254 9.453h2.607l.264-9.453h-3.125zm1.563 14.385c1.103 0 1.777-.635 1.777-1.66 0-1.035-.674-1.67-1.777-1.67-1.094 0-1.778.635-1.778 1.67 0 1.025.684 1.66 1.778 1.66z" fill="#251A3F"/>
  <rect x="526" y="127.5" width="479" height="21" rx="10.5" fill="#F1F1F1"/>
  <rect x="526" y="166" width="479" height="21" rx="10.5" fill="#F1F1F1"/>
  <rect x="526" y="204.5" width="326" height="21" rx="10.5" fill="#F1F1F1"/>
  <path d="M596.274 259c2.106 0 3.412-1.094 3.412-2.823 0-1.272-.951-2.256-2.256-2.352v-.123c1.011-.15 1.784-1.059 1.784-2.105 0-1.525-1.142-2.461-3.056-2.461h-4.313V259h4.429zm-2.365-8.285h1.723c.984 0 1.552.472 1.552 1.258 0 .793-.609 1.251-1.723 1.251h-1.552v-2.509zm0 6.706v-2.803h1.791c1.217 0 1.88.479 1.88 1.381 0 .923-.642 1.422-1.832 1.422h-1.839zm11.197-4.601c.93 0 1.531.622 1.572 1.62h-3.213c.069-.977.718-1.62 1.641-1.62zm1.613 4.034c-.212.499-.752.779-1.538.779-1.039 0-1.695-.697-1.722-1.819v-.102h5.174v-.608c0-2.393-1.312-3.808-3.534-3.808-2.242 0-3.623 1.517-3.623 3.972 0 2.447 1.354 3.896 3.651 3.896 1.845 0 3.151-.895 3.445-2.31h-1.853zm4.04 2.146h1.989v-4.348c0-.991.568-1.64 1.49-1.64.944 0 1.388.547 1.388 1.586V259h1.989v-4.874c0-1.805-.902-2.83-2.577-2.83-1.114 0-1.88.526-2.228 1.374h-.123v-1.21h-1.928V259zm9.112-5.325c0 1.162.711 1.859 2.174 2.18l1.367.308c.663.144.95.369.95.738 0 .486-.533.807-1.306.807-.793 0-1.278-.294-1.428-.807h-1.942c.137 1.45 1.34 2.263 3.329 2.263 1.976 0 3.323-.984 3.323-2.488 0-1.128-.657-1.743-2.119-2.065l-1.416-.307c-.697-.158-1.018-.383-1.018-.752 0-.479.526-.8 1.237-.8.739 0 1.197.301 1.299.786h1.839c-.109-1.442-1.237-2.242-3.151-2.242-1.88 0-3.138.95-3.138 2.379zm11.935 5.489c2.317 0 3.712-1.47 3.712-3.937 0-2.448-1.415-3.931-3.712-3.931s-3.712 1.49-3.712 3.931c0 2.467 1.395 3.937 3.712 3.937zm0-1.627c-1.066 0-1.668-.841-1.668-2.31 0-1.45.608-2.304 1.668-2.304 1.053 0 1.668.854 1.668 2.304 0 1.462-.608 2.31-1.668 2.31zm5.831 1.463h1.989v-4.348c0-.991.567-1.64 1.49-1.64.944 0 1.388.547 1.388 1.586V259h1.989v-4.874c0-1.805-.902-2.83-2.577-2.83-1.114 0-1.88.526-2.229 1.374h-.123v-1.21h-1.927V259zm19.919 0h2.235l-3.425-9.864h-2.426L650.515 259h2.071l.759-2.352h3.466l.745 2.352zm-2.53-7.813h.124l1.223 3.869h-2.584l1.237-3.869zm9.03 7.929c1.046 0 1.901-.485 2.304-1.299h.123V259h1.928v-10.418h-1.989v4.081h-.117c-.389-.834-1.23-1.326-2.249-1.326-1.893 0-3.069 1.483-3.069 3.883 0 2.406 1.169 3.896 3.069 3.896zm.677-6.111c1.06 0 1.709.854 1.709 2.228 0 1.381-.642 2.222-1.709 2.222-1.066 0-1.702-.834-1.702-2.228 0-1.381.643-2.222 1.702-2.222zm8.955 4.614c-.691 0-1.176-.342-1.176-.902 0-.54.417-.848 1.271-.909l1.525-.096v.554c0 .765-.697 1.353-1.62 1.353zm-.656 1.497c.977 0 1.797-.41 2.187-1.1h.123V259h1.928v-5.147c0-1.614-1.128-2.557-3.124-2.557-1.894 0-3.172.875-3.302 2.269h1.832c.164-.451.643-.697 1.36-.697.821 0 1.272.356 1.272.985v.615l-1.825.109c-1.873.11-2.919.902-2.919 2.27 0 1.381 1.018 2.269 2.468 2.269zm6.685-.116h1.989v-4.539c0-.841.554-1.449 1.333-1.449.779 0 1.244.458 1.244 1.258V259h1.914v-4.614c0-.8.52-1.374 1.326-1.374.841 0 1.258.444 1.258 1.34V259h1.989v-5.175c0-1.552-.936-2.529-2.44-2.529-1.053 0-1.921.554-2.27 1.394h-.123c-.3-.875-1.025-1.394-2.085-1.394-.991 0-1.777.533-2.085 1.394h-.123v-1.23h-1.927V259zm13.309-5.325c0 1.162.711 1.859 2.174 2.18l1.367.308c.663.144.95.369.95.738 0 .486-.533.807-1.306.807-.793 0-1.278-.294-1.428-.807h-1.942c.137 1.45 1.34 2.263 3.329 2.263 1.976 0 3.323-.984 3.323-2.488 0-1.128-.657-1.743-2.119-2.065l-1.416-.307c-.697-.158-1.018-.383-1.018-.752 0-.479.526-.8 1.237-.8.739 0 1.197.301 1.299.786h1.839c-.109-1.442-1.237-2.242-3.151-2.242-1.88 0-3.138.95-3.138 2.379z" fill="#029D7F"/>
  <path d="M592.289 282h.998l4.519-8.989v-.875h-6.426v.841h5.469v.075l-4.56 8.948zm8.018 0h.896v-4.375c0-1.354.868-2.304 2.262-2.304 1.231 0 1.901.732 1.901 2.119V282h.895v-4.785c0-1.702-.984-2.7-2.556-2.7-1.176 0-2.024.54-2.42 1.449h-.082v-4.259h-.896V282zm15.175-.67c-.991 0-1.709-.533-1.709-1.381 0-.841.602-1.305 1.853-1.394l2.18-.158v.862c0 1.169-1.004 2.071-2.324 2.071zm-.15.793c1.08 0 1.982-.513 2.433-1.388h.082V282h.862v-5.031c0-1.552-1.005-2.454-2.728-2.454-1.524 0-2.666.752-2.837 1.941h.909c.178-.731.903-1.142 1.901-1.142 1.189 0 1.852.582 1.852 1.662v.69l-2.303.15c-1.702.117-2.653.862-2.653 2.147 0 1.319 1.039 2.16 2.482 2.16zm9.05-.998c-1.47 0-2.358-1.155-2.358-2.898 0-1.75.888-2.906 2.358-2.906 1.456 0 2.393 1.169 2.393 2.919 0 1.743-.916 2.885-2.393 2.885zm.075 3.637c1.935 0 3.2-1.053 3.2-2.653v-7.471h-.862v1.456h-.082c-.403-.957-1.381-1.579-2.509-1.579-1.886 0-3.103 1.504-3.103 3.712s1.21 3.698 3.103 3.698c1.128 0 2.031-.568 2.468-1.538h.089v1.654c0 1.189-.882 1.935-2.304 1.935-1.121 0-1.886-.438-2.05-1.115h-.951c.192 1.149 1.313 1.901 3.001 1.901zm8.969-2.639c2.057 0 3.349-1.456 3.349-3.808 0-2.351-1.292-3.8-3.349-3.8-2.058 0-3.343 1.449-3.343 3.8 0 2.352 1.285 3.808 3.343 3.808zm0-.813c-1.518 0-2.42-1.128-2.42-2.995 0-1.866.902-2.994 2.42-2.994 1.517 0 2.42 1.128 2.42 2.994 0 1.867-.903 2.995-2.42 2.995zm12.051-1.32c1.005 0 1.804-.8 1.804-1.811a1.79 1.79 0 00-1.804-1.805 1.792 1.792 0 00-1.812 1.805c0 1.011.8 1.811 1.812 1.811zm12.604 2.01h.766l.588-2.864h1.9l.144-.759h-1.894l.547-2.7h1.839l.144-.752h-1.826l.581-2.803h-.758l-.588 2.803h-2.454l.567-2.803h-.752l-.588 2.803h-1.77l-.151.752h1.771l-.54 2.7h-1.709l-.151.759h1.696l-.581 2.864h.752l.587-2.864h2.468l-.588 2.864zm-1.722-3.609l.547-2.721h2.467l-.54 2.721h-2.474zm13.534-2.919h.11l1.866 6.528h1.935l2.618-9.864h-2.133l-1.524 6.952h-.11l-1.832-6.952h-1.743l-1.798 6.952h-.109l-1.538-6.952h-2.147l2.611 9.864h1.949l1.845-6.528zm8.634 6.528h1.989v-7.54h-1.989V282zm.998-8.668c.622 0 1.128-.506 1.128-1.142 0-.635-.506-1.134-1.128-1.134a1.13 1.13 0 00-1.128 1.134c0 .636.513 1.142 1.128 1.142zm3.499 8.668h1.99v-4.348c0-.991.567-1.64 1.49-1.64.943 0 1.388.547 1.388 1.586V282h1.989v-4.874c0-1.805-.902-2.83-2.577-2.83-1.114 0-1.88.526-2.229 1.374h-.123v-1.21h-1.928V282zm9.112-5.325c0 1.162.711 1.859 2.174 2.18l1.367.308c.663.144.951.369.951.738 0 .486-.534.807-1.306.807-.793 0-1.278-.294-1.429-.807h-1.941c.137 1.45 1.34 2.263 3.329 2.263 1.975 0 3.322-.984 3.322-2.488 0-1.128-.656-1.743-2.119-2.065l-1.415-.307c-.697-.158-1.019-.383-1.019-.752 0-.479.527-.8 1.238-.8.738 0 1.196.301 1.299.786h1.838c-.109-1.442-1.237-2.242-3.151-2.242-1.88 0-3.138.95-3.138 2.379zM708.35 282h1.518l.52-2.584h1.661l.28-1.518h-1.648l.37-1.791h1.633l.281-1.503h-1.614l.499-2.475h-1.517l-.506 2.475h-1.764l.492-2.475h-1.51l-.506 2.475h-1.579l-.287 1.503h1.579l-.369 1.791h-1.552l-.28 1.518h1.538l-.52 2.584h1.511l.519-2.584h1.778L708.35 282zm-1.08-3.965l.424-2.057h1.969l-.431 2.057h-1.962zM725.262 282v-9.864h-2.427l-2.734 6.658h-.123l-2.728-6.658h-2.433V282h1.914v-6.597h.109l2.516 6.064h1.374l2.509-6.064h.109V282h1.914zm5.947-6.18c.93 0 1.531.622 1.572 1.62h-3.213c.069-.977.718-1.62 1.641-1.62zm1.613 4.034c-.212.499-.752.779-1.538.779-1.039 0-1.695-.697-1.722-1.819v-.102h5.174v-.608c0-2.393-1.312-3.808-3.534-3.808-2.242 0-3.623 1.517-3.623 3.972 0 2.447 1.354 3.896 3.65 3.896 1.846 0 3.152-.895 3.446-2.31h-1.853zm4.607-7.185v1.866h-1.175v1.566h1.175v3.862c0 1.47.725 2.064 2.557 2.064.383 0 .752-.041.998-.089v-1.517c-.191.02-.328.027-.588.027-.677 0-.977-.301-.977-.957v-3.39h1.565v-1.566h-1.565v-1.866h-1.99zm5.708 9.331h1.989v-4.177c0-1.059.745-1.702 1.832-1.702.321 0 .786.062.944.123v-1.811c-.171-.062-.506-.096-.78-.096-.957 0-1.736.574-1.934 1.326h-.123v-1.203h-1.928V282zm6.603 0h1.989v-7.54h-1.989V282zm.998-8.668c.622 0 1.128-.506 1.128-1.142 0-.635-.506-1.134-1.128-1.134a1.13 1.13 0 00-1.128 1.134c0 .636.513 1.142 1.128 1.142zm10.172 3.787c-.165-1.716-1.361-2.823-3.357-2.823-2.358 0-3.684 1.415-3.684 3.917 0 2.529 1.333 3.951 3.684 3.951 1.962 0 3.192-1.087 3.357-2.775h-1.86c-.15.745-.683 1.141-1.497 1.141-1.066 0-1.675-.813-1.675-2.317 0-1.484.602-2.283 1.675-2.283.848 0 1.36.471 1.497 1.189h1.86zm1.879-.444c0 1.162.711 1.859 2.174 2.18l1.367.308c.663.144.95.369.95.738 0 .486-.533.807-1.305.807-.793 0-1.279-.294-1.429-.807h-1.942c.137 1.45 1.34 2.263 3.33 2.263 1.975 0 3.322-.984 3.322-2.488 0-1.128-.656-1.743-2.119-2.065l-1.415-.307c-.698-.158-1.019-.383-1.019-.752 0-.479.526-.8 1.237-.8.739 0 1.197.301 1.299.786h1.839c-.109-1.442-1.237-2.242-3.151-2.242-1.88 0-3.138.95-3.138 2.379z" fill="#251A3F"/>
  <path d="M551 291.031c14.059 0 25.5-10.841 25.5-24.266 0-13.425-11.441-24.265-25.5-24.265s-25.5 10.84-25.5 24.265 11.441 24.266 25.5 24.266z" fill="#3679A9" stroke="#E0E0E0"/>
  <path d="M544.793 274c3.018 0 4.922-1.592 4.922-4.062 0-1.876-1.504-3.292-3.408-3.379v-.079c1.562-.214 2.754-1.474 2.754-3.056 0-2.178-1.67-3.516-4.444-3.516h-6.553V274h6.729zm-3.145-11.553h2.022c1.201 0 1.904.586 1.904 1.573 0 1.015-.781 1.63-2.08 1.63h-1.846v-3.203zm0 9.014v-3.633h2.11c1.474 0 2.314.645 2.314 1.797 0 1.191-.82 1.836-2.295 1.836h-2.129zm19.34 2.539h3.808l-4.736-14.092h-4.385L550.939 274h3.652l.899-3.096h4.609l.889 3.096zm-3.233-11.104h.079l1.562 5.43h-3.213l1.572-5.43z" fill="#fff"/>
  <path fill-rule="evenodd" clip-rule="evenodd" d="M902 250c-9.389 0-17 7.611-17 17s7.611 17 17 17h86c9.389 0 17-7.611 17-17s-7.611-17-17-17h-86z" fill="#fff" stroke="#251A3F"/>
  <path d="M989 267.001a.875.875 0 01-.191.516l-3.765 4.25c-.255.244-.744.344-1.029.063-.281-.278-.273-.816.007-1.094l2.647-2.985h-8.963c-.39 0-.706-.335-.706-.75 0-.414.316-.75.706-.75h8.963l-2.647-2.984c-.241-.257-.285-.813-.007-1.094.278-.281.784-.191 1.029.062l3.765 4.251a.746.746 0 01.191.515z" fill="#000"/>
  <path d="M901.189 266.408l.54-5.017h5.346v1.435h-3.965l-.273 2.379c.46-.264.98-.396 1.559-.396.947 0 1.683.303 2.208.909.528.606.792 1.422.792 2.447 0 1.012-.291 1.818-.875 2.42-.583.597-1.383.895-2.399.895-.911 0-1.668-.257-2.269-.772-.597-.52-.921-1.203-.971-2.051h1.606c.064.483.237.855.52 1.114.282.256.652.383 1.107.383.511 0 .907-.182 1.19-.547.287-.364.43-.861.43-1.49 0-.606-.157-1.084-.471-1.435-.315-.356-.748-.534-1.299-.534a2.11 2.11 0 00-.766.123c-.209.078-.437.233-.683.465l-1.327-.328zm14.697 4.936h-6.692v-1.142l3.315-3.616c.479-.533.818-.978 1.019-1.333.205-.36.308-.72.308-1.08 0-.474-.135-.857-.404-1.149-.264-.291-.622-.437-1.073-.437-.538 0-.955.164-1.251.492-.296.328-.444.777-.444 1.347h-1.661c0-.606.136-1.151.41-1.634a2.869 2.869 0 011.182-1.135c.515-.269 1.108-.403 1.778-.403.966 0 1.727.244 2.283.731.56.483.841 1.153.841 2.01 0 .497-.142 1.019-.424 1.566-.278.542-.736 1.159-1.374 1.852l-2.434 2.605h4.621v1.326zm9.659-3.835h-1.928v3.835h-1.73v-9.953h3.5c1.149 0 2.035.257 2.66.772.624.515.936 1.26.936 2.235 0 .666-.162 1.224-.485 1.675-.319.447-.766.791-1.34 1.032l2.235 4.15v.089h-1.852l-1.996-3.835zm-1.928-1.388h1.777c.584 0 1.039-.146 1.367-.437.329-.297.493-.7.493-1.21 0-.534-.153-.946-.458-1.238-.301-.291-.752-.442-1.354-.451h-1.825v3.336zm10.595 5.359c-1.052 0-1.907-.33-2.563-.991-.652-.665-.978-1.549-.978-2.652v-.205c0-.738.142-1.397.424-1.976a3.267 3.267 0 011.203-1.36 3.168 3.168 0 011.723-.485c1.007 0 1.784.321 2.331.963.551.643.827 1.552.827 2.728v.67h-4.833c.05.611.253 1.094.608 1.449.36.356.812.533 1.354.533.761 0 1.381-.307 1.859-.923l.896.855a3.008 3.008 0 01-1.19 1.032c-.492.242-1.046.362-1.661.362zm-.198-6.336c-.456 0-.825.159-1.107.478-.278.319-.456.763-.534 1.333h3.165v-.123c-.036-.556-.184-.975-.444-1.258-.26-.287-.62-.43-1.08-.43zm11.429 2.577c0 1.144-.259 2.057-.779 2.741-.52.679-1.217 1.018-2.092 1.018-.811 0-1.46-.266-1.948-.799v3.507h-1.661v-10.241h1.531l.068.752c.488-.592 1.151-.888 1.99-.888.902 0 1.608.337 2.119 1.011.515.67.772 1.602.772 2.796v.103zm-1.654-.144c0-.738-.148-1.324-.444-1.757-.292-.433-.711-.649-1.258-.649-.679 0-1.167.28-1.463.841v3.281c.301.574.793.861 1.477.861.528 0 .941-.212 1.237-.635.301-.429.451-1.076.451-1.942zm5.325 3.767h-1.661v-10.5h1.661v10.5zm4.074 0h-1.662v-7.397h1.662v7.397zm-1.764-9.318c0-.255.08-.467.239-.635.164-.169.397-.253.697-.253.301 0 .534.084.698.253.164.168.246.38.246.635a.865.865 0 01-.246.629c-.164.164-.397.246-.698.246-.3 0-.533-.082-.697-.246a.88.88 0 01-.239-.629zm7.328 9.454c-1.053 0-1.908-.33-2.564-.991-.652-.665-.977-1.549-.977-2.652v-.205c0-.738.141-1.397.423-1.976a3.276 3.276 0 011.204-1.36 3.167 3.167 0 011.722-.485c1.007 0 1.784.321 2.331.963.552.643.827 1.552.827 2.728v.67h-4.833c.051.611.253 1.094.609 1.449.36.356.811.533 1.353.533.761 0 1.381-.307 1.86-.923l.895.855a3.005 3.005 0 01-1.189 1.032c-.492.242-1.046.362-1.661.362zm-.199-6.336c-.455 0-.824.159-1.107.478-.278.319-.456.763-.533 1.333h3.165v-.123c-.037-.556-.185-.975-.444-1.258-.26-.287-.62-.43-1.081-.43zm9.099 4.19a.752.752 0 00-.369-.677c-.242-.155-.645-.291-1.21-.41-.566-.118-1.037-.269-1.415-.451-.83-.401-1.245-.982-1.245-1.743 0-.638.269-1.171.807-1.6.538-.428 1.221-.642 2.051-.642.884 0 1.597.218 2.139.656.547.437.821 1.005.821 1.702h-1.661c0-.319-.119-.583-.356-.793-.237-.214-.551-.321-.943-.321-.365 0-.663.084-.896.253a.798.798 0 00-.342.676c0 .256.108.454.322.595.214.141.647.285 1.299.431.651.141 1.162.312 1.531.512.374.196.649.433.827.711.182.278.273.616.273 1.012 0 .665-.275 1.206-.827 1.62-.551.41-1.273.615-2.167.615-.606 0-1.146-.109-1.62-.328-.474-.218-.843-.519-1.107-.902a2.131 2.131 0 01-.397-1.237h1.614c.022.392.17.695.444.909.273.21.636.314 1.087.314.437 0 .77-.082.998-.246a.78.78 0 00.342-.656z" fill="#251A3F"/>
  <g filter="url(#pnNnNzf-yc)">
    <path fill-rule="evenodd" clip-rule="evenodd" d="M253 185a8 8 0 018-8h500a8 8 0 018 8v246a8 8 0 01-8 8H261a8 8 0 01-8-8V185z" fill="#fff"/>
    <path d="M261 177.5h500a7.5 7.5 0 017.5 7.5v246a7.5 7.5 0 01-7.5 7.5H261a7.5 7.5 0 01-7.5-7.5V185a7.5 7.5 0 017.5-7.5z" stroke="#D8D8D8"/>
  </g>
  <path fill="#fff" d="M271 210h480v217H271z"/>
  <path d="M281.01 219.674h.156l2.666 9.326h2.764l3.74-14.092h-3.047l-2.178 9.932h-.156l-2.617-9.932h-2.49l-2.569 9.932h-.156l-2.197-9.932h-3.067L275.59 229h2.783l2.637-9.326zm15.589.498c1.328 0 2.188.889 2.246 2.314h-4.59c.098-1.396 1.026-2.314 2.344-2.314zm2.305 5.762c-.303.712-1.074 1.113-2.197 1.113-1.485 0-2.422-.996-2.461-2.598v-.146h7.392v-.869c0-3.418-1.875-5.44-5.049-5.44-3.203 0-5.175 2.168-5.175 5.674 0 3.496 1.933 5.566 5.215 5.566 2.636 0 4.501-1.279 4.921-3.3h-2.646zm7.298-5.059l1.895-5.967h-2.803l-1.074 5.967h1.982zm14.486-2.646h-2.998l-2.207 8.027h-.176l-2.226-8.027h-3.057l3.74 10.771h3.204l3.72-10.771zm6.625 1.943c1.328 0 2.187.889 2.246 2.314h-4.59c.098-1.396 1.025-2.314 2.344-2.314zm2.305 5.762c-.303.712-1.075 1.113-2.198 1.113-1.484 0-2.422-.996-2.461-2.598v-.146h7.393v-.869c0-3.418-1.875-5.44-5.049-5.44-3.203 0-5.176 2.168-5.176 5.674 0 3.496 1.934 5.566 5.215 5.566 2.637 0 4.502-1.279 4.922-3.3h-2.646zM341.656 229h2.842v-8.428h2.226v-2.236h-2.285v-.889c0-.918.41-1.357 1.523-1.357.372 0 .664.029.85.049v-2.012a8.955 8.955 0 00-1.465-.107c-2.597 0-3.691 1.084-3.691 3.222v1.094h-1.738v2.236h1.738V229zm7.845 0h2.842v-10.771h-2.842V229zm1.426-12.383c.889 0 1.611-.722 1.611-1.631 0-.908-.722-1.621-1.611-1.621-.879 0-1.611.713-1.611 1.621 0 .909.732 1.631 1.611 1.631zM355.716 229h2.841v-6.211c0-1.416.811-2.344 2.129-2.344 1.348 0 1.983.782 1.983 2.266V229h2.841v-6.963c0-2.578-1.289-4.043-3.681-4.043-1.592 0-2.686.752-3.184 1.963h-.176v-1.728h-2.753V229zm13.069 0h2.842v-10.771h-2.842V229zm1.426-12.383c.889 0 1.612-.722 1.612-1.631a1.61 1.61 0 00-1.612-1.621c-.879 0-1.611.713-1.611 1.621 0 .909.732 1.631 1.611 1.631zm4.545 4.776c0 1.66 1.015 2.656 3.105 3.115l1.953.439c.948.205 1.358.528 1.358 1.055 0 .693-.762 1.152-1.865 1.152-1.133 0-1.827-.42-2.041-1.152h-2.774c.195 2.07 1.914 3.232 4.756 3.232 2.822 0 4.746-1.406 4.746-3.554 0-1.612-.937-2.491-3.027-2.95l-2.022-.439c-.996-.225-1.455-.547-1.455-1.074 0-.684.752-1.143 1.768-1.143 1.054 0 1.709.43 1.855 1.123h2.627c-.156-2.06-1.767-3.203-4.502-3.203-2.685 0-4.482 1.358-4.482 3.399zM386.917 229h2.842v-6.182c0-1.396.821-2.343 2.246-2.343 1.289 0 1.983.771 1.983 2.265V229h2.842v-6.934c0-2.587-1.377-4.043-3.692-4.043-1.582 0-2.754.743-3.252 1.973h-.176v-5.879h-2.793V229zm17.826-8.828c1.328 0 2.188.889 2.246 2.314h-4.59c.098-1.396 1.026-2.314 2.344-2.314zm2.305 5.762c-.303.712-1.074 1.113-2.197 1.113-1.485 0-2.422-.996-2.461-2.598v-.146h7.392v-.869c0-3.418-1.875-5.44-5.049-5.44-3.203 0-5.175 2.168-5.175 5.674 0 3.496 1.933 5.566 5.215 5.566 2.636 0 4.501-1.279 4.921-3.3h-2.646zm9.417 3.232c1.495 0 2.715-.693 3.292-1.855h.175V229h2.754v-14.883h-2.842v5.83h-.166c-.556-1.191-1.757-1.894-3.213-1.894-2.705 0-4.384 2.119-4.384 5.547 0 3.437 1.67 5.566 4.384 5.566zm.967-8.73c1.514 0 2.442 1.22 2.442 3.183 0 1.973-.918 3.174-2.442 3.174-1.523 0-2.431-1.191-2.431-3.184 0-1.972.918-3.173 2.431-3.173zM432.605 229h2.842v-8.428h2.227v-2.236h-2.285v-.889c0-.918.41-1.357 1.523-1.357.371 0 .664.029.85.049v-2.012a8.964 8.964 0 00-1.465-.107c-2.598 0-3.692 1.084-3.692 3.222v1.094h-1.738v2.236h1.738V229zm17.572-10.771h-2.842v6.21c0 1.436-.761 2.325-2.177 2.325-1.309 0-1.983-.762-1.983-2.246v-6.289h-2.842v7.021c0 2.5 1.446 3.984 3.77 3.984 1.631 0 2.637-.713 3.144-1.963h.176V229h2.754v-10.771zM453.521 229h2.841v-6.211c0-1.416.811-2.344 2.129-2.344 1.348 0 1.983.782 1.983 2.266V229h2.841v-6.963c0-2.578-1.289-4.043-3.681-4.043-1.592 0-2.686.752-3.184 1.963h-.176v-1.728h-2.753V229zm16.907.166c1.494 0 2.715-.693 3.291-1.855h.176V229h2.754v-14.883h-2.842v5.83h-.166c-.556-1.191-1.758-1.894-3.213-1.894-2.705 0-4.384 2.119-4.384 5.547 0 3.437 1.669 5.566 4.384 5.566zm.967-8.73c1.514 0 2.442 1.22 2.442 3.183 0 1.973-.918 3.174-2.442 3.174-1.523 0-2.432-1.191-2.432-3.184 0-1.972.918-3.173 2.432-3.173zM480.09 229h2.842v-5.967c0-1.513 1.064-2.431 2.617-2.431.459 0 1.123.087 1.348.175v-2.588c-.244-.087-.723-.136-1.114-.136-1.367 0-2.48.82-2.763 1.894h-.176v-1.718h-2.754V229zm12.894-1.973c-.986 0-1.68-.488-1.68-1.289 0-.771.596-1.211 1.817-1.299l2.178-.136v.791c0 1.094-.996 1.933-2.315 1.933zm-.937 2.139c1.396 0 2.568-.586 3.125-1.572h.175V229h2.754v-7.354c0-2.304-1.611-3.652-4.463-3.652-2.705 0-4.531 1.25-4.716 3.242h2.617c.234-.644.918-.996 1.943-.996 1.172 0 1.817.508 1.817 1.406v.879l-2.608.157c-2.676.156-4.17 1.289-4.17 3.242 0 1.972 1.455 3.242 3.526 3.242zm9.359-.166h2.841v-10.771h-2.841V229zm1.425-12.383c.889 0 1.612-.722 1.612-1.631a1.61 1.61 0 00-1.612-1.621c-.879 0-1.611.713-1.611 1.621 0 .909.732 1.631 1.611 1.631zm4.545 4.776c0 1.66 1.016 2.656 3.105 3.115l1.954.439c.947.205 1.357.528 1.357 1.055 0 .693-.762 1.152-1.865 1.152-1.133 0-1.826-.42-2.041-1.152h-2.774c.196 2.07 1.914 3.232 4.756 3.232 2.822 0 4.746-1.406 4.746-3.554 0-1.612-.937-2.491-3.027-2.95l-2.022-.439c-.996-.225-1.455-.547-1.455-1.074 0-.684.752-1.143 1.768-1.143 1.055 0 1.709.43 1.855 1.123h2.627c-.156-2.06-1.767-3.203-4.502-3.203-2.685 0-4.482 1.358-4.482 3.399zM519.46 229h2.841v-10.771h-2.841V229zm1.425-12.383c.889 0 1.612-.722 1.612-1.631a1.61 1.61 0 00-1.612-1.621c-.879 0-1.611.713-1.611 1.621 0 .909.732 1.631 1.611 1.631zM525.674 229h2.842v-6.211c0-1.416.81-2.344 2.129-2.344 1.347 0 1.982.782 1.982 2.266V229h2.842v-6.963c0-2.578-1.289-4.043-3.682-4.043-1.592 0-2.685.752-3.183 1.963h-.176v-1.728h-2.754V229zm17.835-2.402c-1.542 0-2.421-1.182-2.421-3.086 0-1.885.888-3.076 2.421-3.076 1.534 0 2.461 1.191 2.461 3.085 0 1.895-.918 3.077-2.461 3.077zm-.039 6.484c3.252 0 5.313-1.592 5.313-4.121v-10.732h-2.754v1.728h-.176c-.576-1.182-1.816-1.904-3.271-1.904-2.735 0-4.414 2.129-4.414 5.468 0 3.243 1.67 5.323 4.355 5.323 1.514 0 2.647-.606 3.242-1.739h.176v1.993c0 1.211-.889 1.914-2.412 1.914-1.23 0-2.031-.42-2.178-1.084h-2.812c.176 1.894 2.07 3.154 4.931 3.154zm9.232-18.174l.254 9.453h2.608l.263-9.453h-3.125zm1.563 14.385c1.103 0 1.777-.635 1.777-1.66 0-1.035-.674-1.67-1.777-1.67-1.094 0-1.777.635-1.777 1.67 0 1.025.683 1.66 1.777 1.66z" fill="#251A3F"/>
  <rect x="271" y="253.5" width="479" height="21" rx="10.5" fill="#F1F1F1"/>
  <rect x="271" y="292" width="479" height="21" rx="10.5" fill="#F1F1F1"/>
  <rect x="271" y="330.5" width="326" height="21" rx="10.5" fill="#F1F1F1"/>
  <path d="M345.513 380.974v-1.258h-4.143v1.552h2.14l-.007.177c-.041 1.19-.978 1.99-2.331 1.99-1.627 0-2.652-1.286-2.652-3.398 0-2.071.977-3.336 2.57-3.336 1.148 0 1.975.581 2.283 1.579h2.051c-.287-2.051-2.003-3.397-4.334-3.397-2.871 0-4.683 1.996-4.683 5.175 0 3.226 1.798 5.195 4.731 5.195 2.693 0 4.375-1.641 4.375-4.279zm4.928 2.645c-.69 0-1.176-.342-1.176-.902 0-.54.417-.848 1.272-.909l1.524-.096v.554c0 .765-.697 1.353-1.62 1.353zm-.656 1.497c.977 0 1.798-.41 2.187-1.1h.123V385h1.928v-5.147c0-1.614-1.128-2.557-3.124-2.557-1.894 0-3.172.875-3.302 2.269h1.832c.164-.451.643-.697 1.361-.697.82 0 1.271.356 1.271.985v.615l-1.825.109c-1.873.11-2.919.902-2.919 2.27 0 1.381 1.019 2.269 2.468 2.269zm6.685-.116h1.989v-4.177c0-1.059.745-1.702 1.832-1.702.321 0 .786.062.944.123v-1.811c-.171-.062-.506-.096-.78-.096-.957 0-1.736.574-1.934 1.326h-.123v-1.203h-1.928V385zm6.658 0h1.989v-4.177c0-1.059.745-1.702 1.832-1.702.321 0 .786.062.943.123v-1.811c-.171-.062-.506-.096-.779-.096-.957 0-1.736.574-1.935 1.326h-.123v-1.203h-1.927V385zm9.754.164c2.318 0 3.712-1.47 3.712-3.937 0-2.448-1.415-3.931-3.712-3.931s-3.712 1.49-3.712 3.931c0 2.467 1.395 3.937 3.712 3.937zm0-1.627c-1.066 0-1.668-.841-1.668-2.31 0-1.45.609-2.304 1.668-2.304 1.053 0 1.668.854 1.668 2.304 0 1.462-.608 2.31-1.668 2.31zm5.831 1.463h1.989v-4.348c0-.991.567-1.64 1.49-1.64.944 0 1.388.547 1.388 1.586V385h1.989v-4.874c0-1.805-.902-2.83-2.577-2.83-1.114 0-1.88.526-2.228 1.374h-.123v-1.21h-1.928V385zm20.117-1.764h-4.471v-2.399h4.218v-1.634h-4.218v-2.304h4.471v-1.763h-6.535V385h6.535v-1.764zm2.468 1.764h1.989v-4.348c0-.991.567-1.64 1.49-1.64.943 0 1.388.547 1.388 1.586V385h1.989v-4.874c0-1.805-.902-2.83-2.577-2.83-1.114 0-1.88.526-2.229 1.374h-.123v-1.21h-1.927V385zm12.632-1.682c-1.08 0-1.695-.827-1.695-2.16 0-1.319.622-2.153 1.695-2.153s1.723.834 1.723 2.16-.643 2.153-1.723 2.153zm-.027 4.539c2.276 0 3.718-1.114 3.718-2.884v-7.513h-1.927v1.21h-.123c-.404-.827-1.272-1.333-2.29-1.333-1.914 0-3.09 1.49-3.09 3.828 0 2.27 1.169 3.726 3.049 3.726 1.059 0 1.852-.424 2.269-1.217h.123v1.394c0 .848-.622 1.34-1.688 1.34-.862 0-1.422-.294-1.525-.759h-1.969c.124 1.327 1.45 2.208 3.453 2.208zm6.035-8.182c0 1.162.711 1.859 2.174 2.18l1.367.308c.663.144.951.369.951.738 0 .486-.534.807-1.306.807-.793 0-1.278-.294-1.429-.807h-1.941c.137 1.45 1.34 2.263 3.329 2.263 1.975 0 3.322-.984 3.322-2.488 0-1.128-.656-1.743-2.119-2.065l-1.415-.307c-.697-.158-1.019-.383-1.019-.752 0-.479.527-.8 1.238-.8.738 0 1.196.301 1.299.786h1.838c-.109-1.442-1.237-2.242-3.151-2.242-1.88 0-3.138.95-3.138 2.379zm9.119-4.006v1.866h-1.176v1.566h1.176v3.862c0 1.47.725 2.064 2.557 2.064.383 0 .752-.041.998-.089v-1.517c-.192.02-.328.027-.588.027-.677 0-.978-.301-.978-.957v-3.39h1.566v-1.566h-1.566v-1.866h-1.989zm5.708 9.331h1.989v-4.177c0-1.059.745-1.702 1.832-1.702.321 0 .786.062.943.123v-1.811c-.171-.062-.506-.096-.779-.096-.957 0-1.736.574-1.935 1.326h-.123v-1.203h-1.927V385zm9.754.164c2.318 0 3.712-1.47 3.712-3.937 0-2.448-1.415-3.931-3.712-3.931s-3.712 1.49-3.712 3.931c0 2.467 1.395 3.937 3.712 3.937zm0-1.627c-1.066 0-1.668-.841-1.668-2.31 0-1.45.609-2.304 1.668-2.304 1.053 0 1.668.854 1.668 2.304 0 1.462-.608 2.31-1.668 2.31zM450.35 385h1.989v-4.539c0-.841.554-1.449 1.333-1.449.779 0 1.244.458 1.244 1.258V385h1.914v-4.614c0-.8.52-1.374 1.326-1.374.841 0 1.258.444 1.258 1.34V385h1.99v-5.175c0-1.552-.937-2.529-2.441-2.529-1.053 0-1.921.554-2.269 1.394h-.123c-.301-.875-1.026-1.394-2.085-1.394-.992 0-1.778.533-2.085 1.394h-.123v-1.23h-1.928V385z" fill="#029D7F"/>
  <path d="M336.688 400.863h.909c.013-1.251.902-2.112 2.187-2.112 1.265 0 2.106.868 2.106 2.01 0 .895-.39 1.476-1.75 2.939l-3.398 3.644V408h6.351v-.848h-5.038v-.082l2.57-2.679c1.736-1.805 2.222-2.619 2.222-3.719 0-1.572-1.306-2.741-3.008-2.741-1.818 0-3.138 1.223-3.151 2.932zm10.868 2.448h1.176c1.579 0 2.536.765 2.536 2.002 0 1.21-1.046 2.072-2.474 2.072-1.354 0-2.379-.793-2.461-1.894h-.903c.062 1.586 1.463 2.714 3.37 2.714 1.949 0 3.432-1.23 3.432-2.871 0-1.374-.895-2.27-2.263-2.447v-.089c1.094-.274 1.846-1.094 1.853-2.297 0-1.381-1.162-2.57-3.001-2.57-1.873 0-3.097 1.141-3.206 2.686h.916c.089-1.155.971-1.866 2.228-1.866 1.265 0 2.113.834 2.113 1.846 0 1.128-.896 1.907-2.174 1.907h-1.142v.807zm7.198 4.689h.896v-4.519c0-1.203.827-2.16 1.893-2.16 1.019 0 1.695.691 1.695 1.75V408h.896v-4.669c0-1.142.759-2.01 1.894-2.01 1.107 0 1.702.643 1.702 1.846V408h.895v-5.038c0-1.559-.854-2.447-2.331-2.447-1.059 0-1.921.567-2.297 1.449h-.089c-.314-.882-1.052-1.449-2.085-1.449-1.018 0-1.804.547-2.126 1.449h-.088v-1.326h-.855V408zm19.085-.67c-.991 0-1.709-.533-1.709-1.381 0-.841.602-1.305 1.853-1.394l2.18-.158v.862c0 1.169-1.004 2.071-2.324 2.071zm-.15.793c1.08 0 1.982-.513 2.433-1.388h.082V408h.862v-5.031c0-1.552-1.005-2.454-2.728-2.454-1.524 0-2.666.752-2.837 1.941h.91c.177-.731.902-1.142 1.9-1.142 1.189 0 1.852.582 1.852 1.662v.69l-2.303.15c-1.702.117-2.653.862-2.653 2.147 0 1.319 1.039 2.16 2.482 2.16zm9.05-.998c-1.47 0-2.358-1.155-2.358-2.898 0-1.75.888-2.906 2.358-2.906 1.456 0 2.393 1.169 2.393 2.919 0 1.743-.916 2.885-2.393 2.885zm.075 3.637c1.935 0 3.2-1.053 3.2-2.653v-7.471h-.862v1.456h-.082c-.403-.957-1.381-1.579-2.509-1.579-1.886 0-3.103 1.504-3.103 3.712s1.21 3.698 3.103 3.698c1.128 0 2.031-.568 2.468-1.538h.089v1.654c0 1.189-.882 1.935-2.304 1.935-1.121 0-1.886-.438-2.05-1.115h-.951c.192 1.149 1.313 1.901 3.001 1.901zm8.969-2.639c2.057 0 3.349-1.456 3.349-3.808 0-2.351-1.292-3.8-3.349-3.8-2.058 0-3.343 1.449-3.343 3.8 0 2.352 1.285 3.808 3.343 3.808zm0-.813c-1.518 0-2.42-1.128-2.42-2.995 0-1.866.902-2.994 2.42-2.994 1.517 0 2.42 1.128 2.42 2.994 0 1.867-.903 2.995-2.42 2.995zm12.051-1.32c1.005 0 1.804-.8 1.804-1.811a1.79 1.79 0 00-1.804-1.805 1.792 1.792 0 00-1.812 1.805c0 1.011.8 1.811 1.812 1.811zm12.604 2.01h.766l.588-2.864h1.9l.144-.759h-1.894l.547-2.7h1.839l.144-.752h-1.826l.581-2.803h-.758l-.588 2.803h-2.454l.567-2.803h-.752l-.588 2.803h-1.77l-.151.752h1.771l-.54 2.7h-1.709l-.151.759h1.696l-.581 2.864h.752l.587-2.864h2.468l-.588 2.864zm-1.722-3.609l.547-2.721h2.467l-.54 2.721h-2.474zm13.534-2.919h.11l1.866 6.528h1.935l2.618-9.864h-2.133l-1.524 6.952h-.11l-1.832-6.952h-1.743l-1.798 6.952h-.109l-1.538-6.952h-2.147l2.612 9.864h1.948l1.845-6.528zm8.634 6.528h1.989v-7.54h-1.989V408zm.998-8.668c.622 0 1.128-.506 1.128-1.142 0-.635-.506-1.134-1.128-1.134a1.13 1.13 0 00-1.128 1.134c0 .636.513 1.142 1.128 1.142zm3.499 8.668h1.99v-4.348c0-.991.567-1.64 1.49-1.64.943 0 1.388.547 1.388 1.586V408h1.989v-4.874c0-1.805-.902-2.83-2.577-2.83-1.114 0-1.88.526-2.229 1.374h-.123v-1.21h-1.928V408zm9.112-5.325c0 1.162.711 1.859 2.174 2.18l1.367.308c.664.144.951.369.951.738 0 .486-.534.807-1.306.807-.793 0-1.278-.294-1.429-.807h-1.941c.137 1.45 1.34 2.263 3.329 2.263 1.976 0 3.322-.984 3.322-2.488 0-1.128-.656-1.743-2.119-2.065l-1.415-.307c-.697-.158-1.019-.383-1.019-.752 0-.479.527-.8 1.238-.8.738 0 1.196.301 1.299.786h1.838c-.109-1.442-1.237-2.242-3.151-2.242-1.88 0-3.138.95-3.138 2.379z" fill="#251A3F"/>
  <path d="M296 417.031c14.059 0 25.5-10.841 25.5-24.266 0-13.425-11.441-24.265-25.5-24.265s-25.5 10.84-25.5 24.265 11.441 24.266 25.5 24.266z" fill="#A9366D" stroke="#E0E0E0"/>
  <path d="M296.033 394.043v-1.729h-6.035v2.461h2.578l-.01.215c-.097 1.416-1.23 2.373-2.851 2.373-2.061 0-3.389-1.689-3.389-4.482 0-2.744 1.201-4.336 3.233-4.336 1.377 0 2.431.762 2.783 2.012h3.545c-.362-2.871-2.92-4.893-6.338-4.893-4.258 0-6.875 2.695-6.875 7.266 0 4.629 2.617 7.314 6.963 7.314 4.013 0 6.396-2.353 6.396-6.201zm11.928 3.066h-6.075v-2.871h5.713v-2.636h-5.713v-2.803h6.075v-2.891h-9.659V400h9.659v-2.891z" fill="#fff"/>
  <path fill-rule="evenodd" clip-rule="evenodd" d="M647 376c-9.389 0-17 7.611-17 17s7.611 17 17 17h86c9.389 0 17-7.611 17-17s-7.611-17-17-17h-86z" fill="#fff" stroke="#251A3F"/>
  <path d="M734 393.001a.875.875 0 01-.191.516l-3.765 4.25c-.255.244-.744.344-1.029.063-.281-.278-.273-.816.007-1.094l2.647-2.985h-8.963c-.39 0-.706-.335-.706-.75 0-.414.316-.75.706-.75h8.963l-2.647-2.984c-.241-.257-.285-.813-.007-1.094.278-.281.784-.191 1.029.062l3.765 4.251a.746.746 0 01.191.515z" fill="#000"/>
  <path d="M653.913 387.343v1.374h-.205c-.93.013-1.673.269-2.229.765-.555.497-.886 1.201-.991 2.113.533-.561 1.215-.841 2.044-.841.88 0 1.572.31 2.078.93.511.619.766 1.419.766 2.399 0 1.012-.299 1.832-.896 2.461-.592.624-1.371.936-2.337.936-.994 0-1.801-.366-2.42-1.1-.616-.734-.923-1.695-.923-2.885v-.567c0-1.746.424-3.113 1.271-4.102.853-.989 2.076-1.483 3.671-1.483h.171zm-1.784 4.751a1.802 1.802 0 00-1.668 1.128v.506c0 .738.155 1.326.465 1.763.31.433.711.65 1.203.65.492 0 .882-.185 1.169-.554.287-.369.431-.855.431-1.456 0-.602-.146-1.092-.438-1.47a1.395 1.395 0 00-1.162-.567zm12.967 1.415h-1.928v3.835h-1.729v-9.953h3.5c1.148 0 2.034.257 2.659.772.624.515.936 1.26.936 2.235 0 .666-.161 1.224-.485 1.675-.319.447-.766.791-1.34 1.032l2.236 4.15v.089h-1.853l-1.996-3.835zm-1.928-1.388h1.777c.584 0 1.04-.146 1.368-.437.328-.297.492-.7.492-1.21 0-.534-.153-.946-.458-1.238-.301-.291-.752-.442-1.354-.451h-1.825v3.336zm10.595 5.359c-1.052 0-1.907-.33-2.563-.991-.652-.665-.978-1.549-.978-2.652v-.205c0-.738.142-1.397.424-1.976a3.267 3.267 0 011.203-1.36 3.17 3.17 0 011.723-.485c1.007 0 1.784.321 2.331.963.552.643.827 1.552.827 2.728v.67h-4.833c.05.611.253 1.094.609 1.449.36.356.811.533 1.353.533.761 0 1.381-.307 1.86-.923l.895.855a3.012 3.012 0 01-1.189 1.032c-.493.242-1.046.362-1.662.362zm-.198-6.336c-.456 0-.825.159-1.107.478-.278.319-.456.763-.533 1.333h3.165v-.123c-.037-.556-.185-.975-.445-1.258-.259-.287-.62-.43-1.08-.43zm11.429 2.577c0 1.144-.259 2.057-.779 2.741-.519.679-1.217 1.018-2.092 1.018-.811 0-1.46-.266-1.948-.799v3.507h-1.661v-10.241h1.531l.069.752c.487-.592 1.15-.888 1.989-.888.902 0 1.609.337 2.119 1.011.515.67.772 1.602.772 2.796v.103zm-1.654-.144c0-.738-.148-1.324-.444-1.757-.292-.433-.711-.649-1.258-.649-.679 0-1.167.28-1.463.841v3.281c.301.574.793.861 1.477.861.528 0 .941-.212 1.237-.635.301-.429.451-1.076.451-1.942zm5.325 3.767h-1.661v-10.5h1.661v10.5zm4.074 0h-1.661v-7.397h1.661v7.397zm-1.764-9.318c0-.255.08-.467.239-.635.164-.169.397-.253.698-.253.3 0 .533.084.697.253.164.168.246.38.246.635a.865.865 0 01-.246.629c-.164.164-.397.246-.697.246-.301 0-.534-.082-.698-.246a.88.88 0 01-.239-.629zm7.328 9.454c-1.053 0-1.907-.33-2.564-.991-.651-.665-.977-1.549-.977-2.652v-.205c0-.738.141-1.397.424-1.976a3.267 3.267 0 011.203-1.36 3.167 3.167 0 011.722-.485c1.008 0 1.785.321 2.332.963.551.643.827 1.552.827 2.728v.67h-4.833c.05.611.253 1.094.608 1.449.36.356.811.533 1.354.533.761 0 1.38-.307 1.859-.923l.895.855a3.005 3.005 0 01-1.189 1.032c-.492.242-1.046.362-1.661.362zm-.198-6.336c-.456 0-.825.159-1.108.478-.278.319-.456.763-.533 1.333h3.165v-.123c-.036-.556-.185-.975-.444-1.258-.26-.287-.62-.43-1.08-.43zm9.098 4.19a.752.752 0 00-.369-.677c-.242-.155-.645-.291-1.21-.41-.565-.118-1.037-.269-1.415-.451-.83-.401-1.244-.982-1.244-1.743 0-.638.268-1.171.806-1.6.538-.428 1.222-.642 2.051-.642.884 0 1.597.218 2.14.656.547.437.82 1.005.82 1.702h-1.661c0-.319-.119-.583-.356-.793-.237-.214-.551-.321-.943-.321-.365 0-.663.084-.896.253a.8.8 0 00-.341.676c0 .256.107.454.321.595.214.141.647.285 1.299.431.651.141 1.162.312 1.531.512.374.196.649.433.827.711.182.278.274.616.274 1.012 0 .665-.276 1.206-.828 1.62-.551.41-1.273.615-2.167.615-.606 0-1.146-.109-1.62-.328-.474-.218-.843-.519-1.107-.902a2.138 2.138 0 01-.397-1.237h1.614c.023.392.171.695.444.909.274.21.636.314 1.087.314.437 0 .77-.082.998-.246a.78.78 0 00.342-.656z" fill="#251A3F"/>
  <defs>
    <filter id="pnNnNzf-ya" x="0" y="0" width="556" height="302" filterUnits="userSpaceOnUse" color-interpolation-filters="sRGB">
      <feFlood flood-opacity="0" result="BackgroundImageFix"/>
      <feColorMatrix in="SourceAlpha" values="0 0 0 0 0 0 0 0 0 0 0 0 0 0 0 0 0 0 127 0"/>
      <feOffset dy="10"/>
      <feGaussianBlur stdDeviation="10"/>
      <feColorMatrix values="0 0 0 0 0 0 0 0 0 0 0 0 0 0 0 0 0 0 0.1 0"/>
      <feBlend in2="BackgroundImageFix" result="effect1_dropShadow"/>
      <feBlend in="SourceGraphic" in2="effect1_dropShadow" result="shape"/>
    </filter>
    <filter id="pnNnNzf-yb" x="488" y="41" width="556" height="302" filterUnits="userSpaceOnUse" color-interpolation-filters="sRGB">
      <feFlood flood-opacity="0" result="BackgroundImageFix"/>
      <feColorMatrix in="SourceAlpha" values="0 0 0 0 0 0 0 0 0 0 0 0 0 0 0 0 0 0 127 0"/>
      <feOffset dy="10"/>
      <feGaussianBlur stdDeviation="10"/>
      <feColorMatrix values="0 0 0 0 0 0 0 0 0 0 0 0 0 0 0 0 0 0 0.1 0"/>
      <feBlend in2="BackgroundImageFix" result="effect1_dropShadow"/>
      <feBlend in="SourceGraphic" in2="effect1_dropShadow" result="shape"/>
    </filter>
    <filter id="pnNnNzf-yc" x="233" y="167" width="556" height="302" filterUnits="userSpaceOnUse" color-interpolation-filters="sRGB">
      <feFlood flood-opacity="0" result="BackgroundImageFix"/>
      <feColorMatrix in="SourceAlpha" values="0 0 0 0 0 0 0 0 0 0 0 0 0 0 0 0 0 0 127 0"/>
      <feOffset dy="10"/>
      <feGaussianBlur stdDeviation="10"/>
      <feColorMatrix values="0 0 0 0 0 0 0 0 0 0 0 0 0 0 0 0 0 0 0.1 0"/>
      <feBlend in2="BackgroundImageFix" result="effect1_dropShadow"/>
      <feBlend in="SourceGraphic" in2="effect1_dropShadow" result="shape"/>
    </filter>
  </defs>
</svg>
