<svg xmlns="http://www.w3.org/2000/svg" fill="none" viewBox="0 0 669 546">
  <ellipse opacity=".8" rx="50" ry="49" transform="matrix(-1 0 0 1 105 395)" fill="#F5BF56"/>
  <path d="M605.902 0c-24.246 0-43.971 19.641-43.971 43.783 0 24.143 19.725 43.784 43.971 43.784 24.245 0 43.97-19.641 43.97-43.783C649.872 19.64 630.147 0 605.902 0zm0 84.198c-22.379 0-40.587-18.13-40.587-40.414 0-22.284 18.208-40.415 40.587-40.415 22.379 0 40.587 18.13 40.587 40.414 0 22.284-18.208 40.415-40.587 40.415z" fill="#443D5E"/>
  <path d="M605.905 48.449c9.376 0 15.751-7.573 15.751-16.912 0-9.342-6.375-16.911-15.751-16.911-9.383 0-15.758 7.57-15.758 16.91s6.375 16.913 15.758 16.913z" fill="#443D5E"/>
  <path d="M618.624 47.338c-3.364 3.008-7.766 4.785-12.722 4.785-4.958 0-9.364-1.777-12.727-4.785-8 4.356-13.523 12.626-13.941 22.241 6.765 6.932 16.216 11.252 26.666 11.252 10.449 0 19.9-4.32 26.667-11.25-.418-9.617-5.944-17.887-13.943-22.243z" fill="#443D5E"/>
  <path d="M605.902 91.567v43.97H536" stroke="#029D7F" stroke-dasharray="0 5"/>
  <g filter="url(#xRLK-QIDaa)">
    <path fill-rule="evenodd" clip-rule="evenodd" d="M20 77a8 8 0 018-8h500a8 8 0 018 8v246a8 8 0 01-8 8H28a8 8 0 01-8-8.001v-246z" fill="#fff"/>
    <path d="M20.5 77a7.5 7.5 0 017.5-7.5h500a7.5 7.5 0 017.5 7.5v246a7.5 7.5 0 01-7.5 7.5H28a7.5 7.5 0 01-7.5-7.501v-246z" stroke="#D8D8D8"/>
  </g>
  <path fill="#fff" d="M38 102h480v217H38z"/>
  <path d="M47.94 120.34h-5.56l-.92 2.66h-2.94l5.02-13.98h3.26L51.82 123h-2.96l-.92-2.66zm-.76-2.24l-2.02-5.84-2.02 5.84h4.04zm6.288-.68c0-1.12.22-2.114.66-2.98.453-.867 1.067-1.534 1.84-2a4.894 4.894 0 012.58-.7c.72 0 1.407.16 2.06.48.654.306 1.174.72 1.56 1.24v-5.26h2.84V123h-2.84v-1.64c-.346.546-.833.986-1.46 1.32-.627.333-1.353.5-2.18.5-.933 0-1.786-.24-2.56-.72-.773-.48-1.387-1.154-1.84-2.02-.44-.88-.66-1.887-.66-3.02zm8.72.04c0-.68-.133-1.26-.4-1.74a2.73 2.73 0 00-1.08-1.12c-.453-.267-.94-.4-1.46-.4s-1 .126-1.44.38c-.44.253-.8.626-1.08 1.12-.267.48-.4 1.053-.4 1.72 0 .666.133 1.253.4 1.76.28.493.64.873 1.08 1.14.453.266.934.4 1.44.4.52 0 1.007-.127 1.46-.38a2.91 2.91 0 001.08-1.12c.267-.494.4-1.08.4-1.76zm5.327-.04c0-1.12.22-2.114.66-2.98.453-.867 1.066-1.534 1.84-2a4.894 4.894 0 012.58-.7c.72 0 1.406.16 2.06.48.653.306 1.173.72 1.56 1.24v-5.26h2.84V123h-2.84v-1.64c-.347.546-.834.986-1.46 1.32-.627.333-1.354.5-2.18.5-.934 0-1.787-.24-2.56-.72-.774-.48-1.387-1.154-1.84-2.02-.44-.88-.66-1.887-.66-3.02zm8.72.04c0-.68-.134-1.26-.4-1.74a2.73 2.73 0 00-1.08-1.12c-.454-.267-.94-.4-1.46-.4s-1 .126-1.44.38c-.44.253-.8.626-1.08 1.12-.267.48-.4 1.053-.4 1.72 0 .666.133 1.253.4 1.76.28.493.64.873 1.08 1.14a2.8 2.8 0 001.44.4 2.95 2.95 0 001.46-.38c.453-.267.813-.64 1.08-1.12.266-.494.4-1.08.4-1.76zm16.346-.24c0 .4-.026.76-.08 1.08h-8.1c.067.8.347 1.426.84 1.88.493.453 1.1.68 1.82.68 1.04 0 1.78-.447 2.22-1.34h3.02c-.32 1.066-.933 1.946-1.84 2.64-.906.68-2.02 1.02-3.34 1.02-1.066 0-2.026-.234-2.88-.7a5.156 5.156 0 01-1.98-2.02c-.466-.867-.7-1.867-.7-3 0-1.147.233-2.154.7-3.02a4.878 4.878 0 011.96-2c.84-.467 1.807-.7 2.9-.7 1.053 0 1.994.226 2.82.68.84.453 1.487 1.1 1.94 1.94.467.826.7 1.78.7 2.86zm-2.9-.8c-.013-.72-.273-1.294-.78-1.72-.507-.44-1.126-.66-1.86-.66-.693 0-1.28.213-1.76.64-.467.413-.753.993-.86 1.74h5.26zm4.716 1c0-1.12.22-2.114.66-2.98.453-.867 1.066-1.534 1.84-2a4.894 4.894 0 012.58-.7c.72 0 1.406.16 2.06.48.653.306 1.173.72 1.56 1.24v-5.26h2.84V123h-2.84v-1.64c-.347.546-.834.986-1.46 1.32-.627.333-1.354.5-2.18.5-.934 0-1.787-.24-2.56-.72-.774-.48-1.387-1.154-1.84-2.02-.44-.88-.66-1.887-.66-3.02zm8.72.04c0-.68-.134-1.26-.4-1.74a2.735 2.735 0 00-1.08-1.12 2.83 2.83 0 00-1.46-.4c-.52 0-1 .126-1.44.38-.44.253-.8.626-1.08 1.12-.267.48-.4 1.053-.4 1.72 0 .666.133 1.253.4 1.76.28.493.64.873 1.08 1.14a2.8 2.8 0 001.44.4 2.95 2.95 0 001.46-.38c.453-.267.813-.64 1.08-1.12.266-.494.4-1.08.4-1.76zm14.564-3.24v5.36c0 .373.086.646.26.82.186.16.493.24.92.24h1.3V123h-1.76c-2.36 0-3.54-1.147-3.54-3.44v-5.34h-1.32v-2.3h1.32v-2.74h2.82v2.74h2.48v2.3h-2.48zm20.345-2.3l-3.24 11.08h-3.02l-2.02-7.74-2.02 7.74h-3.04l-3.26-11.08h2.84l1.96 8.44 2.12-8.44h2.96l2.08 8.42 1.96-8.42h2.68zm6.927 11.26c-1.067 0-2.027-.234-2.88-.7a5.256 5.256 0 01-2.02-2.02c-.48-.867-.72-1.867-.72-3 0-1.134.247-2.134.74-3a5.204 5.204 0 012.06-2c.867-.48 1.833-.72 2.9-.72s2.033.24 2.9.72a5.066 5.066 0 012.04 2c.507.866.76 1.866.76 3 0 1.133-.26 2.133-.78 3a5.321 5.321 0 01-2.08 2.02c-.867.466-1.84.7-2.92.7zm0-2.44c.507 0 .98-.12 1.42-.36a2.747 2.747 0 001.08-1.12c.267-.494.4-1.094.4-1.8 0-1.054-.28-1.86-.84-2.42a2.68 2.68 0 00-2.02-.86c-.8 0-1.473.286-2.02.86-.533.56-.8 1.366-.8 2.42 0 1.053.26 1.866.78 2.44.533.56 1.2.84 2 .84zm19.723-8.98c1.32 0 2.387.42 3.2 1.26.813.826 1.22 1.986 1.22 3.48v6.5h-2.8v-6.12c0-.88-.22-1.554-.66-2.02-.44-.48-1.04-.72-1.8-.72-.773 0-1.387.24-1.84.72-.44.466-.66 1.14-.66 2.02V123h-2.8v-11.08h2.8v1.38a3.79 3.79 0 011.42-1.12 4.402 4.402 0 011.92-.42zm17.875 5.46c0 .4-.027.76-.08 1.08h-8.1c.066.8.346 1.426.84 1.88.493.453 1.1.68 1.82.68 1.04 0 1.78-.447 2.22-1.34h3.02c-.32 1.066-.934 1.946-1.84 2.64-.907.68-2.02 1.02-3.34 1.02-1.067 0-2.027-.234-2.88-.7a5.156 5.156 0 01-1.98-2.02c-.467-.867-.7-1.867-.7-3 0-1.147.233-2.154.7-3.02a4.874 4.874 0 011.96-2c.84-.467 1.806-.7 2.9-.7 1.053 0 1.993.226 2.82.68.84.453 1.486 1.1 1.94 1.94.466.826.7 1.78.7 2.86zm-2.9-.8c-.014-.72-.274-1.294-.78-1.72-.507-.44-1.127-.66-1.86-.66-.694 0-1.28.213-1.76.64-.467.413-.754.993-.86 1.74h5.26zm20.795-4.5l-3.24 11.08h-3.02l-2.02-7.74-2.02 7.74h-3.04l-3.26-11.08h2.84l1.96 8.44 2.12-8.44h2.96l2.08 8.42 1.96-8.42h2.68zm12.344 2.3h-1.94V123h-2.84v-8.78h-1.26v-2.3h1.26v-.56c0-1.36.387-2.36 1.16-3 .774-.64 1.94-.94 3.5-.9v2.36c-.68-.014-1.153.1-1.42.34-.266.24-.4.673-.4 1.3v.46h1.94v2.3zm12.607 3c0 .4-.027.76-.08 1.08h-8.1c.066.8.346 1.426.84 1.88.493.453 1.1.68 1.82.68 1.04 0 1.78-.447 2.22-1.34h3.02c-.32 1.066-.934 1.946-1.84 2.64-.907.68-2.02 1.02-3.34 1.02-1.067 0-2.027-.234-2.88-.7a5.156 5.156 0 01-1.98-2.02c-.467-.867-.7-1.867-.7-3 0-1.147.233-2.154.7-3.02a4.874 4.874 0 011.96-2c.84-.467 1.806-.7 2.9-.7 1.053 0 1.993.226 2.82.68.84.453 1.486 1.1 1.94 1.94.466.826.7 1.78.7 2.86zm-2.9-.8c-.014-.72-.274-1.294-.78-1.72-.507-.44-1.127-.66-1.86-.66-.694 0-1.28.213-1.76.64-.467.413-.754.993-.86 1.74h5.26zm4.715 1c0-1.12.22-2.114.66-2.98.454-.867 1.06-1.534 1.82-2a4.897 4.897 0 012.58-.7c.827 0 1.547.166 2.16.5.627.333 1.127.753 1.5 1.26v-1.58h2.82V123h-2.82v-1.62c-.36.52-.86.953-1.5 1.3-.626.333-1.353.5-2.18.5-.933 0-1.786-.24-2.56-.72-.76-.48-1.366-1.154-1.82-2.02-.44-.88-.66-1.887-.66-3.02zm8.72.04c0-.68-.133-1.26-.4-1.74a2.722 2.722 0 00-1.08-1.12c-.453-.267-.94-.4-1.46-.4s-1 .126-1.44.38c-.44.253-.8.626-1.08 1.12-.266.48-.4 1.053-.4 1.72 0 .666.134 1.253.4 1.76.28.493.64.873 1.08 1.14.454.266.934.4 1.44.4.52 0 1.007-.127 1.46-.38.454-.267.814-.64 1.08-1.12.267-.494.4-1.08.4-1.76zm9.307-3.24v5.36c0 .373.086.646.26.82.186.16.493.24.92.24h1.3V123h-1.76c-2.36 0-3.54-1.147-3.54-3.44v-5.34h-1.32v-2.3h1.32v-2.74h2.82v2.74h2.48v2.3h-2.48zm15.445-2.3V123h-2.82v-1.4c-.36.48-.833.86-1.42 1.14-.573.266-1.2.4-1.88.4-.866 0-1.633-.18-2.3-.54a4.036 4.036 0 01-1.58-1.62c-.373-.72-.56-1.574-.56-2.56v-6.5h2.8v6.1c0 .88.22 1.56.66 2.04.44.466 1.04.7 1.8.7.774 0 1.38-.234 1.82-.7.44-.48.66-1.16.66-2.04v-6.1h2.82zm6.055 1.72a3.952 3.952 0 011.4-1.38c.586-.334 1.253-.5 2-.5v2.94h-.74c-.88 0-1.547.206-2 .62-.44.413-.66 1.133-.66 2.16V123h-2.8v-11.08h2.8v1.72zm16.077 3.58c0 .4-.026.76-.08 1.08h-8.1c.067.8.347 1.426.84 1.88.494.453 1.1.68 1.82.68 1.04 0 1.78-.447 2.22-1.34h3.02c-.32 1.066-.933 1.946-1.84 2.64-.906.68-2.02 1.02-3.34 1.02-1.066 0-2.026-.234-2.88-.7a5.156 5.156 0 01-1.98-2.02c-.466-.867-.7-1.867-.7-3 0-1.147.234-2.154.7-3.02a4.88 4.88 0 011.96-2c.84-.467 1.807-.7 2.9-.7 1.054 0 1.994.226 2.82.68.84.453 1.487 1.1 1.94 1.94.467.826.7 1.78.7 2.86zm-2.9-.8c-.013-.72-.273-1.294-.78-1.72-.506-.44-1.126-.66-1.86-.66-.693 0-1.28.213-1.76.64-.466.413-.753.993-.86 1.74h5.26zm9.676 6.76c-.907 0-1.72-.16-2.44-.48-.72-.334-1.293-.78-1.72-1.34a3.412 3.412 0 01-.68-1.86h2.82c.053.426.26.78.62 1.06.373.28.833.42 1.38.42.533 0 .947-.107 1.24-.32.307-.214.46-.487.46-.82 0-.36-.187-.627-.56-.8-.36-.187-.94-.387-1.74-.6-.827-.2-1.507-.407-2.04-.62a3.636 3.636 0 01-1.36-.98c-.373-.44-.56-1.034-.56-1.78 0-.614.173-1.174.52-1.68.36-.507.867-.907 1.52-1.2.667-.294 1.447-.44 2.34-.44 1.32 0 2.373.333 3.16 1 .787.653 1.22 1.54 1.3 2.66h-2.68c-.04-.44-.227-.787-.56-1.04-.32-.267-.753-.4-1.3-.4-.507 0-.9.093-1.18.28a.897.897 0 00-.4.78c0 .373.187.66.56.86.373.186.953.38 1.74.58.8.2 1.46.406 1.98.62.52.213.967.546 1.34 1 .387.44.587 1.026.6 1.76 0 .64-.18 1.213-.54 1.72-.347.506-.853.906-1.52 1.2-.653.28-1.42.42-2.3.42zm15.668-8.96v5.36c0 .373.086.646.26.82.186.16.493.24.92.24h1.3V123h-1.76c-2.36 0-3.54-1.147-3.54-3.44v-5.34h-1.32v-2.3h1.32v-2.74h2.82v2.74h2.48v2.3h-2.48zm9.905 8.96c-1.066 0-2.026-.234-2.88-.7a5.262 5.262 0 01-2.02-2.02c-.48-.867-.72-1.867-.72-3 0-1.134.247-2.134.74-3a5.21 5.21 0 012.06-2c.867-.48 1.834-.72 2.9-.72 1.067 0 2.034.24 2.9.72a5.066 5.066 0 012.04 2c.507.866.76 1.866.76 3 0 1.133-.26 2.133-.78 3a5.315 5.315 0 01-2.08 2.02c-.866.466-1.84.7-2.92.7zm0-2.44c.507 0 .98-.12 1.42-.36a2.734 2.734 0 001.08-1.12c.267-.494.4-1.094.4-1.8 0-1.054-.28-1.86-.84-2.42-.546-.574-1.22-.86-2.02-.86s-1.473.286-2.02.86c-.533.56-.8 1.366-.8 2.42 0 1.053.26 1.866.78 2.44.534.56 1.2.84 2 .84zm18.503 2.44c-1.066 0-2.026-.234-2.88-.7a5.262 5.262 0 01-2.02-2.02c-.48-.867-.72-1.867-.72-3 0-1.134.247-2.134.74-3a5.21 5.21 0 012.06-2c.867-.48 1.834-.72 2.9-.72 1.067 0 2.034.24 2.9.72a5.066 5.066 0 012.04 2c.507.866.76 1.866.76 3 0 1.133-.26 2.133-.78 3a5.315 5.315 0 01-2.08 2.02c-.866.466-1.84.7-2.92.7zm0-2.44c.507 0 .98-.12 1.42-.36a2.734 2.734 0 001.08-1.12c.267-.494.4-1.094.4-1.8 0-1.054-.28-1.86-.84-2.42-.546-.574-1.22-.86-2.02-.86s-1.473.286-2.02.86c-.533.56-.8 1.366-.8 2.42 0 1.053.26 1.866.78 2.44.534.56 1.2.84 2 .84zm18.786-8.82V123h-2.82v-1.4c-.36.48-.833.86-1.42 1.14-.573.266-1.2.4-1.88.4-.867 0-1.633-.18-2.3-.54a4.03 4.03 0 01-1.58-1.62c-.373-.72-.56-1.574-.56-2.56v-6.5h2.8v6.1c0 .88.22 1.56.66 2.04.44.466 1.04.7 1.8.7.774 0 1.38-.234 1.82-.7.44-.48.66-1.16.66-2.04v-6.1h2.82zm6.055 1.72a3.952 3.952 0 011.4-1.38c.586-.334 1.253-.5 2-.5v2.94h-.74c-.88 0-1.547.206-2 .62-.44.413-.66 1.133-.66 2.16V123h-2.8v-11.08h2.8v1.72zm13.835-.12c.36-.507.853-.927 1.48-1.26.64-.347 1.366-.52 2.18-.52.946 0 1.8.233 2.56.7.773.466 1.38 1.133 1.82 2 .453.853.68 1.846.68 2.98 0 1.133-.227 2.14-.68 3.02-.44.866-1.047 1.54-1.82 2.02-.76.48-1.614.72-2.56.72-.814 0-1.534-.167-2.16-.5a4.645 4.645 0 01-1.5-1.26v6.86h-2.8v-16.36h2.8v1.6zm5.86 3.9c0-.667-.14-1.24-.42-1.72a2.735 2.735 0 00-1.08-1.12 2.83 2.83 0 00-1.44-.38 2.79 2.79 0 00-1.44.4c-.44.253-.8.626-1.08 1.12-.267.493-.4 1.073-.4 1.74 0 .666.133 1.246.4 1.74.28.493.64.873 1.08 1.14.453.253.933.38 1.44.38.52 0 1-.134 1.44-.4a2.884 2.884 0 001.08-1.14c.28-.494.42-1.08.42-1.76zm8.186-3.78a3.96 3.96 0 011.4-1.38c.587-.334 1.254-.5 2-.5v2.94h-.74c-.88 0-1.546.206-2 .62-.44.413-.66 1.133-.66 2.16V123h-2.8v-11.08h2.8v1.72zm10.698 9.54c-1.067 0-2.027-.234-2.88-.7a5.256 5.256 0 01-2.02-2.02c-.48-.867-.72-1.867-.72-3 0-1.134.247-2.134.74-3a5.204 5.204 0 012.06-2c.867-.48 1.833-.72 2.9-.72s2.033.24 2.9.72a5.066 5.066 0 012.04 2c.507.866.76 1.866.76 3 0 1.133-.26 2.133-.78 3a5.321 5.321 0 01-2.08 2.02c-.867.466-1.84.7-2.92.7zm0-2.44c.507 0 .98-.12 1.42-.36a2.747 2.747 0 001.08-1.12c.267-.494.4-1.094.4-1.8 0-1.054-.28-1.86-.84-2.42a2.68 2.68 0 00-2.02-.86c-.8 0-1.473.286-2.02.86-.533.56-.8 1.366-.8 2.42 0 1.053.26 1.866.78 2.44.533.56 1.2.84 2 .84zm7.606-3.32c0-1.12.22-2.114.66-2.98.453-.867 1.066-1.534 1.84-2a4.892 4.892 0 012.58-.7c.72 0 1.406.16 2.06.48.653.306 1.173.72 1.56 1.24v-5.26h2.84V123h-2.84v-1.64c-.347.546-.834.986-1.46 1.32-.627.333-1.354.5-2.18.5-.934 0-1.787-.24-2.56-.72-.774-.48-1.387-1.154-1.84-2.02-.44-.88-.66-1.887-.66-3.02zm8.72.04c0-.68-.134-1.26-.4-1.74a2.735 2.735 0 00-1.08-1.12 2.83 2.83 0 00-1.46-.4c-.52 0-1 .126-1.44.38-.44.253-.8.626-1.08 1.12-.267.48-.4 1.053-.4 1.72 0 .666.133 1.253.4 1.76.28.493.64.873 1.08 1.14a2.8 2.8 0 001.44.4 2.95 2.95 0 001.46-.38c.453-.267.813-.64 1.08-1.12.266-.494.4-1.08.4-1.76zm16.506-5.54V123h-2.82v-1.4c-.36.48-.833.86-1.42 1.14-.573.266-1.2.4-1.88.4-.867 0-1.633-.18-2.3-.54a4.03 4.03 0 01-1.58-1.62c-.373-.72-.56-1.574-.56-2.56v-6.5h2.8v6.1c0 .88.22 1.56.66 2.04.44.466 1.04.7 1.8.7.773 0 1.38-.234 1.82-.7.44-.48.66-1.16.66-2.04v-6.1h2.82zm2.535 5.54c0-1.147.233-2.147.7-3a4.908 4.908 0 011.94-2c.826-.48 1.773-.72 2.84-.72 1.373 0 2.506.346 3.4 1.04.906.68 1.513 1.64 1.82 2.88h-3.02a2.137 2.137 0 00-.82-1.12c-.374-.28-.84-.42-1.4-.42-.8 0-1.434.293-1.9.88-.467.573-.7 1.393-.7 2.46 0 1.053.233 1.873.7 2.46.466.573 1.1.86 1.9.86 1.133 0 1.873-.507 2.22-1.52h3.02c-.307 1.2-.914 2.153-1.82 2.86-.907.706-2.04 1.06-3.4 1.06-1.067 0-2.014-.234-2.84-.7a5.085 5.085 0 01-1.94-2c-.467-.867-.7-1.874-.7-3.02zm16.503-3.24v5.36c0 .373.086.646.26.82.186.16.493.24.92.24h1.3V123h-1.76c-2.36 0-3.54-1.147-3.54-3.44v-5.34h-1.32v-2.3h1.32v-2.74h2.82v2.74h2.48v2.3h-2.48z" fill="#251A3F"/>
  <rect x="38" y="145.5" width="479" height="21" rx="10.5" fill="#F1F1F1"/>
  <rect x="38" y="184" width="479" height="21" rx="10.5" fill="#F1F1F1"/>
  <rect x="38" y="222.5" width="326" height="21" rx="10.5" fill="#F1F1F1"/>
  <path d="M109.466 273.96a2.27 2.27 0 011.372.854c.346.438.518.942.518 1.512 0 .821-.289 1.474-.868 1.96-.569.476-1.367.714-2.394.714h-4.578v-9.828h4.424c.999 0 1.778.228 2.338.686.57.457.854 1.078.854 1.862 0 .578-.154 1.059-.462 1.442a2.32 2.32 0 01-1.204.798zm-3.556-.812h1.568c.392 0 .691-.084.896-.252.215-.178.322-.434.322-.77s-.107-.593-.322-.77c-.205-.178-.504-.266-.896-.266h-1.568v2.058zm1.764 3.92c.402 0 .71-.089.924-.266.224-.187.336-.453.336-.798 0-.346-.116-.616-.35-.812-.224-.196-.536-.294-.938-.294h-1.736v2.17h1.764zm12.927-2.1c0 .224-.014.457-.042.7h-5.418c.037.485.191.858.462 1.12.28.252.62.378 1.022.378.597 0 1.012-.252 1.246-.756h2.548a3.464 3.464 0 01-.714 1.386c-.336.41-.761.732-1.274.966a4.124 4.124 0 01-1.722.35c-.766 0-1.447-.164-2.044-.49a3.487 3.487 0 01-1.4-1.4c-.336-.607-.504-1.316-.504-2.128s.163-1.522.49-2.128a3.475 3.475 0 011.4-1.4c.597-.327 1.283-.49 2.058-.49.756 0 1.428.158 2.016.476.588.317 1.045.77 1.372 1.358.336.588.504 1.274.504 2.058zm-2.45-.63c0-.411-.14-.738-.42-.98-.28-.243-.63-.364-1.05-.364-.402 0-.742.116-1.022.35-.271.233-.439.564-.504.994h2.996zm8.964-3.234c.915 0 1.643.298 2.184.896.551.588.826 1.4.826 2.436V279h-2.38v-4.242c0-.523-.135-.929-.406-1.218-.27-.29-.634-.434-1.092-.434-.457 0-.821.144-1.092.434-.27.289-.406.695-.406 1.218V279h-2.394v-7.812h2.394v1.036c.243-.346.57-.616.98-.812a3.05 3.05 0 011.386-.308zm8.344 8.008c-.681 0-1.288-.117-1.82-.35-.532-.234-.952-.551-1.26-.952a2.557 2.557 0 01-.518-1.372h2.366a.91.91 0 00.378.658c.224.168.499.252.826.252.299 0 .527-.056.686-.168a.551.551 0 00.252-.462c0-.224-.117-.388-.35-.49-.233-.112-.611-.234-1.134-.364a11.578 11.578 0 01-1.4-.406 2.526 2.526 0 01-.966-.686c-.271-.318-.406-.742-.406-1.274 0-.448.121-.854.364-1.218.252-.374.616-.668 1.092-.882.485-.215 1.059-.322 1.722-.322.98 0 1.75.242 2.31.728.569.485.896 1.129.98 1.932h-2.212a.941.941 0 00-.364-.644c-.196-.159-.457-.238-.784-.238-.28 0-.495.056-.644.168a.496.496 0 00-.224.434c0 .224.117.392.35.504.243.112.616.224 1.12.336.579.149 1.05.298 1.414.448a2.3 2.3 0 01.952.7c.28.317.425.746.434 1.288 0 .457-.131.868-.392 1.232-.252.354-.621.634-1.106.84-.476.205-1.031.308-1.666.308zm8.676 0c-.765 0-1.456-.164-2.072-.49a3.66 3.66 0 01-1.442-1.4c-.345-.607-.518-1.316-.518-2.128 0-.803.178-1.508.532-2.114a3.595 3.595 0 011.456-1.414c.616-.327 1.307-.49 2.072-.49.766 0 1.456.163 2.072.49a3.589 3.589 0 011.456 1.414c.355.606.532 1.311.532 2.114 0 .802-.182 1.512-.546 2.128a3.599 3.599 0 01-1.47 1.4c-.616.326-1.306.49-2.072.49zm0-2.072c.458 0 .845-.168 1.162-.504.327-.336.49-.817.49-1.442 0-.626-.158-1.106-.476-1.442a1.493 1.493 0 00-1.148-.504 1.51 1.51 0 00-1.162.504c-.308.326-.462.807-.462 1.442 0 .625.15 1.106.448 1.442.308.336.691.504 1.148.504zm10.61-5.936c.915 0 1.643.298 2.184.896.551.588.826 1.4.826 2.436V279h-2.38v-4.242c0-.523-.135-.929-.406-1.218-.271-.29-.635-.434-1.092-.434-.457 0-.821.144-1.092.434-.271.289-.406.695-.406 1.218V279h-2.394v-7.812h2.394v1.036c.243-.346.569-.616.98-.812a3.05 3.05 0 011.386-.308zm14.742 6.16h-3.668l-.588 1.736h-2.506l3.556-9.828h2.772l3.556 9.828h-2.534l-.588-1.736zm-.616-1.848l-1.218-3.598-1.204 3.598h2.422zm4.836-.336c0-.803.149-1.508.448-2.114.308-.607.723-1.074 1.246-1.4a3.233 3.233 0 011.75-.49c.513 0 .98.107 1.4.322.429.214.765.504 1.008.868v-3.626h2.394V279h-2.394v-1.12a2.43 2.43 0 01-.966.896c-.411.224-.891.336-1.442.336a3.241 3.241 0 01-1.75-.49c-.523-.336-.938-.808-1.246-1.414-.299-.616-.448-1.326-.448-2.128zm5.852.014c0-.598-.168-1.069-.504-1.414a1.59 1.59 0 00-1.204-.518c-.476 0-.882.172-1.218.518-.327.336-.49.802-.49 1.4 0 .597.163 1.073.49 1.428.336.345.742.518 1.218.518s.877-.173 1.204-.518c.336-.346.504-.817.504-1.414zm4.142-.014c0-.803.149-1.508.448-2.114.308-.607.723-1.074 1.246-1.4a3.233 3.233 0 011.75-.49c.551 0 1.031.112 1.442.336.42.224.742.518.966.882v-1.106h2.394V279h-2.394v-1.106a2.57 2.57 0 01-.98.882c-.411.224-.891.336-1.442.336a3.216 3.216 0 01-1.736-.49c-.523-.336-.938-.808-1.246-1.414-.299-.616-.448-1.326-.448-2.128zm5.852.014c0-.598-.168-1.069-.504-1.414a1.59 1.59 0 00-1.204-.518c-.476 0-.882.172-1.218.518-.327.336-.49.802-.49 1.4 0 .597.163 1.073.49 1.428.336.345.742.518 1.218.518s.877-.173 1.204-.518c.336-.346.504-.817.504-1.414zm14.586-3.99c.97 0 1.74.294 2.31.882.578.588.868 1.404.868 2.45V279h-2.38v-4.242c0-.504-.136-.892-.406-1.162-.262-.28-.626-.42-1.092-.42-.467 0-.836.14-1.106.42-.262.27-.392.658-.392 1.162V279h-2.38v-4.242c0-.504-.136-.892-.406-1.162-.262-.28-.626-.42-1.092-.42-.467 0-.836.14-1.106.42-.262.27-.392.658-.392 1.162V279h-2.394v-7.812h2.394v.98c.242-.327.56-.584.952-.77a2.932 2.932 0 011.33-.294c.588 0 1.11.126 1.568.378.466.252.83.611 1.092 1.078.27-.43.639-.78 1.106-1.05a2.982 2.982 0 011.526-.406zm8.522 8.008c-.682 0-1.288-.117-1.82-.35-.532-.234-.952-.551-1.26-.952a2.557 2.557 0 01-.518-1.372h2.366a.91.91 0 00.378.658c.224.168.499.252.826.252.298 0 .527-.056.686-.168a.551.551 0 00.252-.462c0-.224-.117-.388-.35-.49-.234-.112-.612-.234-1.134-.364a11.578 11.578 0 01-1.4-.406 2.51 2.51 0 01-.966-.686c-.271-.318-.406-.742-.406-1.274 0-.448.121-.854.364-1.218.252-.374.616-.668 1.092-.882.485-.215 1.059-.322 1.722-.322.98 0 1.75.242 2.31.728.569.485.896 1.129.98 1.932h-2.212a.945.945 0 00-.364-.644c-.196-.159-.458-.238-.784-.238-.28 0-.495.056-.644.168a.494.494 0 00-.224.434c0 .224.116.392.35.504.242.112.616.224 1.12.336.578.149 1.05.298 1.414.448a2.3 2.3 0 01.952.7c.28.317.424.746.434 1.288 0 .457-.131.868-.392 1.232-.252.354-.621.634-1.106.84-.476.205-1.032.308-1.666.308z" fill="#029D7F"/>
  <path d="M109.564 292.732L105.658 302h-.994l3.948-9.184h-5.6v-.84h6.552v.756zm5.801 1.484c.579 0 1.097.121 1.554.364.467.242.831.616 1.092 1.12.271.494.406 1.101.406 1.82V302h-.966v-4.368c0-.831-.21-1.466-.63-1.904-.411-.439-.975-.658-1.694-.658-.737 0-1.325.233-1.764.7-.439.466-.658 1.152-.658 2.058V302h-.98v-10.36h.98v4.018a2.54 2.54 0 011.064-1.064 3.358 3.358 0 011.596-.378zm9.597 3.948c0-.784.154-1.47.462-2.058a3.35 3.35 0 011.302-1.372c.56-.327 1.19-.49 1.89-.49.728 0 1.353.168 1.876.504.532.336.914.765 1.148 1.288v-1.68h.98V302h-.98v-1.694c-.243.522-.63.956-1.162 1.302-.523.336-1.148.504-1.876.504a3.66 3.66 0 01-1.876-.49 3.458 3.458 0 01-1.302-1.386c-.308-.598-.462-1.288-.462-2.072zm6.678.014c0-.616-.126-1.158-.378-1.624a2.685 2.685 0 00-1.036-1.078 2.772 2.772 0 00-1.428-.378 2.9 2.9 0 00-1.456.364c-.43.242-.77.597-1.022 1.064-.243.457-.364 1.003-.364 1.638 0 .625.121 1.176.364 1.652.252.466.592.826 1.022 1.078.429.242.914.364 1.456.364.522 0 .998-.126 1.428-.378a2.691 2.691 0 001.036-1.078c.252-.467.378-1.008.378-1.624zm6.915-3.934c.719 0 1.344.168 1.876.504.532.336.915.76 1.148 1.274v-1.666h.98v7.84c0 .7-.154 1.32-.462 1.862a3.068 3.068 0 01-1.26 1.246c-.541.298-1.157.448-1.848.448-.98 0-1.797-.234-2.45-.7-.644-.467-1.045-1.102-1.204-1.904h.966c.168.532.485.956.952 1.274.476.317 1.055.476 1.736.476a2.73 2.73 0 001.33-.322c.392-.206.7-.514.924-.924.224-.411.336-.896.336-1.456v-1.89c-.243.522-.63.956-1.162 1.302-.523.336-1.143.504-1.862.504-.7 0-1.33-.164-1.89-.49a3.458 3.458 0 01-1.302-1.386c-.308-.598-.462-1.288-.462-2.072s.154-1.47.462-2.058a3.35 3.35 0 011.302-1.372c.56-.327 1.19-.49 1.89-.49zm3.024 3.934c0-.616-.126-1.158-.378-1.624a2.678 2.678 0 00-1.036-1.078 2.767 2.767 0 00-1.428-.378c-.541 0-1.027.121-1.456.364-.429.242-.77.597-1.022 1.064-.243.457-.364 1.003-.364 1.638 0 .625.121 1.176.364 1.652.252.466.593.826 1.022 1.078.429.242.915.364 1.456.364.523 0 .999-.126 1.428-.378a2.685 2.685 0 001.036-1.078c.252-.467.378-1.008.378-1.624zm7.055 3.934a3.983 3.983 0 01-1.946-.476 3.622 3.622 0 01-1.358-1.372c-.327-.598-.49-1.293-.49-2.086 0-.794.168-1.484.504-2.072a3.456 3.456 0 011.372-1.372 3.885 3.885 0 011.946-.49c.719 0 1.367.163 1.946.49a3.346 3.346 0 011.372 1.372c.336.588.504 1.278.504 2.072 0 .784-.168 1.474-.504 2.072a3.539 3.539 0 01-1.386 1.386 4.063 4.063 0 01-1.96.476zm0-.854a2.98 2.98 0 001.4-.336 2.639 2.639 0 001.036-1.036c.271-.467.406-1.036.406-1.708 0-.672-.131-1.237-.392-1.694-.261-.467-.607-.812-1.036-1.036a2.877 2.877 0 00-1.4-.35c-.504 0-.971.116-1.4.35-.429.224-.775.569-1.036 1.036-.252.457-.378 1.022-.378 1.694 0 .672.126 1.241.378 1.708.261.457.602.802 1.022 1.036a2.98 2.98 0 001.4.336zm11.89-2.31a1.57 1.57 0 01-1.134-.462 1.563 1.563 0 01-.476-1.148c0-.458.158-.84.476-1.148a1.545 1.545 0 011.134-.476c.457 0 .84.158 1.148.476.317.308.476.69.476 1.148 0 .448-.159.83-.476 1.148a1.56 1.56 0 01-1.148.462zm15.832-3.402l-.546 2.59h2.002v.868h-2.184l-.644 2.996h-.938l.644-2.996h-3.108l-.644 2.996H170l.644-2.996h-2.226v-.868h2.408l.546-2.59h-2.184v-.868h2.38l.644-3.038h.938l-.644 3.038h3.108l.644-3.038h.938l-.644 3.038h2.03v.868h-2.226zm-.938 0h-3.108l-.546 2.59h3.108l.546-2.59zm12.721-.21c0 .569-.131 1.092-.392 1.568-.261.466-.663.844-1.204 1.134-.541.289-1.213.434-2.016.434h-1.484V302h-2.394v-9.828h3.878c.784 0 1.447.135 1.988.406.541.27.947.644 1.218 1.12.271.476.406 1.022.406 1.638zm-3.794 1.232c.457 0 .798-.108 1.022-.322.224-.215.336-.518.336-.91s-.112-.696-.336-.91c-.224-.215-.565-.322-1.022-.322h-1.302v2.464h1.302zm7.926-1.078c.28-.43.63-.766 1.05-1.008a2.67 2.67 0 011.4-.378v2.534h-.658c-.597 0-1.045.13-1.344.392-.298.252-.448.7-.448 1.344V302h-2.394v-7.812h2.394v1.302zm7.642 6.622c-.765 0-1.456-.164-2.072-.49a3.66 3.66 0 01-1.442-1.4c-.345-.607-.518-1.316-.518-2.128 0-.803.178-1.508.532-2.114a3.595 3.595 0 011.456-1.414c.616-.327 1.307-.49 2.072-.49.766 0 1.456.163 2.072.49a3.589 3.589 0 011.456 1.414c.355.606.532 1.311.532 2.114 0 .802-.182 1.512-.546 2.128a3.599 3.599 0 01-1.47 1.4c-.616.326-1.306.49-2.072.49zm0-2.072c.458 0 .845-.168 1.162-.504.327-.336.49-.817.49-1.442 0-.626-.158-1.106-.476-1.442a1.493 1.493 0 00-1.148-.504 1.51 1.51 0 00-1.162.504c-.308.326-.462.807-.462 1.442 0 .625.15 1.106.448 1.442.308.336.691.504 1.148.504zm5.374-1.96c0-.803.149-1.508.448-2.114.308-.607.723-1.074 1.246-1.4a3.233 3.233 0 011.75-.49c.513 0 .98.107 1.4.322.429.214.765.504 1.008.868v-3.626h2.394V302h-2.394v-1.12a2.43 2.43 0 01-.966.896c-.411.224-.891.336-1.442.336a3.241 3.241 0 01-1.75-.49c-.523-.336-.938-.808-1.246-1.414-.299-.616-.448-1.326-.448-2.128zm5.852.014c0-.598-.168-1.069-.504-1.414a1.59 1.59 0 00-1.204-.518c-.476 0-.882.172-1.218.518-.327.336-.49.802-.49 1.4 0 .597.163 1.073.49 1.428.336.345.742.518 1.218.518s.877-.173 1.204-.518c.336-.346.504-.817.504-1.414zm12.332-3.906V302h-2.394v-1.064a2.682 2.682 0 01-.994.84 3.03 3.03 0 01-1.372.308c-.597 0-1.125-.131-1.582-.392a2.739 2.739 0 01-1.064-1.162c-.252-.504-.378-1.097-.378-1.778v-4.564h2.38v4.242c0 .522.135.928.406 1.218.271.289.635.434 1.092.434.467 0 .835-.145 1.106-.434.271-.29.406-.696.406-1.218v-4.242h2.394zm1.735 3.906c0-.812.164-1.522.49-2.128a3.504 3.504 0 011.386-1.4c.598-.327 1.279-.49 2.044-.49.98 0 1.797.256 2.45.77.663.513 1.097 1.236 1.302 2.17h-2.548c-.214-.598-.63-.896-1.246-.896a1.25 1.25 0 00-1.05.518c-.261.336-.392.821-.392 1.456 0 .634.131 1.124.392 1.47.262.336.612.504 1.05.504.616 0 1.032-.299 1.246-.896h2.548c-.205.914-.639 1.633-1.302 2.156-.662.522-1.479.784-2.45.784-.765 0-1.446-.164-2.044-.49a3.517 3.517 0 01-1.386-1.4c-.326-.607-.49-1.316-.49-2.128zm13.799 1.876V302h-1.218c-.868 0-1.545-.21-2.03-.63-.486-.43-.728-1.125-.728-2.086v-3.108h-.952v-1.988h.952v-1.904h2.394v1.904h1.568v1.988h-1.568v3.136c0 .233.056.401.168.504.112.102.298.154.56.154h.854z" fill="#251A3F"/>
  <path d="M63 309.03c14.06 0 25.5-10.84 25.5-24.265S77.06 260.5 63 260.5s-25.5 10.84-25.5 24.265S48.94 309.03 63 309.03z" fill="#3679A9" stroke="#E0E0E0"/>
  <path d="M56.793 292c3.017 0 4.922-1.592 4.922-4.063 0-1.875-1.504-3.291-3.408-3.379v-.078c1.562-.215 2.753-1.475 2.753-3.057 0-2.177-1.67-3.515-4.443-3.515h-6.552V292h6.728zm-3.145-11.553h2.022c1.201 0 1.904.586 1.904 1.572 0 1.016-.781 1.631-2.08 1.631h-1.846v-3.203zm0 9.013v-3.632h2.11c1.474 0 2.314.644 2.314 1.797 0 1.191-.82 1.835-2.295 1.835h-2.129zm19.34 2.54h3.808l-4.736-14.092h-4.385L62.94 292h3.652l.899-3.096h4.61l.888 3.096zm-3.233-11.104h.079l1.562 5.43h-3.213l1.572-5.43z" fill="#fff"/>
  <path fill-rule="evenodd" clip-rule="evenodd" d="M414 268c-9.389 0-17 7.611-17 17 0 9.388 7.611 17 17 17h86c9.389 0 17-7.612 17-17 0-9.389-7.611-17-17-17h-86z" fill="#fff" stroke="#251A3F"/>
  <path d="M501 285.001a.872.872 0 01-.191.515l-3.765 4.251c-.255.243-.744.344-1.029.062-.281-.277-.273-.815.007-1.094l2.647-2.984h-8.963c-.39 0-.706-.336-.706-.75s.316-.75.706-.75h8.963l-2.647-2.985c-.241-.256-.285-.813-.007-1.094.278-.28.784-.19 1.029.063l3.765 4.25a.748.748 0 01.191.516z" fill="#000"/>
  <path d="M420.913 279.342v1.374h-.205c-.93.014-1.673.269-2.229.766-.555.497-.886 1.201-.991 2.112.533-.56 1.215-.841 2.044-.841.88 0 1.572.31 2.078.93.511.62.766 1.42.766 2.4 0 1.011-.299 1.832-.896 2.46-.592.625-1.371.937-2.337.937-.994 0-1.801-.367-2.42-1.101-.616-.733-.923-1.695-.923-2.884v-.568c0-1.745.424-3.112 1.271-4.101.853-.989 2.076-1.484 3.671-1.484h.171zm-1.784 4.751a1.8 1.8 0 00-1.668 1.128v.506c0 .738.155 1.326.465 1.764.31.433.711.649 1.203.649.492 0 .882-.184 1.169-.554.287-.369.431-.854.431-1.456 0-.601-.146-1.091-.438-1.469a1.394 1.394 0 00-1.162-.568zm12.967 1.415h-1.928v3.835h-1.729v-9.953h3.5c1.148 0 2.034.258 2.659.773.624.515.936 1.26.936 2.235 0 .665-.161 1.224-.485 1.675-.319.446-.766.79-1.34 1.032l2.236 4.149v.089h-1.853l-1.996-3.835zm-1.928-1.387h1.777c.584 0 1.04-.146 1.368-.438.328-.296.492-.699.492-1.21 0-.533-.153-.945-.458-1.237-.301-.292-.752-.442-1.354-.451h-1.825v3.336zm10.595 5.359c-1.052 0-1.907-.33-2.563-.991-.652-.666-.978-1.55-.978-2.653v-.205c0-.738.142-1.396.424-1.975a3.27 3.27 0 011.203-1.361 3.179 3.179 0 011.723-.485c1.007 0 1.784.321 2.331.964.552.643.827 1.552.827 2.727v.67h-4.833c.05.611.253 1.094.609 1.45.36.355.811.533 1.353.533.761 0 1.381-.308 1.86-.923l.895.854a3.007 3.007 0 01-1.189 1.033 3.732 3.732 0 01-1.662.362zm-.198-6.337c-.456 0-.825.16-1.107.479-.278.319-.456.763-.533 1.333h3.165v-.123c-.037-.556-.185-.976-.445-1.258-.259-.287-.62-.431-1.08-.431zm11.429 2.577c0 1.144-.259 2.058-.779 2.741-.519.679-1.217 1.019-2.092 1.019-.811 0-1.46-.267-1.948-.8v3.507h-1.661v-10.24h1.531l.069.752c.487-.593 1.15-.889 1.989-.889.902 0 1.609.337 2.119 1.012.515.67.772 1.602.772 2.796v.102zm-1.654-.143c0-.739-.148-1.324-.444-1.757-.292-.433-.711-.65-1.258-.65-.679 0-1.167.281-1.463.841v3.281c.301.575.793.862 1.477.862.528 0 .941-.212 1.237-.636.301-.428.451-1.075.451-1.941zm5.325 3.766h-1.661v-10.5h1.661v10.5zm4.074 0h-1.661v-7.396h1.661v7.396zm-1.764-9.317c0-.255.08-.467.239-.636.164-.168.397-.253.698-.253.3 0 .533.085.697.253a.877.877 0 01.246.636c0 .251-.082.46-.246.629-.164.164-.397.246-.697.246-.301 0-.534-.082-.698-.246a.882.882 0 01-.239-.629zm7.328 9.454c-1.053 0-1.907-.33-2.564-.991-.651-.666-.977-1.55-.977-2.653v-.205c0-.738.141-1.396.424-1.975a3.27 3.27 0 011.203-1.361 3.175 3.175 0 011.722-.485c1.008 0 1.785.321 2.332.964.551.643.827 1.552.827 2.727v.67h-4.833c.05.611.253 1.094.608 1.45.36.355.811.533 1.354.533.761 0 1.38-.308 1.859-.923l.895.854a3 3 0 01-1.189 1.033 3.727 3.727 0 01-1.661.362zm-.198-6.337c-.456 0-.825.16-1.108.479-.278.319-.456.763-.533 1.333h3.165v-.123c-.036-.556-.185-.976-.444-1.258-.26-.287-.62-.431-1.08-.431zm9.098 4.19a.75.75 0 00-.369-.676c-.242-.155-.645-.292-1.21-.41-.565-.119-1.037-.269-1.415-.452-.83-.401-1.244-.982-1.244-1.743 0-.638.268-1.171.806-1.599.538-.429 1.222-.643 2.051-.643.884 0 1.597.219 2.14.656.547.438.82 1.005.82 1.702h-1.661c0-.319-.119-.583-.356-.793-.237-.214-.551-.321-.943-.321-.365 0-.663.085-.896.253a.802.802 0 00-.341.677c0 .255.107.453.321.595.214.141.647.284 1.299.43.651.142 1.162.312 1.531.513.374.196.649.433.827.711.182.278.274.615.274 1.012 0 .665-.276 1.205-.828 1.62-.551.41-1.273.615-2.167.615-.606 0-1.146-.109-1.62-.328-.474-.219-.843-.52-1.107-.902a2.141 2.141 0 01-.397-1.238h1.614c.023.392.171.695.444.909.274.21.636.315 1.087.315.437 0 .77-.082.998-.246a.783.783 0 00.342-.657z" fill="#251A3F"/>
  <g filter="url(#xRLK-QIDab)">
    <path fill-rule="evenodd" clip-rule="evenodd" d="M232 166a8 8 0 018-8h500a8 8 0 018 8v246a8 8 0 01-8 8H240a8 8 0 01-8-8.001V166z" fill="#fff"/>
    <path d="M232.5 166a7.5 7.5 0 017.5-7.5h500a7.5 7.5 0 017.5 7.5v246a7.5 7.5 0 01-7.5 7.5H240a7.5 7.5 0 01-7.5-7.501V166z" stroke="#D8D8D8"/>
  </g>
  <path fill="#fff" d="M250 191h420.69v217H250z"/>
  <path d="M266.6 198.04V212h-2.8v-9.08l-3.74 9.08h-2.12l-3.76-9.08V212h-2.8v-13.96h3.18l4.44 10.38 4.44-10.38h3.16zm13.56 8.18c0 .4-.027.76-.08 1.08h-8.1c.067.8.347 1.426.84 1.88.493.453 1.1.68 1.82.68 1.04 0 1.78-.447 2.22-1.34h3.02c-.32 1.066-.933 1.946-1.84 2.64-.907.68-2.02 1.02-3.34 1.02-1.067 0-2.027-.234-2.88-.7a5.156 5.156 0 01-1.98-2.02c-.467-.867-.7-1.867-.7-3 0-1.147.233-2.154.7-3.02a4.88 4.88 0 011.96-2c.84-.467 1.807-.7 2.9-.7 1.053 0 1.993.226 2.82.68.84.453 1.487 1.1 1.94 1.94.467.826.7 1.78.7 2.86zm-2.9-.8c-.013-.72-.273-1.294-.78-1.72-.507-.44-1.127-.66-1.86-.66-.693 0-1.28.213-1.76.64-.467.413-.753.993-.86 1.74h5.26zm15.736.8c0 .4-.027.76-.08 1.08h-8.1c.066.8.346 1.426.84 1.88.493.453 1.1.68 1.82.68 1.04 0 1.78-.447 2.22-1.34h3.02c-.32 1.066-.934 1.946-1.84 2.64-.907.68-2.02 1.02-3.34 1.02-1.067 0-2.027-.234-2.88-.7a5.156 5.156 0 01-1.98-2.02c-.467-.867-.7-1.867-.7-3 0-1.147.233-2.154.7-3.02a4.874 4.874 0 011.96-2c.84-.467 1.806-.7 2.9-.7 1.053 0 1.993.226 2.82.68.84.453 1.486 1.1 1.94 1.94.466.826.7 1.78.7 2.86zm-2.9-.8c-.014-.72-.274-1.294-.78-1.72-.507-.44-1.127-.66-1.86-.66-.694 0-1.28.213-1.76.64-.467.413-.754.993-.86 1.74h5.26zm8.695-2.2v5.36c0 .373.087.646.26.82.187.16.493.24.92.24h1.3V212h-1.76c-2.36 0-3.54-1.147-3.54-3.44v-5.34h-1.32v-2.3h1.32v-2.74h2.82v2.74h2.48v2.3h-2.48zm15.163 8.96c-1.066 0-2.026-.234-2.88-.7a5.262 5.262 0 01-2.02-2.02c-.48-.867-.72-1.867-.72-3 0-1.134.247-2.134.74-3a5.21 5.21 0 012.06-2c.867-.48 1.834-.72 2.9-.72 1.067 0 2.034.24 2.9.72a5.066 5.066 0 012.04 2c.507.866.76 1.866.76 3 0 1.133-.26 2.133-.78 3a5.315 5.315 0 01-2.08 2.02c-.866.466-1.84.7-2.92.7zm0-2.44c.507 0 .98-.12 1.42-.36a2.734 2.734 0 001.08-1.12c.267-.494.4-1.094.4-1.8 0-1.054-.28-1.86-.84-2.42-.546-.574-1.22-.86-2.02-.86s-1.473.286-2.02.86c-.533.56-.8 1.366-.8 2.42 0 1.053.26 1.866.78 2.44.534.56 1.2.84 2 .84zm18.786-8.82V212h-2.82v-1.4c-.36.48-.833.86-1.42 1.14-.573.266-1.2.4-1.88.4-.867 0-1.633-.18-2.3-.54a4.03 4.03 0 01-1.58-1.62c-.373-.72-.56-1.574-.56-2.56v-6.5h2.8v6.1c0 .88.22 1.56.66 2.04.44.466 1.04.7 1.8.7.773 0 1.38-.234 1.82-.7.44-.48.66-1.16.66-2.04v-6.1h2.82zm6.054 1.72a3.96 3.96 0 011.4-1.38c.587-.334 1.254-.5 2-.5v2.94h-.74c-.88 0-1.546.206-2 .62-.44.413-.66 1.133-.66 2.16V212h-2.8v-11.08h2.8v1.72zm17.176-1.88c1.32 0 2.386.42 3.2 1.26.813.826 1.22 1.986 1.22 3.48v6.5h-2.8v-6.12c0-.88-.22-1.554-.66-2.02-.44-.48-1.04-.72-1.8-.72-.774 0-1.387.24-1.84.72-.44.466-.66 1.14-.66 2.02V212h-2.8v-11.08h2.8v1.38c.373-.48.846-.854 1.42-1.12a4.395 4.395 0 011.92-.42zm17.874 5.46c0 .4-.027.76-.08 1.08h-8.1c.067.8.347 1.426.84 1.88.493.453 1.1.68 1.82.68 1.04 0 1.78-.447 2.22-1.34h3.02c-.32 1.066-.933 1.946-1.84 2.64-.907.68-2.02 1.02-3.34 1.02-1.067 0-2.027-.234-2.88-.7a5.156 5.156 0 01-1.98-2.02c-.467-.867-.7-1.867-.7-3 0-1.147.233-2.154.7-3.02a4.88 4.88 0 011.96-2c.84-.467 1.807-.7 2.9-.7 1.053 0 1.993.226 2.82.68.84.453 1.487 1.1 1.94 1.94.467.826.7 1.78.7 2.86zm-2.9-.8c-.013-.72-.273-1.294-.78-1.72-.507-.44-1.127-.66-1.86-.66-.693 0-1.28.213-1.76.64-.467.413-.753.993-.86 1.74h5.26zm20.795-4.5l-3.24 11.08h-3.02l-2.02-7.74-2.02 7.74h-3.04l-3.26-11.08h2.84l1.96 8.44 2.12-8.44h2.96l2.08 8.42 1.96-8.42h2.68zm10.525 2.3v5.36c0 .373.086.646.26.82.186.16.493.24.92.24h1.3V212h-1.76c-2.36 0-3.54-1.147-3.54-3.44v-5.34h-1.32v-2.3h1.32v-2.74h2.82v2.74h2.48v2.3h-2.48zm15.285 3c0 .4-.026.76-.08 1.08h-8.1c.067.8.347 1.426.84 1.88.494.453 1.1.68 1.82.68 1.04 0 1.78-.447 2.22-1.34h3.02c-.32 1.066-.933 1.946-1.84 2.64-.906.68-2.02 1.02-3.34 1.02-1.066 0-2.026-.234-2.88-.7a5.156 5.156 0 01-1.98-2.02c-.466-.867-.7-1.867-.7-3 0-1.147.234-2.154.7-3.02a4.88 4.88 0 011.96-2c.84-.467 1.807-.7 2.9-.7 1.054 0 1.994.226 2.82.68.84.453 1.487 1.1 1.94 1.94.467.826.7 1.78.7 2.86zm-2.9-.8c-.013-.72-.273-1.294-.78-1.72-.506-.44-1.126-.66-1.86-.66-.693 0-1.28.213-1.76.64-.466.413-.753.993-.86 1.74h5.26zm4.716 1c0-1.12.22-2.114.66-2.98.453-.867 1.06-1.534 1.82-2a4.892 4.892 0 012.58-.7c.827 0 1.547.166 2.16.5.627.333 1.127.753 1.5 1.26v-1.58h2.82V212h-2.82v-1.62c-.36.52-.86.953-1.5 1.3-.627.333-1.353.5-2.18.5-.933 0-1.787-.24-2.56-.72-.76-.48-1.367-1.154-1.82-2.02-.44-.88-.66-1.887-.66-3.02zm8.72.04c0-.68-.133-1.26-.4-1.74a2.735 2.735 0 00-1.08-1.12c-.453-.267-.94-.4-1.46-.4s-1 .126-1.44.38c-.44.253-.8.626-1.08 1.12-.267.48-.4 1.053-.4 1.72 0 .666.133 1.253.4 1.76.28.493.64.873 1.08 1.14a2.8 2.8 0 001.44.4c.52 0 1.007-.127 1.46-.38.453-.267.813-.64 1.08-1.12.267-.494.4-1.08.4-1.76zm19.806-5.7c1.36 0 2.454.42 3.28 1.26.84.826 1.26 1.986 1.26 3.48v6.5h-2.8v-6.12c0-.867-.22-1.527-.66-1.98-.44-.467-1.04-.7-1.8-.7s-1.366.233-1.82.7c-.44.453-.66 1.113-.66 1.98V212h-2.8v-6.12c0-.867-.22-1.527-.66-1.98-.44-.467-1.04-.7-1.8-.7-.773 0-1.386.233-1.84.7-.44.453-.66 1.113-.66 1.98V212h-2.8v-11.08h2.8v1.34c.36-.467.82-.834 1.38-1.1a4.4 4.4 0 011.88-.4c.867 0 1.64.186 2.32.56.68.36 1.207.88 1.58 1.56.36-.64.88-1.154 1.56-1.54a4.523 4.523 0 012.24-.58zm26.707 0c1.36 0 2.453.42 3.28 1.26.84.826 1.26 1.986 1.26 3.48v6.5h-2.8v-6.12c0-.867-.22-1.527-.66-1.98-.44-.467-1.04-.7-1.8-.7s-1.367.233-1.82.7c-.44.453-.66 1.113-.66 1.98V212h-2.8v-6.12c0-.867-.22-1.527-.66-1.98-.44-.467-1.04-.7-1.8-.7-.774 0-1.387.233-1.84.7-.44.453-.66 1.113-.66 1.98V212h-2.8v-11.08h2.8v1.34c.36-.467.82-.834 1.38-1.1.573-.267 1.2-.4 1.88-.4.866 0 1.64.186 2.32.56.68.36 1.206.88 1.58 1.56.36-.64.88-1.154 1.56-1.54a4.52 4.52 0 012.24-.58zm17.988 5.46c0 .4-.026.76-.08 1.08h-8.1c.067.8.347 1.426.84 1.88.494.453 1.1.68 1.82.68 1.04 0 1.78-.447 2.22-1.34h3.02c-.32 1.066-.933 1.946-1.84 2.64-.906.68-2.02 1.02-3.34 1.02-1.066 0-2.026-.234-2.88-.7a5.156 5.156 0 01-1.98-2.02c-.466-.867-.7-1.867-.7-3 0-1.147.234-2.154.7-3.02a4.88 4.88 0 011.96-2c.84-.467 1.807-.7 2.9-.7 1.054 0 1.994.226 2.82.68.84.453 1.487 1.1 1.94 1.94.467.826.7 1.78.7 2.86zm-2.9-.8c-.013-.72-.273-1.294-.78-1.72-.506-.44-1.126-.66-1.86-.66-.693 0-1.28.213-1.76.64-.466.413-.753.993-.86 1.74h5.26zm19.196-4.66c1.36 0 2.453.42 3.28 1.26.84.826 1.26 1.986 1.26 3.48v6.5h-2.8v-6.12c0-.867-.22-1.527-.66-1.98-.44-.467-1.04-.7-1.8-.7s-1.367.233-1.82.7c-.44.453-.66 1.113-.66 1.98V212h-2.8v-6.12c0-.867-.22-1.527-.66-1.98-.44-.467-1.04-.7-1.8-.7-.773 0-1.387.233-1.84.7-.44.453-.66 1.113-.66 1.98V212h-2.8v-11.08h2.8v1.34c.36-.467.82-.834 1.38-1.1.573-.267 1.2-.4 1.88-.4.867 0 1.64.186 2.32.56.68.36 1.207.88 1.58 1.56.36-.64.88-1.154 1.56-1.54a4.52 4.52 0 012.24-.58zm10.489 1.78c.36-.534.853-.967 1.48-1.3.64-.334 1.366-.5 2.18-.5.946 0 1.8.233 2.56.7.773.466 1.38 1.133 1.82 2 .453.853.68 1.846.68 2.98 0 1.133-.227 2.14-.68 3.02-.44.866-1.047 1.54-1.82 2.02-.76.48-1.614.72-2.56.72-.827 0-1.554-.16-2.18-.48a4.332 4.332 0 01-1.48-1.28V212h-2.8v-14.8h2.8v5.34zm5.86 3.88c0-.667-.14-1.24-.42-1.72a2.735 2.735 0 00-1.08-1.12 2.83 2.83 0 00-1.44-.38 2.79 2.79 0 00-1.44.4c-.44.253-.8.626-1.08 1.12-.267.493-.4 1.073-.4 1.74 0 .666.133 1.246.4 1.74.28.493.64.873 1.08 1.14.453.253.933.38 1.44.38.52 0 1-.134 1.44-.4a2.884 2.884 0 001.08-1.14c.28-.494.42-1.08.42-1.76zm15.686-.2c0 .4-.026.76-.08 1.08h-8.1c.067.8.347 1.426.84 1.88.494.453 1.1.68 1.82.68 1.04 0 1.78-.447 2.22-1.34h3.02c-.32 1.066-.933 1.946-1.84 2.64-.906.68-2.02 1.02-3.34 1.02-1.066 0-2.026-.234-2.88-.7a5.156 5.156 0 01-1.98-2.02c-.466-.867-.7-1.867-.7-3 0-1.147.234-2.154.7-3.02a4.88 4.88 0 011.96-2c.84-.467 1.807-.7 2.9-.7 1.054 0 1.994.226 2.82.68.84.453 1.487 1.1 1.94 1.94.467.826.7 1.78.7 2.86zm-2.9-.8c-.013-.72-.273-1.294-.78-1.72-.506-.44-1.126-.66-1.86-.66-.693 0-1.28.213-1.76.64-.466.413-.753.993-.86 1.74h5.26zm8.236-2.78a3.952 3.952 0 011.4-1.38c.586-.334 1.253-.5 2-.5v2.94h-.74c-.88 0-1.547.206-2 .62-.44.413-.66 1.133-.66 2.16V212h-2.8v-11.08h2.8v1.72zm9.398-4.84l-.32 9.66h-2.36l-.34-9.66h3.02zm-1.44 14.34c-.507 0-.927-.154-1.26-.46-.32-.32-.48-.714-.48-1.18 0-.467.16-.854.48-1.16.333-.32.753-.48 1.26-.48.493 0 .9.16 1.22.48.32.306.48.693.48 1.16 0 .466-.16.86-.48 1.18-.32.306-.727.46-1.22.46z" fill="#251A3F"/>
  <rect x="250" y="234.5" width="479" height="21" rx="10.5" fill="#F1F1F1"/>
  <rect x="250" y="273" width="479" height="21" rx="10.5" fill="#F1F1F1"/>
  <rect x="250" y="311.5" width="326" height="21" rx="10.5" fill="#F1F1F1"/>
  <path d="M320.274 366c2.106 0 3.412-1.094 3.412-2.824 0-1.271-.951-2.256-2.256-2.351v-.123c1.011-.151 1.784-1.06 1.784-2.106 0-1.524-1.142-2.461-3.056-2.461h-4.313V366h4.429zm-2.365-8.286h1.723c.984 0 1.552.472 1.552 1.258 0 .793-.609 1.251-1.723 1.251h-1.552v-2.509zm0 6.706v-2.802h1.791c1.217 0 1.88.478 1.88 1.381 0 .922-.642 1.421-1.832 1.421h-1.839zm11.197-4.6c.93 0 1.531.622 1.572 1.62h-3.213c.069-.978.718-1.62 1.641-1.62zm1.613 4.033c-.212.499-.752.779-1.538.779-1.039 0-1.695-.697-1.722-1.818v-.103h5.174v-.608c0-2.393-1.312-3.808-3.534-3.808-2.242 0-3.623 1.518-3.623 3.972 0 2.447 1.354 3.897 3.651 3.897 1.845 0 3.151-.896 3.445-2.311h-1.853zm4.04 2.147h1.989v-4.348c0-.991.568-1.641 1.49-1.641.944 0 1.388.547 1.388 1.586V366h1.989v-4.875c0-1.804-.902-2.83-2.577-2.83-1.114 0-1.88.527-2.228 1.374h-.123v-1.21h-1.928V366zm9.112-5.326c0 1.162.711 1.86 2.174 2.181l1.367.308c.663.143.95.369.95.738 0 .485-.533.807-1.306.807-.793 0-1.278-.294-1.428-.807h-1.942c.137 1.449 1.34 2.263 3.329 2.263 1.976 0 3.323-.985 3.323-2.489 0-1.128-.657-1.743-2.119-2.064l-1.416-.308c-.697-.157-1.018-.383-1.018-.752 0-.478.526-.8 1.237-.8.739 0 1.197.301 1.299.787h1.839c-.109-1.443-1.237-2.243-3.151-2.243-1.88 0-3.138.951-3.138 2.379zm11.935 5.49c2.317 0 3.712-1.47 3.712-3.938 0-2.447-1.415-3.931-3.712-3.931s-3.712 1.491-3.712 3.931c0 2.468 1.395 3.938 3.712 3.938zm0-1.627c-1.066 0-1.668-.841-1.668-2.311 0-1.449.608-2.304 1.668-2.304 1.053 0 1.668.855 1.668 2.304 0 1.463-.608 2.311-1.668 2.311zm5.831 1.463h1.989v-4.348c0-.991.567-1.641 1.49-1.641.944 0 1.388.547 1.388 1.586V366h1.989v-4.875c0-1.804-.902-2.83-2.577-2.83-1.114 0-1.88.527-2.229 1.374h-.123v-1.21h-1.927V366zm19.919 0h2.235l-3.425-9.865h-2.426L374.515 366h2.071l.759-2.352h3.466l.745 2.352zm-2.53-7.814h.124l1.223 3.869h-2.584l1.237-3.869zm9.03 7.93c1.046 0 1.901-.486 2.304-1.299h.123V366h1.928v-10.418h-1.989v4.081h-.117c-.389-.834-1.23-1.327-2.249-1.327-1.893 0-3.069 1.484-3.069 3.883 0 2.406 1.169 3.897 3.069 3.897zm.677-6.112c1.06 0 1.709.855 1.709 2.229 0 1.381-.642 2.222-1.709 2.222-1.066 0-1.702-.834-1.702-2.229 0-1.381.643-2.222 1.702-2.222zm8.955 4.615c-.691 0-1.176-.342-1.176-.903 0-.54.417-.847 1.271-.909l1.525-.096v.554c0 .766-.697 1.354-1.62 1.354zm-.656 1.497c.977 0 1.797-.41 2.187-1.101h.123V366h1.928v-5.148c0-1.613-1.128-2.557-3.124-2.557-1.894 0-3.172.875-3.302 2.27h1.832c.164-.451.643-.697 1.36-.697.821 0 1.272.355 1.272.984v.615l-1.825.11c-1.873.109-2.919.902-2.919 2.269 0 1.381 1.018 2.27 2.468 2.27zm6.685-.116h1.989v-4.54c0-.84.554-1.449 1.333-1.449.779 0 1.244.458 1.244 1.258V366h1.914v-4.615c0-.8.52-1.374 1.326-1.374.841 0 1.258.445 1.258 1.34V366h1.989v-5.175c0-1.552-.936-2.53-2.44-2.53-1.053 0-1.921.554-2.27 1.395h-.123c-.3-.875-1.025-1.395-2.085-1.395-.991 0-1.777.534-2.085 1.395h-.123v-1.231h-1.927V366zm13.309-5.326c0 1.162.711 1.86 2.174 2.181l1.367.308c.663.143.95.369.95.738 0 .485-.533.807-1.306.807-.793 0-1.278-.294-1.428-.807h-1.942c.137 1.449 1.34 2.263 3.329 2.263 1.976 0 3.323-.985 3.323-2.489 0-1.128-.657-1.743-2.119-2.064l-1.416-.308c-.697-.157-1.018-.383-1.018-.752 0-.478.526-.8 1.237-.8.739 0 1.197.301 1.299.787h1.839c-.109-1.443-1.237-2.243-3.151-2.243-1.88 0-3.138.951-3.138 2.379z" fill="#029D7F"/>
  <path d="M316.289 389h.998l4.519-8.99v-.875h-6.426v.841h5.469v.075l-4.56 8.949zm8.018 0h.896v-4.375c0-1.354.868-2.304 2.262-2.304 1.231 0 1.901.731 1.901 2.119V389h.895v-4.786c0-1.702-.984-2.7-2.556-2.7-1.176 0-2.024.54-2.42 1.449h-.082v-4.258h-.896V389zm15.175-.67c-.991 0-1.709-.534-1.709-1.381 0-.841.602-1.306 1.853-1.395l2.18-.157v.861c0 1.169-1.004 2.072-2.324 2.072zm-.15.793c1.08 0 1.982-.513 2.433-1.388h.082V389h.862v-5.032c0-1.551-1.005-2.454-2.728-2.454-1.524 0-2.666.752-2.837 1.942h.909c.178-.732.903-1.142 1.901-1.142 1.189 0 1.852.581 1.852 1.661v.691l-2.303.15c-1.702.116-2.653.861-2.653 2.146 0 1.32 1.039 2.161 2.482 2.161zm9.05-.998c-1.47 0-2.358-1.156-2.358-2.899 0-1.75.888-2.905 2.358-2.905 1.456 0 2.393 1.169 2.393 2.919 0 1.743-.916 2.885-2.393 2.885zm.075 3.636c1.935 0 3.2-1.053 3.2-2.652v-7.472h-.862v1.456h-.082c-.403-.957-1.381-1.579-2.509-1.579-1.886 0-3.103 1.504-3.103 3.712s1.21 3.698 3.103 3.698c1.128 0 2.031-.567 2.468-1.538h.089v1.655c0 1.189-.882 1.934-2.304 1.934-1.121 0-1.886-.437-2.05-1.114h-.951c.192 1.148 1.313 1.9 3.001 1.9zm8.969-2.638c2.057 0 3.349-1.456 3.349-3.808s-1.292-3.801-3.349-3.801c-2.058 0-3.343 1.449-3.343 3.801 0 2.352 1.285 3.808 3.343 3.808zm0-.814c-1.518 0-2.42-1.128-2.42-2.994 0-1.866.902-2.994 2.42-2.994 1.517 0 2.42 1.128 2.42 2.994 0 1.866-.903 2.994-2.42 2.994zm12.051-1.319c1.005 0 1.804-.8 1.804-1.812a1.79 1.79 0 00-1.804-1.804 1.792 1.792 0 00-1.812 1.804c0 1.012.8 1.812 1.812 1.812zm12.604 2.01h.766l.588-2.865h1.9l.144-.759h-1.894l.547-2.7h1.839l.144-.752h-1.826l.581-2.802h-.758l-.588 2.802h-2.454l.567-2.802h-.752l-.588 2.802h-1.77l-.151.752h1.771l-.54 2.7h-1.709l-.151.759h1.696l-.581 2.865h.752l.587-2.865h2.468l-.588 2.865zm-1.722-3.61l.547-2.721h2.467l-.54 2.721h-2.474zm13.534-2.919h.11l1.866 6.529h1.935l2.618-9.865h-2.133l-1.524 6.952h-.11l-1.832-6.952h-1.743l-1.798 6.952h-.109l-1.538-6.952h-2.147l2.611 9.865h1.949l1.845-6.529zm8.634 6.529h1.989v-7.541h-1.989V389zm.998-8.668c.622 0 1.128-.506 1.128-1.142 0-.636-.506-1.135-1.128-1.135a1.13 1.13 0 00-1.128 1.135c0 .636.513 1.142 1.128 1.142zm3.499 8.668h1.99v-4.348c0-.991.567-1.641 1.49-1.641.943 0 1.388.547 1.388 1.586V389h1.989v-4.875c0-1.804-.902-2.83-2.577-2.83-1.114 0-1.88.527-2.229 1.374h-.123v-1.21h-1.928V389zm9.112-5.326c0 1.162.711 1.86 2.174 2.181l1.367.308c.663.143.951.369.951.738 0 .485-.534.807-1.306.807-.793 0-1.278-.294-1.429-.807h-1.941c.137 1.449 1.34 2.263 3.329 2.263 1.975 0 3.322-.985 3.322-2.489 0-1.128-.656-1.743-2.119-2.064l-1.415-.308c-.697-.157-1.019-.383-1.019-.752 0-.478.527-.8 1.238-.8.738 0 1.196.301 1.299.787h1.838c-.109-1.443-1.237-2.243-3.151-2.243-1.88 0-3.138.951-3.138 2.379zM432.35 389h1.518l.52-2.584h1.661l.28-1.518h-1.648l.37-1.791h1.633l.281-1.504h-1.614l.499-2.475h-1.517l-.506 2.475h-1.764l.492-2.475h-1.51l-.506 2.475h-1.579l-.287 1.504h1.579l-.369 1.791h-1.552l-.28 1.518h1.538l-.52 2.584h1.511l.519-2.584h1.778L432.35 389zm-1.08-3.965l.424-2.058h1.969l-.431 2.058h-1.962zM449.262 389v-9.865h-2.427l-2.734 6.658h-.123l-2.728-6.658h-2.433V389h1.914v-6.597h.109l2.516 6.063h1.374l2.509-6.063h.109V389h1.914zm5.947-6.18c.93 0 1.531.622 1.572 1.62h-3.213c.069-.978.718-1.62 1.641-1.62zm1.613 4.033c-.212.499-.752.779-1.538.779-1.039 0-1.695-.697-1.722-1.818v-.103h5.174v-.608c0-2.393-1.312-3.808-3.534-3.808-2.242 0-3.623 1.518-3.623 3.972 0 2.447 1.354 3.897 3.65 3.897 1.846 0 3.152-.896 3.446-2.311h-1.853zm4.607-7.185v1.867h-1.175v1.565h1.175v3.862c0 1.47.725 2.065 2.557 2.065.383 0 .752-.041.998-.089v-1.518a4.73 4.73 0 01-.588.028c-.677 0-.977-.301-.977-.957V383.1h1.565v-1.565h-1.565v-1.867h-1.99zm5.708 9.332h1.989v-4.177c0-1.06.745-1.702 1.832-1.702.321 0 .786.061.944.123v-1.812c-.171-.061-.506-.096-.78-.096-.957 0-1.736.575-1.934 1.327h-.123v-1.204h-1.928V389zm6.603 0h1.989v-7.541h-1.989V389zm.998-8.668c.622 0 1.128-.506 1.128-1.142 0-.636-.506-1.135-1.128-1.135a1.13 1.13 0 00-1.128 1.135c0 .636.513 1.142 1.128 1.142zm10.172 3.787c-.165-1.716-1.361-2.824-3.357-2.824-2.358 0-3.684 1.415-3.684 3.917 0 2.53 1.333 3.952 3.684 3.952 1.962 0 3.192-1.087 3.357-2.776h-1.86c-.15.745-.683 1.142-1.497 1.142-1.066 0-1.675-.814-1.675-2.318 0-1.483.602-2.283 1.675-2.283.848 0 1.36.472 1.497 1.19h1.86zm1.879-.445c0 1.162.711 1.86 2.174 2.181l1.367.308c.663.143.95.369.95.738 0 .485-.533.807-1.305.807-.793 0-1.279-.294-1.429-.807h-1.942c.137 1.449 1.34 2.263 3.33 2.263 1.975 0 3.322-.985 3.322-2.489 0-1.128-.656-1.743-2.119-2.064l-1.415-.308c-.698-.157-1.019-.383-1.019-.752 0-.478.526-.8 1.237-.8.739 0 1.197.301 1.299.787h1.839c-.109-1.443-1.237-2.243-3.151-2.243-1.88 0-3.138.951-3.138 2.379z" fill="#251A3F"/>
  <path d="M275 398.03c14.059 0 25.5-10.84 25.5-24.265S289.059 349.5 275 349.5s-25.5 10.84-25.5 24.265 11.441 24.265 25.5 24.265z" fill="#3679A9" stroke="#E0E0E0"/>
  <path d="M268.793 381c3.018 0 4.922-1.592 4.922-4.063 0-1.875-1.504-3.291-3.408-3.379v-.078c1.562-.215 2.754-1.475 2.754-3.057 0-2.177-1.67-3.515-4.444-3.515h-6.553V381h6.729zm-3.145-11.553h2.022c1.201 0 1.904.586 1.904 1.572 0 1.016-.781 1.631-2.08 1.631h-1.846v-3.203zm0 9.013v-3.632h2.11c1.474 0 2.314.644 2.314 1.797 0 1.191-.82 1.835-2.295 1.835h-2.129zm19.34 2.54h3.808l-4.736-14.092h-4.385L274.939 381h3.652l.899-3.096h4.609l.889 3.096zm-3.233-11.104h.079l1.562 5.43h-3.213l1.572-5.43z" fill="#fff"/>
  <path fill-rule="evenodd" clip-rule="evenodd" d="M626 357c-9.389 0-17 7.611-17 17 0 9.388 7.611 17 17 17h86c9.389 0 17-7.612 17-17 0-9.389-7.611-17-17-17h-86z" fill="#fff" stroke="#251A3F"/>
  <path d="M631.42 369.509h-4.69v2.786c.196-.261.485-.48.868-.658a2.992 2.992 0 011.246-.266c.784 0 1.419.168 1.904.504.495.336.845.761 1.05 1.274.215.514.322 1.055.322 1.624 0 .691-.135 1.307-.406 1.848a2.92 2.92 0 01-1.19 1.26c-.523.308-1.167.462-1.932.462-1.017 0-1.834-.252-2.45-.756-.616-.504-.985-1.171-1.106-2.002h1.554c.103.439.331.789.686 1.05.355.252.798.378 1.33.378.663 0 1.157-.2 1.484-.602.336-.401.504-.933.504-1.596 0-.672-.168-1.185-.504-1.54-.336-.364-.831-.546-1.484-.546-.457 0-.845.117-1.162.35a1.897 1.897 0 00-.672.924h-1.512v-5.894h6.16v1.4zm3.735 6.664a54.215 54.215 0 002.114-1.904 8.61 8.61 0 001.302-1.568c.346-.541.518-1.082.518-1.624 0-.56-.135-.998-.406-1.316-.261-.317-.676-.476-1.246-.476-.55 0-.98.178-1.288.532-.298.346-.457.812-.476 1.4h-1.54c.028-1.064.346-1.876.952-2.436.616-.569 1.396-.854 2.338-.854 1.018 0 1.811.28 2.38.84.579.56.868 1.307.868 2.24 0 .672-.172 1.321-.518 1.946a7.708 7.708 0 01-1.218 1.666 30.86 30.86 0 01-1.792 1.694l-.63.56h4.438v1.33h-6.804v-1.162l1.008-.868zm17.083 2.17l-2.24-3.892h-1.218v3.892h-1.596v-9.73h3.36c.746 0 1.376.131 1.89.392.522.262.91.612 1.162 1.05.261.439.392.929.392 1.47a2.92 2.92 0 01-.56 1.736c-.364.514-.929.864-1.694 1.05l2.408 4.032h-1.904zm-3.458-5.166h1.764c.597 0 1.045-.149 1.344-.448.308-.298.462-.7.462-1.204s-.15-.896-.448-1.176c-.299-.289-.752-.434-1.358-.434h-1.764v3.262zm14.811 1.12c0 .29-.019.551-.056.784h-5.894c.047.616.275 1.111.686 1.484.411.374.915.56 1.512.56.859 0 1.465-.359 1.82-1.078h1.722a3.492 3.492 0 01-1.274 1.75c-.607.448-1.363.672-2.268.672-.737 0-1.4-.163-1.988-.49a3.655 3.655 0 01-1.372-1.4c-.327-.606-.49-1.306-.49-2.1 0-.793.159-1.488.476-2.086a3.45 3.45 0 011.358-1.4c.588-.326 1.26-.49 2.016-.49.728 0 1.377.159 1.946.476a3.36 3.36 0 011.33 1.344c.317.57.476 1.228.476 1.974zm-1.666-.504c-.009-.588-.219-1.059-.63-1.414-.411-.354-.919-.532-1.526-.532-.551 0-1.022.178-1.414.532-.392.346-.625.817-.7 1.414h4.27zm5.324-2.03c.271-.354.64-.653 1.106-.896a3.387 3.387 0 011.582-.364 3.45 3.45 0 011.834.504c.56.327.999.789 1.316 1.386.318.598.476 1.284.476 2.058 0 .775-.158 1.47-.476 2.086a3.595 3.595 0 01-1.316 1.428 3.45 3.45 0 01-1.834.504c-.588 0-1.11-.116-1.568-.35a3.594 3.594 0 01-1.12-.896v4.788h-1.596v-11.382h1.596v1.134zm4.69 2.688c0-.532-.112-.989-.336-1.372a2.134 2.134 0 00-.868-.882 2.253 2.253 0 00-1.148-.308c-.401 0-.784.103-1.148.308a2.369 2.369 0 00-.868.896c-.214.392-.322.854-.322 1.386 0 .532.108.999.322 1.4.224.392.514.691.868.896a2.297 2.297 0 002.296 0c.364-.214.654-.522.868-.924.224-.401.336-.868.336-1.4zm5.291-6.468v10.36h-1.596v-10.36h1.596zm3.399 1.624a.988.988 0 01-.728-.294.988.988 0 01-.294-.728.99.99 0 01.294-.728.988.988 0 01.728-.294c.28 0 .518.098.714.294a.99.99 0 01.294.728c0 .29-.098.532-.294.728a.972.972 0 01-.714.294zm.784 1.022v7.714h-1.596v-7.714h1.596zm9.657 3.668c0 .29-.019.551-.056.784h-5.894c.047.616.275 1.111.686 1.484.411.374.915.56 1.512.56.859 0 1.465-.359 1.82-1.078h1.722a3.492 3.492 0 01-1.274 1.75c-.607.448-1.363.672-2.268.672-.737 0-1.4-.163-1.988-.49a3.655 3.655 0 01-1.372-1.4c-.327-.606-.49-1.306-.49-2.1 0-.793.159-1.488.476-2.086a3.45 3.45 0 011.358-1.4c.588-.326 1.26-.49 2.016-.49.728 0 1.377.159 1.946.476a3.36 3.36 0 011.33 1.344c.317.57.476 1.228.476 1.974zm-1.666-.504c-.009-.588-.219-1.059-.63-1.414-.411-.354-.919-.532-1.526-.532-.551 0-1.022.178-1.414.532-.392.346-.625.817-.7 1.414h4.27zm6.528 4.676a4.007 4.007 0 01-1.638-.322 2.953 2.953 0 01-1.134-.896 2.267 2.267 0 01-.448-1.274h1.652c.028.327.182.602.462.826.29.215.649.322 1.078.322.448 0 .794-.084 1.036-.252.252-.177.378-.401.378-.672 0-.289-.14-.504-.42-.644-.27-.14-.704-.294-1.302-.462a12.408 12.408 0 01-1.414-.462 2.537 2.537 0 01-.952-.686c-.261-.308-.392-.714-.392-1.218 0-.41.122-.784.364-1.12.243-.345.588-.616 1.036-.812.458-.196.98-.294 1.568-.294.878 0 1.582.224 2.114.672.542.439.831 1.041.868 1.806h-1.596a1.139 1.139 0 00-.42-.826c-.252-.205-.592-.308-1.022-.308-.42 0-.742.08-.966.238a.738.738 0 00-.336.63c0 .206.075.378.224.518.15.14.332.252.546.336.215.075.532.173.952.294.56.15 1.018.304 1.372.462.364.15.677.374.938.672.262.299.397.696.406 1.19 0 .439-.121.831-.364 1.176-.242.346-.588.616-1.036.812-.438.196-.956.294-1.554.294z" fill="#251A3F"/>
  <g filter="url(#xRLK-QIDac)">
    <path fill-rule="evenodd" clip-rule="evenodd" d="M116 262a8 8 0 018-8h500a8 8 0 018 8v246a8 8 0 01-8 8H124a8 8 0 01-8-8.001V262z" fill="#fff"/>
    <path d="M116.5 262a7.5 7.5 0 017.5-7.5h500a7.5 7.5 0 017.5 7.5v246a7.5 7.5 0 01-7.5 7.5H124a7.5 7.5 0 01-7.5-7.501V262z" stroke="#D8D8D8"/>
  </g>
  <path fill="#fff" d="M134 287h480v217H134z"/>
  <path d="M143.94 305.34h-5.56l-.92 2.66h-2.94l5.02-13.98h3.26l5.02 13.98h-2.96l-.92-2.66zm-.76-2.24l-2.02-5.84-2.02 5.84h4.04zm6.288-.68c0-1.12.22-2.114.66-2.98.454-.867 1.067-1.534 1.84-2a4.897 4.897 0 012.58-.7c.72 0 1.407.16 2.06.48.654.306 1.174.72 1.56 1.24v-5.26h2.84V308h-2.84v-1.64c-.346.546-.833.986-1.46 1.32-.626.333-1.353.5-2.18.5-.933 0-1.786-.24-2.56-.72-.773-.48-1.386-1.154-1.84-2.02-.44-.88-.66-1.887-.66-3.02zm8.72.04c0-.68-.133-1.26-.4-1.74a2.722 2.722 0 00-1.08-1.12c-.453-.267-.94-.4-1.46-.4s-1 .126-1.44.38c-.44.253-.8.626-1.08 1.12-.266.48-.4 1.053-.4 1.72 0 .666.134 1.253.4 1.76.28.493.64.873 1.08 1.14.454.266.934.4 1.44.4.52 0 1.007-.127 1.46-.38.454-.267.814-.64 1.08-1.12.267-.494.4-1.08.4-1.76zm5.327-.04c0-1.12.22-2.114.66-2.98.453-.867 1.066-1.534 1.84-2a4.892 4.892 0 012.58-.7c.72 0 1.406.16 2.06.48.653.306 1.173.72 1.56 1.24v-5.26h2.84V308h-2.84v-1.64c-.347.546-.834.986-1.46 1.32-.627.333-1.354.5-2.18.5-.934 0-1.787-.24-2.56-.72-.774-.48-1.387-1.154-1.84-2.02-.44-.88-.66-1.887-.66-3.02zm8.72.04c0-.68-.134-1.26-.4-1.74a2.735 2.735 0 00-1.08-1.12 2.83 2.83 0 00-1.46-.4c-.52 0-1 .126-1.44.38-.44.253-.8.626-1.08 1.12-.267.48-.4 1.053-.4 1.72 0 .666.133 1.253.4 1.76.28.493.64.873 1.08 1.14a2.8 2.8 0 001.44.4 2.95 2.95 0 001.46-.38c.453-.267.813-.64 1.08-1.12.266-.494.4-1.08.4-1.76zm7.466-6.86c-.493 0-.907-.154-1.24-.46-.32-.32-.48-.714-.48-1.18 0-.467.16-.854.48-1.16.333-.32.747-.48 1.24-.48s.9.16 1.22.48c.333.306.5.693.5 1.16 0 .466-.167.86-.5 1.18-.32.306-.727.46-1.22.46zm1.38 1.32V308h-2.8v-11.08h2.8zm6.518 2.3v5.36c0 .373.087.646.26.82.187.16.494.24.92.24h1.3V308h-1.76c-2.36 0-3.54-1.147-3.54-3.44v-5.34h-1.32v-2.3h1.32v-2.74h2.82v2.74h2.48v2.3h-2.48zm6.406-3.62c-.493 0-.907-.154-1.24-.46-.32-.32-.48-.714-.48-1.18 0-.467.16-.854.48-1.16.333-.32.747-.48 1.24-.48s.9.16 1.22.48c.333.306.5.693.5 1.16 0 .466-.167.86-.5 1.18-.32.306-.727.46-1.22.46zm1.38 1.32V308h-2.8v-11.08h2.8zm8.178 11.26c-1.066 0-2.026-.234-2.88-.7a5.262 5.262 0 01-2.02-2.02c-.48-.867-.72-1.867-.72-3 0-1.134.247-2.134.74-3a5.21 5.21 0 012.06-2c.867-.48 1.834-.72 2.9-.72 1.067 0 2.034.24 2.9.72a5.066 5.066 0 012.04 2c.507.866.76 1.866.76 3 0 1.133-.26 2.133-.78 3a5.315 5.315 0 01-2.08 2.02c-.866.466-1.84.7-2.92.7zm0-2.44c.507 0 .98-.12 1.42-.36a2.734 2.734 0 001.08-1.12c.267-.494.4-1.094.4-1.8 0-1.054-.28-1.86-.84-2.42-.546-.574-1.22-.86-2.02-.86s-1.473.286-2.02.86c-.533.56-.8 1.366-.8 2.42 0 1.053.26 1.866.78 2.44.534.56 1.2.84 2 .84zm14.466-8.98c1.32 0 2.387.42 3.2 1.26.813.826 1.22 1.986 1.22 3.48v6.5h-2.8v-6.12c0-.88-.22-1.554-.66-2.02-.44-.48-1.04-.72-1.8-.72-.773 0-1.387.24-1.84.72-.44.466-.66 1.14-.66 2.02V308h-2.8v-11.08h2.8v1.38a3.79 3.79 0 011.42-1.12 4.402 4.402 0 011.92-.42zm6.854 5.66c0-1.12.22-2.114.66-2.98.454-.867 1.06-1.534 1.82-2a4.897 4.897 0 012.58-.7c.827 0 1.547.166 2.16.5.627.333 1.127.753 1.5 1.26v-1.58h2.82V308h-2.82v-1.62c-.36.52-.86.953-1.5 1.3-.626.333-1.353.5-2.18.5-.933 0-1.786-.24-2.56-.72-.76-.48-1.366-1.154-1.82-2.02-.44-.88-.66-1.887-.66-3.02zm8.72.04c0-.68-.133-1.26-.4-1.74a2.722 2.722 0 00-1.08-1.12c-.453-.267-.94-.4-1.46-.4s-1 .126-1.44.38c-.44.253-.8.626-1.08 1.12-.266.48-.4 1.053-.4 1.72 0 .666.134 1.253.4 1.76.28.493.64.873 1.08 1.14.454.266.934.4 1.44.4.52 0 1.007-.127 1.46-.38.454-.267.814-.64 1.08-1.12.267-.494.4-1.08.4-1.76zm8.847-9.26V308h-2.8v-14.8h2.8zm13.595 6.02h-1.94V308h-2.84v-8.78h-1.26v-2.3h1.26v-.56c0-1.36.387-2.36 1.16-3 .774-.64 1.94-.94 3.5-.9v2.36c-.68-.014-1.153.1-1.42.34-.266.24-.4.673-.4 1.3v.46h1.94v2.3zm12.607 3c0 .4-.027.76-.08 1.08h-8.1c.066.8.346 1.426.84 1.88.493.453 1.1.68 1.82.68 1.04 0 1.78-.447 2.22-1.34h3.02c-.32 1.066-.934 1.946-1.84 2.64-.907.68-2.02 1.02-3.34 1.02-1.067 0-2.027-.234-2.88-.7a5.156 5.156 0 01-1.98-2.02c-.467-.867-.7-1.867-.7-3 0-1.147.233-2.154.7-3.02a4.874 4.874 0 011.96-2c.84-.467 1.806-.7 2.9-.7 1.053 0 1.993.226 2.82.68.84.453 1.486 1.1 1.94 1.94.466.826.7 1.78.7 2.86zm-2.9-.8c-.014-.72-.274-1.294-.78-1.72-.507-.44-1.127-.66-1.86-.66-.694 0-1.28.213-1.76.64-.467.413-.754.993-.86 1.74h5.26zm15.735.8c0 .4-.026.76-.08 1.08h-8.1c.067.8.347 1.426.84 1.88.494.453 1.1.68 1.82.68 1.04 0 1.78-.447 2.22-1.34h3.02c-.32 1.066-.933 1.946-1.84 2.64-.906.68-2.02 1.02-3.34 1.02-1.066 0-2.026-.234-2.88-.7a5.156 5.156 0 01-1.98-2.02c-.466-.867-.7-1.867-.7-3 0-1.147.234-2.154.7-3.02a4.88 4.88 0 011.96-2c.84-.467 1.807-.7 2.9-.7 1.054 0 1.994.226 2.82.68.84.453 1.487 1.1 1.94 1.94.467.826.7 1.78.7 2.86zm-2.9-.8c-.013-.72-.273-1.294-.78-1.72-.506-.44-1.126-.66-1.86-.66-.693 0-1.28.213-1.76.64-.466.413-.753.993-.86 1.74h5.26zm4.716 1c0-1.12.22-2.114.66-2.98.453-.867 1.066-1.534 1.84-2a4.892 4.892 0 012.58-.7c.72 0 1.406.16 2.06.48.653.306 1.173.72 1.56 1.24v-5.26h2.84V308h-2.84v-1.64c-.347.546-.834.986-1.46 1.32-.627.333-1.354.5-2.18.5-.934 0-1.787-.24-2.56-.72-.774-.48-1.387-1.154-1.84-2.02-.44-.88-.66-1.887-.66-3.02zm8.72.04c0-.68-.134-1.26-.4-1.74a2.735 2.735 0 00-1.08-1.12 2.83 2.83 0 00-1.46-.4c-.52 0-1 .126-1.44.38-.44.253-.8.626-1.08 1.12-.267.48-.4 1.053-.4 1.72 0 .666.133 1.253.4 1.76.28.493.64.873 1.08 1.14a2.8 2.8 0 001.44.4 2.95 2.95 0 001.46-.38c.453-.267.813-.64 1.08-1.12.266-.494.4-1.08.4-1.76zm8.846-3.92c.36-.534.854-.967 1.48-1.3.64-.334 1.367-.5 2.18-.5.947 0 1.8.233 2.56.7.774.466 1.38 1.133 1.82 2 .454.853.68 1.846.68 2.98 0 1.133-.226 2.14-.68 3.02-.44.866-1.046 1.54-1.82 2.02-.76.48-1.613.72-2.56.72-.826 0-1.553-.16-2.18-.48a4.35 4.35 0 01-1.48-1.28V308h-2.8v-14.8h2.8v5.34zm5.86 3.88c0-.667-.14-1.24-.42-1.72a2.722 2.722 0 00-1.08-1.12 2.83 2.83 0 00-1.44-.38c-.506 0-.986.133-1.44.4-.44.253-.8.626-1.08 1.12-.266.493-.4 1.073-.4 1.74 0 .666.134 1.246.4 1.74.28.493.64.873 1.08 1.14.454.253.934.38 1.44.38.52 0 1-.134 1.44-.4a2.87 2.87 0 001.08-1.14c.28-.494.42-1.08.42-1.76zm4.667 0c0-1.12.22-2.114.66-2.98.453-.867 1.06-1.534 1.82-2a4.892 4.892 0 012.58-.7c.826 0 1.546.166 2.16.5.626.333 1.126.753 1.5 1.26v-1.58h2.82V308h-2.82v-1.62c-.36.52-.86.953-1.5 1.3-.627.333-1.354.5-2.18.5-.934 0-1.787-.24-2.56-.72-.76-.48-1.367-1.154-1.82-2.02-.44-.88-.66-1.887-.66-3.02zm8.72.04c0-.68-.134-1.26-.4-1.74a2.735 2.735 0 00-1.08-1.12 2.83 2.83 0 00-1.46-.4c-.52 0-1 .126-1.44.38-.44.253-.8.626-1.08 1.12-.267.48-.4 1.053-.4 1.72 0 .666.133 1.253.4 1.76.28.493.64.873 1.08 1.14a2.8 2.8 0 001.44.4 2.95 2.95 0 001.46-.38c.453-.267.813-.64 1.08-1.12.266-.494.4-1.08.4-1.76zm5.326 0c0-1.147.234-2.147.7-3a4.92 4.92 0 011.94-2c.827-.48 1.774-.72 2.84-.72 1.374 0 2.507.346 3.4 1.04.907.68 1.514 1.64 1.82 2.88h-3.02a2.132 2.132 0 00-.82-1.12c-.373-.28-.84-.42-1.4-.42-.8 0-1.433.293-1.9.88-.466.573-.7 1.393-.7 2.46 0 1.053.234 1.873.7 2.46.467.573 1.1.86 1.9.86 1.134 0 1.874-.507 2.22-1.52h3.02c-.306 1.2-.913 2.153-1.82 2.86-.906.706-2.04 1.06-3.4 1.06-1.066 0-2.013-.234-2.84-.7a5.099 5.099 0 01-1.94-2c-.466-.867-.7-1.874-.7-3.02zm19.803 5.54l-3.76-4.72V308h-2.8v-14.8h2.8v8.42l3.72-4.7h3.64l-4.88 5.56 4.92 5.52h-3.64zm15.949-8.78h-1.94V308h-2.84v-8.78h-1.26v-2.3h1.26v-.56c0-1.36.387-2.36 1.16-3 .773-.64 1.94-.94 3.5-.9v2.36c-.68-.014-1.153.1-1.42.34-.267.24-.4.673-.4 1.3v.46h1.94v2.3zm5.106-.58a3.96 3.96 0 011.4-1.38c.587-.334 1.254-.5 2-.5v2.94h-.74c-.88 0-1.546.206-2 .62-.44.413-.66 1.133-.66 2.16V308h-2.8v-11.08h2.8v1.72zm10.698 9.54c-1.066 0-2.026-.234-2.88-.7a5.262 5.262 0 01-2.02-2.02c-.48-.867-.72-1.867-.72-3 0-1.134.247-2.134.74-3a5.21 5.21 0 012.06-2c.867-.48 1.834-.72 2.9-.72 1.067 0 2.034.24 2.9.72a5.066 5.066 0 012.04 2c.507.866.76 1.866.76 3 0 1.133-.26 2.133-.78 3a5.315 5.315 0 01-2.08 2.02c-.866.466-1.84.7-2.92.7zm0-2.44c.507 0 .98-.12 1.42-.36a2.734 2.734 0 001.08-1.12c.267-.494.4-1.094.4-1.8 0-1.054-.28-1.86-.84-2.42-.546-.574-1.22-.86-2.02-.86s-1.473.286-2.02.86c-.533.56-.8 1.366-.8 2.42 0 1.053.26 1.866.78 2.44.534.56 1.2.84 2 .84zm22.086-8.98c1.36 0 2.453.42 3.28 1.26.84.826 1.26 1.986 1.26 3.48v6.5h-2.8v-6.12c0-.867-.22-1.527-.66-1.98-.44-.467-1.04-.7-1.8-.7s-1.367.233-1.82.7c-.44.453-.66 1.113-.66 1.98V308h-2.8v-6.12c0-.867-.22-1.527-.66-1.98-.44-.467-1.04-.7-1.8-.7-.773 0-1.387.233-1.84.7-.44.453-.66 1.113-.66 1.98V308h-2.8v-11.08h2.8v1.34c.36-.467.82-.834 1.38-1.1.573-.267 1.2-.4 1.88-.4.867 0 1.64.186 2.32.56.68.36 1.207.88 1.58 1.56.36-.64.88-1.154 1.56-1.54a4.52 4.52 0 012.24-.58zm12.226 5.7c0-1.147.233-2.147.7-3a4.914 4.914 0 011.94-2c.827-.48 1.773-.72 2.84-.72 1.373 0 2.507.346 3.4 1.04.907.68 1.513 1.64 1.82 2.88h-3.02a2.132 2.132 0 00-.82-1.12c-.373-.28-.84-.42-1.4-.42-.8 0-1.433.293-1.9.88-.467.573-.7 1.393-.7 2.46 0 1.053.233 1.873.7 2.46.467.573 1.1.86 1.9.86 1.133 0 1.873-.507 2.22-1.52h3.02c-.307 1.2-.913 2.153-1.82 2.86-.907.706-2.04 1.06-3.4 1.06-1.067 0-2.013-.234-2.84-.7a5.092 5.092 0 01-1.94-2c-.467-.867-.7-1.874-.7-3.02zm16.043-9.26V308h-2.8v-14.8h2.8zm4.678 2.4c-.493 0-.906-.154-1.24-.46-.32-.32-.48-.714-.48-1.18 0-.467.16-.854.48-1.16.334-.32.747-.48 1.24-.48.494 0 .9.16 1.22.48.334.306.5.693.5 1.16 0 .466-.166.86-.5 1.18-.32.306-.726.46-1.22.46zm1.38 1.32V308h-2.8v-11.08h2.8zm13.559 5.3c0 .4-.027.76-.08 1.08h-8.1c.066.8.346 1.426.84 1.88.493.453 1.1.68 1.82.68 1.04 0 1.78-.447 2.22-1.34h3.02c-.32 1.066-.934 1.946-1.84 2.64-.907.68-2.02 1.02-3.34 1.02-1.067 0-2.027-.234-2.88-.7a5.156 5.156 0 01-1.98-2.02c-.467-.867-.7-1.867-.7-3 0-1.147.233-2.154.7-3.02a4.874 4.874 0 011.96-2c.84-.467 1.806-.7 2.9-.7 1.053 0 1.993.226 2.82.68.84.453 1.486 1.1 1.94 1.94.466.826.7 1.78.7 2.86zm-2.9-.8c-.014-.72-.274-1.294-.78-1.72-.507-.44-1.127-.66-1.86-.66-.694 0-1.28.213-1.76.64-.467.413-.754.993-.86 1.74h5.26zm11.575-4.66c1.32 0 2.387.42 3.2 1.26.813.826 1.22 1.986 1.22 3.48v6.5h-2.8v-6.12c0-.88-.22-1.554-.66-2.02-.44-.48-1.04-.72-1.8-.72-.773 0-1.387.24-1.84.72-.44.466-.66 1.14-.66 2.02V308h-2.8v-11.08h2.8v1.38a3.79 3.79 0 011.42-1.12 4.402 4.402 0 011.92-.42zm10.835 2.46v5.36c0 .373.086.646.26.82.186.16.493.24.92.24h1.3V308h-1.76c-2.36 0-3.54-1.147-3.54-3.44v-5.34h-1.32v-2.3h1.32v-2.74h2.82v2.74h2.48v2.3h-2.48z" fill="#251A3F"/>
  <rect x="134" y="330.5" width="479" height="21" rx="10.5" fill="#F1F1F1"/>
  <rect x="134" y="369" width="479" height="21" rx="10.5" fill="#F1F1F1"/>
  <rect x="134" y="407.5" width="326" height="21" rx="10.5" fill="#F1F1F1"/>
  <path d="M206.04 457.28a1.738 1.738 0 00-.77-.742c-.326-.178-.714-.266-1.162-.266-.774 0-1.395.256-1.862.77-.466.504-.7 1.18-.7 2.03 0 .905.243 1.614.728 2.128.495.504 1.172.756 2.03.756.588 0 1.083-.15 1.484-.448.411-.299.71-.728.896-1.288h-3.038v-1.764h5.208v2.226a4.635 4.635 0 01-.91 1.666c-.42.513-.956.928-1.61 1.246-.653.317-1.39.476-2.212.476-.97 0-1.838-.21-2.604-.63a4.658 4.658 0 01-1.778-1.778c-.42-.756-.63-1.62-.63-2.59 0-.971.21-1.834.63-2.59a4.524 4.524 0 011.778-1.778c.756-.43 1.62-.644 2.59-.644 1.176 0 2.166.284 2.968.854.812.569 1.349 1.358 1.61 2.366h-2.646zm4.156 2.8c0-.803.15-1.508.448-2.114.308-.607.724-1.074 1.246-1.4a3.233 3.233 0 011.75-.49c.551 0 1.032.112 1.442.336.42.224.742.518.966.882v-1.106h2.394V464h-2.394v-1.106a2.57 2.57 0 01-.98.882c-.41.224-.891.336-1.442.336a3.218 3.218 0 01-1.736-.49c-.522-.336-.938-.808-1.246-1.414-.298-.616-.448-1.326-.448-2.128zm5.852.014c0-.598-.168-1.069-.504-1.414a1.59 1.59 0 00-1.204-.518c-.476 0-.882.172-1.218.518-.326.336-.49.802-.49 1.4 0 .597.164 1.073.49 1.428.336.345.742.518 1.218.518s.878-.173 1.204-.518c.336-.346.504-.817.504-1.414zm7.012-2.604c.28-.43.63-.766 1.05-1.008a2.67 2.67 0 011.4-.378v2.534h-.658c-.597 0-1.045.13-1.344.392-.299.252-.448.7-.448 1.344V464h-2.394v-7.812h2.394v1.302zm6.48 0c.28-.43.63-.766 1.05-1.008a2.67 2.67 0 011.4-.378v2.534h-.658c-.597 0-1.045.13-1.344.392-.299.252-.448.7-.448 1.344V464h-2.394v-7.812h2.394v1.302zm7.642 6.622c-.765 0-1.456-.164-2.072-.49a3.654 3.654 0 01-1.442-1.4c-.345-.607-.518-1.316-.518-2.128 0-.803.177-1.508.532-2.114a3.595 3.595 0 011.456-1.414c.616-.327 1.307-.49 2.072-.49.765 0 1.456.163 2.072.49a3.595 3.595 0 011.456 1.414c.355.606.532 1.311.532 2.114 0 .802-.182 1.512-.546 2.128a3.61 3.61 0 01-1.47 1.4c-.616.326-1.307.49-2.072.49zm0-2.072c.457 0 .845-.168 1.162-.504.327-.336.49-.817.49-1.442 0-.626-.159-1.106-.476-1.442a1.494 1.494 0 00-1.148-.504c-.467 0-.854.168-1.162.504-.308.326-.462.807-.462 1.442 0 .625.149 1.106.448 1.442.308.336.691.504 1.148.504zm10.61-5.936c.915 0 1.643.298 2.184.896.551.588.826 1.4.826 2.436V464h-2.38v-4.242c0-.523-.135-.929-.406-1.218-.271-.29-.635-.434-1.092-.434-.457 0-.821.144-1.092.434-.271.289-.406.695-.406 1.218V464h-2.394v-7.812h2.394v1.036c.243-.346.569-.616.98-.812a3.05 3.05 0 011.386-.308zm11.018-.014v1.988h3.206v1.848h-3.206v2.156h3.626V464h-6.02v-9.828h6.02v1.918h-3.626zm10.432.014c.915 0 1.643.298 2.184.896.551.588.826 1.4.826 2.436V464h-2.38v-4.242c0-.523-.135-.929-.406-1.218-.271-.29-.635-.434-1.092-.434-.457 0-.821.144-1.092.434-.271.289-.406.695-.406 1.218V464h-2.394v-7.812h2.394v1.036c.243-.346.569-.616.98-.812a3.05 3.05 0 011.386-.308zm8.133-.028c.551 0 1.032.112 1.442.336.42.224.742.518.966.882v-1.106h2.394v7.798c0 .718-.144 1.367-.434 1.946a3.194 3.194 0 01-1.302 1.4c-.578.345-1.302.518-2.17.518-1.157 0-2.095-.276-2.814-.826-.718-.542-1.129-1.279-1.232-2.212h2.366c.075.298.252.532.532.7.28.177.626.266 1.036.266.495 0 .887-.145 1.176-.434.299-.28.448-.733.448-1.358v-1.106a2.714 2.714 0 01-.966.896c-.41.224-.891.336-1.442.336a3.241 3.241 0 01-1.75-.49c-.522-.336-.938-.808-1.246-1.414-.298-.616-.448-1.326-.448-2.128 0-.803.15-1.508.448-2.114.308-.607.724-1.074 1.246-1.4a3.233 3.233 0 011.75-.49zm2.408 4.018c0-.598-.168-1.069-.504-1.414a1.59 1.59 0 00-1.204-.518c-.476 0-.882.172-1.218.518-.326.336-.49.802-.49 1.4 0 .597.164 1.073.49 1.428.336.345.742.518 1.218.518s.878-.173 1.204-.518c.336-.346.504-.817.504-1.414zm7.796 4.018c-.681 0-1.288-.117-1.82-.35-.532-.234-.952-.551-1.26-.952a2.557 2.557 0 01-.518-1.372h2.366a.91.91 0 00.378.658c.224.168.499.252.826.252.299 0 .527-.056.686-.168a.551.551 0 00.252-.462c0-.224-.117-.388-.35-.49-.233-.112-.611-.234-1.134-.364a11.578 11.578 0 01-1.4-.406 2.526 2.526 0 01-.966-.686c-.271-.318-.406-.742-.406-1.274 0-.448.121-.854.364-1.218.252-.374.616-.668 1.092-.882.485-.215 1.059-.322 1.722-.322.98 0 1.75.242 2.31.728.569.485.896 1.129.98 1.932h-2.212a.941.941 0 00-.364-.644c-.196-.159-.457-.238-.784-.238-.28 0-.495.056-.644.168a.496.496 0 00-.224.434c0 .224.117.392.35.504.243.112.616.224 1.12.336.579.149 1.05.298 1.414.448a2.3 2.3 0 01.952.7c.28.317.425.746.434 1.288 0 .457-.131.868-.392 1.232-.252.354-.621.634-1.106.84-.476.205-1.031.308-1.666.308zm9.475-2.142V464h-1.218c-.868 0-1.545-.21-2.03-.63-.486-.43-.728-1.125-.728-2.086v-3.108h-.952v-1.988h.952v-1.904h2.394v1.904h1.568v1.988h-1.568v3.136c0 .233.056.401.168.504.112.102.298.154.56.154h.854zm4.219-4.48c.28-.43.63-.766 1.05-1.008.42-.252.886-.378 1.4-.378v2.534h-.658c-.598 0-1.046.13-1.344.392-.299.252-.448.7-.448 1.344V464h-2.394v-7.812h2.394v1.302zm7.642 6.622c-.765 0-1.456-.164-2.072-.49a3.654 3.654 0 01-1.442-1.4c-.345-.607-.518-1.316-.518-2.128 0-.803.177-1.508.532-2.114a3.595 3.595 0 011.456-1.414c.616-.327 1.307-.49 2.072-.49.765 0 1.456.163 2.072.49a3.595 3.595 0 011.456 1.414c.355.606.532 1.311.532 2.114 0 .802-.182 1.512-.546 2.128a3.61 3.61 0 01-1.47 1.4c-.616.326-1.307.49-2.072.49zm0-2.072c.457 0 .845-.168 1.162-.504.327-.336.49-.817.49-1.442 0-.626-.159-1.106-.476-1.442a1.494 1.494 0 00-1.148-.504c-.467 0-.854.168-1.162.504-.308.326-.462.807-.462 1.442 0 .625.149 1.106.448 1.442.308.336.691.504 1.148.504zm15.818-5.936c.97 0 1.74.294 2.31.882.578.588.868 1.404.868 2.45V464h-2.38v-4.242c0-.504-.136-.892-.406-1.162-.262-.28-.626-.42-1.092-.42-.467 0-.836.14-1.106.42-.262.27-.392.658-.392 1.162V464h-2.38v-4.242c0-.504-.136-.892-.406-1.162-.262-.28-.626-.42-1.092-.42-.467 0-.836.14-1.106.42-.262.27-.392.658-.392 1.162V464h-2.394v-7.812h2.394v.98c.242-.327.56-.584.952-.77a2.932 2.932 0 011.33-.294c.588 0 1.11.126 1.568.378.466.252.83.611 1.092 1.078.27-.43.639-.78 1.106-1.05a2.982 2.982 0 011.526-.406z" fill="#029D7F"/>
  <path d="M199.362 486.23c1.718-1.288 3.043-2.441 3.976-3.458.943-1.027 1.414-2.03 1.414-3.01 0-.644-.163-1.158-.49-1.54-.317-.392-.84-.588-1.568-.588-.709 0-1.26.224-1.652.672-.382.438-.597 1.026-.644 1.764h-.952c.056-1.036.374-1.839.952-2.408.588-.579 1.354-.868 2.296-.868.906 0 1.638.256 2.198.77.56.504.84 1.222.84 2.156 0 1.129-.471 2.226-1.414 3.29-.933 1.054-2.086 2.086-3.458 3.094h5.18v.826h-6.678v-.7zm8.658-6.706c.065-.85.392-1.517.98-2.002.597-.495 1.367-.742 2.31-.742.625 0 1.162.112 1.61.336.448.224.784.532 1.008.924.233.382.35.816.35 1.302 0 .588-.173 1.096-.518 1.526-.345.429-.835.695-1.47.798v.07c.663.13 1.19.42 1.582.868.392.438.588 1.017.588 1.736 0 .802-.271 1.46-.812 1.974-.532.504-1.307.756-2.324.756-.971 0-1.769-.252-2.394-.756-.625-.514-.985-1.237-1.078-2.17h.952c.084.625.345 1.134.784 1.526.439.382 1.017.574 1.736.574.709 0 1.251-.187 1.624-.56.383-.374.574-.85.574-1.428 0-1.419-1.022-2.128-3.066-2.128h-.308v-.826h.322c1.904 0 2.856-.621 2.856-1.862 0-.542-.177-.976-.532-1.302-.355-.336-.859-.504-1.512-.504-.635 0-1.162.168-1.582.504-.411.326-.653.788-.728 1.386h-.952zm18.033-.308c.896 0 1.624.284 2.184.854.57.56.854 1.376.854 2.45V487h-.966v-4.368c0-.831-.2-1.466-.602-1.904-.401-.439-.947-.658-1.638-.658-.718 0-1.292.238-1.722.714-.429.476-.644 1.166-.644 2.072V487h-.966v-4.368c0-.831-.2-1.466-.602-1.904-.401-.439-.952-.658-1.652-.658-.718 0-1.292.238-1.722.714-.429.476-.644 1.166-.644 2.072V487h-.98v-7.644h.98v1.316a2.462 2.462 0 011.036-1.078 3.004 3.004 0 011.498-.378c.663 0 1.242.158 1.736.476.504.317.868.784 1.092 1.4.206-.607.556-1.069 1.05-1.386a3.07 3.07 0 011.708-.49zm9.592 3.948c0-.784.154-1.47.462-2.058a3.35 3.35 0 011.302-1.372c.56-.327 1.19-.49 1.89-.49.728 0 1.353.168 1.876.504.532.336.915.765 1.148 1.288v-1.68h.98V487h-.98v-1.694c-.243.522-.63.956-1.162 1.302-.523.336-1.148.504-1.876.504a3.66 3.66 0 01-1.876-.49 3.458 3.458 0 01-1.302-1.386c-.308-.598-.462-1.288-.462-2.072zm6.678.014c0-.616-.126-1.158-.378-1.624a2.678 2.678 0 00-1.036-1.078 2.767 2.767 0 00-1.428-.378c-.541 0-1.027.121-1.456.364-.429.242-.77.597-1.022 1.064-.243.457-.364 1.003-.364 1.638 0 .625.121 1.176.364 1.652.252.466.593.826 1.022 1.078.429.242.915.364 1.456.364.523 0 .999-.126 1.428-.378a2.685 2.685 0 001.036-1.078c.252-.467.378-1.008.378-1.624zm6.915-3.934c.719 0 1.344.168 1.876.504.532.336.915.76 1.148 1.274v-1.666h.98v7.84c0 .7-.154 1.32-.462 1.862a3.068 3.068 0 01-1.26 1.246c-.541.298-1.157.448-1.848.448-.98 0-1.797-.234-2.45-.7-.644-.467-1.045-1.102-1.204-1.904h.966c.168.532.485.956.952 1.274.476.317 1.055.476 1.736.476a2.73 2.73 0 001.33-.322c.392-.206.7-.514.924-.924.224-.411.336-.896.336-1.456v-1.89c-.243.522-.63.956-1.162 1.302-.523.336-1.143.504-1.862.504-.7 0-1.33-.164-1.89-.49a3.458 3.458 0 01-1.302-1.386c-.308-.598-.462-1.288-.462-2.072s.154-1.47.462-2.058a3.35 3.35 0 011.302-1.372c.56-.327 1.19-.49 1.89-.49zm3.024 3.934c0-.616-.126-1.158-.378-1.624a2.678 2.678 0 00-1.036-1.078 2.767 2.767 0 00-1.428-.378c-.541 0-1.027.121-1.456.364-.429.242-.77.597-1.022 1.064-.243.457-.364 1.003-.364 1.638 0 .625.121 1.176.364 1.652.252.466.593.826 1.022 1.078.429.242.915.364 1.456.364.523 0 .999-.126 1.428-.378a2.685 2.685 0 001.036-1.078c.252-.467.378-1.008.378-1.624zm7.055 3.934a3.983 3.983 0 01-1.946-.476 3.622 3.622 0 01-1.358-1.372c-.327-.598-.49-1.293-.49-2.086 0-.794.168-1.484.504-2.072a3.456 3.456 0 011.372-1.372 3.885 3.885 0 011.946-.49c.719 0 1.367.163 1.946.49a3.346 3.346 0 011.372 1.372c.336.588.504 1.278.504 2.072 0 .784-.168 1.474-.504 2.072a3.539 3.539 0 01-1.386 1.386 4.063 4.063 0 01-1.96.476zm0-.854a2.98 2.98 0 001.4-.336 2.639 2.639 0 001.036-1.036c.271-.467.406-1.036.406-1.708 0-.672-.131-1.237-.392-1.694-.261-.467-.607-.812-1.036-1.036a2.877 2.877 0 00-1.4-.35c-.504 0-.971.116-1.4.35-.429.224-.775.569-1.036 1.036-.252.457-.378 1.022-.378 1.694 0 .672.126 1.241.378 1.708.261.457.602.802 1.022 1.036a2.98 2.98 0 001.4.336zm11.89-2.31a1.57 1.57 0 01-1.134-.462 1.567 1.567 0 01-.476-1.148c0-.458.159-.84.476-1.148a1.545 1.545 0 011.134-.476c.457 0 .84.158 1.148.476.317.308.476.69.476 1.148 0 .448-.159.83-.476 1.148a1.56 1.56 0 01-1.148.462zm17.414-3.08l-.392 1.834h1.68v2.156h-2.142l-.462 2.142h-2.24l.462-2.142h-2.324l-.462 2.142h-2.24l.462-2.142h-2.072v-2.156h2.534l.392-1.834h-2.03v-2.156h2.478l.448-2.072h2.24l-.448 2.072h2.324l.448-2.072h2.24l-.448 2.072h1.736v2.156h-2.184zm-2.24 0h-2.324l-.392 1.834h2.324l.392-1.834zm13.74-.532c0 .569-.131 1.092-.392 1.568-.261.466-.663.844-1.204 1.134-.541.289-1.213.434-2.016.434h-1.484V487h-2.394v-9.828h3.878c.784 0 1.447.135 1.988.406.541.27.947.644 1.218 1.12.271.476.406 1.022.406 1.638zm-3.794 1.232c.457 0 .798-.108 1.022-.322.224-.215.336-.518.336-.91s-.112-.696-.336-.91c-.224-.215-.565-.322-1.022-.322h-1.302v2.464h1.302zm7.926-1.078c.28-.43.63-.766 1.05-1.008a2.67 2.67 0 011.4-.378v2.534h-.658c-.597 0-1.045.13-1.344.392-.298.252-.448.7-.448 1.344V487h-2.394v-7.812h2.394v1.302zm7.642 6.622c-.765 0-1.456-.164-2.072-.49a3.66 3.66 0 01-1.442-1.4c-.345-.607-.518-1.316-.518-2.128 0-.803.178-1.508.532-2.114a3.595 3.595 0 011.456-1.414c.616-.327 1.307-.49 2.072-.49.766 0 1.456.163 2.072.49a3.589 3.589 0 011.456 1.414c.355.606.532 1.311.532 2.114 0 .802-.182 1.512-.546 2.128a3.599 3.599 0 01-1.47 1.4c-.616.326-1.306.49-2.072.49zm0-2.072c.458 0 .845-.168 1.162-.504.327-.336.49-.817.49-1.442 0-.626-.158-1.106-.476-1.442a1.493 1.493 0 00-1.148-.504 1.51 1.51 0 00-1.162.504c-.308.326-.462.807-.462 1.442 0 .625.15 1.106.448 1.442.308.336.691.504 1.148.504zm7.04-6.664c-.42 0-.765-.122-1.036-.364a1.236 1.236 0 01-.392-.924c0-.374.131-.682.392-.924.271-.252.616-.378 1.036-.378.411 0 .747.126 1.008.378.271.242.406.55.406.924 0 .364-.135.672-.406.924-.261.242-.597.364-1.008.364zm1.204 9.632c0 .961-.242 1.652-.728 2.072-.485.429-1.162.644-2.03.644h-.938v-2.03h.574c.262 0 .448-.052.56-.154.112-.103.168-.271.168-.504v-8.848h2.394v8.82zm9.577-5.04c0 .224-.014.457-.042.7h-5.418c.038.485.192.858.462 1.12.28.252.621.378 1.022.378.598 0 1.013-.252 1.246-.756h2.548c-.13.513-.368.975-.714 1.386-.336.41-.76.732-1.274.966a4.118 4.118 0 01-1.722.35c-.765 0-1.446-.164-2.044-.49a3.494 3.494 0 01-1.4-1.4c-.336-.607-.504-1.316-.504-2.128s.164-1.522.49-2.128a3.481 3.481 0 011.4-1.4c.598-.327 1.284-.49 2.058-.49.756 0 1.428.158 2.016.476.588.317 1.046.77 1.372 1.358.336.588.504 1.274.504 2.058zm-2.45-.63c0-.411-.14-.738-.42-.98-.28-.243-.63-.364-1.05-.364-.401 0-.742.116-1.022.35-.27.233-.438.564-.504.994h2.996zm3.729.756c0-.812.163-1.522.49-2.128a3.504 3.504 0 011.386-1.4c.597-.327 1.279-.49 2.044-.49.98 0 1.797.256 2.45.77.663.513 1.097 1.236 1.302 2.17h-2.548c-.215-.598-.63-.896-1.246-.896-.439 0-.789.172-1.05.518-.261.336-.392.821-.392 1.456 0 .634.131 1.124.392 1.47.261.336.611.504 1.05.504.616 0 1.031-.299 1.246-.896h2.548c-.205.914-.639 1.633-1.302 2.156-.663.522-1.479.784-2.45.784-.765 0-1.447-.164-2.044-.49a3.517 3.517 0 01-1.386-1.4c-.327-.607-.49-1.316-.49-2.128zm13.798 1.876V487h-1.218c-.868 0-1.544-.21-2.03-.63-.485-.43-.728-1.125-.728-2.086v-3.108h-.952v-1.988h.952v-1.904h2.394v1.904h1.568v1.988h-1.568v3.136c0 .233.056.401.168.504.112.102.299.154.56.154h.854zm7.846-3.878v1.988h-6.16v-1.988h6.16zm7.212 5.908l-1.498-2.17-1.26 2.17h-2.59l2.576-3.99-2.646-3.822h2.688l1.498 2.156 1.26-2.156h2.59l-2.618 3.934 2.688 3.878h-2.688zm9.115 0l-2.044-3.71h-.574V487h-2.394v-9.828h4.018c.774 0 1.432.135 1.974.406.55.27.961.644 1.232 1.12.27.466.406.989.406 1.568 0 .653-.187 1.236-.56 1.75-.364.513-.906.877-1.624 1.092l2.268 3.892h-2.702zm-2.618-5.404h1.484c.438 0 .765-.108.98-.322.224-.215.336-.518.336-.91 0-.374-.112-.668-.336-.882-.215-.215-.542-.322-.98-.322h-1.484v2.436zm6.908 3.486a51.444 51.444 0 002.59-2.212 8.83 8.83 0 001.344-1.526c.364-.532.546-1.05.546-1.554 0-.383-.088-.682-.266-.896-.177-.215-.443-.322-.798-.322a.999.999 0 00-.84.406c-.196.261-.294.634-.294 1.12h-2.31c.019-.794.187-1.456.504-1.988a3.027 3.027 0 011.274-1.176 4.068 4.068 0 011.764-.378c1.111 0 1.946.284 2.506.854.57.569.854 1.311.854 2.226 0 .998-.34 1.927-1.022 2.786-.681.849-1.549 1.68-2.604 2.492h3.78v1.946h-7.028v-1.778z" fill="#251A3F"/>
  <path d="M159 494.03c14.059 0 25.5-10.84 25.5-24.265S173.059 445.5 159 445.5s-25.5 10.84-25.5 24.265 11.441 24.265 25.5 24.265z" fill="#A9366D" stroke="#E0E0E0"/>
  <path d="M159.033 471.042v-1.728h-6.035v2.461h2.578l-.01.215c-.097 1.416-1.23 2.373-2.851 2.373-2.061 0-3.389-1.69-3.389-4.483 0-2.744 1.201-4.336 3.233-4.336 1.377 0 2.431.762 2.783 2.012h3.545c-.362-2.871-2.92-4.892-6.338-4.892-4.258 0-6.875 2.695-6.875 7.265 0 4.629 2.617 7.315 6.963 7.315 4.013 0 6.396-2.354 6.396-6.202zm11.928 3.067h-6.075v-2.871h5.713v-2.637h-5.713v-2.803h6.075v-2.89h-9.659V477h9.659v-2.891z" fill="#fff"/>
  <path fill-rule="evenodd" clip-rule="evenodd" d="M510 453c-9.389 0-17 7.611-17 17 0 9.388 7.611 17 17 17h86c9.389 0 17-7.612 17-17 0-9.389-7.611-17-17-17h-86z" fill="#fff" stroke="#251A3F"/>
  <path d="M597 470.001a.872.872 0 01-.191.515l-3.765 4.251c-.255.243-.744.344-1.029.062-.281-.277-.273-.815.007-1.094l2.647-2.984h-8.963c-.39 0-.706-.336-.706-.75s.316-.75.706-.75h8.963l-2.647-2.985c-.241-.256-.285-.813-.007-1.094.278-.28.784-.19 1.029.063l3.765 4.25a.748.748 0 01.191.516z" fill="#000"/>
  <path d="M517.328 466.503c-.103-.429-.289-.751-.56-.966-.271-.214-.649-.322-1.134-.322-.737 0-1.288.285-1.652.854-.364.56-.555 1.494-.574 2.8.243-.41.597-.728 1.064-.952a3.45 3.45 0 011.512-.336c.616 0 1.157.136 1.624.406.476.262.845.644 1.106 1.148.271.504.406 1.106.406 1.806 0 .654-.131 1.237-.392 1.75-.252.514-.63.92-1.134 1.218-.504.29-1.111.434-1.82.434-.961 0-1.717-.21-2.268-.63-.541-.429-.924-1.031-1.148-1.806-.215-.774-.322-1.74-.322-2.898 0-3.416 1.204-5.124 3.612-5.124.933 0 1.666.252 2.198.756.541.504.859 1.125.952 1.862h-1.47zm-1.694 2.422c-.569 0-1.055.173-1.456.518-.392.336-.588.826-.588 1.47s.182 1.158.546 1.54c.373.374.891.56 1.554.56.588 0 1.05-.182 1.386-.546.345-.364.518-.849.518-1.456 0-.634-.168-1.138-.504-1.512-.327-.382-.812-.574-1.456-.574zm15.073 5.418l-2.24-3.892h-1.218v3.892h-1.596v-9.73h3.36c.746 0 1.376.131 1.89.392.522.262.91.612 1.162 1.05.261.439.392.929.392 1.47a2.92 2.92 0 01-.56 1.736c-.364.514-.929.864-1.694 1.05l2.408 4.032h-1.904zm-3.458-5.166h1.764c.597 0 1.045-.149 1.344-.448.308-.298.462-.7.462-1.204s-.15-.896-.448-1.176c-.299-.289-.752-.434-1.358-.434h-1.764v3.262zm14.811 1.12c0 .29-.018.551-.056.784h-5.894c.047.616.276 1.111.686 1.484.411.374.915.56 1.512.56.859 0 1.466-.359 1.82-1.078h1.722a3.492 3.492 0 01-1.274 1.75c-.606.448-1.362.672-2.268.672-.737 0-1.4-.163-1.988-.49a3.662 3.662 0 01-1.372-1.4c-.326-.606-.49-1.306-.49-2.1 0-.793.159-1.488.476-2.086a3.457 3.457 0 011.358-1.4c.588-.326 1.26-.49 2.016-.49.728 0 1.377.159 1.946.476.57.318 1.013.766 1.33 1.344.318.57.476 1.228.476 1.974zm-1.666-.504c-.009-.588-.219-1.059-.63-1.414-.41-.354-.919-.532-1.526-.532-.55 0-1.022.178-1.414.532-.392.346-.625.817-.7 1.414h4.27zm5.325-2.03c.27-.354.639-.653 1.106-.896a3.384 3.384 0 011.582-.364c.672 0 1.283.168 1.834.504.56.327.998.789 1.316 1.386.317.598.476 1.284.476 2.058 0 .775-.159 1.47-.476 2.086a3.602 3.602 0 01-1.316 1.428 3.453 3.453 0 01-1.834.504c-.588 0-1.111-.116-1.568-.35a3.57 3.57 0 01-1.12-.896v4.788h-1.596v-11.382h1.596v1.134zm4.69 2.688c0-.532-.112-.989-.336-1.372a2.14 2.14 0 00-.868-.882 2.259 2.259 0 00-1.148-.308c-.402 0-.784.103-1.148.308a2.361 2.361 0 00-.868.896c-.215.392-.322.854-.322 1.386 0 .532.107.999.322 1.4.224.392.513.691.868.896a2.294 2.294 0 002.296 0c.364-.214.653-.522.868-.924.224-.401.336-.868.336-1.4zm5.29-6.468v10.36h-1.596v-10.36h1.596zm3.399 1.624a.99.99 0 01-.728-.294.988.988 0 01-.294-.728.99.99 0 01.294-.728.99.99 0 01.728-.294c.28 0 .518.098.714.294a.99.99 0 01.294.728c0 .29-.098.532-.294.728a.972.972 0 01-.714.294zm.784 1.022v7.714h-1.596v-7.714h1.596zm9.657 3.668c0 .29-.019.551-.056.784h-5.894c.047.616.275 1.111.686 1.484.411.374.915.56 1.512.56.859 0 1.465-.359 1.82-1.078h1.722a3.492 3.492 0 01-1.274 1.75c-.607.448-1.363.672-2.268.672-.737 0-1.4-.163-1.988-.49a3.655 3.655 0 01-1.372-1.4c-.327-.606-.49-1.306-.49-2.1 0-.793.159-1.488.476-2.086a3.45 3.45 0 011.358-1.4c.588-.326 1.26-.49 2.016-.49.728 0 1.377.159 1.946.476a3.36 3.36 0 011.33 1.344c.317.57.476 1.228.476 1.974zm-1.666-.504c-.009-.588-.219-1.059-.63-1.414-.411-.354-.919-.532-1.526-.532-.551 0-1.022.178-1.414.532-.392.346-.625.817-.7 1.414h4.27zm6.528 4.676a4.007 4.007 0 01-1.638-.322 2.953 2.953 0 01-1.134-.896 2.267 2.267 0 01-.448-1.274h1.652c.028.327.182.602.462.826.29.215.649.322 1.078.322.448 0 .794-.084 1.036-.252.252-.177.378-.401.378-.672 0-.289-.14-.504-.42-.644-.27-.14-.704-.294-1.302-.462a12.408 12.408 0 01-1.414-.462 2.537 2.537 0 01-.952-.686c-.261-.308-.392-.714-.392-1.218 0-.41.122-.784.364-1.12.243-.345.588-.616 1.036-.812.458-.196.98-.294 1.568-.294.878 0 1.582.224 2.114.672.542.439.831 1.041.868 1.806h-1.596a1.139 1.139 0 00-.42-.826c-.252-.205-.592-.308-1.022-.308-.42 0-.742.08-.966.238a.738.738 0 00-.336.63c0 .206.075.378.224.518.15.14.332.252.546.336.215.075.532.173.952.294.56.15 1.018.304 1.372.462.364.15.677.374.938.672.262.299.397.696.406 1.19 0 .439-.121.831-.364 1.176-.242.346-.588.616-1.036.812-.438.196-.956.294-1.554.294z" fill="#251A3F"/>
  <defs>
    <filter id="xRLK-QIDaa" x="0" y="58.999" width="556" height="302" filterUnits="userSpaceOnUse" color-interpolation-filters="sRGB">
      <feFlood flood-opacity="0" result="BackgroundImageFix"/>
      <feColorMatrix in="SourceAlpha" type="matrix" values="0 0 0 0 0 0 0 0 0 0 0 0 0 0 0 0 0 0 127 0" result="hardAlpha"/>
      <feOffset dy="10"/>
      <feGaussianBlur stdDeviation="10"/>
      <feColorMatrix type="matrix" values="0 0 0 0 0 0 0 0 0 0 0 0 0 0 0 0 0 0 0.1 0"/>
      <feBlend mode="normal" in2="BackgroundImageFix" result="effect1_dropShadow"/>
      <feBlend mode="normal" in="SourceGraphic" in2="effect1_dropShadow" result="shape"/>
    </filter>
    <filter id="xRLK-QIDab" x="212" y="148" width="556" height="302" filterUnits="userSpaceOnUse" color-interpolation-filters="sRGB">
      <feFlood flood-opacity="0" result="BackgroundImageFix"/>
      <feColorMatrix in="SourceAlpha" type="matrix" values="0 0 0 0 0 0 0 0 0 0 0 0 0 0 0 0 0 0 127 0" result="hardAlpha"/>
      <feOffset dy="10"/>
      <feGaussianBlur stdDeviation="10"/>
      <feColorMatrix type="matrix" values="0 0 0 0 0 0 0 0 0 0 0 0 0 0 0 0 0 0 0.1 0"/>
      <feBlend mode="normal" in2="BackgroundImageFix" result="effect1_dropShadow"/>
      <feBlend mode="normal" in="SourceGraphic" in2="effect1_dropShadow" result="shape"/>
    </filter>
    <filter id="xRLK-QIDac" x="96" y="244" width="556" height="302" filterUnits="userSpaceOnUse" color-interpolation-filters="sRGB">
      <feFlood flood-opacity="0" result="BackgroundImageFix"/>
      <feColorMatrix in="SourceAlpha" type="matrix" values="0 0 0 0 0 0 0 0 0 0 0 0 0 0 0 0 0 0 127 0" result="hardAlpha"/>
      <feOffset dy="10"/>
      <feGaussianBlur stdDeviation="10"/>
      <feColorMatrix type="matrix" values="0 0 0 0 0 0 0 0 0 0 0 0 0 0 0 0 0 0 0.1 0"/>
      <feBlend mode="normal" in2="BackgroundImageFix" result="effect1_dropShadow"/>
      <feBlend mode="normal" in="SourceGraphic" in2="effect1_dropShadow" result="shape"/>
    </filter>
  </defs>
</svg>
