<svg fill="none" xmlns="http://www.w3.org/2000/svg" viewBox="0 0 722 519">
  <path d="M154 60v75.317c0 35.346 28.654 64 64 64h142.277c35.346 0 64 28.653 64 64V376c0 35.346 28.654 64 64 64H639c35.346 0 64-28.654 64-64V257.5" stroke="#D6D3DD" stroke-width="18"/>
  <g filter="url(#PpCooUu57a)">
    <path fill-rule="evenodd" clip-rule="evenodd" d="M20 18a8 8 0 018-8h260a8 8 0 018 8v83a8 8 0 01-8 8H28a8 8 0 01-8-8V18z" fill="#fff"/>
    <path d="M20.5 18a7.5 7.5 0 017.5-7.5h260a7.5 7.5 0 017.5 7.5v83a7.5 7.5 0 01-7.5 7.5H28a7.5 7.5 0 01-7.5-7.5V18z" stroke="#D8D8D8"/>
  </g>
  <path d="M60 84.5c14.083 0 25.5-11.417 25.5-25.5S74.083 33.5 60 33.5 34.5 44.917 34.5 59 45.917 84.5 60 84.5z" fill="#6A559B" stroke="#E0E0E0"/>
  <path d="M58.649 60.043v-1.728h-6.035v2.46h2.578l-.01.215c-.098 1.416-1.23 2.373-2.852 2.373-2.06 0-3.388-1.69-3.388-4.482 0-2.744 1.2-4.336 3.232-4.336 1.377 0 2.432.762 2.783 2.012h3.545c-.361-2.872-2.92-4.893-6.338-4.893-4.258 0-6.875 2.695-6.875 7.266 0 4.629 2.617 7.314 6.963 7.314 4.014 0 6.397-2.353 6.397-6.201zm8.724 6.201c3.633 0 6.23-2.207 6.396-5.556h-3.447c-.225 1.65-1.367 2.685-2.94 2.685-1.972 0-3.203-1.67-3.203-4.433 0-2.735 1.24-4.405 3.194-4.405 1.572 0 2.754 1.094 2.93 2.754h3.447c-.108-3.33-2.813-5.625-6.377-5.625-4.2 0-6.846 2.686-6.846 7.285 0 4.61 2.627 7.295 6.846 7.295z" fill="#fff"/>
  <path d="M106.864 42.974v-1.258h-4.142v1.552h2.139l-.007.177c-.041 1.19-.977 1.99-2.331 1.99-1.627 0-2.652-1.286-2.652-3.398 0-2.071.978-3.336 2.57-3.336 1.149 0 1.976.581 2.284 1.58h2.05c-.287-2.051-2.003-3.398-4.334-3.398-2.87 0-4.682 1.996-4.682 5.175 0 3.226 1.798 5.195 4.73 5.195 2.694 0 4.375-1.64 4.375-4.28zm2.29 4.026h1.989v-7.54h-1.989V47zm.998-8.668c.622 0 1.128-.506 1.128-1.142 0-.635-.506-1.134-1.128-1.134a1.13 1.13 0 00-1.128 1.134c0 .636.513 1.142 1.128 1.142zM113.72 47h1.989V36.582h-1.989V47zm4.621 0h1.989V36.582h-1.989V47zm4.566 0h1.989v-7.54h-1.989V47zm.998-8.668c.622 0 1.128-.506 1.128-1.142 0-.635-.506-1.134-1.128-1.134a1.13 1.13 0 00-1.128 1.134c0 .636.512 1.142 1.128 1.142zm6.22 7.287c-.69 0-1.176-.342-1.176-.902 0-.54.417-.848 1.272-.91l1.524-.095v.554c0 .765-.697 1.353-1.62 1.353zm-.656 1.497c.977 0 1.798-.41 2.187-1.1h.123V47h1.928v-5.148c0-1.613-1.128-2.556-3.124-2.556-1.894 0-3.172.875-3.302 2.27h1.832c.164-.452.643-.698 1.361-.698.82 0 1.271.356 1.271.984v.616l-1.825.11c-1.873.108-2.919.901-2.919 2.269 0 1.38 1.018 2.27 2.468 2.27zm6.685-.116h1.989v-4.348c0-.99.567-1.64 1.49-1.64.944 0 1.388.547 1.388 1.586V47h1.989v-4.874c0-1.805-.902-2.83-2.577-2.83-1.114 0-1.88.526-2.228 1.374h-.123v-1.21h-1.928V47zm17.772.253c2.379 0 4.116-1.47 4.287-3.603h-2.01c-.198 1.087-1.087 1.785-2.27 1.785-1.558 0-2.522-1.292-2.522-3.37 0-2.079.964-3.364 2.515-3.364 1.176 0 2.072.745 2.27 1.88h2.01c-.151-2.146-1.942-3.698-4.28-3.698-2.864 0-4.627 1.975-4.627 5.181 0 3.213 1.77 5.189 4.627 5.189zm9.741-6.433c.93 0 1.532.622 1.573 1.62h-3.213c.068-.977.717-1.62 1.64-1.62zm1.614 4.033c-.212.5-.752.78-1.539.78-1.039 0-1.695-.698-1.722-1.819v-.102h5.175v-.609c0-2.392-1.313-3.807-3.535-3.807-2.242 0-3.623 1.517-3.623 3.972 0 2.447 1.354 3.896 3.651 3.896 1.845 0 3.151-.895 3.445-2.31h-1.852zm6.76.766c-.691 0-1.176-.342-1.176-.902 0-.54.417-.848 1.272-.91l1.524-.095v.554c0 .765-.697 1.353-1.62 1.353zm-.656 1.497c.977 0 1.798-.41 2.187-1.1h.123V47h1.928v-5.148c0-1.613-1.128-2.556-3.124-2.556-1.894 0-3.172.875-3.302 2.27h1.832c.164-.452.643-.698 1.361-.698.82 0 1.271.356 1.271.984v.616l-1.825.11c-1.873.108-2.919.901-2.919 2.269 0 1.38 1.018 2.27 2.468 2.27zm6.514-5.441c0 1.162.711 1.86 2.174 2.18l1.367.308c.663.144.95.37.95.738 0 .486-.533.807-1.306.807-.793 0-1.278-.294-1.428-.807h-1.942c.137 1.45 1.34 2.263 3.329 2.263 1.976 0 3.323-.984 3.323-2.488 0-1.128-.657-1.743-2.119-2.065l-1.415-.307c-.698-.157-1.019-.383-1.019-.752 0-.479.526-.8 1.237-.8.739 0 1.197.3 1.299.786h1.839c-.109-1.442-1.237-2.242-3.151-2.242-1.88 0-3.138.95-3.138 2.379zm11.313 3.944c-.69 0-1.176-.342-1.176-.902 0-.54.417-.848 1.272-.91l1.524-.095v.554c0 .765-.697 1.353-1.62 1.353zm-.656 1.497c.977 0 1.798-.41 2.187-1.1h.123V47h1.928v-5.148c0-1.613-1.128-2.556-3.124-2.556-1.894 0-3.172.875-3.302 2.27h1.832c.164-.452.643-.698 1.361-.698.82 0 1.271.356 1.271.984v.616l-1.825.11c-1.873.108-2.919.901-2.919 2.269 0 1.38 1.019 2.27 2.468 2.27zm6.685-.116h1.989v-4.177c0-1.06.745-1.702 1.832-1.702.321 0 .786.062.944.123v-1.811c-.171-.062-.506-.096-.78-.096-.957 0-1.736.574-1.934 1.326h-.123V39.46h-1.928V47zm-92.264 32.266c2.398 0 4.179-1.336 4.554-3.407h-1.429c-.36 1.305-1.555 2.11-3.125 2.11-2.172 0-3.532-1.774-3.532-4.602 0-2.828 1.36-4.61 3.524-4.61 1.554 0 2.758.915 3.133 2.368h1.429c-.336-2.172-2.187-3.664-4.562-3.664-3.063 0-4.969 2.266-4.969 5.906 0 3.633 1.914 5.899 4.977 5.899zm10.694-.118c2.399 0 3.883-1.656 3.883-4.359 0-2.71-1.484-4.36-3.883-4.36-2.398 0-3.882 1.65-3.882 4.36 0 2.703 1.484 4.36 3.882 4.36zm0-1.21c-1.593 0-2.492-1.157-2.492-3.149 0-2 .899-3.148 2.492-3.148 1.594 0 2.493 1.148 2.493 3.148 0 1.992-.899 3.148-2.493 3.148zM120.155 79h1.344v-4.984c0-1.477.867-2.375 2.211-2.375 1.344 0 1.985.718 1.985 2.234V79h1.343v-5.453c0-2-1.054-3.117-2.945-3.117-1.289 0-2.109.547-2.531 1.476h-.125v-1.328h-1.282V79zm13.242-1.313c-1.562 0-2.437-1.187-2.437-3.023s.875-3.023 2.437-3.023c1.555 0 2.5 1.187 2.5 3.023s-.937 3.023-2.5 3.023zm.063 4.547c2.297 0 3.75-1.203 3.75-3.086v-8.57h-1.282v1.336h-.125c-.484-.906-1.523-1.484-2.703-1.484-2.164 0-3.531 1.71-3.531 4.234 0 2.523 1.352 4.211 3.531 4.211 1.157 0 2.11-.523 2.641-1.453h.125v1.656c0 1.242-.898 1.984-2.406 1.984-1.211 0-1.961-.445-2.11-1.132h-1.422c.204 1.39 1.5 2.304 3.532 2.304zM140.233 79h1.344v-5.219c0-1.187.929-2.047 2.21-2.047.266 0 .75.047.86.079v-1.344a5.757 5.757 0 00-.672-.04c-1.117 0-2.086.579-2.336 1.4h-.125v-1.25h-1.281V79zm9.179-1.031c-.977 0-1.703-.5-1.703-1.36 0-.843.562-1.289 1.844-1.375l2.265-.148v.773c0 1.204-1.023 2.11-2.406 2.11zm-.25 1.18c1.125 0 2.047-.493 2.594-1.391h.125V79h1.281v-5.766c0-1.75-1.148-2.804-3.203-2.804-1.797 0-3.125.89-3.305 2.242h1.36c.187-.664.89-1.047 1.898-1.047 1.258 0 1.906.57 1.906 1.61V74l-2.429.148c-1.961.118-3.071.985-3.071 2.493 0 1.539 1.211 2.507 2.844 2.507zm7.539-10.75v2.18h-1.36v1.124h1.36v5.11c0 1.609.695 2.25 2.429 2.25.266 0 .524-.032.789-.079v-1.132c-.25.023-.382.03-.625.03-.875 0-1.25-.421-1.25-1.413v-4.766h1.875v-1.125h-1.875v-2.18h-1.343zm5.39 4.484c0 1.219.719 1.898 2.297 2.281l1.445.352c.899.218 1.336.609 1.336 1.187 0 .774-.812 1.313-1.945 1.313-1.078 0-1.75-.454-1.977-1.164h-1.383c.149 1.398 1.438 2.296 3.313 2.296 1.914 0 3.375-1.039 3.375-2.546 0-1.211-.766-1.899-2.352-2.282l-1.297-.312c-.992-.242-1.461-.602-1.461-1.18 0-.75.782-1.258 1.782-1.258 1.015 0 1.672.446 1.851 1.118h1.328c-.179-1.383-1.406-2.258-3.171-2.258-1.79 0-3.141 1.054-3.141 2.453zm17.53 6.265c2.399 0 3.883-1.656 3.883-4.359 0-2.71-1.484-4.36-3.883-4.36-2.398 0-3.882 1.65-3.882 4.36 0 2.703 1.484 4.36 3.882 4.36zm0-1.21c-1.593 0-2.492-1.157-2.492-3.149 0-2 .899-3.148 2.492-3.148 1.594 0 2.493 1.148 2.493 3.148 0 1.992-.899 3.148-2.493 3.148zM186.105 79h1.344v-4.984c0-1.477.867-2.375 2.211-2.375 1.344 0 1.984.718 1.984 2.234V79h1.344v-5.453c0-2-1.055-3.117-2.945-3.117-1.289 0-2.11.547-2.531 1.476h-.125v-1.328h-1.282V79zm15.406-10.602v2.18h-1.36v1.125h1.36v5.11c0 1.609.695 2.25 2.429 2.25.266 0 .524-.032.79-.079v-1.132a5.78 5.78 0 01-.625.03c-.875 0-1.25-.421-1.25-1.413v-4.766h1.875v-1.125h-1.875v-2.18h-1.344zM207.331 79h1.343v-4.984c0-1.422.829-2.375 2.336-2.375 1.274 0 1.946.742 1.946 2.234V79h1.343v-5.453c0-1.977-1.125-3.117-2.906-3.117-1.289 0-2.172.547-2.594 1.476h-.125v-4.672h-1.343V79zm9.945 0h1.343v-8.422h-1.343V79zm.672-10.047a.94.94 0 00.937-.937.94.94 0 00-.937-.938.94.94 0 00-.938.938.94.94 0 00.938.937zm3.53 3.93c0 1.219.719 1.898 2.297 2.281l1.446.352c.898.218 1.335.609 1.335 1.187 0 .774-.812 1.313-1.945 1.313-1.078 0-1.75-.454-1.976-1.164h-1.383c.148 1.398 1.437 2.296 3.312 2.296 1.914 0 3.375-1.039 3.375-2.546 0-1.211-.765-1.899-2.351-2.282l-1.297-.312c-.992-.242-1.461-.602-1.461-1.18 0-.75.781-1.258 1.781-1.258 1.016 0 1.672.446 1.852 1.118h1.328c-.18-1.383-1.406-2.258-3.172-2.258-1.789 0-3.141 1.054-3.141 2.453zm24.664-2.305h-1.352l-1.656 6.734h-.125l-1.883-6.734h-1.289l-1.883 6.734h-.125l-1.656-6.734h-1.36l2.36 8.422h1.359l1.875-6.516h.125L242.415 79h1.367l2.36-8.422zm2.32 8.422h1.343v-8.422h-1.343V79zm.671-10.047a.94.94 0 00.938-.937.94.94 0 00-.938-.938.94.94 0 00-.937.938.94.94 0 00.937.937zM252.86 79h1.343v-4.984c0-1.477.867-2.375 2.211-2.375 1.344 0 1.985.718 1.985 2.234V79h1.343v-5.453c0-2-1.054-3.117-2.945-3.117-1.289 0-2.109.547-2.531 1.476h-.125v-1.328h-1.281V79zm10.273-11.281l.132 7.531h1.297l.133-7.531h-1.562zm.789 11.422c.632 0 1.078-.454 1.078-1.086 0-.64-.446-1.094-1.078-1.094-.633 0-1.086.453-1.086 1.094 0 .632.453 1.086 1.086 1.086z" fill="#251A3F"/>
  <g filter="url(#PpCooUu57b)">
    <path fill-rule="evenodd" clip-rule="evenodd" d="M260 138a8 8 0 018-8h271a8 8 0 018 8v83a8 8 0 01-8 8H268a8 8 0 01-8-8v-83z" fill="#fff"/>
    <path d="M260.5 138a7.5 7.5 0 017.5-7.5h271a7.5 7.5 0 017.5 7.5v83a7.5 7.5 0 01-7.5 7.5H268a7.5 7.5 0 01-7.5-7.5v-83z" stroke="#D8D8D8"/>
  </g>
  <path d="M300 204.5c14.083 0 25.5-11.417 25.5-25.5s-11.417-25.5-25.5-25.5-25.5 11.417-25.5 25.5 11.417 25.5 25.5 25.5z" fill="#BD9E61" stroke="#E0E0E0"/>
  <path d="M285.836 171.908V186h5.723c4.248 0 6.758-2.627 6.758-7.129 0-4.492-2.5-6.963-6.758-6.963h-5.723zm3.584 2.891h1.67c2.266 0 3.584 1.435 3.584 4.082 0 2.812-1.25 4.228-3.584 4.228h-1.67v-8.31zm24.095 5.244v-1.729h-6.035v2.461h2.578l-.009.215c-.098 1.416-1.231 2.373-2.852 2.373-2.06 0-3.389-1.689-3.389-4.482 0-2.744 1.202-4.336 3.233-4.336 1.377 0 2.431.762 2.783 2.012h3.545c-.361-2.871-2.92-4.893-6.338-4.893-4.258 0-6.875 2.695-6.875 7.266 0 4.629 2.617 7.314 6.963 7.314 4.014 0 6.396-2.353 6.396-6.201z" fill="#fff"/>
  <path d="M338.196 157.136V167h3.883c2.953 0 4.628-1.798 4.628-5.004 0-3.09-1.695-4.86-4.628-4.86h-3.883zm2.065 1.763h1.49c1.791 0 2.851 1.135 2.851 3.131 0 2.085-1.026 3.206-2.851 3.206h-1.49v-6.337zm11.354 6.72c-.691 0-1.176-.342-1.176-.902 0-.54.417-.848 1.272-.909l1.524-.096v.554c0 .765-.697 1.353-1.62 1.353zm-.656 1.497c.977 0 1.797-.41 2.187-1.1h.123V167h1.928v-5.147c0-1.614-1.128-2.557-3.124-2.557-1.894 0-3.172.875-3.302 2.269h1.832c.164-.451.643-.697 1.36-.697.821 0 1.272.356 1.272.985v.615l-1.825.109c-1.873.11-2.919.902-2.919 2.27 0 1.381 1.018 2.269 2.468 2.269zm13.295-7.656h-2.099l-1.544 5.619h-.124l-1.558-5.619h-2.14l2.618 7.54h2.243l2.604-7.54zm1.852 7.54h1.989v-7.54h-1.989V167zm.998-8.668c.622 0 1.128-.506 1.128-1.142 0-.635-.506-1.134-1.128-1.134a1.13 1.13 0 00-1.128 1.134c0 .636.513 1.142 1.128 1.142zm6.2 8.784c1.046 0 1.9-.485 2.304-1.299h.123V167h1.928v-10.418h-1.99v4.081h-.116c-.39-.834-1.23-1.326-2.249-1.326-1.893 0-3.069 1.483-3.069 3.883 0 2.406 1.169 3.896 3.069 3.896zm.677-6.111c1.059 0 1.709.854 1.709 2.228 0 1.381-.643 2.222-1.709 2.222-1.067 0-1.702-.834-1.702-2.228 0-1.381.642-2.222 1.702-2.222zm19.201 1.969v-1.258h-4.142v1.552h2.139l-.007.177c-.041 1.19-.977 1.99-2.331 1.99-1.627 0-2.652-1.286-2.652-3.398 0-2.071.978-3.336 2.57-3.336 1.149 0 1.976.581 2.284 1.579h2.05c-.287-2.051-2.003-3.397-4.334-3.397-2.871 0-4.682 1.996-4.682 5.175 0 3.226 1.798 5.195 4.73 5.195 2.694 0 4.375-1.641 4.375-4.279zm5.619 4.19c2.317 0 3.712-1.47 3.712-3.937 0-2.448-1.415-3.931-3.712-3.931s-3.712 1.49-3.712 3.931c0 2.467 1.395 3.937 3.712 3.937zm0-1.627c-1.067 0-1.668-.841-1.668-2.31 0-1.45.608-2.304 1.668-2.304 1.053 0 1.668.854 1.668 2.304 0 1.462-.609 2.31-1.668 2.31zm15.961-6.077h-1.975l-1.121 5.407h-.123l-1.326-5.407h-1.901l-1.319 5.407h-.123l-1.121-5.407h-2.017l2.01 7.54h2.092l1.333-5.202h.123L410.64 167h2.119l2.003-7.54zm4.3 7.656c1.046 0 1.9-.485 2.304-1.299h.123V167h1.927v-10.418h-1.989v4.081h-.116c-.39-.834-1.231-1.326-2.249-1.326-1.894 0-3.07 1.483-3.07 3.883 0 2.406 1.169 3.896 3.07 3.896zm.677-6.111c1.059 0 1.709.854 1.709 2.228 0 1.381-.643 2.222-1.709 2.222-1.067 0-1.703-.834-1.703-2.228 0-1.381.643-2.222 1.703-2.222zm9.494-.185c.93 0 1.532.622 1.573 1.62h-3.213c.068-.977.717-1.62 1.64-1.62zm1.614 4.034c-.212.499-.752.779-1.539.779-1.039 0-1.695-.697-1.722-1.819v-.102h5.175v-.608c0-2.393-1.313-3.808-3.535-3.808-2.242 0-3.623 1.517-3.623 3.972 0 2.447 1.354 3.896 3.651 3.896 1.845 0 3.151-.895 3.445-2.31h-1.852zm4.771 4.887c1.88 0 2.802-.683 3.445-2.625l2.598-7.656h-2.106l-1.586 5.715h-.123l-1.586-5.715h-2.194l2.645 7.588-.068.273c-.164.575-.588.814-1.333.814-.082 0-.383 0-.451-.014v1.6c.082.013.683.02.759.02zM339.844 199v-11.273h-1.406V199h1.406zm4.031-7.062l1.414-4.211h-1.524l-.867 4.211h.977zm4.374 7.062h1.344v-11.766h-1.344V199zm4.523 0h1.344v-11.766h-1.344V199zm9.453 0h1.343v-5.219c0-1.187.852-2.14 1.953-2.14 1.063 0 1.758.64 1.758 1.64V199h1.344v-5.414c0-1.07.781-1.945 1.953-1.945 1.188 0 1.774.609 1.774 1.851V199h1.343v-5.82c0-1.766-.961-2.75-2.679-2.75-1.164 0-2.125.586-2.579 1.476h-.125c-.39-.875-1.187-1.476-2.328-1.476-1.125 0-1.968.539-2.351 1.476h-.125v-1.328h-1.281V199zm17.007-1.031c-.977 0-1.703-.5-1.703-1.36 0-.843.562-1.289 1.844-1.375l2.265-.148v.773c0 1.203-1.023 2.11-2.406 2.11zm-.25 1.179c1.125 0 2.047-.492 2.594-1.39h.125V199h1.281v-5.766c0-1.75-1.148-2.804-3.203-2.804-1.797 0-3.125.89-3.305 2.242h1.36c.187-.664.89-1.047 1.898-1.047 1.258 0 1.906.57 1.906 1.609V194l-2.429.148c-1.961.118-3.071.985-3.071 2.493 0 1.539 1.211 2.507 2.844 2.507zm8.523-4.89h-.125v-7.024h-1.344V199h1.344v-3.195l.805-.75 3.156 3.945h1.711l-3.867-4.812 3.625-3.61h-1.649l-3.656 3.68zm10.601-2.641c1.336 0 2.227.985 2.258 2.477h-4.641c.102-1.492 1.039-2.477 2.383-2.477zm2.219 5.203c-.352.742-1.086 1.141-2.172 1.141-1.43 0-2.359-1.055-2.43-2.719v-.062h6.055v-.516c0-2.617-1.383-4.234-3.656-4.234-2.313 0-3.797 1.718-3.797 4.367 0 2.664 1.461 4.351 3.797 4.351 1.844 0 3.156-.89 3.547-2.328h-1.344zm11.655 1.149c-.976 0-1.703-.5-1.703-1.36 0-.843.563-1.289 1.844-1.375l2.266-.148v.773c0 1.203-1.024 2.11-2.407 2.11zm-.25 1.179c1.125 0 2.047-.492 2.594-1.39h.125V199h1.281v-5.766c0-1.75-1.148-2.804-3.203-2.804-1.797 0-3.125.89-3.304 2.242h1.359c.187-.664.891-1.047 1.898-1.047 1.258 0 1.907.57 1.907 1.609V194l-2.43.148c-1.961.118-3.07.985-3.07 2.493 0 1.539 1.211 2.507 2.843 2.507zm6.977-.148h1.343v-4.984c0-1.477.867-2.375 2.211-2.375 1.344 0 1.985.718 1.985 2.234V199h1.343v-5.453c0-2-1.054-3.117-2.945-3.117-1.289 0-2.109.547-2.531 1.476h-.125v-1.328h-1.281V199zm14.874 0h1.343v-8.422h-1.343V199zm.672-10.047a.94.94 0 00.937-.937.94.94 0 00-.937-.938.94.94 0 00-.938.938.94.94 0 00.938.937zM437.979 199h1.344v-4.984c0-1.477.867-2.375 2.21-2.375 1.344 0 1.985.718 1.985 2.234V199h1.344v-5.453c0-2-1.055-3.117-2.946-3.117-1.289 0-2.109.547-2.531 1.476h-.125v-1.328h-1.281V199zm10.398-10.602v2.18h-1.36v1.125h1.36v5.109c0 1.61.695 2.25 2.429 2.25a4.5 4.5 0 00.79-.078v-1.132c-.25.023-.383.031-.625.031-.875 0-1.25-.422-1.25-1.414v-4.766h1.875v-1.125h-1.875v-2.18h-1.344zM454.119 199h1.343v-5.219c0-1.187.93-2.047 2.211-2.047.266 0 .75.047.86.078v-1.343a5.65 5.65 0 00-.672-.039c-1.117 0-2.086.578-2.336 1.398h-.125v-1.25h-1.281V199zm9.812.148c2.398 0 3.882-1.656 3.882-4.359 0-2.711-1.484-4.359-3.882-4.359-2.399 0-3.883 1.648-3.883 4.359 0 2.703 1.484 4.359 3.883 4.359zm0-1.21c-1.594 0-2.493-1.157-2.493-3.149 0-2 .899-3.148 2.493-3.148 1.593 0 2.492 1.148 2.492 3.148 0 1.992-.899 3.149-2.492 3.149zm9.601 1.21c1.164 0 2.164-.554 2.695-1.492h.125V199h1.281v-11.766h-1.343v4.672h-.118c-.476-.922-1.468-1.476-2.64-1.476-2.141 0-3.539 1.718-3.539 4.359 0 2.649 1.383 4.359 3.539 4.359zm.312-7.507c1.524 0 2.477 1.218 2.477 3.148 0 1.945-.945 3.149-2.477 3.149-1.539 0-2.461-1.18-2.461-3.149 0-1.961.93-3.148 2.461-3.148zm13.703-1.063h-1.344v4.984c0 1.477-.812 2.36-2.297 2.36-1.343 0-1.906-.703-1.906-2.219v-5.125h-1.344v5.453c0 1.992.985 3.117 2.875 3.117 1.289 0 2.188-.531 2.61-1.468h.125V199h1.281v-8.422zm9.992 2.578c-.235-1.5-1.485-2.726-3.531-2.726-2.36 0-3.86 1.703-3.86 4.328 0 2.68 1.508 4.39 3.867 4.39 2.024 0 3.282-1.14 3.524-2.687h-1.36c-.25.953-1.039 1.477-2.171 1.477-1.5 0-2.469-1.235-2.469-3.18 0-1.906.953-3.117 2.469-3.117 1.211 0 1.953.679 2.171 1.515h1.36zm3.195-4.758v2.18h-1.36v1.125h1.36v5.109c0 1.61.695 2.25 2.429 2.25.266 0 .524-.031.789-.078v-1.132c-.25.023-.382.031-.625.031-.875 0-1.25-.422-1.25-1.414v-4.766h1.875v-1.125h-1.875v-2.18h-1.343zM506.507 199h1.344v-8.422h-1.344V199zm.672-10.047a.94.94 0 00.937-.937.94.94 0 00-.937-.938.94.94 0 00-.938.938.94.94 0 00.938.937zm7.187 10.195c2.398 0 3.883-1.656 3.883-4.359 0-2.711-1.485-4.359-3.883-4.359-2.399 0-3.883 1.648-3.883 4.359 0 2.703 1.484 4.359 3.883 4.359zm0-1.21c-1.594 0-2.492-1.157-2.492-3.149 0-2 .898-3.148 2.492-3.148 1.594 0 2.492 1.148 2.492 3.148 0 1.992-.898 3.149-2.492 3.149zM520.85 199h1.343v-4.984c0-1.477.868-2.375 2.211-2.375 1.344 0 1.985.718 1.985 2.234V199h1.344v-5.453c0-2-1.055-3.117-2.946-3.117-1.289 0-2.109.547-2.531 1.476h-.125v-1.328h-1.281V199z" fill="#251A3F"/>
  <g filter="url(#PpCooUu57c)">
    <path fill-rule="evenodd" clip-rule="evenodd" d="M85 266a8 8 0 018-8h360a8 8 0 018 8v83a8 8 0 01-8 8H93a8 8 0 01-8-8v-83z" fill="#fff"/>
    <path d="M85.5 266a7.5 7.5 0 017.5-7.5h360a7.5 7.5 0 017.5 7.5v83a7.5 7.5 0 01-7.5 7.5H93a7.5 7.5 0 01-7.5-7.5v-83z" stroke="#D8D8D8"/>
  </g>
  <path d="M125 332.5c14.083 0 25.5-11.417 25.5-25.5s-11.417-25.5-25.5-25.5-25.5 11.417-25.5 25.5 11.417 25.5 25.5 25.5z" fill="#029D7F" stroke="#E0E0E0"/>
  <path d="M113.404 299.908V314h3.584v-4.131h2.305c3.135 0 5.293-1.963 5.293-4.971 0-3.027-2.051-4.99-5.078-4.99h-6.104zm3.584 2.744h1.573c1.504 0 2.402.791 2.402 2.256 0 1.475-.898 2.266-2.422 2.266h-1.553v-4.522zm19.096 8.457h-5.83v-11.201h-3.584V314h9.414v-2.891z" fill="#fff"/>
  <path d="M163.196 285.136V295h2.065v-3.062h1.948c2.078 0 3.52-1.361 3.52-3.391 0-2.051-1.387-3.411-3.417-3.411h-4.116zm2.065 1.695h1.504c1.189 0 1.866.602 1.866 1.723 0 1.107-.691 1.709-1.873 1.709h-1.497v-3.432zm10.11 6.788c-.691 0-1.176-.342-1.176-.902 0-.54.417-.848 1.271-.909l1.525-.096v.554c0 .765-.697 1.353-1.62 1.353zm-.657 1.497c.978 0 1.798-.41 2.188-1.1h.123V295h1.928v-5.147c0-1.614-1.128-2.557-3.124-2.557-1.894 0-3.172.875-3.302 2.269h1.832c.164-.451.643-.697 1.36-.697.821 0 1.272.356 1.272.985v.615l-1.825.109c-1.873.11-2.919.902-2.919 2.27 0 1.381 1.018 2.269 2.467 2.269zm7.253-9.447v1.866h-1.176v1.566h1.176v3.862c0 1.47.725 2.064 2.557 2.064.382 0 .752-.041.998-.089v-1.517c-.192.02-.328.027-.588.027-.677 0-.978-.301-.978-.957v-3.39h1.566v-1.566h-1.566v-1.866h-1.989zm5.708 9.331h1.989v-4.177c0-1.059.745-1.702 1.832-1.702.321 0 .786.062.943.123v-1.811c-.171-.062-.506-.096-.779-.096-.957 0-1.736.574-1.935 1.326h-.123v-1.203h-1.927V295zm6.603 0h1.989v-7.54h-1.989V295zm.998-8.668c.622 0 1.128-.506 1.128-1.142 0-.635-.506-1.134-1.128-1.134a1.13 1.13 0 00-1.128 1.134c0 .636.513 1.142 1.128 1.142zm10.171 3.787c-.164-1.716-1.36-2.823-3.356-2.823-2.359 0-3.685 1.415-3.685 3.917 0 2.529 1.333 3.951 3.685 3.951 1.962 0 3.192-1.087 3.356-2.775h-1.859c-.151.745-.684 1.141-1.497 1.141-1.067 0-1.675-.813-1.675-2.317 0-1.484.602-2.283 1.675-2.283.847 0 1.36.471 1.497 1.189h1.859zm4.231.287h-.123v-5.824h-1.989V295h1.989v-2.502l.547-.56 2.201 3.062h2.359l-3.07-4.307 2.871-3.233h-2.262l-2.523 2.946zm17.486 2.796h-4.389v-8.066h-2.064V295h6.453v-1.798zm4.887.417c-.69 0-1.176-.342-1.176-.902 0-.54.417-.848 1.272-.909l1.524-.096v.554c0 .765-.697 1.353-1.62 1.353zm-.656 1.497c.977 0 1.798-.41 2.187-1.1h.123V295h1.928v-5.147c0-1.614-1.128-2.557-3.124-2.557-1.893 0-3.172.875-3.302 2.269h1.832c.164-.451.643-.697 1.361-.697.82 0 1.271.356 1.271.985v.615l-1.825.109c-1.873.11-2.919.902-2.919 2.27 0 1.381 1.019 2.269 2.468 2.269zm16.884-7.656h-1.975l-1.121 5.407h-.124l-1.326-5.407h-1.9l-1.319 5.407h-.123l-1.122-5.407h-2.016l2.01 7.54h2.091l1.333-5.202h.123l1.347 5.202h2.119l2.003-7.54zm-75.381 35.181v-1.375h-4.57v1.234h3.172v.273c0 1.907-1.367 3.196-3.383 3.196-2.265 0-3.672-1.766-3.672-4.61 0-2.804 1.43-4.601 3.664-4.601 1.672 0 2.805.804 3.289 2.328h1.43c-.406-2.234-2.219-3.625-4.719-3.625-3.086 0-5.109 2.336-5.109 5.898 0 3.61 1.992 5.907 5.109 5.907 2.883 0 4.789-1.844 4.789-4.625zm6.273 4.507c2.399 0 3.883-1.656 3.883-4.359 0-2.711-1.484-4.359-3.883-4.359-2.398 0-3.882 1.648-3.882 4.359 0 2.703 1.484 4.359 3.882 4.359zm0-1.21c-1.593 0-2.492-1.157-2.492-3.149 0-2 .899-3.148 2.492-3.148 1.594 0 2.493 1.148 2.493 3.148 0 1.992-.899 3.149-2.493 3.149zm9.945 1.21c2.399 0 3.883-1.656 3.883-4.359 0-2.711-1.484-4.359-3.883-4.359-2.398 0-3.882 1.648-3.882 4.359 0 2.703 1.484 4.359 3.882 4.359zm0-1.21c-1.593 0-2.492-1.157-2.492-3.149 0-2 .899-3.148 2.492-3.148 1.594 0 2.493 1.148 2.493 3.148 0 1.992-.899 3.149-2.493 3.149zm9.602 1.21c1.164 0 2.164-.554 2.695-1.492h.125V327h1.281v-11.766h-1.344v4.672h-.117c-.476-.922-1.469-1.476-2.64-1.476-2.141 0-3.54 1.718-3.54 4.359 0 2.649 1.383 4.359 3.54 4.359zm.312-7.507c1.523 0 2.477 1.218 2.477 3.148 0 1.945-.946 3.149-2.477 3.149-1.539 0-2.461-1.18-2.461-3.149 0-1.961.93-3.148 2.461-3.148zm14.999-1.211c-2.133 0-3.523 1.718-3.523 4.359 0 2.656 1.375 4.359 3.523 4.359 1.188 0 2.094-.492 2.633-1.414h.125v4.078h1.359v-11.234h-1.296v1.406h-.125c-.5-.945-1.547-1.554-2.696-1.554zm.305 7.508c-1.531 0-2.438-1.172-2.438-3.149 0-1.969.914-3.148 2.446-3.148 1.523 0 2.484 1.218 2.484 3.148 0 1.938-.953 3.149-2.492 3.149zm13.648-7.36h-1.344v4.984c0 1.477-.812 2.36-2.297 2.36-1.343 0-1.906-.703-1.906-2.219v-5.125h-1.344v5.453c0 1.992.985 3.117 2.875 3.117 1.289 0 2.188-.531 2.61-1.468h.125V327h1.281v-8.422zm6.382 1.039c1.336 0 2.227.985 2.258 2.477h-4.64c.101-1.492 1.039-2.477 2.382-2.477zm2.219 5.203c-.351.742-1.086 1.141-2.172 1.141-1.429 0-2.359-1.055-2.429-2.719v-.062h6.054v-.516c0-2.617-1.383-4.234-3.656-4.234-2.313 0-3.797 1.718-3.797 4.367 0 2.664 1.461 4.351 3.797 4.351 1.844 0 3.156-.89 3.547-2.328h-1.344zm3.859-3.937c0 1.219.719 1.898 2.297 2.281l1.445.352c.899.218 1.336.609 1.336 1.187 0 .774-.812 1.313-1.945 1.313-1.078 0-1.75-.454-1.977-1.164h-1.382c.148 1.398 1.437 2.296 3.312 2.296 1.914 0 3.375-1.039 3.375-2.546 0-1.211-.766-1.899-2.352-2.282l-1.296-.312c-.993-.242-1.461-.602-1.461-1.18 0-.75.781-1.258 1.781-1.258 1.016 0 1.672.446 1.851 1.118h1.329c-.18-1.383-1.407-2.258-3.172-2.258-1.789 0-3.141 1.054-3.141 2.453zm9.547-4.485v2.18h-1.36v1.125h1.36v5.109c0 1.61.695 2.25 2.429 2.25.266 0 .524-.031.789-.078v-1.132c-.25.023-.382.031-.625.031-.875 0-1.25-.422-1.25-1.414v-4.766h1.875v-1.125h-1.875v-2.18h-1.343zM255.762 327h1.343v-8.422h-1.343V327zm.671-10.047a.94.94 0 00.938-.937.94.94 0 00-.938-.938.94.94 0 00-.937.938.94.94 0 00.937.937zm7.188 10.195c2.398 0 3.882-1.656 3.882-4.359 0-2.711-1.484-4.359-3.882-4.359-2.399 0-3.883 1.648-3.883 4.359 0 2.703 1.484 4.359 3.883 4.359zm0-1.21c-1.594 0-2.493-1.157-2.493-3.149 0-2 .899-3.148 2.493-3.148 1.593 0 2.492 1.148 2.492 3.148 0 1.992-.899 3.149-2.492 3.149zm6.484 1.062h1.343v-4.984c0-1.477.867-2.375 2.211-2.375 1.344 0 1.985.718 1.985 2.234V327h1.343v-5.453c0-2-1.054-3.117-2.945-3.117-1.289 0-2.109.547-2.531 1.476h-.125v-1.328h-1.281V327zm10.273-11.281l.132 7.531h1.297l.133-7.531h-1.562zm.789 11.422c.632 0 1.078-.453 1.078-1.086 0-.641-.446-1.094-1.078-1.094-.633 0-1.086.453-1.086 1.094 0 .633.453 1.086 1.086 1.086zm16.272-1.407h-5.437v-10.007h-1.406V327h6.843v-1.266zm5.539-6.117c1.336 0 2.227.985 2.258 2.477h-4.641c.102-1.492 1.039-2.477 2.383-2.477zm2.219 5.203c-.352.742-1.086 1.141-2.172 1.141-1.43 0-2.36-1.055-2.43-2.719v-.062h6.055v-.516c0-2.617-1.383-4.234-3.656-4.234-2.313 0-3.797 1.718-3.797 4.367 0 2.664 1.461 4.351 3.797 4.351 1.843 0 3.156-.89 3.546-2.328h-1.343zm4.616-8.422v2.18h-1.359v1.125h1.359v5.109c0 1.61.696 2.25 2.43 2.25.266 0 .524-.031.789-.078v-1.132c-.25.023-.383.031-.625.031-.875 0-1.25-.422-1.25-1.414v-4.766h1.875v-1.125h-1.875v-2.18h-1.344zm6.891 3.54l1.414-4.211h-1.524l-.867 4.211h.977zm3.085.945c0 1.219.719 1.898 2.297 2.281l1.445.352c.899.218 1.336.609 1.336 1.187 0 .774-.812 1.313-1.945 1.313-1.078 0-1.75-.454-1.977-1.164h-1.382c.148 1.398 1.437 2.296 3.312 2.296 1.914 0 3.375-1.039 3.375-2.546 0-1.211-.765-1.899-2.351-2.282l-1.297-.312c-.992-.242-1.461-.602-1.461-1.18 0-.75.781-1.258 1.781-1.258 1.016 0 1.672.446 1.852 1.118h1.328c-.18-1.383-1.407-2.258-3.172-2.258-1.789 0-3.141 1.054-3.141 2.453zM333.937 327h1.344v-4.984c0-1.422.828-2.375 2.336-2.375 1.273 0 1.945.742 1.945 2.234V327h1.344v-5.453c0-1.977-1.125-3.117-2.907-3.117-1.289 0-2.172.547-2.593 1.476h-.125v-4.672h-1.344V327zm13.374.148c2.399 0 3.883-1.656 3.883-4.359 0-2.711-1.484-4.359-3.883-4.359-2.398 0-3.882 1.648-3.882 4.359 0 2.703 1.484 4.359 3.882 4.359zm0-1.21c-1.593 0-2.492-1.157-2.492-3.149 0-2 .899-3.148 2.492-3.148 1.594 0 2.493 1.148 2.493 3.148 0 1.992-.899 3.149-2.493 3.149zm10.586-7.508c-1.148 0-2.156.586-2.695 1.554h-.125v-1.406h-1.282v11.234h1.344v-4.078h.125c.461.891 1.43 1.414 2.633 1.414 2.141 0 3.539-1.726 3.539-4.359 0-2.648-1.391-4.359-3.539-4.359zm-.32 7.508c-1.516 0-2.477-1.219-2.477-3.149 0-1.937.961-3.148 2.485-3.148 1.539 0 2.46 1.179 2.46 3.148s-.921 3.149-2.468 3.149zm14.929 1.21c2.398 0 3.882-1.656 3.882-4.359 0-2.711-1.484-4.359-3.882-4.359-2.399 0-3.883 1.648-3.883 4.359 0 2.703 1.484 4.359 3.883 4.359zm0-1.21c-1.594 0-2.493-1.157-2.493-3.149 0-2 .899-3.148 2.493-3.148 1.593 0 2.492 1.148 2.492 3.148 0 1.992-.899 3.149-2.492 3.149zM378.99 327h1.343v-4.984c0-1.477.867-2.375 2.211-2.375 1.344 0 1.985.718 1.985 2.234V327h1.343v-5.453c0-2-1.054-3.117-2.945-3.117-1.289 0-2.109.547-2.531 1.476h-.125v-1.328h-1.281V327zm17.436-1.031c-.976 0-1.703-.5-1.703-1.36 0-.843.563-1.289 1.844-1.375l2.266-.148v.773c0 1.203-1.024 2.11-2.407 2.11zm-.25 1.179c1.125 0 2.047-.492 2.594-1.39h.125V327h1.281v-5.766c0-1.75-1.148-2.804-3.203-2.804-1.797 0-3.125.89-3.305 2.242h1.36c.187-.664.89-1.047 1.898-1.047 1.258 0 1.907.57 1.907 1.609V322l-2.43.148c-1.961.118-3.07.985-3.07 2.493 0 1.539 1.21 2.507 2.843 2.507zm18.953-5.992c-.235-1.5-1.485-2.726-3.532-2.726-2.359 0-3.859 1.703-3.859 4.328 0 2.68 1.508 4.39 3.867 4.39 2.024 0 3.281-1.14 3.524-2.687h-1.36c-.25.953-1.039 1.477-2.172 1.477-1.5 0-2.468-1.235-2.468-3.18 0-1.906.953-3.117 2.468-3.117 1.211 0 1.953.679 2.172 1.515h1.36zm5.069 4.813c-.976 0-1.703-.5-1.703-1.36 0-.843.563-1.289 1.844-1.375l2.266-.148v.773c0 1.203-1.024 2.11-2.407 2.11zm-.25 1.179c1.125 0 2.047-.492 2.594-1.39h.125V327h1.281v-5.766c0-1.75-1.148-2.804-3.203-2.804-1.797 0-3.125.89-3.304 2.242h1.359c.188-.664.891-1.047 1.898-1.047 1.258 0 1.907.57 1.907 1.609V322l-2.43.148c-1.961.118-3.07.985-3.07 2.493 0 1.539 1.211 2.507 2.843 2.507zm7.055-.148h1.344v-11.766h-1.344V327zm4.523 0h1.344v-11.766h-1.344V327z" fill="#251A3F"/>
  <g filter="url(#PpCooUu57d)">
    <path fill-rule="evenodd" clip-rule="evenodd" d="M279 398a8 8 0 018-8h327a8 8 0 018 8v83a8 8 0 01-8 8H287a8 8 0 01-8-8v-83z" fill="#fff"/>
    <path d="M279.5 398a7.5 7.5 0 017.5-7.5h327a7.5 7.5 0 017.5 7.5v83a7.5 7.5 0 01-7.5 7.5H287a7.5 7.5 0 01-7.5-7.5v-83z" stroke="#D8D8D8"/>
  </g>
  <path d="M319 464.5c14.083 0 25.5-11.417 25.5-25.5s-11.417-25.5-25.5-25.5-25.5 11.417-25.5 25.5 11.417 25.5 25.5 25.5z" fill="#A9366D" stroke="#E0E0E0"/>
  <path d="M305.559 431.908V446h3.584v-4.131h2.304c3.135 0 5.293-1.963 5.293-4.971 0-3.027-2.05-4.99-5.078-4.99h-6.103zm3.584 2.744h1.572c1.504 0 2.402.791 2.402 2.256 0 1.475-.898 2.266-2.421 2.266h-1.553v-4.522zm22.65 5.391v-1.729h-6.035v2.461h2.578l-.01.215c-.098 1.416-1.23 2.373-2.852 2.373-2.06 0-3.388-1.689-3.388-4.482 0-2.744 1.201-4.336 3.232-4.336 1.377 0 2.432.762 2.783 2.012h3.545c-.361-2.871-2.92-4.893-6.338-4.893-4.257 0-6.875 2.695-6.875 7.266 0 4.629 2.618 7.314 6.963 7.314 4.014 0 6.397-2.353 6.397-6.201z" fill="#fff"/>
  <path d="M357.196 417.136V427h2.065v-3.062h1.948c2.078 0 3.52-1.361 3.52-3.391 0-2.051-1.387-3.411-3.417-3.411h-4.116zm2.065 1.695h1.504c1.189 0 1.866.602 1.866 1.723 0 1.107-.691 1.709-1.873 1.709h-1.497v-3.432zm10.11 6.788c-.691 0-1.176-.342-1.176-.902 0-.54.417-.848 1.271-.909l1.525-.096v.554c0 .765-.697 1.353-1.62 1.353zm-.657 1.497c.978 0 1.798-.41 2.188-1.1h.123V427h1.928v-5.147c0-1.614-1.128-2.557-3.124-2.557-1.894 0-3.172.875-3.302 2.269h1.832c.164-.451.643-.697 1.36-.697.821 0 1.272.356 1.272.985v.615l-1.825.109c-1.873.11-2.919.902-2.919 2.27 0 1.381 1.018 2.269 2.467 2.269zm13.508-7.656h-1.989v4.348c0 1.004-.534 1.627-1.525 1.627-.916 0-1.388-.534-1.388-1.573v-4.402h-1.989v4.915c0 1.75 1.012 2.789 2.639 2.789 1.142 0 1.846-.499 2.201-1.374h.123V427h1.928v-7.54zm2.556 7.54h1.989v-10.418h-1.989V427zm17.52-4.026v-1.258h-4.143v1.552h2.14l-.007.177c-.041 1.19-.978 1.99-2.331 1.99-1.627 0-2.652-1.286-2.652-3.398 0-2.071.977-3.336 2.57-3.336 1.148 0 1.976.581 2.283 1.579h2.051c-.287-2.051-2.003-3.397-4.334-3.397-2.871 0-4.683 1.996-4.683 5.175 0 3.226 1.798 5.195 4.731 5.195 2.693 0 4.375-1.641 4.375-4.279zm2.276 4.026h1.989v-4.177c0-1.059.745-1.702 1.832-1.702.321 0 .786.062.943.123v-1.811c-.17-.062-.505-.096-.779-.096-.957 0-1.736.574-1.934 1.326h-.124v-1.203h-1.927V427zm9.173-1.381c-.69 0-1.176-.342-1.176-.902 0-.54.417-.848 1.272-.909l1.524-.096v.554c0 .765-.697 1.353-1.62 1.353zm-.656 1.497c.977 0 1.798-.41 2.187-1.1h.123V427h1.928v-5.147c0-1.614-1.128-2.557-3.124-2.557-1.893 0-3.172.875-3.302 2.269h1.832c.165-.451.643-.697 1.361-.697.82 0 1.271.356 1.271.985v.615l-1.825.109c-1.873.11-2.919.902-2.919 2.27 0 1.381 1.019 2.269 2.468 2.269zm6.753-.116h1.99v-4.327c0-.978.574-1.641 1.572-1.641.902 0 1.388.54 1.388 1.586V427h1.989v-4.854c0-1.811-.964-2.83-2.584-2.83-1.107 0-1.928.52-2.276 1.381h-.123v-4.115h-1.956V427zm12.086-1.381c-.69 0-1.176-.342-1.176-.902 0-.54.417-.848 1.272-.909l1.524-.096v.554c0 .765-.697 1.353-1.62 1.353zm-.656 1.497c.977 0 1.798-.41 2.187-1.1h.123V427h1.928v-5.147c0-1.614-1.128-2.557-3.124-2.557-1.894 0-3.172.875-3.302 2.269h1.832c.164-.451.643-.697 1.361-.697.82 0 1.271.356 1.271.985v.615l-1.825.109c-1.873.11-2.919.902-2.919 2.27 0 1.381 1.019 2.269 2.468 2.269zm6.685-.116h1.989v-4.539c0-.841.554-1.449 1.333-1.449.779 0 1.244.458 1.244 1.258V427h1.914v-4.614c0-.8.52-1.374 1.327-1.374.84 0 1.257.444 1.257 1.34V427h1.99v-5.175c0-1.552-.937-2.529-2.441-2.529-1.053 0-1.921.554-2.269 1.394h-.123c-.301-.875-1.026-1.394-2.085-1.394-.992 0-1.778.533-2.085 1.394h-.123v-1.23h-1.928V427zm-79.115 32v-11.273h-1.406V459h1.406zm9.749-4.742h-.125v-7.024h-1.344V459h1.344v-3.195l.805-.75 3.156 3.945h1.711l-3.867-4.812 3.625-3.61h-1.649l-3.656 3.68zm7.632 4.742h1.344v-4.984c0-1.477.867-2.375 2.211-2.375 1.344 0 1.984.718 1.984 2.234V459h1.344v-5.453c0-2-1.055-3.117-2.945-3.117-1.289 0-2.11.547-2.531 1.476h-.125v-1.328h-1.282V459zm13.297.148c2.398 0 3.883-1.656 3.883-4.359 0-2.711-1.485-4.359-3.883-4.359-2.399 0-3.883 1.648-3.883 4.359 0 2.703 1.484 4.359 3.883 4.359zm0-1.21c-1.594 0-2.492-1.157-2.492-3.149 0-2 .898-3.148 2.492-3.148 1.594 0 2.492 1.148 2.492 3.148 0 1.992-.898 3.149-2.492 3.149zm16.765-7.36h-1.352l-1.656 6.734h-.125l-1.883-6.734h-1.289l-1.882 6.734h-.125l-1.657-6.734h-1.359l2.359 8.422h1.36l1.875-6.516h.125L402.56 459h1.368l2.359-8.422zm7.101 2.305c0 1.219.719 1.898 2.297 2.281l1.445.352c.898.218 1.336.609 1.336 1.187 0 .774-.813 1.313-1.945 1.313-1.078 0-1.75-.454-1.977-1.164h-1.383c.149 1.398 1.438 2.296 3.313 2.296 1.914 0 3.375-1.039 3.375-2.546 0-1.211-.766-1.899-2.352-2.282l-1.297-.312c-.992-.242-1.461-.602-1.461-1.18 0-.75.782-1.258 1.782-1.258 1.015 0 1.672.446 1.851 1.118h1.328c-.179-1.383-1.406-2.258-3.172-2.258-1.789 0-3.14 1.054-3.14 2.453zm12.523 6.265c2.398 0 3.883-1.656 3.883-4.359 0-2.711-1.485-4.359-3.883-4.359-2.399 0-3.883 1.648-3.883 4.359 0 2.703 1.484 4.359 3.883 4.359zm0-1.21c-1.594 0-2.492-1.157-2.492-3.149 0-2 .898-3.148 2.492-3.148 1.594 0 2.492 1.148 2.492 3.148 0 1.992-.898 3.149-2.492 3.149zm6.484 1.062h1.344v-5.219c0-1.187.851-2.14 1.953-2.14 1.062 0 1.758.64 1.758 1.64V459h1.343v-5.414c0-1.07.782-1.945 1.953-1.945 1.188 0 1.774.609 1.774 1.851V459h1.344v-5.82c0-1.766-.961-2.75-2.68-2.75-1.164 0-2.125.586-2.578 1.476h-.125c-.391-.875-1.188-1.476-2.328-1.476-1.125 0-1.969.539-2.352 1.476h-.125v-1.328h-1.281V459zm17.773-7.383c1.336 0 2.226.985 2.258 2.477h-4.641c.102-1.492 1.039-2.477 2.383-2.477zm2.219 5.203c-.352.742-1.086 1.141-2.172 1.141-1.43 0-2.36-1.055-2.43-2.719v-.062h6.055v-.516c0-2.617-1.383-4.234-3.657-4.234-2.312 0-3.796 1.718-3.796 4.367 0 2.664 1.461 4.351 3.796 4.351 1.844 0 3.157-.89 3.547-2.328h-1.343zm7.515 2.328c2.398 0 3.883-1.656 3.883-4.359 0-2.711-1.485-4.359-3.883-4.359-2.399 0-3.883 1.648-3.883 4.359 0 2.703 1.484 4.359 3.883 4.359zm0-1.21c-1.594 0-2.492-1.157-2.492-3.149 0-2 .898-3.148 2.492-3.148 1.594 0 2.492 1.148 2.492 3.148 0 1.992-.898 3.149-2.492 3.149zm6.484 1.062h1.344v-4.984c0-1.477.867-2.375 2.21-2.375 1.344 0 1.985.718 1.985 2.234V459h1.344v-5.453c0-2-1.055-3.117-2.946-3.117-1.289 0-2.109.547-2.531 1.476h-.125v-1.328h-1.281V459zm13.195-7.383c1.336 0 2.226.985 2.258 2.477h-4.641c.101-1.492 1.039-2.477 2.383-2.477zm2.218 5.203c-.351.742-1.085 1.141-2.171 1.141-1.43 0-2.36-1.055-2.43-2.719v-.062h6.055v-.516c0-2.617-1.383-4.234-3.657-4.234-2.312 0-3.797 1.718-3.797 4.367 0 2.664 1.461 4.351 3.797 4.351 1.844 0 3.157-.89 3.547-2.328h-1.344zm19.656-6.242h-1.352l-1.656 6.734h-.125l-1.883-6.734h-1.289l-1.883 6.734h-.125l-1.656-6.734h-1.359l2.359 8.422h1.36l1.875-6.516h.125l1.882 6.516h1.368l2.359-8.422zm2.367 8.422h1.343v-4.984c0-1.422.829-2.375 2.336-2.375 1.274 0 1.946.742 1.946 2.234V459h1.343v-5.453c0-1.977-1.125-3.117-2.906-3.117-1.289 0-2.172.547-2.594 1.476h-.125v-4.672h-1.343V459zm13.374.148c2.399 0 3.883-1.656 3.883-4.359 0-2.711-1.484-4.359-3.883-4.359-2.398 0-3.883 1.648-3.883 4.359 0 2.703 1.485 4.359 3.883 4.359zm0-1.21c-1.593 0-2.492-1.157-2.492-3.149 0-2 .899-3.148 2.492-3.148 1.594 0 2.492 1.148 2.492 3.148 0 1.992-.898 3.149-2.492 3.149zm18.46-4.782c-.234-1.5-1.484-2.726-3.531-2.726-2.359 0-3.859 1.703-3.859 4.328 0 2.68 1.508 4.39 3.867 4.39 2.023 0 3.281-1.14 3.523-2.687h-1.359c-.25.953-1.039 1.477-2.172 1.477-1.5 0-2.469-1.235-2.469-3.18 0-1.906.954-3.117 2.469-3.117 1.211 0 1.953.679 2.172 1.515h1.359zm5.07 4.813c-.976 0-1.703-.5-1.703-1.36 0-.843.563-1.289 1.844-1.375l2.266-.148v.773c0 1.203-1.024 2.11-2.407 2.11zm-.25 1.179c1.125 0 2.047-.492 2.594-1.39h.125V459h1.281v-5.766c0-1.75-1.148-2.804-3.203-2.804-1.797 0-3.125.89-3.304 2.242h1.359c.187-.664.891-1.047 1.898-1.047 1.258 0 1.907.57 1.907 1.609V454l-2.43.148c-1.961.118-3.07.985-3.07 2.493 0 1.539 1.211 2.507 2.843 2.507zm6.976-.148h1.344v-4.984c0-1.477.867-2.375 2.211-2.375 1.344 0 1.985.718 1.985 2.234V459h1.343v-5.453c0-2-1.054-3.117-2.945-3.117-1.289 0-2.109.547-2.531 1.476h-.125v-1.328h-1.282V459zm14.922 0h1.343v-4.984c0-1.422.828-2.375 2.336-2.375 1.274 0 1.946.742 1.946 2.234V459h1.343v-5.453c0-1.977-1.125-3.117-2.906-3.117-1.289 0-2.172.547-2.594 1.476h-.125v-4.672h-1.343V459zm13.273-7.383c1.336 0 2.226.985 2.257 2.477h-4.64c.101-1.492 1.039-2.477 2.383-2.477zm2.218 5.203c-.351.742-1.086 1.141-2.172 1.141-1.429 0-2.359-1.055-2.429-2.719v-.062h6.054v-.516c0-2.617-1.382-4.234-3.656-4.234-2.312 0-3.797 1.718-3.797 4.367 0 2.664 1.461 4.351 3.797 4.351 1.844 0 3.156-.89 3.547-2.328h-1.344zm4.133 2.18h1.344v-11.766h-1.344V459zm8.546-8.57c-1.148 0-2.156.586-2.695 1.554h-.125v-1.406h-1.281v11.234h1.343v-4.078h.125c.461.891 1.43 1.414 2.633 1.414 2.141 0 3.539-1.726 3.539-4.359 0-2.648-1.39-4.359-3.539-4.359zm-.32 7.508c-1.516 0-2.477-1.219-2.477-3.149 0-1.937.961-3.148 2.485-3.148 1.539 0 2.461 1.179 2.461 3.148s-.922 3.149-2.469 3.149zm6.898-10.219l.133 7.531h1.297l.132-7.531h-1.562zm.789 11.422c.633 0 1.078-.453 1.078-1.086 0-.641-.445-1.094-1.078-1.094s-1.086.453-1.086 1.094c0 .633.453 1.086 1.086 1.086z" fill="#251A3F"/>
  <circle cx="702.5" cy="253.5" r="19.5" fill="#F7B129"/>
  <defs>
    <filter id="PpCooUu57a" x="0" y="0" width="316" height="139" filterUnits="userSpaceOnUse" color-interpolation-filters="sRGB">
      <feFlood flood-opacity="0" result="BackgroundImageFix"/>
      <feColorMatrix in="SourceAlpha" values="0 0 0 0 0 0 0 0 0 0 0 0 0 0 0 0 0 0 127 0"/>
      <feOffset dy="10"/>
      <feGaussianBlur stdDeviation="10"/>
      <feColorMatrix values="0 0 0 0 0 0 0 0 0 0 0 0 0 0 0 0 0 0 0.1 0"/>
      <feBlend in2="BackgroundImageFix" result="effect1_dropShadow"/>
      <feBlend in="SourceGraphic" in2="effect1_dropShadow" result="shape"/>
    </filter>
    <filter id="PpCooUu57b" x="240" y="120" width="327" height="139" filterUnits="userSpaceOnUse" color-interpolation-filters="sRGB">
      <feFlood flood-opacity="0" result="BackgroundImageFix"/>
      <feColorMatrix in="SourceAlpha" values="0 0 0 0 0 0 0 0 0 0 0 0 0 0 0 0 0 0 127 0"/>
      <feOffset dy="10"/>
      <feGaussianBlur stdDeviation="10"/>
      <feColorMatrix values="0 0 0 0 0 0 0 0 0 0 0 0 0 0 0 0 0 0 0.1 0"/>
      <feBlend in2="BackgroundImageFix" result="effect1_dropShadow"/>
      <feBlend in="SourceGraphic" in2="effect1_dropShadow" result="shape"/>
    </filter>
    <filter id="PpCooUu57c" x="65" y="248" width="416" height="139" filterUnits="userSpaceOnUse" color-interpolation-filters="sRGB">
      <feFlood flood-opacity="0" result="BackgroundImageFix"/>
      <feColorMatrix in="SourceAlpha" values="0 0 0 0 0 0 0 0 0 0 0 0 0 0 0 0 0 0 127 0"/>
      <feOffset dy="10"/>
      <feGaussianBlur stdDeviation="10"/>
      <feColorMatrix values="0 0 0 0 0 0 0 0 0 0 0 0 0 0 0 0 0 0 0.1 0"/>
      <feBlend in2="BackgroundImageFix" result="effect1_dropShadow"/>
      <feBlend in="SourceGraphic" in2="effect1_dropShadow" result="shape"/>
    </filter>
    <filter id="PpCooUu57d" x="259" y="380" width="383" height="139" filterUnits="userSpaceOnUse" color-interpolation-filters="sRGB">
      <feFlood flood-opacity="0" result="BackgroundImageFix"/>
      <feColorMatrix in="SourceAlpha" values="0 0 0 0 0 0 0 0 0 0 0 0 0 0 0 0 0 0 127 0"/>
      <feOffset dy="10"/>
      <feGaussianBlur stdDeviation="10"/>
      <feColorMatrix values="0 0 0 0 0 0 0 0 0 0 0 0 0 0 0 0 0 0 0.1 0"/>
      <feBlend in2="BackgroundImageFix" result="effect1_dropShadow"/>
      <feBlend in="SourceGraphic" in2="effect1_dropShadow" result="shape"/>
    </filter>
  </defs>
</svg>
