<svg xmlns="http://www.w3.org/2000/svg" fill="none" viewBox="0 0 535 127">
  <path d="M378.707 44.707a1 1 0 000-1.414l-6.364-6.364a1 1 0 10-1.414 1.414L376.586 44l-5.657 5.657a1 1 0 101.414 1.414l6.364-6.364zM334 45h44v-2h-44v2zm-169.293-.293a1 1 0 000-1.414l-6.364-6.364a1 1 0 10-1.414 1.414L162.586 44l-5.657 5.657a1 1 0 101.414 1.414l6.364-6.364zM120 45h44v-2h-44v2z" fill="#029D7F"/>
  <path d="M455.276 106.96a2.857 2.857 0 00-1.265-1.219c-.537-.291-1.173-.437-1.909-.437-1.273 0-2.292.422-3.059 1.265-.767.828-1.15 1.94-1.15 3.335 0 1.487.399 2.653 1.196 3.496.813.828 1.924 1.242 3.335 1.242.966 0 1.779-.245 2.438-.736.675-.491 1.165-1.196 1.472-2.116h-4.991v-2.898h8.556v3.657c-.291.981-.79 1.894-1.495 2.737-.69.843-1.572 1.526-2.645 2.047-1.073.521-2.285.782-3.634.782-1.595 0-3.021-.345-4.278-1.035a7.632 7.632 0 01-2.921-2.921c-.69-1.242-1.035-2.66-1.035-4.255 0-1.595.345-3.013 1.035-4.255a7.433 7.433 0 012.921-2.921c1.242-.705 2.66-1.058 4.255-1.058 1.932 0 3.557.468 4.876 1.403 1.334.935 2.216 2.231 2.645 3.887h-4.347zm11.226.345a5.086 5.086 0 011.725-1.656 4.386 4.386 0 012.3-.621v4.163h-1.081c-.981 0-1.717.215-2.208.644-.49.414-.736 1.15-.736 2.208V118h-3.933v-12.834h3.933v2.139zm12.239 10.879c-1.257 0-2.392-.268-3.404-.805a5.992 5.992 0 01-2.369-2.3c-.567-.997-.851-2.162-.851-3.496 0-1.319.291-2.476.874-3.473a5.914 5.914 0 012.392-2.323c1.012-.537 2.147-.805 3.404-.805 1.257 0 2.392.268 3.404.805a5.914 5.914 0 012.392 2.323c.583.997.874 2.154.874 3.473s-.299 2.484-.897 3.496a5.919 5.919 0 01-2.415 2.3c-1.012.537-2.147.805-3.404.805zm0-3.404c.751 0 1.388-.276 1.909-.828.537-.552.805-1.342.805-2.369 0-1.027-.261-1.817-.782-2.369a2.455 2.455 0 00-1.886-.828c-.767 0-1.403.276-1.909.828-.506.537-.759 1.326-.759 2.369 0 1.027.245 1.817.736 2.369a2.455 2.455 0 001.886.828zm27.717-9.614L502.985 118h-4.347l-2.024-8.326-2.093 8.326h-4.324l-3.496-12.834h3.933l1.817 9.177 2.162-9.177h4.163l2.185 9.131 1.794-9.131h3.703z" fill="#251A3F"/>
  <path d="M497.28 47.617a9.471 9.471 0 00-12.049 0L462.65 29.645c.4-1.587.386-3.25-.043-4.83a9.514 9.514 0 00-2.404-4.184 9.442 9.442 0 00-13.197-.262 9.525 9.525 0 00-.638 13.226L432.37 49.514a9.31 9.31 0 00-6.831-1.976 9.455 9.455 0 00-5.088 2.12 9.5 9.5 0 00-3.05 4.6 9.534 9.534 0 00.017 5.526 9.502 9.502 0 003.081 4.581 9.35 9.35 0 005.906 2.134h.984a9.479 9.479 0 006.413-3.432 9.542 9.542 0 002.112-6.977 9.231 9.231 0 00-1.181-3.713l14.549-16.61a9.422 9.422 0 008.197.061 9.462 9.462 0 003.281-2.569c.052-.06.098-.127.137-.197l21.991 17.498a9.55 9.55 0 00-.179 8.54 9.481 9.481 0 006.72 5.246 9.459 9.459 0 008.208-2.271 9.52 9.52 0 002.484-3.613 9.547 9.547 0 00.604-4.347 9.454 9.454 0 00-3.445-6.498zm-66.327 12.996a5.72 5.72 0 01-3.938 2.093 5.753 5.753 0 01-5.044-2.06 5.804 5.804 0 01.348-7.774 5.766 5.766 0 015.208-1.597 5.76 5.76 0 012.54 1.201c.231.195.448.407.649.632.098.212.238.4.414.553.571.797.924 1.73 1.024 2.706a5.713 5.713 0 01-1.201 4.246zm26.991-29.625a5.734 5.734 0 01-7.15 1.422 5.76 5.76 0 01-2.6-2.877 5.782 5.782 0 012.11-7 5.734 5.734 0 017.255.703 5.768 5.768 0 011.665 3.506c.136 1.503-.324 3-1.28 4.167v.079zm37.82 27.65a5.765 5.765 0 01-6.128 1.89 5.768 5.768 0 01-2.792-1.856 5.805 5.805 0 01-.65-6.398 5.785 5.785 0 012.361-2.384 5.756 5.756 0 016.382.611 5.8 5.8 0 01.827 8.137zm10.081-19.02a1.833 1.833 0 00-1.361-.4 1.832 1.832 0 00-1.238.697l-2.815 3.535a1.865 1.865 0 00-.177 2.071c.119.215.28.404.472.556.324.26.728.4 1.142.395a1.851 1.851 0 001.457-.692l2.815-3.515a1.838 1.838 0 00-.295-2.647zm11.695-14.753a1.966 1.966 0 00-2.599.297l-5.906 7.366a1.85 1.85 0 00-.4 1.376 1.858 1.858 0 00.695 1.251c.323.26.727.4 1.142.395a1.844 1.844 0 001.457-.691l5.906-7.367a1.983 1.983 0 00-.295-2.627zm7.663-9.19a1.965 1.965 0 00-2.599.296l-2.815 3.555a1.853 1.853 0 00-.437 1.384 1.857 1.857 0 002.084 1.664 1.853 1.853 0 001.247-.737l2.815-3.516a1.976 1.976 0 00-.295-2.646z" fill="#029D7F"/>
  <path d="M533.352 4.338a1.83 1.83 0 00-1.713-.217L517.74 9.276a1.825 1.825 0 00-1.043.966 1.839 1.839 0 00-.04 1.424 1.85 1.85 0 002.382 1.106l11.34-4.227-.177 12.146a1.85 1.85 0 00.485 1.376 1.849 1.849 0 001.326.6 1.85 1.85 0 001.851-1.837l.275-14.931a1.973 1.973 0 00-.787-1.56z" fill="#029D7F"/>
  <path d="M10.404 120.196c-1.18 0-2.239-.191-3.174-.575-.936-.383-1.687-.95-2.254-1.702-.552-.751-.844-1.656-.874-2.714h4.186c.061.598.268 1.058.62 1.38.353.307.813.46 1.38.46.583 0 1.043-.13 1.38-.391.338-.276.507-.651.507-1.127 0-.398-.138-.728-.414-.989a3.07 3.07 0 00-.99-.644c-.383-.168-.935-.36-1.655-.575-1.043-.322-1.894-.644-2.553-.966a4.714 4.714 0 01-1.702-1.426c-.476-.628-.713-1.449-.713-2.461 0-1.502.544-2.675 1.633-3.519 1.088-.858 2.507-1.288 4.255-1.288 1.778 0 3.212.43 4.3 1.288 1.09.844 1.672 2.024 1.749 3.542H11.83c-.03-.521-.223-.927-.575-1.219-.353-.306-.805-.46-1.357-.46-.476 0-.859.131-1.15.391-.292.246-.437.606-.437 1.081 0 .522.245.928.736 1.219.49.292 1.257.606 2.3.943 1.042.353 1.886.69 2.53 1.012a4.81 4.81 0 011.702 1.403c.475.614.713 1.403.713 2.369 0 .92-.238 1.756-.713 2.507-.46.752-1.135 1.35-2.024 1.794-.89.445-1.94.667-3.151.667zm16.689-13.133c1.472 0 2.653.491 3.542 1.472.89.966 1.334 2.3 1.334 4.002v7.498h-3.91v-6.969c0-.858-.222-1.525-.667-2.001-.445-.475-1.043-.713-1.794-.713-.751 0-1.35.238-1.794.713-.445.476-.667 1.143-.667 2.001v6.969h-3.933v-17.02h3.933v5.911c.399-.567.943-1.019 1.633-1.357.69-.337 1.464-.506 2.323-.506zm7.319 6.532c0-1.318.245-2.476.736-3.473.506-.996 1.188-1.763 2.047-2.3.858-.536 1.817-.805 2.875-.805.904 0 1.694.184 2.369.552.69.368 1.219.851 1.587 1.449v-1.817h3.933v12.834h-3.933v-1.817c-.384.598-.92 1.081-1.61 1.449-.675.368-1.465.552-2.37.552a5.27 5.27 0 01-2.851-.805c-.859-.552-1.541-1.326-2.047-2.323-.49-1.012-.736-2.177-.736-3.496zm9.614.023c0-.981-.276-1.755-.828-2.323a2.618 2.618 0 00-1.978-.851 2.69 2.69 0 00-2.001.851c-.537.552-.805 1.319-.805 2.3 0 .982.268 1.764.805 2.346a2.687 2.687 0 002 .851c.783 0 1.442-.283 1.979-.851.552-.567.828-1.341.828-2.323zm11.203-4.278a5.086 5.086 0 011.725-1.656 4.385 4.385 0 012.3-.621v4.163h-1.081c-.981 0-1.717.215-2.208.644-.49.414-.736 1.15-.736 2.208v5.957h-3.933v-12.834h3.933v2.139zm18.495 4.071c0 .368-.023.752-.07 1.15h-8.9c.06.798.314 1.411.759 1.84.46.414 1.02.621 1.679.621.98 0 1.663-.414 2.047-1.242h4.186a5.662 5.662 0 01-1.173 2.277 5.703 5.703 0 01-2.093 1.587c-.844.384-1.787.575-2.83.575-1.257 0-2.376-.268-3.357-.805a5.72 5.72 0 01-2.3-2.3c-.552-.996-.828-2.162-.828-3.496s.268-2.499.805-3.496a5.732 5.732 0 012.3-2.3c.98-.536 2.108-.805 3.38-.805 1.243 0 2.347.261 3.313.782a5.545 5.545 0 012.254 2.231c.552.966.828 2.093.828 3.381zm-4.025-1.035c0-.674-.23-1.211-.69-1.61-.46-.398-1.035-.598-1.725-.598-.66 0-1.22.192-1.68.575-.444.384-.72.928-.827 1.633h4.922z" fill="#251A3F"/>
  <path d="M47.253 56.922c2.37-1.763 3.916-4.577 3.916-7.75 0-5.33-4.336-9.668-9.667-9.668-5.331 0-9.667 4.336-9.667 9.667 0 3.176 1.546 5.99 3.918 7.753a15.503 15.503 0 00-6.915 5.321c-5.742-2.957-10.348-7.818-12.901-13.786a27.586 27.586 0 01-1.621-5.124l4.742 3.774a1.5 1.5 0 101.868-2.348l-7.884-6.275a1.499 1.499 0 00-2.108.24L4.659 46.61a1.5 1.5 0 102.348 1.87l4.052-5.092c.238 1.244.548 2.462.93 3.65 2.514 7.812 8.059 14.263 15.234 18.006a14.626 14.626 0 00-1.22 5.858 1.5 1.5 0 001.5 1.5h28.02A1.5 1.5 0 0057 70.643c-.11-6.22-4.121-11.526-9.748-13.72zm-12.417-7.75a6.675 6.675 0 016.667-6.668 6.675 6.675 0 016.667 6.667 6.675 6.675 0 01-6.667 6.667 6.675 6.675 0 01-6.667-6.667zm-5.738 20.23c.768-5.948 6.038-10.565 12.404-10.565s11.636 4.617 12.404 10.564H29.098zm51.787-34.657c-.11-6.22-4.12-11.525-9.747-13.72 2.37-1.763 3.916-4.577 3.916-7.75 0-5.332-4.336-9.668-9.667-9.668-5.331 0-9.667 4.336-9.667 9.667 0 3.176 1.546 5.99 3.918 7.753-5.706 2.225-9.751 7.646-9.751 13.978a1.5 1.5 0 001.5 1.5h17.877c.016.351.03.703.03 1.058 0 5.75-1.755 11.098-4.758 15.536a28.06 28.06 0 01-3.9 4.592l.993-5.37a1.5 1.5 0 00-2.95-.547l-1.831 9.908a1.5 1.5 0 001.202 1.748l9.908 1.831a1.5 1.5 0 10.545-2.949l-6.81-1.258a31.267 31.267 0 002.652-2.56c5.06-5.52 8.155-12.87 8.155-20.93 0-.355-.012-.706-.026-1.058h6.933a1.5 1.5 0 001.478-1.76zM58.72 13.275a6.675 6.675 0 016.667-6.668 6.675 6.675 0 016.667 6.667 6.675 6.675 0 01-6.667 6.667 6.675 6.675 0 01-6.667-6.667zm-5.737 20.23c.768-5.948 6.038-10.565 12.404-10.565s11.636 4.617 12.404 10.564H52.984zm-23.463 3a1.5 1.5 0 001.478-1.76c-.109-6.22-4.119-11.524-9.747-13.72a9.678 9.678 0 003.71-5.77 27.614 27.614 0 0116.54-5.486c.292 0 .58.013.87.022 2.141.066 4.222.37 6.216.897l-6.354 2.354a1.5 1.5 0 101.042 2.815l9.449-3.5a1.5 1.5 0 00.886-1.928l-3.5-9.45a1.501 1.501 0 00-2.814 1.042l2.057 5.552a30.805 30.805 0 00-3.456-.693 30.777 30.777 0 00-20.921 4.489c-.888-4.42-4.798-7.76-9.476-7.76-5.33 0-9.667 4.335-9.667 9.666 0 3.176 1.546 5.99 3.918 7.754C4.045 23.253 0 28.674 0 35.007a1.5 1.5 0 001.5 1.5h28c.007-.003.013-.002.02-.002zM8.834 13.274a6.675 6.675 0 016.667-6.668 6.675 6.675 0 016.667 6.667 6.675 6.675 0 01-6.667 6.668 6.675 6.675 0 01-6.667-6.668zm-5.738 20.23C3.864 27.556 9.134 22.94 15.5 22.94s11.636 4.617 12.404 10.564H3.096z" fill="#029D7F"/>
  <path d="M208.411 107.005v3.266h5.267v3.036h-5.267v3.542h5.957V120h-9.89v-16.146h9.89v3.151h-5.957zm16.822.023c1.503 0 2.699.491 3.588 1.472.905.966 1.357 2.3 1.357 4.002V120h-3.91v-6.969c0-.859-.222-1.526-.667-2.001-.445-.475-1.043-.713-1.794-.713-.751 0-1.349.238-1.794.713-.445.475-.667 1.142-.667 2.001V120h-3.933v-12.834h3.933v1.702a4.062 4.062 0 011.61-1.334c.675-.337 1.434-.506 2.277-.506zm13.046-.046c.905 0 1.694.184 2.369.552.69.368 1.219.851 1.587 1.449v-1.817h3.933v12.811c0 1.181-.238 2.246-.713 3.197-.46.966-1.173 1.733-2.139 2.3-.951.567-2.139.851-3.565.851-1.901 0-3.442-.452-4.623-1.357-1.181-.889-1.855-2.101-2.024-3.634h3.887c.123.491.414.874.874 1.15.46.291 1.027.437 1.702.437.813 0 1.457-.238 1.932-.713.491-.46.736-1.204.736-2.231v-1.817c-.383.598-.912 1.089-1.587 1.472-.675.368-1.464.552-2.369.552-1.058 0-2.016-.268-2.875-.805-.859-.552-1.541-1.326-2.047-2.323-.491-1.012-.736-2.177-.736-3.496s.245-2.476.736-3.473c.506-.997 1.188-1.763 2.047-2.3.859-.537 1.817-.805 2.875-.805zm3.956 6.601c0-.981-.276-1.756-.828-2.323a2.618 2.618 0 00-1.978-.851 2.69 2.69 0 00-2.001.851c-.537.552-.805 1.319-.805 2.3 0 .981.268 1.763.805 2.346a2.69 2.69 0 002.001.851c.782 0 1.441-.284 1.978-.851.552-.567.828-1.342.828-2.323zm6.488-.023c0-1.319.245-2.476.736-3.473.506-.997 1.188-1.763 2.047-2.3.859-.537 1.817-.805 2.875-.805.905 0 1.694.184 2.369.552.69.368 1.219.851 1.587 1.449v-1.817h3.933V120h-3.933v-1.817c-.383.598-.92 1.081-1.61 1.449-.675.368-1.464.552-2.369.552a5.27 5.27 0 01-2.852-.805c-.859-.552-1.541-1.326-2.047-2.323-.491-1.012-.736-2.177-.736-3.496zm9.614.023c0-.981-.276-1.756-.828-2.323a2.618 2.618 0 00-1.978-.851 2.69 2.69 0 00-2.001.851c-.537.552-.805 1.319-.805 2.3 0 .981.268 1.763.805 2.346a2.69 2.69 0 002.001.851c.782 0 1.441-.284 1.978-.851.552-.567.828-1.342.828-2.323zm12.146-6.601c.905 0 1.695.184 2.369.552.69.368 1.219.851 1.587 1.449v-1.817h3.933v12.811c0 1.181-.237 2.246-.713 3.197-.46.966-1.173 1.733-2.139 2.3-.95.567-2.139.851-3.565.851-1.901 0-3.442-.452-4.623-1.357-1.18-.889-1.855-2.101-2.024-3.634h3.887c.123.491.414.874.874 1.15.46.291 1.028.437 1.702.437.813 0 1.457-.238 1.932-.713.491-.46.736-1.204.736-2.231v-1.817c-.383.598-.912 1.089-1.587 1.472-.674.368-1.464.552-2.369.552-1.058 0-2.016-.268-2.875-.805-.858-.552-1.541-1.326-2.047-2.323-.49-1.012-.736-2.177-.736-3.496s.246-2.476.736-3.473c.506-.997 1.189-1.763 2.047-2.3.859-.537 1.817-.805 2.875-.805zm3.956 6.601c0-.981-.276-1.756-.828-2.323a2.617 2.617 0 00-1.978-.851 2.69 2.69 0 00-2.001.851c-.536.552-.805 1.319-.805 2.3 0 .981.269 1.763.805 2.346a2.69 2.69 0 002.001.851c.782 0 1.442-.284 1.978-.851.552-.567.828-1.342.828-2.323zm19.368-.207c0 .368-.023.751-.069 1.15h-8.901c.062.797.315 1.411.759 1.84.46.414 1.02.621 1.679.621.982 0 1.664-.414 2.047-1.242h4.186a5.657 5.657 0 01-1.173 2.277 5.697 5.697 0 01-2.093 1.587c-.843.383-1.786.575-2.829.575-1.257 0-2.376-.268-3.358-.805a5.728 5.728 0 01-2.3-2.3c-.552-.997-.828-2.162-.828-3.496s.269-2.499.805-3.496a5.728 5.728 0 012.3-2.3c.982-.537 2.109-.805 3.381-.805 1.242 0 2.346.261 3.312.782a5.534 5.534 0 012.254 2.231c.552.966.828 2.093.828 3.381zm-4.025-1.035c0-.675-.23-1.211-.69-1.61-.46-.399-1.035-.598-1.725-.598-.659 0-1.219.192-1.679.575-.444.383-.72.928-.828 1.633h4.922z" fill="#251A3F"/>
  <path d="M208.034 31.291a.998.998 0 00.187.886L216.128 42l-7.907 9.823a.998.998 0 00.418 1.56l11.761 4.552-1.938 12.462a1.001 1.001 0 001.142 1.141l12.461-1.937 4.552 11.76a1.002 1.002 0 001.56.418L248 73.872l9.823 7.907a1.002 1.002 0 001.56-.418l4.553-11.76 12.461 1.937a.998.998 0 001.141-1.142l-1.937-12.46 11.761-4.553a1 1 0 00.417-1.56L279.872 42l7.907-9.823a1 1 0 00-.417-1.56l-11.761-4.553 1.937-12.46a.998.998 0 00-1.141-1.142l-12.461 1.937-4.553-11.76a.998.998 0 00-1.56-.418L248 10.128l-9.823-7.907a1.002 1.002 0 00-1.56.418l-4.552 11.76-12.461-1.937a1 1 0 00-1.142 1.142l1.938 12.46-11.761 4.553a1 1 0 00-.605.674zm13.838-3.652a1 1 0 00.627-1.086l-1.85-11.905 11.904 1.851c.461.068.916-.188 1.086-.627l4.349-11.235 9.385 7.554a1 1 0 001.254 0l9.385-7.554 4.35 11.235c.17.44.628.695 1.085.627l11.905-1.85-1.851 11.904a1 1 0 00.627 1.086l11.235 4.35-7.554 9.384a1.002 1.002 0 000 1.254l7.554 9.385-11.235 4.35a1 1 0 00-.627 1.085l1.851 11.905-11.905-1.851a1.006 1.006 0 00-1.085.627l-4.35 11.235-9.385-7.554a.999.999 0 00-1.254 0l-9.385 7.554-4.349-11.235a1.004 1.004 0 00-1.086-.627l-11.904 1.85 1.85-11.904a1 1 0 00-.627-1.086l-11.235-4.35 7.555-9.384a1.002 1.002 0 000-1.254l-7.555-9.385 11.235-4.35z" fill="#029D7F"/>
  <path d="M236.963 56.071c3.781 0 7.211-1.506 9.742-3.941.039-.033.078-.063.111-.101.426-.419.82-.868 1.191-1.337 2.66 3.38 6.688 5.38 11.041 5.38 3.781 0 7.211-1.507 9.742-3.942.039-.033.078-.063.111-.101A14.022 14.022 0 00273.119 42c0-7.759-6.312-14.071-14.071-14.071-4.353 0-8.381 1.998-11.041 5.38-2.579-3.27-6.566-5.38-11.044-5.38-7.76 0-14.072 6.312-14.072 14.071 0 7.759 6.312 14.071 14.072 14.071zm-7.863-4.93c1.526-2.917 4.537-4.785 7.863-4.785 3.335 0 6.335 1.865 7.861 4.785a12.007 12.007 0 01-15.724 0zm22.085 0c1.526-2.918 4.537-4.785 7.863-4.785 3.335 0 6.335 1.865 7.861 4.785a12.007 12.007 0 01-15.724 0zm7.863-21.212c6.656 0 12.071 5.415 12.071 12.071 0 2.897-1.027 5.558-2.735 7.64a10.873 10.873 0 00-9.336-5.284 10.895 10.895 0 00-9.335 5.286c-.184-.225-.353-.466-.522-.706a13.974 13.974 0 000-13.872c2.266-3.216 5.906-5.135 9.857-5.135zm-22.085 0c6.656 0 12.071 5.415 12.071 12.071 0 2.897-1.027 5.558-2.735 7.64a10.873 10.873 0 00-9.336-5.284 10.895 10.895 0 00-9.336 5.286A12.016 12.016 0 01224.891 42c0-6.656 5.416-12.071 12.072-12.071z" fill="#029D7F"/>
  <path d="M236.963 43a5.609 5.609 0 005.602-5.602 5.61 5.61 0 00-5.602-5.604 5.61 5.61 0 00-5.604 5.604A5.61 5.61 0 00236.963 43zm0-9.206a3.607 3.607 0 013.602 3.604A3.607 3.607 0 01236.963 41a3.608 3.608 0 01-3.604-3.602 3.608 3.608 0 013.604-3.604zM259.047 43a5.609 5.609 0 005.602-5.602 5.61 5.61 0 00-5.602-5.604 5.61 5.61 0 00-5.604 5.604A5.61 5.61 0 00259.047 43zm0-9.206a3.607 3.607 0 013.602 3.604A3.607 3.607 0 01259.047 41a3.608 3.608 0 01-3.604-3.602 3.608 3.608 0 013.604-3.604z" fill="#029D7F"/>
</svg>
